<svg width="58" height="55" viewBox="0 0 58 55" fill="none" xmlns="http://www.w3.org/2000/svg">
<path d="M3.67716 13.0003C2.95663 12.9914 2.24973 13.197 1.64637 13.5909C1.04302 13.9849 0.570475 14.5494 0.288862 15.2127C0.00724803 15.876 -0.0707058 16.608 0.0649015 17.3158C0.200509 18.0235 0.54355 18.6749 1.0504 19.1871C1.55725 19.6993 2.205 20.0491 2.91125 20.1922C3.6175 20.3352 4.35033 20.2649 5.01654 19.9903C5.68274 19.7157 6.2522 19.2491 6.65248 18.6499C7.05276 18.0507 7.26577 17.346 7.26441 16.6254C7.25123 15.6746 6.87023 14.7658 6.20137 14.0899C5.53251 13.414 4.6278 13.0234 3.67716 13.0003V13.0003ZM4.432 17.4607C4.39128 17.5 4.34779 17.5364 4.30186 17.5695C4.25569 17.6018 4.20746 17.6311 4.15751 17.6571C4.09019 17.6945 4.01872 17.7239 3.94455 17.7446C3.82667 17.7814 3.70363 17.799 3.58015 17.7967C3.54786 17.7991 3.51542 17.7991 3.48313 17.7967H3.40504L3.31986 17.7778C3.26354 17.7651 3.20819 17.7485 3.15421 17.7281V17.7281C3.11051 17.71 3.06785 17.6894 3.02644 17.6665C2.99277 17.6491 2.96036 17.6293 2.92943 17.6074L2.84897 17.5482C2.79772 17.5076 2.75022 17.4625 2.707 17.4134C2.68571 17.3873 2.66441 17.3637 2.64548 17.3376C2.62521 17.3118 2.60626 17.2849 2.58869 17.2572L2.53899 17.1744L2.4964 17.0845C2.48457 17.0537 2.47274 17.0229 2.46327 16.9922C2.4249 16.877 2.4065 16.7562 2.40885 16.6349V16.6349C2.4103 16.5671 2.41902 16.4996 2.43488 16.4337C2.45829 16.3161 2.50149 16.2033 2.56265 16.1001C2.59974 16.0344 2.64335 15.9725 2.69281 15.9155C2.80746 15.782 2.94986 15.6752 3.11006 15.6025C3.27027 15.5297 3.44443 15.4928 3.62038 15.4943C3.70012 15.494 3.77961 15.5035 3.857 15.5227C3.92176 15.5367 3.98512 15.5565 4.0463 15.5819C4.12999 15.6129 4.20948 15.6542 4.28293 15.7049C4.34507 15.7464 4.40293 15.794 4.45566 15.8469C4.56681 15.9552 4.65508 16.0848 4.71524 16.2278C4.77539 16.3709 4.80622 16.5246 4.80588 16.6798C4.78923 16.9793 4.65483 17.26 4.432 17.4607V17.4607Z" fill="white"/>
<path d="M51.5776 54.3235C51.4778 54.4542 51.3497 54.5607 51.203 54.635C51.0563 54.7093 50.8947 54.7495 50.7302 54.7527C50.5658 54.7559 50.4028 54.7219 50.2533 54.6534C50.1038 54.5848 49.9717 54.4834 49.8668 54.3567C49.1238 53.4362 48.5962 53.4883 47.8768 54.3567C47.4249 54.908 46.7694 54.8512 46.2204 54.3567C45.6715 53.8621 45.6856 53.2303 46.1897 52.6293C46.2077 52.6057 46.2283 52.5843 46.2512 52.5654C47.1125 51.9857 47.1385 51.4391 46.2772 50.7931C46.0558 50.6397 45.8991 50.4096 45.8375 50.1473C45.7758 49.8851 45.8136 49.6093 45.9436 49.3733C46.1802 48.9001 46.5446 48.6634 47.2308 48.6634C47.678 48.635 48.0377 49.061 48.3737 49.4609C48.7097 49.8608 49.0245 49.9341 49.3699 49.4609C49.4989 49.2996 49.6457 49.1535 49.8077 49.0255C50.3709 48.5357 51.0855 48.5215 51.5421 49.0255C52.0367 49.5603 52.1006 50.2346 51.5682 50.6819C50.6927 51.4083 50.6217 51.9336 51.5493 52.6766C52.1006 53.0907 52.0485 53.7722 51.5776 54.3235Z" fill="white"/>
<path d="M57.9998 41.9693C57.9815 42.3099 57.832 42.6302 57.5828 42.8631C57.3336 43.096 57.0039 43.2234 56.6628 43.2187C56.4862 43.2215 56.3109 43.1874 56.1482 43.1186C55.9855 43.0498 55.8389 42.9477 55.718 42.8189C55.597 42.6902 55.5043 42.5375 55.4457 42.3709C55.3872 42.2042 55.3641 42.0271 55.3779 41.851C55.4004 41.5095 55.5542 41.19 55.8069 40.9594C56.0596 40.7287 56.3918 40.6047 56.7338 40.6134C57.0745 40.6447 57.3917 40.8001 57.6251 41.0501C57.8586 41.3002 57.9919 41.6273 57.9998 41.9693V41.9693Z" fill="white"/>
<path d="M2.44486 43.4199C2.45427 43.5817 2.42966 43.7437 2.37259 43.8954C2.31553 44.0471 2.22728 44.1851 2.11357 44.3006C1.99985 44.4161 1.8632 44.5065 1.7124 44.5659C1.5616 44.6253 1.40001 44.6525 1.23808 44.6456C0.554225 44.6456 -0.0468132 44.08 0.00287836 43.4222C0.00641184 43.1075 0.131551 42.8064 0.352084 42.5819C0.572617 42.3574 0.871443 42.2269 1.18601 42.2178C1.34842 42.2108 1.51057 42.2367 1.66273 42.2939C1.81489 42.3511 1.95393 42.4384 2.0715 42.5507C2.18906 42.6629 2.28274 42.7978 2.3469 42.9472C2.41106 43.0965 2.44438 43.2573 2.44486 43.4199V43.4199Z" fill="white"/>
<path d="M29.4839 0C25.954 0.0193186 22.5746 1.43191 20.081 3.9304C17.5874 6.42888 16.1814 9.81106 16.1689 13.341C16.1689 20.6764 22.184 26.6914 29.4863 26.682C33.0245 26.682 36.4179 25.2764 38.9198 22.7745C41.4217 20.2726 42.8273 16.8792 42.8273 13.341C42.8273 9.80274 41.4217 6.40941 38.9198 3.90749C36.4179 1.40556 33.0245 5.2724e-08 29.4863 0H29.4839ZM29.3443 24.2187C23.3884 24.1241 18.5115 19.1194 18.6322 13.225C18.7576 7.16741 23.7126 2.34023 29.6637 2.46565C35.7758 2.60289 40.4705 7.61463 40.3309 13.8545C40.2054 19.5027 35.0991 24.311 29.3443 24.2187Z" fill="white"/>
<path d="M18.5947 31.8049C18.5545 30.5437 17.6956 29.777 16.4083 29.7463C15.2015 29.7179 13.9947 29.725 12.7879 29.7463C11.7988 29.7605 11.3327 30.2195 11.3161 31.2157C11.2972 32.335 11.3161 33.4542 11.3161 34.5711C11.3161 35.7542 11.2948 36.9373 11.3161 38.1039C11.3374 38.996 11.813 39.4479 12.7004 39.4574C13.9356 39.4716 15.1731 39.4692 16.4083 39.4574C17.6979 39.4574 18.5521 38.7073 18.5924 37.4224C18.6539 35.5515 18.6547 33.679 18.5947 31.8049ZM13.7652 32.5148C13.7693 32.4939 13.7749 32.4734 13.7817 32.4533C13.8014 32.3759 13.8443 32.3065 13.9048 32.2545L13.9356 32.2332C14.1178 32.1267 14.3923 32.2332 14.6194 32.1953C14.7652 32.1871 14.9114 32.1871 15.0572 32.1953C15.2938 32.1953 15.5304 32.2095 15.767 32.1953C15.8197 32.1892 15.8729 32.1892 15.9256 32.1953H15.9635H15.9966C16.0142 32.1995 16.031 32.2068 16.0463 32.2166C16.083 32.2382 16.1133 32.2693 16.1338 32.3066C16.1439 32.3256 16.1526 32.3454 16.1599 32.3657V32.3657C16.1652 32.3859 16.1691 32.4065 16.1717 32.4272C16.173 32.4422 16.173 32.4572 16.1717 32.4722C16.1717 32.5598 16.1717 32.6568 16.1717 32.7491C16.1717 33.0212 16.2711 33.3761 15.7907 33.369C15.4547 33.369 15.1163 33.369 14.7827 33.369H14.6502C14.4442 33.3906 14.2363 33.3826 14.0326 33.3454C13.9884 33.3292 13.9475 33.3052 13.9119 33.2744C13.8851 33.2527 13.8626 33.2262 13.8456 33.1963L13.8244 33.1584C13.7952 33.0982 13.7768 33.0333 13.7699 32.9668C13.7699 32.9384 13.7699 32.9076 13.7699 32.8745C13.7699 32.8413 13.7699 32.7798 13.7699 32.7254C13.7699 32.671 13.7699 32.6662 13.7699 32.6402C13.7699 32.6142 13.7581 32.5621 13.7652 32.5219V32.5148ZM15.8357 36.9918H14.9602C14.4206 36.9279 13.5664 37.3301 13.777 36.1707C13.7843 36.0853 13.8145 36.0035 13.8646 35.934C13.8748 35.9199 13.8876 35.9078 13.9024 35.8986C13.9259 35.8827 13.9526 35.8722 13.9805 35.8678C13.9954 35.8653 14.0106 35.8653 14.0255 35.8678C14.0467 35.8653 14.0682 35.8653 14.0894 35.8678H15.838C15.8859 35.8663 15.9338 35.8719 15.98 35.8844C15.9925 35.8858 16.0046 35.8898 16.0155 35.8962C16.0557 35.9118 16.0914 35.937 16.1196 35.9695C16.1273 35.9789 16.1336 35.9892 16.1386 36.0003C16.1815 36.1404 16.1921 36.2885 16.1693 36.4333C16.1693 36.67 16.264 36.9941 15.8357 36.9989V36.9918Z" fill="white"/>
<path d="M27.0543 34.0742C27.0543 35.0207 27.078 35.9672 27.0543 36.9137C27.0407 37.5982 26.7578 38.2498 26.267 38.7273C25.7763 39.2048 25.1172 39.4696 24.4325 39.4645C23.7842 39.4787 23.1358 39.4763 22.4874 39.4645C22.1334 39.467 21.7825 39.3991 21.455 39.2645C21.1276 39.13 20.8302 38.9316 20.5802 38.681C20.3302 38.4303 20.1326 38.1324 19.999 37.8046C19.8653 37.4768 19.7983 37.1257 19.8017 36.7717C19.7828 34.9142 19.7899 33.0567 19.8017 31.1991C19.8017 30.3426 20.3105 29.7628 21.018 29.7557C21.7255 29.7486 22.2532 30.3307 22.2603 31.1755C22.2745 32.8579 22.291 34.5379 22.2603 36.218C22.2461 36.819 22.3857 37.032 23.0293 37.0202C24.6171 36.9918 24.6171 37.0202 24.6171 35.4655C24.6171 34.0789 24.6171 32.6923 24.6171 31.308C24.6171 30.3615 25.0903 29.777 25.8333 29.7534C26.5763 29.7297 27.0685 30.3307 27.0756 31.3364C27.0756 32.2498 27.0756 33.1631 27.0756 34.0789L27.0543 34.0742Z" fill="white"/>
<path d="M47.347 31.7931C47.2787 31.9204 47.1995 32.0415 47.1104 32.1552C45.6906 33.8376 44.9145 35.7046 45.2174 37.9715C45.3428 38.9038 44.7441 39.474 43.9775 39.4551C43.6923 39.4712 43.4117 39.3785 43.1921 39.1958C42.9726 39.0132 42.8304 38.7541 42.7943 38.4707C42.7653 38.3556 42.7573 38.2361 42.7707 38.1182C43.1895 35.7519 42.2596 33.8281 40.8114 32.07C40.7012 31.9316 40.6037 31.7835 40.5204 31.6275C40.1512 30.9815 40.2837 30.4136 40.8658 29.9948C41.4479 29.5759 42.0679 29.6777 42.5057 30.2314C43.0239 30.8987 43.4687 31.6204 43.9798 32.361C44.4294 31.6938 44.8459 31.0549 45.2836 30.4302C45.7829 29.7203 46.4005 29.5476 47.0157 29.9262C47.631 30.3048 47.7848 31.0596 47.347 31.7931Z" fill="white"/>
<path d="M41.5662 38.2269C41.5662 38.9959 41.0763 39.4479 40.1795 39.455C39.0911 39.4676 38.0018 39.4676 36.9117 39.455C35.9794 39.455 35.5369 39.0433 35.5298 38.1394C35.5133 35.7849 35.5298 33.4281 35.5298 31.0737C35.5298 30.2905 35.9463 29.8598 36.6751 29.758C37.3353 29.6681 37.9411 30.2479 37.9789 31.024C38.0239 31.9705 37.9789 32.917 37.9789 33.8493C37.9789 34.7319 37.9931 35.6145 37.9789 36.4972C37.9789 36.8734 38.0712 37.0272 38.4687 37.0059C39.0272 36.9775 39.5856 36.987 40.1464 37.0059C41.0409 37.0225 41.5567 37.4792 41.5662 38.2269Z" fill="white"/>
<path d="M34.3064 38.2411C34.3064 38.9865 33.8331 39.4432 33.0026 39.455C31.8833 39.4716 30.7641 39.4692 29.6448 39.455C28.6983 39.455 28.2843 39.0244 28.2748 38.0353C28.263 36.8876 28.2748 35.74 28.2748 34.5924C28.2748 33.4447 28.2748 32.2947 28.2748 31.1471C28.2748 30.3331 28.748 29.7817 29.4295 29.7486C30.111 29.7155 30.712 30.2881 30.7262 31.1258C30.7523 32.8626 30.7594 34.5995 30.7262 36.3316C30.7262 36.8876 30.8753 37.0533 31.4148 37.0036C31.9443 36.9693 32.4755 36.9693 33.0049 37.0036C33.8118 37.0391 34.3064 37.5313 34.3064 38.2411Z" fill="white"/>
<path d="M37.2645 10.0022C36.7912 8.92082 35.8944 8.6345 35.1135 9.40591C31.9049 12.5735 28.7159 15.7609 25.5467 18.968C24.8132 19.711 25.0285 20.5912 25.9821 21.0408C27.0729 21.5657 28.2715 21.8275 29.4818 21.8051C35.6128 21.7436 39.7088 15.5251 37.2645 10.0022ZM28.9825 19.2472L35.4022 12.8725C36.0648 16.5449 32.2077 19.9618 28.992 19.2472H28.9825Z" fill="white"/>
<path d="M32.9696 5.63879C32.0267 5.16269 30.9896 4.90242 29.9337 4.87685C23.4454 4.75381 19.1908 11.2137 21.7417 16.7484C22.2149 17.7588 23.0951 18.0096 23.8476 17.2642C27.0515 14.0935 30.2373 10.9061 33.4049 7.70217C34.1338 6.9781 33.9161 6.09548 32.9696 5.63879ZM23.6205 13.9609C22.7591 11.0859 25.9323 6.72964 30.1443 7.44898L23.6205 13.9609Z" fill="white"/>
</svg>
