<svg xmlns="http://www.w3.org/2000/svg" viewBox="0 0 484.99 504.06"><defs><style>.cls-1{fill:#fdc349;}.cls-2{fill:#fdbf2e;}</style></defs><title>bullyldpi</title><g id="Layer_2" data-name="Layer 2"><g id="BACKGROUND"><path class="cls-1" d="M264.64.94c-5.36-.27-10,2.26-14.65,4.24-12.85,5.51-22,14.74-26.77,28.25-4.91,13.74-3.41,27.81-3.37,41.85-.68.92-1.34,1.86-2,2.76-7.83,10.12-7.79,17.88.17,28,.6.77,1.18,1.56,1.77,2.34q-.08,8.25-.16,16.51c-5.08-.93-9,.45-10.85,5.66-5.32,1.87-10.65,1.62-16,.18q0-39.63.09-79.25c0-26.8,18.08-47.28,44.61-50.56.83-.11,1.66-.14,2.15-1h24.94A1.59,1.59,0,0,0,264.64.94Z"/><path class="cls-1" d="M485,287.34V396.08l-.49,0-.47.12q0-54.45,0-108.9A1.26,1.26,0,0,0,485,287.34Z"/><path class="cls-2" d="M484,287.27c-.59-19.78-18-38.9-39-42.9-8.43-1.61-16.9-.73-25.36-.89-2.78,0-3.62-.83-3.51-3.76.31-8,.2-15.95.23-23.93s0-8,7.76-9c24.71-3.41,42.65-23.71,42.71-48.59q.13-53.61,0-107.22C466.74,22,445.56,1,416.71,1q-76-.07-152.07,0c-5.36-.27-10,2.26-14.65,4.24-12.85,5.51-22,14.74-26.77,28.25-4.91,13.74-3.41,27.81-3.37,41.85,13.41-8,26.49-7,39.28,1.47,3,2,5.55,4.38,4.9,8.47-.94,5.89-6.45,8.31-12.15,5-5-2.87-10-5.26-15.93-4.54a17,17,0,0,0-4.3,1,5.52,5.52,0,0,0-3.51,5c-.18,2.51,1.32,4,3.44,4.93,5.81,2.42,11.65,4.75,17.48,7.12a33.49,33.49,0,0,1,8.58,4.94c11.89,9.58,10.65,22.33,1.89,32.74-1.23,1.46-2.22,1.54-3.76.5-4-2.68-8-5.21-12.08-7.81.14-.21.25-.55.5-.71,3-2,6.68-3.65,6.29-8.13-.42-4.89-4.71-6-8.27-7.6-7.43-3.24-15-6.24-22.46-9.33q-.08,8.25-.16,16.51l6,5.6a102,102,0,0,1-16.84.06c-5.32,1.87-10.65,1.62-16,.18-46.37,0-92.75-.11-139.12,0-22.15.07-39.69,8.2-49,29.7-4.31,9.94-4.69,20.33-4.58,31,.33,32.41.07,64.83.11,97.25a48.52,48.52,0,0,0,44.45,48.41c4.27.38,5.73,2.14,5.61,6.31-.23,8.14-.12,16.29,0,24.44.09,10.54,5.58,18.5,15.29,22.33,8.56,3.39,18.28.83,25.26-6.77q19.07-20.73,38-41.56a12.72,12.72,0,0,1,10-4.61c22.44.07,44.88.11,67.32,0,3.57,0,4.5,1.18,4.46,4.59-.16,13.63-.28,27.26,0,40.89.22,10.42-1.09,21,1.76,31.25,6.37,22.89,26.29,37.17,52,36.44,27.26-.77,54.51-.06,81.76-.51,4.43-.07,7.4,1.57,10.29,4.79,12.67,14.07,25.16,28.32,38.52,41.76,7.14,7.19,16.56,9.57,25.06,5.77,9.11-4.06,14.23-11.2,14.42-21.4.12-6.82.09-13.64,0-20.45a6.33,6.33,0,0,1,2.1-5.25,270.74,270.74,0,0,0,20.53-21c10.28-11.8,19.76-24.14,27.07-38Q484,341.72,484,287.27Zm-350.46,16A74.25,74.25,0,0,1,59,229c0-40.93,33.7-74.15,75-73.94s74.49,33.38,74.47,74C208.38,270,174.9,303.22,133.56,303.3Zm97.7,55.76h-.36V297.62h.36ZM399.12,78.53c0-4.68,2.05-8,6.73-8.3,8.42-.5,16.94-1.26,25.29.52,13.71,2.92,22,15.4,19.87,29.45-1.94,12.82-14.31,22.43-27.62,21.43-8.71-.65-9.66.47-8.79,9.44a57.69,57.69,0,0,1,.11,10.43c-.47,5.44-3.59,8.33-8.18,8.14s-7.33-3.41-7.38-8.86c-.09-10.46,0-20.92,0-31.38C399.13,99.11,399.16,88.82,399.12,78.53ZM367.9,71.91c16.35,4.94,26,16.6,27.93,33.46,1.92,17.1-5.31,30.44-20.16,39.2-14,8.27-33.59,6.22-46.07-4-6.05-5-9.54-11.23-12.7-18a8.64,8.64,0,0,1-.7-6.51c-2.41-3.11-2.43-9.37,0-13.36-.15-7.55,4-13.37,8.55-18.53C336.38,71,351.16,66.85,367.9,71.91Zm-95.84,5c.35-4,2.65-6.71,6.64-6.78q18.93-.3,37.85,0c4,.06,6.29,2.74,6.69,6.75s-1.44,6.79-5.29,7.89a19.15,19.15,0,0,1-6.37.78c-4.7-.32-6.41,1.45-6.33,6.29.26,15.11.08,30.22.11,45.32a20.38,20.38,0,0,1-1.1,7.84,7.48,7.48,0,0,1-13.86,0,17,17,0,0,1-.89-6.85c0-7.64,0-15.27,0-22.91h.1c0-8.14-.14-16.27.05-24.41.1-4-1.19-6-5.45-5.35a14.64,14.64,0,0,1-6.88-.68C273.52,83.61,271.71,80.93,272.06,76.94Zm-25,168.4c-.26,0-.51-.29-.77-.45.28-.13.55-.38.82-.37s.51.29.79.46C247.6,245.12,247.32,245.36,247.05,245.34Zm3.65-1.49c4.88-.16,9.6-2.4,15-1-.63.29-1,.58-1.26.55C259.83,243,255.38,245.47,250.7,243.85Zm78.48,151.37c-5.67,1.87-10.8,0-14.64-5.53q-17.22-24.75-34.39-49.53c-.57-.81-1.2-1.59-2.8-3.72v35.67c0,4.49.19,9-.07,13.47a11.43,11.43,0,0,1-11.33,11,11.17,11.17,0,0,1-11.34-11.46q-.17-42.39,0-84.79a11.57,11.57,0,0,1,8.36-11.16c4.94-1.48,9.73.32,13,5q16.68,23.91,33.33,47.84c1.39,2,2.84,4,4.29,6,1.73-1.17,1.16-2.59,1.16-3.81,0-14.3,0-28.6,0-42.9,0-7.85,4.15-12.45,11.08-12.49,6.52,0,11.22,5.09,11.3,12.56q.44,40.89.76,81.78A12.24,12.24,0,0,1,329.18,395.22ZM293.1,243.29c-5,0-10,0-14.92-.12-3.19-.06-4.53-1.52-4.39-5,.37-8.94.46-17.9.43-26.86,0-3.06,1-3.9,4-3.87,17.09.13,34.18.08,51.27,0,2.45,0,4.78.49,6.4,2.24,10,10.82,19.84,21.75,30.58,33.55C341.18,243.29,317.14,243.3,293.1,243.29ZM402.37,396.72a54.34,54.34,0,0,1-54.2-54.31c0-29.75,24.59-54.14,54.45-54,30,.13,54.46,24.34,54.51,54A54.5,54.5,0,0,1,402.37,396.72Z"/><ellipse class="cls-1" cx="231.07" cy="328.34" rx="0.26" ry="43.45"/><path class="cls-1" d="M250.7,243.85c4.87-.16,9.6-2.4,15-1-.64.29-1,.58-1.27.55C259.83,243,255.37,245.47,250.7,243.85Z"/><path class="cls-1" d="M247.88,245c-.29.14-.57.38-.84.36s-.51-.29-.76-.45c.27-.13.55-.38.82-.37S247.61,244.81,247.88,245Z"/><path class="cls-2" d="M180.46,230.67a47.4,47.4,0,0,1-3.33,16c-1.2,2.93-2.44,3.76-4.95,1.27q-28.8-28.65-57.66-57.23c-1.66-1.65-2.52-2.9.62-4.28C145.3,173.11,180.52,196.11,180.46,230.67Z"/><path class="cls-2" d="M149.53,273.17c-21.3,9.14-50.74-4.18-59.52-27-4.7-12.24-4.17-24.3,1.55-37.06,11.16,11,21.92,21.56,32.62,32.17C133,250,141.69,259,150.71,267.57,154,270.67,152.87,271.73,149.53,273.17Z"/><path class="cls-2" d="M434.34,342.5a31.9,31.9,0,0,1-63.78.4c-.22-17.49,14.34-32.35,31.68-32.33A32.3,32.3,0,0,1,434.34,342.5Z"/><path class="cls-2" d="M379.5,110.21a24.12,24.12,0,0,1-24.72,23.89c-13.92-.12-24.6-10.86-24.47-24.64a24.27,24.27,0,0,1,24.74-23.89C369.05,85.7,379.65,96.39,379.5,110.21Z"/><path class="cls-2" d="M435.59,95.64c.06,6.68-5.83,11.1-14.87,11.16-5.37,0-5.91-1-5.91-11.52,0-9.35.51-10.21,6.12-10.19C430,85.11,435.54,89.08,435.59,95.64Z"/></g></g></svg>