<svg width="109" height="171" viewBox="0 0 109 171" fill="none" xmlns="http://www.w3.org/2000/svg">
<g clip-path="url(#clip0_494_7265)">
<path d="M24.7717 133.562C24.7717 133.562 23.0007 135.849 21.0916 138.799C19.0508 141.349 16.4348 143.386 13.4554 144.745C11.5004 145.889 10.4883 146.209 8.07326 147.81C5.65819 149.411 7.36024 151.972 8.07326 152.955C9.06229 154.602 10.0053 157.369 13.6854 156.02C17.3655 154.671 19.5276 152.292 22.1266 150.623C24.7257 148.953 27.8768 149.022 28.7278 144.745C28.892 143.748 29.1225 142.762 29.4178 141.795C30.0904 139.964 30.9538 138.209 31.9939 136.558L24.7717 133.562Z" fill="#C2C2C2"/>
<path d="M83.1475 88.2324L77.5583 96.8773C77.5583 96.8773 60.2388 90.5423 52.2576 89.3988C50.0177 88.9066 47.6757 89.1946 45.6239 90.2147C43.5722 91.2347 41.9352 92.9249 40.9873 95.002C38.8253 98.8442 36.8012 103.235 34.5011 107.718C28.705 119.61 20.0107 138.066 20.0107 138.066C23.1298 139.982 26.4453 141.561 29.901 142.778C34.1101 136.534 40.0443 128.735 42.9884 123.795C46.8065 117.392 51.3836 107.512 51.3836 107.512C51.3836 107.512 72.5902 115.585 79.4674 117.186C86.3446 118.787 94.7628 116.66 97.7299 112.36C100.697 108.061 102.514 98.1123 102.514 98.1123L83.1475 88.2324Z" fill="#363666"/>
<path d="M62.2626 56.3516C62.2626 56.3516 56.5814 61.1772 53.4993 64.0359C50.4172 66.8947 48.0712 76.5001 46.5991 81.0056C45.1271 85.511 48.4622 92.6236 50.3482 92.4406C52.2343 92.2577 62.4006 77.9638 64.1486 69.5705C65.302 65.0895 64.6239 60.3367 62.2626 56.3516V56.3516Z" fill="#6259C5"/>
<path d="M47.7031 148.061C47.0946 149.964 46.2196 151.774 45.104 153.435C43.0155 156.038 40.3459 158.121 37.3068 159.518C34.8554 160.951 32.2944 162.19 29.6476 163.223C26.4735 164.436 27.1865 165.854 27.7845 166.837C28.7965 168.529 34.3857 172.051 38.1578 170.679C41.9299 169.307 43.4019 167.271 46.07 165.556C48.7381 163.841 51.9352 163.932 52.8092 159.518C53.6832 155.105 53.8902 153.229 53.8902 153.229L47.7031 148.061Z" fill="#C2C2C2"/>
<path d="M107.229 98.0439C99.8812 97.7711 92.5234 97.9315 85.1945 98.5242C83.7748 100.912 82.7132 103.493 82.0435 106.186C76.1783 105.019 69.6921 104.082 65.184 105.065C60.6759 106.048 58.9278 106.231 57.3638 110.005C56.0067 113.253 46.3005 143.99 42.0684 154.51C45.6105 157.392 51.0386 159.77 53.6837 158.924C58.9968 148.45 68.4041 134.224 69.2781 123.658C75.3273 126.723 86.0916 129.193 92.6698 126.426C95.6368 127.501 100.743 125.854 103.549 123.201C110.771 116.363 108.885 104.082 107.229 98.0439Z" fill="#46467A"/>
<path d="M90.139 60.7429C80.6168 53.2644 66.5174 48.759 60.5602 60.5142C56.1441 69.2049 64.7693 83.7045 73.1876 94.1105C72.8248 95.0415 72.3621 95.931 71.8075 96.7634C83.0088 107.604 104.146 111.24 109 103.03C109.254 95.0251 107.69 87.0663 104.425 79.7453C101.159 72.4242 96.2765 65.9291 90.139 60.7429Z" fill="#AEA9EE"/>
<path d="M67.5527 60.6284C68.3675 63.5941 69.4134 66.4921 70.6808 69.2962C71.9229 72.155 72.9809 75.7227 76.523 70.5541C80.2491 65.0195 82.1351 57.6553 77.88 56.1688C75.5845 55.0376 73.5244 53.4858 71.8078 51.5947L67.5527 60.6284Z" fill="#FFB8A3"/>
<path d="M73.0502 54.8877C71.9003 51.9573 69.7897 49.4983 67.0599 47.9087C64.33 46.3192 61.1406 45.6919 58.0078 46.1284C56.7746 46.3282 55.5966 46.7806 54.5486 47.4571C53.5006 48.1335 52.6054 49.0191 51.9199 50.0577C51.2343 51.0964 50.7733 52.2653 50.5662 53.4905C50.359 54.7156 50.4102 55.9702 50.7166 57.1747C52.3036 62.6635 62.2169 71.0797 68.8181 69.09C74.6142 67.2604 75.0052 59.4617 73.0502 54.8877Z" fill="#FFC9B6"/>
<path d="M64.6086 76.3862C66.5637 75.8374 69.6688 77.6212 71.5088 77.0723C71.0761 75.2027 70.8296 73.2953 70.7728 71.3777C70.7074 69.5761 70.523 67.7807 70.2208 66.0032C69.9908 63.2359 71.2788 61.6579 70.2208 61.7951C67.9207 62.0924 66.5637 67.3068 65.3217 65.8431C61.8716 61.7265 56.6964 60.2628 55.3164 62.8929C54.7184 64.0364 57.3864 67.4669 59.9165 69.5481C62.4466 71.6293 64.4016 72.91 64.6086 76.3862Z" fill="#FFC9B6"/>
<path d="M60.4688 62.6868C61.7505 63.3146 62.981 64.0411 64.1488 64.8595C65.3449 65.7286 65.6209 66.6891 66.3339 65.7972C67.0309 64.5821 67.8393 63.4337 68.749 62.3667C69.991 61.2232 70.75 61.5662 70.75 61.5662C70.75 61.5662 70.382 61.0173 68.749 61.5662C67.5529 62.0007 66.4489 65.2712 65.6209 64.9053C64.0285 63.875 62.4929 62.7604 61.0208 61.5662L60.4688 62.6868Z" fill="#FFB8A3"/>
<path d="M64.402 43.4525C60.7449 38.5812 54.3967 39.9991 51.5216 45.122C49.3595 46.4028 46.1165 46.54 45.2424 49.9476C44.0464 54.6589 45.2424 61.0168 49.8426 63.441C49.1065 64.5159 48.3015 66.2312 47.0825 67.8092C48.4464 68.3236 49.9302 68.4376 51.3573 68.1375C52.7845 67.8375 54.0949 67.1361 55.1327 66.1168C55.2901 67.4542 55.7374 68.7416 56.4437 69.8904C58.0281 67.0856 59.7634 64.3678 61.6419 61.7486C62.6179 62.1811 63.7223 62.2305 64.7334 61.8869C65.7445 61.5433 66.5874 60.8321 67.093 59.8961C67.6445 58.9325 68.0696 57.9026 68.3581 56.8316C70.8334 56.8646 73.2533 56.1027 75.2583 54.6589C72.6362 48.8499 70.2441 42.1489 64.402 43.4525Z" fill="#252549"/>
<path d="M67.0928 59.8739C66.857 59.6421 66.6699 59.3661 66.5421 59.0618C66.4144 58.7576 66.3486 58.4312 66.3486 58.1015C66.3486 57.7718 66.4144 57.4454 66.5421 57.1412C66.6699 56.8369 66.857 56.5609 67.0928 56.3291C68.7948 54.4308 72.4059 57.2896 70.7729 59.8739C69.1398 62.4583 67.0928 59.8739 67.0928 59.8739Z" fill="#FFC9B6"/>
<path d="M96.2345 75.3107C95.3605 69.8676 92.8764 60.9254 84.6192 61.5886C78.064 63.5326 78.156 72.5205 80.0191 78.7641C77.903 81.4399 76.385 86.9973 74.7289 89.9247C74.7289 89.9247 72.2448 78.1237 71.0948 75.1506C70.0018 74.914 68.8721 74.8994 67.7733 75.1077C66.6745 75.316 65.6294 75.7428 64.7006 76.3627C63.9846 81.6695 63.8689 87.0394 64.3556 92.3718C65.2296 100.01 68.2427 105.385 69.4388 106.094C73.1419 108.015 78.317 104.584 81.2841 101.52C85.5392 96.9458 90.9674 93.6754 92.4624 87.7978C96.3035 85.2592 96.9245 79.7246 96.2345 75.3107Z" fill="#6259C5"/>
<path d="M70.7499 62.3662C70.2355 63.1004 69.8828 63.9343 69.7148 64.8133C69.7329 65.9494 69.9833 67.0699 70.4509 68.1066C70.7805 67.174 70.7805 66.1576 70.4509 65.225C70.3802 64.262 70.4815 63.2941 70.7499 62.3662V62.3662Z" fill="#FFB8A3"/>
<path d="M87.9541 101.268C91.4526 102.479 95.1603 102.977 98.8564 102.732C101.384 102.409 103.773 101.395 105.757 99.8047C103.151 100.501 100.5 101.013 97.8214 101.337C94.5359 101.581 91.2358 101.558 87.9541 101.268Z" fill="#6259C5"/>
<path d="M92.1865 96.946C94.6089 97.9074 97.1437 98.5606 99.7307 98.89C101.761 99.2192 103.841 99.0703 105.803 98.4554C103.708 98.2278 101.627 97.8842 99.5697 97.4263C97.143 96.9263 94.6581 96.7647 92.1865 96.946Z" fill="#6259C5"/>
<path d="M50.3946 82.3322C50.3946 82.3322 36.2492 73.1841 31.9941 71.3545C30.8211 73.1155 28.291 76.7061 28.291 76.7061C30.4586 79.9245 33.0414 82.8463 35.9732 85.3968C40.9874 89.7878 46.8525 95.7341 50.3486 92.2578C53.8447 88.7815 50.3946 82.3322 50.3946 82.3322Z" fill="#6259C5"/>
<path d="M30.4756 66.8485C30.7286 66.0481 31.8786 64.5615 32.7756 64.5615C33.6727 64.5615 33.7187 65.9109 33.3047 66.8485C33.0105 67.5294 32.6644 68.1869 32.2696 68.8154L30.4756 66.8485Z" fill="#FFC9B6"/>
<path d="M36.0421 80.0451L31.9709 64.8593C31.6978 63.8568 31.1095 62.9673 30.2919 62.3207L23.9437 58.6844C23.7946 58.6339 23.6328 58.6339 23.4837 58.6844L22.4717 59.2561L27.3478 75.2652C27.6002 76.2769 28.1926 77.1726 29.0269 77.8038L34.846 82.1491L35.95 81.5088C36.1341 81.12 36.2031 80.7083 36.0421 80.0451Z" fill="#363666"/>
<path d="M27.9456 78.1923L34.2938 81.8515C34.9378 82.2175 35.2368 81.6914 34.9608 80.6623L30.9127 65.4537C30.6542 64.4387 30.0534 63.5426 29.2106 62.9151L23.0005 59.2558C22.3334 58.8899 22.0344 59.4159 22.3104 60.4451L26.3585 75.6537C26.5867 76.6528 27.1456 77.5467 27.9456 78.1923V78.1923Z" fill="#46467A"/>
<path d="M23.4373 65.1113C23.1676 65.2033 22.9306 65.3711 22.7551 65.5944C22.5795 65.8176 22.4729 66.0868 22.4482 66.3692C22.4793 66.5956 22.5617 66.8121 22.6892 67.0023C22.8167 67.1924 22.986 67.3513 23.1843 67.467C22.9537 67.7767 22.8398 68.1571 22.8623 68.5418C22.8623 69.045 23.5523 69.388 23.5523 69.388C23.5523 69.388 23.0693 70.2571 23.3683 70.8289C23.532 71.1381 23.7164 71.4361 23.9203 71.7208C23.9203 71.7208 23.7363 72.2926 24.6333 73.093C25.3118 73.7646 26.0341 74.3911 26.7954 74.9684C28.1294 75.906 28.5894 75.6316 28.5894 74.9684C28.5894 74.3051 27.5544 73.6419 27.5544 73.6419C27.5544 73.6419 29.3944 74.3051 29.2794 73.6419C29.1644 72.9787 28.9804 72.7957 27.6694 71.9038C27.0222 71.4701 26.4211 70.972 25.8753 70.4172C26.6397 70.8854 27.4688 71.2398 28.3364 71.4692C29.0494 71.4692 28.7964 70.4858 28.1984 70.0513C27.6004 69.6167 26.1283 68.6105 26.1283 68.6105C26.1283 68.6105 28.0834 69.228 28.4284 68.7477C28.7734 68.2674 28.4284 68.0387 27.5544 67.627C26.6804 67.2154 24.5183 66.3006 23.7593 65.9575L23.4373 65.1113Z" fill="#FFC9B6"/>
<path d="M26.1978 35.8369L40.1362 27.8324C41.0082 27.21 41.7221 26.3939 42.2212 25.449C42.7203 24.5041 42.9908 23.4564 43.0112 22.3893V12.1206C43.0112 10.0394 41.7232 9.07887 40.1362 9.9708L26.1978 17.9753C25.33 18.6002 24.6205 19.4173 24.1255 20.3621C23.6305 21.3069 23.3635 22.3533 23.3457 23.4184V33.6871C23.3457 35.7683 24.6337 36.7289 26.1978 35.8369Z" fill="#F96969"/>
<path d="M31.7864 30.5088L27.2783 40.3429V33.0931L31.7864 30.5088Z" fill="#F96969"/>
<path d="M29.9924 41.9662L27.2783 40.3424L29.0264 33.3213L31.0274 34.1217L29.9924 41.9662Z" fill="#F96969"/>
<path d="M26.9796 37.5523L24.3115 35.9514L42.114 9.90234L44.9431 11.5947L26.9796 37.5523Z" fill="#F96969"/>
<path d="M28.9117 37.4614L42.8731 29.4568C43.7408 28.832 44.4503 28.0148 44.9453 27.07C45.4404 26.1253 45.7074 25.0789 45.7252 24.0137V13.7222C45.7252 11.641 44.4371 10.6804 42.8731 11.5724L28.9117 19.5769C28.0252 20.2154 27.3043 21.0545 26.8083 22.0248C26.3124 22.9951 26.0558 24.0688 26.0596 25.1572V35.4259C26.0596 37.3927 27.3476 38.3533 28.9117 37.4614Z" fill="#FF8383"/>
<path d="M34.5003 32.1318L29.9922 41.966V34.7162L34.5003 32.1318Z" fill="#FF8383"/>
<path d="M30.752 27.6037C30.752 31.6746 33.236 33.5499 36.3181 31.7889C38.0056 30.5784 39.3854 28.9928 40.3478 27.1585C41.3101 25.3241 41.8284 23.2916 41.8613 21.2229C41.8613 17.152 39.3772 15.2767 36.3181 17.0377C34.6225 18.2419 33.2352 19.8256 32.2684 21.6609C31.3015 23.4963 30.7821 25.532 30.752 27.6037V27.6037Z" fill="#FED03D"/>
<path d="M32.3385 23.1896C33.4101 22.7258 34.6025 22.6136 35.7426 22.8694C36.0876 22.8694 35.7426 23.8071 35.4436 23.7156C34.3953 23.5178 33.3112 23.6456 32.3385 24.0815C31.9705 24.1273 31.9705 23.3497 32.3385 23.1896Z" fill="#252549"/>
<path d="M33.7652 24.8596C33.7652 25.5914 34.0872 26.0259 34.4782 25.7972C34.7211 25.5736 34.9126 25.3006 35.0396 24.9966C35.1666 24.6927 35.2262 24.3651 35.2142 24.0362C35.2142 23.2815 34.8922 22.847 34.4782 23.0757C34.2364 23.3039 34.0475 23.5816 33.9243 23.8896C33.8012 24.1977 33.7469 24.5286 33.7652 24.8596Z" fill="#252549"/>
<path d="M40.2971 18.6162C38.9569 19.596 37.7775 20.7764 36.801 22.1153C36.4789 22.5727 36.801 23.0759 37.1 22.6185C37.9618 21.3902 39.0182 20.3089 40.2281 19.4167C40.6651 19.1422 40.6651 18.296 40.2971 18.6162Z" fill="#252549"/>
<path d="M38.8713 21.9324C38.8833 22.2613 38.8237 22.5889 38.6967 22.8928C38.5697 23.1967 38.3782 23.4698 38.1353 23.6934C37.7443 23.9221 37.4223 23.5104 37.4223 22.7557C37.4074 22.4285 37.4633 22.102 37.5863 21.7982C37.7094 21.4944 37.8966 21.2204 38.1353 20.9947C38.5493 20.766 38.8713 21.1777 38.8713 21.9324Z" fill="#252549"/>
<path d="M40.5732 23.5791L31.833 28.5877C31.833 28.5877 33.075 32.3612 36.3181 30.5088C39.5612 28.6563 40.5732 23.5791 40.5732 23.5791Z" fill="#252549"/>
<path d="M40.0673 24.2646L32.6611 28.5185C32.6611 28.5185 33.7192 28.8158 36.4562 27.2378C37.8667 26.5251 39.1001 25.5096 40.0673 24.2646V24.2646Z" fill="#C2C2C2"/>
<path d="M16.7443 53.9955L2.94388 61.9772C1.37983 62.8691 0.0917969 61.9772 0.0917969 59.8274V49.6045C0.113119 48.5432 0.381795 47.5013 0.87669 46.5608C1.37159 45.6203 2.0792 44.8068 2.94388 44.1842L16.7443 36.2026C18.3083 35.3106 19.5963 36.2026 19.5963 38.3524V48.5753C19.575 49.6366 19.3063 50.6784 18.8114 51.619C18.3165 52.5595 17.6089 53.373 16.7443 53.9955V53.9955Z" fill="#F99E4B"/>
<path d="M11.1777 55.0707L15.6629 59.7133V52.4863L11.1777 55.0707Z" fill="#F99E4B"/>
<path d="M18.3772 61.3376L15.6632 59.7138L14.5361 56.5349L16.3532 56.1689L18.3772 61.3376Z" fill="#F99E4B"/>
<path d="M3.61066 63.6698L0.850586 62.0232L18.6761 36.1113L21.4822 37.8266L3.61066 63.6698Z" fill="#F99E4B"/>
<path d="M19.4357 55.6198L5.63528 63.5786C4.04824 64.4934 2.7832 63.5786 2.7832 61.4288V51.2059C2.78944 50.1427 3.0441 49.0954 3.52709 48.1469C4.01008 47.1983 4.70817 46.3743 5.56628 45.7399L19.3667 37.7582C20.9307 36.8663 22.2187 37.7582 22.2187 39.908V50.3139C22.188 51.3499 21.9216 52.3655 21.4396 53.2845C20.9576 54.2034 20.2725 55.0018 19.4357 55.6198V55.6198Z" fill="#FED03D"/>
<path d="M13.8926 56.6947L18.3777 61.3373V54.1104L13.8926 56.6947Z" fill="#FED03D"/>
<path d="M18.0326 49.1472C18.7916 47.5234 18.6996 44.8933 16.5835 44.5731C16.3765 42.4005 13.2254 44.4588 12.6734 42.2861C12.1206 43.2581 11.8874 44.3776 12.0064 45.488C11.1908 46.0708 10.5474 46.8606 10.1434 47.775C9.79522 48.4843 9.65949 49.2781 9.75234 50.062C8.85369 51.1348 8.29359 52.4475 8.1423 53.8356C8.09266 54.2756 8.17256 54.7205 8.37231 55.1163C7.29128 56.9002 7.26828 58.7755 8.1193 59.3701C8.97032 59.9647 11.7074 58.5925 13.0874 57.0831C14.4172 57.0726 15.7068 56.6284 16.758 55.8186C17.8093 55.0088 18.5641 53.8782 18.9066 52.6006C19.1408 52.0061 19.1825 51.3538 19.0258 50.7347C18.8691 50.1156 18.5219 49.5606 18.0326 49.1472Z" fill="#CC7A6E"/>
<path d="M12.9263 49.6045C12.9383 50.0386 12.8514 50.4698 12.6721 50.8658C12.4929 51.2618 12.226 51.6125 11.8913 51.8915C11.3393 52.2117 10.8793 51.7085 10.8793 50.748C10.8662 50.3159 10.9502 49.8864 11.1253 49.4907C11.3004 49.0951 11.5621 48.7433 11.8913 48.461C12.4663 48.0264 12.9263 48.6439 12.9263 49.6045Z" fill="#C2C2C2"/>
<path d="M12.4893 49.8569C12.502 50.1092 12.4544 50.3609 12.3505 50.5915C12.2465 50.822 12.0892 51.0248 11.8913 51.1833C11.5693 51.3663 11.3163 51.069 11.3163 50.5201C11.3044 50.2701 11.3501 50.0207 11.4497 49.7908C11.5494 49.561 11.7004 49.3567 11.8913 49.1936C12.2363 49.0107 12.4893 49.308 12.4893 49.8569Z" fill="#252549"/>
<path d="M16.3074 47.6379C16.3173 48.0696 16.2318 48.4981 16.0569 48.8932C15.882 49.2884 15.6221 49.6406 15.2954 49.925C14.7204 50.2451 14.2603 49.742 14.2603 48.7814C14.2517 48.3478 14.3401 47.9177 14.5191 47.5221C14.6981 47.1266 14.9632 46.7756 15.2954 46.4944C15.8474 46.1743 16.3074 46.7003 16.3074 47.6379Z" fill="#C2C2C2"/>
<path d="M15.87 47.8898C15.8788 48.1428 15.8319 48.3946 15.7325 48.6277C15.6332 48.8608 15.4839 49.0695 15.295 49.2392C14.973 49.4221 14.697 49.1248 14.697 48.5759C14.6897 48.3243 14.7396 48.0743 14.8432 47.8446C14.9468 47.6149 15.1012 47.4114 15.295 47.2495C15.617 47.0665 15.87 47.3638 15.87 47.8898Z" fill="#252549"/>
<path d="M16.3305 45.3054C15.4314 45.9692 14.6535 46.7815 14.0304 47.7067C13.8004 48.004 14.0304 48.37 14.2374 48.0498C14.8307 47.1848 15.5518 46.4138 16.3765 45.7628C16.5835 45.7399 16.5835 45.0995 16.3305 45.3054Z" fill="#252549"/>
<path d="M10.8561 48.4387C11.5753 48.1119 12.3768 48.0083 13.1562 48.1414C13.3862 48.1414 13.1562 48.7817 12.9492 48.736C12.2275 48.5874 11.4769 48.6757 10.8101 48.9876C10.6031 49.079 10.6031 48.553 10.8561 48.4387Z" fill="#252549"/>
<path d="M10.1895 54.0192L17.0896 50.1084C16.5898 52.288 15.3564 54.2326 13.5935 55.6201C10.9945 57.1753 10.1895 54.0192 10.1895 54.0192Z" fill="#252549"/>
<path d="M10.5801 54.1101L16.3532 50.7939C15.5321 51.7801 14.5239 52.596 13.3862 53.1953C11.2471 54.4303 10.5801 54.1101 10.5801 54.1101Z" fill="#C2C2C2"/>
<path d="M20.7007 3.20141C21.8278 2.03503 22.0118 -0.206244 20.5627 -0.000412542C19.3506 0.436449 18.1868 0.995889 17.0896 1.66911C15.0196 2.78974 8.3034 6.58619 7.61339 6.99785C6.92337 7.40951 5.81934 8.14136 5.81934 9.28486V19.8737C5.81934 20.1939 5.81934 21.5433 6.92337 20.9258C10.0055 19.2334 9.93645 23.9446 9.66044 27.0092C9.66044 27.2379 9.52244 28.2442 9.52244 28.45C9.52244 29.0675 9.86745 29.4563 10.4655 29.0675C12.2266 27.7954 13.4548 25.9228 13.9156 23.8074C14.2489 22.1543 14.2489 20.4519 13.9156 18.7988C17.2507 16.7634 19.2977 15.7114 20.1717 15.0939C21.4828 14.1791 21.7128 10.9773 20.5627 10.9544C21.6898 9.44495 21.8048 7.5696 20.7467 6.97498C22.0118 5.44268 22.0118 3.33863 20.7007 3.20141Z" fill="#F99E4B"/>
<path d="M17.5494 1.69238C17.105 2.04322 16.7356 2.4789 16.4631 2.97378C16.1905 3.46866 16.0203 4.01274 15.9624 4.57402C15.9624 5.55744 17.5494 5.30586 17.5494 5.30586C17.5494 5.30586 15.1113 6.70094 15.1113 4.96281C15.1887 4.25141 15.4554 3.57337 15.8839 2.99853C16.3124 2.42369 16.8873 1.97283 17.5494 1.69238V1.69238Z" fill="#F99E4B"/>
<path d="M17.5494 5.28223C16.6576 5.99601 16.0869 7.0323 15.9624 8.16386C15.9624 9.14728 17.5494 8.87284 17.5494 8.87284C17.5494 8.87284 15.1113 10.2679 15.1113 8.52979C15.1113 6.35712 17.5494 5.28223 17.5494 5.28223Z" fill="#F99E4B"/>
<path d="M17.5494 8.89648C16.6576 9.61026 16.0869 10.6466 15.9624 11.7781C15.9624 12.7615 17.5494 12.4871 17.5494 12.4871C17.5494 12.4871 15.1113 13.8822 15.1113 12.144C15.1113 9.97138 17.5494 8.89648 17.5494 8.89648Z" fill="#F99E4B"/>
<path d="M17.5494 12.5098C16.6576 13.2235 16.0869 14.2598 15.9624 15.3914C15.9624 16.3748 17.5494 16.1004 17.5494 16.1004C17.5494 16.1004 15.1113 17.4955 15.1113 15.7573C15.1113 13.5847 17.5494 12.5098 17.5494 12.5098Z" fill="#F99E4B"/>
<path d="M10.902 26.0261L9.75195 29.0907L12.627 30.8288L14.0071 27.0095L13.041 24.9512L10.902 26.0261Z" fill="#F99E4B"/>
<path d="M7.3602 17.9073L6.11816 20.9719L9.08525 22.7101L10.4423 18.8908L9.49926 16.8096L7.3602 17.9073Z" fill="#F99E4B"/>
<path d="M19.8728 1.6922L21.3448 0.228516L24.1739 1.94378L22.7249 4.16218L19.5508 3.4532L19.8728 1.6922Z" fill="#F99E4B"/>
<path d="M23.6908 5.19134C24.7488 4.02497 24.8868 1.53212 23.4377 1.76082C22.2263 2.18023 21.0623 2.72445 19.9646 3.3846C17.8946 4.52811 11.1784 8.32455 10.4884 8.73621C9.79837 9.14788 8.69434 9.85685 8.69434 11.0232V21.6121C8.69434 21.9323 8.69434 23.2816 9.79837 22.6641C13.1105 20.8345 12.7884 26.4377 12.4664 29.5252C12.4664 29.5252 12.4664 29.5252 12.4664 29.6395C12.2594 30.5315 12.4664 31.4005 13.3635 30.8974C15.1097 29.6154 16.3277 27.7459 16.7906 25.6372C17.1377 23.9709 17.1455 22.2523 16.8136 20.5829C20.1487 18.5018 22.1727 17.4497 23.0007 16.8322C24.3118 15.9174 24.5418 12.7156 23.3917 12.6927C24.5188 11.1604 24.6338 9.30797 23.5757 8.71334C24.8868 7.18104 24.9328 5.30569 23.6908 5.19134Z" fill="#FED03D"/>
<path d="M18.6077 4.57324C17.7367 5.26511 17.1681 6.26471 17.0206 7.3634C17.0206 8.34681 18.6077 8.07237 18.6077 8.07237C18.6077 8.07237 16.1006 9.46745 16.1006 7.72932C16.1006 5.55666 18.6077 4.57324 18.6077 4.57324Z" fill="#F99E4B"/>
<path d="M18.6077 8.0957C17.7159 8.80948 17.1451 9.84577 17.0206 10.9773C17.0206 11.9608 18.6077 11.6863 18.6077 11.6863C18.6077 11.6863 16.1006 13.0814 16.1006 11.4347C16.1006 9.14773 18.6077 8.0957 18.6077 8.0957Z" fill="#F99E4B"/>
<path d="M18.6077 11.709C17.7159 12.4228 17.1451 13.4591 17.0206 14.5906C17.0206 15.574 18.6077 15.2996 18.6077 15.2996C18.6077 15.2996 16.1006 16.6947 16.1006 14.9565C16.1006 12.7839 18.6077 11.709 18.6077 11.709Z" fill="#F99E4B"/>
<path d="M18.6077 15.3223C18.1526 15.6835 17.777 16.1337 17.504 16.6451C17.231 17.1565 17.0665 17.7182 17.0206 18.2954C17.0206 19.2788 18.6077 19.0272 18.6077 19.0272C18.6077 19.0272 16.1006 20.308 16.1006 18.5698C16.1881 17.855 16.4669 17.1766 16.9079 16.6054C17.3488 16.0342 17.9358 15.5911 18.6077 15.3223Z" fill="#F99E4B"/>
<path d="M18.1014 15.3226C18.2781 15.2988 18.4493 15.2446 18.6074 15.1625C19.0214 15.0024 19.6425 14.6594 19.7575 14.6136C21.0225 13.9275 23.2766 12.3266 23.2075 12.7612C22.152 13.6888 20.9666 14.4591 19.6885 15.0482C19.3185 15.2202 18.9577 15.4111 18.6074 15.6199C18.2921 15.8079 17.9989 16.0303 17.7334 16.2832L17.9174 15.8715L18.4004 15.437L18.1014 15.3226Z" fill="#F99E4B"/>
<path d="M18.1014 11.7321L18.6074 11.572C19.0214 11.389 19.6425 11.0688 19.7575 11.0002C21.0225 10.3141 23.5526 8.53026 23.4836 8.91905C22.3388 9.92447 21.0621 10.7708 19.6885 11.4348C19.3434 11.6177 18.9064 11.8236 18.6074 12.0065C18.2884 12.198 17.9948 12.4285 17.7334 12.6926L17.9174 12.2581L18.4004 11.8236L18.1014 11.7321Z" fill="#F99E4B"/>
<path d="M18.1014 8.11802C18.2781 8.09417 18.4493 8.04 18.6074 7.95793C19.0214 7.79784 19.6425 7.45479 19.7575 7.40905C21.0225 6.72294 23.5526 4.9162 23.4836 5.32786C22.336 6.31718 21.0595 7.14801 19.6885 7.79784C19.3185 7.96991 18.9577 8.16075 18.6074 8.36959C18.2786 8.5839 17.984 8.84601 17.7334 9.14718L17.9174 8.73551L18.4004 8.2095L18.1014 8.11802Z" fill="#F99E4B"/>
</g>
<defs>
<clipPath id="clip0_494_7265">
<rect width="109" height="171" fill="white"/>
</clipPath>
</defs>
</svg>
