<svg width="125" height="146" viewBox="0 0 125 146" fill="none" xmlns="http://www.w3.org/2000/svg">
<g clip-path="url(#clip0_497_7404)">
<path d="M58.0923 109.565L28.3971 126.671C28.2098 128.088 28.4352 129.53 29.0464 130.822C30.3791 133.171 34.6391 134.824 34.6391 134.824L47.2257 141.096L74.2783 125.508L76.021 126.511V124.493L61.2133 115.94C60.1604 115.265 59.3127 114.314 58.7624 113.19C58.2121 112.066 57.9803 110.812 58.0923 109.565V109.565Z" fill="#CCEAFF"/>
<path d="M58.5587 107.388C60.0622 103.567 64.5159 91.2516 64.5615 91.1262L62.9213 90.5332C62.9213 90.5332 61.7253 93.8288 60.3698 97.5008C54.8795 100.796 32.4173 113.774 32.4173 113.774C32.4173 113.774 30.0253 119.738 29.2963 122.018C28.8215 123.501 28.5083 125.03 28.3623 126.58L58.0917 109.566C58.1369 108.82 58.2943 108.086 58.5587 107.388Z" fill="#B5DEF7"/>
<path d="M47.1913 141.085L32.3836 132.521C31.0169 131.632 30.005 130.292 29.5242 128.733C29.0434 127.174 29.1241 125.496 29.7524 123.991C31.2673 120.171 35.721 107.843 35.7666 107.718L34.1719 107.125C34.1719 107.25 29.6726 119.555 28.1805 123.341C27.41 125.242 27.33 127.354 27.9544 129.309C28.5788 131.263 29.868 132.936 31.5976 134.037L47.2824 143.103L47.1913 141.085Z" fill="#95D1EF"/>
<path d="M75.9867 124.481L47.1914 141.085V143.103L75.9867 126.5V124.481Z" fill="#B5DEF7"/>
<path d="M2.34668 138.097V61.2711L106.137 1.40234V78.2396L2.34668 138.097Z" fill="#CCEAFF"/>
<path d="M105.294 77.6468L3.05273 136.74V61.8072L105.294 2.71387V77.6468Z" fill="white"/>
<path d="M103.87 69.2422L4.22559 126.842V62.9247L103.87 5.3252V69.2422Z" fill="#FF8383"/>
<path d="M53.3424 105.437C52.5678 105.437 51.7363 104.81 51.7363 103.442C51.7426 102.768 51.9103 102.105 52.2255 101.51C52.5407 100.915 52.994 100.404 53.5474 100.02L60.4843 96.0064C60.7683 95.8411 61.0898 95.7508 61.4183 95.7441C62.1929 95.7441 63.0244 96.3713 63.0244 97.7398C63.0181 98.4135 62.8504 99.0759 62.5352 99.6712C62.22 100.267 61.7667 100.777 61.2133 101.161L54.2764 105.163C53.9961 105.339 53.6729 105.434 53.3424 105.437V105.437Z" fill="white"/>
<path d="M53.9114 104.537L60.8483 100.534C61.2874 100.216 61.6467 99.8005 61.8978 99.3196C62.1488 98.8386 62.2848 98.3059 62.2949 97.7634V97.7634C62.2949 96.7028 61.6456 96.2125 60.8483 96.623L53.9114 100.626C53.471 100.942 53.1108 101.358 52.8596 101.839C52.6084 102.32 52.4732 102.854 52.4648 103.397C52.4648 104.503 53.1141 104.993 53.9114 104.537Z" fill="#B5DEF7"/>
<path d="M2.34646 61.2711L0 59.9141V136.74L2.34646 138.097V61.2711Z" fill="#B5DEF7"/>
<path d="M106.137 1.40264L103.654 0L0 59.9144L2.34646 61.2714L106.137 1.40264Z" fill="white"/>
<path d="M30.8801 100.671C29.593 101.036 29.0804 101.332 29.069 102.256C29.0576 103.18 30.8459 103.647 32.7595 102.256C32.6912 105.016 32.6912 107.741 32.7595 110.444L47.5673 101.902C47.6925 98.3725 47.3089 94.8429 46.4282 91.4225C45.7808 89.2026 44.7007 87.1329 43.2502 85.333C41.8492 83.8506 43.6489 79.3689 44.2412 78.0803C44.2412 78.0803 45.7334 74.0549 46.2346 72.5724C47.8103 72.6209 49.3742 72.2842 50.7908 71.5917C51.292 72.5952 53.627 72.7321 55.2559 70.8505C56.3949 70.2119 57.6593 67.954 57.534 65.411C57.3859 61.8531 55.0053 62.3776 52.488 64.1908C51.8481 64.0939 51.2546 63.7988 50.7908 63.3469C50.0162 62.6855 49.0708 61.1688 48.5127 61.1916C47.4005 61.3897 46.3416 61.8168 45.403 62.446C45.0459 61.3774 44.88 60.254 44.9133 59.1276C47.5103 56.8469 49.2417 52.8898 50.2668 51.339C48.5127 49.2521 46.8497 42.0907 44.5715 42.8319C42.9876 43.4316 41.6488 44.5432 40.7671 45.9907C39.7989 46.2302 38.7054 47.5758 38.0106 49.1723C36.2564 53.2433 36.7348 58.8767 35.2085 62.4688C36.7348 63.3127 40.8013 61.4653 40.9949 61.4881C40.9266 62.446 40.8127 63.4267 40.6532 64.4189L40.4026 64.6925C39.1382 64.3618 37.4866 65.5136 36.1881 67.361C34.7001 69.7768 33.4852 72.3508 32.5659 75.0356C31.4268 76.7575 27.0529 84.2611 27.144 85.4927C27.2351 86.7243 30.3106 92.2436 30.789 93.3611C29.8891 96.1208 29.9575 99.0401 30.8801 100.671ZM33.8302 79.4488C33.7391 80.4865 33.7049 85.0365 33.7049 86.04C33.5341 87.8304 33.3974 89.598 33.2721 91.3769C33.1282 91.16 32.9683 90.9541 32.7937 90.7611C32.5089 88.4804 31.3585 86.1997 30.9484 83.9874C32.395 81.7181 33.2038 81.3988 33.8302 79.4488Z" fill="#C64E4E"/>
<path d="M52.8749 87.3175C54.6518 88.1955 58.9461 88.4578 60.2218 89.7008C60.1193 90.8412 59.6637 93.1219 59.3903 95.1631L77.0457 84.8999C76.9659 83.349 76.8179 81.1481 76.8065 80.8744C78.2189 76.6779 79.8933 73.7244 81.2146 69.4709C83.1738 63.2331 82.9346 61.7392 82.6612 60.348C82.1076 58.0979 81.2248 55.9422 80.0414 53.9506C78.9934 51.8979 77.9 51.1111 76.6242 49.3892C75.4852 47.9181 72.068 48.5681 69.7899 49.3892C69.5621 48.4655 69.3001 46.983 69.0837 46.0479C69.9208 44.6241 70.445 43.0379 70.6214 41.3952C71.9655 37.7119 71.4529 35.6136 70.7011 33.9373C70.8606 33.9373 71.9883 33.618 71.9883 33.618C71.1226 28.8057 66.8283 28.2469 63.1492 33.0364C61.9705 34.5296 61.098 36.2412 60.582 38.0729C60.0659 39.9047 59.9164 41.8204 60.1421 43.7102C60.2393 44.8749 60.6124 45.9996 61.2305 46.9912C61.8485 47.9828 62.6937 48.8126 63.6959 49.412C63.9095 50.6404 63.8863 51.8984 63.6276 53.1181C62.6953 54.3286 61.679 55.4718 60.5863 56.5392C58.5588 58.8199 56.2237 60.7243 55.2897 64.5217C54.7054 67.2339 54.3246 69.986 54.1506 72.7551C54.0595 73.5647 52.5104 80.5209 52.499 83.0753C52.4876 86.2113 52.3281 87.1236 52.8749 87.3175ZM76.18 63.7235C76.7884 64.3553 77.4779 64.9037 78.2303 65.3542C77.8316 66.3919 76.4875 70.7709 76.2028 71.7972C76.1458 70.5656 76.2255 65.0007 76.18 63.7235ZM60.1535 71.0445C60.1535 73.4051 60.5521 79.4832 60.4724 81.9236C60.0851 81.5244 57.5109 81.6157 57.1464 81.1595C58.3217 77.8418 59.3254 74.4657 60.1535 71.0445V71.0445Z" fill="#C64E4E"/>
<path d="M21.8358 71.6263L10.8211 77.9895C9.57951 78.7079 8.54297 77.9895 8.54297 76.2789V68.114C8.55968 67.264 8.77432 66.4297 9.16981 65.6774C9.5653 64.9251 10.1307 64.2756 10.8211 63.7806L21.8358 57.4174C23.0773 56.699 24.1139 57.4174 24.1139 59.128V67.2815C24.0998 68.1336 23.8864 68.9705 23.4908 69.725C23.0951 70.4796 22.5283 71.1308 21.8358 71.6263V71.6263Z" fill="#FED03D"/>
<path d="M17.4277 72.481L20.993 76.1872V70.417L17.4277 72.481Z" fill="#FED03D"/>
<path d="M21.8358 91.0351L10.8211 97.4097C9.57951 98.1281 8.54297 97.4097 8.54297 95.6877V87.5228C8.56755 86.6824 8.78598 85.859 9.18119 85.1172C9.57639 84.3753 10.1377 83.7351 10.8211 83.2464L21.8358 76.8832C23.0773 76.1648 24.1139 76.8832 24.1139 78.5938V86.6675C24.1052 87.5238 23.8943 88.3659 23.4983 89.125C23.1024 89.8841 22.5327 90.5386 21.8358 91.0351V91.0351Z" fill="#FED03D"/>
<path d="M17.4277 91.901L20.993 95.6071V89.8369L17.4277 91.901Z" fill="#FED03D"/>
<path d="M21.8358 110.74L10.8211 117.115C9.57951 117.833 8.54297 117.115 8.54297 115.393V107.193C8.56055 106.345 8.77565 105.513 9.17114 104.763C9.56663 104.012 10.1316 103.365 10.8211 102.871L21.8358 96.5082C23.0773 95.7898 24.1139 96.5082 24.1139 98.2188V106.384C24.1025 107.238 23.8903 108.077 23.4945 108.834C23.0987 109.591 22.5305 110.244 21.8358 110.74V110.74Z" fill="#FED03D"/>
<path d="M17.4277 111.607L20.993 115.313V109.543L17.4277 111.607Z" fill="#FED03D"/>
<path d="M97.8673 26.6954L86.864 33.07C85.6111 33.7885 84.5859 33.07 84.5859 31.3595V23.1831C84.5999 22.3342 84.8135 21.5006 85.2093 20.7497C85.6051 19.9988 86.172 19.3518 86.864 18.8612L97.8673 12.5436C99.1203 11.8252 100.145 12.6006 100.145 14.2655V22.4305C100.121 23.2693 99.9023 24.091 99.5071 24.831C99.1118 25.571 98.5505 26.2092 97.8673 26.6954V26.6954Z" fill="#C64E4E"/>
<path d="M87.1032 28.9762L86.9893 36.3657L90.6684 26.9121L87.1032 28.9762Z" fill="#C64E4E"/>
<path d="M97.8673 46.606L86.864 52.9692C85.6111 53.6876 84.5859 52.9692 84.5859 51.2586V43.0937C84.5999 42.2448 84.8135 41.4111 85.2093 40.6602C85.6051 39.9094 86.172 39.2624 86.864 38.7717L97.8673 32.3971C99.1203 31.6787 100.145 32.4541 100.145 34.1191V42.284C100.13 43.1326 99.9153 43.9656 99.5197 44.7162C99.124 45.4668 98.5581 46.114 97.8673 46.606Z" fill="#C64E4E"/>
<path d="M87.1032 48.8873L86.9893 56.2768L90.6684 46.8232L87.1032 48.8873Z" fill="#C64E4E"/>
<path d="M97.8673 66.1406L86.864 72.5038C85.6111 73.2336 84.5859 72.5038 84.5859 70.7932V62.6397C84.6017 61.7911 84.8161 60.9581 85.2117 60.2075C85.6073 59.4569 86.1733 58.8097 86.864 58.3177L97.8673 51.9545C99.1203 51.2361 100.145 51.9545 100.145 53.6651V61.83C100.128 62.6766 99.9127 63.5074 99.5171 64.2559C99.1216 65.0043 98.5566 65.6498 97.8673 66.1406V66.1406Z" fill="#C64E4E"/>
<path d="M87.1032 68.4332L86.9893 75.8227L90.6684 66.3691L87.1032 68.4332Z" fill="#C64E4E"/>
<path d="M10.3539 74.5341C10.3539 73.6332 10.2856 72.6411 10.2856 71.6604C10.2856 70.9534 10.2856 70.52 10.2856 69.5051C9.84136 69.8244 9.48825 70.1095 9.48825 70.1095L9.35156 69.1858C9.35156 69.1858 9.98943 68.6726 10.6045 68.2507C11.2196 67.8288 11.8119 67.4639 11.8119 67.4639L11.9372 68.3533L11.1399 68.8893C11.1399 69.7332 11.1399 70.3604 11.1399 71.17C11.1399 72.2078 11.1399 73.1999 11.1399 74.1578L10.3539 74.5341Z" fill="white"/>
<path d="M13.6689 66.4717C14.4207 66.0384 15.1269 66.4717 15.1269 68.6042C15.1269 70.7366 14.3409 72.4814 13.5892 72.9147C12.8374 73.3481 12.1084 72.9147 12.1084 70.8051C12.1084 68.6954 12.883 66.9393 13.6689 66.4717ZM13.6689 71.8998C14.2171 71.0779 14.4553 70.0876 14.3409 69.1059C14.3409 67.7261 14.0562 67.327 13.7486 67.498C13.1751 68.3137 12.9236 69.313 13.0424 70.3033C12.9969 71.6831 13.3044 72.0823 13.6689 71.8998Z" fill="white"/>
<path d="M16.3452 68.1481C16.0168 67.3627 15.7724 66.5447 15.6162 65.7078L16.516 65.2858C16.5893 65.8588 16.6996 66.4263 16.8463 66.985C17.1539 65.9701 17.4728 64.9893 17.7576 64.1797L18.3841 64.5332C18.0424 65.4113 17.6323 66.5744 17.245 67.7034C17.5867 68.6271 17.9626 69.5052 18.1904 70.0411L17.3134 70.4174C17.1653 70.0639 16.9716 69.5052 16.7666 68.8894C16.4818 69.8701 16.2426 70.7482 16.0832 71.4438L15.4111 71.2727C15.6845 70.3262 15.9465 69.3341 16.3452 68.1481Z" fill="white"/>
<path d="M19.7967 63.0732C19.7967 63.9969 19.7397 65.0347 19.7397 66.0496C19.7397 67.0645 19.7397 68.3303 19.8308 69.254L18.9538 69.6531C18.8968 68.5127 18.874 67.4408 18.874 66.4145C18.874 65.3882 18.874 64.5557 18.931 63.4724L19.7967 63.0732Z" fill="white"/>
<path d="M22.2456 64.2132C22.2456 63.5974 22.2456 62.6737 21.9039 62.8676C21.5622 63.0615 21.1977 65.0685 21.1977 65.9238C21.1977 66.779 21.3686 67.2922 21.79 67.0641C22.2115 66.836 22.2798 66.1746 22.3937 65.5474L23.2138 65.1597C23.0088 66.5966 22.6215 67.6913 21.79 68.1703C20.9585 68.6492 20.332 67.8966 20.332 66.5167C20.332 65.1369 20.7877 62.4114 21.9609 61.7386C23.1341 61.0658 23.0999 62.6509 23.0999 63.8483L22.2456 64.2132Z" fill="white"/>
<path d="M86.5681 49.5142C86.5681 48.6134 86.4998 47.6212 86.4998 46.6405C86.4998 45.9335 86.4998 45.5002 86.4998 44.4853L85.7138 45.0782L85.5771 44.166C85.5771 44.166 86.2036 43.6528 86.8301 43.2195C87.4566 42.7861 88.0375 42.4326 88.0375 42.4326L88.1628 43.3221L87.3541 43.8695C87.3541 44.7133 87.3541 45.3405 87.3541 46.1502C87.3541 47.1879 87.3541 48.1686 87.3541 49.1265L86.5681 49.5142Z" fill="white"/>
<path d="M89.8603 41.4519C90.6121 41.0072 91.3069 41.4519 91.3069 43.5844C91.3069 45.7169 90.5324 47.4616 89.7806 47.8949C89.0288 48.3283 88.2998 47.8949 88.2998 45.7739C88.2998 43.6528 89.0402 41.9195 89.8603 41.4519ZM89.7806 46.88C90.327 46.0573 90.565 45.0677 90.4526 44.0862C90.4526 42.6949 90.1679 42.2958 89.8603 42.4783C89.2848 43.293 89.033 44.2931 89.1541 45.2835C89.1541 46.6634 89.4503 47.0625 89.7806 46.88V46.88Z" fill="white"/>
<path d="M92.5027 43.1172C92.1661 42.3348 91.9214 41.5158 91.7737 40.6768L92.6736 40.2663C92.7481 40.8382 92.8545 41.4055 92.9925 41.9654C93.3114 40.9391 93.6304 39.9698 93.9151 39.1602L94.5416 39.5137C94.1999 40.3917 93.7898 41.5549 93.4026 42.6839C93.7443 43.6076 94.1202 44.4856 94.348 44.9646L93.4823 45.3523C93.3342 44.9874 93.1406 44.44 92.9355 43.8128C92.6508 44.8049 92.4002 45.683 92.2521 46.3672L91.5801 46.1962C91.8421 45.2953 92.1268 44.3146 92.5027 43.1172Z" fill="white"/>
<path d="M95.9542 38.042C95.9542 38.9771 95.9542 40.0034 95.9542 41.0297C95.9542 42.0561 95.9542 43.3104 96.034 44.2341L95.1683 44.6333C95.1683 43.4929 95.0771 42.3525 95.0771 41.3832C95.0771 40.4139 95.0771 39.5359 95.0771 38.4525L95.9542 38.042Z" fill="white"/>
<path d="M98.4032 39.1941C98.4032 38.5669 98.4032 37.6546 98.0615 37.837C97.7198 38.0195 97.3439 40.0379 97.3439 40.8932C97.3439 41.7485 97.5261 42.273 97.9476 42.0336C98.369 41.7941 98.4374 41.1441 98.5513 40.5169L99.3714 40.1292C99.3706 40.7039 99.2437 41.2715 98.9997 41.7917C98.7556 42.3119 98.4003 42.7721 97.959 43.1397C96.9794 43.6985 96.501 42.866 96.501 41.4862C96.501 40.1064 96.9566 37.3809 98.1298 36.6967C99.3031 36.0125 99.2689 37.609 99.2689 38.8063L98.4032 39.1941Z" fill="white"/>
<path d="M88.8467 64.4191C88.8467 67.1902 90.5211 68.4217 92.5942 67.2814C93.7357 66.4626 94.6695 65.3871 95.3204 64.1413C95.9712 62.8956 96.321 61.5143 96.3417 60.1085C96.3417 57.3489 94.6673 56.0717 92.5942 57.2691C91.4557 58.0855 90.5238 59.1574 89.8731 60.3989C89.2224 61.6405 88.8709 63.0172 88.8467 64.4191Z" fill="#FED03D"/>
<path d="M89.9168 61.4195C90.6252 61.0797 91.4247 60.9796 92.1949 61.1344C92.4113 61.1344 92.1949 61.7616 91.9899 61.7046C91.2823 61.5647 90.5487 61.6525 89.894 61.9555C89.6662 62.0581 89.6548 61.5792 89.9168 61.4195Z" fill="#252549"/>
<path d="M90.8734 62.5491C90.8734 63.0622 91.0898 63.3473 91.3632 63.1991C91.5256 63.0443 91.6525 62.856 91.735 62.6473C91.8176 62.4386 91.854 62.2144 91.8416 61.9903C91.8416 61.4885 91.6252 61.2035 91.3632 61.3517C91.1978 61.5023 91.068 61.6879 90.9833 61.895C90.8985 62.1021 90.861 62.3256 90.8734 62.5491V62.5491Z" fill="#252549"/>
<path d="M95.2708 58.3175C94.3928 58.9846 93.6242 59.7849 92.9927 60.6894C92.7649 60.9973 92.9927 61.3394 93.1863 61.0315C93.7685 60.2016 94.4755 59.4669 95.2822 58.8534C95.5328 58.671 95.5328 58.1578 95.2708 58.3175Z" fill="#252549"/>
<path d="M94.3143 60.564C94.3198 60.7772 94.2799 60.9891 94.1975 61.1857C94.115 61.3823 93.9917 61.5591 93.8359 61.7044C93.5625 61.864 93.3461 61.579 93.3461 61.0658C93.3337 60.8423 93.3712 60.6189 93.4559 60.4117C93.5406 60.2046 93.6704 60.019 93.8359 59.8684C94.0978 59.7658 94.3143 60.0509 94.3143 60.564Z" fill="#252549"/>
<path d="M95.4641 61.6934L89.5752 65.1144C89.5752 65.1144 90.4067 67.6802 92.5937 66.4258C94.7807 65.1715 95.4641 61.6934 95.4641 61.6934Z" fill="#252549"/>
<path d="M95.1229 62.1494L90.1338 65.0003C90.1338 65.0003 90.84 65.2056 92.6967 64.145C93.6452 63.6712 94.4745 62.989 95.1229 62.1494V62.1494Z" fill="white"/>
<path d="M19.8428 86.4158C20.4237 85.2071 20.344 83.2114 18.7721 82.9948C18.624 81.3755 16.2662 82.915 15.8561 81.2158C15.4435 81.9421 15.2682 82.7795 15.3549 83.6106C14.7533 84.0477 14.2746 84.633 13.9653 85.3097C13.6951 85.8447 13.5919 86.4486 13.6691 87.043C13.0199 87.8531 12.6237 88.8368 12.5301 89.8711C12.5009 90.1963 12.5599 90.5233 12.7009 90.8176C11.9036 92.1747 11.8694 93.5887 12.5073 94.022C13.3616 94.6264 15.1955 93.4405 16.2206 92.2773C17.1879 92.2593 18.1243 91.9335 18.8943 91.3472C19.6643 90.7608 20.2279 89.9443 20.5035 89.0159C20.6819 88.5682 20.7141 88.0754 20.5954 87.6083C20.4767 87.1412 20.2132 86.7237 19.8428 86.4158V86.4158Z" fill="#CC7A6E"/>
<path d="M16.049 86.7466C16.0642 87.0777 16.0021 87.4078 15.8677 87.7106C15.7332 88.0135 15.5301 88.2808 15.2745 88.4914C14.853 88.7422 14.5113 88.3545 14.5113 87.6361C14.499 87.3065 14.5613 86.9784 14.6934 86.6763C14.8256 86.3742 15.0242 86.1058 15.2745 85.8913C15.7073 85.6519 16.049 86.0282 16.049 86.7466Z" fill="white"/>
<path d="M15.7193 86.9405C15.7261 87.1305 15.6896 87.3196 15.6126 87.4935C15.5357 87.6673 15.4203 87.8214 15.2751 87.944C15.0359 88.0809 14.8422 87.8642 14.8422 87.4537C14.8332 87.2644 14.8675 87.0756 14.9426 86.9017C15.0176 86.7278 15.1313 86.5733 15.2751 86.4501C15.5257 86.3133 15.7193 86.53 15.7193 86.9405Z" fill="#252549"/>
<path d="M18.5778 85.2876C18.5895 85.6183 18.5258 85.9472 18.3916 86.2495C18.2574 86.5518 18.0562 86.8196 17.8032 87.0324C17.3818 87.2833 17.04 86.8956 17.04 86.1771C17.0198 85.8399 17.0783 85.5026 17.2107 85.1918C17.3432 84.8811 17.546 84.6055 17.8032 84.3868C18.2247 84.1815 18.5778 84.5692 18.5778 85.2876Z" fill="white"/>
<path d="M18.2249 85.5266C18.2317 85.7167 18.1952 85.9058 18.1182 86.0796C18.0413 86.2535 17.9259 86.4075 17.7807 86.5302C17.5415 86.667 17.3478 86.4389 17.3478 86.0284C17.3397 85.8409 17.3745 85.6541 17.4495 85.4822C17.5245 85.3102 17.6378 85.1577 17.7807 85.0363C18.054 84.8538 18.2249 85.0705 18.2249 85.5266Z" fill="#252549"/>
<path d="M18.5892 83.5197C17.9105 84.0254 17.3182 84.6377 16.835 85.3329C16.6642 85.561 16.835 85.8233 16.9831 85.5952C17.4258 84.9576 17.9681 84.3954 18.5892 83.9303C18.7714 83.7934 18.7828 83.3829 18.5892 83.5197Z" fill="#252549"/>
<path d="M14.4997 85.8808C15.0467 85.6242 15.661 85.5483 16.2539 85.6641C16.4247 85.6641 16.2539 86.1431 16.0944 86.1089C15.557 85.998 14.9983 86.0619 14.4997 86.2913C14.3061 86.3712 14.3061 85.972 14.4997 85.8808Z" fill="#252549"/>
<path d="M13.999 90.0879L19.0792 87.1572C19.0792 87.1572 18.3616 90.202 16.4822 91.2853C14.6027 92.3687 13.999 90.0879 13.999 90.0879Z" fill="#252549"/>
<path d="M14.2949 90.1448L18.6006 87.6475C17.9932 88.3945 17.2417 89.0112 16.3908 89.4606C14.8075 90.3843 14.2949 90.1448 14.2949 90.1448Z" fill="white"/>
<path d="M20.9473 104.012C20.9473 107.011 19.1248 110.489 16.8809 111.789C14.6369 113.089 12.8145 111.709 12.8145 108.71C12.8145 105.711 14.6369 102.233 16.8809 100.933C19.1248 99.6327 20.9473 101.013 20.9473 104.012Z" fill="#FF8383"/>
<path d="M19.7856 103.248C18.8269 103.974 17.9855 104.843 17.2911 105.825C17.0519 106.156 17.2911 106.532 17.5075 106.202C18.1448 105.302 18.9126 104.502 19.7856 103.83C20.059 103.636 20.059 103.054 19.7856 103.248Z" fill="#252549"/>
<path d="M18.7493 105.688C18.764 105.93 18.7246 106.173 18.634 106.397C18.5433 106.622 18.4037 106.824 18.2253 106.988C17.9406 107.159 17.7014 106.851 17.7014 106.293C17.6891 106.051 17.7295 105.809 17.82 105.585C17.9105 105.36 18.0488 105.158 18.2253 104.993C18.5101 104.821 18.7493 105.141 18.7493 105.688Z" fill="#252549"/>
<path d="M13.9758 106.612C14.7524 106.243 15.6274 106.135 16.4703 106.305C16.7095 106.305 16.4703 106.989 16.2539 106.932C15.486 106.775 14.6881 106.867 13.9758 107.194C13.6682 107.308 13.6682 106.726 13.9758 106.612Z" fill="#252549"/>
<path d="M15.0132 107.844C15.0132 108.391 15.2524 108.711 15.5485 108.54C15.7312 108.369 15.8731 108.16 15.9638 107.927C16.0545 107.694 16.0917 107.443 16.0725 107.194C16.0725 106.635 15.8333 106.327 15.5485 106.498C15.3618 106.666 15.2163 106.875 15.1234 107.108C15.0306 107.342 14.9928 107.594 15.0132 107.844V107.844Z" fill="#252549"/>
<path d="M17.0855 108.391C16.2037 108.869 15.4885 109.605 15.0352 110.501C14.8529 110.831 15.0352 111.23 15.2288 110.9C15.6263 110.075 16.277 109.4 17.0855 108.973C17.3361 108.87 17.3361 108.334 17.0855 108.391Z" fill="#252549"/>
<path d="M16.6648 108.653C16.9365 108.401 17.2802 108.24 17.6479 108.193C18.0155 108.146 18.3887 108.215 18.7151 108.391C18.8973 108.494 18.7151 109.11 18.5214 108.995C18.2269 108.835 17.8895 108.77 17.5565 108.811C17.2235 108.852 16.9117 108.996 16.6648 109.224C16.4256 109.395 16.4256 108.813 16.6648 108.653Z" fill="#252549"/>
<path d="M18.9081 109.474L14.8075 111.755C14.5455 111.914 14.3291 111.755 14.3291 111.401V110.01C14.3317 109.831 14.3764 109.655 14.4595 109.497C14.5426 109.338 14.6618 109.201 14.8075 109.098L18.8625 106.817C19.1245 106.657 19.3409 106.817 19.3409 107.17V108.573C19.3419 108.746 19.3034 108.917 19.2284 109.073C19.1534 109.23 19.0439 109.367 18.9081 109.474V109.474Z" fill="#252549"/>
<path d="M14.6823 111.504L14.762 110.923L14.6025 111.014V110.82L14.7962 110.717L14.8645 110.204L14.6025 110.364V110.17L14.8987 109.999L14.9784 109.406L15.1151 109.326L15.0354 109.919L15.3315 109.748L15.4227 109.155L15.5593 109.075L15.4796 109.668L15.6505 109.566V109.759L15.4568 109.873L15.3771 110.375L15.6505 110.216V110.409L15.3543 110.58L15.2746 111.173L15.1265 111.253L15.2062 110.66L14.9101 110.831L14.8304 111.424L14.6823 111.504ZM14.9329 110.626L15.2404 110.455L15.3088 109.953L15.0126 110.124L14.9329 110.626Z" fill="white"/>
<path d="M15.7877 109.474C15.7891 109.346 15.8122 109.218 15.856 109.098C15.8963 108.988 15.9726 108.896 16.0724 108.835C16.1055 108.811 16.1454 108.798 16.1863 108.798C16.2273 108.798 16.2671 108.811 16.3002 108.835C16.3666 108.928 16.3952 109.042 16.38 109.155C16.3845 109.3 16.3573 109.444 16.3002 109.577C16.2497 109.677 16.1754 109.763 16.0838 109.828C16.0525 109.851 16.0146 109.863 15.9756 109.863C15.9367 109.863 15.8987 109.851 15.8674 109.828C15.7978 109.724 15.7693 109.598 15.7877 109.474V109.474ZM16.0838 108.984C16.0583 108.998 16.0361 109.018 16.0185 109.042C16.0009 109.065 15.9882 109.092 15.9813 109.121C15.9593 109.218 15.9593 109.319 15.9813 109.417C15.9561 109.491 15.9561 109.571 15.9813 109.645C15.9813 109.645 16.0383 109.645 16.0838 109.645C16.1093 109.63 16.1315 109.611 16.1491 109.587C16.1668 109.564 16.1794 109.537 16.1863 109.508C16.2084 109.411 16.2084 109.309 16.1863 109.212C16.2115 109.138 16.2115 109.058 16.1863 108.984C16.1863 108.984 16.1294 108.904 16.0838 108.927V108.984ZM16.0838 110.797L16.847 108.334L16.9837 108.254L16.2205 110.614L16.0838 110.797ZM16.6875 109.942C16.6854 109.808 16.7126 109.676 16.7673 109.554C16.7832 109.498 16.8106 109.445 16.8479 109.4C16.8851 109.355 16.9314 109.318 16.9837 109.292C17.0748 109.235 17.1431 109.235 17.2001 109.292C17.2358 109.334 17.2623 109.383 17.278 109.436C17.2936 109.489 17.2982 109.545 17.2912 109.6C17.2921 109.745 17.261 109.889 17.2001 110.021C17.1569 110.126 17.081 110.214 16.9837 110.272C16.9523 110.295 16.9144 110.308 16.8755 110.308C16.8365 110.308 16.7986 110.295 16.7673 110.272C16.6943 110.157 16.6659 110.019 16.6875 109.885V109.942ZM16.9837 109.44C16.9358 109.473 16.8998 109.521 16.8812 109.577C16.8591 109.674 16.8591 109.776 16.8812 109.873C16.856 109.947 16.856 110.027 16.8812 110.101C16.8876 110.109 16.8955 110.114 16.9043 110.118C16.9131 110.122 16.9227 110.124 16.9324 110.124C16.9421 110.124 16.9517 110.122 16.9605 110.118C16.9694 110.114 16.9773 110.109 16.9837 110.101C17.0353 110.069 17.0752 110.021 17.0976 109.964C17.1129 109.866 17.1129 109.766 17.0976 109.668C17.1155 109.593 17.1155 109.515 17.0976 109.44C17.0898 109.417 17.0735 109.399 17.0522 109.388C17.0309 109.377 17.0063 109.376 16.9837 109.383V109.44Z" fill="white"/>
<path d="M17.6321 109.315L17.5752 108.334V107.912L17.7916 107.798V108.208V109.223L17.6321 109.315ZM17.6321 109.805V109.543L17.8258 109.429V109.691L17.6321 109.805Z" fill="white"/>
<path d="M18.8744 108.835C18.8257 108.941 18.7645 109.041 18.6922 109.132C18.6315 109.205 18.5582 109.267 18.4757 109.314C18.3277 109.394 18.2138 109.406 18.134 109.314C18.0975 109.277 18.0695 109.232 18.0518 109.183C18.0341 109.134 18.0272 109.081 18.0315 109.029C18.0379 108.904 18.0648 108.781 18.1112 108.664C18.181 108.527 18.265 108.397 18.3618 108.277C18.3124 108.23 18.2701 108.176 18.2365 108.117C18.2248 108.064 18.2248 108.01 18.2365 107.957C18.2355 107.834 18.2669 107.712 18.3277 107.604C18.3865 107.496 18.473 107.405 18.5783 107.342C18.6142 107.319 18.6556 107.308 18.6979 107.308C18.7401 107.308 18.7815 107.319 18.8175 107.342C18.8487 107.37 18.8731 107.406 18.8888 107.445C18.9046 107.485 18.9113 107.527 18.9086 107.57C18.8884 107.8 18.7922 108.016 18.6352 108.185L18.8858 108.459C18.9217 108.364 18.9447 108.264 18.9541 108.163H19.1364C19.1096 108.322 19.0677 108.479 19.0111 108.63C19.0661 108.703 19.1413 108.759 19.2275 108.79L19.1136 109.041C19.0188 108.992 18.9368 108.922 18.8744 108.835V108.835ZM18.7719 108.71L18.453 108.334C18.3811 108.429 18.32 108.533 18.2707 108.642C18.2579 108.713 18.2579 108.787 18.2707 108.858C18.2686 108.929 18.293 108.998 18.3391 109.052C18.3508 109.066 18.3656 109.078 18.3823 109.086C18.3991 109.094 18.4174 109.098 18.4359 109.098C18.4544 109.098 18.4727 109.094 18.4894 109.086C18.5062 109.078 18.5209 109.066 18.5327 109.052C18.5965 109.016 18.6511 108.965 18.6922 108.904C18.725 108.842 18.7517 108.777 18.7719 108.71V108.71ZM18.5327 108.06C18.5857 107.985 18.6315 107.904 18.6694 107.821C18.6801 107.768 18.6801 107.714 18.6694 107.661C18.6694 107.592 18.6694 107.547 18.6694 107.524C18.6694 107.501 18.601 107.524 18.5555 107.524C18.5065 107.554 18.4671 107.598 18.4416 107.649C18.426 107.705 18.426 107.765 18.4416 107.821C18.4416 107.821 18.4416 107.821 18.4416 107.9C18.4538 107.931 18.4734 107.959 18.4985 107.98L18.5327 108.06Z" fill="white"/>
<path d="M96.9454 20.4234C96.9454 23.4225 95.1229 26.9006 92.8789 28.2006C90.635 29.5006 88.8467 28.1208 88.8467 25.0875C88.8467 22.0541 90.6692 18.6102 92.9131 17.3216C95.1571 16.033 96.9454 17.4243 96.9454 20.4234Z" fill="#FED03D"/>
<path d="M95.7833 18.5081C94.8246 19.2339 93.9833 20.1031 93.2888 21.0853C93.0496 21.416 93.2888 21.7923 93.5166 21.4616C94.1436 20.5534 94.9129 19.7525 95.7947 19.0896C96.0567 18.8844 96.0681 18.3028 95.7833 18.5081Z" fill="#252549"/>
<path d="M94.7463 20.9479C94.7587 21.1897 94.7182 21.4313 94.6277 21.6558C94.5372 21.8804 94.3989 22.0824 94.2224 22.2479C93.9262 22.419 93.687 22.1111 93.687 21.5523C93.6737 21.3094 93.7149 21.0665 93.8075 20.8416C93.9002 20.6166 94.0419 20.4153 94.2224 20.2523C94.5413 20.0813 94.7463 20.4006 94.7463 20.9479Z" fill="#252549"/>
<path d="M89.9851 21.8722C90.7617 21.503 91.6367 21.395 92.4796 21.5643C92.7188 21.5643 92.4796 22.2371 92.2632 22.1915C91.4958 22.0237 90.6944 22.1159 89.9851 22.4538C89.7003 22.5678 89.7003 21.9863 89.9851 21.8722Z" fill="#252549"/>
<path d="M91.0105 23.1041C91.0105 23.6514 91.2497 23.9707 91.5459 23.7997C91.7224 23.6342 91.8607 23.4321 91.9512 23.2076C92.0417 22.983 92.0822 22.7415 92.0699 22.4997C92.0699 21.9409 91.8307 21.633 91.5459 21.804C91.3648 21.9665 91.2226 22.1678 91.1299 22.3928C91.0372 22.6179 90.9964 22.861 91.0105 23.1041V23.1041Z" fill="#252549"/>
<path d="M89.7686 25.7605L96.1473 22.0771C96.1473 22.0771 95.2474 25.8973 92.8782 27.2658C90.5089 28.6342 89.7686 25.7605 89.7686 25.7605Z" fill="#252549"/>
<path d="M90.1338 25.8404L95.5443 22.7158C94.7845 23.6549 93.843 24.4306 92.7764 24.9965C90.7717 26.1483 90.1338 25.8404 90.1338 25.8404Z" fill="white"/>
<path d="M90.3616 24.084C89.4639 24.7942 88.8237 25.7797 88.5392 26.8893C88.3683 28.2577 89.4162 27.9498 89.8491 26.7866C90.1249 25.9089 90.2969 25.0018 90.3616 24.084Z" fill="white"/>
<path d="M95.3955 21.1764C95.3955 21.1764 97.0244 20.5721 97.218 21.8721C97.4116 23.1721 96.3409 23.9475 95.9195 23.2747C95.6148 22.6144 95.437 21.9026 95.3955 21.1764V21.1764Z" fill="white"/>
<path d="M111.718 75.07C110.579 74.8762 108.802 77.4192 107.538 79.335C106.263 81.1848 104.825 82.9174 103.244 84.5122C100.886 87.0096 102.264 87.671 102.617 88.4122C103.631 88.8912 107.424 87.9561 109.679 85.9947C111.935 84.0332 114.976 77.5446 114.976 77.5446C114.976 77.5446 112.766 75.2639 111.718 75.07Z" fill="#FFC8B5"/>
<path d="M124.704 137.094C124.317 135.748 123.838 135.954 123.736 135.338C122.935 131.828 121.695 128.433 120.045 125.234C118.564 126.295 117.938 128.199 116.628 128.735C118.163 131.321 119.562 133.986 120.82 136.718C120.333 138.604 119.689 140.447 118.895 142.226C118.268 143.777 117.756 145.898 119.111 145.578C120.061 145.35 120.919 144.84 121.575 144.116C122.232 143.392 122.655 142.487 122.79 141.519C123.018 139.534 125 138.155 124.704 137.094Z" fill="#FFC8B5"/>
<path d="M125 138.041C124.971 137.328 124.72 136.642 124.283 136.079C124.283 136.376 123.861 136.889 123.599 137.539C122.709 137.211 121.8 136.937 120.877 136.718L120.706 137.505L123.383 138.212V138.405C123.315 138.839 123.258 139.306 123.212 139.705C122.89 140.333 122.627 140.99 122.426 141.667C122.267 142.362 122.016 143.138 121.857 143.605C121.526 143.159 121.092 142.801 120.592 142.56C120.092 142.32 119.541 142.205 118.986 142.226C118.32 143.007 117.704 143.83 117.141 144.689C116.651 145.533 117.619 146.297 119.294 145.886C120.333 145.708 121.287 145.2 122.016 144.438V144.438C122.065 144.372 122.103 144.299 122.13 144.221V144.221C122.427 143.511 122.682 142.784 122.893 142.043C123.055 141.478 123.277 140.931 123.554 140.412V140.412C123.554 141.325 123.485 142.613 123.474 142.99C123.582 143.063 123.709 143.102 123.839 143.102C123.969 143.102 124.095 143.063 124.203 142.99C124.279 142.272 124.401 141.559 124.568 140.857C124.844 139.943 124.989 138.995 125 138.041V138.041Z" fill="#363666"/>
<path d="M116.412 135.247C116.742 133.901 115.489 132.886 115.352 132.305C114.658 129.511 113.763 126.771 112.675 124.105C111.424 124.917 110.077 125.572 108.666 126.055C110.127 128.579 111.428 131.191 112.562 133.878C112.072 135.766 111.424 137.608 110.625 139.386C109.999 140.949 109.486 143.07 110.842 142.807C111.792 142.58 112.651 142.071 113.308 141.347C113.964 140.622 114.387 139.716 114.521 138.748C114.703 136.706 116.184 136.319 116.412 135.247Z" fill="#FFC8B5"/>
<path d="M102.936 112.792C101.695 115.951 102.526 118.106 104.383 120.912C105.784 123.033 109.178 128.073 111.422 131.392C112.681 131.424 113.905 130.971 114.839 130.126C114.322 127.183 113.63 124.274 112.766 121.413C111.286 117.411 110.169 117.148 109.486 115.529C112.377 112.149 114.998 108.546 117.323 104.753C116.277 101.732 115.462 98.637 114.885 95.4931C114.452 93.0869 112.812 94.0562 110.329 98.0931C107.559 102.833 105.09 107.742 102.936 112.792V112.792Z" fill="#363666"/>
<path d="M113.576 97.3981C113.576 97.3981 111.07 104.411 113.895 105.905C112.544 108.813 111.561 111.877 110.967 115.028C110.136 118.951 110.5 119.795 112.345 122.6C113.747 124.721 117.505 130.89 119.738 134.22C120.998 134.247 122.221 133.79 123.155 132.943C122.649 130.001 121.968 127.092 121.116 124.231C119.624 120.239 118.519 119.977 117.824 118.358C121.709 114.138 122.153 106.407 122.153 106.407C122.153 106.407 125.046 103.75 123.292 98.3103C121.663 93.384 113.576 97.3981 113.576 97.3981Z" fill="#4F4F7F"/>
<path d="M109.953 91.5705C110.397 93.2355 110.443 98.0022 109.486 99.4618C110.315 100.336 111.321 101.023 112.437 101.475C113.553 101.928 114.753 102.135 115.956 102.085C117.721 102.085 122.369 101.731 123.735 100.488C123.177 95.6188 122.323 90.0425 122.323 90.0425C122.323 90.0425 119.623 89.8258 119.384 86.3819C119.265 85.4179 119.358 84.4395 119.657 83.5155C119.957 82.5915 120.454 81.7444 121.116 81.0336C121.116 81.0336 120.102 80.1784 118.701 79.1634C116.183 77.3389 113.381 75.195 112.584 76.2555C111.343 77.8862 110.306 80.7029 109.497 82.4021C108.746 83.7389 108.187 85.1745 107.834 86.667C107.707 87.6 107.838 88.55 108.211 89.4143C108.585 90.2785 109.187 91.0241 109.953 91.5705V91.5705Z" fill="#C64E4E"/>
<path d="M117.026 68.4213C117.344 67.7404 117.838 67.1571 118.457 66.7319C119.076 66.3068 119.797 66.0554 120.546 66.0038C123.132 65.8327 122.824 67.9994 122.824 67.9994C122.824 67.9994 123.963 66.9503 124.761 68.6722C125.558 70.3941 123.701 72.0248 123.701 72.0248C123.701 72.0248 124.316 72.481 123.633 73.9178C122.949 75.3547 119.259 73.781 119.259 73.781L117.026 68.4213Z" fill="#252549"/>
<path d="M115.682 80.4183C116.307 80.6463 116.983 80.6989 117.635 80.5702C118.288 80.4416 118.893 80.1366 119.384 79.6884L119.157 79.3349C118.576 78.377 118.712 77.9893 118.815 76.7805C118.817 76.0874 118.783 75.3946 118.712 74.7051C117.128 75.348 115.417 75.6173 113.712 75.4919C113.642 75.9749 113.487 76.4419 113.256 76.8718C113.167 77.6561 113.364 78.4463 113.809 79.0976C114.255 79.7489 114.92 80.2177 115.682 80.4183V80.4183Z" fill="#FFB8A3"/>
<path d="M118.952 78.97L119.738 79.9393C119.738 79.9393 119.305 80.9656 117.016 81.0113C114.726 81.0569 113.599 80.1674 113.166 79.4718C112.865 78.8773 112.757 78.2034 112.858 77.5446L113.872 77.2139C113.9 77.5977 114.022 77.9688 114.227 78.2948C114.431 78.6208 114.712 78.8917 115.045 79.0841C115.654 79.3921 116.331 79.543 117.013 79.523C117.695 79.5031 118.362 79.313 118.952 78.97V78.97Z" fill="#AF3838"/>
<path d="M118.963 74.7166C119.49 73.2973 119.518 71.7408 119.042 70.3034C118.315 69.1134 117.156 68.2512 115.807 67.8972C113.951 67.2358 111.411 68.8779 110.716 71.3183C110.089 73.599 110.488 77.2824 112.664 78.7648C115.044 80.4184 118.256 76.5411 118.963 74.7166Z" fill="#FFC8B5"/>
<path d="M119.976 69.2307C118.917 68.0333 116.65 65.8096 113.552 67.4745C111.593 68.5465 110.898 69.6868 110.853 70.8956C112.614 72.1229 114.752 72.6883 116.89 72.4921C117.14 73.1649 117.949 75.9702 118.815 76.7228C119.766 75.5983 120.452 74.2728 120.819 72.8456C120.924 72.2172 120.903 71.5743 120.758 70.9539C120.613 70.3336 120.348 69.7479 119.976 69.2307V69.2307Z" fill="#363666"/>
<path d="M116.821 74.4311C116.821 74.4311 118.279 73.0627 118.746 74.1803C119.213 75.2978 117.915 76.461 117.915 76.461L116.821 74.4311Z" fill="#FFC8B5"/>
<path d="M114.646 91.5253C115.782 91.4777 116.884 91.1231 117.835 90.499C117.63 91.1669 117.203 91.7447 116.625 92.1366C116.047 92.5285 115.353 92.7112 114.657 92.6543C113.972 92.6696 113.296 92.4889 112.709 92.1335C112.121 91.778 111.648 91.2625 111.343 90.6473C112.369 91.1715 113.495 91.4709 114.646 91.5253V91.5253Z" fill="#6161C6"/>
<path d="M110.66 75.4571C109.065 75.708 107.618 77.1562 106.559 78.2396C105.5 79.3229 104.486 80.9422 103.142 82.6299C102.542 83.2608 102.107 84.0299 101.874 84.8692C101.642 85.7085 101.619 86.5922 101.809 87.4423C102.265 88.8449 103.256 88.5142 103.985 88.0809C104.714 87.6475 105.853 85.1501 106.138 84.3519C106.422 83.5536 106.377 80.7141 107.493 80.3264C108.901 79.8059 110.222 79.0754 111.411 78.1597C112.698 76.4036 111.286 75.3545 110.66 75.4571Z" fill="#FFC8B5"/>
<path d="M111.035 73.4616C109.794 73.0738 108.404 74.8414 106.479 76.2098C105.455 76.9618 104.361 77.6111 103.21 78.1484C104.116 78.3119 104.98 78.6572 105.75 79.1634C106.355 79.9627 106.643 80.9579 106.559 81.9572C106.813 81.7365 107.131 81.6022 107.467 81.5735C107.802 81.5449 108.139 81.6233 108.427 81.7976C109.486 82.402 108.677 84.409 109.065 85.5836C109.401 86.405 109.883 87.1584 110.489 87.8073C110.489 87.8073 111.969 84.5002 112.767 83.2458C113.564 81.9914 113.587 79.9616 113.564 77.2818C113.599 76.4593 113.373 75.6468 112.919 74.9606C112.465 74.2744 111.806 73.7497 111.035 73.4616Z" fill="white"/>
<path d="M113.427 81.9579C113.576 84.0403 113.85 86.1119 114.247 88.1614C114.578 89.8263 114.726 91.3772 114.726 91.3772C115.968 90.1658 117.147 88.8907 118.257 87.557C118.117 86.6476 118.17 85.7189 118.411 84.8311C118.653 83.9432 119.077 83.1159 119.658 82.4026L121.116 81.0342C122.429 81.7445 123.492 82.8438 124.157 84.1816C125.057 86.257 122.825 89.6553 121.446 91.229C119.724 92.9578 117.877 94.5585 115.922 96.0185C115.719 96.2222 115.477 96.3812 115.209 96.485C114.941 96.5889 114.655 96.6353 114.368 96.6213C114.082 96.6074 113.801 96.5333 113.545 96.4039C113.289 96.2745 113.062 96.0927 112.881 95.8702C111.653 94.5193 110.953 92.77 110.91 90.9439C110.796 89.5184 111.309 84.4325 111.377 82.2772C112.04 82.0669 112.732 81.9592 113.427 81.9579V81.9579Z" fill="#FFC8B5"/>
<path d="M110.545 76.2556C111.217 76.324 111.923 76.2556 112.299 77.0766C112.62 77.8414 112.849 78.6414 112.983 79.46C113.309 80.5238 113.47 81.6314 113.461 82.7442C113.575 84.6258 113.894 86.5302 113.894 86.5302L111.285 86.6671C111.285 86.6671 111.194 83.8048 111.285 82.8469C111.285 82.4135 110.944 82.4135 110.716 81.7065C110.532 81.0037 110.532 80.2654 110.716 79.5626C110.317 79.0495 110.465 78.7986 110.306 78.5135C109.976 78.217 109.941 78.3082 109.668 78.0117C109.395 77.7152 109.782 77.51 109.782 77.51C109.782 77.51 109.11 76.917 110.169 77.0995C109.941 76.86 109.77 76.4951 110.032 76.5521L110.693 76.6889C110.693 76.6889 110.021 76.1986 110.545 76.2556Z" fill="#FFC8B5"/>
<path d="M108.438 75.1614C108.837 75.3552 109.076 75.5491 109.703 75.857C110.329 76.1649 109.942 76.45 109.475 76.3131C109.771 76.6096 109.395 76.8833 108.825 76.6096C108.825 76.8605 108.575 76.8605 108.279 76.7921C108.073 76.7484 107.871 76.6873 107.675 76.6096C107.675 76.6096 107.903 77.0201 107.288 76.8833C106.977 76.7667 106.702 76.57 106.49 76.3131L105.818 76.6096C105.818 76.6096 105.818 75.6859 106.285 75.6859C106.536 75.1842 106.798 75.2298 107.14 75.3894C107.231 75.0245 107.55 74.9789 107.891 75.2298C108.017 74.8763 108.279 75.0815 108.438 75.1614Z" fill="#FFC8B5"/>
<path d="M116.987 134.962C116.958 134.249 116.438 133.563 116 133C116 133.296 115.848 133.81 115.586 134.46C114.695 134.133 113.423 134.22 112.5 134L112 134.5L115.369 135.133V135.327C115.301 135.76 115.244 136.228 115.198 136.627C114.876 137.255 114.613 137.911 114.412 138.588C114.253 139.284 114.002 140.059 113.843 140.527C113.512 140.081 113.078 139.722 112.578 139.482C112.078 139.241 111.527 139.126 110.972 139.147C110.307 139.929 109.69 140.751 109.127 141.61C108.637 142.454 109.606 143.218 111.28 142.807C112.319 142.629 113.273 142.121 114.002 141.359C114.051 141.293 114.09 141.22 114.116 141.143C114.413 140.432 114.668 139.705 114.879 138.964C115.041 138.399 115.263 137.852 115.54 137.334C115.54 138.246 115.472 139.535 115.46 139.911C115.568 139.984 115.695 140.023 115.825 140.023C115.955 140.023 116.082 139.984 116.189 139.911C116.265 139.193 116.387 138.481 116.554 137.778C116.83 136.865 116.976 135.916 116.987 134.962Z" fill="#363666"/>
</g>
<defs>
<clipPath id="clip0_497_7404">
<rect width="125" height="146" fill="white"/>
</clipPath>
</defs>
</svg>
