<svg width="248" height="205" viewBox="0 0 248 205" fill="none" xmlns="http://www.w3.org/2000/svg">
<g clip-path="url(#clip0_502_8696)">
<path d="M221.968 136.782C221.968 136.782 222.575 133.743 227.499 131.395C232.291 129.094 235.053 129.629 238.342 128.311C241.631 126.993 239.267 120.802 230.251 123.552C221.991 126.073 221.153 133.191 221.153 133.191L221.968 136.782Z" fill="#9255FA"/>
<path opacity="0.2" d="M221.968 136.782C221.968 136.782 222.575 133.743 227.499 131.395C232.291 129.094 235.053 129.629 238.342 128.311C241.631 126.993 239.267 120.802 230.251 123.552C221.991 126.073 221.153 133.191 221.153 133.191L221.968 136.782Z" fill="black"/>
<path d="M221.101 135.643C221.069 135.648 221.036 135.648 221.003 135.643C220.964 135.629 220.927 135.608 220.896 135.581C220.865 135.553 220.839 135.52 220.821 135.482C220.803 135.445 220.792 135.404 220.79 135.363C220.787 135.321 220.793 135.279 220.807 135.24C221.963 131.949 224.852 128.91 228.621 127.057C233.453 124.704 236.891 125.452 237.036 125.486C237.117 125.505 237.188 125.554 237.232 125.625C237.277 125.695 237.291 125.78 237.273 125.861C237.255 125.941 237.205 126.012 237.134 126.056C237.064 126.1 236.978 126.115 236.897 126.096C236.863 126.096 233.516 125.371 228.898 127.621C225.286 129.382 222.483 132.305 221.385 135.447C221.361 135.503 221.321 135.551 221.271 135.586C221.221 135.62 221.162 135.64 221.101 135.643Z" fill="#FAFAFA"/>
<path d="M221.257 132.996C221.257 132.996 221.835 131.269 224.061 127.891C227.898 122.034 234.158 119.473 236.897 116.124C239.845 112.51 234.747 110.277 230.164 111.52C227.54 112.245 225.147 114.628 223.893 116.233C221.236 119.724 219.713 123.941 219.529 128.317L221.257 132.996Z" fill="#9255FA"/>
<path d="M220.396 133.134C220.313 133.131 220.234 133.096 220.177 133.035C220.12 132.975 220.088 132.895 220.09 132.812C220.358 129.011 221.444 125.311 223.275 121.965C226.742 115.767 231.886 113.563 232.106 113.471C232.179 113.454 232.256 113.463 232.323 113.497C232.39 113.531 232.442 113.588 232.471 113.657C232.501 113.726 232.504 113.803 232.482 113.874C232.459 113.946 232.412 114.007 232.349 114.047C228.728 115.851 225.752 118.72 223.824 122.264C222.04 125.521 220.982 129.123 220.72 132.823C220.719 132.865 220.71 132.906 220.693 132.944C220.677 132.982 220.653 133.016 220.623 133.045C220.593 133.074 220.557 133.097 220.518 133.112C220.479 133.127 220.438 133.135 220.396 133.134Z" fill="#FAFAFA"/>
<path d="M52.3348 138.175C48.1792 135.395 47.9943 127.915 48.5954 123.213C49.549 115.732 45.7055 114.006 43.7462 117.309C42.7984 118.915 41.6078 122.402 41.7407 126.464C41.9545 132.829 44.723 140.442 51.4274 143.204L52.3348 138.175Z" fill="#9255FA"/>
<path opacity="0.2" d="M52.3348 138.175C48.1792 135.395 47.9943 127.915 48.5954 123.213C49.549 115.732 45.7055 114.006 43.7462 117.309C42.7984 118.915 41.6078 122.402 41.7407 126.464C41.9545 132.829 44.723 140.442 51.4274 143.204L52.3348 138.175Z" fill="black"/>
<path d="M51.479 142.778C51.411 142.778 51.3454 142.753 51.2941 142.709C44.2602 136.718 43.1563 126.021 45.1098 118.604C45.1193 118.566 45.1362 118.53 45.1595 118.499C45.1828 118.468 45.212 118.441 45.2455 118.421C45.2791 118.401 45.3163 118.388 45.355 118.382C45.3937 118.376 45.4331 118.378 45.4711 118.388C45.509 118.397 45.5447 118.414 45.5761 118.437C45.6076 118.46 45.6341 118.489 45.6542 118.523C45.6744 118.556 45.6877 118.593 45.6934 118.632C45.6992 118.67 45.6973 118.71 45.6878 118.747C43.7805 125.992 44.8382 136.442 51.6871 142.271C51.716 142.296 51.7397 142.325 51.7568 142.359C51.7739 142.393 51.7842 142.429 51.7869 142.467C51.7895 142.504 51.7847 142.542 51.7725 142.578C51.7603 142.613 51.7411 142.646 51.716 142.674C51.6879 142.709 51.6517 142.737 51.6104 142.755C51.5691 142.773 51.524 142.781 51.479 142.778Z" fill="#FAFAFA"/>
<path d="M58.5825 151.985C54.9645 154.575 46.6475 156.813 43.9426 152.377C41.4285 148.251 43.1104 146.45 38.0069 147.163C32.9035 147.877 31.7302 143.929 32.9381 140.592C34.1461 137.254 29.1178 132.426 32.7879 128.663C36.458 124.9 38.5675 132.726 40.6945 133.571C42.8214 134.417 44.1218 132.593 46.5724 133.922C49.023 135.252 49.2599 140.69 51.6469 140.793C55.554 140.972 62.1313 140.943 62.6283 144.413C63.1254 147.883 58.5825 151.985 58.5825 151.985Z" fill="#9255FA"/>
<path d="M60.0794 150.466H60.0505C41.1221 148.498 33.7992 132.052 33.3484 129.659C33.3416 129.621 33.3423 129.582 33.3505 129.545C33.3587 129.507 33.3742 129.472 33.3963 129.44C33.4183 129.408 33.4463 129.382 33.4787 129.361C33.5112 129.34 33.5474 129.326 33.5854 129.319C33.6233 129.312 33.6622 129.313 33.6999 129.321C33.7376 129.329 33.7733 129.345 33.8049 129.367C33.8366 129.389 33.8636 129.417 33.8845 129.449C33.9053 129.481 33.9195 129.517 33.9264 129.555C34.3656 131.909 41.5382 147.969 60.1198 149.897C60.1579 149.9 60.1948 149.911 60.2285 149.929C60.2622 149.947 60.292 149.972 60.3162 150.001C60.3404 150.03 60.3585 150.064 60.3694 150.101C60.3803 150.137 60.3839 150.175 60.3799 150.213C60.37 150.285 60.3338 150.35 60.2783 150.397C60.2229 150.444 60.152 150.469 60.0794 150.466Z" fill="#FAFAFA"/>
<path d="M39.3829 143.101C38.1883 143.101 36.9958 143.004 35.8168 142.813C35.7418 142.799 35.6755 142.756 35.6321 142.694C35.5888 142.631 35.5721 142.554 35.5856 142.479C35.5919 142.442 35.6056 142.406 35.6259 142.374C35.6463 142.342 35.6729 142.315 35.7042 142.293C35.7355 142.272 35.7708 142.257 35.808 142.249C35.8452 142.242 35.8836 142.242 35.9208 142.249C38.0795 142.603 40.2817 142.603 42.4403 142.249C42.5161 142.234 42.595 142.249 42.6599 142.291C42.7248 142.333 42.7705 142.398 42.7871 142.474C42.7947 142.511 42.7949 142.549 42.7877 142.586C42.7805 142.623 42.766 142.658 42.745 142.69C42.7241 142.721 42.6971 142.748 42.6657 142.77C42.6342 142.791 42.5989 142.805 42.5617 142.813C41.5148 143.017 40.4496 143.114 39.3829 143.101Z" fill="#FAFAFA"/>
<path d="M45.0295 144.82H44.966C44.8919 144.804 44.8274 144.759 44.7863 144.696C44.7452 144.632 44.7308 144.555 44.7463 144.481C45.3301 141.919 45.4689 139.276 45.1567 136.667C45.1444 136.59 45.1631 136.512 45.2086 136.45C45.2542 136.387 45.3228 136.345 45.3994 136.333C45.4761 136.321 45.5544 136.339 45.6173 136.384C45.6802 136.43 45.7224 136.498 45.7347 136.574C46.0696 139.263 45.9288 141.99 45.3185 144.631C45.2974 144.689 45.2578 144.739 45.2057 144.773C45.1537 144.808 45.0918 144.824 45.0295 144.82Z" fill="#FAFAFA"/>
<path d="M9.60571 122.304L18.6798 117.09C19.1164 116.872 19.5984 116.758 20.0872 116.758C20.5759 116.758 21.0579 116.872 21.4945 117.09L22.6504 117.752C23.0612 118.017 23.4032 118.376 23.6483 118.798C23.8934 119.22 24.0347 119.694 24.0607 120.18V130.607C24.0338 131.094 23.8921 131.567 23.647 131.989C23.402 132.411 23.0606 132.77 22.6504 133.036L13.5821 138.249C13.1455 138.468 12.6635 138.582 12.1748 138.582C11.686 138.582 11.2041 138.468 10.7674 138.249L9.61149 137.587C9.20177 137.321 8.86097 136.963 8.6169 136.541C8.37283 136.119 8.23239 135.645 8.20703 135.159V124.732C8.23311 124.247 8.37324 123.774 8.61617 123.352C8.85909 122.93 9.19802 122.571 9.60571 122.304Z" fill="#9255FA"/>
<path opacity="0.5" d="M9.60571 122.304L18.6798 117.09C19.1164 116.872 19.5984 116.758 20.0872 116.758C20.5759 116.758 21.0579 116.872 21.4945 117.09L22.6504 117.752C23.0612 118.017 23.4032 118.376 23.6483 118.798C23.8934 119.22 24.0347 119.694 24.0607 120.18V130.607C24.0338 131.094 23.8921 131.567 23.647 131.989C23.402 132.411 23.0606 132.77 22.6504 133.036L13.5821 138.249C13.1455 138.468 12.6635 138.582 12.1748 138.582C11.686 138.582 11.2041 138.468 10.7674 138.249L9.61149 137.587C9.20177 137.321 8.86097 136.963 8.6169 136.541C8.37283 136.119 8.23239 135.645 8.20703 135.159V124.732C8.23311 124.247 8.37324 123.774 8.61617 123.352C8.85909 122.93 9.19802 122.571 9.60571 122.304Z" fill="#FAFAFA"/>
<path d="M24.0489 120.181C24.0489 119.283 23.419 118.92 22.6387 119.369L13.5704 124.583C13.1602 124.849 12.8188 125.207 12.5738 125.629C12.3288 126.051 12.1871 126.524 12.1602 127.011V137.438C12.1602 138.33 12.7901 138.693 13.5704 138.249L22.6387 133.036C23.0489 132.77 23.3903 132.411 23.6353 131.99C23.8803 131.568 24.022 131.094 24.0489 130.608V120.181Z" fill="#9255FA"/>
<path d="M8.20117 135.159C8.22474 135.647 8.36433 136.123 8.60848 136.547C8.85263 136.972 9.19438 137.332 9.60563 137.599L10.7616 138.261C11.1581 138.459 11.5924 138.571 12.0358 138.59C12.4791 138.609 12.9214 138.534 13.3335 138.37C12.6689 138.623 12.1776 138.249 12.1776 137.449V127.011C12.1929 126.522 12.3364 126.046 12.5937 125.63L8.62887 123.328C8.3767 123.746 8.23549 124.222 8.21851 124.709L8.20117 135.159Z" fill="#9255FA"/>
<path opacity="0.1" d="M8.20117 135.159C8.22474 135.647 8.36433 136.123 8.60848 136.547C8.85263 136.972 9.19438 137.332 9.60563 137.599L10.7616 138.261C11.1581 138.459 11.5924 138.571 12.0358 138.59C12.4791 138.609 12.9214 138.534 13.3335 138.37C12.6689 138.623 12.1776 138.249 12.1776 137.449V127.011C12.1929 126.522 12.3364 126.046 12.5937 125.63L8.62887 123.328C8.3767 123.746 8.23549 124.222 8.21851 124.709L8.20117 135.159Z" fill="black"/>
<path d="M14.2644 127.725L21.9802 123.276C22.1825 123.156 22.3501 123.277 22.3501 123.489V128.668C22.3435 128.798 22.3066 128.924 22.2424 129.037C22.1782 129.15 22.0884 129.246 21.9802 129.319L14.2644 133.801C14.0563 133.922 13.8887 133.801 13.8887 133.583V128.404C13.8914 128.269 13.9271 128.136 13.9925 128.018C14.0579 127.9 14.1512 127.799 14.2644 127.725Z" fill="#FAFAFA"/>
<path d="M13.8887 127.943L18.4951 129.433L22.3501 123.058L18.6222 129.969L13.8887 127.943Z" fill="#E0E0E0"/>
<path d="M9.60563 95.9886L18.6797 90.7751C19.1156 90.5538 19.5978 90.4385 20.0871 90.4385C20.5763 90.4385 21.0586 90.5538 21.4944 90.7751L22.6504 91.4369C23.0593 91.7031 23.3992 92.0619 23.6423 92.484C23.8854 92.906 24.0248 93.3793 24.049 93.8652V104.292C24.0231 104.778 23.8817 105.251 23.6366 105.672C23.3914 106.093 23.0495 106.451 22.6388 106.715L13.5705 111.928C13.1347 112.15 12.6524 112.265 12.1631 112.265C11.6739 112.265 11.1916 112.15 10.7558 111.928L9.59985 111.272C9.18988 111.003 8.84953 110.641 8.60649 110.216C8.36345 109.791 8.22458 109.315 8.20117 108.827V98.417C8.2279 97.931 8.36892 97.458 8.61286 97.0362C8.85681 96.6144 9.19687 96.2556 9.60563 95.9886Z" fill="#9255FA"/>
<path opacity="0.5" d="M9.60563 95.9886L18.6797 90.7751C19.1156 90.5538 19.5978 90.4385 20.0871 90.4385C20.5763 90.4385 21.0586 90.5538 21.4944 90.7751L22.6504 91.4369C23.0593 91.7031 23.3992 92.0619 23.6423 92.484C23.8854 92.906 24.0248 93.3793 24.049 93.8652V104.292C24.0231 104.778 23.8817 105.251 23.6366 105.672C23.3914 106.093 23.0495 106.451 22.6388 106.715L13.5705 111.928C13.1347 112.15 12.6524 112.265 12.1631 112.265C11.6739 112.265 11.1916 112.15 10.7558 111.928L9.59985 111.272C9.18988 111.003 8.84953 110.641 8.60649 110.216C8.36345 109.791 8.22458 109.315 8.20117 108.827V98.417C8.2279 97.931 8.36892 97.458 8.61286 97.0362C8.85681 96.6144 9.19687 96.2556 9.60563 95.9886Z" fill="#FAFAFA"/>
<path d="M24.0489 93.8652C24.0489 92.9675 23.419 92.605 22.6387 93.0539L13.5704 98.2673C13.1596 98.5326 12.8177 98.891 12.5726 99.313C12.3275 99.7351 12.1862 100.209 12.1602 100.696V111.128C12.1602 112.02 12.7901 112.383 13.5704 111.934L22.6387 106.721C23.0494 106.456 23.3913 106.099 23.6365 105.678C23.8816 105.257 24.023 104.784 24.0489 104.298V93.8652Z" fill="#9255FA"/>
<path d="M8.20117 108.827C8.2279 109.313 8.36892 109.786 8.61286 110.208C8.85681 110.63 9.19687 110.989 9.60563 111.256L10.7616 111.912C11.1573 112.112 11.5915 112.226 12.035 112.246C12.4786 112.266 12.9213 112.191 13.3335 112.027C12.6689 112.274 12.1776 111.906 12.1776 111.106V100.696C12.1929 100.208 12.3364 99.7318 12.5937 99.3154L8.62887 97.0137C8.3767 97.4319 8.23549 97.9072 8.21851 98.3947L8.20117 108.827Z" fill="#9255FA"/>
<path opacity="0.1" d="M8.20117 108.827C8.2279 109.313 8.36892 109.786 8.61286 110.208C8.85681 110.63 9.19687 110.989 9.60563 111.256L10.7616 111.912C11.1573 112.112 11.5915 112.226 12.035 112.246C12.4786 112.266 12.9213 112.191 13.3335 112.027C12.6689 112.274 12.1776 111.906 12.1776 111.106V100.696C12.1929 100.208 12.3364 99.7318 12.5937 99.3154L8.62887 97.0137C8.3767 97.4319 8.23549 97.9072 8.21851 98.3947L8.20117 108.827Z" fill="black"/>
<path d="M18.0151 106.526L17.0788 106.422C15.8072 106.318 14.293 105.847 14.293 104.011C14.3296 103.345 14.5235 102.696 14.8589 102.118C15.1943 101.54 15.6617 101.049 16.2234 100.685C17.0557 100.207 17.7608 100.403 18.0324 101.094C18.3063 100.069 18.9505 99.182 19.8415 98.6019C20.9107 97.9919 21.7719 98.4868 21.7719 99.7125C21.7719 101.485 20.2692 103.741 19.0034 105.3L18.0151 106.526Z" fill="#FAFAFA"/>
<path d="M9.60571 69.6976L18.6798 64.4841C19.1156 64.2628 19.5979 64.1475 20.0872 64.1475C20.5764 64.1475 21.0587 64.2628 21.4945 64.4841L22.6504 65.1459C23.0611 65.4099 23.4031 65.7672 23.6482 66.1883C23.8933 66.6094 24.0347 67.0824 24.0607 67.5685V77.9954C24.0351 78.4823 23.894 78.9563 23.6489 79.3784C23.4037 79.8005 23.0616 80.1588 22.6504 80.4238L13.5821 85.6372C13.1463 85.8585 12.664 85.9739 12.1748 85.9739C11.6855 85.9739 11.2033 85.8585 10.7674 85.6372L9.61149 84.9812C9.20273 84.7143 8.86267 84.3554 8.61872 83.9336C8.37477 83.5118 8.23376 83.0389 8.20703 82.5529V72.1087C8.23576 71.6262 8.37714 71.157 8.61995 70.7384C8.86276 70.3199 9.20029 69.9635 9.60571 69.6976Z" fill="#9255FA"/>
<path opacity="0.5" d="M9.60571 69.6976L18.6798 64.4841C19.1156 64.2628 19.5979 64.1475 20.0872 64.1475C20.5764 64.1475 21.0587 64.2628 21.4945 64.4841L22.6504 65.1459C23.0611 65.4099 23.4031 65.7672 23.6482 66.1883C23.8933 66.6094 24.0347 67.0824 24.0607 67.5685V77.9954C24.0351 78.4823 23.894 78.9563 23.6489 79.3784C23.4037 79.8005 23.0616 80.1588 22.6504 80.4238L13.5821 85.6372C13.1463 85.8585 12.664 85.9739 12.1748 85.9739C11.6855 85.9739 11.2033 85.8585 10.7674 85.6372L9.61149 84.9812C9.20273 84.7143 8.86267 84.3554 8.61872 83.9336C8.37477 83.5118 8.23376 83.0389 8.20703 82.5529V72.1087C8.23576 71.6262 8.37714 71.157 8.61995 70.7384C8.86276 70.3199 9.20029 69.9635 9.60571 69.6976Z" fill="#FAFAFA"/>
<path d="M13.5704 85.6198C12.7901 86.0686 12.1602 85.7061 12.1602 84.8142V74.3872C12.1857 73.9003 12.3268 73.4263 12.572 73.0042C12.8171 72.5821 13.1593 72.2238 13.5704 71.9589L22.6387 66.7454C23.419 66.2966 24.0489 66.6591 24.0489 67.551V77.978C24.0234 78.4649 23.8823 78.9389 23.6371 79.361C23.392 79.7831 23.0498 80.1413 22.6387 80.4063" fill="#9255FA"/>
<path d="M8.20117 82.5351C8.2279 83.0211 8.36892 83.4941 8.61286 83.9159C8.85681 84.3377 9.19687 84.6965 9.60563 84.9635L10.7616 85.6195C11.1573 85.82 11.5915 85.9341 12.035 85.9539C12.4786 85.9738 12.9213 85.899 13.3335 85.7346C12.6689 85.982 12.1776 85.6137 12.1776 84.8139V74.3869C12.1929 73.8983 12.3364 73.4222 12.5937 73.0059L8.62887 70.7041C8.3767 71.1224 8.23549 71.5976 8.21851 72.0852L8.20117 82.5351Z" fill="#9255FA"/>
<path opacity="0.1" d="M8.20117 82.5351C8.2279 83.0211 8.36892 83.4941 8.61286 83.9159C8.85681 84.3377 9.19687 84.6965 9.60563 84.9635L10.7616 85.6195C11.1573 85.82 11.5915 85.9341 12.035 85.9539C12.4786 85.9738 12.9213 85.899 13.3335 85.7346C12.6689 85.982 12.1776 85.6137 12.1776 84.8139V74.3869C12.1929 73.8983 12.3364 73.4222 12.5937 73.0059L8.62887 70.7041C8.3767 71.1224 8.23549 71.5976 8.21851 72.0852L8.20117 82.5351Z" fill="black"/>
<path d="M16.4482 76.0267C16.4482 76.0267 17.5059 73.5983 17.6042 73.2473C17.6567 72.6461 17.6567 72.0416 17.6042 71.4404C17.6042 71.2102 18.5694 70.56 18.8815 71.2275C19.1817 71.9375 19.2386 72.7263 19.0433 73.4717L21.3956 72.1079C21.8927 71.8202 22.095 72.223 22.1008 72.5453C22.0846 72.9128 21.951 73.2657 21.7193 73.5523C21.7193 73.5523 22.1932 73.4142 22.1932 74.0414C22.1792 74.262 22.1207 74.4775 22.0215 74.6752C21.9222 74.8729 21.7841 75.0487 21.6153 75.1923C21.6153 75.1923 21.7655 75.3074 21.7713 75.7677C21.7016 76.2191 21.467 76.6289 21.1124 76.9186C21.1905 77.1001 21.2261 77.2969 21.2165 77.494C21.1874 77.7695 21.0945 78.0345 20.945 78.2682C20.7956 78.5019 20.5937 78.6978 20.3553 78.8406L16.5003 81.0905L16.4482 76.0267Z" fill="#FAFAFA"/>
<path d="M14.2174 83.082L15.9108 82.098L15.8877 76.2285L14.1885 77.2125L14.2174 83.082Z" fill="#FAFAFA"/>
<path d="M4.64157 38.8883L18.5475 30.8955C19.2155 30.5578 19.9541 30.3818 20.7033 30.3818C21.4525 30.3818 22.1911 30.5578 22.8591 30.8955L24.593 31.9025C25.2225 32.3095 25.7464 32.859 26.1221 33.506C26.4978 34.153 26.7145 34.8793 26.7546 35.6256V51.6112C26.7114 52.3537 26.4932 53.0755 26.1176 53.7183C25.7421 54.3611 25.2198 54.9069 24.593 55.3113L10.7218 63.3214C10.0527 63.6591 9.31319 63.8351 8.56308 63.8351C7.81297 63.8351 7.07341 63.6591 6.40437 63.3214L4.67047 62.3144C4.04268 61.906 3.52035 61.3561 3.14581 60.7093C2.77126 60.0624 2.55504 59.3369 2.51465 58.5913V42.6056C2.55179 41.8634 2.76363 41.1403 3.13308 40.4946C3.50254 39.8488 4.01926 39.2986 4.64157 38.8883Z" fill="#9255FA"/>
<path opacity="0.1" d="M4.64157 38.8883L18.5475 30.8955C19.2155 30.5578 19.9541 30.3818 20.7033 30.3818C21.4525 30.3818 22.1911 30.5578 22.8591 30.8955L24.593 31.9025C25.2225 32.3095 25.7464 32.859 26.1221 33.506C26.4978 34.153 26.7145 34.8793 26.7546 35.6256V51.6112C26.7114 52.3537 26.4932 53.0755 26.1176 53.7183C25.7421 54.3611 25.2198 54.9069 24.593 55.3113L10.7218 63.3214C10.0527 63.6591 9.31319 63.8351 8.56308 63.8351C7.81297 63.8351 7.07341 63.6591 6.40437 63.3214L4.67047 62.3144C4.04268 61.906 3.52035 61.3561 3.14581 60.7093C2.77126 60.0624 2.55504 59.3369 2.51465 58.5913V42.6056C2.55179 41.8634 2.76363 41.1403 3.13308 40.4946C3.50254 39.8488 4.01926 39.2986 4.64157 38.8883Z" fill="black"/>
<path d="M26.7769 35.5281C26.7769 34.7283 26.3838 32.7373 24.3205 33.9975C22.2572 35.2577 12.1196 40.9603 10.7209 41.7889C9.75037 42.3191 8.98399 43.1549 8.54199 44.1655L9.64591 45.2703L26.7769 35.5281Z" fill="#9255FA"/>
<path opacity="0.2" d="M26.7769 35.5281C26.7769 34.7283 26.3838 32.7373 24.3205 33.9975C22.2572 35.2577 12.1196 40.9603 10.7209 41.7889C9.75037 42.3191 8.98399 43.1549 8.54199 44.1655L9.64591 45.2703L26.7769 35.5281Z" fill="black"/>
<path d="M10.7212 63.3213C9.52478 64.0061 8.55957 63.4537 8.55957 62.0841V46.1042C8.59879 45.3569 8.8151 44.6295 9.19079 43.9814C9.56648 43.3334 10.0909 42.783 10.7212 42.3754L24.5924 34.3825C25.7888 33.6978 26.754 34.2559 26.754 35.6255V51.6112C26.7108 52.3536 26.4925 53.0754 26.117 53.7182C25.7415 54.361 25.2192 54.9068 24.5924 55.3112" fill="#9255FA"/>
<path opacity="0.1" d="M10.7212 63.3213C9.52478 64.0061 8.55957 63.4537 8.55957 62.0841V46.1042C8.59879 45.3569 8.8151 44.6295 9.19079 43.9814C9.56648 43.3334 10.0909 42.783 10.7212 42.3754L24.5924 34.3825C25.7888 33.6978 26.754 34.2559 26.754 35.6255V51.6112C26.7108 52.3536 26.4925 53.0754 26.117 53.7182C25.7415 54.361 25.2192 54.9068 24.5924 55.3112" fill="black"/>
<path d="M2.48503 58.5917C2.52542 59.3372 2.74165 60.0628 3.11619 60.7097C3.49074 61.3565 4.01306 61.9064 4.64085 62.3148L6.37475 63.3218C6.98303 63.6269 7.64943 63.8001 8.3299 63.8299C9.01038 63.8596 9.68946 63.7453 10.3223 63.4944C9.30505 63.88 8.53057 63.3103 8.53057 62.0846V46.1047C8.55689 45.3562 8.77581 44.6271 9.16634 43.9871L3.0919 40.4941C2.70292 41.1345 2.48597 41.8638 2.46191 42.6118L2.48503 58.5917Z" fill="#9255FA"/>
<path opacity="0.2" d="M2.48503 58.5917C2.52542 59.3372 2.74165 60.0628 3.11619 60.7097C3.49074 61.3565 4.01306 61.9064 4.64085 62.3148L6.37475 63.3218C6.98303 63.6269 7.64943 63.8001 8.3299 63.8299C9.01038 63.8596 9.68946 63.7453 10.3223 63.4944C9.30505 63.88 8.53057 63.3103 8.53057 62.0846V46.1047C8.55689 45.3562 8.77581 44.6271 9.16634 43.9871L3.0919 40.4941C2.70292 41.1345 2.48597 41.8638 2.46191 42.6118L2.48503 58.5917Z" fill="black"/>
<path d="M18.0847 40.5108L19.888 43.6758L23.9338 42.03C24.3152 41.8746 24.4713 42.3235 24.1938 42.7953L21.2751 47.7441L21.9629 51.9678C22.0265 52.3706 21.6277 52.9288 21.2867 52.9231L17.657 52.8137L14.0447 57.072C13.7037 57.4748 13.3049 57.3712 13.3685 56.8936L14.0679 51.8585L11.178 50.2645C10.9006 50.1149 11.0567 49.4877 11.4381 49.2057L15.4839 46.2134L17.2871 40.9712C17.4201 40.4936 17.9113 40.2116 18.0847 40.5108Z" fill="#FAFAFA"/>
<path d="M213.588 113.534C206.652 116.819 195.44 116.819 188.516 113.534C181.592 110.248 181.58 104.902 188.516 101.639C195.451 98.3765 206.664 98.3535 213.588 101.639C220.512 104.925 220.489 110.248 213.588 113.534Z" fill="#E0E0E0"/>
<path d="M55.9189 151.68C55.9807 152.517 56.2394 153.327 56.6742 154.046C57.109 154.765 57.7076 155.372 58.4215 155.818L128.546 196.098C129.322 196.49 130.179 196.694 131.049 196.694C131.919 196.694 132.776 196.49 133.552 196.098L229.494 140.942C230.25 140.545 230.883 139.95 231.325 139.221C231.766 138.492 232 137.656 232 136.805C232 135.954 231.766 135.118 231.325 134.389C230.883 133.66 230.25 133.065 229.494 132.668L159.375 92.3869C158.6 91.9952 157.742 91.791 156.872 91.791C156.003 91.791 155.145 91.9952 154.37 92.3869L58.4273 147.543C57.7123 147.988 57.1125 148.594 56.6767 149.313C56.241 150.032 55.9813 150.843 55.9189 151.68Z" fill="#37474F"/>
<path d="M84.852 132.352L58.4216 147.543C57.6654 147.941 57.0324 148.536 56.5909 149.265C56.1493 149.994 55.916 150.829 55.916 151.681C55.916 152.532 56.1493 153.367 56.5909 154.096C57.0324 154.825 57.6654 155.421 58.4216 155.818L128.546 196.099C129.318 196.5 130.179 196.698 131.049 196.674V132.352H84.852Z" fill="#263238"/>
<path d="M53.5721 147.629C52.8744 147.159 52.2981 146.531 51.8904 145.797C51.4826 145.063 51.2548 144.244 51.2256 143.405V60.0875C51.2717 59.2227 51.5224 58.381 51.9573 57.631C52.3922 56.8809 52.999 56.2439 53.7282 55.7717L149.671 0.644708C150.395 0.19244 151.229 -0.0548164 152.084 -0.0704942C152.939 -0.0861719 153.782 0.130324 154.522 0.555726C155.262 0.981129 155.873 1.59936 156.287 2.344C156.701 3.08863 156.903 3.93153 156.872 4.78211V88.0711C156.826 88.9358 156.575 89.7774 156.14 90.5273C155.705 91.2772 155.099 91.9144 154.37 92.3869L58.4271 147.543C57.6818 147.937 56.8536 148.15 56.01 148.165C55.1663 148.18 54.331 147.996 53.5721 147.629Z" fill="#455A64"/>
<path d="M62.9645 63.9431L51.9831 57.6133C51.5345 58.3553 51.2838 59.1991 51.2549 60.0646V143.405C51.2247 144.255 51.4274 145.097 51.8412 145.841C52.255 146.585 52.8643 147.202 53.6038 147.627C54.3433 148.053 55.1851 148.269 56.039 148.254C56.8928 148.24 57.7265 147.994 58.4506 147.543L69.3915 141.253L62.9645 63.9431Z" fill="#263238"/>
<path d="M55.9189 62.792V146.104C55.9189 147.692 57.0402 148.337 58.4215 147.543L154.364 92.3868C155.093 91.9143 155.7 91.2772 156.134 90.5273C156.569 89.7773 156.82 88.9358 156.867 88.071V4.75905C156.867 3.17084 155.745 2.52635 154.364 3.32045L58.4215 58.4705C57.6929 58.9446 57.0866 59.5829 56.6518 60.3337C56.217 61.0844 55.966 61.9266 55.9189 62.792Z" fill="#37474F"/>
<path d="M58.421 150.42L128.546 190.729C129.321 191.121 130.179 191.325 131.048 191.325C131.918 191.325 132.775 191.121 133.551 190.729L229.494 135.574C230.881 134.78 230.881 133.491 229.494 132.696L159.375 92.3869C158.599 91.9952 157.742 91.791 156.872 91.791C156.002 91.791 155.145 91.9952 154.369 92.3869L58.4268 147.543C57.0397 148.337 57.0397 149.626 58.421 150.42Z" fill="#455A64"/>
<path d="M59.7683 63.0971L153.023 9.49495C153.85 9.01733 154.526 9.40288 154.526 10.3581V82.4778C154.497 82.9965 154.346 83.5011 154.085 83.9509C153.824 84.4007 153.46 84.7831 153.023 85.0673L59.7683 138.669C58.9361 139.147 58.2656 138.761 58.2656 137.806V65.6693C58.2961 65.1533 58.4479 64.6516 58.709 64.2048C58.97 63.758 59.3329 63.3785 59.7683 63.0971Z" fill="#FAFAFA"/>
<path d="M66.559 148.262L155.618 97.0476C156.006 96.852 156.434 96.75 156.869 96.75C157.304 96.75 157.733 96.852 158.121 97.0476L162.681 99.6659C162.832 99.7169 162.963 99.8137 163.056 99.9427C163.149 100.072 163.199 100.226 163.199 100.385C163.199 100.544 163.149 100.699 163.056 100.828C162.963 100.957 162.832 101.053 162.681 101.104L73.6044 152.313C73.2166 152.508 72.7879 152.61 72.3531 152.61C71.9183 152.61 71.4897 152.508 71.1018 152.313L66.559 149.683C66.4139 149.628 66.289 149.531 66.2008 149.404C66.1127 149.277 66.0654 149.127 66.0654 148.972C66.0654 148.818 66.1127 148.667 66.2008 148.54C66.289 148.413 66.4139 148.316 66.559 148.262Z" fill="#263238"/>
<path d="M78.2972 155.012L167.356 103.798C167.744 103.602 168.173 103.5 168.607 103.5C169.042 103.5 169.471 103.602 169.859 103.798L197.879 119.91C198.03 119.961 198.161 120.058 198.254 120.187C198.346 120.316 198.396 120.47 198.396 120.629C198.396 120.788 198.346 120.943 198.254 121.072C198.161 121.201 198.03 121.297 197.879 121.348L108.924 172.482C108.535 172.678 108.105 172.78 107.669 172.78C107.234 172.78 106.804 172.678 106.415 172.482L78.303 156.439C78.1531 156.389 78.0229 156.293 77.9303 156.165C77.8378 156.038 77.7878 155.885 77.7871 155.727C77.7865 155.57 77.8353 155.416 77.9268 155.288C78.0183 155.16 78.1478 155.063 78.2972 155.012Z" fill="#263238"/>
<path d="M158.132 126.85L160.924 125.245C161.039 125.176 161.034 125.06 160.924 124.991L157.699 123.138C157.63 123.103 157.554 123.085 157.476 123.085C157.399 123.085 157.323 123.103 157.254 123.138L154.468 124.744C154.347 124.807 154.352 124.922 154.468 124.997L157.693 126.85C157.761 126.884 157.836 126.902 157.913 126.902C157.989 126.902 158.064 126.884 158.132 126.85ZM152.63 120.48L149.844 122.062C149.723 122.131 149.729 122.247 149.844 122.321L153.069 124.174C153.138 124.208 153.215 124.226 153.292 124.226C153.369 124.226 153.445 124.208 153.514 124.174L156.306 122.569C156.422 122.5 156.416 122.385 156.306 122.316L153.081 120.457C153.009 120.426 152.931 120.411 152.853 120.415C152.774 120.419 152.698 120.441 152.63 120.48ZM143.62 125.659L138.903 128.392C138.782 128.461 138.793 128.576 138.903 128.651L142.128 130.504C142.198 130.538 142.274 130.556 142.351 130.556C142.428 130.556 142.504 130.538 142.573 130.504L147.29 127.794C147.405 127.725 147.399 127.61 147.29 127.541L144.065 125.682C143.997 125.644 143.922 125.623 143.845 125.619C143.768 125.615 143.69 125.628 143.62 125.659ZM148.555 122.822L145.764 124.427C145.648 124.491 145.654 124.606 145.764 124.681L148.989 126.534C149.058 126.569 149.134 126.587 149.211 126.587C149.289 126.587 149.365 126.569 149.434 126.534L152.22 124.928C152.341 124.859 152.335 124.744 152.22 124.675L148.995 122.822C148.927 122.788 148.851 122.77 148.775 122.77C148.699 122.77 148.623 122.788 148.555 122.822ZM137.614 129.112L134.829 130.694C134.707 130.763 134.719 130.878 134.829 130.953L138.054 132.806C138.123 132.841 138.199 132.86 138.276 132.86C138.354 132.86 138.43 132.841 138.499 132.806L141.29 131.206C141.406 131.137 141.4 131.022 141.29 130.953L138.065 129.094C137.994 129.062 137.916 129.047 137.838 129.05C137.76 129.053 137.683 129.074 137.614 129.112ZM133.54 131.454L130.754 133.053C130.633 133.122 130.638 133.237 130.754 133.312L133.979 135.165C134.048 135.199 134.124 135.217 134.202 135.217C134.279 135.217 134.355 135.199 134.424 135.165L137.216 133.56C137.331 133.491 137.325 133.376 137.216 133.307L133.991 131.448C133.92 131.414 133.843 131.397 133.764 131.398C133.686 131.399 133.609 131.418 133.54 131.454ZM146.226 138.992L149.012 137.386C149.128 137.317 149.122 137.202 149.012 137.133L145.77 135.298C145.701 135.262 145.624 135.244 145.547 135.244C145.47 135.244 145.393 135.262 145.325 135.298L142.539 136.903C142.417 136.966 142.429 137.081 142.539 137.156L145.764 139.009C145.836 139.045 145.916 139.062 145.997 139.059C146.078 139.056 146.157 139.033 146.226 138.992ZM142.146 141.334L144.937 139.728C145.053 139.659 145.047 139.55 144.937 139.475L141.695 137.599C141.626 137.564 141.55 137.546 141.472 137.546C141.395 137.546 141.319 137.564 141.25 137.599L138.452 139.216C138.331 139.28 138.343 139.395 138.452 139.469L141.678 141.322C141.748 141.363 141.828 141.386 141.91 141.388C141.992 141.39 142.073 141.371 142.146 141.334ZM138.071 143.676L140.863 142.07C140.978 142.007 140.972 141.892 140.863 141.817L137.638 139.964C137.569 139.929 137.492 139.911 137.415 139.911C137.338 139.911 137.261 139.929 137.193 139.964L134.407 141.558C134.285 141.627 134.291 141.742 134.407 141.811L137.632 143.664C137.699 143.701 137.774 143.72 137.85 143.722C137.926 143.724 138.002 143.709 138.071 143.676ZM134.025 146.018L136.817 144.412C136.932 144.349 136.927 144.234 136.817 144.159L133.592 142.306C133.523 142.271 133.447 142.253 133.369 142.253C133.292 142.253 133.216 142.271 133.147 142.306L130.315 143.929C130.193 143.998 130.199 144.113 130.315 144.182L133.54 146.035C133.611 146.07 133.691 146.086 133.77 146.083C133.85 146.08 133.928 146.058 133.996 146.018H134.025ZM154.058 129.192L156.843 127.587C156.965 127.518 156.959 127.408 156.843 127.333L153.618 125.481C153.55 125.445 153.473 125.427 153.396 125.427C153.318 125.427 153.242 125.445 153.173 125.481L150.388 127.086C150.266 127.155 150.272 127.264 150.388 127.339L153.613 129.192C153.681 129.227 153.758 129.246 153.835 129.246C153.913 129.246 153.989 129.227 154.058 129.192ZM150.301 136.673L156.52 133.094C156.635 133.025 156.63 132.909 156.52 132.84L148.688 128.34C148.619 128.305 148.543 128.287 148.466 128.287C148.388 128.287 148.312 128.305 148.243 128.34L145.03 130.188C144.908 130.257 144.914 130.372 145.03 130.447L149.18 132.829C149.307 132.904 149.312 133.019 149.18 133.082L146.608 134.567C146.492 134.63 146.498 134.745 146.608 134.82L149.833 136.673C149.907 136.707 149.988 136.723 150.07 136.719C150.151 136.715 150.231 136.691 150.301 136.65V136.673ZM129.465 133.796L126.679 135.401C126.558 135.464 126.564 135.579 126.679 135.654L129.904 137.507C129.974 137.541 130.05 137.559 130.127 137.559C130.204 137.559 130.28 137.541 130.349 137.507L133.141 135.902C133.257 135.833 133.251 135.718 133.141 135.649L129.916 133.796C129.846 133.759 129.769 133.74 129.691 133.74C129.612 133.74 129.535 133.759 129.465 133.796ZM125.419 136.138L122.628 137.743C122.512 137.812 122.518 137.922 122.628 137.996L125.853 139.849C125.922 139.885 125.998 139.903 126.075 139.903C126.153 139.903 126.229 139.885 126.298 139.849L129.084 138.244C129.205 138.175 129.199 138.06 129.084 137.991L125.859 136.138C125.787 136.098 125.706 136.078 125.625 136.078C125.543 136.078 125.462 136.098 125.39 136.138H125.419ZM105.052 162.406C105.121 162.442 105.197 162.46 105.274 162.46C105.352 162.46 105.428 162.442 105.497 162.406L108.288 160.801C108.404 160.732 108.398 160.617 108.288 160.548L105.063 158.695C104.995 158.66 104.918 158.641 104.841 158.641C104.763 158.641 104.687 158.66 104.618 158.695L101.832 160.3C101.711 160.369 101.717 160.479 101.832 160.554L105.052 162.406ZM92.7931 154.862L90.0015 156.468C89.8859 156.531 89.8917 156.646 90.0015 156.721L93.2266 158.574C93.2958 158.608 93.3719 158.626 93.4491 158.626C93.5262 158.626 93.6024 158.608 93.6716 158.574L96.4574 156.969C96.5788 156.899 96.573 156.784 96.4574 156.715L93.2323 154.862C93.1643 154.828 93.089 154.81 93.0127 154.81C92.9364 154.81 92.8611 154.828 92.7931 154.862ZM99.353 160.358C99.4218 160.393 99.4981 160.412 99.5755 160.412C99.6529 160.412 99.7292 160.393 99.798 160.358L102.584 158.752C102.705 158.683 102.694 158.574 102.584 158.499L99.3646 156.646C99.2958 156.611 99.2195 156.593 99.142 156.593C99.0646 156.593 98.9883 156.611 98.9195 156.646L96.128 158.252C96.0124 158.321 96.0181 158.43 96.128 158.505L99.353 160.358ZM112.224 163.81L115.016 162.205C115.132 162.136 115.126 162.021 115.016 161.952L111.791 160.093C111.722 160.059 111.646 160.041 111.568 160.041C111.491 160.041 111.415 160.059 111.346 160.093L108.56 161.699C108.439 161.762 108.444 161.877 108.56 161.952L111.785 163.805C111.85 163.843 111.923 163.865 111.998 163.87C112.074 163.875 112.149 163.863 112.219 163.834L112.224 163.81ZM107.705 166.141C107.773 166.176 107.85 166.195 107.927 166.195C108.005 166.195 108.081 166.176 108.15 166.141L110.941 164.536C111.057 164.466 111.051 164.351 110.941 164.282L107.716 162.429C107.647 162.394 107.571 162.376 107.494 162.376C107.416 162.376 107.34 162.394 107.271 162.429L104.462 164.069C104.341 164.133 104.347 164.248 104.462 164.323L107.705 166.141ZM96.8389 152.561L94.0473 154.16C93.9317 154.229 93.9375 154.345 94.0473 154.419L97.2723 156.272C97.3415 156.306 97.4177 156.324 97.4948 156.324C97.572 156.324 97.6482 156.306 97.7174 156.272L100.503 154.667C100.625 154.598 100.619 154.483 100.503 154.414L97.307 152.561C97.2348 152.523 97.1545 152.503 97.0729 152.503C96.9914 152.503 96.911 152.523 96.8389 152.561ZM117.241 140.822L114.45 142.427C114.334 142.496 114.34 142.611 114.45 142.68L117.675 144.533C117.743 144.569 117.82 144.587 117.897 144.587C117.975 144.587 118.051 144.569 118.12 144.533L120.905 142.928C121.027 142.865 121.015 142.749 120.905 142.675L117.686 140.822C117.617 140.788 117.541 140.77 117.464 140.77C117.386 140.77 117.31 140.788 117.241 140.822ZM100.937 150.196L98.1508 151.795C98.0295 151.864 98.0352 151.979 98.1508 152.054L101.376 153.907C101.445 153.941 101.521 153.959 101.598 153.959C101.676 153.959 101.752 153.941 101.821 153.907L104.613 152.307C104.728 152.238 104.722 152.123 104.613 152.049L101.387 150.196C101.317 150.161 101.24 150.143 101.162 150.143C101.084 150.143 101.007 150.161 100.937 150.196ZM121.316 138.48L118.524 140.085C118.409 140.154 118.414 140.264 118.524 140.338L121.749 142.191C121.818 142.227 121.894 142.245 121.972 142.245C122.049 142.245 122.125 142.227 122.194 142.191L124.98 140.586C125.101 140.517 125.096 140.407 124.98 140.333L121.755 138.48C121.687 138.445 121.612 138.427 121.535 138.427C121.459 138.427 121.384 138.445 121.316 138.48ZM113.161 143.164L110.375 144.769C110.253 144.838 110.265 144.953 110.375 145.022L113.6 146.881C113.669 146.915 113.745 146.933 113.822 146.933C113.9 146.933 113.976 146.915 114.045 146.881L116.831 145.281C116.952 145.212 116.941 145.097 116.831 145.022L113.6 143.175C113.532 143.14 113.458 143.121 113.382 143.119C113.306 143.117 113.23 143.132 113.161 143.164ZM109.086 145.512L106.3 147.111C106.179 147.18 106.19 147.295 106.3 147.364L109.554 149.223C109.622 149.257 109.698 149.275 109.774 149.275C109.85 149.275 109.925 149.257 109.993 149.223L112.785 147.623C112.901 147.554 112.895 147.439 112.785 147.364L109.554 145.517C109.483 145.477 109.403 145.456 109.321 145.455C109.239 145.454 109.158 145.473 109.086 145.512ZM105.011 147.854L102.226 149.453C102.104 149.522 102.116 149.637 102.226 149.712L105.451 151.565C105.52 151.599 105.596 151.617 105.673 151.617C105.75 151.617 105.826 151.599 105.896 151.565L108.687 149.965C108.803 149.896 108.797 149.781 108.687 149.707L105.462 147.854C105.392 147.819 105.315 147.8 105.237 147.8C105.158 147.8 105.081 147.819 105.011 147.854ZM125.847 150.702L128.627 149.108C128.748 149.039 128.743 148.924 128.627 148.849L125.402 146.996C125.333 146.961 125.257 146.942 125.179 146.942C125.102 146.942 125.026 146.961 124.957 146.996L122.165 148.596C122.05 148.665 122.056 148.78 122.165 148.855L125.39 150.708C125.462 150.743 125.54 150.76 125.619 150.759C125.699 150.758 125.777 150.739 125.847 150.702ZM161.641 115.301L158.849 116.883C158.733 116.947 158.739 117.062 158.849 117.137L162.074 118.99C162.143 119.024 162.219 119.041 162.297 119.041C162.374 119.041 162.45 119.024 162.519 118.99L165.305 117.384C165.426 117.315 165.42 117.2 165.305 117.131L162.08 115.278C162.01 115.247 161.934 115.233 161.857 115.237C161.781 115.241 161.707 115.263 161.641 115.301ZM156.705 118.138L153.919 119.761C153.798 119.83 153.803 119.945 153.919 120.02L157.138 121.873C157.207 121.908 157.283 121.926 157.361 121.926C157.438 121.926 157.514 121.908 157.583 121.873L160.375 120.273C160.49 120.204 160.485 120.089 160.375 120.02L157.15 118.161C157.082 118.123 157.007 118.102 156.93 118.098C156.853 118.094 156.776 118.107 156.705 118.138ZM165.715 112.959L162.924 114.582C162.808 114.651 162.814 114.766 162.924 114.841L166.149 116.694C166.218 116.728 166.294 116.745 166.371 116.745C166.448 116.745 166.525 116.728 166.594 116.694L169.38 115.088C169.501 115.019 169.495 114.904 169.38 114.835L166.154 112.976C166.087 112.94 166.013 112.92 165.937 112.917C165.861 112.914 165.785 112.929 165.715 112.959ZM144.619 134.619L147.411 132.996C147.527 132.927 147.521 132.812 147.411 132.743L144.186 130.89C144.117 130.854 144.041 130.836 143.963 130.836C143.886 130.836 143.81 130.854 143.741 130.89L140.949 132.489C140.834 132.558 140.84 132.674 140.949 132.748L144.174 134.601C144.242 134.638 144.318 134.659 144.395 134.662C144.472 134.665 144.549 134.65 144.619 134.619ZM170.241 110.623C170.171 110.589 170.095 110.571 170.018 110.571C169.941 110.571 169.865 110.589 169.796 110.623L167.01 112.222C166.888 112.291 166.894 112.407 167.01 112.481L170.235 114.334C170.304 114.37 170.38 114.388 170.457 114.388C170.535 114.388 170.611 114.37 170.68 114.334L173.472 112.735C173.587 112.666 173.581 112.55 173.472 112.476L170.241 110.623ZM129.922 148.36L132.707 146.76C132.829 146.691 132.823 146.576 132.707 146.501L129.482 144.648C129.413 144.614 129.337 144.597 129.26 144.597C129.183 144.597 129.107 144.614 129.037 144.648L126.234 146.231C126.119 146.3 126.124 146.415 126.234 146.484L129.459 148.343C129.529 148.382 129.608 148.404 129.688 148.407C129.769 148.41 129.849 148.394 129.922 148.36ZM179.899 119.634L182.69 118.029C182.806 117.96 182.8 117.844 182.69 117.775L179.465 115.922C179.396 115.887 179.32 115.869 179.243 115.869C179.165 115.869 179.089 115.887 179.02 115.922L176.228 117.528C176.113 117.591 176.119 117.706 176.228 117.781L179.453 119.634C179.522 119.669 179.599 119.688 179.676 119.688C179.753 119.688 179.83 119.669 179.899 119.634ZM171.229 119.329L174.015 117.724C174.136 117.655 174.13 117.539 174.015 117.47L170.79 115.618C170.721 115.582 170.645 115.564 170.567 115.564C170.49 115.564 170.414 115.582 170.345 115.618L167.553 117.223C167.438 117.286 167.443 117.401 167.553 117.476L170.778 119.329C170.846 119.363 170.922 119.381 170.998 119.381C171.074 119.381 171.149 119.363 171.217 119.329H171.229ZM174.864 113.27C174.795 113.236 174.719 113.218 174.642 113.218C174.565 113.218 174.489 113.236 174.419 113.27L171.634 114.875C171.512 114.939 171.518 115.054 171.634 115.128L174.859 116.981C174.928 117.015 175.004 117.033 175.081 117.033C175.158 117.033 175.234 117.015 175.304 116.981L178.095 115.376C178.211 115.307 178.205 115.192 178.095 115.123L174.864 113.27ZM175.72 112.781L183.534 117.281C183.603 117.315 183.679 117.332 183.756 117.332C183.834 117.332 183.91 117.315 183.979 117.281L186.771 115.675C186.886 115.606 186.88 115.491 186.771 115.422L178.91 110.928C178.841 110.894 178.765 110.876 178.688 110.876C178.611 110.876 178.534 110.894 178.465 110.928L175.679 112.527C175.564 112.591 175.57 112.706 175.697 112.781H175.72ZM166.27 117.96L163.478 119.565C163.363 119.628 163.369 119.743 163.478 119.818L166.704 121.671C166.772 121.706 166.849 121.725 166.926 121.725C167.003 121.725 167.08 121.706 167.149 121.671L169.934 120.066C170.056 119.997 170.05 119.882 169.934 119.812L166.709 117.96C166.639 117.919 166.56 117.897 166.48 117.895C166.399 117.893 166.319 117.912 166.247 117.948L166.27 117.96ZM135.563 135.579L132.771 137.185C132.655 137.254 132.661 137.363 132.771 137.438L135.996 139.291C136.065 139.326 136.141 139.345 136.219 139.345C136.296 139.345 136.372 139.326 136.441 139.291L139.227 137.686C139.348 137.617 139.343 137.507 139.227 137.432L136.002 135.579C135.934 135.545 135.859 135.527 135.782 135.527C135.706 135.527 135.631 135.545 135.563 135.579ZM175.367 121.965C175.436 122 175.512 122.018 175.59 122.018C175.667 122.018 175.744 122 175.812 121.965L178.598 120.359C178.719 120.29 178.714 120.181 178.598 120.106L175.373 118.253C175.304 118.218 175.228 118.199 175.151 118.199C175.073 118.199 174.997 118.218 174.928 118.253L172.136 119.859C172.021 119.928 172.027 120.037 172.136 120.112L175.367 121.965ZM139.637 133.237L136.846 134.843C136.73 134.906 136.736 135.021 136.846 135.096L140.071 136.949C140.14 136.984 140.216 137.003 140.293 137.003C140.371 137.003 140.447 136.984 140.516 136.949L143.302 135.344C143.423 135.274 143.417 135.159 143.302 135.09L140.077 133.237C140.01 133.205 139.937 133.188 139.863 133.188C139.789 133.188 139.715 133.205 139.649 133.237H139.637ZM109.098 160.041C109.167 160.075 109.243 160.093 109.32 160.093C109.397 160.093 109.473 160.075 109.543 160.041L112.334 158.436C112.45 158.367 112.444 158.252 112.334 158.183L109.109 156.33C109.04 156.294 108.964 156.276 108.887 156.276C108.809 156.276 108.733 156.294 108.664 156.33L105.878 157.935C105.757 157.999 105.763 158.114 105.878 158.188L109.098 160.041ZM102.971 154.287L100.18 155.892C100.064 155.956 100.07 156.071 100.18 156.146L103.405 157.999C103.474 158.033 103.55 158.05 103.627 158.05C103.704 158.05 103.78 158.033 103.85 157.999L106.635 156.393C106.757 156.324 106.751 156.209 106.635 156.14L103.41 154.287C103.34 154.258 103.263 154.246 103.187 154.252C103.11 154.258 103.036 154.282 102.971 154.322V154.287ZM113.6 157.74L116.391 156.134C116.507 156.065 116.501 155.95 116.391 155.881L113.166 154.028C113.098 153.993 113.021 153.974 112.944 153.974C112.866 153.974 112.79 153.993 112.721 154.028L109.936 155.628C109.814 155.697 109.826 155.812 109.936 155.887L113.161 157.74C113.229 157.774 113.304 157.791 113.38 157.791C113.457 157.791 113.532 157.774 113.6 157.74ZM117.68 155.398L120.466 153.792C120.588 153.723 120.576 153.608 120.466 153.533L117.241 151.68C117.172 151.646 117.096 151.629 117.019 151.629C116.941 151.629 116.865 151.646 116.796 151.68L114.01 153.28C113.895 153.349 113.9 153.464 114.01 153.539L117.235 155.392C117.307 155.429 117.386 155.448 117.467 155.448C117.547 155.448 117.626 155.429 117.698 155.392L117.68 155.398ZM121.726 153.05L124.512 151.45C124.633 151.381 124.622 151.266 124.512 151.191L121.293 149.338C121.223 149.304 121.147 149.287 121.07 149.287C120.993 149.287 120.917 149.304 120.848 149.338L118.056 150.938C117.94 151.007 117.946 151.122 118.056 151.197L121.281 153.05C121.357 153.091 121.441 153.112 121.527 153.111C121.613 153.11 121.698 153.087 121.772 153.044L121.726 153.05ZM107.046 151.985L104.254 153.585C104.139 153.654 104.144 153.769 104.254 153.844L107.479 155.697C107.548 155.731 107.625 155.749 107.702 155.749C107.779 155.749 107.855 155.731 107.924 155.697L110.71 154.091C110.831 154.022 110.826 153.907 110.71 153.838L107.491 151.985C107.422 151.951 107.345 151.934 107.268 151.934C107.191 151.934 107.115 151.951 107.046 151.985ZM111.12 149.643L108.329 151.243C108.213 151.312 108.219 151.427 108.329 151.502L111.554 153.355C111.623 153.39 111.699 153.409 111.776 153.409C111.854 153.409 111.93 153.39 111.999 153.355L114.791 151.755C114.906 151.686 114.9 151.571 114.791 151.496L111.565 149.643C111.497 149.608 111.421 149.59 111.344 149.589C111.266 149.588 111.19 149.604 111.12 149.637V149.643ZM127.425 140.269L124.633 141.875C124.512 141.944 124.523 142.059 124.633 142.128L127.858 143.981C127.927 144.016 128.003 144.035 128.081 144.035C128.158 144.035 128.235 144.016 128.303 143.981L131.089 142.375C131.211 142.312 131.199 142.197 131.089 142.122L127.864 140.269C127.796 140.234 127.721 140.216 127.645 140.215C127.569 140.214 127.494 140.231 127.425 140.264V140.269ZM123.344 142.617L120.536 144.211C120.414 144.28 120.426 144.395 120.536 144.464L123.755 146.323C123.824 146.357 123.9 146.375 123.977 146.375C124.054 146.375 124.131 146.357 124.2 146.323L126.991 144.723C127.107 144.654 127.101 144.539 126.991 144.464L123.766 142.611C123.701 142.58 123.628 142.563 123.555 142.563C123.482 142.563 123.41 142.58 123.344 142.611V142.617ZM131.517 137.922L128.725 139.527C128.61 139.596 128.615 139.711 128.725 139.78L131.95 141.633C132.019 141.668 132.095 141.687 132.173 141.687C132.25 141.687 132.327 141.668 132.395 141.633L135.181 140.028C135.303 139.964 135.291 139.849 135.181 139.774L131.962 137.922C131.893 137.886 131.817 137.868 131.739 137.868C131.662 137.868 131.586 137.886 131.517 137.922ZM115.212 147.295L112.427 148.895C112.305 148.964 112.311 149.079 112.427 149.154L115.652 151.007C115.721 151.041 115.797 151.059 115.874 151.059C115.951 151.059 116.028 151.041 116.097 151.007L118.888 149.407C119.004 149.338 118.998 149.223 118.888 149.148L115.663 147.295C115.591 147.258 115.511 147.238 115.429 147.238C115.348 147.238 115.267 147.258 115.195 147.295H115.212ZM119.287 144.953L116.49 146.553C116.368 146.622 116.374 146.737 116.49 146.812L119.715 148.665C119.784 148.699 119.86 148.717 119.937 148.717C120.014 148.717 120.091 148.699 120.16 148.665L122.951 147.065C123.067 146.996 123.061 146.881 122.951 146.806L119.726 144.953C119.656 144.916 119.578 144.897 119.498 144.897C119.418 144.897 119.34 144.916 119.27 144.953H119.287ZM116.311 161.491L119.102 159.886C119.218 159.817 119.212 159.702 119.102 159.633L115.877 157.774C115.808 157.74 115.732 157.722 115.655 157.722C115.577 157.722 115.501 157.74 115.432 157.774L112.646 159.374C112.525 159.443 112.536 159.558 112.646 159.633L115.866 161.486C115.932 161.518 116.005 161.535 116.079 161.536C116.153 161.537 116.226 161.522 116.293 161.491H116.311ZM92.4001 159.086L89.175 157.233C89.1062 157.198 89.0299 157.179 88.9525 157.179C88.8751 157.179 88.7988 157.198 88.73 157.233L85.9384 158.839C85.8228 158.902 85.8286 159.017 85.9384 159.092L89.1634 160.945C89.2323 160.98 89.3085 160.999 89.386 160.999C89.4634 160.999 89.5397 160.98 89.6085 160.945L92.3943 159.339C92.5157 159.27 92.5041 159.155 92.3827 159.086H92.4001ZM98.5034 160.87L95.2783 159.017C95.2095 158.982 95.1332 158.963 95.0558 158.963C94.9784 158.963 94.9021 158.982 94.8333 159.017L90.5448 161.486C90.4292 161.555 90.435 161.664 90.5448 161.739L93.7698 163.592C93.8387 163.627 93.9149 163.646 93.9924 163.646C94.0698 163.646 94.1461 163.627 94.2149 163.592L98.5034 161.123C98.6248 161.054 98.6132 160.945 98.4861 160.87H98.5034ZM87.4527 155.501L84.2276 153.648C84.1588 153.613 84.0825 153.594 84.0051 153.594C83.9277 153.594 83.8514 153.613 83.7826 153.648L80.3494 155.622C80.2281 155.691 80.2396 155.806 80.3494 155.881L83.5745 157.734C83.6437 157.768 83.7198 157.786 83.797 157.786C83.8742 157.786 83.9503 157.768 84.0195 157.734L87.4469 155.76C87.5914 155.691 87.5914 155.576 87.4353 155.501H87.4527ZM90.0824 153.988C90.1512 154.023 90.2275 154.042 90.3049 154.042C90.3824 154.042 90.4586 154.023 90.5274 153.988L93.3132 152.382C93.4346 152.313 93.4288 152.204 93.3132 152.129L90.0882 150.276C90.0194 150.241 89.9431 150.222 89.8657 150.222C89.7883 150.222 89.712 150.241 89.6432 150.276L86.8516 151.882C86.736 151.951 86.7418 152.06 86.8516 152.135L90.0824 153.988ZM104.167 162.919L100.942 161.066C100.874 161.03 100.797 161.012 100.72 161.012C100.642 161.012 100.566 161.03 100.497 161.066L95.1338 164.15C95.0183 164.219 95.024 164.334 95.1338 164.403L98.3589 166.256C98.4277 166.291 98.504 166.31 98.5814 166.31C98.6588 166.31 98.7351 166.291 98.8039 166.256L104.167 163.172C104.3 163.085 104.295 162.976 104.167 162.919ZM106.843 166.676L103.618 164.823C103.55 164.788 103.473 164.77 103.396 164.77C103.318 164.77 103.242 164.788 103.173 164.823L99.7287 166.768C99.6131 166.837 99.6189 166.952 99.7287 167.021L102.954 168.88C103.023 168.914 103.099 168.932 103.176 168.932C103.253 168.932 103.33 168.914 103.399 168.88L106.832 166.906C106.976 166.843 106.971 166.734 106.843 166.659V166.676ZM120.368 136.586C120.436 136.622 120.511 136.64 120.588 136.64C120.664 136.64 120.739 136.622 120.807 136.586L123.599 134.981C123.714 134.918 123.709 134.803 123.599 134.728L120.374 132.875C120.305 132.84 120.229 132.821 120.151 132.821C120.074 132.821 119.997 132.84 119.929 132.875L117.143 134.48C117.021 134.549 117.033 134.665 117.143 134.734L120.368 136.586ZM112.213 141.276C112.282 141.31 112.358 141.328 112.435 141.328C112.512 141.328 112.589 141.31 112.658 141.276L115.449 139.671C115.565 139.608 115.559 139.492 115.449 139.418L112.224 137.565C112.155 137.531 112.079 137.513 112.002 137.513C111.925 137.513 111.849 137.531 111.779 137.565L108.976 139.147C108.855 139.216 108.861 139.331 108.976 139.4L112.213 141.276ZM94.1397 151.663C94.209 151.697 94.2851 151.715 94.3623 151.715C94.4394 151.715 94.5156 151.697 94.5848 151.663L97.3706 150.058C97.492 149.988 97.4862 149.873 97.3706 149.804L94.134 147.957C94.0652 147.922 93.9889 147.903 93.9114 147.903C93.834 147.903 93.7577 147.922 93.6889 147.957L90.8973 149.563C90.7818 149.626 90.7875 149.741 90.8973 149.816L94.1397 151.663ZM116.287 138.929C116.356 138.964 116.433 138.982 116.51 138.982C116.587 138.982 116.664 138.964 116.732 138.929L119.524 137.323C119.64 137.26 119.634 137.145 119.524 137.07L116.299 135.217C116.23 135.182 116.154 135.163 116.076 135.163C115.999 135.163 115.923 135.182 115.854 135.217L113.068 136.822C112.947 136.891 112.958 137.007 113.068 137.076L116.287 138.929ZM108.138 143.618C108.207 143.652 108.283 143.67 108.361 143.67C108.438 143.67 108.514 143.652 108.583 143.618L111.375 142.019C111.49 141.95 111.485 141.835 111.375 141.76L108.132 139.901C108.064 139.866 107.987 139.847 107.91 139.847C107.832 139.847 107.756 139.866 107.687 139.901L104.93 141.489C104.809 141.558 104.815 141.673 104.93 141.748L108.138 143.618ZM109.08 166.947C109.011 166.911 108.935 166.893 108.858 166.893C108.78 166.893 108.704 166.911 108.635 166.947L104.352 169.415C104.237 169.484 104.243 169.599 104.352 169.674L107.589 171.55C107.658 171.584 107.734 171.602 107.812 171.602C107.889 171.602 107.965 171.584 108.034 171.55L112.323 169.087C112.438 169.018 112.432 168.903 112.323 168.828L109.08 166.947ZM102.289 146.95C102.358 146.985 102.434 147.004 102.512 147.004C102.589 147.004 102.665 146.985 102.734 146.95L105.508 145.368C105.624 145.299 105.618 145.184 105.508 145.109L102.283 143.256C102.214 143.222 102.138 143.204 102.061 143.204C101.984 143.204 101.907 143.222 101.838 143.256L99.0525 144.856C98.9311 144.925 98.9369 145.04 99.0525 145.114L102.289 146.95ZM98.2144 149.292C98.2836 149.326 98.3598 149.344 98.4369 149.344C98.5141 149.344 98.5902 149.326 98.6594 149.292L101.451 147.687C101.567 147.618 101.561 147.503 101.451 147.434L98.226 145.581C98.1572 145.545 98.0809 145.527 98.0035 145.527C97.926 145.527 97.8497 145.545 97.7809 145.581L94.9894 147.18C94.8738 147.249 94.8795 147.364 94.9894 147.439L98.2144 149.292ZM184.586 123.559C184.517 123.525 184.441 123.507 184.363 123.507C184.286 123.507 184.21 123.525 184.141 123.559L177.275 127.506C177.159 127.575 177.165 127.69 177.275 127.759L180.5 129.618C180.569 129.652 180.645 129.67 180.722 129.67C180.799 129.67 180.875 129.652 180.945 129.618L187.805 125.67C187.927 125.607 187.921 125.492 187.805 125.417L184.586 123.559ZM175.575 128.738C175.507 128.702 175.43 128.684 175.353 128.684C175.275 128.684 175.199 128.702 175.13 128.738L172.345 130.343C172.223 130.412 172.229 130.527 172.345 130.596L175.57 132.449C175.638 132.484 175.715 132.503 175.792 132.503C175.869 132.503 175.946 132.484 176.015 132.449L178.806 130.844C178.922 130.78 178.916 130.665 178.806 130.59L175.575 128.738ZM120.374 159.144L123.159 157.544C123.275 157.475 123.269 157.36 123.159 157.285L119.917 155.438C119.848 155.404 119.772 155.386 119.695 155.386C119.617 155.386 119.541 155.404 119.472 155.438L116.686 157.038C116.565 157.107 116.576 157.222 116.686 157.297L119.911 159.149C119.983 159.187 120.062 159.206 120.143 159.205C120.224 159.204 120.303 159.183 120.374 159.144ZM167.426 133.422C167.357 133.386 167.281 133.368 167.203 133.368C167.126 133.368 167.05 133.386 166.981 133.422L164.189 135.021C164.074 135.09 164.08 135.205 164.189 135.28L167.414 137.133C167.484 137.167 167.56 137.185 167.637 137.185C167.714 137.185 167.79 137.167 167.859 137.133L170.645 135.533C170.767 135.464 170.761 135.349 170.645 135.274L167.426 133.422ZM188.661 121.217C188.592 121.181 188.515 121.163 188.438 121.163C188.361 121.163 188.284 121.181 188.215 121.217L185.424 122.822C185.308 122.891 185.314 123.006 185.424 123.075L188.649 124.928C188.718 124.963 188.794 124.982 188.871 124.982C188.949 124.982 189.025 124.963 189.094 124.928L191.88 123.323C192.001 123.259 191.995 123.144 191.88 123.069L188.661 121.217ZM195.96 120.727L188.158 116.227C188.089 116.192 188.013 116.174 187.935 116.174C187.858 116.174 187.781 116.192 187.713 116.227L184.927 117.833C184.805 117.896 184.811 118.011 184.927 118.086L192.758 122.586C192.827 122.621 192.903 122.64 192.981 122.64C193.058 122.64 193.135 122.621 193.203 122.586L195.995 120.981C196.093 120.912 196.087 120.802 195.96 120.727ZM152.197 142.203C152.127 142.169 152.051 142.151 151.974 142.151C151.897 142.151 151.821 142.169 151.752 142.203L148.318 144.177C148.203 144.24 148.209 144.355 148.318 144.43L151.543 146.283C151.612 146.318 151.689 146.336 151.766 146.336C151.843 146.336 151.92 146.318 151.988 146.283L155.416 144.309C155.537 144.24 155.531 144.125 155.416 144.05L152.197 142.203ZM162.49 136.287C162.421 136.253 162.345 136.236 162.268 136.236C162.19 136.236 162.114 136.253 162.045 136.287L157.757 138.756C157.641 138.825 157.647 138.94 157.757 139.009L160.993 140.822C161.062 140.857 161.138 140.875 161.216 140.875C161.293 140.875 161.369 140.857 161.438 140.822L165.727 138.353C165.842 138.29 165.837 138.175 165.727 138.1L162.49 136.287ZM142.758 147.629C142.69 147.594 142.613 147.575 142.536 147.575C142.458 147.575 142.382 147.594 142.313 147.629L119.38 160.784C119.258 160.853 119.27 160.968 119.38 161.043L122.605 162.896C122.674 162.93 122.75 162.947 122.827 162.947C122.904 162.947 122.98 162.93 123.05 162.896L145.995 149.707C146.116 149.637 146.111 149.522 145.995 149.448L142.758 147.629ZM118.518 161.561C118.449 161.527 118.373 161.509 118.296 161.509C118.219 161.509 118.143 161.527 118.073 161.561L114.64 163.494C114.525 163.563 114.53 163.672 114.64 163.747L117.865 165.6C117.934 165.635 118.01 165.654 118.088 165.654C118.165 165.654 118.242 165.635 118.31 165.6L121.743 163.626C121.859 163.557 121.853 163.442 121.743 163.373L118.518 161.561ZM147.475 144.919C147.406 144.884 147.329 144.865 147.252 144.865C147.175 144.865 147.098 144.884 147.03 144.919L143.602 146.893C143.481 146.962 143.487 147.077 143.602 147.152L146.827 149.004C146.896 149.038 146.973 149.056 147.05 149.056C147.127 149.056 147.203 149.038 147.272 149.004L150.705 147.031C150.821 146.962 150.815 146.852 150.705 146.778L147.475 144.919ZM113.802 164.277C113.733 164.241 113.657 164.223 113.58 164.223C113.502 164.223 113.426 164.241 113.357 164.277L109.924 166.25C109.803 166.319 109.814 166.434 109.924 166.509L113.149 168.362C113.218 168.396 113.294 168.414 113.372 168.414C113.449 168.414 113.525 168.396 113.594 168.362L117.068 166.371C117.189 166.302 117.183 166.193 117.068 166.118L113.802 164.277ZM156.913 139.492C156.844 139.458 156.767 139.441 156.69 139.441C156.613 139.441 156.537 139.458 156.468 139.492L153.035 141.466C152.919 141.535 152.925 141.65 153.035 141.725L156.26 143.578C156.328 143.613 156.405 143.632 156.482 143.632C156.56 143.632 156.636 143.613 156.705 143.578L160.138 141.61C160.253 141.541 160.248 141.426 160.138 141.351L156.913 139.492ZM171.501 131.108C171.431 131.074 171.355 131.057 171.278 131.057C171.201 131.057 171.125 131.074 171.056 131.108L168.264 132.714C168.148 132.783 168.154 132.898 168.264 132.967L171.489 134.826C171.558 134.86 171.634 134.877 171.712 134.877C171.789 134.877 171.865 134.86 171.934 134.826L174.726 133.226C174.841 133.157 174.836 133.042 174.726 132.967L171.501 131.108ZM180.43 124.652L183.216 123.046C183.337 122.977 183.332 122.868 183.216 122.793L179.979 120.912C179.911 120.876 179.834 120.858 179.757 120.858C179.68 120.858 179.603 120.876 179.534 120.912L176.743 122.517C176.627 122.586 176.633 122.701 176.743 122.77L179.968 124.623C180.039 124.661 180.118 124.681 180.199 124.681C180.28 124.681 180.359 124.661 180.43 124.623V124.652ZM162.207 124.537L164.999 122.931C165.114 122.862 165.108 122.747 164.999 122.678L161.773 120.825C161.705 120.79 161.628 120.771 161.551 120.771C161.474 120.771 161.397 120.79 161.328 120.825L158.543 122.431C158.421 122.494 158.427 122.609 158.543 122.684L161.768 124.537C161.838 124.565 161.915 124.578 161.991 124.573C162.067 124.568 162.141 124.546 162.207 124.508V124.537ZM152.959 140.436L161.109 135.746C161.224 135.683 161.219 135.568 161.109 135.493L157.884 133.64C157.815 133.605 157.739 133.586 157.661 133.586C157.584 133.586 157.508 133.605 157.439 133.64L149.289 138.324C149.168 138.393 149.18 138.508 149.289 138.583L152.514 140.436C152.588 140.469 152.669 140.483 152.749 140.478C152.83 140.473 152.908 140.449 152.977 140.407L152.959 140.436ZM175.893 126.982C175.962 127.018 176.038 127.036 176.116 127.036C176.193 127.036 176.269 127.018 176.338 126.982L179.124 125.383C179.245 125.314 179.234 125.199 179.124 125.124L175.899 123.271C175.83 123.237 175.754 123.219 175.676 123.219C175.599 123.219 175.523 123.237 175.454 123.271L172.662 124.876C172.547 124.945 172.553 125.06 172.662 125.13L175.893 126.982ZM171.732 124.347L174.518 122.741C174.639 122.678 174.633 122.563 174.518 122.488L171.293 120.635C171.224 120.6 171.147 120.582 171.07 120.582C170.993 120.582 170.916 120.6 170.848 120.635L168.056 122.241C167.94 122.31 167.946 122.425 168.056 122.494L171.281 124.347C171.355 124.382 171.437 124.398 171.519 124.393C171.601 124.388 171.68 124.362 171.749 124.318L171.732 124.347ZM148.879 142.761L151.671 141.155C151.786 141.086 151.78 140.971 151.671 140.902L148.446 139.049C148.377 139.014 148.3 138.996 148.223 138.996C148.146 138.996 148.069 139.014 148.001 139.049L145.215 140.655C145.093 140.718 145.105 140.833 145.215 140.908L148.434 142.761C148.504 142.8 148.583 142.823 148.663 142.826C148.744 142.829 148.824 142.812 148.896 142.778L148.879 142.761ZM166.883 132.144C166.952 132.179 167.028 132.198 167.105 132.198C167.183 132.198 167.259 132.179 167.328 132.144L170.119 130.539C170.235 130.475 170.229 130.36 170.119 130.285L166.894 128.433C166.825 128.397 166.749 128.379 166.672 128.379C166.594 128.379 166.518 128.397 166.449 128.433L163.663 130.038C163.542 130.107 163.548 130.222 163.663 130.291L166.883 132.144ZM128.506 154.471L131.291 152.871C131.413 152.802 131.401 152.687 131.291 152.612L128.049 150.748C127.98 150.714 127.904 150.696 127.827 150.696C127.749 150.696 127.673 150.714 127.604 150.748L124.812 152.354C124.697 152.423 124.703 152.538 124.812 152.612L128.038 154.465C128.112 154.505 128.196 154.526 128.281 154.525C128.366 154.524 128.449 154.501 128.523 154.46L128.506 154.471ZM132.58 152.129L135.366 150.529C135.488 150.46 135.482 150.345 135.366 150.27L132.141 148.418C132.072 148.384 131.996 148.366 131.919 148.366C131.841 148.366 131.765 148.384 131.696 148.418L128.904 150.023C128.789 150.092 128.795 150.207 128.904 150.276L132.13 152.129C132.202 152.167 132.283 152.185 132.365 152.183C132.447 152.181 132.527 152.159 132.598 152.118L132.58 152.129ZM124.431 156.813L127.217 155.213C127.338 155.144 127.327 155.029 127.217 154.955L124.003 153.09C123.935 153.055 123.858 153.036 123.781 153.036C123.703 153.036 123.627 153.055 123.558 153.09L120.767 154.69C120.651 154.759 120.657 154.874 120.767 154.949L123.992 156.802C124.062 156.838 124.141 156.856 124.22 156.856C124.299 156.856 124.378 156.838 124.448 156.802L124.431 156.813ZM140.764 147.434L143.556 145.828C143.672 145.759 143.666 145.65 143.556 145.575L140.331 143.722C140.262 143.687 140.186 143.668 140.108 143.668C140.031 143.668 139.955 143.687 139.886 143.722L137.1 145.327C136.979 145.396 136.984 145.506 137.1 145.581L140.325 147.434C140.393 147.468 140.468 147.486 140.545 147.486C140.621 147.486 140.696 147.468 140.764 147.434ZM136.69 149.776L139.481 148.17C139.597 148.107 139.591 147.992 139.481 147.917L136.256 146.064C136.187 146.029 136.111 146.01 136.034 146.01C135.956 146.01 135.88 146.029 135.811 146.064L133.02 147.669C132.904 147.738 132.91 147.854 133.02 147.923L136.245 149.776C136.311 149.808 136.384 149.825 136.458 149.825C136.533 149.825 136.606 149.808 136.672 149.776H136.69ZM144.81 145.08L147.602 143.474C147.717 143.405 147.712 143.296 147.602 143.221L144.377 141.368C144.308 141.333 144.232 141.315 144.154 141.315C144.077 141.315 144 141.333 143.932 141.368L141.146 142.974C141.024 143.043 141.036 143.152 141.146 143.227L144.371 145.08C144.439 145.114 144.514 145.132 144.591 145.132C144.667 145.132 144.742 145.114 144.81 145.08ZM163.455 110.421C163.524 110.457 163.6 110.475 163.678 110.475C163.755 110.475 163.832 110.457 163.9 110.421L166.692 108.816C166.808 108.747 166.802 108.637 166.692 108.563L165.831 108.068C165.762 108.032 165.686 108.014 165.608 108.014C165.531 108.014 165.455 108.032 165.386 108.068L162.6 109.667C162.484 109.737 162.49 109.852 162.6 109.926L163.455 110.421ZM143.406 123.311C143.475 123.345 143.551 123.363 143.628 123.363C143.705 123.363 143.782 123.345 143.851 123.311L146.637 121.711C146.758 121.642 146.752 121.527 146.637 121.452L143.411 119.6C143.343 119.564 143.266 119.546 143.189 119.546C143.112 119.546 143.035 119.564 142.966 119.6L140.186 121.211C140.071 121.28 140.077 121.395 140.186 121.47L143.406 123.311ZM151.555 118.621C151.624 118.657 151.7 118.675 151.778 118.675C151.855 118.675 151.931 118.657 152 118.621L154.792 117.022C154.907 116.953 154.901 116.837 154.792 116.763L151.567 114.91C151.497 114.876 151.421 114.858 151.344 114.858C151.267 114.858 151.191 114.876 151.122 114.91L148.33 116.515C148.214 116.584 148.22 116.699 148.33 116.768L151.555 118.621ZM138.452 126.183C138.521 126.218 138.598 126.236 138.675 126.236C138.752 126.236 138.829 126.218 138.898 126.183L141.683 124.583C141.805 124.514 141.799 124.399 141.683 124.324L138.452 122.477C138.383 122.443 138.307 122.425 138.23 122.425C138.153 122.425 138.077 122.443 138.007 122.477L135.216 124.076C135.1 124.146 135.106 124.261 135.216 124.335L138.452 126.183ZM147.503 121.004C147.573 121.038 147.649 121.055 147.726 121.055C147.803 121.055 147.879 121.038 147.948 121.004L150.734 119.404C150.856 119.335 150.85 119.22 150.734 119.145L147.509 117.292C147.44 117.257 147.364 117.238 147.287 117.238C147.209 117.238 147.133 117.257 147.064 117.292L144.232 118.869C144.117 118.938 144.122 119.053 144.232 119.122L147.503 121.004ZM130.292 130.867C130.361 130.901 130.437 130.918 130.514 130.918C130.591 130.918 130.667 130.901 130.737 130.867L133.522 129.261C133.638 129.192 133.632 129.077 133.522 129.008L130.297 127.155C130.229 127.12 130.152 127.101 130.075 127.101C129.997 127.101 129.921 127.12 129.852 127.155L127.067 128.755C126.945 128.824 126.957 128.939 127.067 129.014L130.292 130.867ZM134.366 128.525C134.435 128.56 134.511 128.578 134.589 128.578C134.666 128.578 134.743 128.56 134.811 128.525L137.597 126.925C137.718 126.856 137.707 126.741 137.597 126.666L134.378 124.813C134.309 124.779 134.232 124.761 134.155 124.761C134.078 124.761 134.002 124.779 133.933 124.813L131.141 126.413C131.026 126.482 131.031 126.597 131.141 126.672L134.366 128.525ZM155.318 115.117C155.386 115.152 155.463 115.171 155.54 115.171C155.618 115.171 155.694 115.152 155.763 115.117L158.548 113.517C158.67 113.448 158.664 113.333 158.548 113.258L157.687 112.763C157.618 112.729 157.542 112.712 157.465 112.712C157.388 112.712 157.311 112.729 157.242 112.763L154.456 114.363C154.335 114.432 154.341 114.547 154.456 114.622L155.318 115.117ZM167.542 108.091C167.61 108.126 167.687 108.145 167.764 108.145C167.842 108.145 167.918 108.126 167.987 108.091L170.778 106.485C170.894 106.416 170.888 106.301 170.778 106.232L169.923 105.737C169.854 105.703 169.777 105.686 169.7 105.686C169.623 105.686 169.547 105.703 169.478 105.737L166.686 107.343C166.571 107.412 166.576 107.527 166.686 107.596L167.542 108.091ZM174.315 111.986C174.385 112.02 174.461 112.038 174.538 112.038C174.615 112.038 174.691 112.02 174.76 111.986L177.552 110.387C177.668 110.318 177.662 110.203 177.552 110.128L174.286 108.281C174.217 108.247 174.141 108.229 174.064 108.229C173.987 108.229 173.911 108.247 173.841 108.281L171.056 109.88C170.934 109.949 170.94 110.065 171.056 110.139L174.315 111.986ZM184.505 122.281L187.291 120.676C187.412 120.607 187.406 120.497 187.291 120.422L184.066 118.57C183.997 118.534 183.921 118.516 183.843 118.516C183.766 118.516 183.689 118.534 183.621 118.57L180.829 120.175C180.713 120.244 180.719 120.353 180.829 120.428L184.054 122.281C184.124 122.317 184.201 122.336 184.28 122.336C184.358 122.336 184.435 122.317 184.505 122.281ZM159.392 112.775C159.461 112.81 159.537 112.829 159.615 112.829C159.692 112.829 159.768 112.81 159.837 112.775L162.629 111.169C162.744 111.106 162.739 110.991 162.629 110.916L161.768 110.421C161.698 110.387 161.622 110.37 161.545 110.37C161.468 110.37 161.392 110.387 161.323 110.421L158.537 112.021C158.415 112.09 158.427 112.205 158.537 112.28L159.392 112.775ZM126.211 133.209C126.28 133.243 126.356 133.26 126.434 133.26C126.511 133.26 126.587 133.243 126.656 133.209L129.448 131.603C129.563 131.534 129.558 131.419 129.448 131.35L126.223 129.497C126.154 129.462 126.078 129.443 126 129.443C125.923 129.443 125.846 129.462 125.778 129.497L122.992 131.103C122.87 131.166 122.882 131.281 122.992 131.356L126.211 133.209Z" fill="#E0E0E0"/>
<path d="M142.781 158.43L173.304 140.885L192.088 151.68L161.565 169.225L142.781 158.43Z" fill="#263238"/>
<path d="M81.4762 54.3844L172.419 2.10582C174.199 1.08154 175.656 1.92167 175.656 3.96448V74.0989C175.625 74.6173 175.474 75.1214 175.213 75.571C174.952 76.0206 174.589 76.4032 174.153 76.6884L80.8982 130.291C80.0717 130.762 79.3955 130.377 79.3955 129.427V57.9694C79.437 57.2516 79.6469 56.5534 80.0082 55.9309C80.3695 55.3083 80.8723 54.7787 81.4762 54.3844Z" fill="#F5F5F5"/>
<path d="M175.656 5.64517V3.96489C175.656 1.92208 174.199 1.0877 172.419 2.10622L81.4762 54.3848C80.8723 54.7791 80.3695 55.3087 80.0082 55.9313C79.6469 56.5538 79.437 57.252 79.3955 57.9698V60.9794L175.656 5.64517Z" fill="#263238"/>
<path d="M162.09 9.47183C161.77 9.68514 161.504 9.96992 161.313 10.3036C161.122 10.6372 161.013 11.0105 160.992 11.3938C160.992 12.1016 161.495 12.3893 162.108 12.0325C162.433 11.8241 162.704 11.5416 162.898 11.2084C163.092 10.8752 163.203 10.5009 163.223 10.1163C163.206 9.40854 162.726 9.12081 162.09 9.47183Z" fill="#E0E0E0"/>
<path d="M166.512 6.93411C166.187 7.14383 165.916 7.42738 165.722 7.76148C165.528 8.09559 165.417 8.47072 165.396 8.85608C165.396 9.56387 165.894 9.84583 166.512 9.49481C166.839 9.28182 167.111 8.99439 167.305 8.65622C167.499 8.31806 167.61 7.93884 167.627 7.54983C167.627 6.86506 167.125 6.57734 166.512 6.93411Z" fill="#E0E0E0"/>
<path d="M170.934 4.39078C170.609 4.60118 170.339 4.88489 170.145 5.21885C169.951 5.55281 169.839 5.9276 169.818 6.31274C169.818 7.02053 170.315 7.30825 170.934 6.95148C171.257 6.74169 171.526 6.45877 171.719 6.12577C171.912 5.79277 172.023 5.41912 172.044 5.03527C172.044 4.32748 171.546 4.03976 170.934 4.39078Z" fill="#E0E0E0"/>
<path d="M79.3955 60.9787V74.4727L175.65 19.1443V5.64453L79.3955 60.9787Z" fill="#9255FA"/>
<path opacity="0.1" d="M79.3955 60.9787V74.4727L175.65 19.1443V5.64453L79.3955 60.9787Z" fill="black"/>
<path d="M85.7012 67.4409C85.3775 67.541 85.0337 67.5588 84.7013 67.4927V60.8809C84.6987 60.7553 84.7265 60.631 84.7823 60.5183C84.8511 60.4099 84.9466 60.3208 85.0597 60.2594L85.5567 59.9774C85.6839 59.9026 85.7764 59.8796 85.8342 59.9141C85.892 59.9487 85.9209 60.035 85.9209 60.1788V62.354C86.1053 62.0691 86.3268 61.8098 86.5797 61.5829C86.8482 61.3403 87.1429 61.128 87.4582 60.9499C88.1865 60.5299 88.7471 60.432 89.1459 60.668C89.5447 60.9039 89.7239 61.439 89.7239 62.2677C89.7337 63.1976 89.4943 64.1133 89.0303 64.9204C88.5362 65.7523 87.8278 66.4377 86.9785 66.9057C86.5796 67.142 86.1498 67.3221 85.7012 67.4409ZM88.1171 64.7421C88.389 64.2079 88.5221 63.6144 88.5044 63.0157C88.5044 62.4403 88.4003 62.095 88.198 61.9512C87.9958 61.8073 87.6548 61.8649 87.175 62.1411C86.8328 62.3414 86.5358 62.6098 86.3023 62.9294C86.0624 63.227 85.9283 63.5953 85.9209 63.9767V66.244C86.0736 66.2603 86.228 66.2406 86.3717 66.1864C86.5723 66.1213 86.7659 66.0365 86.9496 65.9332C87.4445 65.6546 87.8495 65.2414 88.1171 64.7421Z" fill="#FAFAFA"/>
<path d="M90.7696 64.4658C90.7118 64.4255 90.6829 64.3449 90.6829 64.2068V57.4396C90.6793 57.3133 90.7092 57.1883 90.7696 57.0771C90.8353 56.9662 90.9316 56.8763 91.047 56.8182L91.5614 56.5247C91.6886 56.4499 91.781 56.4326 91.8388 56.4614C91.8966 56.4902 91.9255 56.5822 91.9255 56.7261V63.4933C91.9311 63.6154 91.9031 63.7368 91.8446 63.8443C91.777 63.9572 91.6788 64.0489 91.5614 64.109L91.047 64.4025C90.9141 64.4773 90.8216 64.5175 90.7696 64.4658Z" fill="#FAFAFA"/>
<path d="M93.5609 62.3596C93.1043 62.1122 92.8789 61.554 92.8789 60.6736C92.8765 59.8025 93.1122 58.9471 93.5609 58.1992C94.0328 57.4125 94.7046 56.7634 95.5087 56.3175C96.3467 55.8342 96.9998 55.7421 97.4564 55.9608C97.913 56.1794 98.1442 56.7664 98.1442 57.6468C98.1476 58.5188 97.9096 59.3749 97.4564 60.1212C96.9849 60.9097 96.3131 61.5607 95.5087 62.0086C94.6648 62.492 94.0175 62.6071 93.5609 62.3596ZM96.5548 59.8967C96.8016 59.4205 96.9248 58.8903 96.9131 58.3546C96.9131 57.7791 96.7918 57.4051 96.5548 57.2382C96.3178 57.0713 95.9768 57.1231 95.5087 57.3878C95.068 57.6346 94.7056 57.9994 94.4626 58.4409C94.2125 58.912 94.0872 59.4388 94.0984 59.9716C94.0984 60.5547 94.2198 60.9383 94.4626 61.1224C94.7053 61.2951 95.0405 61.249 95.5087 60.9901C95.953 60.7376 96.3158 60.3643 96.5548 59.914V59.8967Z" fill="#FAFAFA"/>
<path d="M100.474 60.7606C100.215 60.8654 99.9375 60.9145 99.6587 60.9044C99.5546 60.9044 99.5315 60.8296 99.5835 60.703L99.861 59.9952C99.8828 59.9266 99.9227 59.865 99.9765 59.8169C100.009 59.8083 100.043 59.8083 100.075 59.8169C100.571 59.7792 101.049 59.6146 101.462 59.3392C101.854 59.1267 102.183 58.8151 102.416 58.4358C102.634 58.009 102.737 57.5332 102.716 57.0548C102.545 57.3703 102.331 57.6608 102.08 57.9179C101.82 58.1794 101.524 58.404 101.202 58.5854C100.479 58.9997 99.913 59.0976 99.5084 58.8789C99.1038 58.6602 98.9015 58.1308 98.9015 57.3079C98.894 56.3999 99.1444 55.5082 99.624 54.7357C100.145 53.9188 100.865 53.2459 101.716 52.7792C102.102 52.551 102.518 52.3786 102.953 52.2671C103.272 52.1728 103.607 52.1512 103.936 52.2038V56.0305C103.945 56.8821 103.746 57.7232 103.358 58.4818C102.948 59.2419 102.325 59.8675 101.566 60.283C101.216 60.4735 100.851 60.6333 100.474 60.7606ZM102.375 56.5023C102.596 56.1756 102.714 55.7912 102.716 55.3975V53.4122C102.555 53.4254 102.397 53.4643 102.248 53.5273C102.048 53.6051 101.854 53.6995 101.67 53.8093C101.186 54.065 100.785 54.4522 100.514 54.926C100.243 55.3997 100.113 55.9404 100.138 56.4851C100.138 57.0605 100.248 57.3828 100.474 57.5266C100.699 57.6705 101.052 57.6014 101.502 57.3425C101.856 57.1356 102.156 56.8476 102.375 56.5023Z" fill="#FAFAFA"/>
<path d="M95.8263 70.9972V118.431C95.8263 118.747 95.9939 118.908 96.1962 118.787C96.3134 118.69 96.4074 118.567 96.4713 118.429C96.5353 118.29 96.5676 118.14 96.5661 117.987V70.5541C96.5661 70.2376 96.3985 70.0822 96.1962 70.2031C96.0785 70.2992 95.9841 70.4205 95.92 70.558C95.856 70.6955 95.824 70.8456 95.8263 70.9972Z" fill="#9255FA"/>
<path d="M67.6566 89.3997L88.631 77.3155C89.3246 76.9184 89.8852 77.2407 89.8852 78.0348V92.7257C89.8616 93.1584 89.7358 93.5793 89.5178 93.9543C89.2999 94.3293 88.996 94.6477 88.631 94.8836L67.6566 106.939C66.9688 107.336 66.4082 107.014 66.4082 106.22V91.5634C66.4312 91.1305 66.5561 90.7091 66.773 90.3332C66.9899 89.9573 67.2926 89.6375 67.6566 89.3997Z" fill="#E0E0E0"/>
<path d="M89.9028 78.0582C89.9028 77.2641 89.3248 76.9419 88.6486 77.3389L67.6742 89.4232C67.3109 89.6604 67.0087 89.9793 66.7919 90.3541C66.575 90.7289 66.4496 91.1492 66.4258 91.581V92.8297L89.9028 79.3127V78.0582Z" fill="#9255FA"/>
<path d="M68.749 94.1584L78.141 88.7607V98.2094L68.749 103.607V94.1584Z" fill="#FAFAFA"/>
<path d="M68.7549 102.232L72.2747 96.0056C72.3024 95.9428 72.3463 95.8883 72.4018 95.8477C72.4573 95.807 72.5226 95.7817 72.5911 95.7741C72.6597 95.7665 72.729 95.777 72.7921 95.8045C72.8553 95.832 72.91 95.8756 72.9509 95.9308L74.182 97.2774L76.3031 92.4034C76.4303 92.1099 76.6788 92.0812 76.8811 92.3459L78.1642 94.1585V98.1866L68.7722 103.584L68.7549 102.232Z" fill="#9255FA"/>
<path d="M80.4932 88.2259C80.4932 88.6747 80.8284 88.8473 81.2445 88.6057L86.7815 85.4235C86.996 85.2883 87.1758 85.1049 87.3062 84.8881C87.4367 84.6712 87.5143 84.4269 87.5328 84.1748C87.5328 83.7259 87.1976 83.5533 86.7872 83.795L81.233 86.9599C81.0173 87.097 80.8377 87.2834 80.709 87.5036C80.5803 87.7238 80.5063 87.9714 80.4932 88.2259Z" fill="#FAFAFA"/>
<path d="M80.4932 92.1393C80.4932 92.5882 80.8284 92.7608 81.2445 92.5249L86.7815 89.3369C86.9966 89.2025 87.1769 89.0193 87.3074 88.8023C87.438 88.5853 87.5152 88.3406 87.5328 88.0882C87.5328 87.6394 87.1976 87.4725 86.7872 87.7085L81.233 90.8619C81.0168 91.0011 80.8369 91.1896 80.7083 91.4117C80.5797 91.6339 80.5059 91.8833 80.4932 92.1393Z" fill="#FAFAFA"/>
<path d="M80.4932 95.9945C80.4932 96.4491 80.8284 96.616 81.2445 96.38L86.7815 93.1921C86.9965 93.0589 87.1768 92.8767 87.3074 92.6607C87.438 92.4446 87.5153 92.2007 87.5328 91.9492C87.5328 91.5003 87.1976 91.3277 86.7872 91.5636L81.233 94.7515C81.02 94.8861 80.8421 95.0688 80.7135 95.2848C80.5849 95.5008 80.5094 95.7439 80.4932 95.9945Z" fill="#FAFAFA"/>
<path d="M67.6566 112.141L88.631 100.086C89.3246 99.689 89.8852 100.011 89.8852 100.805V115.496C89.8616 115.929 89.7358 116.35 89.5178 116.725C89.2999 117.1 88.996 117.418 88.631 117.654L67.6566 129.738C66.9688 130.135 66.4082 129.813 66.4082 129.019V114.299C66.4321 113.867 66.5575 113.447 66.7743 113.072C66.9911 112.698 67.2933 112.379 67.6566 112.141Z" fill="#E0E0E0"/>
<path d="M89.9028 100.805C89.9028 100.011 89.3248 99.689 88.6486 100.086L67.6742 112.141C67.3109 112.379 67.0087 112.698 66.7919 113.072C66.575 113.447 66.4496 113.867 66.4258 114.299V115.554L89.9028 102.054V100.805Z" fill="#9255FA"/>
<path d="M68.749 116.901L78.141 111.503V120.952L68.749 126.349V116.901Z" fill="#FAFAFA"/>
<path d="M68.7549 124.979L72.2747 118.753C72.3024 118.69 72.3463 118.636 72.4018 118.595C72.4573 118.555 72.5226 118.529 72.5911 118.522C72.6597 118.514 72.729 118.525 72.7921 118.552C72.8553 118.58 72.91 118.623 72.9509 118.678L74.182 120.019L76.3031 115.145C76.4303 114.852 76.6788 114.829 76.8811 115.088L78.1642 116.9V120.928L68.7722 126.326L68.7549 124.979Z" fill="#9255FA"/>
<path d="M80.4932 110.967C80.4932 111.416 80.8284 111.589 81.2445 111.353L86.7815 108.165C86.9965 108.032 87.1768 107.85 87.3074 107.633C87.438 107.417 87.5153 107.174 87.5328 106.922C87.5328 106.467 87.1976 106.3 86.7872 106.536L81.233 109.724C81.02 109.859 80.8421 110.042 80.7135 110.258C80.5849 110.474 80.5094 110.717 80.4932 110.967Z" fill="#FAFAFA"/>
<path d="M80.4932 114.852C80.4932 115.307 80.8284 115.473 81.2445 115.237L86.7815 112.05C86.9965 111.916 87.1768 111.734 87.3074 111.518C87.438 111.302 87.5153 111.058 87.5328 110.807C87.5328 110.358 87.1976 110.185 86.7872 110.421L81.233 113.609C81.02 113.744 80.8421 113.926 80.7135 114.142C80.5849 114.358 80.5094 114.601 80.4932 114.852Z" fill="#FAFAFA"/>
<path d="M80.4932 118.741C80.4932 119.19 80.8284 119.363 81.2445 119.121L86.7815 115.939C86.996 115.804 87.1758 115.621 87.3062 115.404C87.4367 115.187 87.5143 114.943 87.5328 114.69C87.5328 114.242 87.1976 114.069 86.7872 114.311L81.233 117.493C81.0205 117.629 80.8431 117.813 80.7146 118.03C80.5862 118.247 80.5104 118.49 80.4932 118.741Z" fill="#FAFAFA"/>
<path d="M104.126 89.9469L168.61 52.8829C169.298 52.4858 169.858 52.8081 169.858 53.6022V72.3212C169.835 72.7531 169.709 73.1734 169.492 73.5482C169.276 73.923 168.973 74.2418 168.61 74.4791L104.126 111.543C103.433 111.94 102.872 111.618 102.872 110.824V92.1048C102.896 91.6722 103.022 91.2512 103.239 90.8762C103.457 90.5012 103.761 90.1828 104.126 89.9469Z" fill="#E0E0E0"/>
<path d="M169.858 53.5846C169.858 52.7905 169.281 52.4683 168.61 52.8653L104.126 89.9466C103.761 90.1825 103.457 90.5009 103.239 90.8759C103.022 91.2509 102.896 91.6719 102.872 92.1045V93.3532L169.858 54.8506V53.5846Z" fill="#9255FA"/>
<path d="M118.801 86.057L105.773 93.5377C105.483 93.728 105.242 93.9832 105.068 94.2829C104.894 94.5826 104.794 94.9186 104.773 95.264V108.085C104.773 108.718 105.224 108.977 105.773 108.66L118.801 101.179C119.091 100.989 119.333 100.734 119.507 100.435C119.68 100.135 119.781 99.7987 119.801 99.4532V86.6324C119.777 85.9994 119.327 85.7405 118.801 86.057Z" fill="#FAFAFA"/>
<path d="M109.346 97.3175L104.751 107.1V108.113C104.751 108.746 105.202 109.005 105.751 108.688L118.778 101.207C119.069 101.017 119.311 100.762 119.484 100.463C119.658 100.163 119.758 99.8266 119.778 99.4811V95.0157L117.316 90.4122C117.015 89.8368 116.57 89.8656 116.322 90.4525L112.444 99.5157L110.56 97.1794C110.497 97.0646 110.401 96.9711 110.285 96.9108C110.168 96.8505 110.036 96.8262 109.906 96.8411C109.776 96.8559 109.653 96.9092 109.553 96.9941C109.453 97.0789 109.381 97.1916 109.346 97.3175Z" fill="#9255FA"/>
<path d="M106.259 97.2032C106.914 96.7782 107.459 96.2055 107.849 95.5316C108.24 94.8577 108.466 94.1016 108.508 93.3247C108.524 92.9142 108.404 92.5098 108.167 92.1738L105.751 93.5606C105.461 93.751 105.219 94.0062 105.046 94.3059C104.872 94.6056 104.771 94.9416 104.751 95.287V97.4218C105.001 97.5096 105.27 97.5355 105.532 97.4974C105.795 97.4593 106.045 97.3584 106.259 97.2032Z" fill="#9255FA"/>
<path d="M125.661 83.2365L165.922 60.0981C166.5 59.7759 166.922 59.9945 166.922 60.5815C166.896 60.9128 166.791 61.2333 166.618 61.5171C166.444 61.801 166.206 62.0402 165.922 62.2157L125.661 85.3599C125.083 85.6764 124.661 85.4577 124.661 84.8708C124.688 84.5394 124.792 84.219 124.966 83.9351C125.139 83.6513 125.378 83.412 125.661 83.2365Z" fill="#FAFAFA"/>
<path d="M125.661 88.635L165.922 65.4966C166.5 65.1743 166.922 65.393 166.922 65.9799C166.896 66.3112 166.791 66.6317 166.618 66.9156C166.444 67.1994 166.206 67.4387 165.922 67.6142L125.661 90.7583C125.083 91.0748 124.661 90.8561 124.661 90.2692C124.688 89.938 124.793 89.6177 124.966 89.3339C125.14 89.0502 125.378 88.8108 125.661 88.635Z" fill="#FAFAFA"/>
<path d="M125.661 94.0324L165.922 70.894C166.5 70.5718 166.922 70.7904 166.922 71.3774C166.895 71.7094 166.791 72.0305 166.617 72.3152C166.443 72.5999 166.206 72.8403 165.922 73.0174L125.661 96.1673C125.083 96.4838 124.661 96.2651 124.661 95.6782C124.686 95.345 124.79 95.0224 124.964 94.7365C125.137 94.4506 125.376 94.2094 125.661 94.0324Z" fill="#FAFAFA"/>
<path d="M191.533 30.7452L185.626 30.5669C185.227 30.2331 179.02 23.2588 179.02 23.2588C179.02 23.2588 176.789 26.7632 176.748 26.9876C176.708 27.212 182.834 33.7318 183.441 34.3878C183.611 34.6082 183.83 34.7866 184.081 34.9094C184.331 35.0321 184.607 35.0958 184.886 35.0956C186.487 35.1876 192.481 35.6077 192.481 35.6077L191.533 30.7452Z" fill="#F28F8F"/>
<path d="M199.931 37.5065L190.822 36.8333L191.527 30.7451L200.931 30.9523L199.931 37.5065Z" fill="#9255FA"/>
<path opacity="0.2" d="M199.931 37.5065L190.822 36.8333L191.527 30.7451L200.931 30.9523L199.931 37.5065Z" fill="black"/>
<path d="M115.866 57.5318L180.349 20.4678C181.037 20.0708 181.598 20.393 181.598 21.1871V39.9119C181.573 40.3437 181.448 40.7638 181.231 41.1385C181.014 41.5133 180.712 41.8322 180.349 42.0698L115.866 79.1338C115.172 79.5309 114.611 79.2086 114.611 78.4145V59.6897C114.635 59.2571 114.761 58.8362 114.979 58.4612C115.197 58.0862 115.501 57.7678 115.866 57.5318Z" fill="#E0E0E0"/>
<path d="M181.598 21.1871C181.598 20.393 181.02 20.0708 180.349 20.4678L115.866 57.5318C115.501 57.7678 115.197 58.0862 114.979 58.4612C114.761 58.8362 114.635 59.2571 114.611 59.6897V60.9384L181.598 22.4358V21.1871Z" fill="#9255FA"/>
<path d="M130.517 53.6478L117.489 61.1285C117.198 61.3179 116.956 61.5728 116.782 61.8727C116.608 62.1727 116.508 62.5091 116.489 62.8548V75.6699C116.489 76.3029 116.94 76.5618 117.489 76.2453L130.517 68.7646C130.808 68.5753 131.05 68.3203 131.224 68.0204C131.397 67.7205 131.498 67.384 131.516 67.0383V54.2233C131.516 53.5845 131.066 53.3313 130.517 53.6478Z" fill="#FAFAFA"/>
<path d="M121.113 64.9094L116.489 74.6631V75.6758C116.489 76.3088 116.94 76.5678 117.489 76.2513L130.517 68.7706C130.808 68.5812 131.05 68.3263 131.224 68.0263C131.397 67.7264 131.498 67.39 131.516 67.0442V62.6191L129.054 58.0156C128.754 57.4402 128.309 57.4747 128.06 58.0559L124.182 67.1363L122.298 64.7943C122.232 64.6898 122.139 64.6056 122.028 64.5512C121.917 64.4968 121.793 64.4743 121.67 64.4863C121.546 64.4982 121.429 64.5442 121.331 64.6189C121.232 64.6937 121.157 64.7943 121.113 64.9094Z" fill="#9255FA"/>
<path d="M117.998 64.7939C118.652 64.3673 119.197 63.7935 119.587 63.1187C119.978 62.444 120.203 61.6873 120.246 60.9097C120.262 60.4993 120.142 60.0951 119.905 59.7588L117.489 61.1513C117.198 61.3407 116.956 61.5956 116.782 61.8956C116.608 62.1955 116.508 62.5319 116.489 62.8777V65.0068C116.739 65.0953 117.007 65.1222 117.27 65.0851C117.533 65.0481 117.782 64.9481 117.998 64.7939Z" fill="#9255FA"/>
<path d="M137.4 50.8229L177.661 27.6903C178.239 27.3738 178.661 27.5867 178.661 28.1737C178.635 28.5057 178.53 28.827 178.357 29.1118C178.183 29.3966 177.945 29.6369 177.661 29.8137L137.4 52.952C136.851 53.2685 136.4 53.0556 136.4 52.4687C136.427 52.1357 136.531 51.8135 136.704 51.5277C136.878 51.2419 137.116 51.0006 137.4 50.8229Z" fill="#FAFAFA"/>
<path d="M137.4 56.2201L177.661 33.0817C178.239 32.7652 178.661 32.9839 178.661 33.5651C178.635 33.8972 178.53 34.2184 178.357 34.5032C178.183 34.788 177.945 35.0284 177.661 35.2051L137.4 58.3435C136.851 58.6657 136.4 58.4471 136.4 57.8601C136.427 57.5281 136.532 57.207 136.705 56.9223C136.879 56.6376 137.117 56.3972 137.4 56.2201Z" fill="#FAFAFA"/>
<path d="M137.4 61.641L177.661 38.5026C178.239 38.1861 178.661 38.4048 178.661 38.986C178.635 39.3181 178.53 39.6393 178.357 39.9241C178.183 40.2089 177.945 40.4493 177.661 40.626L137.4 63.7644C136.851 64.0866 136.4 63.868 136.4 63.281C136.427 62.949 136.532 62.6279 136.705 62.3432C136.879 62.0585 137.117 61.8181 137.4 61.641Z" fill="#FAFAFA"/>
<path d="M211.559 101.876H208.149V106.825H211.559V101.876Z" fill="#FFA8A7"/>
<path d="M199.566 95.7388L196.158 95.8555L196.329 100.801L199.737 100.685L199.566 95.7388Z" fill="#FFA8A7"/>
<path d="M211.339 53.585C211.339 56.8304 211.761 77.8167 211.761 77.8167C211.842 78.7489 212.721 80.4695 212.53 84.0602C212.276 88.9284 211.848 102.474 211.848 102.474C211.848 102.474 210.253 104.057 207.993 102.474C207.993 102.474 204.901 84.089 204.288 79.2668C203.757 75.0546 202.849 63.6091 202.849 63.6091L199.717 77.0513C199.717 77.0513 200.295 80.2163 200.399 82.4547C200.503 84.6932 199.821 97.5945 199.821 97.5945C199.269 97.9398 198.636 98.1348 197.985 98.16C197.333 98.1853 196.687 98.0399 196.11 97.7384C196.11 97.7384 193.359 78.9043 192.983 76.8557C192.608 74.8071 195.382 53.585 195.382 53.585H211.339Z" fill="#455A64"/>
<path d="M206.207 31.1026H206.253C207.714 31.4746 209.007 32.3215 209.929 33.5089C210.85 34.6964 211.347 36.1563 211.34 37.6569V53.585C208.947 56.1745 200.607 57.3829 195.382 53.585V37.0124C195.382 34.3654 196.856 31.1832 200.936 30.9473L206.207 31.1026Z" fill="#9255FA"/>
<path d="M207.352 17.5561C207.627 17.5242 207.906 17.5553 208.167 17.647C208.429 17.7388 208.666 17.8888 208.86 18.0855C209.507 18.7415 209.369 19.9614 208.86 22.7581L206.86 22.9882L207.352 17.5561Z" fill="#263238"/>
<path d="M195.711 16.7564C195.28 16.7582 194.853 16.672 194.457 16.5032C193.844 16.1522 193.688 16.8427 194.024 17.447C194.245 17.8786 194.573 18.2466 194.978 18.5156C195.383 18.7846 195.85 18.9457 196.335 18.9834C196.335 18.8971 196.913 17.4297 196.913 17.4297L195.711 16.7564Z" fill="#263238"/>
<path d="M206.416 22.989C206.717 23.1674 207.139 22.5977 207.503 22.2179C207.647 22.0547 207.83 21.9307 208.036 21.8575C208.242 21.7843 208.463 21.7643 208.678 21.7993C208.894 21.8344 209.097 21.9235 209.268 22.0581C209.44 22.1927 209.574 22.3685 209.658 22.5689C210.265 23.8406 208.89 25.5324 208.081 26.0906C207.854 26.2864 207.571 26.4058 207.272 26.4316C206.973 26.4575 206.673 26.3885 206.416 26.2345L206.208 31.1027C205.85 31.8835 205.303 32.5637 204.616 33.082C203.929 33.6003 203.124 33.9404 202.272 34.0719C199.382 34.4632 199.995 32.1039 200.937 30.9473V29.1807C200.219 29.3327 199.482 29.3696 198.752 29.29C198.377 29.1922 197.486 28.1392 196.908 26.9135C196.261 25.5612 195.175 23.1616 196.14 19.1048C197.174 14.7487 201.873 14.6164 204.676 16.3714C207.479 18.1265 206.416 22.989 206.416 22.989Z" fill="#FFA8A7"/>
<path d="M206.416 23.4893C206.566 23.4893 207.132 22.5513 207.502 22.2176C208.017 21.7572 207.352 17.5565 207.352 17.5565C207.352 17.5565 207.872 15.9683 206.861 14.9095C205.849 13.8507 203.89 14.0349 202.456 13.9831C200.697 13.9937 198.954 13.6451 197.336 12.9588C195.307 12.0784 195.151 11.9748 194.902 12.8667C194.654 13.7586 194.55 15.7899 195.769 17.1595L196.775 17.5278C196.775 17.5278 197.324 18.0111 199.22 18.2413C200.97 18.3728 202.73 18.3381 204.474 18.1377C205.023 18.0629 205.144 18.5981 205.439 20.0482C205.699 21.3199 205.918 23.4778 206.416 23.4893Z" fill="#263238"/>
<path d="M207.352 17.9071L209.144 16.9519C209.087 16.8314 209.005 16.7237 208.905 16.6353C208.805 16.547 208.688 16.4798 208.561 16.4378C208.434 16.3958 208.3 16.38 208.167 16.3912C208.033 16.4024 207.904 16.4405 207.785 16.5031C207.546 16.6369 207.367 16.8573 207.286 17.1187C207.206 17.3802 207.229 17.6625 207.352 17.9071Z" fill="#263238"/>
<path d="M200.942 29.1809C202.167 28.948 203.369 28.6052 204.532 28.1566C205.075 27.8698 205.522 27.4293 205.815 26.8906C205.675 27.431 205.427 27.9378 205.086 28.381C204.404 29.2442 200.942 29.8829 200.942 29.8829V29.1809Z" fill="#F28F8F"/>
<path d="M201.578 22.3264C201.586 22.4304 201.624 22.5299 201.688 22.6125C201.752 22.6952 201.839 22.7575 201.938 22.7917C202.037 22.8259 202.143 22.8306 202.245 22.8051C202.347 22.7797 202.439 22.7252 202.509 22.6485C202.58 22.5717 202.627 22.476 202.644 22.3731C202.661 22.2701 202.648 22.1645 202.605 22.0692C202.563 21.9738 202.493 21.8929 202.405 21.8364C202.317 21.7798 202.214 21.7502 202.11 21.751C202.037 21.7532 201.965 21.7699 201.898 21.8002C201.831 21.8305 201.772 21.8737 201.722 21.9273C201.673 21.9809 201.634 22.0438 201.61 22.1124C201.585 22.1809 201.574 22.2537 201.578 22.3264Z" fill="#263238"/>
<path d="M202.145 20.3244L203.3 20.9517C203.382 20.7961 203.4 20.6151 203.35 20.4466C203.301 20.2782 203.188 20.1354 203.035 20.0482C202.959 20.004 202.875 19.976 202.788 19.966C202.7 19.956 202.612 19.9643 202.528 19.9903C202.444 20.0163 202.367 20.0595 202.301 20.117C202.235 20.1746 202.182 20.2452 202.145 20.3244Z" fill="#263238"/>
<path d="M201.619 25.9238L200.405 26.3784C200.431 26.4601 200.474 26.5357 200.53 26.6006C200.586 26.6655 200.655 26.7183 200.732 26.756C200.809 26.7937 200.893 26.8153 200.979 26.8197C201.065 26.824 201.151 26.8109 201.232 26.7812C201.395 26.7157 201.526 26.5898 201.599 26.43C201.671 26.2703 201.678 26.0889 201.619 25.9238Z" fill="#F28F8F"/>
<path d="M196.827 20.7843L197.868 19.9845C197.819 19.9148 197.757 19.8557 197.684 19.8108C197.612 19.7659 197.531 19.736 197.447 19.7231C197.362 19.7102 197.276 19.7145 197.194 19.7357C197.111 19.7568 197.034 19.7945 196.966 19.8464C196.827 19.9556 196.735 20.1135 196.71 20.2879C196.684 20.4623 196.726 20.6399 196.827 20.7843Z" fill="#263238"/>
<path d="M197.15 22.1771C197.144 22.2504 197.153 22.3242 197.177 22.3939C197.201 22.4635 197.239 22.5274 197.289 22.5816C197.339 22.6357 197.4 22.6789 197.467 22.7083C197.535 22.7378 197.608 22.7528 197.682 22.7525C197.798 22.7618 197.914 22.7361 198.015 22.6787C198.116 22.6214 198.197 22.5351 198.248 22.4311C198.299 22.3271 198.317 22.2102 198.3 22.0958C198.284 21.9813 198.232 21.8745 198.154 21.7893C198.075 21.7042 197.972 21.6447 197.859 21.6185C197.746 21.5923 197.628 21.6006 197.519 21.6425C197.411 21.6844 197.318 21.7578 197.252 21.8532C197.186 21.9485 197.151 22.0614 197.15 22.1771Z" fill="#263238"/>
<path d="M199.861 21.6768L199.688 24.8647L198.012 24.3008L199.861 21.6768Z" fill="#F28F8F"/>
<path d="M208.156 105.144V104.661C207.826 104.799 207.069 107.682 205.717 108.913C204.636 109.891 203.168 111.019 202.798 112.107C202.428 113.194 204.844 113.868 205.85 113.689C207.006 113.482 209.04 112.665 209.549 111.905C210.057 111.146 210.294 110.024 210.705 109.471C211.115 108.919 212.069 108.292 212.294 107.647C212.361 107.045 212.294 106.436 212.097 105.863C211.941 105.288 211.768 104.603 211.56 104.661V105.029C211.076 105.411 210.473 105.615 209.855 105.604C209.364 105.622 208.15 105.524 208.156 105.144Z" fill="#263238"/>
<path d="M196.29 99.7635C196.111 99.7635 195.966 100.017 195.573 100.443C194.99 101.03 194.312 101.517 193.567 101.881C192.29 102.514 189.805 103.492 188.684 103.999C187.979 104.315 188.013 105.15 188.736 105.639C189.458 106.128 191.215 106.467 193.325 105.996C194.481 105.742 195.96 104.689 196.908 104.747C197.856 104.804 199.619 104.787 200.318 104.309C201.017 103.832 200.734 102.808 200.538 101.933C200.324 100.972 200.012 99.5046 199.694 99.5736V99.8729C199.284 100.489 197.197 100.742 196.295 100.287L196.29 99.7635Z" fill="#263238"/>
<path d="M207.231 33.3125L196.689 44.1653C196.689 44.1653 187.441 42.5195 184.286 41.6161C183.292 41.3341 182.598 39.8552 182.378 38.7389C182.322 38.1576 182.038 37.622 181.587 37.2485C181.587 37.2485 181.587 38.0599 181.379 39.3891C181.298 39.9646 180.384 40.0394 179.57 40.2178C176.68 40.8392 175.697 40.2178 174.501 41.0464C173.576 41.7024 174.738 43.4057 176.847 43.9811C179.812 44.7925 181.471 44.3897 183.251 44.8328C184.644 45.178 194.666 48.2854 196.573 48.7227C197.579 48.9414 198.348 48.8724 199.463 47.7963C200.579 46.7202 208.878 39.4927 208.878 39.4927L207.231 33.3125Z" fill="#FFA8A7"/>
<path d="M207.698 32.9382C206.542 32.6447 199.491 40.9944 199.491 40.9944L203.375 44.2398C203.375 44.2398 208.403 40.9598 209.294 39.6363C210.184 38.3128 211.195 33.8071 207.698 32.9382Z" fill="#9255FA"/>
<path d="M203.63 44.458C203.63 44.458 208.935 39.7279 209.184 39.21C209.664 38.2145 209.531 36.373 209.531 36.373C209.531 36.373 210.109 37.9728 209.531 39.21C208.953 40.4472 204.907 43.9631 204.266 44.5673L203.612 45.1773L202.982 44.6018L203.358 44.2738L203.63 44.458Z" fill="#9255FA"/>
<path opacity="0.2" d="M203.63 44.458C203.63 44.458 208.935 39.7279 209.184 39.21C209.664 38.2145 209.531 36.373 209.531 36.373C209.531 36.373 210.109 37.9728 209.531 39.21C208.953 40.4472 204.907 43.9631 204.266 44.5673L203.612 45.1773L202.982 44.6018L203.358 44.2738L203.63 44.458Z" fill="black"/>
<path d="M176.974 21.0383C178.13 20.9117 178.899 20.06 179.159 20.296C179.264 20.4077 179.326 20.5535 179.332 20.7067C179.338 20.8599 179.289 21.0103 179.193 21.1304C178.66 21.5338 178.077 21.8683 177.46 22.1259C177.315 22.7107 177.21 23.3048 177.147 23.904C177.049 24.7844 177.084 26.5452 176.327 27.1437C174.067 28.9506 173.489 26.0849 173.576 24.1629C173.709 21.7748 175.766 21.1706 176.974 21.0383Z" fill="#F28F8F"/>
</g>
<defs>
<clipPath id="clip0_502_8696">
<rect width="248" height="205" fill="white"/>
</clipPath>
</defs>
</svg>
