<svg width="51" height="55" viewBox="0 0 51 55" fill="none" xmlns="http://www.w3.org/2000/svg">
<g clip-path="url(#clip0_173_338)">
<path d="M40.273 48.5988C40.3036 49.8281 39.9656 51.0381 39.3032 52.0701C38.8408 52.8447 38.2109 53.5037 37.4606 53.9978C36.7102 54.492 35.8589 54.8084 34.9704 54.9236C34.9291 54.9236 34.9016 54.9861 34.8672 55.0208H5.70626C5.18357 54.7361 4.58522 54.6736 4.05564 54.3959C2.97533 53.9034 2.0623 53.1012 1.4301 52.089C0.797898 51.0767 0.474433 49.8993 0.499935 48.7029C0.499935 36.4792 0.499935 24.2531 0.499935 12.0247C0.508966 10.3519 1.17125 8.75023 2.34301 7.56738C3.51478 6.38452 5.10143 5.71596 6.75853 5.70685C7.23996 5.70685 7.72139 5.70685 8.19595 5.70685C8.45042 5.70685 8.5467 5.76239 8.49856 6.0401C8.46308 6.32557 8.45157 6.61356 8.46417 6.90099V37.0739C8.44641 38.3819 8.68943 39.6801 9.17878 40.8913C9.66813 42.1026 10.3938 43.202 11.3127 44.1244C12.2315 45.0468 13.3247 45.7732 14.5273 46.2603C15.7299 46.7475 17.0173 46.9856 18.3129 46.9603C25.1079 46.9603 31.9007 46.9603 38.6911 46.9603C39.2001 46.9603 39.8741 46.7382 40.1767 47.0436C40.4793 47.3491 40.273 48.0642 40.273 48.5988Z" fill="#FEC02D"/>
<path d="M44.0968 -1.47256e-05H18.2921C17.4439 -0.0318656 16.5982 0.11273 15.8077 0.424784C15.0172 0.736839 14.2987 1.20968 13.6969 1.81393C13.0951 2.41818 12.6229 3.14092 12.3095 3.93723C11.9961 4.73353 11.8483 5.58639 11.8753 6.4428V37.0601C11.8432 37.9121 11.9841 38.7617 12.2895 39.5567C12.5949 40.3517 13.0582 41.0751 13.6509 41.6826C14.2436 42.29 14.9532 42.7686 15.736 43.0888C16.5188 43.409 17.3583 43.5641 18.2027 43.5445C26.8639 43.5723 35.5204 43.5723 44.1724 43.5445C45.0173 43.5592 45.8563 43.4001 46.6383 43.0768C47.4202 42.7536 48.1288 42.273 48.7208 41.6643C49.3128 41.0557 49.7759 40.3317 50.0817 39.5366C50.3876 38.7414 50.5298 37.8917 50.4998 37.0392V6.4914C50.5244 5.63456 50.3757 4.78166 50.063 3.98472C49.7503 3.18777 49.28 2.4635 48.6808 1.85607C48.0816 1.24864 47.3662 0.770799 46.5781 0.451686C45.7899 0.132573 44.9457 -0.0211191 44.0968 -1.47256e-05ZM40.1766 33.1444C39.9359 33.2033 39.6877 33.2244 39.4407 33.2069H22.6319C22.2839 33.2052 21.9451 33.094 21.6627 32.8886C21.3804 32.6832 21.1686 32.394 21.0569 32.0613C20.9485 31.7187 20.9478 31.3505 21.055 31.0074C21.1621 30.6644 21.3718 30.3631 21.6552 30.1451C21.9899 29.9064 22.3947 29.789 22.8038 29.8119H39.5645C39.9807 29.779 40.3942 29.9026 40.7256 30.1589C41.0569 30.4153 41.2827 30.7862 41.3595 31.2004C41.4298 31.6142 41.3485 32.0397 41.1308 32.3974C40.9131 32.7551 40.5739 33.0206 40.1766 33.1444ZM40.1766 26.2711C39.9356 26.3277 39.6873 26.3464 39.4407 26.3267H22.6319C22.2839 26.325 21.9451 26.2138 21.6627 26.0084C21.3804 25.803 21.1686 25.5138 21.0569 25.1811C20.9485 24.8384 20.9478 24.4703 21.055 24.1272C21.1621 23.7841 21.3718 23.4829 21.6552 23.2649C21.9872 23.0188 22.3922 22.894 22.8038 22.9109H39.5645C39.9807 22.878 40.3942 23.0016 40.7256 23.2579C41.0569 23.5142 41.2827 23.8852 41.3595 24.2994C41.4355 24.7173 41.3571 25.1487 41.1391 25.5121C40.9211 25.8755 40.5786 26.1456 40.1766 26.2711ZM40.1766 19.3909C39.9365 19.4533 39.6877 19.4744 39.4407 19.4534H31.1876C28.3334 19.4534 25.4792 19.4534 22.625 19.4534C22.2775 19.4497 21.9396 19.3377 21.6577 19.1326C21.3757 18.9275 21.1635 18.6394 21.05 18.3079C20.9421 17.9641 20.9417 17.5951 21.0487 17.251C21.1558 16.907 21.3651 16.6045 21.6484 16.3847C21.983 16.146 22.3878 16.0286 22.7969 16.0515H39.5645C39.9843 16.0102 40.4041 16.1293 40.7411 16.3853C41.0781 16.6414 41.3078 17.0157 41.3847 17.4343C41.4616 17.853 41.3801 18.2855 41.1565 18.6465C40.9328 19.0074 40.5831 19.2706 40.1766 19.384V19.3909Z" fill="#FEC02D"/>
</g>
<defs>
<clipPath id="clip0_173_338">
<rect width="50" height="55" fill="white" transform="translate(0.5)"/>
</clipPath>
</defs>
</svg>
