<svg width="57" height="59" viewBox="0 0 57 59" fill="none" xmlns="http://www.w3.org/2000/svg">
<path d="M56.9595 7.91822C56.9811 6.83967 56.5266 6.11241 55.5528 5.63015C51.9823 3.87056 48.422 2.09301 44.872 0.297474C44.5212 0.102385 44.1264 0 43.7249 0C43.3235 0 42.9287 0.102385 42.5778 0.297474C39.282 1.96769 36.0063 3.68721 32.652 5.228C31.0465 5.96604 30.2207 6.94752 30.4841 8.72251C30.5504 9.15855 30.3424 9.2094 29.968 9.20786C27.7015 9.19091 25.4334 9.19861 23.1669 9.19861C21.6107 9.19861 20.0545 9.19861 18.4983 9.19861C18.1024 9.19861 17.7757 9.30185 17.5847 9.66085C17.2488 10.3018 17.7095 10.9305 18.5215 10.9305C22.3442 10.9305 26.1684 10.9397 29.9911 10.9305C30.3948 10.9305 30.4996 11.0306 30.4918 11.4343C30.4533 13.3356 30.4703 15.2354 30.7723 17.166H16.5693C15.8128 17.166 15.3952 17.485 15.4075 18.0474C15.4198 18.6098 15.8174 18.8948 16.5415 18.8963C17.7136 18.8963 18.8856 18.8963 20.0576 18.8963C23.5922 18.8963 27.1273 18.8963 30.6629 18.8963C30.8647 18.8963 31.1159 18.7808 31.2191 19.1228C31.4394 19.8501 31.6952 20.565 31.951 21.3292H16.7264C16.5351 21.3152 16.3428 21.323 16.1533 21.3524C15.691 21.4587 15.4014 21.7684 15.4198 22.2476C15.4145 22.4533 15.4881 22.6532 15.6257 22.8063C15.7633 22.9594 15.9543 23.0539 16.1594 23.0703C16.3878 23.0994 16.618 23.1122 16.8482 23.1089C21.6693 23.1089 26.492 23.1489 31.3131 23.0827C32.4363 23.0673 33.2452 23.2583 33.7306 24.3446C33.9139 24.756 34.2637 25.0919 34.5934 25.5371H25.1345C24.9427 25.5332 24.7507 25.541 24.5598 25.5603C24.3754 25.5763 24.2025 25.6565 24.071 25.7868C23.9396 25.9171 23.8579 26.0894 23.8403 26.2736C23.7709 26.6758 23.9527 26.9762 24.3025 27.1812C24.5305 27.3152 24.7817 27.2952 25.0313 27.2952C28.6429 27.2952 32.2545 27.2952 35.8661 27.2952C36.0071 27.2871 36.1483 27.308 36.2808 27.3568C36.4133 27.4056 36.5344 27.4811 36.6365 27.5787C38.2528 29.064 40.0555 30.2966 41.8906 31.4923C42.8659 32.1256 43.8151 32.6571 44.9583 31.8451C44.9785 31.9283 44.9934 32.0127 45.003 32.0978C45.003 38.8619 45.0076 45.6249 45.0169 52.3869C45.0169 52.8014 44.8304 52.7906 44.5361 52.7906C37.3335 52.7906 30.1293 52.7932 22.9235 52.7983C22.4613 52.7983 22.375 52.6442 22.4073 52.2452C22.4304 51.8614 22.4304 51.4765 22.4073 51.0927C22.4056 50.9282 22.3513 50.7685 22.2524 50.6371C22.1534 50.5057 22.0149 50.4094 21.8573 50.3623C21.241 50.1312 20.6832 50.5488 20.6786 51.2683C20.6678 53.0757 20.6632 54.8815 20.6786 56.6873C20.6786 57.1356 20.5461 57.2913 20.0869 57.2913C14.3428 57.2789 8.59878 57.2789 2.85471 57.2913C2.41867 57.2913 2.29387 57.1372 2.29541 56.7165C2.30671 52.7577 2.30671 48.8 2.29541 44.8432C2.29541 44.3918 2.43562 44.2392 2.89169 44.2485C4.17825 44.2731 5.46635 44.2577 6.75291 44.2577H19.8943C20.6647 44.2577 20.6647 44.2577 20.6647 45.0574C20.6647 45.7107 20.6647 46.364 20.6647 47.0173C20.6724 47.6182 21.0345 48.025 21.5429 48.0234C22.0514 48.0219 22.3981 47.6321 22.4058 47.0127C22.4166 46.2068 22.4474 45.3964 22.3935 44.5936C22.3596 44.1221 22.4921 44.0297 22.9389 44.0312C27.2423 44.0482 31.5458 44.042 35.8492 44.042C36.0604 44.0492 36.2718 44.0441 36.4824 44.0266C36.5883 44.0235 36.6926 43.9992 36.789 43.9552C36.8854 43.9112 36.972 43.8484 37.0438 43.7705C37.1155 43.6925 37.171 43.601 37.2069 43.5013C37.2428 43.4016 37.2584 43.2958 37.2528 43.19C37.2698 42.6923 36.9832 42.4088 36.5163 42.3102C36.3445 42.2896 36.1711 42.286 35.9986 42.2994H21.4829C20.8897 42.2994 20.0961 42.5105 19.7587 42.2116C19.3766 41.871 19.6986 41.056 19.6293 40.452C19.5738 39.9728 19.731 39.8542 20.2148 39.8557C25.4781 39.8757 30.743 39.868 36.0063 39.868C36.1789 39.882 36.3525 39.8773 36.524 39.8542C36.9863 39.7494 37.2759 39.4736 37.2636 38.9713C37.2513 38.469 36.9786 38.2009 36.4932 38.1316C36.2834 38.1105 36.0723 38.1033 35.8615 38.11C30.6351 38.11 25.4103 38.11 20.184 38.1192C19.7541 38.1192 19.5584 38.0067 19.5276 37.5784C19.4879 37.0806 19.3644 36.593 19.1624 36.1362C18.9822 35.7233 19.1301 35.674 19.5076 35.674C22.1593 35.6863 24.811 35.674 27.4611 35.674C27.6338 35.6805 27.8068 35.6753 27.9788 35.6586C28.4719 35.5939 28.837 35.2241 28.8093 34.785C28.7754 34.2796 28.478 33.9822 27.9804 33.9036C27.8077 33.8879 27.6341 33.8853 27.4611 33.8959C24.4458 33.8959 21.4289 33.8959 18.4136 33.8959C18.2742 33.906 18.1345 33.8818 18.0066 33.8254C17.8788 33.769 17.7667 33.6821 17.6802 33.5724C15.2658 30.7697 11.4878 29.9161 8.1273 31.4322C7.66506 31.6417 7.64811 31.4954 7.64965 31.0963C7.65787 24.5449 7.65787 17.9934 7.64965 11.442C7.64965 10.9798 7.7914 10.9151 8.19971 10.9197C10.1581 10.9412 12.1179 10.9305 14.0778 10.9289C14.7927 10.9289 15.2041 10.6208 15.2149 10.0738C15.2257 9.5268 14.8128 9.19553 14.1056 9.19399C11.9731 9.19399 9.84065 9.19399 7.7082 9.19399C6.41856 9.19399 5.91626 9.70707 5.91626 11.0152C5.91626 18.1028 5.91883 25.1905 5.92397 32.2781C5.93453 32.4642 5.90537 32.6505 5.83843 32.8245C5.77148 32.9985 5.66828 33.1563 5.53569 33.2873C4.28374 34.5779 3.51626 36.2615 3.36318 38.053C3.23529 39.3765 3.31695 40.7031 3.30308 42.0267C3.30308 42.3656 3.27073 42.5259 2.85317 42.5243C1.25846 42.5243 0.518878 43.2947 0.517338 44.9018C0.517338 48.706 0.546612 52.5117 0.500389 56.3144C0.486522 57.547 0.840903 58.4715 1.99341 59H21.0114C20.9944 58.8875 21.0884 58.8998 21.15 58.869C21.9975 58.47 22.4351 57.8151 22.4181 56.866C22.4073 56.3098 22.4643 55.7459 22.4042 55.1958C22.3365 54.5933 22.5583 54.4886 23.1223 54.4901C30.441 54.5101 37.7598 54.5009 45.08 54.5101C45.6316 54.5101 46.1062 54.3977 46.4668 53.957C46.7919 53.5533 46.7949 53.071 46.7949 52.5872C46.7949 45.4801 46.7919 38.3714 46.7857 31.2612C46.7857 30.8328 46.8951 30.5694 47.2649 30.3259C48.7242 29.3638 50.0934 28.2716 51.3557 27.0625C54.7454 23.8176 56.5944 19.8624 56.8809 15.1676C57.0227 12.7578 56.9118 10.3388 56.9595 7.91822ZM14.4476 42.1854C14.4476 42.4766 14.349 42.5336 14.0855 42.529C13.2227 42.5136 12.3583 42.529 11.4955 42.529C10.6326 42.529 9.80059 42.5074 8.96394 42.5382C8.59107 42.5521 8.52328 42.4242 8.53098 42.0852C8.55255 40.9928 8.53098 39.8988 8.54639 38.8049C8.55037 38.0502 8.85047 37.3272 9.38212 36.7915C9.91378 36.2558 10.6345 35.9502 11.3891 35.9406C13.0347 35.9113 14.3721 37.1162 14.4307 38.7386C14.4723 39.8819 14.4307 41.0344 14.4476 42.1854ZM5.61581 36.2687C6.79297 33.6818 9.53558 32.1286 12.3059 32.5046C13.6941 32.6862 14.9841 33.3188 15.9776 34.3051C16.9712 35.2915 17.6132 36.5768 17.805 37.9636C18.0161 39.395 17.8512 40.8403 17.9005 42.2778C17.9005 42.4319 17.8682 42.5397 17.6817 42.5228C17.6438 42.5205 17.6057 42.5205 17.5677 42.5228C16.181 42.6029 16.1979 42.6014 16.1718 41.1962C16.1517 40.0668 16.3073 38.9281 16.0577 37.8064C15.5755 35.6432 13.517 34.05 11.3676 34.1548C8.95932 34.275 7.08572 35.9791 6.81762 38.3149C6.66355 39.5799 6.77294 40.8495 6.76062 42.116C6.76062 42.4319 6.68974 42.5351 6.35385 42.5382C5.07961 42.5521 5.07961 42.5659 5.07961 41.3194V40.1669C5.05342 38.8357 5.04572 37.5183 5.61581 36.2687ZM55.1707 11.5545C55.1845 13.8379 55.1984 16.1152 54.6129 18.3555C53.6545 21.9995 51.4974 24.8053 48.6362 27.1349C47.201 28.2881 45.6925 29.3468 44.1201 30.3043C43.9029 30.4399 43.7103 30.5524 43.4406 30.3829C40.4762 28.5155 37.6041 26.5402 35.4409 23.7128C33.486 21.1722 32.391 18.075 32.3146 14.8703C32.2329 12.5483 32.2822 10.2232 32.2576 7.89819C32.2412 7.74855 32.2759 7.59775 32.3563 7.47043C32.4366 7.3431 32.5577 7.24676 32.6998 7.19713C36.259 5.43344 39.8116 3.65691 43.3574 1.86754C43.4707 1.80163 43.5993 1.76691 43.7303 1.76691C43.8613 1.76691 43.99 1.80163 44.1032 1.86754C47.6562 3.65485 51.2129 5.43344 54.7731 7.20329C54.9053 7.25167 55.0174 7.34289 55.0917 7.4624C55.166 7.58192 55.1981 7.72285 55.183 7.86275C55.1599 9.08922 55.1707 10.3218 55.1707 11.5545Z" fill="white"/>
<path d="M37.262 30.6603C37.2328 31.1225 36.9631 31.3906 36.5086 31.4599C36.3365 31.4754 36.1635 31.4785 35.9909 31.4692H16.7002C16.5276 31.4761 16.3547 31.473 16.1825 31.4599C16.0755 31.4554 15.9706 31.4296 15.8737 31.3841C15.7768 31.3386 15.69 31.2742 15.6183 31.1947C15.5465 31.1153 15.4914 31.0223 15.456 30.9213C15.4206 30.8202 15.4057 30.7132 15.4121 30.6063C15.4023 30.4012 15.469 30.1998 15.5995 30.0411C15.7299 29.8825 15.9146 29.7781 16.1178 29.7481C16.2709 29.727 16.4259 29.7223 16.58 29.7342H36.1049C36.259 29.72 36.4142 29.7247 36.5671 29.7481C37.0248 29.8621 37.2944 30.158 37.262 30.6603Z" fill="white"/>
<path d="M37.267 34.7865C37.267 35.3381 36.9049 35.6693 36.227 35.674C34.5567 35.6853 32.8876 35.6853 31.2194 35.674C30.5707 35.674 30.1562 35.3073 30.1562 34.7896C30.1562 34.2718 30.58 33.9051 31.2179 33.8974C32.0422 33.8866 32.8665 33.8974 33.6924 33.8974C34.5182 33.8974 35.3795 33.8897 36.2239 33.8974C36.888 33.9051 37.2655 34.2395 37.267 34.7865Z" fill="white"/>
<path d="M22.1273 26.3907C22.1396 26.9084 21.7144 27.2921 21.0857 27.2952C19.5521 27.3034 18.0196 27.3034 16.488 27.2952C15.8393 27.2952 15.4218 26.95 15.4095 26.4308C15.3971 25.9115 15.7977 25.5494 16.4495 25.5402C17.2353 25.5294 18.0211 25.5402 18.8054 25.5402C19.5896 25.5402 20.3384 25.5309 21.1058 25.5402C21.7267 25.551 22.1134 25.8838 22.1273 26.3907Z" fill="white"/>
<path d="M36.7847 13.4974C36.1499 17.0536 38.2238 20.3971 41.7291 21.4664C45.0495 22.4787 48.6873 20.7607 50.091 17.5143C50.1449 17.3925 50.1942 17.2677 50.2451 17.1476C50.4993 16.596 50.9076 16.3926 51.3868 16.5759C51.866 16.7593 52.0848 17.2462 51.8691 17.8086C51.2298 19.5302 50.0593 21.0039 48.5271 22.0164C43.1621 25.5803 36.0082 22.4186 34.9836 16.0336C34.9327 15.7115 34.9342 15.3818 34.9096 15.0567C34.6292 10.7718 38.062 6.6933 42.3424 6.07544C46.8415 5.42523 51.1403 8.29572 52.1818 12.7162C52.2321 12.9013 52.2651 13.0906 52.2805 13.2817C52.3005 13.7655 52.0802 14.1045 51.5963 14.2062C51.494 14.2348 51.3869 14.2428 51.2814 14.2296C51.1759 14.2164 51.0741 14.1824 50.9819 14.1295C50.8897 14.0765 50.8089 14.0058 50.7443 13.9214C50.6797 13.8369 50.6326 13.7405 50.6056 13.6376C50.4839 13.2971 50.4176 12.9366 50.3082 12.5914C49.3591 9.61001 46.427 7.55614 43.3901 7.73949C40.042 7.93518 37.3625 10.271 36.7847 13.4974Z" fill="white"/>
<path d="M47.7318 13.7747C46.4992 15.0135 45.264 16.2498 44.0262 17.4834C43.8182 17.6914 43.6056 17.8794 43.279 17.8609C43.1449 17.8691 43.0108 17.8454 42.8876 17.7918C42.7645 17.7383 42.6557 17.6564 42.5702 17.5528C41.7567 16.7361 40.9354 15.9272 40.1296 15.1044C39.7013 14.6669 39.6843 14.1492 40.0572 13.784C40.43 13.4188 40.9447 13.4496 41.3853 13.8764C41.9231 14.3972 42.4639 14.9242 42.9677 15.4712C43.1973 15.7161 43.3313 15.6961 43.5563 15.4712C44.5224 14.482 45.5054 13.5097 46.4838 12.5344C47.0077 12.0136 47.4745 11.9628 47.8844 12.3649C48.2942 12.7671 48.2295 13.2755 47.7318 13.7747Z" fill="white"/>
</svg>
