<svg width="192" height="192" viewBox="0 0 192 192" fill="none" xmlns="http://www.w3.org/2000/svg">
<path d="M95.6582 87.7441V87.7482L95.6663 87.7522L95.6582 87.7441Z" fill="#F5F5F5"/>
<path d="M95.7047 87.8096L95.6855 87.8288H95.7316L95.7047 87.8096Z" fill="#F5F5F5"/>
<path d="M95.7656 87.8247V87.8285H95.7771L95.7656 87.8247Z" fill="#F5F5F5"/>
<path d="M95.7354 87.8285H95.7625L95.7431 87.8169L95.7354 87.8285Z" fill="#F5F5F5"/>
<path d="M95.6472 87.8134L95.6434 87.7903L95.5205 87.752L95.6319 87.8249L95.6472 87.8134Z" fill="#F5F5F5"/>
<path d="M95.6504 87.7939V87.8136L95.6662 87.8058L95.6504 87.7939Z" fill="#F5F5F5"/>
<path d="M95.7587 87.8018L95.7549 87.8094L95.7626 87.8133L95.7587 87.8018Z" fill="#F5F5F5"/>
<path d="M95.7395 87.8169H95.7314L95.7355 87.825L95.7395 87.8169Z" fill="#F5F5F5"/>
<path d="M95.666 87.8016L95.6736 87.7978L95.6621 87.7939L95.666 87.8016Z" fill="#F5F5F5"/>
<path d="M95.7511 87.79L95.7354 87.7979L95.7432 87.8019L95.7511 87.79Z" fill="#F5F5F5"/>
<path d="M90.624 51.8402L95.7005 87.4293L100.735 51.8402H100.815L107.543 3.88624C99.5981 2.79306 91.5382 2.83314 83.6045 4.00528L90.4819 51.8402H90.624Z" fill="#F5F5F5"/>
<path d="M110.773 54.7739L95.7969 87.7172L151.024 23.5892C144.924 18.3061 138.096 13.9284 130.749 10.5908L110.708 54.7508L110.773 54.7739Z" fill="#F5F5F5"/>
<path d="M60.9297 77.626L95.4321 87.729H95.2977L95.6318 87.825H95.6549V87.8058L95.6817 87.825H95.6357L95.6625 87.8442H95.6817H95.6625L95.8008 87.9057L95.6856 87.8327L130.392 97.9934C130.387 98.0194 130.381 98.045 130.372 98.0701L176.391 111.595C178.767 103.859 180.015 95.821 180.096 87.729H131.954V87.7905L95.7931 87.8289V87.7981L95.9505 87.7482L95.82 87.8327L96.1425 87.7406H95.9851L176.794 63.7866C174.539 56.0024 171.168 48.5859 166.787 41.7681L95.9467 87.729H95.8238L95.8737 87.6676L95.7816 87.729L95.8161 87.5332L95.7509 87.6791V87.729L95.7086 87.7597V87.729H95.6817V87.6791L95.6165 87.5524L95.6395 87.7137L95.5665 87.6676L95.6049 87.7098H95.4859L24.8952 42.2749C20.5886 49.0759 17.2843 56.4619 15.084 64.2052L60.9297 77.6452V77.626ZM95.6856 87.8173V87.8404L95.5742 87.7674L95.6856 87.8173Z" fill="#F5F5F5"/>
<path d="M71.9429 60.3763L95.6165 87.6979L80.5945 54.7891L60.5343 10.9209C53.2458 14.3199 46.4815 18.745 40.4473 24.0614L71.9353 60.3801L71.9429 60.3763Z" fill="#F5F5F5"/>
<path d="M166.299 133.352L126.206 107.466C126.198 107.477 126.191 107.489 126.187 107.501L95.8506 87.9707L119.501 115.235L119.444 115.285L150.528 151.219C156.602 146.038 161.912 140.022 166.299 133.352Z" fill="#F5F5F5"/>
<path d="M95.755 87.9094V87.9054L95.751 87.9014L95.755 87.9094Z" fill="#F5F5F5"/>
<path d="M95.6696 87.8363L95.6658 87.8478L95.6504 87.8401L95.6542 87.867L95.6581 87.8632L95.6811 87.8593L95.6696 87.8517L95.6773 87.8401H95.6849L95.6811 87.8363L95.6849 87.8286H95.6504L95.6696 87.8363Z" fill="#F5F5F5"/>
<path d="M95.4971 87.9131L95.6391 87.8709L95.6468 87.8363L95.6353 87.8286L95.4971 87.9131Z" fill="#F5F5F5"/>
<path d="M95.5544 87.9824L65.2991 107.612L65.23 107.501L25.5781 133.16C29.9252 139.807 35.1879 145.808 41.2108 150.985L76.5656 110.036L95.5544 87.9824Z" fill="#F5F5F5"/>
<path d="M60.9488 98.1006L95.6163 87.8286L11.9043 87.9361C11.9639 95.934 13.1652 103.882 15.4717 111.541L60.9411 98.1237L60.9488 98.1006Z" fill="#F5F5F5"/>
<path d="M61.1826 163.761C68.4223 167.055 76.0953 169.298 83.9692 170.423L95.6159 88.105L61.1826 163.761Z" fill="#F5F5F5"/>
<path d="M95.7628 87.8634V87.8477L95.7549 87.8516L95.7628 87.8634Z" fill="#F5F5F5"/>
<path d="M107.555 170.496C115.448 169.414 123.146 167.208 130.415 163.945L95.8008 88.0977L107.555 170.496Z" fill="#F5F5F5"/>
<path d="M95.6699 87.9669L95.7083 88.2396L95.7467 87.9746L95.7045 87.8901L95.6699 87.9669Z" fill="#F5F5F5"/>
<path d="M95.7512 87.8555L95.7432 87.8595L95.7512 87.8636V87.8555Z" fill="#F5F5F5"/>
<path d="M180.096 184.071C180.096 184.128 142.441 184.17 96.0003 184.17C49.5593 184.17 11.9043 184.128 11.9043 184.071C11.9043 184.013 49.5363 183.971 96.0003 183.971C142.464 183.971 180.096 184.017 180.096 184.071Z" fill="#263238"/>
<path d="M73.6625 90.0938C73.5951 90.1531 73.5232 90.207 73.4475 90.255L72.8062 90.689C72.2532 91.073 71.4353 91.5875 70.4138 92.225C68.371 93.4768 65.4794 95.1088 62.1809 96.6909C59.3636 98.0413 56.4799 99.2486 53.5409 100.308C52.4119 100.711 51.4942 101.022 50.8529 101.218L50.1156 101.445C50.0312 101.476 49.9437 101.498 49.8545 101.51C49.933 101.468 50.0152 101.433 50.1003 101.406L50.826 101.145C51.4596 100.926 52.362 100.596 53.491 100.174C55.7335 99.3366 58.7979 98.0886 62.0964 96.5104C65.395 94.9322 68.2788 93.3232 70.3409 92.1021C71.37 91.4954 72.1995 90.9885 72.7639 90.6352L73.4244 90.232C73.4986 90.1775 73.5784 90.1312 73.6625 90.0938Z" fill="#263238"/>
<path d="M84.0345 104.571C83.9519 104.645 83.8647 104.715 83.7734 104.778L83.0054 105.339C82.3334 105.819 81.3734 106.525 80.1983 107.412C77.8406 109.179 74.6418 111.698 71.255 114.655C67.8681 117.611 64.942 120.445 62.8722 122.542C61.8393 123.59 61.0098 124.462 60.4415 125.046L59.7849 125.729C59.7092 125.811 59.6284 125.888 59.543 125.96C59.608 125.87 59.6785 125.784 59.7542 125.702L60.3839 124.992C60.9369 124.378 61.751 123.506 62.7724 122.446C64.8153 120.319 67.7337 117.454 71.1206 114.505C74.5075 111.556 77.7331 109.037 80.1139 107.297C81.3004 106.426 82.2758 105.738 82.9593 105.274L83.7273 104.744C83.8227 104.674 83.9258 104.616 84.0345 104.571Z" fill="#263238"/>
<path d="M82.633 108.848C82.6007 108.902 82.562 108.951 82.5178 108.994L82.1607 109.378C81.8458 109.712 81.3927 110.185 80.8013 110.757C79.6493 111.909 77.9981 113.445 76.105 115.077C74.2119 116.709 72.434 118.087 71.113 119.063C70.4564 119.547 69.9188 119.934 69.5425 120.192L69.1085 120.487C69.059 120.525 69.0048 120.556 68.9473 120.58C68.9473 120.58 68.9933 120.53 69.0855 120.453L69.4964 120.13L71.0324 118.948C72.3188 117.949 74.0813 116.544 75.9668 114.923C77.8522 113.303 79.5149 111.778 80.6977 110.657L82.0954 109.325L82.4794 108.964C82.5793 108.883 82.6253 108.845 82.633 108.848Z" fill="#263238"/>
<path d="M80.5779 170.496L78.6119 179.39L75.0291 185.971C74.9674 186.083 74.9296 186.207 74.9179 186.335C74.9063 186.462 74.9211 186.591 74.9615 186.712C75.0019 186.834 75.0669 186.946 75.1526 187.041C75.2382 187.136 75.3426 187.212 75.4592 187.265C75.594 187.328 75.7418 187.356 75.8901 187.35C76.0384 187.343 76.183 187.301 76.3117 187.227C77.9783 186.263 84.0954 182.688 84.2029 182.031C84.3258 181.263 86.8909 172.789 86.8909 172.789L80.5779 170.496Z" fill="#263238"/>
<path d="M84.4799 181.156C84.3785 181.258 84.265 181.347 84.1419 181.421L83.1781 182.074L79.9871 184.212L76.7999 186.355C76.4159 186.605 76.0933 186.82 75.8283 186.996C75.7097 187.083 75.5807 187.154 75.4443 187.208C75.5429 187.104 75.6524 187.011 75.7707 186.931C75.9896 186.762 76.3083 186.528 76.7077 186.236C77.5026 185.66 78.6277 184.881 79.8642 184.043C81.1007 183.206 82.2527 182.473 83.0898 181.958C83.5083 181.697 83.8578 181.49 84.0882 181.355C84.2104 181.274 84.3419 181.207 84.4799 181.156Z" fill="#455A64"/>
<path d="M120.007 172.623L119.473 179.712C119.473 179.712 126.516 182.638 126.547 183.959H112.723L113.107 172.32L120.007 172.623Z" fill="#263238"/>
<path d="M126.113 183.502C125.937 183.522 125.759 183.522 125.583 183.502L124.14 183.456C122.922 183.417 121.24 183.364 119.378 183.341C117.516 183.318 115.837 183.318 114.616 183.341H113.173C112.996 183.352 112.818 183.345 112.643 183.318C112.817 183.282 112.995 183.264 113.173 183.264C113.51 183.241 114.006 183.218 114.616 183.195C115.834 183.152 117.519 183.125 119.382 183.152C121.244 183.179 122.93 183.248 124.147 183.325C124.754 183.364 125.245 183.402 125.587 183.433C125.764 183.442 125.94 183.465 126.113 183.502Z" fill="#455A64"/>
<path d="M89.0531 101.111L76.8457 176.494L88.0585 177.17L105.362 101.111H89.0531Z" fill="#9255FA"/>
<path d="M105.565 97.8238L111.199 177.17H121.747V93.1582L105.565 97.8238Z" fill="#9255FA"/>
<path d="M117.93 172.209C117.873 172.209 117.024 156.499 116.029 137.115C115.035 117.731 114.271 102.01 114.328 102.006C114.386 102.002 115.234 117.715 116.229 137.103C117.224 156.492 117.984 172.209 117.93 172.209Z" fill="#263238"/>
<path d="M121.747 172.208L121.666 172.235C121.597 172.235 121.489 172.274 121.355 172.293C121.082 172.339 120.683 172.393 120.203 172.454C119.224 172.573 117.865 172.715 116.363 172.838C113.364 173.111 110.914 173.222 110.918 173.084C110.918 173.084 110.956 173.084 111.025 173.084H111.344L112.496 172.992L116.336 172.658L120.176 172.32C121.152 172.247 121.789 172.201 121.747 172.208Z" fill="#263238"/>
<path d="M95.7 102.885C95.7 102.885 95.7 102.946 95.6808 103.065C95.6616 103.184 95.6386 103.361 95.6079 103.584C95.5387 104.048 95.4351 104.716 95.3045 105.573C95.0395 107.301 94.6402 109.797 94.1295 112.869C93.1119 119.036 91.6296 127.545 89.8325 136.915C88.0354 146.284 86.2536 154.736 84.9173 160.846C84.2491 163.899 83.6923 166.368 83.3007 168.069C83.1048 168.914 82.9512 169.574 82.8437 170.031L82.7208 170.538C82.6901 170.653 82.6709 170.711 82.6709 170.711C82.6709 170.711 82.6709 170.649 82.7016 170.534C82.7323 170.419 82.7592 170.238 82.8053 170.019C82.9013 169.563 83.0434 168.902 83.2239 168.053C83.6079 166.333 84.1224 163.864 84.7791 160.815C86.0808 154.702 87.8511 146.246 89.6367 136.876C91.4223 127.507 92.9275 119.04 93.9912 112.857C94.5135 109.785 94.9359 107.293 95.2277 105.561C95.3736 104.705 95.4888 104.025 95.5695 103.576C95.6079 103.357 95.6386 103.192 95.6616 103.061C95.6847 102.931 95.7 102.885 95.7 102.885Z" fill="#263238"/>
<path d="M89.188 172.209C89.0369 172.233 88.8836 172.239 88.7311 172.228L87.4907 172.197L83.3973 172.032L79.3077 171.84L78.0674 171.782C77.916 171.782 77.7647 171.773 77.6143 171.756C78.1765 171.677 78.7453 171.658 79.3115 171.698C80.3599 171.698 81.8075 171.763 83.405 171.832C85.0024 171.901 86.4501 171.986 87.4946 172.055C88.0207 172.09 88.4431 172.12 88.7349 172.147C88.8876 172.152 89.0395 172.173 89.188 172.209Z" fill="#263238"/>
<g opacity="0.3">
<path d="M88.4619 104.778L88.7038 103.28L105.07 102.355L104.452 105.085L88.4619 104.778Z" fill="black"/>
</g>
<g opacity="0.3">
<path d="M106.03 105.085L105.565 102.344L121.747 101.545L121.743 105.423L106.03 105.085Z" fill="black"/>
</g>
<path d="M90.1055 45.3809L101.529 42.8389L111.129 43.2344L119.501 45.8955L114.739 69.7726L96.5144 71.3893L90.1055 45.3809Z" fill="#263238"/>
<path d="M99.7936 43.2344L87.7744 45.8955L93.784 78.0862C93.784 78.0862 88.408 91.1422 87.7744 103.28L105.565 102.343C105.565 102.343 106.79 86.3461 106.372 80.1867C105.953 74.0273 105.673 63.2523 105.673 63.2523L99.7936 43.2344Z" fill="#9255FA"/>
<path d="M65.4254 61.7048C65.4254 61.7048 69.5035 57.5691 73.7582 55.3458C76.8955 53.7061 83.0395 51.6478 85.4817 49.0059C86.3747 48.0678 87.1486 47.0231 87.7857 45.8955L90.6235 61.0558L78.562 62.9758C78.562 62.9758 80.3553 63.955 79.2379 64.6539L86.795 73.4859L81.6148 83.2549C81.6148 83.2549 64.7265 68.7051 65.4254 61.7048Z" fill="#9255FA"/>
<path d="M111.129 43.2344C112.59 43.4167 114.033 43.7172 115.446 44.1329C118.003 44.9777 122.327 45.8955 122.327 45.8955L116.183 78.5086C116.183 78.5086 124.535 88.8305 122.327 101.46C122.327 101.46 110.788 102.37 105.565 102.343L105.496 62.6609C105.496 62.6609 109.87 57.0929 110.43 51.6325C110.991 46.172 111.129 43.2344 111.129 43.2344Z" fill="#9255FA"/>
<path d="M122.327 45.8955C122.327 45.8955 129.212 53.0264 133.002 55.7182C136.792 58.4101 141.562 62.4382 141.562 64.5809C141.485 65.9217 141.212 67.244 140.751 68.5054C140.486 69.2976 140.098 70.0429 139.599 70.7134C137.86 73.0174 133.252 79.0309 130.207 81.884L122.527 73.7931L129.823 65.7291C129.823 65.7291 120.031 61.6894 119.547 60.5912C119.063 59.4929 122.327 45.8955 122.327 45.8955Z" fill="#9255FA"/>
<path d="M105.423 66.9616C105.36 66.915 105.3 66.8622 105.247 66.8042L104.767 66.3242L103.004 64.5117L97.0292 58.2717L96.9946 58.2333V58.1795L97.7857 54.8618C97.9047 54.3664 98.0199 53.8787 98.1351 53.3949L98.2311 53.5178H94.3066L94.345 53.3949C95.2743 50.5802 96.0692 48.1687 96.649 46.4407C96.9332 45.5997 97.1598 44.9277 97.3249 44.4439C97.4017 44.225 97.4631 44.0599 97.513 43.9178C97.5309 43.8552 97.5554 43.7947 97.586 43.7373C97.576 43.8012 97.5605 43.8641 97.5399 43.9255C97.5015 44.0637 97.4478 44.2403 97.3825 44.4631L96.7681 46.4637C96.2113 48.1994 95.4394 50.6186 94.5409 53.441L94.4526 53.3181H98.258H98.3847L98.3578 53.441C98.2426 53.9248 98.1236 54.4125 98.0084 54.9079C97.7319 56.0599 97.467 57.1658 97.2135 58.2256L97.1866 58.1373L103.112 64.4272L104.832 66.2819L105.289 66.7888C105.339 66.8422 105.384 66.9 105.423 66.9616Z" fill="#263238"/>
<path d="M105.565 102.344C105.512 102.344 105.439 93.3927 105.404 82.3527C105.37 71.3127 105.385 62.3578 105.439 62.354C105.493 62.3502 105.565 71.305 105.604 82.3527C105.642 93.4004 105.623 102.344 105.565 102.344Z" fill="#263238"/>
<path d="M112.973 43.5264C112.999 43.5959 113.017 43.668 113.027 43.7414C113.054 43.9027 113.092 44.1254 113.142 44.3712C113.238 44.9433 113.372 45.7382 113.526 46.7251L114.824 54.7622L114.843 54.8928H114.713L112.593 54.6086L112.697 54.4665L113.13 55.3497C113.422 55.9449 113.71 56.5324 113.987 57.0892L114.014 57.1469L113.975 57.1929L108.392 64.1664L106.718 66.2284L106.257 66.7814C106.209 66.8486 106.152 66.9093 106.088 66.9619C106.13 66.8906 106.178 66.8226 106.23 66.7584L106.66 66.1862L108.288 64.0857L113.829 57.0509V57.1584C113.557 56.6016 113.269 56.0064 112.973 55.4189L112.512 54.528L112.428 54.359L112.616 54.382L114.736 54.6739L114.628 54.7852C114.137 51.5712 113.706 48.7641 113.399 46.7212C113.257 45.7305 113.142 44.9318 113.057 44.3596C113.024 44.1036 112.997 43.8924 112.977 43.726C112.97 43.6597 112.969 43.5929 112.973 43.5264Z" fill="#263238"/>
<path d="M103.895 89.3721C103.488 88.8768 102.693 88.6041 102.309 89.1033C102.115 89.2627 101.974 89.4775 101.905 89.7191C101.837 89.9607 101.843 90.2174 101.925 90.455C101.99 90.5999 102.084 90.7303 102.201 90.8384C102.318 90.9465 102.455 91.0302 102.605 91.0846C102.754 91.139 102.913 91.1629 103.072 91.1551C103.231 91.1472 103.386 91.1076 103.53 91.0387C103.669 90.9586 103.79 90.8503 103.885 90.7207C103.98 90.5911 104.047 90.4431 104.081 90.2862C104.116 90.1292 104.117 89.9668 104.085 89.8094C104.053 89.652 103.988 89.5031 103.895 89.3721Z" fill="#263238"/>
<path d="M104.11 79.008C103.703 78.5088 102.908 78.2208 102.524 78.7392C102.331 78.8993 102.191 79.1141 102.122 79.3555C102.054 79.5968 102.06 79.8532 102.14 80.0909C102.206 80.2362 102.299 80.3669 102.416 80.4754C102.533 80.5838 102.67 80.6677 102.819 80.7221C102.969 80.7765 103.128 80.8004 103.287 80.7922C103.446 80.784 103.602 80.7441 103.745 80.6746C103.885 80.5946 104.006 80.4863 104.101 80.3567C104.196 80.2271 104.262 80.079 104.297 79.9221C104.331 79.7651 104.332 79.6027 104.3 79.4453C104.268 79.2879 104.203 79.139 104.11 79.008Z" fill="#263238"/>
<path d="M131.535 78.1514C131.128 77.6561 130.333 77.3834 129.949 77.8826C129.755 78.0423 129.615 78.2572 129.546 78.4986C129.477 78.7401 129.484 78.9966 129.565 79.2343C129.63 79.3796 129.724 79.5103 129.84 79.6187C129.957 79.7271 130.094 79.811 130.244 79.8655C130.394 79.9199 130.553 79.9437 130.712 79.9356C130.871 79.9274 131.027 79.8874 131.17 79.818C131.309 79.7379 131.43 79.6296 131.525 79.5C131.62 79.3704 131.687 79.2224 131.721 79.0655C131.756 78.9085 131.757 78.7461 131.725 78.5887C131.693 78.4313 131.628 78.2823 131.535 78.1514Z" fill="#263238"/>
<path d="M81.5269 79.1037C81.1198 78.6045 80.3249 78.3165 79.9409 78.8349C79.7473 78.9946 79.6069 79.2095 79.5383 79.4509C79.4697 79.6924 79.4762 79.949 79.5569 80.1866C79.6222 80.3319 79.7159 80.4626 79.8325 80.5711C79.9492 80.6795 80.0864 80.7634 80.2361 80.8178C80.3858 80.8722 80.5449 80.8961 80.7039 80.8879C80.863 80.8797 81.0187 80.8398 81.1621 80.7703C81.3014 80.6903 81.4224 80.582 81.5173 80.4524C81.6123 80.3228 81.6791 80.1747 81.7135 80.0178C81.7478 79.8608 81.749 79.6985 81.7168 79.541C81.6847 79.3836 81.62 79.2347 81.5269 79.1037Z" fill="#263238"/>
<path d="M79.3339 64.7962C78.3734 64.3502 77.3481 64.0599 76.2965 63.936C75.2403 63.879 74.1817 63.9878 73.1592 64.2586C73.4317 64.0984 73.7288 63.9842 74.0385 63.9207C75.534 63.538 77.115 63.6733 78.5237 64.3047C78.8194 64.4219 79.0933 64.588 79.3339 64.7962Z" fill="#263238"/>
<path d="M73.1592 62.9759C73.3934 62.8208 73.6535 62.709 73.9272 62.6457C74.5835 62.4489 75.2657 62.3519 75.9509 62.3577C76.6374 62.3638 77.3193 62.4712 77.9745 62.6764C78.2469 62.7493 78.506 62.8647 78.7425 63.0181C77.8307 62.7554 76.8911 62.6008 75.9432 62.5573C75.0016 62.5833 74.0667 62.7238 73.1592 62.9759Z" fill="#263238"/>
<path d="M90.9694 63.0143C90.8995 62.8046 90.8443 62.5903 90.8043 62.373L90.4203 60.6143C90.0593 59.1051 89.5755 57.0738 89.0417 54.8274C88.5079 52.581 88.0779 50.5035 87.8398 48.9944C87.7169 48.2264 87.6324 47.6312 87.5902 47.2088C87.5546 46.9905 87.5379 46.7695 87.5403 46.5483C87.5981 46.7613 87.6404 46.9782 87.667 47.1973C87.7323 47.6159 87.8398 48.2226 87.978 48.9714C88.2507 50.469 88.6999 52.5234 89.2375 54.7813C89.7751 57.0392 90.2551 59.0936 90.5585 60.5874C90.7121 61.3323 90.8273 61.9391 90.8926 62.3576C90.9359 62.5741 90.9616 62.7937 90.9694 63.0143Z" fill="#263238"/>
<path d="M121.901 46.6328C121.892 46.8601 121.864 47.0863 121.816 47.3087C121.743 47.7733 121.643 48.3877 121.52 49.1365C121.263 50.7071 120.918 52.8267 120.537 55.1653C120.157 57.5039 119.769 59.6466 119.493 61.1826C119.347 61.9506 119.224 62.5727 119.132 63.0027C119.097 63.2271 119.043 63.4481 118.971 63.6632C118.979 63.4328 119.002 63.2032 119.04 62.9759C119.117 62.5112 119.216 61.8968 119.335 61.148C119.593 59.5736 119.942 57.4578 120.322 55.1192C120.703 52.7806 121.09 50.6379 121.367 49.0981C121.513 48.3301 121.636 47.7119 121.724 47.2818C121.768 47.0617 121.827 46.8449 121.901 46.6328Z" fill="#263238"/>
<path d="M134.999 61.7699C134.999 61.8045 134.573 61.7699 133.897 61.8045C133.019 61.8122 132.169 62.1137 131.482 62.6608C130.855 63.276 130.39 64.0374 130.13 64.8765C130.023 65.2294 129.895 65.5756 129.746 65.9133C129.789 65.5438 129.874 65.1804 130 64.8304C130.231 63.947 130.7 63.1436 131.355 62.5072C131.739 62.1759 132.196 61.9392 132.688 61.816C133.083 61.7143 133.489 61.6627 133.897 61.6624C134.169 61.6597 134.441 61.6751 134.711 61.7085C134.81 61.7102 134.908 61.7311 134.999 61.7699Z" fill="#263238"/>
<path d="M136.83 63.5632C136.83 63.5977 136.408 63.5632 135.732 63.6093C133.967 63.7118 132.26 64.2802 130.786 65.2566C130.218 65.6406 129.899 65.9017 129.876 65.8749C129.853 65.848 129.937 65.7865 130.076 65.656C130.274 65.4698 130.484 65.2966 130.705 65.1376C132.168 64.0786 133.922 63.4954 135.728 63.4672C135.999 63.4627 136.269 63.4755 136.538 63.5056C136.638 63.5064 136.737 63.526 136.83 63.5632Z" fill="#263238"/>
<path d="M96.6607 79.0079C96.2152 78.8965 95.7808 78.7448 95.3628 78.5547C94.9231 78.4255 94.4963 78.2558 94.0879 78.0479C94.5525 78.0647 95.0092 78.173 95.4319 78.3666C95.8787 78.4998 96.2958 78.7175 96.6607 79.0079Z" fill="#263238"/>
<path d="M97.1514 75.1489C97.1822 75.195 96.2836 75.8094 95.2737 76.6849C94.2638 77.5604 93.5188 78.3515 93.4766 78.3092C93.9428 77.6388 94.5042 77.0399 95.1431 76.5313C95.7407 75.9739 96.4175 75.5081 97.1514 75.1489Z" fill="#263238"/>
<path d="M122.327 101.46C122.327 101.518 114.597 101.967 105.047 102.47C95.4965 102.973 87.7666 103.338 87.7666 103.281C87.7666 103.223 95.4965 102.774 105.047 102.271C114.597 101.768 122.323 101.407 122.327 101.46Z" fill="#263238"/>
<g opacity="0.3">
<path d="M129.454 65.5219C129.212 64.78 129.213 63.9804 129.456 63.2389C129.699 62.4975 130.172 61.8526 130.806 61.3977C131.067 61.1854 131.401 61.0846 131.735 61.1174C131.816 61.1292 131.894 61.1581 131.963 61.2022C132.033 61.2463 132.092 61.3045 132.137 61.3731C132.182 61.4417 132.212 61.5191 132.224 61.6001C132.237 61.6811 132.233 61.764 132.211 61.8432C132.099 62.0229 131.936 62.1657 131.743 62.254C131.159 62.6529 130.718 63.2272 130.483 63.8937C130.25 64.5554 130.089 65.2404 130.003 65.9366" fill="black"/>
</g>
<g opacity="0.3">
<path d="M94.4365 53.4106C94.5056 53.618 95.8804 53.7754 96.1415 54.3437C96.3434 54.9389 96.3434 55.5841 96.1415 56.1792C95.9425 56.7729 95.8476 57.3965 95.8612 58.0224C95.9764 59.136 96.8903 59.977 97.7428 60.7104C100.124 62.7418 103.023 64.9344 105.423 66.9696C103.295 64.4352 100.523 61.824 98.1805 59.52C97.8097 59.2048 97.5133 58.8114 97.3127 58.368C97.174 57.7661 97.2113 57.1369 97.4202 56.5556C97.6199 55.7696 97.8221 54.9824 98.0269 54.194C98.0768 53.9904 98.1959 53.6487 98.2228 53.5373C97.9388 53.4877 97.6509 53.4633 97.3626 53.4644C96.3889 53.3902 95.4113 53.3826 94.4365 53.4413" fill="black"/>
</g>
<path d="M81.2119 80.0291C81.2394 79.9194 81.2807 79.8136 81.3348 79.7142C81.427 79.5184 81.569 79.2381 81.7533 78.8963C82.2435 78.0101 82.7953 77.1594 83.4046 76.3504C84.0108 75.5362 84.6742 74.7663 85.3898 74.0464C85.6663 73.7737 85.8967 73.5587 86.0618 73.4166C86.2269 73.2745 86.3191 73.2016 86.3306 73.2131C86.069 73.5393 85.7895 73.8508 85.4935 74.1462C84.9713 74.7145 84.2724 75.5171 83.5735 76.4502C82.8746 77.3833 82.2871 78.2896 81.8878 78.9462C81.6844 79.3204 81.4587 79.682 81.2119 80.0291Z" fill="#263238"/>
<path d="M84.0575 70.5176C84.0805 70.5445 83.6389 70.9707 82.9785 71.708C81.2528 73.6308 79.8556 75.8246 78.8428 78.2014C78.4588 79.1115 78.2514 79.6913 78.2207 79.6837C78.2409 79.5397 78.2757 79.3982 78.3244 79.2613C78.4012 78.9925 78.5317 78.6123 78.7084 78.1477C79.6583 75.7217 81.0722 73.5044 82.8709 71.6197C83.2165 71.2587 83.5045 70.9822 83.7157 70.7979C83.8201 70.6934 83.9346 70.5995 84.0575 70.5176Z" fill="#263238"/>
<path d="M133.551 78.2822C133.437 78.1895 133.334 78.0839 133.244 77.9673L132.449 77.0841C131.773 76.343 130.817 75.3331 129.734 74.2502C128.651 73.1673 127.637 72.215 126.892 71.543L126.005 70.7481C125.889 70.6583 125.783 70.5552 125.69 70.4409C125.822 70.5067 125.945 70.5893 126.055 70.6867C126.282 70.8556 126.601 71.1091 126.985 71.4355C127.753 72.0844 128.785 73.0252 129.872 74.1235C130.959 75.2217 131.904 76.2355 132.56 77.0073C132.887 77.3913 133.14 77.71 133.328 77.9328C133.416 78.0404 133.49 78.1576 133.551 78.2822Z" fill="#263238"/>
<path d="M85.7012 75.5249L88.2164 76.8804L93.7959 78.4625C93.7959 78.4625 92.6439 86.0964 91.9181 86.7492C91.1924 87.402 83.04 80.5438 83.04 80.5438L85.7012 75.5249Z" fill="#FFBE9D"/>
<path d="M123.736 75.0679L121.919 76.481L116.686 78.9732C116.686 78.9732 119.105 86.3037 119.919 86.8259C120.733 87.3482 127.637 79.2304 127.637 79.2304L123.736 75.0679Z" fill="#FFBE9D"/>
<path d="M97.9697 19.9678C97.8967 21.9339 95.2817 23.1243 95.3124 25.0903C95.3124 25.9313 95.85 26.6916 95.9537 27.5287C96.0919 28.6539 95.4622 29.7137 95.2279 30.8235C94.7518 33.1275 96.0804 35.5236 98.0542 36.7755C100.028 38.0273 102.501 38.2654 104.816 37.9505" fill="#263238"/>
<path d="M113.783 19.4995C113.706 20.5555 114.401 21.4963 115.104 22.2874C115.807 23.0784 116.586 23.904 116.736 24.96C117.005 26.8147 115.2 28.535 115.565 30.3744C115.764 31.3574 116.571 32.1485 116.717 33.143C116.863 34.1376 116.333 35.063 115.703 35.7773C115.073 36.4915 114.324 36.3994 113.76 37.1904C113.103 38.0782 112.269 38.8196 111.31 39.3677C109.275 40.4851 106.833 38.8723 105.85 38.5997" fill="#263238"/>
<path d="M97.5739 21.1199C97.5471 20.1637 98.4302 19.4226 99.3211 19.0732C100.212 18.7237 101.203 18.5932 102.009 18.0556C102.712 17.5832 103.184 16.846 103.779 16.2431C104.513 15.4999 105.431 14.965 106.439 14.6931C107.447 14.4212 108.51 14.422 109.518 14.6954C110.525 14.9689 111.442 15.5051 112.175 16.2494C112.907 16.9936 113.429 17.9191 113.687 18.9311C114.028 20.2904 113.794 21.9032 112.719 22.8056C111.475 23.8578 109.628 23.6236 108.03 23.2972C106.433 22.9708 104.613 22.6559 103.296 23.5928C102.493 24.1612 102.032 25.0789 101.541 25.9314C101.049 26.7839 100.431 27.6517 99.5016 27.9704C98.5723 28.2892 97.3128 27.74 97.2744 26.757" fill="#263238"/>
<path d="M101.345 21.3081C100.946 21.3513 100.578 21.5426 100.314 21.844C100.049 22.1455 99.9074 22.5353 99.9164 22.9363L100.873 44.544C100.911 47.0937 104.643 48.5299 107.378 48.4646C110.135 48.4032 110.227 47.0476 110.258 44.6246C110.315 40.5657 110.311 39.0451 110.315 39.0681C110.319 39.0912 113.798 38.4806 114.512 33.9302C114.866 31.6646 114.743 27.9552 114.547 24.9216C114.37 22.1952 112.554 18.8505 109.835 19.1424L101.345 21.3081Z" fill="#FFBE9D"/>
<path d="M113.103 27.5253C113.105 27.6771 113.048 27.8237 112.943 27.9335C112.838 28.0434 112.694 28.1078 112.542 28.1128C112.468 28.1191 112.394 28.1104 112.323 28.0874C112.252 28.0644 112.187 28.0275 112.131 27.9788C112.075 27.9301 112.029 27.8707 111.996 27.804C111.963 27.7373 111.944 27.6647 111.94 27.5905C111.937 27.4364 111.996 27.2877 112.104 27.1769C112.211 27.0661 112.358 27.0022 112.512 26.9992C112.585 26.9945 112.659 27.0044 112.728 27.0284C112.798 27.0524 112.862 27.0899 112.917 27.1388C112.972 27.1878 113.017 27.2471 113.049 27.3134C113.081 27.3798 113.099 27.4518 113.103 27.5253Z" fill="#263238"/>
<path d="M113.748 26.8566C113.675 26.9296 113.23 26.6032 112.596 26.607C111.963 26.6109 111.51 26.9257 111.444 26.8489C111.379 26.7721 111.483 26.6761 111.686 26.5302C111.956 26.341 112.278 26.2403 112.608 26.2422C112.934 26.2418 113.253 26.3439 113.518 26.5341C113.718 26.6838 113.783 26.8221 113.748 26.8566Z" fill="#263238"/>
<path d="M107.009 27.5251C107.011 27.677 106.954 27.8236 106.849 27.9334C106.744 28.0433 106.6 28.1076 106.449 28.1126C106.375 28.1189 106.3 28.1103 106.229 28.0873C106.159 28.0643 106.093 28.0274 106.037 27.9787C105.981 27.93 105.935 27.8706 105.902 27.8039C105.869 27.7372 105.85 27.6646 105.846 27.5904C105.844 27.4382 105.901 27.2912 106.006 27.1807C106.111 27.0702 106.254 27.005 106.406 26.999C106.481 26.9928 106.556 27.0015 106.627 27.0248C106.698 27.048 106.763 27.0853 106.819 27.1343C106.876 27.1834 106.921 27.2433 106.954 27.3104C106.987 27.3776 107.005 27.4506 107.009 27.5251Z" fill="#263238"/>
<path d="M107.574 26.9876C107.501 27.0606 107.059 26.738 106.422 26.738C105.785 26.738 105.331 27.0568 105.27 26.98C105.209 26.9032 105.308 26.811 105.508 26.6612C105.779 26.4724 106.103 26.373 106.433 26.3771C106.76 26.374 107.078 26.4749 107.344 26.6651C107.543 26.8148 107.609 26.9531 107.574 26.9876Z" fill="#263238"/>
<path d="M109.862 31.6377C110.194 31.5344 110.537 31.4712 110.883 31.4495C111.045 31.4495 111.195 31.4035 111.221 31.2921C111.234 31.1262 111.197 30.9602 111.114 30.8159C110.96 30.4319 110.803 30.0249 110.638 29.5987C109.973 27.8591 109.486 26.4345 109.566 26.4076C109.647 26.3807 110.231 27.767 110.891 29.5027C111.049 29.9327 111.202 30.3398 111.348 30.7315C111.449 30.9249 111.479 31.1479 111.433 31.3612C111.41 31.4186 111.375 31.4699 111.329 31.5106C111.283 31.5514 111.227 31.5805 111.168 31.5955C111.08 31.6198 110.99 31.6327 110.899 31.6339C110.555 31.6774 110.206 31.6786 109.862 31.6377Z" fill="#263238"/>
<path d="M110.316 39.0679C108.173 39.1048 106.062 38.5465 104.218 37.4551C104.268 37.4551 105.896 40.6192 110.254 40.1431L110.316 39.0679Z" fill="#EB996E"/>
<path d="M109.601 33.1504C109.48 33.0019 109.324 32.8859 109.147 32.8128C108.97 32.7397 108.778 32.7119 108.587 32.7319C108.449 32.7455 108.314 32.7864 108.192 32.8523C108.069 32.9182 107.961 33.0078 107.873 33.1159C107.784 33.2222 107.732 33.3541 107.724 33.4923C107.716 33.6305 107.752 33.7677 107.827 33.8839C107.928 33.9953 108.06 34.0743 108.207 34.1112C108.353 34.148 108.506 34.1411 108.649 34.0912C108.943 33.9786 109.211 33.809 109.44 33.592C109.51 33.541 109.57 33.4772 109.616 33.4039C109.64 33.37 109.652 33.3298 109.652 33.2887C109.652 33.2476 109.64 33.2074 109.616 33.1735" fill="#9255FA"/>
<path d="M108.016 32.0753C108.119 32.0753 108.123 32.7511 108.707 33.2273C109.29 33.7034 110.016 33.6113 110.02 33.7265C110.024 33.8417 109.859 33.8609 109.555 33.8685C109.155 33.8749 108.766 33.7388 108.457 33.4845C108.159 33.2427 107.968 32.8941 107.923 32.513C107.904 32.2557 107.969 32.0714 108.016 32.0753Z" fill="#263238"/>
<path d="M107.854 25.8854C107.793 26.0582 107.167 25.9776 106.429 26.0659C105.692 26.1542 105.097 26.3616 105.001 26.208C104.955 26.135 105.059 25.9737 105.3 25.824C105.619 25.6188 105.982 25.4899 106.358 25.4473C106.735 25.4047 107.117 25.4495 107.474 25.5782C107.747 25.6704 107.881 25.8048 107.854 25.8854Z" fill="#263238"/>
<path d="M113.51 25.0368C113.403 25.1828 112.969 25.0368 112.45 25.0368C111.932 25.0368 111.487 25.1328 111.387 24.9869C111.341 24.914 111.41 24.768 111.602 24.6336C111.86 24.4709 112.161 24.3887 112.466 24.3976C112.771 24.4065 113.066 24.5061 113.314 24.6836C113.499 24.8218 113.56 24.96 113.51 25.0368Z" fill="#263238"/>
<path d="M99.4216 36.5299C100.673 36.7833 100.785 36.1459 101.726 35.278C102.189 34.8391 102.544 34.2983 102.763 33.6985C102.981 33.0987 103.058 32.4563 102.985 31.822C102.843 30.7046 102.24 29.568 102.628 28.5081C103.139 27.1104 105.101 26.6803 105.619 25.2864C105.923 24.4723 105.65 23.5238 106.003 22.7289C106.357 21.934 107.113 21.5539 107.877 21.2774C108.641 21.0009 109.463 20.8089 110.108 20.3097C110.753 19.8105 111.149 18.8659 110.734 18.167C107.336 18.5742 103.999 19.385 100.793 20.5824C100.051 20.8588 99.2565 21.1929 98.8341 21.8534C98.4117 22.5139 98.3887 23.4547 98.4309 24.2918C98.6203 28.3878 98.8098 32.4736 98.9992 36.5491" fill="#263238"/>
<path d="M96.5567 27.2639C96.4852 26.5069 96.1684 25.7939 95.6546 25.2334C95.1408 24.6729 94.458 24.2955 93.71 24.1586C92.9621 24.0217 92.1899 24.1328 91.5108 24.475C90.8318 24.8171 90.283 25.3717 89.948 26.0543C89.3183 27.3407 89.5372 28.9036 90.1285 30.2092C90.8274 31.7452 92.2636 33.1737 93.9685 33.0969C95.5698 33.0239 96.8562 31.6223 97.317 30.0863C97.7778 28.5503 97.5935 26.9106 97.4015 25.3209" fill="#263238"/>
<path d="M95.6654 33.4808C95.569 33.4093 95.4881 33.3192 95.4273 33.2159C95.2486 32.9413 95.1332 32.6304 95.0894 32.3058C95.0223 31.8268 95.0366 31.34 95.1316 30.8658C95.2238 30.332 95.4042 29.7714 95.5156 29.1762C95.6611 28.6266 95.695 28.0534 95.6154 27.4904C95.5233 26.9835 95.2814 26.5535 95.1777 26.1541C95.0755 25.8396 95.0662 25.5023 95.1508 25.1826C95.2238 24.956 95.3198 24.8639 95.3274 24.8715C95.3351 24.8792 95.2698 24.9867 95.2276 25.2018C95.1774 25.5074 95.2065 25.8207 95.3121 26.1119C95.4997 26.5499 95.6613 26.9987 95.7959 27.4559C95.8912 28.0428 95.8625 28.6433 95.7114 29.2184C95.577 29.8251 95.3927 30.3704 95.2929 30.9003C95.1938 31.3553 95.1653 31.8229 95.2084 32.2866C95.2731 32.7129 95.429 33.1202 95.6654 33.4808Z" fill="#455A64"/>
<path d="M95.6157 28.0321C95.4359 28.3085 95.1973 28.5419 94.9169 28.7156C94.2613 29.1775 93.4822 29.4318 92.6804 29.4455C91.8786 29.4592 91.0911 29.2317 90.4202 28.7924C90.1358 28.6286 89.8907 28.4045 89.7021 28.1357C89.7252 28.1089 89.9863 28.3777 90.497 28.6733C91.158 29.0612 91.9131 29.2592 92.6793 29.2457C93.4456 29.2321 94.1932 29.0075 94.8401 28.5965C95.3239 28.2701 95.5773 27.9898 95.6157 28.0321Z" fill="#455A64"/>
<path d="M95.3737 28.7267C95.2943 28.9879 95.1638 29.2307 94.9897 29.4409C94.5999 29.9749 94.1073 30.4257 93.5408 30.7666C92.9743 31.1075 92.3455 31.3318 91.6911 31.4262C91.4238 31.4807 91.1482 31.4807 90.8809 31.4262C91.1404 31.3632 91.4032 31.3145 91.6681 31.2803C92.2925 31.1501 92.8908 30.9165 93.4383 30.5891C93.9831 30.259 94.4696 29.8412 94.8783 29.3526C95.1893 28.9801 95.3468 28.7113 95.3737 28.7267Z" fill="#455A64"/>
<path d="M96.5222 35.0014C96.5222 35.0014 96.503 35.0014 96.4723 34.9477C96.4254 34.8896 96.383 34.828 96.3456 34.7633C96.199 34.5184 96.0975 34.2492 96.046 33.9685C95.9602 33.5212 95.9853 33.0598 96.119 32.6245C96.2914 32.0386 96.6672 31.5334 97.1788 31.1998C97.7164 30.8158 98.4192 30.5547 98.8684 29.948C98.9808 29.7966 99.0606 29.6236 99.1029 29.4399C99.1452 29.2562 99.1491 29.0657 99.1142 28.8805C99.0273 28.4753 98.8986 28.0802 98.7302 27.7016C98.5517 27.269 98.4646 26.8041 98.4745 26.3362C98.4844 25.8683 98.5911 25.4075 98.7878 24.9829C98.994 24.5268 99.3124 24.1305 99.7132 23.8309C100.131 23.5397 100.606 23.342 101.107 23.251C101.599 23.1397 102.09 23.0744 102.547 22.9361C102.994 22.8159 103.404 22.5877 103.741 22.2718C104.046 21.9442 104.231 21.5235 104.267 21.0776C104.309 20.6331 104.379 20.1918 104.479 19.7566C104.681 18.9385 105.106 18.1926 105.707 17.6024C106.235 17.0953 106.905 16.7605 107.627 16.6424C108.152 16.5533 108.691 16.6142 109.182 16.8181C109.673 17.0219 110.097 17.3603 110.404 17.7944C110.567 18.0269 110.687 18.2871 110.757 18.5624C110.785 18.6572 110.801 18.7553 110.803 18.8542C110.716 18.4879 110.558 18.1422 110.339 17.8366C110.075 17.485 109.732 17.2019 109.336 17.011C108.811 16.7607 108.22 16.6815 107.647 16.7845C106.953 16.9037 106.312 17.2304 105.807 17.7214C105.241 18.2975 104.843 19.0171 104.655 19.8027C104.558 20.2368 104.488 20.6768 104.448 21.1198C104.407 21.6062 104.205 22.0653 103.876 22.4254C103.511 22.7648 103.068 23.0088 102.586 23.1358C102.109 23.2817 101.614 23.347 101.134 23.4584C100.659 23.5445 100.208 23.7289 99.8092 23.9998C99.4361 24.279 99.139 24.6474 98.9452 25.0712C98.7593 25.4723 98.6579 25.9073 98.6473 26.3493C98.6367 26.7912 98.7172 27.2306 98.8838 27.6401C99.0552 28.0309 99.184 28.439 99.2678 28.8574C99.3051 29.0653 99.2991 29.2787 99.2502 29.4842C99.2013 29.6897 99.1106 29.8828 98.9836 30.0517C98.4844 30.7045 97.7625 30.9579 97.2403 31.3227C96.748 31.6328 96.3819 32.1078 96.2073 32.6629C96.0691 33.0796 96.0335 33.5235 96.1036 33.9569C96.1757 34.3285 96.3177 34.683 96.5222 35.0014Z" fill="#455A64"/>
<path d="M96.8249 22.2988C96.7909 22.2333 96.7713 22.1613 96.7673 22.0876C96.7516 21.8753 96.8055 21.6636 96.9209 21.4847C97.1001 21.1955 97.3702 20.974 97.6889 20.855C98.1118 20.7202 98.5638 20.7056 98.9945 20.8127C99.4707 20.9049 99.966 21.093 100.507 21.1967C100.784 21.2741 101.075 21.2911 101.359 21.2467C101.643 21.2024 101.915 21.0976 102.155 20.9394C102.639 20.5554 102.881 19.9334 103.126 19.3036C103.376 18.6274 103.731 17.9949 104.179 17.4297C105.049 16.3216 106.266 15.5373 107.635 15.2025C108.234 15.061 108.859 15.0769 109.451 15.2486C109.963 15.4118 110.418 15.7167 110.764 16.1279C111.056 16.466 111.232 16.8884 111.267 17.3337C111.299 17.6662 111.247 18.0013 111.117 18.309C111.04 18.5033 110.924 18.6797 110.776 18.8274C110.728 18.8834 110.671 18.9303 110.607 18.9657C110.794 18.7673 110.943 18.5354 111.044 18.2822C111.155 17.983 111.193 17.6619 111.156 17.3452C111.113 16.9267 110.938 16.5326 110.657 16.2201C110.315 15.8419 109.875 15.5666 109.386 15.4252C108.82 15.2717 108.224 15.2625 107.654 15.3983C106.336 15.7375 105.168 16.5014 104.328 17.5718C103.891 18.1138 103.542 18.7217 103.295 19.3727C103.042 20.0025 102.792 20.6745 102.251 21.0854C101.99 21.2812 101.678 21.3984 101.352 21.4233C101.054 21.446 100.754 21.4253 100.461 21.3618C99.9008 21.2428 99.4131 21.047 98.9523 20.951C98.5465 20.8386 98.1178 20.8386 97.712 20.951C97.4132 21.0555 97.1561 21.2534 96.9785 21.5154C96.8632 21.6796 96.8015 21.8754 96.8019 22.0761C96.8096 22.2258 96.8364 22.295 96.8249 22.2988Z" fill="#455A64"/>
<path d="M160.086 174.309C160.104 174.255 160.126 174.202 160.151 174.151C160.201 174.04 160.274 173.894 160.362 173.702C160.618 173.123 160.825 172.523 160.981 171.909C161.473 169.621 161.455 167.253 160.927 164.974C160.6 163.396 160.171 161.841 159.641 160.32C159.095 158.665 158.466 156.91 157.947 155.017C157.363 153.038 157.082 150.982 157.114 148.919C157.191 146.765 157.828 144.61 158.531 142.468C159.233 140.325 159.955 138.224 160.174 136.116C160.42 134.088 160.016 132.034 159.022 130.249C158.093 128.536 156.926 127.069 156.05 125.552C155.233 124.146 154.631 122.625 154.265 121.04C153.736 118.745 153.697 116.364 154.149 114.052C154.311 113.207 154.555 112.38 154.879 111.583C154.87 111.639 154.856 111.694 154.837 111.748C154.798 111.863 154.752 112.02 154.687 112.22C154.56 112.639 154.395 113.257 154.234 114.067C153.819 116.368 153.882 118.73 154.418 121.006C154.792 122.571 155.396 124.073 156.211 125.46C157.083 126.958 158.258 128.417 159.203 130.149C160.227 131.967 160.648 134.063 160.405 136.135C160.186 138.282 159.456 140.394 158.757 142.537C158.058 144.679 157.425 146.807 157.344 148.927C157.315 150.968 157.59 153.003 158.162 154.963C158.669 156.848 159.314 158.603 159.833 160.258C160.356 161.791 160.778 163.356 161.096 164.943C161.683 167.865 161.518 170.319 161.096 171.932C160.929 172.547 160.707 173.146 160.432 173.721C160.336 173.91 160.259 174.055 160.201 174.163C160.169 174.216 160.13 174.265 160.086 174.309Z" fill="#263238"/>
<path d="M157.225 127.05C157.225 127.05 155.447 121.367 158.634 118.041C158.659 118.014 158.691 117.995 158.726 117.985C158.762 117.975 158.799 117.975 158.834 117.986C158.87 117.996 158.901 118.016 158.926 118.044C158.95 118.071 158.966 118.105 158.972 118.141C159.141 119.078 159.36 121.935 157.225 127.05Z" fill="#9255FA"/>
<path d="M158.289 119.935C158.284 120.287 158.244 120.638 158.17 120.983C158.051 121.705 157.913 122.553 157.763 123.49L157.379 125.994C157.351 126.345 157.288 126.692 157.191 127.031C157.162 126.679 157.174 126.324 157.226 125.975C157.283 125.326 157.398 124.439 157.56 123.452C157.721 122.465 157.89 121.59 158.028 120.956C158.076 120.607 158.164 120.264 158.289 119.935Z" fill="#263238"/>
<path d="M159.311 140.452C159.311 140.452 160.397 134.596 164.771 133.156C164.805 133.143 164.842 133.141 164.878 133.148C164.913 133.156 164.946 133.173 164.973 133.198C164.999 133.223 165.018 133.255 165.027 133.29C165.036 133.326 165.035 133.363 165.024 133.398C164.736 134.3 163.584 136.926 159.311 140.452Z" fill="#9255FA"/>
<path d="M163.585 134.661C163.413 134.969 163.212 135.259 162.986 135.529L161.45 137.556L159.914 139.584C159.723 139.879 159.505 140.157 159.265 140.413C159.398 140.087 159.572 139.778 159.783 139.496C160.14 138.947 160.659 138.213 161.261 137.422C161.864 136.631 162.413 135.928 162.844 135.433C163.058 135.146 163.307 134.887 163.585 134.661Z" fill="#263238"/>
<path d="M158.128 155.136C158.128 155.136 157.467 149.222 161.23 146.565C161.259 146.542 161.294 146.529 161.331 146.525C161.367 146.522 161.404 146.529 161.437 146.545C161.47 146.562 161.497 146.587 161.516 146.618C161.536 146.649 161.546 146.685 161.545 146.722C161.534 147.675 161.196 150.528 158.128 155.136Z" fill="#9255FA"/>
<path d="M160.531 148.351C160.457 148.695 160.351 149.032 160.212 149.357C159.963 150.044 159.663 150.85 159.337 151.741C159.01 152.632 158.719 153.439 158.469 154.126C158.374 154.464 158.245 154.792 158.085 155.105C158.123 154.754 158.202 154.409 158.319 154.076C158.5 153.45 158.784 152.594 159.129 151.665C159.475 150.735 159.809 149.898 160.066 149.299C160.187 148.967 160.342 148.649 160.531 148.351Z" fill="#263238"/>
<path d="M161.422 169.904C161.422 169.904 160.973 163.968 164.832 161.456C164.863 161.437 164.898 161.426 164.934 161.425C164.97 161.424 165.006 161.433 165.038 161.45C165.069 161.468 165.095 161.494 165.113 161.526C165.131 161.557 165.14 161.593 165.139 161.629C165.093 162.57 164.656 165.4 161.422 169.904Z" fill="#9255FA"/>
<path d="M164.068 163.2C163.981 163.541 163.863 163.874 163.715 164.194C163.434 164.87 163.112 165.665 162.751 166.544C162.39 167.424 162.075 168.219 161.798 168.894C161.692 169.23 161.552 169.555 161.38 169.862C161.431 169.512 161.522 169.169 161.653 168.841C161.856 168.222 162.167 167.378 162.547 166.46C162.927 165.542 163.288 164.72 163.569 164.133C163.699 163.804 163.866 163.491 164.068 163.2Z" fill="#263238"/>
<path d="M154.672 122.058C154.672 122.058 149.392 119.301 149.296 114.697C149.295 114.66 149.305 114.624 149.323 114.593C149.342 114.561 149.368 114.535 149.4 114.518C149.432 114.5 149.469 114.492 149.505 114.494C149.541 114.496 149.577 114.507 149.607 114.528C150.383 115.069 152.556 116.935 154.672 122.058Z" fill="#9255FA"/>
<path d="M150.386 116.279C150.631 116.532 150.851 116.808 151.042 117.104C151.472 117.696 151.975 118.391 152.528 119.163C153.081 119.934 153.592 120.622 154.022 121.213C154.248 121.483 154.45 121.772 154.625 122.077C154.353 121.852 154.109 121.594 153.899 121.309C153.481 120.81 152.928 120.1 152.363 119.289C151.799 118.479 151.28 117.753 150.927 117.193C150.713 116.909 150.531 116.603 150.386 116.279Z" fill="#263238"/>
<path d="M160.335 134.261C160.335 134.261 154.902 131.831 154.518 127.238C154.514 127.202 154.52 127.165 154.536 127.133C154.552 127.1 154.577 127.072 154.607 127.053C154.638 127.033 154.674 127.022 154.71 127.022C154.746 127.022 154.782 127.031 154.813 127.05C155.631 127.545 157.912 129.277 160.335 134.261Z" fill="#9255FA"/>
<path d="M155.708 128.751C155.969 128.983 156.205 129.24 156.415 129.519L158.024 131.481L159.64 133.44C159.882 133.696 160.1 133.974 160.293 134.269C160.008 134.06 159.75 133.816 159.525 133.543C159.076 133.071 158.484 132.391 157.855 131.623C157.225 130.855 156.672 130.176 156.288 129.63C156.061 129.36 155.867 129.065 155.708 128.751Z" fill="#263238"/>
<path d="M157.21 147.871C157.21 147.871 153.477 143.232 155.228 138.97C155.241 138.936 155.264 138.906 155.293 138.884C155.322 138.862 155.357 138.849 155.393 138.846C155.43 138.843 155.466 138.85 155.499 138.866C155.531 138.883 155.559 138.908 155.578 138.939C156.081 139.749 157.321 142.33 157.21 147.871Z" fill="#9255FA"/>
<path d="M155.597 140.859C155.723 141.189 155.814 141.531 155.869 141.88C156.027 142.595 156.207 143.416 156.411 144.361L156.956 146.838C157.054 147.175 157.122 147.521 157.16 147.871C157.002 147.555 156.882 147.221 156.802 146.876C156.618 146.25 156.418 145.379 156.192 144.407C155.965 143.436 155.808 142.552 155.716 141.907C155.637 141.563 155.597 141.212 155.597 140.859Z" fill="#263238"/>
<path d="M160.896 163.887C160.896 163.887 155.52 161.364 155.198 156.768C155.195 156.732 155.202 156.695 155.219 156.663C155.236 156.631 155.261 156.604 155.292 156.585C155.323 156.567 155.359 156.557 155.395 156.557C155.431 156.557 155.467 156.568 155.497 156.587C156.315 157.094 158.565 158.864 160.896 163.887Z" fill="#9255FA"/>
<path d="M156.369 158.3C156.627 158.542 156.86 158.81 157.064 159.099L158.642 161.088L160.221 163.069C160.46 163.329 160.675 163.61 160.862 163.91C160.577 163.696 160.319 163.449 160.094 163.173C159.656 162.693 159.073 162.021 158.458 161.226C157.844 160.431 157.306 159.724 156.922 159.191C156.706 158.915 156.52 158.616 156.369 158.3Z" fill="#263238"/>
<path d="M171.649 140.483C171.653 140.526 171.653 140.57 171.649 140.613C171.649 140.717 171.649 140.844 171.649 140.997C171.649 141.354 171.61 141.838 171.583 142.441L171.303 147.594C170.919 149.748 169.821 152.133 168.35 154.452C167.267 156.161 166.134 157.713 165.159 159.156C164.269 160.416 163.469 161.738 162.767 163.112C162.304 164.042 161.928 165.014 161.645 166.015C161.549 166.368 161.48 166.648 161.438 166.836C161.422 166.935 161.396 167.031 161.361 167.124C161.362 167.025 161.374 166.926 161.396 166.829C161.423 166.633 161.48 166.353 161.561 165.992C161.813 164.974 162.169 163.986 162.625 163.043C163.313 161.653 164.102 160.315 164.986 159.041C165.958 157.586 167.087 156.035 168.162 154.333C169.625 152.029 170.716 149.676 171.115 147.556C171.265 145.444 171.388 143.674 171.476 142.406C171.526 141.807 171.564 141.324 171.595 140.966C171.595 140.817 171.622 140.69 171.633 140.582C171.645 140.475 171.649 140.483 171.649 140.483Z" fill="#263238"/>
<path d="M168.434 154.022C168.434 154.022 170.719 148.523 167.846 144.921C167.824 144.892 167.795 144.869 167.761 144.856C167.726 144.843 167.689 144.839 167.653 144.846C167.617 144.853 167.584 144.87 167.557 144.895C167.53 144.919 167.511 144.951 167.501 144.987C167.247 145.92 166.775 148.734 168.434 154.022Z" fill="#9255FA"/>
<path d="M168.02 146.837C168.118 147.177 168.179 147.526 168.2 147.878C168.281 148.523 168.373 149.414 168.442 150.409C168.511 151.403 168.55 152.302 168.55 152.951C168.568 153.304 168.546 153.658 168.484 154.007C168.421 153.661 168.39 153.31 168.392 152.958C168.342 152.229 168.285 151.372 168.219 150.424C168.154 149.475 168.097 148.623 168.043 147.893C168 147.543 167.993 147.189 168.02 146.837Z" fill="#263238"/>
<g opacity="0.3">
<path d="M168.434 154.022C168.434 154.022 170.719 148.523 167.846 144.921C167.824 144.892 167.795 144.869 167.761 144.856C167.726 144.843 167.689 144.839 167.653 144.846C167.617 144.853 167.584 144.87 167.557 144.895C167.53 144.919 167.511 144.951 167.501 144.987C167.247 145.92 166.775 148.734 168.434 154.022Z" fill="black"/>
</g>
<path d="M161.361 167.27C161.361 167.27 163.192 161.602 160.036 158.246C160.011 158.219 159.98 158.199 159.944 158.189C159.909 158.179 159.872 158.179 159.837 158.189C159.802 158.199 159.77 158.219 159.745 158.246C159.721 158.273 159.704 158.306 159.698 158.342C159.517 159.279 159.279 162.132 161.361 167.27Z" fill="#9255FA"/>
<path d="M160.367 160.128C160.49 160.458 160.578 160.801 160.632 161.149C160.762 161.787 160.927 162.685 161.077 163.653C161.227 164.621 161.334 165.531 161.388 166.18C161.438 166.53 161.444 166.884 161.407 167.236C161.318 166.895 161.259 166.546 161.231 166.195C161.123 165.473 160.996 164.625 160.847 163.688C160.697 162.751 160.574 161.902 160.463 161.176C160.395 160.831 160.362 160.48 160.367 160.128Z" fill="#263238"/>
<g opacity="0.3">
<path d="M161.361 167.27C161.361 167.27 163.192 161.602 160.036 158.246C160.011 158.219 159.98 158.199 159.944 158.189C159.909 158.179 159.872 158.179 159.837 158.189C159.802 158.199 159.77 158.219 159.745 158.246C159.721 158.273 159.704 158.306 159.698 158.342C159.517 159.279 159.279 162.132 161.361 167.27Z" fill="black"/>
</g>
<path d="M171.345 147.302C171.345 147.302 176.222 143.888 175.73 139.307C175.727 139.271 175.713 139.237 175.691 139.208C175.669 139.179 175.64 139.156 175.606 139.143C175.572 139.13 175.535 139.127 175.499 139.133C175.464 139.14 175.431 139.156 175.404 139.181C174.693 139.818 172.8 141.949 171.345 147.302Z" fill="#9255FA"/>
<g opacity="0.3">
<path d="M171.345 147.302C171.345 147.302 176.222 143.888 175.73 139.307C175.727 139.271 175.713 139.237 175.691 139.208C175.669 139.179 175.64 139.156 175.606 139.143C175.572 139.13 175.535 139.127 175.499 139.133C175.464 139.14 175.431 139.156 175.404 139.181C174.693 139.818 172.8 141.949 171.345 147.302Z" fill="black"/>
</g>
<path d="M174.847 141.02C174.747 141.358 174.61 141.684 174.44 141.992C174.163 142.583 173.76 143.385 173.288 144.261C172.815 145.137 172.362 145.912 172.013 146.461C171.841 146.771 171.632 147.058 171.391 147.318C171.522 146.991 171.684 146.677 171.874 146.381C172.228 145.739 172.642 144.987 173.092 144.153L174.301 141.922C174.451 141.604 174.634 141.301 174.847 141.02Z" fill="#263238"/>
<path d="M163.327 161.664C163.327 161.664 169.21 160.746 170.784 156.418C170.798 156.384 170.802 156.347 170.795 156.311C170.789 156.275 170.773 156.242 170.748 156.215C170.724 156.188 170.692 156.168 170.657 156.158C170.622 156.148 170.585 156.147 170.55 156.157C169.632 156.407 166.975 157.482 163.327 161.664Z" fill="#9255FA"/>
<g opacity="0.3">
<path d="M163.327 161.664C163.327 161.664 169.21 160.746 170.784 156.418C170.798 156.384 170.802 156.347 170.795 156.311C170.789 156.275 170.773 156.242 170.748 156.215C170.724 156.188 170.692 156.168 170.657 156.158C170.622 156.148 170.585 156.147 170.55 156.157C169.632 156.407 166.975 157.482 163.327 161.664Z" fill="black"/>
</g>
<path d="M169.24 157.555C169.001 157.815 168.735 158.048 168.446 158.25C167.939 158.657 167.221 159.199 166.414 159.786C165.608 160.374 164.855 160.858 164.298 161.199C164.008 161.4 163.695 161.566 163.365 161.695C163.627 161.461 163.91 161.252 164.21 161.069L166.284 159.602L168.353 158.131C168.628 157.908 168.925 157.715 169.24 157.555Z" fill="#263238"/>
<path d="M157.716 172.477L156 184.024H166.694L165.308 172.477H157.716Z" fill="#455A64"/>
<path d="M165.735 176.056C164.3 176.168 162.861 176.205 161.423 176.168C159.984 176.205 158.545 176.168 157.11 176.056C158.545 175.945 159.984 175.908 161.423 175.945C162.861 175.908 164.3 175.945 165.735 176.056Z" fill="#263238"/>
<path d="M165.946 176.974C165.946 177.035 163.953 177.085 161.496 177.085C159.038 177.085 157.057 177.024 157.057 176.974C157.057 176.924 159.05 176.862 161.511 176.862C163.972 176.862 165.946 176.912 165.946 176.974Z" fill="#263238"/>
<path d="M30.3673 162.946C30.9079 163.038 31.4246 163.237 31.8864 163.533C32.3482 163.828 32.7458 164.214 33.0553 164.667C33.667 165.58 34.0611 166.622 34.2073 167.712C34.5568 169.801 33.9923 172.174 33.2166 174.148C31.0854 173.145 29.9487 170.665 29.4534 169.367C28.6854 167.32 28.4934 163.138 30.3519 162.946" fill="#9255FA"/>
<path d="M36.3729 177.089C36.052 176.566 35.8754 175.967 35.8613 175.353C35.8471 174.739 35.9958 174.132 36.2923 173.595C36.5967 173.062 37.0045 172.595 37.4918 172.222C37.9791 171.848 38.5361 171.576 39.13 171.421C39.3946 171.32 39.6781 171.278 39.9607 171.298C40.2433 171.318 40.5181 171.399 40.7659 171.536C40.9738 171.702 41.1336 171.919 41.2289 172.167C41.3241 172.415 41.3512 172.684 41.3073 172.946C41.2114 173.469 40.9796 173.957 40.6353 174.363C39.5255 175.799 38.1854 176.982 36.3729 177.089Z" fill="#9255FA"/>
<path d="M35.8353 183.709C35.7908 183.568 35.7675 183.42 35.7662 183.272C35.7355 182.987 35.7009 182.573 35.6702 182.062C35.5731 180.726 35.6558 179.383 35.916 178.068C36.1889 176.74 36.815 175.511 37.7285 174.509C38.0112 174.216 38.3284 173.958 38.6731 173.741C38.7897 173.654 38.9193 173.587 39.0571 173.541C38.6214 173.868 38.2142 174.232 37.8398 174.628C36.986 175.632 36.3984 176.835 36.131 178.126C35.8786 179.422 35.7755 180.743 35.8238 182.062C35.8607 182.61 35.8646 183.16 35.8353 183.709Z" fill="#263238"/>
<path d="M30.8623 166.118C30.9721 166.338 31.0621 166.566 31.1311 166.802C31.2885 167.247 31.5151 167.892 31.7724 168.695C32.2946 170.3 32.982 172.535 33.6924 175.012C34.4028 177.488 34.9711 179.754 35.3589 181.398C35.5548 182.219 35.7045 182.884 35.8044 183.348C35.8662 183.585 35.9086 183.826 35.9311 184.07C35.8395 183.843 35.7663 183.61 35.7122 183.371C35.5817 182.872 35.405 182.219 35.1977 181.451C34.7637 179.819 34.1609 177.565 33.4658 175.088C32.7708 172.612 32.1065 170.373 31.6226 168.756L31.0543 166.836C30.9705 166.603 30.9063 166.362 30.8623 166.118Z" fill="#263238"/>
<path d="M33.535 179.078C33.0034 177.898 32.198 176.861 31.1855 176.055C30.1731 175.248 28.9828 174.694 27.7136 174.439C27.0685 174.317 26.2736 174.332 25.9126 174.885C25.5517 175.438 25.8627 176.175 26.2505 176.705C27.0781 177.804 28.213 178.633 29.5117 179.087C30.8104 179.541 32.2146 179.599 33.5465 179.255" fill="#9255FA"/>
<path d="M28.416 176.298C28.5582 176.287 28.7012 176.301 28.8384 176.34C29.0045 176.363 29.1687 176.398 29.3299 176.444C29.5452 176.494 29.7568 176.558 29.9635 176.636C30.511 176.824 31.0374 177.068 31.5341 177.365C32.7583 178.092 33.7948 179.095 34.56 180.295C34.8653 180.781 35.1225 181.296 35.328 181.831C35.4093 182.038 35.4798 182.248 35.5392 182.461C35.5909 182.621 35.6307 182.784 35.6583 182.949C35.6983 183.086 35.7177 183.228 35.7159 183.371C35.6698 183.371 35.5546 182.784 35.1706 181.897C34.9463 181.378 34.6764 180.881 34.3642 180.411C33.9752 179.839 33.5315 179.306 33.0394 178.821C32.5384 178.345 31.9918 177.919 31.4074 177.55C30.9284 177.247 30.4218 176.989 29.8944 176.782C29.0151 176.44 28.416 176.34 28.416 176.298Z" fill="#263238"/>
<path d="M139.314 36.6449C139.314 36.7601 140.148 36.8523 141.173 36.8523C142.198 36.8523 143.032 36.7601 143.032 36.6449C143.032 36.5297 142.202 36.4414 141.173 36.4414C140.144 36.4414 139.314 36.5336 139.314 36.6449Z" fill="#9255FA"/>
<path d="M137.341 31.5879C137.226 31.5879 137.134 32.4327 137.134 33.4733C137.134 34.514 137.226 35.3626 137.341 35.3626C137.456 35.3626 137.545 34.5178 137.545 33.4733C137.545 32.4288 137.472 31.5879 137.341 31.5879Z" fill="#9255FA"/>
<path d="M135.237 36.5262C135.237 36.411 134.403 36.3188 133.378 36.3188C132.353 36.3188 131.52 36.411 131.52 36.5262C131.52 36.6414 132.349 36.7297 133.378 36.7297C134.407 36.7297 135.237 36.6376 135.237 36.5262Z" fill="#9255FA"/>
<path d="M137.21 41.5833C137.326 41.5833 137.418 40.7385 137.418 39.6979C137.418 38.6572 137.326 37.8086 137.21 37.8086C137.095 37.8086 137.007 38.6534 137.007 39.6979C137.007 40.7424 137.087 41.5833 137.21 41.5833Z" fill="#9255FA"/>
<path d="M134.208 39.4139C134.292 39.4869 134.661 39.1912 135.025 38.7535C135.39 38.3157 135.617 37.9048 135.529 37.8319C135.44 37.7589 135.075 38.0546 134.711 38.4885C134.346 38.9224 134.119 39.341 134.208 39.4139Z" fill="#9255FA"/>
<path d="M134.399 33.6768C134.319 33.7574 134.561 34.1337 134.941 34.5139C135.321 34.8941 135.69 35.1437 135.77 35.063C135.851 34.9824 135.609 34.6061 135.233 34.2259C134.856 33.8457 134.461 33.5961 134.399 33.6768Z" fill="#9255FA"/>
<path d="M138.643 35.1398C138.716 35.2242 139.065 35.0514 139.411 34.7558C139.756 34.4601 140.006 34.1414 139.933 34.0569C139.86 33.9724 139.51 34.1414 139.165 34.4409C138.819 34.7404 138.57 35.0514 138.643 35.1398Z" fill="#9255FA"/>
<path d="M138.807 37.6664C138.727 37.7432 138.934 38.1118 139.28 38.4882C139.625 38.8645 139.971 39.1102 140.048 39.0334C140.125 38.9566 139.921 38.588 139.575 38.2117C139.23 37.8354 138.892 37.5896 138.807 37.6664Z" fill="#9255FA"/>
<path d="M47.4199 80.9931C47.759 81.1095 48.1195 81.1502 48.4759 81.1121C48.8324 81.1502 49.1929 81.1095 49.5319 80.9931C49.1923 80.8791 48.8321 80.8398 48.4759 80.8779C48.1197 80.8398 47.7595 80.8791 47.4199 80.9931Z" fill="#9255FA"/>
<path d="M46.2988 78.1211C46.1452 78.8271 46.1452 79.5578 46.2988 80.2638C46.4575 79.5584 46.4575 78.8265 46.2988 78.1211Z" fill="#9255FA"/>
<path d="M45.1042 80.9242C44.7646 80.8102 44.4044 80.7709 44.0482 80.809C43.692 80.7709 43.3318 80.8102 42.9922 80.9242C43.3312 81.0407 43.6917 81.0813 44.0482 81.0432C44.4047 81.0813 44.7651 81.0407 45.1042 80.9242Z" fill="#9255FA"/>
<path d="M46.2256 83.7965C46.3843 83.0911 46.3843 82.3592 46.2256 81.6538C46.0719 82.3598 46.0719 83.0906 46.2256 83.7965Z" fill="#9255FA"/>
<path d="M44.5206 82.5601C44.5706 82.6023 44.7779 82.4334 44.9853 82.1761C45.1926 81.9188 45.3194 81.6923 45.2694 81.65C45.2195 81.6078 45.0122 81.7767 44.8048 82.034C44.5974 82.2913 44.4707 82.5255 44.5206 82.5601Z" fill="#9255FA"/>
<path d="M44.6161 79.3077C44.5739 79.3538 44.7083 79.565 44.9233 79.7838C45.1384 80.0027 45.3496 80.141 45.3957 80.0949C45.4417 80.0488 45.3073 79.8376 45.0923 79.6187C44.8773 79.3998 44.6622 79.2616 44.6161 79.3077Z" fill="#9255FA"/>
<path d="M47.04 80.1369C47.0784 80.1868 47.2781 80.0908 47.4854 79.918C47.6928 79.7452 47.8234 79.5686 47.7811 79.534C47.7389 79.4994 47.5392 79.5839 47.3357 79.7529C47.1322 79.9218 46.9978 80.087 47.04 80.1369Z" fill="#9255FA"/>
<path d="M47.132 81.5729C47.0859 81.6151 47.2049 81.8263 47.4008 82.0414C47.5966 82.2564 47.7848 82.3946 47.8424 82.3486C47.9 82.3025 47.7694 82.0951 47.5736 81.8839C47.3777 81.6727 47.1819 81.5306 47.132 81.5729Z" fill="#9255FA"/>
<path d="M141.23 103.757C141.926 103.91 142.647 103.91 143.342 103.757C142.647 103.598 141.926 103.598 141.23 103.757Z" fill="#9255FA"/>
<path d="M140.109 100.884C139.956 101.59 139.956 102.321 140.109 103.027C140.268 102.322 140.268 101.59 140.109 100.884Z" fill="#9255FA"/>
<path d="M138.916 103.68C138.221 103.521 137.499 103.521 136.804 103.68C137.499 103.834 138.22 103.834 138.916 103.68Z" fill="#9255FA"/>
<path d="M140.037 106.56C140.196 105.855 140.196 105.123 140.037 104.417C139.883 105.123 139.883 105.854 140.037 106.56Z" fill="#9255FA"/>
<path d="M138.332 105.327C138.382 105.37 138.589 105.201 138.797 104.943C139.004 104.686 139.131 104.463 139.081 104.421C139.031 104.379 138.824 104.548 138.616 104.805C138.409 105.062 138.282 105.285 138.332 105.327Z" fill="#9255FA"/>
<path d="M138.432 102.071C138.386 102.117 138.52 102.328 138.735 102.547C138.95 102.766 139.165 102.901 139.208 102.858C139.25 102.816 139.119 102.597 138.904 102.382C138.689 102.167 138.474 102.025 138.432 102.071Z" fill="#9255FA"/>
<path d="M140.851 102.912C140.889 102.962 141.089 102.862 141.296 102.693C141.503 102.524 141.634 102.343 141.592 102.309C141.549 102.274 141.35 102.359 141.146 102.528C140.943 102.697 140.808 102.85 140.851 102.912Z" fill="#9255FA"/>
<path d="M140.928 104.336C140.882 104.379 141.001 104.586 141.197 104.801C141.393 105.016 141.581 105.154 141.638 105.112C141.696 105.07 141.565 104.859 141.369 104.644C141.174 104.429 140.993 104.29 140.928 104.336Z" fill="#9255FA"/>
<path d="M63.5703 163.219C64.2646 163.373 64.9841 163.373 65.6785 163.219C64.9841 163.066 64.2646 163.066 63.5703 163.219Z" fill="#9255FA"/>
<path d="M62.4491 160.347C62.2904 161.052 62.2904 161.784 62.4491 162.489C62.6028 161.783 62.6028 161.053 62.4491 160.347Z" fill="#9255FA"/>
<path d="M61.2556 163.15C60.5599 162.996 59.8392 162.996 59.1436 163.15C59.8386 163.309 60.5605 163.309 61.2556 163.15Z" fill="#9255FA"/>
<path d="M62.3769 166.023C62.5305 165.317 62.5305 164.586 62.3769 163.88C62.2181 164.585 62.2181 165.317 62.3769 166.023Z" fill="#9255FA"/>
<path d="M60.6711 164.79C60.721 164.832 60.9283 164.663 61.1357 164.406C61.3431 164.148 61.4736 163.922 61.4237 163.88C61.3738 163.837 61.1664 164.006 60.9591 164.264C60.7517 164.521 60.6173 164.736 60.6711 164.79Z" fill="#9255FA"/>
<path d="M60.7677 161.533C60.7216 161.579 60.8598 161.791 61.0749 162.009C61.2899 162.228 61.5011 162.367 61.5472 162.32C61.5933 162.274 61.455 162.063 61.24 161.844C61.0249 161.625 60.8137 161.487 60.7677 161.533Z" fill="#9255FA"/>
<path d="M63.1866 162.363C63.2289 162.413 63.4286 162.317 63.6321 162.144C63.8356 161.971 63.97 161.795 63.9278 161.76C63.8855 161.726 63.6897 161.81 63.4823 161.979C63.275 162.148 63.1444 162.313 63.1866 162.363Z" fill="#9255FA"/>
<path d="M63.2826 163.799C63.2327 163.841 63.3556 164.052 63.5476 164.267C63.7396 164.482 63.9316 164.617 63.9892 164.575C64.0468 164.532 63.9162 164.321 63.7204 164.11C63.5246 163.899 63.3287 163.757 63.2826 163.799Z" fill="#9255FA"/>
<path d="M62.0345 65.4297L61.9116 65.7215C61.8067 65.9726 61.6534 66.2005 61.4603 66.3923C61.2673 66.584 61.0383 66.7358 60.7865 66.839L60.4678 66.9657L60.7711 67.0886C61.0314 67.1921 61.2679 67.3477 61.466 67.5457C61.6641 67.7438 61.8196 67.9803 61.9231 68.2406L62.0115 68.4518L62.1382 68.1868C62.3715 67.7019 62.7848 67.3272 63.2902 67.1423L63.5628 67.0425L63.2057 66.8658C62.7524 66.6469 62.3947 66.2701 62.1996 65.806L62.0345 65.4297Z" fill="#9255FA"/>
<path d="M48.4875 60.3496L48.426 60.4955C48.3743 60.6214 48.2981 60.7358 48.2019 60.832C48.1056 60.9282 47.9913 61.0044 47.8654 61.0562L47.7041 61.1176L47.8577 61.1791C47.9858 61.2316 48.1022 61.3093 48.1998 61.4076C48.2974 61.5059 48.3743 61.6227 48.426 61.7512L48.4683 61.8549L48.5335 61.7243C48.6495 61.4814 48.8564 61.2938 49.1095 61.2021L49.2478 61.1522L49.0673 61.0638C48.8411 60.9538 48.6624 60.7656 48.5643 60.5339L48.4875 60.3496Z" fill="#9255FA"/>
<path d="M153.55 39.4868L153.489 39.6327C153.436 39.7583 153.359 39.8721 153.262 39.9677C153.165 40.0633 153.05 40.1387 152.924 40.1895L152.767 40.2548L152.916 40.3163C153.045 40.3676 153.161 40.4445 153.259 40.5422C153.356 40.6399 153.433 40.7563 153.485 40.8846L153.531 40.9921L153.592 40.8577C153.71 40.6157 153.916 40.4286 154.168 40.3355L154.306 40.2855L154.126 40.2011C153.899 40.0895 153.721 39.9 153.623 39.6673L153.55 39.4868Z" fill="#9255FA"/>
<path d="M147.771 117.665L147.713 117.811C147.606 118.064 147.403 118.264 147.149 118.368L146.991 118.433L147.141 118.494C147.269 118.546 147.386 118.623 147.483 118.72C147.581 118.818 147.658 118.935 147.709 119.063L147.752 119.17L147.817 119.036C147.933 118.793 148.14 118.605 148.393 118.514L148.531 118.464L148.351 118.375C148.123 118.267 147.944 118.079 147.848 117.846L147.771 117.665Z" fill="#9255FA"/>
<path d="M66.8156 151.91L66.7541 152.056C66.7016 152.182 66.6247 152.296 66.5278 152.393C66.4309 152.489 66.316 152.565 66.1897 152.617L66.0322 152.682L66.182 152.743C66.3106 152.794 66.4274 152.871 66.5251 152.969C66.6229 153.066 66.6995 153.183 66.7503 153.312L66.7925 153.419L66.8578 153.285C66.9738 153.042 67.1807 152.854 67.4338 152.763L67.5721 152.713L67.3916 152.624C67.1645 152.516 66.9855 152.327 66.8885 152.094L66.8156 151.91Z" fill="#9255FA"/>
<path d="M127.656 24.3379L127.595 24.4838C127.544 24.61 127.467 24.7244 127.37 24.8202C127.273 24.9159 127.157 24.9909 127.03 25.0406L126.873 25.1059L127.027 25.1673C127.154 25.2186 127.269 25.2945 127.367 25.3908C127.464 25.487 127.542 25.6016 127.595 25.728L127.637 25.8316L127.702 25.7011C127.817 25.4584 128.023 25.2707 128.275 25.1789L128.413 25.1251L128.232 25.0406C128.006 24.93 127.828 24.74 127.733 24.5069L127.656 24.3379Z" fill="#9255FA"/>
<path d="M136.83 126.509L136.708 126.801C136.603 127.052 136.449 127.28 136.256 127.471C136.063 127.663 135.834 127.815 135.582 127.918L135.264 128.045L135.567 128.168C135.827 128.271 136.064 128.427 136.262 128.625C136.46 128.823 136.616 129.059 136.719 129.32L136.807 129.531L136.934 129.266C137.166 128.78 137.58 128.405 138.086 128.221L138.363 128.122L138.002 127.945C137.548 127.725 137.19 127.346 136.996 126.881L136.83 126.509Z" fill="#9255FA"/>
</svg>
