<svg width="193" height="146" viewBox="0 0 193 146" fill="none" xmlns="http://www.w3.org/2000/svg">
<path d="M186.171 13.0127L137.457 9.60268C134.039 9.3634 131.074 11.9405 130.834 15.3587L123.039 126.724C122.799 130.142 125.377 133.107 128.795 133.346L177.509 136.756C180.927 136.996 183.892 134.419 184.131 131L191.927 19.6352C192.166 16.2169 189.589 13.2519 186.171 13.0127Z" fill="#263238"/>
<path d="M189.448 35.9929L188.624 35.9311C187.984 35.8831 187.427 36.3628 187.379 37.0024L186.257 51.9612C186.209 52.6009 186.688 53.1583 187.328 53.2063L188.152 53.2681C188.791 53.3161 189.349 52.8364 189.397 52.1968L190.519 37.238C190.567 36.5983 190.087 36.0409 189.448 35.9929Z" fill="#263238"/>
<path d="M129.865 30.9076L128.915 30.8411C128.308 30.7986 127.781 31.2564 127.738 31.8637L127.3 38.1252C127.258 38.7324 127.715 39.2592 128.323 39.3017L129.273 39.3682C129.88 39.4107 130.406 38.9529 130.449 38.3456L130.887 32.0841C130.93 31.4768 130.472 30.9501 129.865 30.9076Z" fill="#263238"/>
<path d="M128.2 42.6137L127.253 42.5427C126.647 42.4973 126.119 42.9513 126.074 43.5569L125.606 49.8009C125.56 50.4064 126.014 50.9341 126.62 50.9795L127.567 51.0506C128.172 51.096 128.7 50.6419 128.746 50.0364L129.214 43.7924C129.259 43.1869 128.805 42.6592 128.2 42.6137Z" fill="#263238"/>
<path d="M175.019 137.186L126.434 133.546C124.798 133.422 123.278 132.654 122.208 131.411C121.137 130.167 120.604 128.55 120.725 126.913L129.051 15.8525C129.183 14.2219 129.954 12.7097 131.197 11.6459C132.44 10.5821 134.053 10.0531 135.684 10.1743L184.269 13.7877C185.904 13.913 187.423 14.6817 188.492 15.9252C189.562 17.1686 190.094 18.7854 189.973 20.4209L181.647 131.482C181.522 133.116 180.754 134.634 179.511 135.703C178.269 136.772 176.654 137.305 175.019 137.186Z" fill="#9255FA"/>
<path opacity="0.9" d="M180.747 130.547L121.756 126.128C121.683 126.129 121.611 126.114 121.544 126.084C121.477 126.055 121.418 126.012 121.369 125.958C121.32 125.903 121.283 125.84 121.261 125.77C121.239 125.701 121.231 125.628 121.239 125.555L129.364 17.4886C129.364 17.4157 129.379 17.3436 129.408 17.277C129.438 17.2103 129.481 17.1507 129.535 17.1019C129.589 17.0532 129.653 17.0164 129.722 16.9941C129.792 16.9718 129.865 16.9644 129.937 16.9724L188.924 21.3962C188.997 21.3958 189.069 21.4108 189.135 21.4402C189.202 21.4696 189.262 21.5128 189.31 21.5669C189.359 21.621 189.396 21.6848 189.418 21.7542C189.441 21.8235 189.448 21.8968 189.44 21.9692L181.315 130.057C181.312 130.127 181.294 130.196 181.264 130.259C181.233 130.322 181.19 130.378 181.137 130.424C181.084 130.47 181.022 130.505 180.955 130.526C180.888 130.547 180.817 130.554 180.747 130.547Z" fill="white"/>
<path d="M139.992 119.97L139.155 119.911L138.987 122.311L139.823 122.37L139.992 119.97Z" fill="#9255FA"/>
<path d="M142.996 120.646L139.306 120.369L139.126 122.762L142.817 123.039L142.996 120.646Z" fill="#9255FA"/>
<path d="M149.98 121.166L144.194 120.732L144.015 123.126L149.801 123.56L149.98 121.166Z" fill="#9255FA"/>
<path d="M169.743 123.847L166.408 120.93L166.3 122.386L151.779 121.297L151.599 123.687L166.119 124.776L166.011 126.232L169.743 123.847Z" fill="#9255FA"/>
<path opacity="0.2" d="M153.906 14.3813L165.618 15.2589C165.821 15.2747 166.008 15.3699 166.141 15.5236C166.273 15.6773 166.34 15.8772 166.325 16.0796C166.308 16.281 166.213 16.4676 166.059 16.5989C165.905 16.7303 165.706 16.7959 165.505 16.7817L153.792 15.9041C153.59 15.8883 153.402 15.7931 153.269 15.6394C153.137 15.4856 153.071 15.2858 153.085 15.0834C153.102 14.882 153.198 14.6954 153.351 14.564C153.505 14.4327 153.704 14.367 153.906 14.3813Z" fill="black"/>
<path d="M182.556 26.7355L135.446 23.2016C134.138 23.1035 132.999 24.0841 132.9 25.3918L128.594 82.7973C128.496 84.105 129.477 85.2447 130.784 85.3428L177.895 88.8768C179.203 88.9749 180.342 87.9942 180.44 86.6865L184.747 29.281C184.845 27.9733 183.864 26.8336 182.556 26.7355Z" fill="white"/>
<path d="M159.285 30.3678C164.405 29.6555 164.364 35.9273 169.769 33.3412C173.196 31.6996 171.767 38.3896 174.931 39.2155C178.095 40.0415 181.213 42.9425 179.814 45.8487C178.415 48.7549 180.552 51.847 184.057 53.2097C188.941 55.1145 189.56 52.8587 188.414 61.1334C187.268 69.4081 168.132 83.2423 158.841 76.8208C149.549 70.3993 159.873 66.0632 156.26 61.247C153.39 57.4323 146.901 59.4196 149.41 53.8808C151.784 48.6362 154.427 47.8309 150.318 43.9904C146.209 40.1499 152.13 31.3589 159.285 30.3678Z" fill="#263238"/>
<path d="M166.13 56.3174C166.212 56.4206 166.367 56.6168 166.506 56.7716L166.94 57.2878C167.245 57.6131 167.554 57.9383 167.88 58.2531C168.535 58.8923 169.224 59.4954 169.944 60.0598C171.375 61.1929 172.92 62.1738 174.554 62.9867L174.822 63.1209C174.889 63.1435 174.959 63.1522 175.029 63.1467C175.348 63.1187 175.66 63.0385 175.953 62.9093C176.744 62.5591 177.495 62.1247 178.193 61.6136C178.966 61.0793 179.71 60.5055 180.423 59.8947C181.151 59.2855 181.879 58.6351 182.576 58.0002L184.026 59.2184C182.86 60.9068 181.516 62.4645 180.015 63.8643C179.206 64.6184 178.308 65.2718 177.341 65.8103C176.757 66.1309 176.124 66.354 175.468 66.4711C175.051 66.541 174.625 66.541 174.208 66.4711C173.974 66.4351 173.743 66.3746 173.522 66.2904L173.393 66.2388L173.3 66.2026L173.119 66.1252C172.139 65.7325 171.187 65.2738 170.27 64.7521C169.805 64.5043 169.366 64.2101 168.912 63.9365C168.458 63.6629 168.034 63.348 167.621 63.0228C166.766 62.4002 165.956 61.7189 165.195 60.9838C164.813 60.6122 164.442 60.2302 164.08 59.8327C163.905 59.6262 163.724 59.4301 163.564 59.2184C163.404 59.0068 163.234 58.8055 163.048 58.5164L166.13 56.3174Z" fill="#7F3E3B"/>
<path d="M161.938 53.7671C165.464 53.5348 169.614 58.5677 169.779 58.7587L166.935 64.5299C166.935 64.5299 159.775 60.8029 159.44 58.7587C159.104 56.632 159.641 53.9219 161.938 53.7671Z" fill="#9255FA"/>
<path opacity="0.5" d="M161.938 53.7671C165.464 53.5348 169.614 58.5677 169.779 58.7587L166.935 64.5299C166.935 64.5299 159.775 60.8029 159.44 58.7587C159.104 56.632 159.641 53.9219 161.938 53.7671Z" fill="white"/>
<path d="M182.792 57.6337L185.528 55.9561L185.611 59.8689C185.611 59.8689 183.056 60.5554 181.848 59.5798L181.956 58.8829C181.998 58.6271 182.095 58.3832 182.239 58.1678C182.383 57.9523 182.572 57.7702 182.792 57.6337Z" fill="#7F3E3B"/>
<path d="M188.915 56.1467L188.435 59.0632L185.611 59.884L185.528 55.9712L188.915 56.1467Z" fill="#7F3E3B"/>
<path d="M141.961 36.6447L141.641 32.6235L145.161 34.327C145.161 34.327 144.991 37.0629 142.694 37.1816L141.961 36.6447Z" fill="#7F3E3B"/>
<path d="M141.677 30.5382L144.691 29.8672L145.161 34.3272L141.641 32.6237L141.677 30.5382Z" fill="#7F3E3B"/>
<path d="M145.068 52.6575C144.977 52.6638 144.885 52.6638 144.794 52.6575H144.629H144.345C144.165 52.6575 144.015 52.611 143.855 52.5852C143.55 52.5233 143.271 52.451 142.998 52.3684C142.484 52.2105 141.98 52.0191 141.491 51.7954C140.579 51.3635 139.698 50.8702 138.853 50.3191C138.042 49.7668 137.247 49.2041 136.509 48.5898L135.895 48.0736C135.511 47.7453 135.212 47.3291 135.023 46.8606C134.857 46.4384 134.778 45.9872 134.79 45.5339C134.8 45.1746 134.852 44.8177 134.945 44.4705C135.265 43.4131 135.767 42.4193 136.427 41.5334C136.989 40.734 137.605 39.9734 138.27 39.2569C139.546 37.8569 140.926 36.5557 142.399 35.3647L143.705 36.7378C142.549 38.1058 141.413 39.5408 140.386 40.981C139.87 41.7089 139.395 42.4367 138.982 43.1697C138.594 43.8092 138.31 44.5061 138.14 45.2345C138.084 45.5081 138.14 45.663 138.14 45.5597C138.125 45.5176 138.104 45.4777 138.079 45.441L138.595 45.7662C139.328 46.2549 140.066 46.716 140.809 47.1496C141.528 47.5733 142.273 47.9509 143.039 48.2801C143.411 48.435 143.767 48.5743 144.113 48.6827C144.283 48.7344 144.448 48.7808 144.593 48.8118L144.784 48.8479H144.846H144.743L145.068 52.6575Z" fill="#7F3E3B"/>
<path d="M154.386 50.8141C153.714 49.3687 142.652 47.2729 142.652 47.2729L141.155 53.6584C141.155 53.6584 144.707 56.1258 147.283 56.9001C149.347 57.5144 155.155 52.4711 154.386 50.8141Z" fill="#9255FA"/>
<path opacity="0.5" d="M154.386 50.8141C153.714 49.3687 142.652 47.2729 142.652 47.2729L141.155 53.6584C141.155 53.6584 144.707 56.1258 147.283 56.9001C149.347 57.5144 155.155 52.4711 154.386 50.8141Z" fill="white"/>
<path d="M165.55 54.9231C165.55 54.9231 167.063 56.0587 157.074 75.9376L142.574 71.3847C144.67 65.5568 145.821 61.9176 146.802 48.9248C148.965 49.1408 151.11 49.5151 153.218 50.045C155.454 50.5911 157.653 51.2808 159.8 52.1098C162.531 53.2609 165.55 54.9231 165.55 54.9231Z" fill="#9255FA"/>
<path opacity="0.5" d="M165.55 54.9231C165.55 54.9231 167.063 56.0587 157.074 75.9376L142.574 71.3847C144.67 65.5568 145.821 61.9176 146.802 48.9248C148.965 49.1408 151.11 49.5151 153.218 50.045C155.454 50.5911 157.653 51.2808 159.8 52.1098C162.531 53.2609 165.55 54.9231 165.55 54.9231Z" fill="white"/>
<path d="M162.83 53.5037L162.314 53.2714C162.288 53.9298 162.049 54.562 161.633 55.073C160.084 56.9519 157.266 56.0641 156.337 55.7698C155.14 55.4204 154.022 54.8438 153.043 54.0715C152.95 53.9993 152.863 53.9218 152.78 53.8444C152.203 53.3689 151.736 52.7736 151.411 52.0998C151.087 51.426 150.913 50.6897 150.901 49.9419V49.5238V49.2192L150.385 49.0747V49.4309V49.9471C150.394 50.764 150.58 51.5691 150.929 52.3077C151.279 53.0462 151.783 53.7006 152.408 54.2264L152.703 54.4897C153.735 55.301 154.912 55.9088 156.171 56.2809C157.178 56.5958 160.26 57.5662 162.015 55.4188C162.473 54.8767 162.757 54.2095 162.83 53.5037Z" fill="white"/>
<path d="M156.182 42.834C155.934 45.0846 155.149 49.0955 153.203 50.0608C153.203 50.0608 153.105 52.394 157.044 53.6278C161.37 54.9854 159.785 52.1308 159.785 52.1308C157.601 50.8248 158.21 49.0903 159.14 47.5727L156.182 42.834Z" fill="#7F3E3B"/>
<path opacity="0.2" d="M157.39 44.7646L159.14 47.5521C158.917 47.905 158.726 48.2763 158.567 48.662C157.71 48.2438 156.6 47.0101 156.801 46.0345C156.919 45.5792 157.119 45.149 157.39 44.7646Z" fill="black"/>
<path d="M155.274 38.6837C155.078 42.3952 154.918 43.9593 156.559 46.0654C159.037 49.2245 163.631 48.6464 164.932 45.0743C166.098 41.8583 166.222 36.335 162.779 34.456C162.024 34.0392 161.174 33.8224 160.311 33.8262C159.448 33.8301 158.6 34.0544 157.848 34.478C157.096 34.9015 156.465 35.5102 156.014 36.2463C155.564 36.9824 155.309 37.8214 155.274 38.6837Z" fill="#7F3E3B"/>
<path d="M154.35 41.6313C154.923 44.3517 158.299 40.6763 160.446 37.0423C161.866 37.9973 167.673 39.3239 167.549 37.7392C167.384 35.3079 162.175 30.2233 157.498 32.9643C153.069 35.5814 153.601 38.1005 154.35 41.6313Z" fill="#263238"/>
<path d="M154.319 41.946C154.317 42.6645 154.599 43.3547 155.103 43.8663C155.774 44.5374 156.574 44.047 156.776 43.1694C156.962 42.3745 156.827 41.0737 155.965 40.733C155.775 40.6611 155.57 40.638 155.369 40.6657C155.167 40.6934 154.976 40.7711 154.812 40.8917C154.648 41.0123 154.517 41.172 154.431 41.3561C154.345 41.5403 154.306 41.7431 154.319 41.946Z" fill="#7F3E3B"/>
<path d="M157.059 75.9379C157.059 75.9379 164.002 108.582 160.388 119.397C156.584 130.65 143.695 145.016 143.695 145.016L138.347 142.476C138.347 142.476 149.187 126.242 150.312 117.296C151.861 104.964 144.557 72.0044 144.557 72.0044L157.059 75.9379Z" fill="#263238"/>
<path opacity="0.2" d="M149.988 78.5142C152.688 84.946 151.279 88.9518 148.326 92.0128C147.81 88.9156 147.294 85.9217 146.777 83.2374C147.779 81.3171 148.863 79.5827 149.988 78.5142Z" fill="black"/>
<path d="M153.229 74.7354C153.229 74.7354 147.758 96.1371 143.375 110.116C139.839 121.41 110.524 133.03 110.524 133.03L109.213 128.044C109.213 128.044 130.377 114.529 133.056 106.926C141.563 82.5971 135.885 76.3976 142.559 71.3853L153.229 74.7354Z" fill="#263238"/>
<path d="M142.611 70.4609L141.548 71.5708C141.465 71.6585 141.548 71.7979 141.723 71.8495L156.925 76.6244C157.06 76.6657 157.189 76.6244 157.22 76.5573L157.762 75.2977C157.798 75.21 157.705 75.1016 157.566 75.0551L142.88 70.4454C142.837 70.4247 142.79 70.4152 142.743 70.4179C142.696 70.4206 142.651 70.4355 142.611 70.4609Z" fill="#9255FA"/>
<path d="M144.067 72.7221L143.675 72.6034C143.597 72.5775 143.551 72.5156 143.571 72.4691L144.284 70.8431C144.284 70.7915 144.387 70.776 144.464 70.8018L144.857 70.9205C144.934 70.9205 144.981 71.0083 144.96 71.0548L144.248 72.6808C144.227 72.7324 144.144 72.7479 144.067 72.7221Z" fill="#263238"/>
<path d="M155.779 76.4025L155.387 76.2786C155.304 76.2528 155.258 76.196 155.278 76.1496L155.996 74.5184C155.996 74.4719 156.099 74.4513 156.177 74.4771L156.569 74.6009C156.646 74.6009 156.693 74.6835 156.672 74.73L155.96 76.3612C155.939 76.4077 155.856 76.4283 155.779 76.4025Z" fill="#263238"/>
<path d="M149.92 74.5646L149.528 74.4407C149.451 74.4149 149.404 74.3581 149.425 74.3065L150.137 72.6805C150.137 72.634 150.24 72.6134 150.318 72.6392L150.71 72.7631C150.793 72.7631 150.839 72.8457 150.819 72.8921L150.101 74.5233C150.065 74.5698 150.003 74.5904 149.92 74.5646Z" fill="#263238"/>
<path d="M160.74 40.3514C160.704 40.6508 160.838 40.9141 161.034 40.9347C161.231 40.9554 161.416 40.7334 161.453 40.4185C161.489 40.1037 161.355 39.8559 161.158 39.8352C160.962 39.8146 160.776 40.052 160.74 40.3514Z" fill="#263238"/>
<path d="M164.132 40.7382C164.096 41.0376 164.225 41.3008 164.421 41.3215C164.617 41.3421 164.808 41.1201 164.839 40.8053C164.87 40.4904 164.741 40.2426 164.545 40.222C164.349 40.2013 164.163 40.4388 164.132 40.7382Z" fill="#263238"/>
<path d="M164.456 40.243L165.199 40.1191C165.199 40.1191 164.766 40.6405 164.456 40.243Z" fill="#263238"/>
<path d="M163.177 41.1509C163.364 41.8755 163.65 42.5704 164.029 43.2157C163.863 43.3062 163.679 43.36 163.49 43.3733C163.301 43.3867 163.112 43.3593 162.935 43.2931L163.177 41.1509Z" fill="#630F0F"/>
<path d="M161.757 44.3256C161.781 44.3256 161.803 44.3163 161.819 44.2999C161.836 44.2834 161.845 44.2611 161.845 44.2378C161.845 44.2145 161.836 44.1922 161.819 44.1758C161.803 44.1593 161.781 44.1501 161.757 44.1501C161.384 44.1151 161.024 43.9926 160.706 43.7927C160.389 43.5927 160.123 43.3208 159.93 42.9989C159.918 42.9793 159.899 42.9648 159.878 42.9581C159.856 42.9515 159.832 42.9531 159.811 42.9628C159.801 42.9678 159.791 42.9748 159.783 42.9835C159.775 42.9922 159.769 43.0024 159.766 43.0134C159.762 43.0245 159.76 43.0362 159.761 43.0479C159.762 43.0596 159.765 43.071 159.77 43.0815C159.974 43.4312 160.26 43.7267 160.602 43.9432C160.944 44.1596 161.333 44.2908 161.737 44.3256H161.757Z" fill="#263238"/>
<path d="M160.652 38.4204C160.693 38.4075 160.728 38.38 160.75 38.343C160.862 38.1508 161.018 37.9881 161.206 37.8687C161.393 37.7493 161.607 37.6765 161.829 37.6565C161.871 37.6493 161.909 37.6275 161.936 37.5949C161.964 37.5623 161.979 37.521 161.979 37.4784C161.979 37.4357 161.964 37.3945 161.936 37.3619C161.909 37.3293 161.871 37.3075 161.829 37.3003C161.548 37.3229 161.277 37.4125 161.038 37.5616C160.799 37.7107 160.599 37.9149 160.455 38.1572C160.443 38.1768 160.435 38.1987 160.431 38.2215C160.427 38.2444 160.428 38.2678 160.433 38.2903C160.439 38.3129 160.448 38.3342 160.462 38.3529C160.475 38.3717 160.493 38.3877 160.512 38.3998C160.533 38.413 160.556 38.4217 160.58 38.4252C160.604 38.4288 160.628 38.4271 160.652 38.4204Z" fill="#263238"/>
<path d="M165.933 39.3806C165.959 39.3739 165.982 39.3595 166 39.3393C166.033 39.3055 166.052 39.2601 166.052 39.2128C166.052 39.1655 166.033 39.1201 166 39.0864C165.798 38.891 165.552 38.7465 165.282 38.6648C165.013 38.5832 164.728 38.5666 164.451 38.6166C164.407 38.6299 164.368 38.6596 164.345 38.6998C164.321 38.74 164.313 38.7877 164.322 38.8334C164.335 38.879 164.364 38.918 164.405 38.9421C164.445 38.9662 164.493 38.9735 164.539 38.9625C164.759 38.9262 164.984 38.9418 165.196 39.0081C165.409 39.0745 165.603 39.1897 165.763 39.3445C165.784 39.3663 165.812 39.3813 165.842 39.3877C165.873 39.3942 165.904 39.3917 165.933 39.3806Z" fill="#263238"/>
<path d="M161.07 39.8553L161.814 39.7314C161.814 39.7314 161.38 40.2528 161.07 39.8553Z" fill="#263238"/>
<path d="M149.854 105.234C150.335 98.9344 145.617 93.4385 139.318 92.9582C133.019 92.4779 127.523 97.1952 127.042 103.494C126.562 109.794 131.279 115.29 137.579 115.77C143.878 116.25 149.374 111.533 149.854 105.234Z" fill="#263238"/>
<path d="M135.194 99.0868L133.707 100.366L141.707 109.663L143.194 108.384L135.194 99.0868Z" fill="white"/>
<path d="M133.178 107.616L134.457 109.103L143.754 101.103L142.475 99.6165L133.178 107.616Z" fill="white"/>
<path d="M178.892 107.409C179.373 101.109 174.655 95.6133 168.356 95.133C162.057 94.6527 156.561 99.37 156.081 105.669C155.6 111.969 160.318 117.465 166.617 117.945C172.916 118.425 178.412 113.708 178.892 107.409Z" fill="#9255FA"/>
<path d="M173.04 102.616C172.722 102.246 172.335 101.943 171.9 101.723C171.465 101.504 170.991 101.372 170.505 101.335C170.018 101.299 169.53 101.359 169.067 101.511C168.604 101.663 168.176 101.905 167.806 102.223C167.164 101.477 166.252 101.017 165.27 100.943C164.289 100.869 163.318 101.189 162.572 101.831C161.826 102.473 161.365 103.385 161.292 104.367C161.255 104.853 161.315 105.341 161.467 105.804C161.62 106.267 161.862 106.696 162.18 107.065L167.022 112.692L172.648 107.85C173.018 107.532 173.321 107.144 173.54 106.709C173.76 106.274 173.892 105.8 173.928 105.314C173.965 104.828 173.905 104.339 173.753 103.876C173.6 103.413 173.358 102.985 173.04 102.616Z" fill="white"/>
<path opacity="0.2" d="M133.929 10.2671V134.109L127.461 133.624L126.429 133.546C124.794 133.421 123.275 132.652 122.206 131.409C121.136 130.165 120.604 128.549 120.725 126.913L126.424 50.9231C126.177 50.8548 125.961 50.7037 125.812 50.495C125.664 50.2863 125.592 50.0328 125.608 49.7771L126.078 43.5311C126.093 43.2718 126.199 43.0261 126.378 42.8373C126.556 42.6485 126.795 42.5286 127.054 42.4987L127.255 39.7422C127.009 39.6756 126.794 39.5252 126.647 39.3169C126.5 39.1086 126.43 38.8556 126.45 38.6014L126.914 32.3553C126.928 32.0965 127.033 31.8509 127.211 31.662C127.388 31.4731 127.627 31.353 127.885 31.3229L129.051 15.7853C129.167 14.4646 129.703 13.2157 130.581 12.2224C131.459 11.2291 132.633 10.5438 133.929 10.2671Z" fill="black"/>
<path d="M55.3567 11.5562L6.7724 15.107C3.36326 15.3561 0.801589 18.3218 1.05074 21.7309L9.16817 132.8C9.41732 136.209 12.383 138.771 15.7921 138.522L64.3764 134.971C67.7856 134.722 70.3472 131.756 70.0981 128.347L61.9807 17.2779C61.7315 13.8687 58.7659 11.3071 55.3567 11.5562Z" fill="#263238"/>
<path d="M62.7223 32.821L61.8986 32.8812C61.2589 32.9279 60.7781 33.4844 60.8249 34.1242L61.9183 49.0851C61.9651 49.7248 62.5216 50.2056 63.1613 50.1588L63.9851 50.0986C64.6248 50.0518 65.1055 49.4953 65.0588 48.8556L63.9653 33.8947C63.9186 33.2549 63.3621 32.7742 62.7223 32.821Z" fill="#263238"/>
<path d="M2.3007 37.2417L1.35342 37.311C0.747792 37.3552 0.292717 37.8821 0.336979 38.4877L0.793382 44.7326C0.837644 45.3382 1.36448 45.7933 1.97011 45.749L2.91739 45.6798C3.52302 45.6355 3.9781 45.1087 3.93383 44.5031L3.47743 38.2582C3.43317 37.6526 2.90633 37.1975 2.3007 37.2417Z" fill="#263238"/>
<path d="M3.11613 48.3907L2.16885 48.4599C1.56323 48.5042 1.10815 49.031 1.15241 49.6366L1.60844 55.8763C1.6527 56.482 2.17954 56.937 2.78517 56.8928L3.73245 56.8236C4.33807 56.7793 4.79315 56.2524 4.74889 55.6468L4.29286 49.4071C4.2486 48.8015 3.72176 48.3464 3.11613 48.3907Z" fill="#263238"/>
<path d="M63.3433 135.064L14.7532 138.615C13.9401 138.677 13.123 138.577 12.3486 138.321C11.5742 138.066 10.8578 137.66 10.2406 137.127C9.62337 136.595 9.11741 135.945 8.75174 135.216C8.38608 134.488 8.1679 133.694 8.10972 132.88L0.015683 21.8043C-0.100867 20.1688 0.435718 18.5539 1.50783 17.3134C2.57995 16.0729 4.10013 15.3081 5.73519 15.1866L54.3252 11.6351C55.1367 11.5767 55.9517 11.6788 56.7236 11.9354C57.4956 12.1921 58.2095 12.5983 58.8245 13.1308C59.4395 13.6634 59.9436 14.3119 60.308 15.0392C60.6723 15.7666 60.8898 16.5586 60.9481 17.3701L69.0628 128.446C69.1793 130.082 68.6427 131.697 67.5706 132.937C66.4985 134.178 64.9783 134.942 63.3433 135.064Z" fill="#9255FA"/>
<path opacity="0.9" d="M60.0608 18.4935L1.06153 22.8055C0.768665 22.8269 0.548601 23.0816 0.570005 23.3745L8.46957 131.463C8.49098 131.756 8.74574 131.976 9.0386 131.954L68.0379 127.642C68.3308 127.621 68.5508 127.366 68.5294 127.073L60.6299 18.9851C60.6085 18.6922 60.3537 18.4721 60.0608 18.4935Z" fill="white"/>
<path d="M24.9639 123.699L24.1299 123.76L24.3048 126.154L25.1389 126.093L24.9639 123.699Z" fill="#9255FA"/>
<path d="M29.247 123.391L25.5557 123.661L25.7306 126.055L29.4219 125.785L29.247 123.391Z" fill="#9255FA"/>
<path d="M36.2271 122.883L30.4404 123.306L30.6154 125.7L36.4021 125.277L36.2271 122.883Z" fill="#9255FA"/>
<path d="M56.1579 122.634L52.4309 120.239L52.5393 121.694L38.0186 122.753L38.1941 125.148L52.7148 124.084L52.818 125.54L56.1579 122.634Z" fill="#9255FA"/>
<path opacity="0.2" d="M24.3797 16.6886L36.0974 15.8369C36.2985 15.8226 36.497 15.8884 36.6498 16.0199C36.8026 16.1514 36.8972 16.338 36.913 16.5389C36.9272 16.7408 36.8607 16.9401 36.7281 17.093C36.5956 17.2459 36.4077 17.34 36.2058 17.3545L24.4932 18.2114C24.2916 18.2257 24.0925 18.1601 23.9389 18.0287C23.7853 17.8973 23.6896 17.7107 23.6725 17.5094C23.6596 17.3072 23.7264 17.1081 23.8586 16.9547C23.9908 16.8013 24.1779 16.7057 24.3797 16.6886Z" fill="black"/>
<path d="M54.5645 25.1323L7.32179 28.4393C6.01038 28.5311 5.02168 29.6686 5.11348 30.98L9.14316 88.5468C9.23496 89.8582 10.3725 90.8469 11.6839 90.7551L58.9266 87.4481C60.2381 87.3563 61.2268 86.2188 61.135 84.9073L57.1053 27.3406C57.0135 26.0292 55.876 25.0405 54.5645 25.1323Z" fill="white"/>
<path d="M35.8452 75.6183L35.0606 76.8365L34.2656 77.9877C33.7288 78.7448 33.1851 79.4967 32.6344 80.2435C31.5143 81.7147 30.3528 83.16 29.1398 84.5641C27.9267 85.9681 26.6465 87.3258 25.3405 88.6627C24.6763 89.3235 23.9984 89.9704 23.3067 90.6036L22.6924 91.1715C22.2503 91.5673 21.7463 91.8881 21.2006 92.1213C20.784 92.2944 20.3437 92.404 19.8946 92.4465C19.363 92.4975 18.8266 92.4449 18.315 92.2916C17.8605 92.1541 17.4315 91.9431 17.0452 91.667C16.7604 91.4583 16.4991 91.2195 16.2657 90.9546C15.9457 90.5908 15.6749 90.1864 15.4604 89.7519C15.2954 89.4376 15.1539 89.1115 15.0371 88.7763C14.8435 88.2281 14.6866 87.6676 14.5674 87.0986C14.357 86.114 14.2053 85.1177 14.1131 84.115C13.9428 82.1896 13.8705 80.3364 13.8808 78.4936C13.8912 74.8339 14.117 71.178 14.5571 67.5449L18.2324 67.6275C18.5628 71.1428 18.8828 74.7046 19.3164 78.1632C19.5436 79.8925 19.7707 81.6166 20.1114 83.2374C20.2601 84.0087 20.4479 84.772 20.6741 85.5242C20.7661 85.828 20.8799 86.1247 21.0147 86.4121C21.0534 86.4955 21.1001 86.5751 21.1541 86.6495C21.1851 86.6908 21.2057 86.6753 21.1077 86.5515C21.0245 86.4536 20.9291 86.3668 20.8238 86.2934C20.6218 86.1455 20.3968 86.0321 20.1579 85.9578C19.8333 85.8509 19.4889 85.8186 19.1502 85.8633C18.8114 85.908 18.4871 86.0285 18.2015 86.2159L18.3047 86.0972L18.5215 85.8546L19.3784 84.9048L20.2198 83.9343C21.34 82.6386 22.4188 81.2965 23.4925 79.9389C24.5662 78.5813 25.5986 77.1979 26.5897 75.8093C27.1059 75.1176 27.6221 74.4156 28.1383 73.7135L29.5837 71.6487L35.8452 75.6183Z" fill="#FFC3BD"/>
<path d="M22.7178 80.4038L30.2337 86.4537C30.2337 86.4537 30.5434 86.1388 31.0544 85.5916C31.4261 85.1838 31.9062 84.6521 32.4637 84.043C35.6022 80.4916 40.9087 73.9358 40.3925 70.7044C39.5924 65.6869 34.5956 66.4251 30.275 68.8615C28.2669 71.4425 25.784 75.2934 24.4522 77.4615C24.0134 78.179 23.6469 78.8036 23.3579 79.2888C22.9501 79.9805 22.7178 80.4038 22.7178 80.4038Z" fill="#263238"/>
<path opacity="0.8" d="M23.3584 79.2733L31.055 85.5916C31.4266 85.1838 31.9067 84.6521 32.4642 84.043L24.4527 77.4614C24.014 78.1635 23.6475 78.7984 23.3584 79.2733Z" fill="white"/>
<path d="M18.2223 68.6344L18.3256 62.4399L15.4194 62.6826C15.0442 62.7146 14.6821 62.8354 14.3628 63.035C14.0436 63.2346 13.7763 63.5073 13.5832 63.8305C13.3901 64.1537 13.2766 64.5182 13.2521 64.894C13.2276 65.2697 13.2928 65.6459 13.4423 65.9914C14.2063 67.7775 15.2387 69.6771 16.1266 69.6048L18.2223 68.6344Z" fill="#FFC3BD"/>
<path d="M17.4317 56.8341L16.5283 56.5244L16.4561 63.1989L18.3299 62.4504L17.4317 56.8341Z" fill="#FFC3BD"/>
<path d="M15.0472 56.4829L14.1748 56.5036L15.042 63.8594L16.9107 63.1058L15.0472 56.4829Z" fill="#FFC3BD"/>
<path d="M12.8429 63.0234L12.4971 65.083L14.7735 66.8897L15.5323 62.2026L12.8429 63.0234Z" fill="#FFC3BD"/>
<path d="M46.4831 107.964L70.2284 96.9529C69.4128 94.7539 65.722 88.0846 62.0105 79.1285C59.2196 72.5105 57.0038 65.6645 55.3876 58.6663C55.274 58.1501 55.1656 57.6339 55.0572 57.0815C55.0572 57.0815 53.7358 57.3913 51.8981 57.9384C50.3495 58.3927 48.4705 59.0121 46.669 59.7451C43.2188 61.1127 39.8494 62.6759 36.5772 64.4271C35.0957 65.2891 33.6968 66.2493 32.5973 67.0442C31.1984 68.0766 30.2744 68.8458 30.2744 68.8458C30.2744 68.8458 30.7855 84.9048 46.4831 107.964Z" fill="#263238"/>
<path opacity="0.2" d="M62.0167 79.1287C59.2205 72.5127 57.0045 65.6662 55.3938 58.6665C53.742 59.2653 51.0991 60.6797 51.8372 63.4517C52.6322 66.4095 56.2456 72.6297 62.0167 79.1287Z" fill="black"/>
<path d="M57.7471 59.2808C58.5523 59.797 59.2389 60.2461 59.9564 60.7571C60.6739 61.2681 61.3605 61.7637 62.0522 62.3057C63.4287 63.3381 64.7691 64.4359 66.0734 65.5991C67.3691 66.7605 68.6544 67.9581 69.852 69.2589C71.098 70.5624 72.2519 71.9509 73.3054 73.4144L73.5067 73.6879L73.6048 73.8273L73.7648 74.0596C73.9712 74.3708 74.1541 74.6969 74.312 75.0352C74.5712 75.6035 74.7719 76.1968 74.9108 76.8058C75.1355 77.8233 75.2566 78.861 75.2721 79.903C75.3013 81.721 75.1718 83.538 74.885 85.3334C74.6165 87.0679 74.2655 88.7559 73.8526 90.418C73.4396 92.0802 72.9492 93.6959 72.3452 95.3426L68.768 94.5063C69.0312 91.3007 69.2842 88.0177 69.2842 84.8792C69.3005 83.3642 69.2126 81.8499 69.0209 80.3469C68.9412 79.7252 68.7994 79.113 68.5976 78.5196C68.5327 78.3247 68.4461 78.1377 68.3395 77.9621C68.3034 77.9156 68.2724 77.8692 68.2569 77.8692L68.164 77.7659L67.9782 77.5543L67.2452 76.7129L66.4399 75.8663C65.9237 75.3191 65.361 74.7823 64.8035 74.2506C63.6782 73.2182 62.4858 72.1858 61.2727 71.1534C60.0597 70.121 58.8001 69.1918 57.5303 68.2368C56.9005 67.7619 56.2621 67.2939 55.6152 66.8328L53.7207 65.5061L57.7471 59.2808Z" fill="#FFC3BD"/>
<path d="M52.9102 67.8965C55.4438 70.4606 58.1258 72.8737 60.9423 75.1233C61.5669 75.6395 62.1296 76.0834 62.589 76.4448C63.3943 77.0849 63.895 77.4772 63.895 77.4772L70.6056 68.3198C70.6056 68.3198 70.3166 67.9946 69.8158 67.4577C69.439 67.0499 68.9435 66.5131 68.355 65.9091C64.881 62.337 58.2839 56.1374 55.0835 57.0924C50.2673 58.5068 48.5948 63.3591 52.9102 67.8965Z" fill="#263238"/>
<path opacity="0.8" d="M60.9434 75.1278C61.568 75.644 62.1306 76.088 62.59 76.4493L69.8169 67.4519C69.44 67.0441 68.9445 66.5073 68.356 65.9033L60.9434 75.1278Z" fill="white"/>
<path opacity="0.8" d="M34.0801 69.7858C35.2932 71.1486 37.6213 72.6455 41.7819 72.0364L42.8762 71.8764L43.7692 71.2518C50.6605 66.4202 51.5587 61.1033 51.6671 60.0864L51.8994 57.939C50.3508 58.3932 48.4718 59.0127 46.6703 59.7457C43.2201 61.1132 39.8507 62.6764 36.5785 64.4276C35.097 65.2897 33.6981 66.2498 32.5986 67.0448C32.8762 68.0598 33.3831 68.9975 34.0801 69.7858Z" fill="white"/>
<path d="M41.1152 67.4416C46.6386 63.5701 47.0722 59.5695 47.0722 59.5695C43.8666 58.4184 41.9669 52.1052 41.2081 48.5073L39.546 51.9968L37.285 56.7562C37.6201 57.2011 37.927 57.6666 38.2038 58.15C39.3292 60.0547 39.6544 62.1092 37.0424 64.1637C37.0424 64.1689 35.9842 68.2159 41.1152 67.4416Z" fill="#FFC3BD"/>
<path opacity="0.2" d="M37.2842 56.7772C37.6186 57.2155 37.9255 57.6741 38.203 58.1503C39.4471 57.2367 40.6034 54.9292 40.1439 53.4374C39.9963 52.9423 39.7955 52.4646 39.5451 52.0127L37.2842 56.7772Z" fill="black"/>
<path d="M26.6931 41.4877C25.1445 43.6403 27.3796 50.2012 30.7711 49.9328C34.1625 49.6644 29.6354 37.4201 26.6931 41.4877Z" fill="#263238"/>
<path d="M40.1494 43.3304C41.2128 48.0846 42.0748 50.805 40.4385 53.959C39.9174 54.9892 39.1247 55.8574 38.146 56.4698C37.1673 57.0822 36.0399 57.4154 34.8855 57.4335C33.7312 57.4515 32.5939 57.1538 31.5965 56.5723C30.5991 55.9909 29.7796 55.1479 29.2266 54.1345C27.0276 50.2681 25.6596 43.1445 29.6344 39.815C30.4763 39.0718 31.4988 38.5629 32.5994 38.3395C33.7 38.1161 34.84 38.1859 35.9051 38.542C36.9702 38.898 37.923 39.5279 38.6679 40.3683C39.4128 41.2087 39.9237 42.2302 40.1494 43.3304Z" fill="#FFC3BD"/>
<path d="M32.6398 34.8335C35.9486 35.3497 40.4757 29.336 43.1755 36.7228C45.7048 36.6815 45.8494 40.1091 45.2712 42.5972C44.466 46.0557 42.9174 48.2134 40.9455 47.7076C39.3659 47.6611 36.7694 44.2748 36.8159 41.4254C34.2348 41.0434 25.1445 48.0121 22.8784 42.5404C20.3955 36.506 30.3892 32.8926 34.4207 32.6396C31.8913 33.4243 30.6731 34.5393 32.6398 34.8335Z" fill="#263238"/>
<path d="M43.237 47.3768C42.9305 48.5448 42.228 49.5702 41.2496 50.2779C39.9952 51.1399 39.1074 50.0198 39.2313 48.4815C39.3448 47.0981 40.1346 44.9765 41.5025 44.7338C42.8705 44.4912 43.6241 45.9056 43.237 47.3768Z" fill="#FFC3BD"/>
<path d="M33.5372 46.9178C33.6456 47.2998 33.5372 47.6714 33.2894 47.754C33.0416 47.8366 32.7732 47.5888 32.6493 47.212C32.5254 46.8352 32.6493 46.4584 32.8919 46.3758C33.1345 46.2932 33.4287 46.541 33.5372 46.9178Z" fill="#263238"/>
<path d="M29.2737 48.306C29.3872 48.6828 29.2737 49.0596 29.031 49.1371C28.7884 49.2145 28.5148 48.977 28.3858 48.6209C28.2567 48.2647 28.3858 47.8672 28.6336 47.7898C28.8813 47.7123 29.1859 47.924 29.2737 48.306Z" fill="#263238"/>
<path d="M30.6977 48.0532C30.6977 48.0532 30.4757 50.5207 29.8408 51.8834C30.6874 52.2964 31.7353 51.6408 31.7353 51.6408L30.6977 48.0532Z" fill="#ED847E"/>
<path d="M33.5631 52.1627C33.9803 51.9748 34.3554 51.7048 34.6658 51.3686C34.9763 51.0325 35.2157 50.6371 35.3698 50.2063C35.3745 50.1917 35.3763 50.1763 35.3749 50.1611C35.3736 50.1458 35.3691 50.131 35.3619 50.1175C35.3547 50.104 35.3448 50.0921 35.3328 50.0825C35.3209 50.0729 35.3071 50.0659 35.2924 50.0617C35.2778 50.057 35.2624 50.0552 35.2472 50.0566C35.2319 50.058 35.2171 50.0624 35.2036 50.0696C35.1901 50.0768 35.1782 50.0867 35.1686 50.0987C35.159 50.1106 35.1519 50.1244 35.1478 50.1392C34.977 50.6036 34.7021 51.0229 34.3442 51.3647C33.9863 51.7065 33.5549 51.9618 33.083 52.1111C33.0543 52.1206 33.0305 52.1412 33.0169 52.1684C33.0034 52.1955 33.0012 52.2268 33.0107 52.2556C33.0203 52.2843 33.0409 52.3081 33.068 52.3217C33.0952 52.3352 33.1265 52.3374 33.1553 52.3279C33.2945 52.2814 33.4307 52.2262 33.5631 52.1627Z" fill="#263238"/>
<path d="M34.4367 45.1059C34.4705 45.088 34.5003 45.0634 34.5244 45.0336C34.5424 45.0089 34.5554 44.9809 34.5626 44.9511C34.5698 44.9214 34.571 44.8905 34.5662 44.8603C34.5614 44.8301 34.5507 44.8011 34.5346 44.775C34.5186 44.749 34.4976 44.7263 34.4728 44.7084C34.1827 44.4871 33.8425 44.3407 33.4824 44.2822C33.1222 44.2236 32.7532 44.2548 32.408 44.3729C32.3761 44.3812 32.3464 44.3962 32.3208 44.4168C32.2952 44.4375 32.2743 44.4634 32.2594 44.4927C32.2445 44.5221 32.2361 44.5543 32.2346 44.5872C32.2331 44.6201 32.2386 44.6529 32.2508 44.6835C32.263 44.714 32.2815 44.7417 32.3051 44.7646C32.3288 44.7875 32.357 44.8051 32.388 44.8162C32.419 44.8274 32.452 44.8318 32.4848 44.8292C32.5176 44.8267 32.5495 44.8171 32.5783 44.8013C32.8513 44.7139 33.1414 44.6941 33.4238 44.7435C33.7061 44.793 33.9722 44.9103 34.1992 45.0852C34.2332 45.1098 34.2733 45.1247 34.3151 45.1283C34.3569 45.132 34.3989 45.1242 34.4367 45.1059Z" fill="#263238"/>
<path d="M27.0487 47.4289C27.0824 47.4118 27.1116 47.3869 27.1341 47.3565C27.1565 47.326 27.1714 47.2907 27.1778 47.2534C27.2187 46.9598 27.3259 46.6794 27.4914 46.4334C27.6568 46.1874 27.8762 45.9824 28.1327 45.8339C28.1636 45.8233 28.1919 45.8063 28.2158 45.7841C28.2396 45.7619 28.2586 45.7348 28.2713 45.7048C28.284 45.6748 28.2903 45.6424 28.2897 45.6098C28.2891 45.5771 28.2816 45.545 28.2677 45.5155C28.2539 45.4859 28.234 45.4596 28.2093 45.4383C28.1846 45.417 28.1557 45.4011 28.1244 45.3917C28.0932 45.3823 28.0603 45.3796 28.0279 45.3837C27.9956 45.3879 27.9645 45.3988 27.9366 45.4158C27.6095 45.5941 27.3289 45.8468 27.1173 46.1534C26.9057 46.46 26.7691 46.8121 26.7184 47.1812C26.7094 47.2413 26.7244 47.3026 26.7601 47.3518C26.7958 47.401 26.8494 47.4343 26.9093 47.4444C26.9563 47.4528 27.0047 47.4474 27.0487 47.4289Z" fill="#263238"/>
<path d="M69.491 92.9316L64.7109 94.2118L69.3567 98.2743C69.3567 98.2743 73.3831 96.3799 72.232 94.3873L69.491 92.9316Z" fill="#FFC3BD"/>
<path d="M62.6045 98.3106L66.5999 101.485L69.3564 98.2744L64.7106 94.2119L62.6045 98.3106Z" fill="#FFC3BD"/>
<path d="M32.2899 113.606C35.4094 108.112 33.4848 101.13 27.9912 98.0105C22.4975 94.8909 15.5151 96.8155 12.3955 102.309C9.27598 107.803 11.2006 114.785 16.6942 117.905C22.1879 121.024 29.1703 119.1 32.2899 113.606Z" fill="#263238"/>
<path d="M18.3487 103.21L17.0664 104.695L26.3481 112.712L27.6304 111.228L18.3487 103.21Z" fill="white"/>
<path d="M17.5937 111.962L19.0781 113.244L27.0955 103.962L25.6111 102.68L17.5937 111.962Z" fill="white"/>
<path d="M62.7824 106.74C63.277 100.441 58.5722 94.9348 52.274 94.4402C45.9758 93.9456 40.4692 98.6504 39.9746 104.949C39.48 111.247 44.1848 116.753 50.483 117.248C56.7812 117.743 62.2879 113.038 62.7824 106.74Z" fill="#9255FA"/>
<path d="M56.3023 101.144C55.5575 100.501 54.5876 100.18 53.6061 100.252C52.6245 100.323 51.7115 100.782 51.068 101.526C50.7006 101.199 50.2717 100.948 49.8062 100.787C49.3407 100.627 48.8481 100.561 48.3569 100.593C47.8656 100.625 47.3857 100.755 46.945 100.974C46.5043 101.193 46.1115 101.498 45.7897 101.87C45.4679 102.243 45.2234 102.676 45.0704 103.144C44.9175 103.611 44.8591 104.105 44.8988 104.596C44.9384 105.086 45.0753 105.564 45.3014 106.002C45.5275 106.439 45.8383 106.827 46.2157 107.143L51.832 111.995L56.6843 106.379C57.3263 105.633 57.6466 104.664 57.575 103.683C57.5034 102.701 57.0458 101.789 56.3023 101.144Z" fill="white"/>
<path opacity="0.2" d="M70.0897 128.353C70.2077 129.989 69.6725 131.604 68.6013 132.846C67.5301 134.087 66.0104 134.853 64.3753 134.976L46.7832 136.261C46.7832 135.983 46.7832 135.704 46.7832 135.425V12.2079L54.3507 11.6556L55.3831 11.5782C57.0185 11.4616 58.6335 11.9982 59.874 13.0703C61.1144 14.1424 61.8793 15.6626 62.0008 17.2977L63.1158 32.856C63.3473 32.9185 63.5536 33.0515 63.7062 33.2365C63.8588 33.4214 63.9502 33.6492 63.9676 33.8884L65.0619 48.8582C65.0778 49.0964 65.02 49.3337 64.8962 49.5379C64.7724 49.742 64.5887 49.903 64.3702 49.9991L70.0897 128.353Z" fill="black"/>
<path d="M119.001 0H62.8797C58.9426 0 55.751 3.19165 55.751 7.12874V135.42C55.751 139.357 58.9426 142.549 62.8797 142.549H119.001C122.938 142.549 126.13 139.357 126.13 135.42V7.12874C126.13 3.19165 122.938 0 119.001 0Z" fill="#263238"/>
<path d="M125.68 25.0508H124.725C123.986 25.0508 123.388 25.6494 123.388 26.3877V43.6702C123.388 44.4085 123.986 45.0071 124.725 45.0071H125.68C126.418 45.0071 127.017 44.4085 127.017 43.6702V26.3877C127.017 25.6494 126.418 25.0508 125.68 25.0508Z" fill="#263238"/>
<path d="M55.8896 25.0508H54.7901C54.0916 25.0508 53.5254 25.617 53.5254 26.3155V33.532C53.5254 34.2304 54.0916 34.7967 54.7901 34.7967H55.8896C56.5881 34.7967 57.1543 34.2304 57.1543 33.532V26.3155C57.1543 25.617 56.5881 25.0508 55.8896 25.0508Z" fill="#263238"/>
<path d="M55.8896 37.936H54.7901C54.0916 37.936 53.5254 38.5023 53.5254 39.2007V46.4172C53.5254 47.1157 54.0916 47.6819 54.7901 47.6819H55.8896C56.5881 47.6819 57.1543 47.1157 57.1543 46.4172V39.2007C57.1543 38.5023 56.5881 37.936 55.8896 37.936Z" fill="#263238"/>
<path d="M117.808 0H61.6864C57.7493 0 54.5576 3.19165 54.5576 7.12874V135.42C54.5576 139.357 57.7493 142.549 61.6864 142.549H117.808C121.745 142.549 124.937 139.357 124.937 135.42V7.12874C124.937 3.19165 121.745 0 117.808 0Z" fill="#9255FA"/>
<path opacity="0.9" d="M123.821 8.36279H55.6777C55.3385 8.36279 55.0635 8.63781 55.0635 8.97707V133.82C55.0635 134.16 55.3385 134.435 55.6777 134.435H123.821C124.161 134.435 124.436 134.16 124.436 133.82V8.97707C124.436 8.63781 124.161 8.36279 123.821 8.36279Z" fill="white"/>
<path d="M74.6535 126.299H73.6934V129.061H74.6535V126.299Z" fill="#9255FA"/>
<path d="M79.6095 126.299H75.3457V129.061H79.6095V126.299Z" fill="#9255FA"/>
<path d="M87.677 126.299H80.9922V129.061H87.677V126.299Z" fill="#9255FA"/>
<path d="M110.602 127.677L106.518 124.616V126.299H89.7471V129.061H106.518V130.744L110.602 127.677Z" fill="#9255FA"/>
<path opacity="0.2" d="M82.9596 3.29834H96.4944C96.7271 3.29834 96.9503 3.39079 97.1149 3.55537C97.2795 3.71994 97.3719 3.94315 97.3719 4.17588C97.3719 4.40862 97.2795 4.63183 97.1149 4.7964C96.9503 4.96097 96.7271 5.05343 96.4944 5.05343H82.9596C82.7273 5.05207 82.5048 4.95918 82.3405 4.7949C82.1763 4.63062 82.0834 4.40821 82.082 4.17588C82.082 3.94315 82.1745 3.71994 82.3391 3.55537C82.5036 3.39079 82.7268 3.29834 82.9596 3.29834Z" fill="black"/>
<path d="M116.957 15.0112H62.5386C61.0276 15.0112 59.8027 16.2361 59.8027 17.7471V84.0635C59.8027 85.5744 61.0276 86.7993 62.5386 86.7993H116.957C118.468 86.7993 119.692 85.5744 119.692 84.0635V17.7471C119.692 16.2361 118.468 15.0112 116.957 15.0112Z" fill="white"/>
<path d="M103.153 85.4163C103.078 85.409 103.008 85.378 102.952 85.3278C102.896 85.2776 102.858 85.211 102.843 85.1375C101.589 78.9431 101.166 71.4737 100.778 64.8818C100.371 57.6033 99.9421 50.0771 98.3368 49.9119H98.2955C98.2454 49.918 98.1947 49.9134 98.1466 49.8984C98.0985 49.8833 98.0541 49.8583 98.0164 49.8249C97.9787 49.7915 97.9485 49.7504 97.9278 49.7045C97.9072 49.6585 97.8965 49.6087 97.8965 49.5583C97.8965 49.5079 97.9072 49.4581 97.9278 49.4122C97.9485 49.3662 97.9787 49.3252 98.0164 49.2918C98.0541 49.2583 98.0985 49.2333 98.1466 49.2183C98.1947 49.2033 98.2454 49.1987 98.2955 49.2047C100.474 49.2822 100.876 54.6248 101.46 64.8508C101.831 71.4169 102.255 78.8605 103.494 84.9826C103.503 85.0281 103.504 85.075 103.496 85.1207C103.487 85.1664 103.47 85.21 103.444 85.2489C103.419 85.2878 103.386 85.3212 103.347 85.3473C103.309 85.3734 103.266 85.3916 103.22 85.4008C103.198 85.4089 103.176 85.4141 103.153 85.4163Z" fill="#263238"/>
<path d="M80.1665 54.1289C79.8 54.3715 79.5161 54.5521 79.196 54.7431C78.876 54.9341 78.5611 55.1096 78.2462 55.2593C77.6061 55.6104 76.9609 55.9407 76.295 56.2556C74.9303 56.9034 73.508 57.4218 72.0466 57.8042C70.392 58.2693 68.6592 58.387 66.9569 58.1501L66.2394 57.9952C66.1155 57.9642 66.0174 57.9488 65.8728 57.9023L65.4134 57.7423C64.8129 57.4943 64.2594 57.1451 63.7771 56.7099C62.8591 55.8437 62.2622 54.6917 62.0839 53.4423C61.9926 52.8263 62.0101 52.1991 62.1356 51.5891C62.1979 51.2851 62.2843 50.9865 62.3937 50.6961C62.4967 50.4427 62.6192 50.1976 62.7602 49.9631L63.3641 48.9823L64.0094 48.0635C64.8855 46.8985 65.854 45.8058 66.9053 44.7959C68.9439 42.835 71.2148 41.1309 73.6675 39.7217L75.2471 42.0033C74.3386 42.8602 73.3836 43.7842 72.5164 44.7237C71.6491 45.6632 70.7819 46.6233 70.0025 47.6144C69.2358 48.575 68.5339 49.5855 67.9015 50.6393L67.4627 51.4085L67.0911 52.1879L67.0446 52.286C67.0446 52.3222 67.0446 52.286 67.0446 52.3222C67.0446 52.3583 67.0446 52.3222 67.0446 52.3634C67.0446 52.4047 67.0446 52.4099 67.0446 52.4357C67.0455 52.4883 67.0597 52.5398 67.0859 52.5854C67.1012 52.6293 67.1251 52.6696 67.1561 52.7042C67.1871 52.7387 67.2247 52.7668 67.2666 52.7867C67.2976 52.7867 67.3182 52.7867 67.3389 52.7867H67.4576L67.7312 52.8229C68.7053 52.8645 69.679 52.7316 70.6064 52.4306C71.7281 52.0892 72.8222 51.663 73.8791 51.1555C74.4315 50.8974 74.9786 50.6393 75.5155 50.3296L76.3156 49.8805L77.0589 49.4418L80.1665 54.1289Z" fill="#FF8B7B"/>
<path d="M81.8286 49.8496C79.4282 47.1447 69.6514 51.6821 69.6514 51.6821L71.9898 61.8668C71.9898 61.8668 81.3949 59.802 82.83 57.1539C84.3321 54.3767 84.1721 52.4719 81.8286 49.8496Z" fill="#9255FA"/>
<path opacity="0.2" d="M77.0487 53.1896C74.86 54.8725 73.7347 58.0987 73.1152 61.5986C75.1013 61.1127 77.052 60.4919 78.9535 59.7402C79.0309 56.1733 78.7883 51.8578 77.0487 53.1896Z" fill="black"/>
<path d="M74.2197 42.4573L80.8787 40.3925L75.4173 37.1353C75.4173 37.1353 72.5007 38.9678 72.8621 41.2184L74.2197 42.4573Z" fill="#FF8B7B"/>
<path d="M82.587 35.5562L78.22 33.894L75.417 37.141L80.8784 40.393L82.587 35.5562Z" fill="#FF8B7B"/>
<path d="M99.9936 23.7142C95.5337 19.6207 85.8291 19.8272 83.4236 26.6514C81.0181 33.4756 76.5426 29.7125 76.5426 29.7125C76.5426 29.7125 76.0987 41.0689 86.8408 44.4397C99.3226 48.3835 104.454 42.1168 106.74 37.5794C103.979 39.0505 101.264 35.4371 102.239 32.3399C103.478 28.4116 102.337 25.8461 99.9936 23.7142Z" fill="#263238"/>
<path d="M82.7223 31.4931C82.7791 32.6546 83.4347 34.1671 84.2348 34.7194C85.4427 35.5453 86.2634 34.642 86.4802 33.3102C86.6764 32.1126 86.3615 30.1407 85.0452 29.6348C83.7289 29.1289 82.6603 30.1613 82.7223 31.4931Z" fill="#FF8B7B"/>
<path opacity="0.2" d="M82.7223 31.4931C82.7791 32.6546 83.4347 34.1671 84.2348 34.7194C85.4427 35.5453 86.2634 34.642 86.4802 33.3102C86.6764 32.1126 86.3615 30.1407 85.0452 29.6348C83.7289 29.1289 82.6603 30.1613 82.7223 31.4931Z" fill="black"/>
<path d="M76.1046 49.4158C76.1046 49.4158 73.472 49.2868 75.2116 81.8126L97.336 84.2078C97.9296 75.1846 98.5284 69.6096 104.831 51.5942C101.803 50.6182 98.7082 49.8642 95.5705 49.3384C92.2518 48.7411 88.895 48.3788 85.5253 48.2544C82.3523 48.3004 79.1937 48.6899 76.1046 49.4158Z" fill="#9255FA"/>
<path d="M95.7964 37.9204C94.8104 41.0847 93.5406 46.9384 95.5693 49.3388C95.5693 49.3388 94.9034 52.1314 86.6545 53.6387C82.5765 50.7635 85.524 48.2548 85.524 48.2548C89.22 47.785 89.4161 45.1008 89.06 42.5198L95.7964 37.9204Z" fill="#FF8B7B"/>
<path opacity="0.2" d="M93.0515 39.7993L89.0664 42.5145C89.1548 43.116 89.1928 43.7238 89.18 44.3316C90.5789 44.2851 92.6334 42.974 92.9379 41.5492C93.0821 40.9777 93.1206 40.3847 93.0515 39.7993Z" fill="black"/>
<path d="M99.3434 31.9842C97.7689 37.1875 97.2114 39.4278 93.9026 41.5029C88.9212 44.6311 82.8765 41.5545 82.8662 35.9847C82.8662 30.9724 85.4472 23.3017 91.1254 22.4241C92.3726 22.2295 93.6488 22.3564 94.8333 22.7928C96.0178 23.2292 97.0713 23.9606 97.8941 24.9178C98.717 25.875 99.2819 27.0264 99.5355 28.263C99.7891 29.4995 99.723 30.7803 99.3434 31.9842Z" fill="#FF8B7B"/>
<path d="M75.4324 81.4829C75.4324 81.4829 70.3275 102.199 70.2134 109C70.0785 117.071 68.5273 134.403 68.5273 134.403L73.4714 134.067C73.4714 134.067 84.8379 114.951 84.205 110.576C82.602 99.533 98.4716 87.7839 93.5847 82.4118L75.4324 81.4829Z" fill="#9255FA"/>
<path opacity="0.6" d="M75.4324 81.4829C75.4324 81.4829 70.3275 102.563 70.2134 109.483C70.0785 117.695 68.5273 135.331 68.5273 135.331L73.4714 134.99C73.4714 134.99 84.8379 115.538 84.205 111.087C82.602 99.8496 98.4716 87.8944 93.5847 82.4281L75.4324 81.4829Z" fill="white"/>
<path d="M79.7412 82.4116C79.7412 82.4116 79.2426 102.745 80.8646 109.429C82.7963 117.364 85.6781 134.403 85.6781 134.403L90.5336 134.07C90.5336 134.07 96.9901 115.261 95.2579 110.973C90.8328 100.117 103.657 88.5577 97.4206 83.2798L79.7412 82.4116Z" fill="#9255FA"/>
<path opacity="0.6" d="M79.7412 82.4116C79.7412 82.4116 79.2426 102.745 80.8646 109.429C82.7963 117.364 85.6781 134.403 85.6781 134.403L90.5336 134.07C90.5336 134.07 96.9901 115.261 95.2579 110.973C90.8328 100.117 103.657 88.5577 97.4206 83.2798L79.7412 82.4116Z" fill="white"/>
<path d="M90.9854 31.5607C90.8822 31.9891 90.5725 32.2885 90.2886 32.2214C90.0047 32.1543 89.8653 31.7517 89.9685 31.3181C90.0718 30.8845 90.3763 30.5954 90.6602 30.6625C90.9441 30.7296 91.0835 31.1322 90.9854 31.5607Z" fill="#263238"/>
<path d="M86.1229 30.4097C86.0197 30.8381 85.7099 31.1324 85.4312 31.0653C85.1524 30.9981 85.0027 30.5955 85.106 30.1671C85.2092 29.7386 85.5189 29.4444 85.7977 29.5115C86.0764 29.5786 86.2261 29.9812 86.1229 30.4097Z" fill="#263238"/>
<path d="M85.9162 29.563L84.9561 29.021C84.9561 29.021 85.2916 29.9502 85.9162 29.563Z" fill="#263238"/>
<path d="M87.2333 31.4521C86.6187 32.3423 85.8839 33.1431 85.0498 33.8318C85.232 34.0406 85.4576 34.207 85.7108 34.3193C85.964 34.4317 86.2388 34.4873 86.5158 34.4822L87.2333 31.4521Z" fill="#FF5652"/>
<path d="M88.1574 36.6297C87.9836 36.6093 87.8112 36.5783 87.6412 36.5367C87.6246 36.5327 87.609 36.5254 87.5952 36.5153C87.5814 36.5051 87.5697 36.4924 87.5609 36.4778C87.552 36.4632 87.5461 36.447 87.5435 36.4301C87.5409 36.4132 87.5417 36.3959 87.5457 36.3793C87.5498 36.3627 87.5571 36.347 87.5672 36.3333C87.5773 36.3195 87.5901 36.3078 87.6047 36.2989C87.6193 36.2901 87.6355 36.2842 87.6524 36.2816C87.6693 36.279 87.6866 36.2797 87.7032 36.2838C88.2358 36.4239 88.794 36.4361 89.3322 36.3195C89.8705 36.2029 90.3735 35.9607 90.8004 35.6127C90.8124 35.6002 90.8268 35.5903 90.8428 35.5835C90.8588 35.5767 90.8759 35.5732 90.8933 35.5732C90.9106 35.5732 90.9278 35.5767 90.9438 35.5835C90.9597 35.5903 90.9742 35.6002 90.9862 35.6127C91.0099 35.6369 91.0231 35.6693 91.0231 35.7031C91.0231 35.7369 91.0099 35.7693 90.9862 35.7934C90.5987 36.1217 90.147 36.3656 89.6599 36.5096C89.1729 36.6536 88.6612 36.6945 88.1574 36.6297Z" fill="#263238"/>
<path d="M97.4435 25.841C95.0174 26.7856 93.794 33.1607 97.9597 35.7314C102.125 38.3021 102.657 23.8123 97.4435 25.841Z" fill="#263238"/>
<path d="M99.6742 25.2837C100.934 28.7422 87.1666 26.8323 81.9375 24.6075C83.5171 24.148 87.7602 20.8443 92.6951 21.6341C97.63 22.4239 99.6742 25.2837 99.6742 25.2837Z" fill="#263238"/>
<path d="M99.9932 35.9536C99.317 36.9034 97.9542 37.8274 96.9786 37.8584C95.5177 37.9048 95.3113 36.7021 95.8429 35.4632C96.323 34.3482 97.6496 32.8564 99.0279 33.1351C100.406 33.4139 100.768 34.8799 99.9932 35.9536Z" fill="#FF8B7B"/>
<path d="M92.8545 30.3472C92.8088 30.3421 92.7652 30.3252 92.728 30.298C92.6909 30.2708 92.6615 30.2344 92.6429 30.1923C92.5202 29.8899 92.3276 29.6209 92.0808 29.4074C91.834 29.1938 91.5402 29.0418 91.2233 28.9638C91.1899 28.9588 91.1578 28.9471 91.129 28.9295C91.1002 28.9119 91.0751 28.8887 91.0554 28.8613C91.0357 28.8339 91.0217 28.8028 91.0141 28.7698C91.0066 28.7369 91.0058 28.7028 91.0117 28.6695C91.0231 28.6013 91.0609 28.5403 91.1169 28.4997C91.173 28.4592 91.2427 28.4423 91.3111 28.4527C91.7144 28.547 92.0891 28.7369 92.4035 29.0064C92.718 29.2759 92.963 29.6172 93.1178 30.0013C93.1314 30.0325 93.1388 30.0661 93.1395 30.1001C93.1401 30.1341 93.134 30.1679 93.1216 30.1996C93.1091 30.2313 93.0905 30.2601 93.0668 30.2846C93.0431 30.309 93.0148 30.3286 92.9836 30.342C92.942 30.3562 92.8971 30.358 92.8545 30.3472Z" fill="#263238"/>
<path d="M84.5081 27.653C84.4457 27.6436 84.3879 27.6147 84.3429 27.5704C84.3188 27.5464 84.2996 27.5179 84.2865 27.4864C84.2733 27.455 84.2666 27.4212 84.2666 27.3872C84.2666 27.3531 84.2733 27.3193 84.2865 27.2879C84.2996 27.2564 84.3188 27.2279 84.3429 27.2039C84.638 26.916 84.9977 26.703 85.3919 26.5827C85.7862 26.4623 86.2036 26.4382 86.6091 26.5122C86.6775 26.5286 86.7366 26.5716 86.7734 26.6316C86.8102 26.6916 86.8217 26.7638 86.8052 26.8322C86.7888 26.9007 86.7459 26.9598 86.6858 26.9966C86.6258 27.0334 86.5536 27.0448 86.4852 27.0284C86.163 26.9746 85.8326 26.998 85.5212 27.0967C85.2098 27.1955 84.9263 27.3666 84.694 27.5962C84.6683 27.6175 84.6386 27.6334 84.6067 27.6432C84.5748 27.6529 84.5413 27.6562 84.5081 27.653Z" fill="#263238"/>
<path d="M90.7797 30.7144L89.8145 30.1982C89.8145 30.1982 90.1551 31.1068 90.7797 30.7144Z" fill="#263238"/>
<path d="M97.8097 82.9279L98.1607 84.9927C98.2227 85.1528 98.0213 85.2921 97.7684 85.2612L74.9936 82.7989C74.7974 82.7989 74.6426 82.6647 74.6426 82.5356V80.5328C74.6426 80.3985 74.8284 80.3005 75.0452 80.3211L97.4484 82.7421C97.5193 82.7403 97.5896 82.7563 97.6528 82.7888C97.7159 82.8213 97.7699 82.8691 97.8097 82.9279Z" fill="#263238"/>
<path d="M94.5271 85.1217L95.131 85.1888C95.2498 85.1888 95.3478 85.1527 95.3478 85.0752V82.4942C95.3478 82.422 95.2498 82.3497 95.131 82.3342L94.5322 82.2671C94.4135 82.2671 94.3154 82.3084 94.3154 82.3858V84.9668C94.3154 85.0391 94.4083 85.1114 94.5271 85.1217Z" fill="#9255FA"/>
<path d="M76.6613 83.191L77.2601 83.2581C77.3789 83.2581 77.4769 83.2168 77.4769 83.1446V80.5636C77.4769 80.4861 77.3789 80.4139 77.2601 80.4035L76.6613 80.3364C76.5426 80.3364 76.4445 80.3777 76.4445 80.4552V83.0362C76.4394 83.1084 76.5374 83.1807 76.6613 83.191Z" fill="#9255FA"/>
<path d="M85.5907 84.1564L86.1947 84.2235C86.3134 84.2235 86.4115 84.1822 86.4115 84.1099V81.5289C86.4115 81.4566 86.3134 81.3792 86.1947 81.3689L85.5959 81.3018C85.4772 81.3018 85.3791 81.3431 85.3791 81.4205V84.0015C85.3739 84.0738 85.472 84.146 85.5907 84.1564Z" fill="#9255FA"/>
<path d="M95.5289 100.938C105.925 99.539 108.196 88.6574 108.196 88.6574L103.499 84.6362L93.5157 85.9784L83.5324 87.3153L80.0635 92.436C80.0635 92.436 85.1274 102.337 95.5289 100.938Z" fill="#263238"/>
<path d="M91.5799 98.1658C86.0669 97.567 82.4535 93.8503 80.6416 91.4087L81.1268 91.0474C83.2226 93.8813 87.8374 98.4807 95.0643 97.5102C102.291 96.5397 105.528 90.8822 106.808 87.5991L107.365 87.8159C106.044 91.2229 102.72 97.1076 95.1469 98.109C93.9645 98.2712 92.7669 98.2903 91.5799 98.1658Z" fill="#9255FA"/>
<path d="M103.499 84.6362C103.499 84.6362 107.861 89.8447 108.196 88.6574C108.486 87.6147 103.499 84.6362 103.499 84.6362Z" fill="#9255FA"/>
<path d="M83.5326 87.3154C83.5326 87.3154 80.6986 93.4737 80.0637 92.4155C79.5062 91.4915 83.5326 87.3154 83.5326 87.3154Z" fill="#9255FA"/>
<path d="M92.1263 95.8635C92.1986 96.3797 93.4529 96.6739 94.9241 96.4726C96.3953 96.2713 97.5361 95.6828 97.4638 95.146C97.3916 94.6091 96.1424 94.3356 94.666 94.5317C93.1897 94.7279 92.054 95.3163 92.1263 95.8635Z" fill="#9255FA"/>
<path d="M106.58 57.6338C106.823 58.4339 107.019 59.1308 107.205 59.8793C107.391 60.6278 107.561 61.3504 107.721 62.0938C108.046 63.5753 108.289 65.0723 108.485 66.5899C108.913 69.6855 108.953 72.8224 108.604 75.928C108.501 76.7408 108.352 77.5473 108.16 78.3438L108 78.9529L107.959 79.1026L107.886 79.3297L107.721 79.7788C107.502 80.2796 107.226 80.754 106.9 81.1932C106.352 81.9113 105.728 82.5674 105.037 83.1496C104.42 83.6725 103.77 84.1552 103.091 84.595C100.532 86.2519 97.7791 87.5869 94.8936 88.5697L93.7012 86.0662C96.0386 84.5438 98.2798 82.8785 100.412 81.0797C100.928 80.6409 101.382 80.1815 101.806 79.7375C102.2 79.3427 102.547 78.9026 102.838 78.4264C102.935 78.2645 103.011 78.0911 103.065 77.9102C103.062 77.8879 103.062 77.8654 103.065 77.8431V77.8069V77.6934L103.153 77.2443C103.261 76.6189 103.337 75.9883 103.38 75.355C103.518 72.6691 103.366 69.9761 102.926 67.3229C102.724 65.9601 102.461 64.6025 102.177 63.2397C102.033 62.5635 101.878 61.8821 101.713 61.2111C101.547 60.54 101.372 59.8431 101.196 59.2495L106.58 57.6338Z" fill="#FF8B7B"/>
<path d="M104.83 51.5943C106.972 52.508 109.213 60.9272 109.213 60.9272L100.318 65.6453C100.318 65.6453 97.0974 58.9347 98.3414 56.173C99.6319 53.2926 102.383 50.5516 104.83 51.5943Z" fill="#9255FA"/>
<path d="M95.4208 85.8497L89.7891 84.0327L91.9003 89.1947C91.9003 89.1947 95.395 89.5974 96.6958 87.7236L95.4208 85.8497Z" fill="#FF8B7B"/>
<path d="M85.4629 85.6226L87.4657 89.8451L91.8999 89.1896L89.7887 84.0327L85.4629 85.6226Z" fill="#FF8B7B"/>
<path d="M83.7226 88.2086C83.6762 88.2029 83.6313 88.188 83.5906 88.1649C83.5499 88.1418 83.5141 88.111 83.4854 88.0741C83.4566 88.0371 83.4354 87.9949 83.423 87.9498C83.4105 87.9047 83.4071 87.8576 83.4129 87.8111C86.1694 65.1705 92.6684 52.7456 96.3592 49.922C96.6318 49.6734 96.951 49.4815 97.2984 49.3574C97.6458 49.2333 98.0144 49.1796 98.3827 49.1993C98.4751 49.213 98.5583 49.2628 98.614 49.3378C98.6696 49.4129 98.6932 49.5069 98.6795 49.5993C98.6658 49.6917 98.616 49.7749 98.541 49.8306C98.466 49.8863 98.3719 49.9098 98.2795 49.8961C97.7269 49.8952 97.195 50.1058 96.7928 50.4846C93.3291 53.1327 86.8301 65.63 84.1149 87.8989C84.1098 87.9451 84.0956 87.9899 84.073 88.0305C84.0504 88.0712 84.02 88.107 83.9835 88.1358C83.947 88.1646 83.9052 88.1859 83.8604 88.1984C83.8156 88.2109 83.7687 88.2144 83.7226 88.2086Z" fill="#263238"/>
<path d="M72.9762 121.168C80.2517 121.168 86.1496 115.27 86.1496 107.995C86.1496 100.719 80.2517 94.8213 72.9762 94.8213C65.7007 94.8213 59.8027 100.719 59.8027 107.995C59.8027 115.27 65.7007 121.168 72.9762 121.168Z" fill="#263238"/>
<path d="M68.7823 102.201L67.1836 103.799L77.1739 113.79L78.7726 112.191L68.7823 102.201Z" fill="white"/>
<path d="M67.1874 112.188L68.7861 113.787L78.7764 103.797L77.1777 102.198L67.1874 112.188Z" fill="white"/>
<path d="M106.518 121.168C113.794 121.168 119.692 115.27 119.692 107.995C119.692 100.719 113.794 94.8213 106.518 94.8213C99.2427 94.8213 93.3447 100.719 93.3447 107.995C93.3447 115.27 99.2427 121.168 106.518 121.168Z" fill="#9255FA"/>
<path d="M112.569 103.003C111.766 102.202 110.678 101.752 109.544 101.752C108.41 101.752 107.322 102.202 106.519 103.003C106.122 102.606 105.65 102.291 105.131 102.076C104.613 101.862 104.057 101.751 103.495 101.751C102.933 101.752 102.377 101.863 101.859 102.078C101.34 102.293 100.869 102.608 100.472 103.005C100.075 103.402 99.7602 103.874 99.5455 104.393C99.3308 104.912 99.2205 105.468 99.2207 106.029C99.2209 106.591 99.3318 107.147 99.5469 107.666C99.762 108.184 100.077 108.656 100.474 109.052L106.519 115.097L112.569 109.052C113.37 108.249 113.819 107.162 113.819 106.028C113.819 104.894 113.37 103.806 112.569 103.003Z" fill="white"/>
</svg>
