<svg width="218" height="192" viewBox="0 0 218 192" fill="none" xmlns="http://www.w3.org/2000/svg">
<path d="M218 183.663C218 183.709 169.18 183.743 109 183.743C48.8197 183.743 0 183.722 0 183.663C0 183.605 48.7952 183.583 109 183.583C169.205 183.583 218 183.62 218 183.663Z" fill="#263238"/>
<path d="M108.723 168.334L108.358 178.107C108.358 178.107 118.189 181.75 118.281 183.565H99.3145L99.2451 168.317L108.723 168.334Z" fill="#263238"/>
<path d="M99.3145 183.548L99.3665 182.01L117.512 182.617C117.512 182.617 118.356 182.987 118.264 183.583L99.3145 183.548Z" fill="#9255FA"/>
<path d="M108.67 177.991C108.67 178.083 108.202 178.124 107.745 178.424C107.288 178.725 107.046 179.112 106.959 179.072C106.872 179.031 107.017 178.494 107.572 178.153C108.127 177.811 108.688 177.921 108.67 177.991Z" fill="white"/>
<path d="M110.659 178.835C110.659 178.922 110.277 179.078 109.959 179.471C109.641 179.864 109.554 180.275 109.462 180.275C109.369 180.275 109.312 179.743 109.711 179.269C110.11 178.794 110.653 178.742 110.659 178.835Z" fill="white"/>
<path d="M111.787 181.217C111.701 181.217 111.573 180.772 111.787 180.263C112.001 179.754 112.458 179.558 112.499 179.633C112.539 179.708 112.267 179.98 112.082 180.402C111.897 180.824 111.874 181.206 111.787 181.217Z" fill="white"/>
<path d="M108.503 175.776C108.463 175.857 108.04 175.73 107.514 175.776C106.988 175.822 106.583 175.979 106.537 175.898C106.491 175.817 106.878 175.487 107.497 175.452C108.116 175.418 108.549 175.678 108.503 175.776Z" fill="white"/>
<path d="M99.245 169.699L94.8214 180.217L95.5905 189.92C95.6041 190.087 95.5829 190.255 95.5283 190.413C95.4737 190.571 95.3868 190.716 95.2732 190.839C95.1596 190.962 95.0217 191.06 94.8683 191.127C94.7149 191.193 94.5493 191.228 94.3819 191.227C94.1885 191.23 93.9971 191.186 93.8241 191.1C93.651 191.013 93.5012 190.886 93.3874 190.73C91.9186 188.706 86.5524 181.235 86.7722 180.396C87.0266 179.425 90.0393 168.571 90.0393 168.571L99.245 169.699Z" fill="#263238"/>
<path d="M94.3821 191.227L86.9343 179.61L86.8418 180.107C86.7659 180.533 86.8438 180.971 87.0615 181.345C87.6398 182.345 89.3109 185.08 93.3702 190.724C93.4868 190.886 93.6418 191.017 93.8215 191.105C94.0011 191.193 94.1997 191.235 94.3995 191.227H94.3821Z" fill="#9255FA"/>
<path d="M92.5203 185.011C92.856 184.698 93.2486 184.453 93.6768 184.288C94.133 184.196 94.6027 184.196 95.0589 184.288C95.0589 184.259 94.9432 184.143 94.6772 184.057C94.3259 183.954 93.9525 183.954 93.6011 184.056C93.2497 184.159 92.9349 184.359 92.6938 184.635C92.5435 184.826 92.4914 184.993 92.5203 185.011Z" fill="white"/>
<path d="M93.0228 186.93C93.3899 186.803 93.7645 186.698 94.1446 186.618C94.5309 186.613 94.9171 186.632 95.3011 186.676C95.1429 186.53 94.952 186.426 94.7446 186.37C94.5371 186.315 94.3194 186.31 94.1099 186.358C93.3929 186.433 92.965 186.89 93.0228 186.93Z" fill="white"/>
<path d="M91.415 182.455C92.0006 182.315 92.596 182.22 93.196 182.172C93.7948 182.209 94.3901 182.29 94.9771 182.414C94.4421 182.078 93.8217 181.904 93.1901 181.911C92.5585 181.918 91.9422 182.107 91.415 182.455Z" fill="white"/>
<path d="M91.8945 179.801C91.8945 179.876 92.6058 179.726 93.45 179.847C94.2943 179.969 94.9188 180.287 94.9535 180.223C94.5552 179.843 94.0344 179.617 93.4847 179.587C92.9459 179.472 92.3839 179.548 91.8945 179.801Z" fill="white"/>
<path d="M124.352 82.2441C124.352 82.2441 128.29 94.7806 122.311 111.006C116.332 127.232 113.059 140.179 112.886 143.654C112.712 147.129 110.509 150.217 110.364 161.696C110.278 168.571 110.029 174.087 110.029 174.087L109.815 175.932C109.711 176.042 98.8284 175.146 98.8284 175.146C98.8284 175.146 97.6372 156.063 101.02 143.134C104.403 130.204 106.508 109.994 105.131 102.737C103.755 95.4803 106.363 91.288 106.363 91.288L124.352 82.2441Z" fill="#9255FA"/>
<path d="M84.8931 101.188C82.2678 89.8944 89.4728 78.1733 89.4728 78.1733L109.064 93.1384C109.064 93.1384 114.008 138.924 111.701 144.921C109.393 150.917 98.2622 175.394 98.2622 175.394L87.0268 173.405C87.0268 173.405 91.6528 153.502 94.2144 148.431C96.0417 144.782 98.2622 140.451 96.7414 135.767C95.2206 131.083 87.0326 110.422 84.8931 101.188Z" fill="#9255FA"/>
<path d="M124.45 82.4929C124.52 82.464 109.254 93.8324 109.254 93.8324L88.252 80.4517L90.3163 76.4039C90.3163 76.4039 102.98 80.5962 108.462 79.3819C113.944 78.1676 121.368 75.8257 121.368 75.8257L124.45 82.4929Z" fill="#9255FA"/>
<path d="M114.349 85.3496C114.311 85.3872 114.277 85.43 114.251 85.4768L113.973 85.8642L112.927 87.3735L109 93.0981C109.237 95.2088 109.359 97.6605 109.544 100.39C109.729 103.119 109.931 106.132 110.122 109.359C110.313 112.585 110.602 116.037 110.868 119.657C111.134 123.277 111.417 127.053 111.863 130.939C112.308 134.165 112.707 137.34 112.481 140.405C112.429 141.163 112.338 141.917 112.21 142.666C112.095 143.4 111.925 144.125 111.701 144.834C111.198 146.216 110.614 147.558 110.058 148.882C107.809 154.086 105.698 158.764 103.941 162.685L99.7598 171.937C99.2683 173.03 98.8925 173.88 98.6033 174.464C98.4819 174.747 98.3836 174.967 98.3142 175.123L98.2217 175.348C98.2647 175.28 98.3033 175.208 98.3373 175.134L98.6496 174.481L99.8061 171.977L104.062 162.725C105.837 158.81 107.965 154.156 110.226 148.94C110.804 147.633 111.383 146.303 111.88 144.892C112.112 144.173 112.286 143.436 112.4 142.689C112.533 141.935 112.628 141.174 112.684 140.411C112.915 137.317 112.51 134.119 112.065 130.893C111.62 127.024 111.36 123.237 111.065 119.628C110.77 116.02 110.538 112.562 110.296 109.335C110.053 106.109 109.856 103.102 109.659 100.367C109.463 97.6316 109.33 95.1625 109.081 93.0692V93.1155L112.944 87.3619L113.962 85.8295C114.071 85.6561 114.158 85.5289 114.216 85.4306L114.349 85.3496Z" fill="#263238"/>
<g opacity="0.3">
<path d="M112.989 87.4194L110.659 95.0061L112.312 132.396L108.999 93.0978L112.989 87.4194Z" fill="black"/>
</g>
<path d="M104.79 31.3292C104.434 24.2743 103.562 17.2549 102.182 10.3272L98.8746 4.48108C98.0088 4.16233 97.0738 4.07949 96.1654 4.24105C95.257 4.40261 94.4079 4.80276 93.7051 5.4005C92.3023 6.62005 91.3241 8.25443 90.9121 10.067C90.512 11.8658 90.2701 13.6962 90.1893 15.5372C89.8424 19.7122 89.2525 23.9334 89.8886 28.0794C90.1373 29.7043 90.6346 31.4044 91.8894 32.4683C93.1442 33.5323 95.1102 33.7636 96.8623 33.7694C98.9624 33.7696 101.06 33.613 103.136 33.301C103.652 33.2913 104.145 33.0843 104.513 32.7228C104.765 32.305 104.863 31.8119 104.79 31.3292Z" fill="#263238"/>
<path d="M117.338 32.48C119.055 33.2932 120.544 34.5166 121.675 36.042C122.537 37.239 128.718 45.0685 128.718 45.0685C128.718 45.0685 130.488 53.7711 124.619 55.5406H122.097L118.865 50.9666L116.419 37.3084L117.338 32.48Z" fill="#9255FA"/>
<path d="M99.0723 27.4204L96.5743 30.7453C96.5743 30.7453 88.1319 33.9604 87.4727 34.9955L89.5601 47.8847L91.3816 56.275L91.2891 63.9079C91.2891 63.9079 87.6635 71.8646 88.7968 73.848C89.9302 75.8314 103.294 81.9435 112.066 80.4343C120.838 78.9251 121.56 73.4259 121.56 73.4259L119.138 65.4172C119.138 65.4172 121.555 55.4539 122.029 52.9617C122.503 50.4694 117.368 32.4801 117.368 32.4801L113.378 32.1447L111.759 29.5368L99.0723 27.4204Z" fill="#9255FA"/>
<path d="M97.4463 46.4447C97.6352 46.3794 97.8284 46.3272 98.0245 46.2886L99.7188 45.9012C101.182 45.5773 103.281 45.1147 105.75 44.6001H105.883L105.918 44.7331C106.224 46.0573 106.559 47.4971 106.912 49.0064V49.1104L106.825 49.1683L106.398 49.4458L103.437 51.354H103.396H103.344L97.9205 50.8972H97.8279V50.8105C97.7065 49.4805 97.6082 48.3876 97.533 47.5723C97.5041 47.2253 97.4868 46.942 97.4694 46.7107C97.459 46.6146 97.459 46.5177 97.4694 46.4216C97.5009 46.5273 97.5222 46.6357 97.533 46.7454C97.5677 46.9825 97.6082 47.2716 97.6545 47.6243C97.7585 48.4165 97.8973 49.4863 98.0592 50.7816L97.9609 50.6833L103.391 51.0707H103.298L106.288 49.122L106.71 48.8444L106.646 49.0006C106.305 47.4913 105.975 46.0457 105.669 44.7215L105.837 44.8256C103.414 45.3113 101.344 45.7103 99.8634 45.9821L98.1286 46.3001C97.9055 46.367 97.6773 46.4154 97.4463 46.4447Z" fill="#263238"/>
<path d="M110.301 79.7465C110.286 79.5908 110.286 79.4339 110.301 79.2781C110.301 78.9717 110.301 78.5206 110.37 77.9424C110.44 76.7859 110.578 75.0974 110.804 73.033C111.03 70.9687 111.382 68.5053 111.509 65.7702C111.55 65.0879 111.544 64.3882 111.55 63.6654C111.556 62.9426 111.59 62.2082 111.619 61.4623C111.677 59.9646 111.77 58.4207 111.793 56.8363C111.897 53.6675 111.429 50.6779 111.093 47.9486C110.758 45.2192 110.422 42.779 110.151 40.7089C109.879 38.6388 109.676 36.9734 109.572 35.8169L109.434 34.4869C109.423 34.331 109.423 34.1745 109.434 34.0186C109.477 34.1678 109.506 34.3207 109.52 34.4754C109.572 34.8108 109.636 35.2502 109.717 35.8053L110.411 40.68C110.7 42.7443 111.041 45.1961 111.423 47.9139C111.804 50.6317 112.25 53.6501 112.146 56.8421C112.146 58.4322 112.03 59.982 111.966 61.4681C111.932 62.214 111.908 62.9484 111.891 63.6654C111.874 64.3824 111.891 65.0879 111.839 65.7818C111.677 68.5343 111.307 70.986 111.07 73.0504C110.833 75.1147 110.573 76.7974 110.486 77.9539C110.436 78.5091 110.395 78.9543 110.365 79.2897C110.355 79.4433 110.333 79.596 110.301 79.7465Z" fill="#263238"/>
<path d="M115.597 38.9684C115.265 38.9183 114.926 38.9919 114.645 39.1752C114.363 39.3586 114.159 39.6389 114.071 39.963C113.919 40.6214 114.007 41.3125 114.319 41.9117C114.469 42.2884 114.707 42.6237 115.013 42.8889C115.173 43.0189 115.364 43.1041 115.567 43.1356C115.771 43.1671 115.979 43.1438 116.17 43.0682C116.394 42.916 116.572 42.7061 116.686 42.4608C116.8 42.2154 116.845 41.9437 116.817 41.6746C116.823 41.1504 116.743 40.6289 116.58 40.1306C116.505 39.845 116.379 39.5749 116.21 39.3327C116.005 39.103 115.719 38.962 115.412 38.9395" fill="#FF725E"/>
<path d="M118.032 33.064C118.197 33.337 118.338 33.6232 118.454 33.9198C118.587 34.1973 118.732 34.5443 118.882 34.9548C119.033 35.3654 119.218 35.828 119.374 36.3542C120.222 39.0957 120.824 41.9075 121.172 44.7562C121.568 47.5983 121.692 50.4717 121.542 53.3374C121.495 54.2075 121.375 55.0721 121.184 55.9222C121.109 56.2229 121.016 56.4426 120.964 56.5987C120.912 56.7548 120.877 56.83 120.866 56.8242C120.916 56.5104 120.983 56.1996 121.068 55.8933C121.215 55.0446 121.302 54.1867 121.328 53.3258C121.414 50.4731 121.261 47.6182 120.871 44.7909C120.522 41.9597 119.951 39.1601 119.166 36.4178C119.033 35.8916 118.853 35.429 118.72 35.0127C118.587 34.5963 118.46 34.2494 118.344 33.9603C118.213 33.6717 118.109 33.3717 118.032 33.064Z" fill="#263238"/>
<path d="M109.307 33.7636C109.121 34.2313 108.898 34.6837 108.642 35.1167C108.196 35.9552 107.555 37.1406 106.786 38.5284L106.71 38.6556L106.589 38.5689C105.704 37.9906 104.779 37.2505 103.808 36.5045C101.882 35.0011 100.165 33.6133 98.9271 32.5898C98.3084 32.0809 97.8169 31.6646 97.4757 31.3697C97.2907 31.2311 97.1219 31.0721 96.9727 30.8955C97.179 31.003 97.373 31.1329 97.5509 31.2829L99.0601 32.4394L103.993 36.2732C104.964 37.025 105.883 37.7478 106.745 38.3549L106.548 38.3954C107.335 37.025 108.011 35.8627 108.497 35.0416C108.734 34.5957 109.005 34.1684 109.307 33.7636Z" fill="#263238"/>
<path d="M107.682 44.2822C109.671 45.6642 114.736 49.2724 114.736 49.2724L115.76 48.3762L108.572 43.0389C108.426 42.9313 108.247 42.8786 108.066 42.8903C107.885 42.9019 107.714 42.9771 107.583 43.1025C107.502 43.1812 107.439 43.277 107.399 43.383C107.359 43.4891 107.343 43.6027 107.352 43.7157C107.362 43.8287 107.396 43.9381 107.453 44.0361C107.51 44.1341 107.588 44.2181 107.682 44.2822Z" fill="#263238"/>
<path d="M110.029 56.8244L111.429 49.7582C111.495 49.2929 111.701 48.8588 112.021 48.5137C112.34 48.1687 112.757 47.9291 113.215 47.8269L113.435 47.798C114.308 47.7402 118.755 47.2197 118.755 47.2197L120.796 48.8157C120.969 48.9471 121.088 49.1372 121.131 49.3502C121.173 49.5632 121.137 49.7844 121.028 49.9722L122.138 53.3203L121.288 54.1472L121.82 56.5353C121.82 56.5353 121.068 57.2639 120.663 57.1136L120.247 56.9921L119.57 56.5238L118.368 59.1085L116.355 60.8375L110.029 56.8244Z" fill="#FFBF9D"/>
<path d="M121.063 50.1572C120.833 49.946 120.588 49.7527 120.328 49.579C120.047 49.4158 119.74 49.3005 119.421 49.2378C119.013 49.2165 118.605 49.234 118.2 49.2898C117.136 49.4224 116.063 49.4727 114.991 49.4402C116.043 49.2234 117.11 49.0881 118.183 49.0354C118.605 48.977 119.032 48.9673 119.455 49.0065C119.803 49.0828 120.133 49.2262 120.427 49.4286C120.924 49.7871 121.092 50.1456 121.063 50.1572Z" fill="#FF9A6C"/>
<path d="M121.56 53.3317C121.409 53.0491 121.239 52.7767 121.051 52.5164C120.54 51.9386 119.85 51.5479 119.091 51.4062C118.326 51.2672 117.543 51.2672 116.778 51.4062C116.459 51.4827 116.134 51.5311 115.807 51.5507C116.099 51.3914 116.415 51.282 116.743 51.2269C117.527 51.0238 118.345 50.9902 119.143 51.1286C119.956 51.279 120.685 51.7237 121.19 52.3776C121.418 52.6448 121.548 52.9811 121.56 53.3317Z" fill="#FF9A6C"/>
<path d="M121.646 56.3614C121.434 56.0997 121.294 55.7866 121.241 55.4536C121.165 55.1193 121.032 54.8006 120.848 54.511C120.733 54.3473 120.579 54.214 120.401 54.1224C120.223 54.0307 120.025 53.9836 119.825 53.9848C119.041 53.9618 118.257 53.9907 117.477 54.0716C117.147 54.1142 116.813 54.0985 116.488 54.0253C116.81 53.956 117.137 53.9115 117.466 53.8923C118.252 53.7586 119.051 53.7063 119.848 53.7362C120.089 53.747 120.326 53.808 120.542 53.9154C120.748 54.022 120.921 54.1818 121.045 54.378C121.229 54.6967 121.356 55.045 121.421 55.4073C121.525 56.0087 121.669 56.3441 121.646 56.3614Z" fill="#FF9A6C"/>
<path d="M122.664 48.3358L107.271 71.3212L108.139 71.9284L121.421 67.9442L136.525 47.2487L136.352 46.416L122.664 48.3358Z" fill="#263238"/>
<g opacity="0.3">
<path d="M126.116 60.4037C125.689 60.1373 125.212 59.9626 124.714 59.891C124.216 59.8193 123.709 59.8521 123.224 59.9874C122.252 60.269 121.386 60.8349 120.738 61.6123C120.176 62.2035 119.827 62.9639 119.743 63.7749C119.674 65.1858 120.83 66.4464 122.172 66.8743L122.305 66.6488L126.295 62.0575C126.519 61.8513 126.664 61.5731 126.705 61.2711C126.686 61.0891 126.622 60.9147 126.519 60.7634C126.416 60.612 126.278 60.4885 126.116 60.4037Z" fill="black"/>
</g>
<path d="M123.785 58.9406C124.607 58.7905 125.446 58.7535 126.277 58.8307C127.198 59.2977 128.073 59.8494 128.891 60.4787C128.891 60.4787 129.111 61.6699 128.642 61.8029C128.747 62.0611 128.829 62.3281 128.885 62.6009C129.053 63.2601 129.215 63.6244 128.417 64.3356C128.417 64.3356 128.712 65.417 128.417 65.7639C128.224 65.9954 128.015 66.2137 127.792 66.4173C127.792 66.4173 126.977 67.8977 126.341 67.915C126.133 67.9349 125.934 68.0086 125.763 68.129C125.41 68.349 125.016 68.4925 124.604 68.5503C124.193 68.6081 123.774 68.5788 123.375 68.4643C122.438 68.1983 121.461 67.8861 121.64 67.6085L122.565 66.1051C122.565 66.1051 119.951 64.8387 119.905 64.3067C119.859 63.7747 120.038 63.688 120.038 63.688C120.038 63.688 119.761 62.705 120.553 62.4621C120.553 62.4621 120.952 61.109 121.565 60.9471C122.178 60.7852 126.653 61.5543 126.653 61.5543L124.832 60.5019C124.832 60.5019 123.218 60.5481 123.166 60.0161C123.114 59.4841 123.785 58.9406 123.785 58.9406Z" fill="#FFBF9D"/>
<path d="M124.647 65.2788C123.866 65.1037 123.094 64.8875 122.334 64.6311C121.553 64.4566 120.781 64.2423 120.021 63.9893C120.835 63.9957 121.643 64.1284 122.415 64.3825C123.202 64.5627 123.955 64.8651 124.647 65.2788Z" fill="#FF9A6C"/>
<path d="M126.567 63.4223C125.594 63.3695 124.627 63.238 123.676 63.0291C122.707 62.896 121.752 62.6813 120.819 62.3872C121.793 62.4327 122.76 62.5643 123.711 62.7804C124.68 62.9103 125.636 63.125 126.567 63.4223Z" fill="#FF9A6C"/>
<path d="M136.444 47.2254L136.195 47.2832L135.473 47.4162L132.755 47.8788L123.295 49.4054L123.376 49.3534L119.524 55.1359L111.521 67.042L109.075 70.6329L108.387 71.5928C108.314 71.7079 108.231 71.8163 108.139 71.9167C108.195 71.7918 108.265 71.6735 108.347 71.5639L108.983 70.5636C109.561 69.6846 110.365 68.4472 111.365 66.9264L119.305 54.9797L123.167 49.1972L123.196 49.1568H123.248L132.732 47.7169L135.461 47.3237L136.19 47.2312C136.274 47.2216 136.359 47.2196 136.444 47.2254Z" fill="#9255FA"/>
<path d="M110.145 56.0496L96.5617 61.543L94.0406 47.2603L82.4756 49.2726C83.6321 55.5177 84.9505 69.4072 88.5009 72.0267C91.4963 74.2414 98.2329 72.4719 102.344 70.1474C109.133 66.302 114.967 59.8545 114.967 59.8545L110.145 56.0496Z" fill="#FFBF9D"/>
<path d="M113.349 32.3125C113.379 32.7464 113.326 33.1822 113.192 33.5962C112.938 34.6229 112.513 35.6 111.938 36.4875C111.793 36.713 111.631 36.9327 111.475 37.1351L111.348 37.3028L111.238 37.1293C110.546 36.1422 109.925 35.1064 109.382 34.0299C110.154 34.9551 110.856 35.937 111.481 36.9674H111.244C111.388 36.765 111.544 36.5568 111.689 36.3313C112.443 35.0835 113.002 33.7284 113.349 32.3125Z" fill="#263238"/>
<g opacity="0.3">
<path d="M86.5068 83.355C86.8248 83.1641 87.2411 83.5111 87.3047 83.8754C87.3188 84.2494 87.2779 84.6235 87.1833 84.9856C87.1669 85.3992 87.2395 85.8114 87.3961 86.1945C87.5527 86.5775 87.7897 86.9225 88.0912 87.2061C88.7104 87.7677 89.4101 88.2335 90.1671 88.5881C91.6301 89.3688 93.1335 90.1668 94.7931 90.3576C96.4526 90.5484 98.2626 90.0222 99.182 88.6228C99.5347 88.0793 99.7602 87.4143 100.263 87.0269C100.963 86.5006 101.946 86.6741 102.813 86.8129C107.439 87.5357 112.187 86.3272 116.743 85.1244C116.026 86.3387 116.882 88.0504 118.206 88.5245C118.888 88.7149 119.608 88.7233 120.294 88.5488C120.979 88.3743 121.608 88.023 122.115 87.5299C123.445 86.3734 124.116 84.1125 122.902 82.8172C121.953 81.8053 120.369 81.8284 118.987 81.9325C113.366 82.3546 107.74 82.8924 102.114 82.6611C96.4873 82.4298 90.7916 81.4236 85.7666 78.8735" fill="black"/>
</g>
<path d="M88.981 68.8924C89.029 68.5805 88.967 68.2616 88.8055 67.9905C88.6441 67.7193 88.3933 67.5128 88.0962 67.4063C86.8646 66.9669 84.939 66.3886 84.5516 66.909C83.9328 67.6665 79.8562 85.2049 81.2382 86.3787C81.8099 86.8487 82.5092 87.1367 83.2461 87.2058C83.9829 87.2748 84.7236 87.1217 85.3727 86.7661C86.7952 86.0086 88.3333 72.9749 88.981 68.8924Z" fill="#263238"/>
<path d="M86.0957 80.8973C86.2114 81.1113 89.7155 83.3549 89.7155 83.3549L91.4908 74.4441C91.4908 74.4441 88.4492 73.01 87.9866 72.0906C87.524 71.1712 86.0957 80.8973 86.0957 80.8973Z" fill="#263238"/>
<path d="M92.7806 72.6338C92.3655 72.5086 91.9257 72.4896 91.5014 72.5785C91.077 72.6674 90.6818 72.8614 90.3519 73.1426C90.2053 73.267 90.0837 73.4181 89.9934 73.5879C89.6233 74.3396 88.3223 85.5345 88.3223 85.5345L95.9841 88.2985L97.6379 87.09L99.6386 76.722C99.6386 76.722 100.217 74.9583 98.8811 74.409C98.4301 74.2471 94.6368 73.16 92.7806 72.6338Z" fill="#263238"/>
<path d="M92.7793 72.6335C92.8312 72.6273 92.8836 72.6273 92.9354 72.6335L93.398 72.7491L95.1328 73.2291L97.8795 74.0039L98.7006 74.2353C99.0184 74.3059 99.3034 74.481 99.5101 74.7325C99.6952 75.0268 99.8116 75.3589 99.8506 75.7043C99.8897 76.0497 99.8504 76.3994 99.7357 76.7275L97.7638 87.1013V87.1591L97.7176 87.1938L96.058 88.4024L95.9944 88.4486L95.9192 88.4197L95.1039 88.1248L88.2574 85.6499L88.1533 85.6152V85.4995C88.6911 81.0933 89.1768 77.3173 89.6394 74.6516C89.703 74.3162 89.7609 74.0097 89.8476 73.7033C89.9391 73.419 90.1221 73.173 90.368 73.0036C90.7321 72.7181 91.1687 72.5399 91.6286 72.4889C91.9103 72.4563 92.1955 72.47 92.4728 72.5294C92.5703 72.5474 92.6653 72.5765 92.7562 72.6162C92.388 72.549 92.0118 72.5373 91.6402 72.5815C91.215 72.6519 90.8161 72.8334 90.4837 73.1077C90.2623 73.2654 90.1012 73.4938 90.0268 73.7553C89.9517 74.0329 89.8996 74.3335 89.8418 74.6805C89.4313 77.3404 88.9802 81.128 88.4656 85.5342L88.3731 85.3839L95.2195 87.8415L96.0406 88.1363H95.8961L97.5557 86.9278L97.4978 87.0203L99.5275 76.6581C99.6341 76.3675 99.6743 76.0568 99.6453 75.7486C99.6163 75.4405 99.5187 75.1427 99.3598 74.8771C99.1825 74.6507 98.9304 74.4948 98.6485 74.4376L97.8506 74.2121L95.1328 73.3852L93.398 72.8474L92.947 72.6971C92.8256 72.6624 92.7735 72.6393 92.7793 72.6335Z" fill="#9255FA"/>
<path d="M99.4538 75.1031C99.2348 75.2236 99.0242 75.3588 98.8235 75.5078C98.3102 75.9614 97.9354 76.5507 97.7422 77.2079C97.4531 78.029 97.3779 79.0756 97.0483 80.2206C96.8769 80.8283 96.5772 81.3922 96.1694 81.8744C95.7251 82.3856 95.1718 82.7907 94.5503 83.0598C93.9591 83.3459 93.312 83.498 92.6553 83.505C91.9985 83.512 91.3483 83.3738 90.7512 83.1002C90.2532 82.8095 89.8512 82.3793 89.5947 81.8628C89.3664 81.424 89.2177 80.9483 89.1552 80.4576C89.0815 79.7564 89.1029 79.0484 89.2188 78.3528C89.2429 78.0972 89.2953 77.8451 89.3749 77.6011C89.3865 77.8561 89.3749 78.1115 89.3402 78.3644C89.2575 79.0481 89.2575 79.7393 89.3402 80.4229C89.4108 80.8868 89.5615 81.3349 89.7855 81.7471C90.0435 82.2205 90.4358 82.6068 90.9131 82.8574C91.4745 83.1002 92.0814 83.2196 92.693 83.2076C93.3045 83.1957 93.9063 83.0526 94.4578 82.788C95.0388 82.5318 95.5575 82.1531 95.9786 81.6778C96.3641 81.2291 96.6481 80.7024 96.8112 80.1338C97.1466 79.0467 97.2449 77.977 97.5687 77.1385C97.7883 76.4505 98.2118 75.8455 98.7831 75.4037C98.9396 75.2905 99.1107 75.199 99.2919 75.132C99.3844 75.1031 99.4538 75.0915 99.4538 75.1031Z" fill="#9255FA"/>
<path d="M95.9316 83.6664C97.4481 84.2239 99.0147 84.6344 100.61 84.8922C102.654 85.1899 104.725 85.2597 106.785 85.1004L107.364 79.422C107.364 79.422 101.72 79.7285 98.6899 77.8896L95.9316 83.6664Z" fill="#263238"/>
<path d="M112.985 79.0408L112.309 84.644C114.678 84.4703 117.013 83.9722 119.248 83.1637L120.155 77.1499C117.981 78.4189 115.503 79.0725 112.985 79.0408Z" fill="#263238"/>
<path d="M114.141 78.2656L111.365 78.3003L110.787 79.7228L109.197 79.7922L108.451 78.5316L105.455 78.6241L105.114 85.2971C106.212 85.625 107.382 85.625 108.48 85.2971L109.058 84.1406L110.717 84.1696L111.238 85.3261L113.961 85.222L114.424 79.2544L114.141 78.2656Z" fill="#263238"/>
<path d="M114.14 78.266C114.175 78.3384 114.202 78.4139 114.221 78.4915C114.285 78.6881 114.354 78.9252 114.447 79.2143C114.389 80.3708 114.25 82.4525 114.054 85.1876V85.2917H113.944L111.214 85.4074H111.151L111.11 85.3264C110.948 84.9679 110.769 84.5747 110.584 84.1699L110.711 84.2509H109.052L109.185 84.1699L108.641 85.3264V85.3842H108.583C107.509 85.7189 106.361 85.739 105.276 85.4421L105.125 85.4016L105.016 85.3726V85.2512C105.143 82.8804 105.258 80.6252 105.368 78.5782V78.532H105.496L108.491 78.4568H108.566L108.601 78.5204C108.867 78.9599 109.121 79.3762 109.37 79.7694L109.266 79.7174L110.856 79.6653L110.769 79.7289L111.347 78.3122V78.2602H111.405H113.475C113.71 78.2433 113.946 78.2433 114.181 78.2602C113.933 78.2901 113.684 78.3056 113.435 78.3064L111.405 78.3758L111.48 78.3238C111.319 78.7517 111.145 79.2259 110.948 79.7521V79.8157H110.885L109.295 79.8966H109.225L109.191 79.8388C108.942 79.4456 108.682 79.035 108.41 78.5956L108.52 78.6534L105.524 78.7633L105.657 78.6303C105.553 80.6773 105.444 82.9324 105.328 85.309L105.224 85.1587L105.363 85.1934C106.389 85.4709 107.473 85.4549 108.491 85.1471L108.404 85.2223L108.982 84.0658L109.023 83.9791H109.115L110.775 84.0138H110.862L110.902 84.0947L111.417 85.2512L111.29 85.176L114.019 85.0835L113.903 85.1992C114.129 82.4641 114.314 80.3708 114.435 79.2374C114.366 78.9483 114.314 78.7112 114.273 78.5204C114.221 78.4401 114.176 78.3549 114.14 78.266Z" fill="#9255FA"/>
<path d="M123.184 84.4473C123.184 84.4473 125.405 83.7765 125.7 82.62C125.995 81.4635 126.18 70.2455 125.7 69.5689C125.22 68.8924 122.525 69.1353 122.375 69.2798C122.224 69.4244 120.964 71.2632 120.964 71.2632L123.184 84.4473Z" fill="#263238"/>
<path d="M120.044 74.692L117.338 86.76C117.338 86.76 119.223 88.0842 120.194 88.009C121.166 87.9339 123.496 86.3726 123.496 86.3726C123.496 86.3726 126.226 74.1368 125.994 73.8246C125.763 73.5123 124.664 72.5582 124.046 72.5293C123.595 72.5293 121.773 73.3042 120.807 73.7494C120.616 73.837 120.448 73.9677 120.315 74.1312C120.183 74.2947 120.09 74.4866 120.044 74.692Z" fill="#263238"/>
<path d="M120.045 74.6924C120.057 74.5586 120.096 74.4286 120.161 74.3108C120.349 73.9642 120.664 73.7033 121.039 73.5822C121.491 73.3682 122.04 73.1138 122.693 72.8478C123.042 72.6964 123.402 72.5708 123.769 72.472C123.987 72.4094 124.221 72.4257 124.428 72.5182C124.631 72.6043 124.825 72.7109 125.006 72.8362C125.411 73.0928 125.774 73.4108 126.082 73.7788C126.11 73.922 126.11 74.0693 126.082 74.2125L126.03 74.5883L125.908 75.3459C125.729 76.3751 125.515 77.468 125.284 78.6187C124.821 80.9317 124.278 83.4298 123.694 86.0666L123.624 86.402V86.4656H123.578C123.063 86.801 122.549 87.1132 122.022 87.4023C121.506 87.7051 120.952 87.9384 120.374 88.0963C120.07 88.1461 119.758 88.1183 119.467 88.0153C119.192 87.928 118.925 87.8178 118.669 87.6857C118.178 87.4419 117.706 87.1617 117.258 86.8472L117.177 86.7952V86.7027C117.986 83.1927 118.674 80.1916 119.178 78.0289L119.756 75.5482C119.825 75.2822 119.883 75.0625 119.923 74.889C119.939 74.8111 119.965 74.7354 119.999 74.6635C120.009 74.7422 120.009 74.8219 119.999 74.9006C119.964 75.0741 119.923 75.2938 119.871 75.5656L119.357 78.0636C118.883 80.2321 118.229 83.2679 117.46 86.7374L117.402 86.5928C117.843 86.8952 118.305 87.1657 118.784 87.4023C119.242 87.6785 119.771 87.8114 120.305 87.784C120.853 87.6305 121.378 87.4049 121.866 87.1132C122.381 86.8299 122.896 86.535 123.399 86.1938L123.335 86.2863L123.41 85.9509C123.989 83.3141 124.521 80.7987 125.018 78.5089C125.255 77.3524 125.48 76.2768 125.665 75.2533C125.712 74.9989 125.758 74.7445 125.798 74.5016L125.85 74.1373V73.958C125.85 73.9176 125.85 73.8135 125.85 73.8424C125.559 73.503 125.223 73.2054 124.85 72.9577C124.492 72.7322 124.116 72.4951 123.763 72.6049C123.403 72.698 123.05 72.8139 122.705 72.9519C122.051 73.2005 121.496 73.4434 121.039 73.6342C120.679 73.7386 120.368 73.9709 120.166 74.2877C120.085 74.5594 120.062 74.6982 120.045 74.6924Z" fill="#9255FA"/>
<path d="M124.011 73.6288L130.441 57.6344C130.545 57.3742 130.129 57.2585 130.025 57.5187C127.881 62.8502 125.738 68.1817 123.595 73.5131C123.491 73.7676 123.907 73.8832 124.011 73.6288Z" fill="#9255FA"/>
<path d="M120.671 77.0706L120.631 77.0623C120.371 77.0082 120.117 77.1747 120.063 77.4342L119.656 79.3871C119.602 79.6466 119.768 79.9008 120.028 79.955L120.067 79.9632C120.327 80.0173 120.581 79.8509 120.635 79.5914L121.042 77.6384C121.097 77.3789 120.93 77.1247 120.671 77.0706Z" fill="#9255FA"/>
<path d="M119.83 80.7815L119.79 80.7733C119.531 80.7192 119.276 80.8857 119.222 81.1451L119.214 81.1848C119.16 81.4442 119.326 81.6985 119.586 81.7526L119.626 81.7608C119.885 81.815 120.139 81.6485 120.193 81.389L120.202 81.3494C120.256 81.0899 120.089 80.8357 119.83 80.7815Z" fill="#9255FA"/>
<path d="M125.995 73.8247C125.78 74.0725 125.526 74.2834 125.243 74.4492C124.605 74.9128 123.909 75.2919 123.173 75.5768C122.948 75.6639 122.708 75.7033 122.468 75.6924C122.244 75.6684 122.026 75.6037 121.826 75.5016C121.505 75.3327 121.209 75.1206 120.947 74.8713C120.507 74.455 120.305 74.137 120.334 74.1138C120.601 74.2838 120.853 74.4774 121.085 74.6921C121.35 74.9046 121.637 75.0869 121.941 75.2356C122.125 75.3158 122.32 75.3646 122.52 75.3802C122.717 75.384 122.914 75.3486 123.098 75.2761C123.808 74.9902 124.495 74.6479 125.151 74.2526C125.41 74.0707 125.695 73.9266 125.995 73.8247Z" fill="#9255FA"/>
<path d="M122.48 75.5543C122.561 75.5543 122.052 78.3703 121.323 81.7994C120.595 85.2284 119.964 88.0098 119.883 87.9924C119.802 87.9751 120.317 85.1763 121.04 81.7415C121.763 78.3067 122.399 75.5369 122.48 75.5543Z" fill="#9255FA"/>
<path d="M125.491 76.6064C124.741 77.1021 123.89 77.4259 122.999 77.5548C122.97 77.4738 123.502 77.202 124.19 76.9361C124.594 76.7296 125.038 76.6169 125.491 76.6064Z" fill="#9255FA"/>
<path d="M125.451 77.2134C125.084 77.5168 124.656 77.7376 124.196 77.861C123.771 78.0778 123.307 78.2039 122.831 78.2311C123.198 77.9277 123.626 77.7068 124.086 77.5835C124.51 77.3662 124.975 77.2401 125.451 77.2134Z" fill="#9255FA"/>
<path d="M125.312 77.8726C124.947 78.1773 124.521 78.4001 124.063 78.526C123.643 78.7427 123.182 78.8688 122.71 78.8961C123.073 78.5922 123.497 78.3694 123.953 78.2426C124.376 78.0263 124.838 77.9002 125.312 77.8726Z" fill="#9255FA"/>
<path d="M125.14 78.5317C124.78 78.8303 124.36 79.0474 123.908 79.1678C123.489 79.3807 123.03 79.5029 122.561 79.5263C122.922 79.2275 123.344 79.0105 123.798 78.8902C124.215 78.6772 124.672 78.555 125.14 78.5317Z" fill="#9255FA"/>
<path d="M125.156 79.1392C124.763 79.4426 124.316 79.6665 123.837 79.7984C123.391 80.0189 122.906 80.1486 122.409 80.18C123.241 79.644 124.177 79.2894 125.156 79.1392Z" fill="#9255FA"/>
<path d="M123.121 73.9981H123.156H123.098H123.144H123.086H123.132H123.08H123.127L123.08 73.9634L123.115 74.0039L123.08 73.9576C123.083 73.971 123.083 73.9848 123.08 73.9981V73.9461C123.081 73.9596 123.081 73.9731 123.08 73.9865V73.9287V73.9634V73.9056C123.081 73.9191 123.081 73.9326 123.08 73.9461V73.894C123.083 73.9074 123.083 73.9212 123.08 73.9345L123.115 73.894L123.08 73.9287L123.127 73.894H123.08H123.132H123.086H123.156H123.121H123.167H123.138L123.179 73.9287C123.179 73.9287 123.179 73.9287 123.15 73.8998L123.184 73.9461C123.182 73.9307 123.182 73.9152 123.184 73.8998V73.9519C123.182 73.9365 123.182 73.9209 123.184 73.9056V73.9634C123.179 73.9446 123.179 73.9244 123.184 73.9056V73.9634C123.185 73.9499 123.185 73.9364 123.184 73.9229V73.975C123.183 73.9635 123.183 73.9518 123.184 73.9403L123.15 73.9808C123.172 73.9627 123.188 73.9385 123.196 73.9114C123.202 73.8847 123.202 73.8571 123.196 73.8304C123.195 73.7722 123.172 73.7165 123.132 73.6743C123.089 73.636 123.034 73.6135 122.976 73.6107C122.92 73.6134 122.867 73.636 122.826 73.6743C122.801 73.6994 122.782 73.7288 122.768 73.761C122.747 73.7985 122.733 73.8398 122.728 73.8825C122.728 73.9114 122.728 73.9345 122.728 73.9634C122.725 73.9981 122.725 74.0329 122.728 74.0675C122.739 74.0994 122.752 74.1303 122.768 74.16C122.786 74.1894 122.807 74.2166 122.832 74.241L122.918 74.2988L122.988 74.3277H123.075C123.146 74.3312 123.216 74.3131 123.277 74.2757C123.309 74.2593 123.338 74.2378 123.364 74.2121L123.416 74.1485C123.428 74.1244 123.438 74.0992 123.445 74.0733C123.447 74.0464 123.447 74.0193 123.445 73.9923V73.9634C123.453 73.9195 123.453 73.8743 123.445 73.8304V73.7842C123.431 73.7616 123.416 73.7403 123.398 73.7205C123.374 73.6927 123.344 73.6692 123.312 73.6512C123.28 73.6282 123.245 73.6106 123.208 73.5991H123.127H123.04H123.011C122.984 73.6047 122.958 73.6165 122.936 73.6338C122.914 73.6521 122.894 73.6736 122.878 73.6974C122.858 73.7515 122.858 73.8111 122.878 73.8651C122.884 73.892 122.897 73.9173 122.914 73.9392C122.93 73.9612 122.952 73.9792 122.976 73.9923C123.002 74.0051 123.031 74.0117 123.06 74.0117C123.089 74.0117 123.118 74.0051 123.144 73.9923L123.121 73.9981Z" fill="#9255FA"/>
<path d="M122.195 74.4323H122.236H122.138H122.19H122.138H122.178L122.138 74.3976L122.172 74.4323L122.138 74.3918V74.4265V74.3744C122.14 74.3879 122.14 74.4015 122.138 74.4149V74.3398C122.14 74.3531 122.14 74.3669 122.138 74.3802V74.3282C122.14 74.3416 122.14 74.3552 122.138 74.3687L122.172 74.3224C122.164 74.3367 122.152 74.3487 122.138 74.3571H122.178H122.138H122.19H122.138H122.195H122.155H122.213H122.172H122.224H122.19L122.236 74.3918C122.236 74.3918 122.236 74.3918 122.207 74.3629L122.242 74.4034C122.229 74.3924 122.219 74.3785 122.213 74.3629V74.4149C122.21 74.3977 122.21 74.3801 122.213 74.3629V74.4265C122.21 74.4131 122.21 74.3994 122.213 74.386V74.4381C122.213 74.4381 122.213 74.4381 122.213 74.4034L122.178 74.4438C122.198 74.4252 122.212 74.4011 122.219 74.3744C122.227 74.3481 122.227 74.3198 122.219 74.2935C122.217 74.2354 122.195 74.1799 122.155 74.1374C122.113 74.0973 122.057 74.0746 121.999 74.0738C121.971 74.0737 121.943 74.0793 121.917 74.0902C121.891 74.1011 121.868 74.1172 121.849 74.1374C121.824 74.1618 121.803 74.1889 121.785 74.2183C121.769 74.2593 121.757 74.3019 121.75 74.3455C121.745 74.3703 121.745 74.396 121.75 74.4207C121.747 74.4553 121.747 74.4902 121.75 74.5248C121.76 74.5601 121.775 74.5933 121.796 74.6231C121.814 74.6509 121.836 74.6762 121.86 74.6983C121.883 74.7226 121.911 74.7422 121.941 74.7561H122.016C122.043 74.7621 122.071 74.7621 122.097 74.7561C122.169 74.758 122.241 74.7421 122.305 74.7098L122.392 74.6462C122.411 74.6275 122.426 74.6061 122.438 74.5826L122.473 74.5074C122.473 74.5074 122.473 74.4554 122.473 74.4323V74.4034C122.47 74.3579 122.46 74.3132 122.444 74.2704C122.442 74.255 122.442 74.2395 122.444 74.2241C122.43 74.2019 122.415 74.1806 122.398 74.1605L122.311 74.0853L122.207 74.0391H122.178H122.091H122.01H121.976C121.95 74.0478 121.927 74.0616 121.906 74.0795C121.88 74.093 121.859 74.1156 121.849 74.1432C121.837 74.1697 121.831 74.1982 121.831 74.227C121.831 74.2558 121.837 74.2843 121.849 74.3108C121.865 74.3634 121.9 74.4084 121.947 74.4381C122.001 74.458 122.06 74.458 122.115 74.4381L122.195 74.4323Z" fill="#FF725E"/>
<path d="M81.4404 59.8605C81.4404 59.8605 78.1212 37.0196 89.1484 34.4175C90.6056 34.0705 93.387 45.3753 94.3122 46.6417L96.5732 58.0332C96.5732 58.0332 86.0201 60.9938 81.4404 59.8605Z" fill="#9255FA"/>
<path d="M82.3829 43.1666C83.5973 43.2244 84.2449 43.1088 85.465 43.1666C85.3108 45.0941 85.1566 47.0216 85.0024 48.9491L81.8047 48.8103C81.8047 48.8103 81.9492 46.8385 82.0244 45.3986C82.0431 44.6419 82.1637 43.8911 82.3829 43.1666Z" fill="#FF725E"/>
<path d="M94.041 45.0859C94.2162 45.6811 94.3495 46.2878 94.44 46.9016C94.6829 48.116 94.9836 49.6252 95.3132 51.2963C95.6428 52.9675 95.9435 54.5808 96.1054 55.7199C96.2264 56.3314 96.2903 56.9528 96.2962 57.5761C96.1181 56.9797 95.9847 56.3709 95.8972 55.7546C95.6543 54.5461 95.3536 53.0311 95.0183 51.3599C94.6829 49.6888 94.388 48.0755 94.2318 46.9363C94.1109 46.3268 94.047 45.7073 94.041 45.0859Z" fill="#263238"/>
<path d="M92.549 42.4083C92.5028 42.4083 92.364 41.9341 92.0344 41.2055C91.6028 40.2658 91.0294 39.3979 90.3343 38.6323C89.635 37.8625 88.8194 37.2069 87.9172 36.6894C87.5204 36.5009 87.1343 36.2905 86.7607 36.0591C87.1976 36.1319 87.6184 36.2806 88.004 36.4985C88.961 36.9819 89.8214 37.6365 90.5425 38.4299C91.2622 39.223 91.8288 40.1425 92.2136 41.1419C92.4034 41.5394 92.5171 41.9689 92.549 42.4083Z" fill="#263238"/>
<path d="M93.7576 67.0886C93.6463 66.7736 93.6088 66.4373 93.6477 66.1056C93.6842 65.303 93.8907 64.5174 94.2535 63.8007C94.6164 63.0839 95.1273 62.4524 95.7526 61.948C95.9934 61.7184 96.2844 61.5481 96.6026 61.4507C95.762 62.1447 95.0563 62.9876 94.5209 63.9371C94.0698 64.93 93.8108 65.9994 93.7576 67.0886Z" fill="#FF9A6C"/>
<path d="M110.932 59.675C110.505 58.8859 110.274 58.005 110.261 57.1076C110.151 56.2196 110.252 55.318 110.556 54.4766C110.649 54.4766 110.452 55.6331 110.556 57.0845C110.66 58.5359 111.019 59.6461 110.932 59.675Z" fill="#FF9A6C"/>
<path d="M107.682 44.2822C109.671 45.6642 114.736 49.2724 114.736 49.2724L115.76 48.3762L108.572 43.0389C108.426 42.9313 108.247 42.8786 108.066 42.8903C107.885 42.9019 107.714 42.9771 107.583 43.1025C107.502 43.1812 107.439 43.277 107.399 43.383C107.359 43.4891 107.343 43.6027 107.352 43.7157C107.362 43.8287 107.396 43.9381 107.453 44.0361C107.51 44.1341 107.588 44.2181 107.682 44.2822Z" fill="#263238"/>
<path d="M110.029 56.8244L111.429 49.7582C111.495 49.2929 111.701 48.8588 112.021 48.5137C112.34 48.1687 112.757 47.9291 113.215 47.8269L113.435 47.798C114.308 47.7402 118.755 47.2197 118.755 47.2197L120.796 48.8157C120.969 48.9471 121.088 49.1372 121.131 49.3502C121.173 49.5632 121.137 49.7844 121.028 49.9722L122.138 53.3203L121.288 54.1472L121.82 56.5353C121.82 56.5353 121.068 57.2639 120.663 57.1136L120.247 56.9921L119.57 56.5238L118.368 59.1085L116.355 60.8375L110.029 56.8244Z" fill="#FFBF9D"/>
<path d="M121.063 50.1572C120.833 49.946 120.588 49.7527 120.328 49.579C120.047 49.4158 119.74 49.3005 119.421 49.2378C119.013 49.2165 118.605 49.234 118.2 49.2898C117.136 49.4224 116.063 49.4727 114.991 49.4402C116.043 49.2234 117.11 49.0881 118.183 49.0354C118.605 48.977 119.032 48.9673 119.455 49.0065C119.803 49.0828 120.133 49.2262 120.427 49.4286C120.924 49.7871 121.092 50.1456 121.063 50.1572Z" fill="#FF9A6C"/>
<path d="M121.56 53.3317C121.409 53.0491 121.239 52.7767 121.051 52.5164C120.54 51.9386 119.85 51.5479 119.091 51.4062C118.326 51.2672 117.543 51.2672 116.778 51.4062C116.459 51.4827 116.134 51.5311 115.807 51.5507C116.099 51.3914 116.415 51.282 116.743 51.2269C117.527 51.0238 118.345 50.9902 119.143 51.1286C119.956 51.279 120.685 51.7237 121.19 52.3776C121.418 52.6448 121.548 52.9811 121.56 53.3317Z" fill="#FF9A6C"/>
<path d="M121.646 56.3614C121.434 56.0997 121.294 55.7866 121.241 55.4536C121.165 55.1193 121.032 54.8006 120.848 54.511C120.733 54.3473 120.579 54.214 120.401 54.1224C120.223 54.0307 120.025 53.9836 119.825 53.9848C119.041 53.9618 118.257 53.9907 117.477 54.0716C117.147 54.1142 116.813 54.0985 116.488 54.0253C116.81 53.956 117.137 53.9115 117.466 53.8923C118.252 53.7586 119.051 53.7063 119.848 53.7362C120.089 53.747 120.326 53.808 120.542 53.9154C120.748 54.022 120.921 54.1818 121.045 54.378C121.229 54.6967 121.356 55.045 121.421 55.4073C121.525 56.0087 121.669 56.3441 121.646 56.3614Z" fill="#FF9A6C"/>
<path d="M122.664 48.3358L107.271 71.3212L108.139 71.9284L121.421 67.9442L136.525 47.2487L136.352 46.416L122.664 48.3358Z" fill="#263238"/>
<g opacity="0.3">
<path d="M126.116 60.4037C125.689 60.1373 125.212 59.9626 124.714 59.891C124.216 59.8193 123.709 59.8521 123.224 59.9874C122.252 60.269 121.386 60.8349 120.738 61.6123C120.176 62.2035 119.827 62.9639 119.743 63.7749C119.674 65.1858 120.83 66.4464 122.172 66.8743L122.305 66.6488L126.295 62.0575C126.519 61.8513 126.664 61.5731 126.705 61.2711C126.686 61.0891 126.622 60.9147 126.519 60.7634C126.416 60.612 126.278 60.4885 126.116 60.4037Z" fill="black"/>
</g>
<path d="M123.785 58.9406C124.607 58.7905 125.446 58.7535 126.277 58.8307C127.198 59.2977 128.073 59.8494 128.891 60.4787C128.891 60.4787 129.111 61.6699 128.642 61.8029C128.747 62.0611 128.829 62.3281 128.885 62.6009C129.053 63.2601 129.215 63.6244 128.417 64.3356C128.417 64.3356 128.712 65.417 128.417 65.7639C128.224 65.9954 128.015 66.2137 127.792 66.4173C127.792 66.4173 126.977 67.8977 126.341 67.915C126.133 67.9349 125.934 68.0086 125.763 68.129C125.41 68.349 125.016 68.4925 124.604 68.5503C124.193 68.6081 123.774 68.5788 123.375 68.4643C122.438 68.1983 121.461 67.8861 121.64 67.6085L122.565 66.1051C122.565 66.1051 119.951 64.8387 119.905 64.3067C119.859 63.7747 120.038 63.688 120.038 63.688C120.038 63.688 119.761 62.705 120.553 62.4621C120.553 62.4621 120.952 61.109 121.565 60.9471C122.178 60.7852 126.653 61.5543 126.653 61.5543L124.832 60.5019C124.832 60.5019 123.218 60.5481 123.166 60.0161C123.114 59.4841 123.785 58.9406 123.785 58.9406Z" fill="#FFBF9D"/>
<path d="M124.647 65.2788C123.866 65.1037 123.094 64.8875 122.334 64.6311C121.553 64.4566 120.781 64.2423 120.021 63.9893C120.835 63.9957 121.643 64.1284 122.415 64.3825C123.202 64.5627 123.955 64.8651 124.647 65.2788Z" fill="#FF9A6C"/>
<path d="M126.567 63.4223C125.594 63.3695 124.627 63.238 123.676 63.0291C122.707 62.896 121.752 62.6813 120.819 62.3872C121.793 62.4327 122.76 62.5643 123.711 62.7804C124.68 62.9103 125.636 63.125 126.567 63.4223Z" fill="#FF9A6C"/>
<path d="M136.444 47.2254L136.195 47.2832L135.473 47.4162L132.755 47.8788L123.295 49.4054L123.376 49.3534L119.524 55.1359L111.521 67.042L109.075 70.6329L108.387 71.5928C108.314 71.7079 108.231 71.8163 108.139 71.9167C108.195 71.7918 108.265 71.6735 108.347 71.5639L108.983 70.5636C109.561 69.6846 110.365 68.4472 111.365 66.9264L119.305 54.9797L123.167 49.1972L123.196 49.1568H123.248L132.732 47.7169L135.461 47.3237L136.19 47.2312C136.274 47.2216 136.359 47.2196 136.444 47.2254Z" fill="#9255FA"/>
<path d="M110.145 56.0496L96.5617 61.543L94.0406 47.2603L82.4756 49.2726C83.6321 55.5177 84.9505 69.4072 88.5009 72.0267C91.4963 74.2414 98.2329 72.4719 102.344 70.1474C109.133 66.302 114.967 59.8545 114.967 59.8545L110.145 56.0496Z" fill="#FFBF9D"/>
<path d="M81.4645 59.8605C81.4645 59.8605 78.1453 37.0196 89.1783 34.4175C90.6355 34.0705 93.4111 45.3753 94.3363 46.6417L96.5973 58.0332C96.5973 58.0332 86.05 60.9938 81.4645 59.8605Z" fill="#9255FA"/>
<path d="M82.3829 43.1666C83.5973 43.2244 84.2449 43.1088 85.465 43.1666C85.3108 45.0941 85.1566 47.0216 85.0024 48.9491L81.8047 48.8103C81.8047 48.8103 81.9492 46.8385 82.0244 45.3986C82.0431 44.6419 82.1637 43.8911 82.3829 43.1666Z" fill="#FF725E"/>
<path d="M94.041 45.0859C94.2162 45.6811 94.3495 46.2878 94.44 46.9016C94.6829 48.116 94.9836 49.6252 95.3132 51.2963C95.6428 52.9675 95.9435 54.5808 96.1054 55.7199C96.2264 56.3314 96.2903 56.9528 96.2962 57.5761C96.1181 56.9797 95.9847 56.3709 95.8972 55.7546C95.6543 54.5461 95.3536 53.0311 95.0183 51.3599C94.6829 49.6888 94.388 48.0755 94.2318 46.9363C94.1109 46.3268 94.047 45.7073 94.041 45.0859Z" fill="#263238"/>
<path d="M92.549 42.4083C92.5028 42.4083 92.364 41.9341 92.0344 41.2055C91.6028 40.2658 91.0294 39.3979 90.3343 38.6323C89.635 37.8625 88.8194 37.2069 87.9172 36.6894C87.5204 36.5009 87.1343 36.2905 86.7607 36.0591C87.1976 36.1319 87.6184 36.2806 88.004 36.4985C88.961 36.9819 89.8214 37.6365 90.5425 38.4299C91.2622 39.223 91.8288 40.1425 92.2136 41.1419C92.4034 41.5394 92.5171 41.9689 92.549 42.4083Z" fill="#263238"/>
<path d="M93.7576 67.0886C93.6463 66.7736 93.6088 66.4373 93.6477 66.1056C93.6842 65.303 93.8907 64.5174 94.2535 63.8007C94.6164 63.0839 95.1273 62.4524 95.7526 61.948C95.9934 61.7184 96.2844 61.5481 96.6026 61.4507C95.762 62.1447 95.0563 62.9876 94.5209 63.9371C94.0698 64.93 93.8108 65.9994 93.7576 67.0886Z" fill="#FF9A6C"/>
<path d="M110.932 59.675C110.505 58.8859 110.274 58.005 110.261 57.1076C110.151 56.2196 110.252 55.318 110.556 54.4766C110.649 54.4766 110.452 55.6331 110.556 57.0845C110.66 58.5359 111.019 59.6461 110.932 59.675Z" fill="#FF9A6C"/>
<path d="M109.648 0.236994C107.069 -0.427993 104.687 0.387337 102.356 1.67683C99.9818 3.06443 98.0863 5.14233 96.9221 7.63393C95.7579 10.1255 95.3803 12.9126 95.8394 15.6242C96.1041 17.0051 96.6459 18.3181 97.432 19.4839C98.2182 20.6496 99.2323 21.644 100.413 22.4071C103.669 24.4194 108.075 24.1823 111.308 22.1353C112.906 21.0677 114.251 19.6638 115.25 18.0217C116.249 16.3796 116.877 14.5391 117.09 12.6289C117.453 9.99496 116.975 7.31368 115.725 4.96707C115.094 3.80531 114.229 2.7859 113.187 1.97219C112.144 1.15848 110.946 0.567845 109.665 0.236994" fill="#263238"/>
<path d="M101.459 8.50592C101.928 7.53446 101.87 6.40688 102.113 5.36025C102.645 3.04726 104.68 1.3125 106.935 0.607038C109.029 -0.0695134 111.486 0.323698 113.874 1.31829C115.527 1.97201 116.958 3.08575 117.997 4.52757C118.655 5.49899 119.071 6.61377 119.21 7.77871C119.348 8.94365 119.206 10.1249 118.795 11.2237L106.993 8.48279C105.842 9.37983 104.55 10.0812 103.171 10.5587C102.764 10.7003 102.328 10.7342 101.905 10.657C101.695 10.6143 101.502 10.5119 101.349 10.3621C101.196 10.2123 101.09 10.0216 101.043 9.81277C101.046 9.34508 101.192 8.88942 101.459 8.50592Z" fill="#263238"/>
<path d="M111.429 30.1905C111.429 30.1905 111.394 28.8432 111.394 28.8606C111.394 28.8779 115.708 28.6813 117.263 23.2689C118.032 20.58 118.449 16.0639 118.674 12.3631C118.871 9.02661 117.177 4.69552 113.84 4.6377L103.223 5.97345C102.736 5.96448 102.263 6.13716 101.897 6.45786C101.53 6.77856 101.296 7.2243 101.24 7.7082L100.049 27.8255L109.168 33.0644L111.429 30.1905Z" fill="#FFBF9D"/>
<path d="M116.586 17.0814C116.566 17.2661 116.474 17.4355 116.33 17.5533C116.186 17.6711 116.002 17.728 115.817 17.7117C115.727 17.7073 115.638 17.6849 115.556 17.6457C115.474 17.6065 115.401 17.5514 115.34 17.4835C115.28 17.4156 115.234 17.3364 115.205 17.2505C115.175 17.1646 115.163 17.0737 115.17 16.9831C115.189 16.7978 115.28 16.6275 115.424 16.5094C115.568 16.3914 115.753 16.3351 115.939 16.3528C116.03 16.3564 116.119 16.3784 116.201 16.4173C116.283 16.4562 116.357 16.5113 116.417 16.5794C116.478 16.6474 116.524 16.7269 116.553 16.8132C116.582 16.8995 116.593 16.9907 116.586 17.0814Z" fill="#263238"/>
<path d="M117.408 14.5836C117.31 14.6646 116.83 14.202 116.061 14.1094C115.292 14.0169 114.696 14.3292 114.621 14.2251C114.546 14.121 114.696 14.0227 114.962 13.8781C115.316 13.6892 115.721 13.6164 116.119 13.67C116.515 13.7166 116.886 13.8888 117.177 14.1615C117.396 14.3465 117.454 14.5431 117.408 14.5836Z" fill="#263238"/>
<path d="M109.688 16.0004C109.668 16.1851 109.576 16.3544 109.432 16.4722C109.288 16.59 109.104 16.6469 108.919 16.6307C108.828 16.627 108.739 16.6051 108.657 16.5662C108.574 16.5273 108.501 16.4721 108.44 16.4041C108.38 16.3361 108.334 16.2566 108.305 16.1703C108.276 16.084 108.265 15.9928 108.272 15.9021C108.291 15.7167 108.382 15.5465 108.526 15.4284C108.67 15.3103 108.855 15.254 109.041 15.2718C109.132 15.2754 109.221 15.2973 109.303 15.3362C109.385 15.3752 109.459 15.4303 109.519 15.4983C109.58 15.5663 109.626 15.6459 109.655 15.7321C109.684 15.8184 109.695 15.9096 109.688 16.0004Z" fill="#263238"/>
<path d="M110.122 13.4214C110.024 13.5024 109.544 13.0398 108.775 12.9473C108.006 12.8548 107.41 13.167 107.335 13.0629C107.26 12.9588 107.41 12.8605 107.676 12.716C108.031 12.5299 108.435 12.4573 108.832 12.5078C109.228 12.5556 109.599 12.7277 109.891 12.9993C110.11 13.1901 110.168 13.3867 110.122 13.4214Z" fill="#263238"/>
<path d="M111.973 19.7876C112.39 19.7088 112.816 19.6854 113.239 19.7182C113.436 19.7182 113.626 19.7182 113.673 19.5736C113.714 19.3796 113.693 19.1775 113.615 18.9954C113.488 18.5039 113.36 17.9835 113.222 17.4457C112.844 16.1199 112.572 14.7665 112.406 13.3979C112.901 14.6819 113.288 16.0049 113.563 17.3532L113.927 18.9087C114.016 19.1593 114.016 19.4329 113.927 19.6835C113.89 19.7484 113.838 19.804 113.776 19.846C113.714 19.8881 113.643 19.9155 113.569 19.9264C113.457 19.9407 113.345 19.9407 113.233 19.9264C112.809 19.9313 112.386 19.8847 111.973 19.7876Z" fill="#263238"/>
<path d="M111.388 28.86C108.787 28.5748 106.315 27.574 104.247 25.9688C104.247 25.9687 105.843 30.0165 111.429 30.1784L111.388 28.86Z" fill="#FF9A6C"/>
<path d="M111.429 21.5802C111.307 21.3822 111.137 21.218 110.935 21.1028C110.733 20.9877 110.505 20.9251 110.272 20.9209C110.102 20.916 109.932 20.9452 109.774 21.0067C109.615 21.0683 109.47 21.161 109.347 21.2795C109.23 21.3948 109.152 21.543 109.122 21.7042C109.092 21.8655 109.112 22.032 109.179 22.1815C109.284 22.3336 109.433 22.4503 109.605 22.5164C109.777 22.5824 109.966 22.5947 110.145 22.5516C110.521 22.4704 110.877 22.3151 111.192 22.0948C111.284 22.0421 111.366 21.9736 111.435 21.8924C111.468 21.8541 111.489 21.8066 111.495 21.7561C111.502 21.7056 111.493 21.6543 111.469 21.6091" fill="#FF9A6C"/>
<path d="M109.67 20.0361C109.792 20.0361 109.67 20.8746 110.33 21.5454C110.989 22.2161 111.856 22.2393 111.845 22.3549C111.833 22.4706 111.631 22.4879 111.266 22.4532C110.78 22.4025 110.327 22.1813 109.989 21.8287C109.667 21.4881 109.489 21.0366 109.491 20.5681C109.497 20.2212 109.613 20.0246 109.67 20.0361Z" fill="#263238"/>
<path d="M110.735 10.3855C110.631 10.5821 109.885 10.3855 109 10.3855C108.115 10.3855 107.34 10.5417 107.265 10.3393C107.225 10.241 107.375 10.0617 107.687 9.89981C108.107 9.70346 108.566 9.6046 109.03 9.61061C109.494 9.61662 109.95 9.72734 110.365 9.93451C110.631 10.108 110.781 10.2988 110.735 10.3855Z" fill="#263238"/>
<path d="M117.598 11.2233C117.442 11.3795 116.939 11.1366 116.309 11.0499C115.678 10.9631 115.152 11.0209 115.031 10.8243C114.985 10.7318 115.094 10.5699 115.343 10.4369C115.679 10.2685 116.06 10.2137 116.43 10.2808C116.799 10.335 117.142 10.5004 117.413 10.7549C117.616 10.9573 117.668 11.1482 117.598 11.2233Z" fill="#263238"/>
<path d="M99.6837 6.7361C101.031 3.64825 106.114 -0.283846 109.433 0.294403L114.435 4.05302C114.163 4.94329 113.658 5.74443 112.971 6.37296C112.285 7.0015 111.442 7.43442 110.532 7.62661C109.56 7.81743 108.415 7.77695 107.768 8.52868C107.12 9.2804 107.322 10.541 106.698 11.339C105.836 12.4492 103.807 12.1774 103.136 13.4033C102.835 13.9353 102.893 14.6176 102.558 15.1381C102.147 15.8435 100.175 16.5837 99.4235 16.2599C98.6718 15.936 98.8106 14.6119 98.6313 13.8948C98.3915 13.0819 98.4426 12.2108 98.7759 11.4315C99.2963 9.91648 99.0419 8.20485 99.6837 6.7361Z" fill="#263238"/>
<path d="M101.668 17.1624C101.715 16.7518 101.362 15.7225 100.963 15.6127C99.899 15.3062 97.9387 15.1559 97.5802 17.9257C97.0945 21.6843 100.969 21.3952 100.986 21.2911C101.003 21.187 101.495 18.5791 101.668 17.1624Z" fill="#FFBF9D"/>
<path d="M100.026 19.6955C100.026 19.6955 99.9506 19.736 99.8349 19.7707C99.6705 19.8171 99.4945 19.7985 99.3434 19.7186C99.1185 19.5346 98.9465 19.2942 98.8449 19.0219C98.7433 18.7496 98.7158 18.4553 98.7651 18.1689C98.7965 17.845 98.9013 17.5326 99.0716 17.2553C99.123 17.1392 99.203 17.0379 99.3041 16.9611C99.4053 16.8842 99.5242 16.8343 99.6499 16.8158C99.7275 16.8038 99.8069 16.82 99.8736 16.8613C99.9404 16.9027 99.9903 16.9665 100.014 17.0413C100.049 17.157 100.014 17.2264 100.014 17.2379C100.014 17.2495 100.101 17.1859 100.095 17.024C100.085 16.9279 100.042 16.8382 99.9737 16.7696C99.8811 16.6784 99.7567 16.6266 99.6267 16.625C99.4678 16.6366 99.3145 16.6883 99.181 16.7753C99.0475 16.8623 98.9383 16.9817 98.8634 17.1223C98.6616 17.4267 98.5385 17.7763 98.5049 18.14C98.4478 18.4697 98.4873 18.809 98.6187 19.1168C98.75 19.4246 98.9675 19.6878 99.2451 19.8748C99.3406 19.9213 99.4454 19.9455 99.5516 19.9455C99.6578 19.9455 99.7626 19.9213 99.858 19.8748C100.003 19.788 100.037 19.7071 100.026 19.6955Z" fill="#FF9A6C"/>
<path d="M113.464 2.82167C113.684 4.38294 115.852 6.55138 116.777 7.82931C118.512 10.2753 118.865 11.0675 118.414 16.1677C119.483 14.485 120.339 12.8138 120.432 10.8246C120.556 8.80962 119.939 6.81867 118.697 5.22719C118.071 4.44618 117.272 3.82204 116.362 3.40443C115.453 2.98682 114.458 2.78727 113.458 2.82167" fill="#263238"/>
<path d="M97.5388 17.4166C97.4127 17.2636 97.3077 17.0944 97.2265 16.9135C97.1117 16.7137 97.0094 16.5071 96.92 16.2948C96.8159 16.0346 96.7061 15.7165 96.5904 15.439C96.0668 13.7333 95.9578 11.9274 96.2724 10.1711C96.443 9.20979 96.7164 8.26956 97.0877 7.3666C97.3999 6.63076 97.7874 5.92926 98.2442 5.27334C98.4408 4.99 98.6432 4.7587 98.8225 4.55053C99.0017 4.34236 99.1752 4.18623 99.3198 4.05902C99.4649 3.92734 99.6262 3.81465 99.7997 3.72363C99.2942 4.23678 98.8355 4.79412 98.4293 5.38899C98.0122 6.0501 97.6542 6.7467 97.3595 7.47069C97.014 8.36137 96.7546 9.28305 96.5846 10.2232C96.2843 11.9385 96.3612 13.6986 96.8102 15.3811C96.9085 15.6876 97.0068 15.9594 97.0935 16.237C97.1682 16.4499 97.2551 16.6585 97.3537 16.8615C97.4374 17.0384 97.4995 17.2248 97.5388 17.4166Z" fill="#9255FA"/>
<g opacity="0.3">
<path d="M98.2158 50.9548C98.3488 51.0242 103.501 52.7473 103.501 52.7473C103.501 52.7473 106.936 48.9078 106.774 49.0118L103.356 51.2439L98.2158 50.9548Z" fill="black"/>
</g>
</svg>
