<svg width="50" height="55" viewBox="0 0 50 55" fill="none" xmlns="http://www.w3.org/2000/svg">
<g clip-path="url(#clip0_172_65)">
<path d="M50 9.93081C50.0259 9.70065 49.9997 9.46766 49.9232 9.24883C49.8466 9.03 49.7218 8.83084 49.5576 8.6659C49.3935 8.50096 49.1943 8.37439 48.9744 8.29543C48.7546 8.21646 48.5198 8.1871 48.2871 8.20947C43.5759 8.17933 38.9036 7.36237 34.4669 5.79298C31.7083 4.93586 29.1748 3.48624 27.0471 1.54757C26.7129 1.22482 26.4288 0.852413 26.1113 0.504835C25.9805 0.342706 25.8147 0.211805 25.6259 0.121843C25.4371 0.0318819 25.2303 -0.0148315 25.0209 -0.0148315C24.8114 -0.0148315 24.6046 0.0318819 24.4158 0.121843C24.227 0.211805 24.0612 0.342706 23.9304 0.504835C21.7998 3.11994 18.9171 4.59301 15.8339 5.7185C11.4582 7.29752 6.84571 8.13678 2.18913 8.20119C2.03038 8.20119 1.87162 8.20119 1.70451 8.20119C1.4706 8.17508 1.23375 8.20223 1.01204 8.28056C0.790335 8.35888 0.589615 8.48633 0.425195 8.65317C0.260775 8.82 0.136997 9.02183 0.0633027 9.24325C-0.0103916 9.46467 -0.0320558 9.69983 -3.7441e-05 9.93081C-3.7441e-05 15.8313 -3.7441e-05 21.7402 -3.7441e-05 27.6407C-0.00114745 33.3793 2.0739 38.9283 5.84889 43.2817C9.82567 47.895 14.9121 51.4413 20.6383 53.5932C21.9502 54.1311 23.3121 54.5118 24.6407 55H25.4762C26.2746 54.6752 27.0922 54.3988 27.9244 54.1725C33.4886 52.2723 38.5333 49.1226 42.6637 44.9699C45.0201 42.6646 46.8835 39.9127 48.1425 36.8785C49.4015 33.8443 50.0304 30.5899 49.9916 27.3097C49.9749 21.5167 49.9665 15.7238 50 9.93081ZM33.2887 37.166C33.2917 37.3464 33.2565 37.5253 33.1853 37.6914C33.1142 37.8575 33.0087 38.0069 32.8756 38.1301C32.7426 38.2533 32.5849 38.3475 32.4129 38.4067C32.2408 38.4658 32.0581 38.4886 31.8766 38.4735H18.282C18.0675 38.5062 17.8481 38.4882 17.6419 38.421C17.4357 38.3538 17.2484 38.2393 17.0953 38.0869C16.9422 37.9344 16.8276 37.7483 16.7609 37.5437C16.6941 37.3391 16.6771 37.1218 16.7112 36.9094V26.3332C16.7112 25.2739 17.2209 24.7773 18.3071 24.7608C19.3933 24.7442 19.4602 24.7608 19.4769 23.5939C19.3776 22.3982 19.5023 21.1945 19.8445 20.0437C20.2931 18.8918 21.1219 17.9241 22.1961 17.2979C23.2703 16.6717 24.5268 16.4238 25.7613 16.5945C26.9957 16.7652 28.1356 17.3445 28.9956 18.2381C29.8556 19.1318 30.3851 20.2873 30.498 21.5167C30.5563 22.4261 30.5563 23.3383 30.498 24.2477C30.498 24.7194 30.64 24.827 31.0745 24.7939C31.4341 24.7621 31.7963 24.776 32.1524 24.8353C32.461 24.8701 32.7456 25.0172 32.951 25.2481C33.1563 25.479 33.2677 25.7772 33.2637 26.0849C33.2915 29.7703 33.3027 33.464 33.2971 37.166H33.2887Z" fill="#FEC02D"/>
<path d="M30.5816 35.3454C30.5816 35.7095 30.4562 35.7757 30.122 35.7757H19.8864C19.4937 35.7757 19.4185 35.6598 19.4185 35.2957C19.4185 32.8461 19.4185 30.3965 19.4185 27.9469C19.4185 27.5497 19.5521 27.4918 19.9031 27.4918C21.5742 27.4918 23.2955 27.4918 24.9917 27.4918C26.6878 27.4918 28.384 27.4918 30.0802 27.4918C30.4312 27.4918 30.5816 27.5331 30.5816 27.9386C30.5565 30.4048 30.5648 32.8792 30.5816 35.3454Z" fill="#FEC02D"/>
<path d="M27.7824 24.4049C27.7824 24.6863 27.6988 24.7691 27.4148 24.7608C26.5792 24.7608 25.7938 24.7608 24.9833 24.7608C24.1728 24.7608 23.4291 24.7608 22.6521 24.7608C22.3513 24.7608 22.2009 24.7608 22.2176 24.3718C22.2176 23.5443 22.2176 22.7167 22.2176 21.8891C22.2176 21.1627 22.509 20.4659 23.0276 19.9522C23.5463 19.4385 24.2498 19.1499 24.9833 19.1499C25.7168 19.1499 26.4203 19.4385 26.9389 19.9522C27.4576 20.4659 27.749 21.1627 27.749 21.8891C27.7908 22.725 27.7573 23.5608 27.7824 24.4049Z" fill="#FEC02D"/>
</g>
<defs>
<clipPath id="clip0_172_65">
<rect width="50" height="55" fill="white"/>
</clipPath>
</defs>
</svg>
