<svg width="57" height="59" viewBox="0 0 57 59" fill="none" xmlns="http://www.w3.org/2000/svg">
<path d="M56.4595 7.91822C56.4811 6.83967 56.0266 6.11241 55.0528 5.63015C51.4823 3.87056 47.922 2.09301 44.372 0.297474C44.0212 0.102385 43.6264 0 43.2249 0C42.8235 0 42.4287 0.102385 42.0778 0.297474C38.782 1.96769 35.5063 3.68721 32.152 5.228C30.5465 5.96604 29.7207 6.94752 29.9841 8.72251C30.0504 9.15855 29.8424 9.2094 29.468 9.20786C27.2015 9.19091 24.9334 9.19861 22.6669 9.19861C21.1107 9.19861 19.5545 9.19861 17.9983 9.19861C17.6024 9.19861 17.2757 9.30185 17.0847 9.66085C16.7488 10.3018 17.2095 10.9305 18.0215 10.9305C21.8442 10.9305 25.6684 10.9397 29.4911 10.9305C29.8948 10.9305 29.9996 11.0306 29.9919 11.4343C29.9533 13.3356 29.9703 15.2354 30.2723 17.166H16.0693C15.3128 17.166 14.8952 17.485 14.9075 18.0474C14.9198 18.6098 15.3174 18.8948 16.0415 18.8963C17.2136 18.8963 18.3856 18.8963 19.5576 18.8963C23.0922 18.8963 26.6273 18.8963 30.1629 18.8963C30.3647 18.8963 30.6159 18.7808 30.7191 19.1228C30.9394 19.8501 31.1952 20.565 31.451 21.3292H16.2264C16.0351 21.3152 15.8428 21.323 15.6533 21.3524C15.191 21.4587 14.9014 21.7684 14.9198 22.2476C14.9145 22.4533 14.9881 22.6533 15.1257 22.8063C15.2633 22.9594 15.4543 23.0539 15.6594 23.0703C15.8878 23.0994 16.118 23.1122 16.3482 23.1089C21.1693 23.1089 25.992 23.1489 30.8131 23.0827C31.9363 23.0673 32.7452 23.2583 33.2306 24.3446C33.4139 24.756 33.7637 25.0919 34.0934 25.5371H24.6345C24.4427 25.5332 24.2507 25.541 24.0598 25.5603C23.8754 25.5763 23.7025 25.6565 23.571 25.7868C23.4396 25.9171 23.3579 26.0894 23.3403 26.2736C23.2709 26.6758 23.4527 26.9762 23.8025 27.1812C24.0305 27.3152 24.2817 27.2952 24.5313 27.2952C28.1429 27.2952 31.7545 27.2952 35.3661 27.2952C35.5071 27.2871 35.6483 27.308 35.7808 27.3568C35.9133 27.4056 36.0344 27.4811 36.1365 27.5787C37.7528 29.064 39.5555 30.2966 41.3906 31.4923C42.3659 32.1256 43.3151 32.6571 44.4583 31.8451C44.4785 31.9283 44.4934 32.0127 44.503 32.0978C44.503 38.8619 44.5076 45.6249 44.5169 52.3869C44.5169 52.8014 44.3304 52.7906 44.0361 52.7906C36.8335 52.7906 29.6293 52.7932 22.4235 52.7983C21.9613 52.7983 21.875 52.6442 21.9073 52.2452C21.9304 51.8614 21.9304 51.4765 21.9073 51.0927C21.9056 50.9282 21.8513 50.7685 21.7524 50.6371C21.6534 50.5057 21.5149 50.4094 21.3573 50.3623C20.741 50.1312 20.1832 50.5488 20.1786 51.2683C20.1678 53.0757 20.1632 54.8815 20.1786 56.6873C20.1786 57.1356 20.0461 57.2913 19.5869 57.2913C13.8428 57.2789 8.09878 57.2789 2.35471 57.2913C1.91867 57.2913 1.79387 57.1372 1.79541 56.7165C1.80671 52.7577 1.80671 48.8 1.79541 44.8432C1.79541 44.3918 1.93562 44.2392 2.39169 44.2485C3.67825 44.2731 4.96635 44.2577 6.25291 44.2577H19.3943C20.1647 44.2577 20.1647 44.2577 20.1647 45.0574C20.1647 45.7107 20.1647 46.364 20.1647 47.0173C20.1724 47.6182 20.5345 48.025 21.0429 48.0234C21.5514 48.0219 21.8981 47.6321 21.9058 47.0127C21.9166 46.2068 21.9474 45.3964 21.8935 44.5936C21.8596 44.1221 21.9921 44.0297 22.4389 44.0312C26.7423 44.0482 31.0458 44.042 35.3492 44.042C35.5604 44.0492 35.7718 44.0441 35.9824 44.0266C36.0884 44.0235 36.1926 43.9992 36.289 43.9552C36.3854 43.9112 36.472 43.8484 36.5438 43.7705C36.6155 43.6925 36.671 43.601 36.7069 43.5013C36.7428 43.4016 36.7584 43.2958 36.7528 43.19C36.7698 42.6923 36.4832 42.4088 36.0163 42.3102C35.8445 42.2896 35.6711 42.286 35.4986 42.2994H20.9829C20.3897 42.2994 19.5961 42.5105 19.2587 42.2116C18.8766 41.871 19.1986 41.056 19.1293 40.452C19.0738 39.9728 19.231 39.8542 19.7148 39.8557C24.9781 39.8757 30.243 39.868 35.5063 39.868C35.6789 39.882 35.8525 39.8774 36.024 39.8542C36.4863 39.7494 36.7759 39.4736 36.7636 38.9713C36.7513 38.469 36.4786 38.2009 35.9932 38.1316C35.7834 38.1105 35.5723 38.1033 35.3615 38.11C30.1351 38.11 24.9103 38.11 19.684 38.1192C19.2541 38.1192 19.0584 38.0067 19.0276 37.5784C18.9879 37.0806 18.8644 36.593 18.6624 36.1362C18.4822 35.7233 18.6301 35.674 19.0076 35.674C21.6593 35.6863 24.311 35.674 26.9611 35.674C27.1338 35.6805 27.3068 35.6753 27.4788 35.6586C27.9719 35.5939 28.337 35.2241 28.3093 34.785C28.2754 34.2796 27.978 33.9822 27.4804 33.9036C27.3077 33.8879 27.1341 33.8853 26.9611 33.8959C23.9458 33.8959 20.9289 33.8959 17.9136 33.8959C17.7742 33.906 17.6345 33.8818 17.5066 33.8254C17.3788 33.769 17.2667 33.6821 17.1802 33.5724C14.7658 30.7697 10.9878 29.9161 7.6273 31.4322C7.16506 31.6417 7.14811 31.4954 7.14965 31.0963C7.15787 24.5449 7.15787 17.9934 7.14965 11.442C7.14965 10.9798 7.2914 10.9151 7.69971 10.9197C9.65806 10.9412 11.6179 10.9305 13.5778 10.9289C14.2927 10.9289 14.7041 10.6208 14.7149 10.0738C14.7257 9.5268 14.3128 9.19553 13.6056 9.19399C11.4731 9.19399 9.34065 9.19399 7.2082 9.19399C5.91856 9.19399 5.41626 9.70707 5.41626 11.0152C5.41626 18.1028 5.41883 25.1905 5.42397 32.2781C5.43453 32.4642 5.40537 32.6505 5.33843 32.8245C5.27148 32.9985 5.16829 33.1563 5.03569 33.2873C3.78374 34.5779 3.01626 36.2615 2.86318 38.053C2.73529 39.3765 2.81695 40.7031 2.80308 42.0267C2.80308 42.3656 2.77073 42.5259 2.35317 42.5243C0.758457 42.5243 0.0188783 43.2947 0.0173375 44.9018C0.0173375 48.706 0.0466125 52.5117 0.000388821 56.3144C-0.0134783 57.547 0.340903 58.4715 1.49341 59H20.5114C20.4944 58.8875 20.5884 58.8998 20.65 58.869C21.4975 58.47 21.9351 57.8151 21.9181 56.866C21.9073 56.3098 21.9643 55.7459 21.9042 55.1958C21.8365 54.5933 22.0583 54.4886 22.6223 54.4901C29.941 54.5101 37.2598 54.5009 44.58 54.5101C45.1316 54.5101 45.6062 54.3977 45.9668 53.957C46.2919 53.5533 46.2949 53.071 46.2949 52.5872C46.2949 45.4801 46.2919 38.3714 46.2857 31.2612C46.2857 30.8328 46.3951 30.5694 46.7649 30.3259C48.2242 29.3638 49.5934 28.2716 50.8557 27.0625C54.2454 23.8176 56.0944 19.8624 56.3809 15.1676C56.5227 12.7578 56.4118 10.3388 56.4595 7.91822ZM13.9476 42.1854C13.9476 42.4766 13.849 42.5336 13.5855 42.529C12.7227 42.5136 11.8583 42.529 10.9955 42.529C10.1326 42.529 9.30059 42.5074 8.46394 42.5382C8.09107 42.5521 8.02328 42.4242 8.03098 42.0852C8.05255 40.9928 8.03098 39.8988 8.04639 38.8049C8.05037 38.0502 8.35047 37.3272 8.88212 36.7915C9.41378 36.2558 10.1345 35.9502 10.8891 35.9406C12.5347 35.9113 13.8721 37.1162 13.9307 38.7386C13.9723 39.8819 13.9307 41.0344 13.9476 42.1854ZM5.11581 36.2687C6.29297 33.6818 9.03558 32.1286 11.8059 32.5046C13.1941 32.6862 14.4841 33.3188 15.4776 34.3051C16.4712 35.2915 17.1132 36.5768 17.305 37.9636C17.5161 39.395 17.3512 40.8403 17.4005 42.2778C17.4005 42.4319 17.3682 42.5397 17.1817 42.5228C17.1438 42.5205 17.1057 42.5205 17.0677 42.5228C15.681 42.6029 15.6979 42.6014 15.6718 41.1962C15.6517 40.0668 15.8073 38.9281 15.5577 37.8064C15.0755 35.6432 13.017 34.05 10.8676 34.1548C8.45932 34.275 6.58572 35.9791 6.31762 38.3149C6.16355 39.5799 6.27294 40.8495 6.26062 42.116C6.26062 42.4319 6.18974 42.5351 5.85385 42.5382C4.57961 42.5521 4.57961 42.5659 4.57961 41.3194V40.1669C4.55342 38.8357 4.54572 37.5183 5.11581 36.2687ZM54.6707 11.5545C54.6845 13.8379 54.6984 16.1152 54.1129 18.3555C53.1545 21.9995 50.9974 24.8053 48.1362 27.1349C46.701 28.2881 45.1925 29.3468 43.6201 30.3043C43.4029 30.4399 43.2103 30.5524 42.9406 30.3829C39.9762 28.5155 37.1041 26.5402 34.9409 23.7128C32.986 21.1722 31.891 18.075 31.8146 14.8703C31.7329 12.5483 31.7822 10.2232 31.7576 7.89819C31.7412 7.74855 31.7759 7.59775 31.8563 7.47043C31.9366 7.3431 32.0577 7.24676 32.1998 7.19713C35.759 5.43344 39.3116 3.65691 42.8574 1.86754C42.9707 1.80163 43.0993 1.76691 43.2303 1.76691C43.3613 1.76691 43.49 1.80163 43.6032 1.86754C47.1562 3.65485 50.7129 5.43344 54.2731 7.20329C54.4053 7.25167 54.5174 7.34289 54.5917 7.4624C54.666 7.58192 54.6981 7.72285 54.683 7.86275C54.6599 9.08922 54.6707 10.3218 54.6707 11.5545Z" fill="white"/>
<path d="M36.762 30.6603C36.7328 31.1225 36.4631 31.3906 36.0086 31.4599C35.8365 31.4754 35.6635 31.4785 35.4909 31.4692H16.2002C16.0276 31.4761 15.8547 31.473 15.6825 31.4599C15.5755 31.4554 15.4706 31.4296 15.3737 31.3841C15.2768 31.3386 15.19 31.2742 15.1183 31.1947C15.0465 31.1153 14.9914 31.0223 14.956 30.9213C14.9206 30.8202 14.9057 30.7132 14.9121 30.6063C14.9023 30.4012 14.969 30.1998 15.0995 30.0411C15.2299 29.8825 15.4146 29.7781 15.6178 29.7481C15.7709 29.727 15.9259 29.7223 16.08 29.7342H35.6049C35.759 29.72 35.9142 29.7247 36.0671 29.7481C36.5248 29.8621 36.7944 30.158 36.762 30.6603Z" fill="white"/>
<path d="M36.767 34.7865C36.767 35.3381 36.4049 35.6693 35.727 35.674C34.0567 35.6853 32.3876 35.6853 30.7194 35.674C30.0707 35.674 29.6562 35.3073 29.6562 34.7896C29.6562 34.2718 30.08 33.9051 30.7179 33.8974C31.5422 33.8866 32.3665 33.8974 33.1924 33.8974C34.0182 33.8974 34.8795 33.8897 35.7239 33.8974C36.388 33.9051 36.7655 34.2395 36.767 34.7865Z" fill="white"/>
<path d="M21.6273 26.3907C21.6396 26.9084 21.2144 27.2921 20.5857 27.2952C19.0521 27.3034 17.5196 27.3034 15.988 27.2952C15.3393 27.2952 14.9218 26.95 14.9095 26.4308C14.8971 25.9115 15.2977 25.5494 15.9495 25.5402C16.7353 25.5294 17.5211 25.5402 18.3054 25.5402C19.0896 25.5402 19.8384 25.5309 20.6058 25.5402C21.2267 25.551 21.6134 25.8838 21.6273 26.3907Z" fill="white"/>
<path d="M36.2847 13.4974C35.6499 17.0536 37.7238 20.3971 41.2291 21.4664C44.5495 22.4787 48.1873 20.7607 49.591 17.5143C49.6449 17.3925 49.6942 17.2677 49.7451 17.1476C49.9993 16.596 50.4076 16.3926 50.8868 16.5759C51.366 16.7593 51.5848 17.2462 51.3691 17.8086C50.7298 19.5302 49.5593 21.0039 48.0271 22.0164C42.6621 25.5803 35.5082 22.4186 34.4836 16.0336C34.4327 15.7115 34.4342 15.3818 34.4096 15.0567C34.1292 10.7718 37.562 6.6933 41.8424 6.07544C46.3415 5.42523 50.6403 8.29572 51.6818 12.7162C51.7321 12.9013 51.7651 13.0906 51.7805 13.2817C51.8005 13.7655 51.5802 14.1045 51.0963 14.2062C50.994 14.2348 50.8869 14.2428 50.7814 14.2296C50.6759 14.2164 50.5741 14.1824 50.4819 14.1295C50.3897 14.0765 50.3089 14.0058 50.2443 13.9214C50.1797 13.8369 50.1326 13.7405 50.1056 13.6376C49.9839 13.2971 49.9176 12.9366 49.8082 12.5914C48.8591 9.61001 45.927 7.55614 42.8901 7.73949C39.542 7.93518 36.8625 10.271 36.2847 13.4974Z" fill="white"/>
<path d="M47.2318 13.7747C45.9992 15.0135 44.764 16.2498 43.5262 17.4834C43.3182 17.6914 43.1056 17.8794 42.779 17.8609C42.6449 17.8691 42.5108 17.8454 42.3876 17.7918C42.2645 17.7383 42.1557 17.6564 42.0702 17.5528C41.2567 16.7361 40.4354 15.9272 39.6296 15.1044C39.2013 14.6669 39.1843 14.1492 39.5572 13.784C39.93 13.4188 40.4447 13.4496 40.8853 13.8764C41.4231 14.3972 41.9639 14.9242 42.4677 15.4712C42.6973 15.7161 42.8313 15.6961 43.0563 15.4712C44.0224 14.482 45.0054 13.5097 45.9838 12.5344C46.5077 12.0136 46.9745 11.9628 47.3844 12.3649C47.7942 12.7671 47.7295 13.2755 47.2318 13.7747Z" fill="white"/>
</svg>
