<svg width="17" height="9" viewBox="0 0 17 9" fill="none" xmlns="http://www.w3.org/2000/svg">
<path d="M15.0599 0.990429L8.50002 7.38493L1.94015 0.990429C1.82295 0.87595 1.66561 0.811859 1.50177 0.811859C1.33794 0.811859 1.1806 0.87595 1.0634 0.990429C1.00665 1.04603 0.961565 1.1124 0.930787 1.18564C0.900009 1.25889 0.884155 1.33754 0.884155 1.41699C0.884155 1.49644 0.900009 1.57509 0.930787 1.64834C0.961565 1.72158 1.00665 1.78795 1.0634 1.84355L8.04196 8.64755C8.16451 8.76701 8.32888 8.83386 8.50002 8.83386C8.67116 8.83386 8.83553 8.76701 8.95809 8.64755L15.9366 1.84487C15.9938 1.78922 16.0392 1.72269 16.0702 1.6492C16.1013 1.57571 16.1172 1.49676 16.1172 1.41699C16.1172 1.33723 16.1013 1.25827 16.0702 1.18478C16.0392 1.11129 15.9938 1.04476 15.9366 0.989116C15.8194 0.874637 15.6621 0.810547 15.4983 0.810547C15.3344 0.810547 15.1771 0.874637 15.0599 0.989116V0.990429Z" fill="#1E1B1C"/>
</svg>
