<svg width="151" height="151" viewBox="0 0 151 151" fill="none" xmlns="http://www.w3.org/2000/svg">
<path d="M84.0889 139.542C78.8824 137.078 76.8077 131.219 76.0738 125.762C75.95 124.856 75.6903 123.914 75.9862 123.044C76.2822 122.174 77.1942 121.464 78.07 121.709C78.7978 121.911 79.2237 122.642 79.7099 123.219C80.3566 123.997 81.2113 124.575 82.1742 124.886C82.8024 125.088 83.5483 125.152 84.0647 124.741C84.7714 124.176 84.6687 123.083 84.5238 122.183C84.2278 120.514 83.9379 118.845 83.654 117.176C83.4494 116.285 83.3892 115.368 83.4758 114.458C83.6087 113.552 84.0949 112.646 84.9103 112.272C85.7257 111.897 86.8703 112.202 87.1995 113.054C87.2966 113.42 87.3692 113.792 87.4169 114.168C87.5045 114.54 87.7491 114.923 88.1206 114.968C88.492 115.014 88.8152 114.697 89.0417 114.386C89.8148 113.319 90.2497 112.042 90.6423 110.777C91.0349 109.511 91.4033 108.222 92.0798 107.086C92.7563 105.951 93.7891 104.972 95.0666 104.67C96.344 104.368 97.854 104.942 98.3886 106.153C98.9231 107.364 98.4067 108.78 97.7846 109.946C96.8398 111.672 95.6507 113.253 94.2542 114.639C93.9757 114.861 93.7748 115.166 93.6804 115.509C93.5868 116.143 94.2572 116.644 94.8884 116.741C95.5951 116.85 96.3138 116.657 97.0296 116.62C97.7453 116.584 98.5577 116.765 98.9382 117.384C99.4607 118.242 98.8536 119.338 98.2043 120.102C96.9002 121.625 95.3445 122.912 93.6049 123.908C92.9828 124.261 92.3214 124.593 91.8654 125.149C91.4094 125.704 91.2251 126.568 91.654 127.148C92.0828 127.728 92.9496 127.791 93.62 127.544C94.2904 127.296 94.8491 126.816 95.4682 126.456C96.6279 125.78 98.2406 125.593 99.2161 126.529C99.5203 126.856 99.7444 127.25 99.8707 127.678C99.997 128.107 100.022 128.559 99.9439 128.999C99.7832 129.876 99.4473 130.711 98.9563 131.455C97.3923 134.143 95.1435 136.369 92.4392 137.905C89.7363 139.385 87.121 140.107 84.0919 139.545" fill="#F5F5F5"/>
<path d="M84.9133 135.9C85.3138 132.792 85.8926 129.71 86.6468 126.668L87.2266 124.273C87.4169 123.485 87.6072 122.706 87.8306 121.957C88.2822 120.519 88.8125 119.108 89.4192 117.729C89.9899 116.406 90.5788 115.168 91.1375 114.017C91.6962 112.867 92.2429 111.804 92.7804 110.858C93.6195 109.359 94.5769 107.929 95.6434 106.582C96.0209 106.105 96.3259 105.745 96.5343 105.504C96.6339 105.389 96.7155 105.298 96.7729 105.229C96.8302 105.16 96.8574 105.138 96.8604 105.141C96.8386 105.176 96.8144 105.21 96.788 105.241L96.5584 105.525C96.3591 105.773 96.0632 106.129 95.6947 106.621C94.6516 107.981 93.7117 109.418 92.8831 110.919C92.3546 111.867 91.817 112.93 91.2614 114.081C90.7057 115.231 90.1258 116.469 89.5611 117.792C88.9597 119.171 88.4354 120.583 87.9907 122.02C87.7582 122.766 87.5709 123.53 87.3867 124.327L86.8069 126.725C86.0544 129.761 85.4726 132.836 85.0643 135.936" fill="#E0E0E0"/>
<path d="M87.882 121.945C87.8165 121.827 87.7648 121.702 87.728 121.573C87.6374 121.334 87.5196 120.969 87.3807 120.543C87.1028 119.667 86.7585 118.444 86.3841 117.097C86.0096 115.75 85.6502 114.533 85.3573 113.667C85.2123 113.232 85.0915 112.878 85.0069 112.64C84.9562 112.516 84.9168 112.387 84.8892 112.256C84.962 112.369 85.0218 112.49 85.0673 112.616C85.173 112.848 85.3089 113.196 85.469 113.624C85.7921 114.488 86.1696 115.699 86.5471 117.052C86.9246 118.405 87.2417 119.589 87.4954 120.507C87.6132 120.924 87.7098 121.274 87.7974 121.555C87.837 121.682 87.8653 121.812 87.882 121.945Z" fill="#E0E0E0"/>
<path d="M99.1013 117.819C98.9554 117.88 98.8036 117.926 98.6483 117.955C98.3463 118.031 97.9326 118.139 97.4131 118.29C96.3712 118.592 94.9488 119.039 93.3996 119.613C91.8503 120.187 90.4701 120.77 89.4735 121.217C88.9783 121.437 88.5827 121.628 88.3078 121.757C88.1698 121.833 88.0252 121.895 87.876 121.945C88.0009 121.848 88.1355 121.765 88.2776 121.697C88.5434 121.549 88.933 121.344 89.4222 121.093C90.3977 120.616 91.7748 120.015 93.3271 119.438C94.6519 118.942 96.0017 118.516 97.3709 118.161C97.8963 118.022 98.3252 117.931 98.6242 117.874C98.7812 117.841 98.9409 117.823 99.1013 117.819Z" fill="#E0E0E0"/>
<path d="M85.019 135.667C84.9803 135.628 84.9459 135.584 84.9163 135.537L84.6475 135.154C84.415 134.816 84.0919 134.323 83.7023 133.707C82.9171 132.475 81.8903 130.739 80.7819 128.806C79.6736 126.873 78.6679 125.13 77.9039 123.886L76.9979 122.409L76.7563 122.008C76.7244 121.963 76.6989 121.914 76.6808 121.863C76.6808 121.863 76.72 121.902 76.7835 121.99C76.8469 122.077 76.9465 122.219 77.0522 122.376C77.2848 122.711 77.6079 123.204 78.0005 123.823C78.7827 125.055 79.8125 126.788 80.9209 128.721C82.0292 130.654 83.0349 132.397 83.7959 133.644L84.7019 135.118C84.7985 135.278 84.8801 135.42 84.9435 135.519C84.9759 135.565 85.0013 135.614 85.019 135.667Z" fill="#E0E0E0"/>
<path d="M99.5694 128.103C99.5269 128.14 99.4791 128.17 99.4275 128.193L99.0077 128.417L97.4494 129.229C96.1326 129.918 94.3267 130.887 92.3335 131.947C90.3403 133.007 88.5253 133.976 87.1995 134.635C86.5351 134.964 85.9915 135.239 85.617 135.399L85.164 135.598C85.1143 135.625 85.0615 135.645 85.007 135.659C85.0501 135.622 85.0979 135.592 85.1489 135.568L85.5717 135.345L87.13 134.529C88.4437 133.844 90.2497 132.874 92.2429 131.811C94.2361 130.748 96.0541 129.785 97.3769 129.126C98.0413 128.797 98.5849 128.522 98.9594 128.362L99.3942 128.163C99.4492 128.134 99.5083 128.114 99.5694 128.103Z" fill="#E0E0E0"/>
<path d="M46.3268 74.7178C46.3268 74.7178 42.7391 75.2161 44.7534 83.0741C46.7677 90.9322 48.4771 94.985 48.4771 94.985C48.4771 94.985 48.7458 96.7638 47.3113 96.7094C45.8768 96.6551 42.9505 95.5014 41.9569 97.0386C40.9301 98.6452 41.83 100.578 44.0709 102.604C46.3117 104.631 51.0894 109.248 51.5182 109.668C51.947 110.088 52.2611 110.952 51.2766 111.07C50.2921 111.187 43.3098 110.369 43.1226 113.706C42.9354 117.043 50.132 121.658 50.9082 122.177C51.6843 122.697 51.8142 123.101 51.633 123.554C51.4518 124.007 49.1384 123.509 47.1422 123.355C45.146 123.201 42.8025 123.379 42.8538 125.312C42.9052 127.245 46.6862 132.137 57.7092 135.773L62.9308 137.123L66.7873 133.324C74.5487 124.69 75.3973 118.568 74.4823 116.865C73.5672 115.162 71.4623 116.173 69.7892 117.297C68.1161 118.42 66.3645 120.015 65.99 119.713C65.6156 119.411 65.5189 118.994 65.9357 118.157C66.3524 117.321 70.3056 109.741 68.4815 106.938C66.6575 104.136 61.004 108.309 60.098 108.693C59.192 109.076 59.0289 108.164 59.192 107.597C59.3551 107.029 61.1973 100.651 62.1456 97.7664C63.0939 94.8823 62.9127 92.7623 61.2215 91.8804C59.5907 91.0318 57.6307 93.4961 56.4106 94.2572C55.1905 95.0182 54.5442 93.3512 54.5442 93.3512C54.5442 93.3512 54.0127 88.9873 51.8564 81.1655C49.7002 73.3437 46.2604 74.745 46.2604 74.745" fill="#EBEBEB"/>
<path d="M62.9277 138.421C61.3664 132.683 58.7601 122.415 56.48 113.6C54.1999 104.785 52.1282 96.8361 50.594 91.08C49.827 88.2049 49.2048 85.8795 48.782 84.2638C48.5706 83.4635 48.4045 82.8384 48.2898 82.4096L48.1629 81.9264C48.1358 81.8176 48.1267 81.7603 48.1267 81.7603C48.1267 81.7603 48.1478 81.8116 48.1811 81.9203C48.2143 82.029 48.2596 82.1951 48.32 82.4005C48.4438 82.8293 48.622 83.4484 48.8455 84.2457C49.2985 85.8493 49.9387 88.1717 50.7179 91.0468C52.2792 96.7848 54.3721 104.761 56.6522 113.558C58.9323 122.355 61.5174 132.632 63.0515 138.388" fill="#E0E0E0"/>
<path d="M45.9856 98.8325C46.1062 98.8823 46.2216 98.944 46.3299 99.0167C46.5443 99.1436 46.8523 99.3369 47.2359 99.5785C47.9879 100.065 49.0116 100.762 50.126 101.551L52.9709 103.58L53.8376 104.184C53.9469 104.252 54.0482 104.332 54.1396 104.423C54.0178 104.373 53.9014 104.312 53.7923 104.238C53.5779 104.111 53.2698 103.918 52.8863 103.674C52.1404 103.181 51.1256 102.466 50.0113 101.68L47.1513 99.6721L46.2816 99.0681C46.1748 99.0003 46.0756 98.9214 45.9856 98.8325Z" fill="#E0E0E0"/>
<path d="M54.5775 104.172C54.5382 104.148 55.8821 101.976 57.5764 99.3218C59.2706 96.6673 60.6809 94.5351 60.7202 94.5593C60.7594 94.5834 59.4155 96.7578 57.7183 99.4124C56.0211 102.067 54.6168 104.19 54.5775 104.172Z" fill="#E0E0E0"/>
<path d="M57.4706 117.847C57.5542 117.742 57.6506 117.649 57.7575 117.569L58.5699 116.856C59.2554 116.252 60.2007 115.418 61.2093 114.458C62.218 113.498 63.1059 112.601 63.7401 111.945C64.0421 111.643 64.2897 111.375 64.4921 111.169C64.5835 111.068 64.6847 110.976 64.7941 110.895C64.7272 111.01 64.646 111.117 64.5525 111.212C64.3894 111.408 64.1448 111.686 63.8367 112.024C63.2327 112.704 62.3509 113.619 61.3362 114.579C60.3215 115.539 59.3671 116.367 58.6605 116.947C58.3041 117.249 58.0142 117.466 57.8088 117.62C57.7048 117.708 57.5913 117.784 57.4706 117.847Z" fill="#E0E0E0"/>
<path d="M48.6371 114.727C48.759 114.741 48.8787 114.771 48.9934 114.814L49.9508 115.116C50.7541 115.373 51.8624 115.738 53.0825 116.149C54.3026 116.56 55.4049 116.946 56.1992 117.233L57.1384 117.577C57.2553 117.614 57.3678 117.664 57.4736 117.725C57.3516 117.713 57.2318 117.685 57.1172 117.641L56.1599 117.339C55.3566 117.082 54.2482 116.717 53.0282 116.303C51.8081 115.889 50.7058 115.506 49.9115 115.222L48.9723 114.875C48.8544 114.84 48.7417 114.791 48.6371 114.727Z" fill="#E0E0E0"/>
<path d="M49.6578 127.124C49.8132 127.147 49.966 127.186 50.1139 127.239L51.34 127.613C52.3728 127.936 53.7952 128.392 55.3656 128.909C56.936 129.425 58.3524 129.896 59.3762 130.25L60.5842 130.673C60.7345 130.721 60.8809 130.78 61.0221 130.851C60.8657 130.828 60.7119 130.789 60.5631 130.736L59.3369 130.361C58.3041 130.038 56.8817 129.582 55.3113 129.066C53.7409 128.549 52.3245 128.075 51.3037 127.725L50.0957 127.299C49.9448 127.254 49.7982 127.195 49.6578 127.124Z" fill="#E0E0E0"/>
<path d="M60.7745 130.684C60.8809 130.554 60.9991 130.433 61.1279 130.325L62.1275 129.386C62.9701 128.591 64.1298 127.489 65.377 126.236C66.6243 124.983 67.7266 123.82 68.5178 122.974L69.454 121.972C69.5642 121.844 69.6844 121.724 69.8134 121.615C69.7254 121.757 69.6243 121.891 69.5114 122.014C69.306 122.265 68.998 122.618 68.6054 123.053C67.8353 123.923 66.7481 125.1 65.4948 126.354C64.2415 127.607 63.0788 128.7 62.209 129.473C61.7742 129.857 61.4208 130.168 61.1702 130.379C61.047 130.492 60.9147 130.594 60.7745 130.684Z" fill="#E0E0E0"/>
<path d="M30.7437 27.8563L27.7961 26.9503C27.7961 26.9503 27.023 29.4267 24.4379 28.6687C23.9374 28.5309 23.4922 28.2409 23.1638 27.8389C22.8353 27.4369 22.64 26.9427 22.6048 26.4248C22.5661 25.9881 22.6322 25.5484 22.7977 25.1424C22.9631 24.7363 23.2231 24.3757 23.5561 24.0904C24.3141 23.4199 25.6429 23.0122 27.5183 23.9816L29.593 17.3376L26.6787 16.4316L25.4707 20.3244C25.4707 20.3244 21.0495 20.104 19.6452 24.6068C18.3013 28.9163 21.8528 31.1239 23.5077 31.6404C24.7641 32.033 29.1763 33.0718 30.7437 27.8563Z" fill="#F5F5F5"/>
<path d="M27.0735 15.0487L30.0314 15.9717L30.8932 13.2099L27.9353 12.2869L27.0735 15.0487Z" fill="#F5F5F5"/>
<path d="M38.8765 20.3547L40.0573 20.0527C40.0213 19.9186 40.0126 19.7786 40.0317 19.6411C40.0508 19.5035 40.0974 19.3712 40.1687 19.2521C40.24 19.1329 40.3345 19.0293 40.4466 18.9474C40.5587 18.8654 40.6862 18.8069 40.8214 18.7752C41.0181 18.7158 41.2285 18.7191 41.4233 18.7846C41.6181 18.85 41.7877 18.9745 41.9086 19.1406C42.0113 19.2786 42.0798 19.4389 42.1087 19.6084C42.1376 19.778 42.1259 19.9519 42.0747 20.1161C41.963 20.4996 41.6036 20.9164 40.7701 20.9859L41.4737 23.6465L42.6394 23.3445L42.2287 21.7862C42.6708 21.5195 43.0129 21.1149 43.2023 20.6346C43.3916 20.1544 43.4178 19.6252 43.2767 19.1286C42.8237 17.4011 41.1627 17.4102 40.5073 17.5823C40 17.7001 38.3057 18.2769 38.8765 20.3547Z" fill="#EBEBEB"/>
<path d="M43.0507 23.7325L41.8613 24.0513L42.1589 25.1615L43.3483 24.8427L43.0507 23.7325Z" fill="#EBEBEB"/>
<path d="M136.365 50.92L137.513 51.3338C137.561 51.2038 137.635 51.0848 137.729 50.9838C137.824 50.8827 137.938 50.8017 138.065 50.7454C138.192 50.6891 138.328 50.6587 138.467 50.6561C138.605 50.6534 138.743 50.6784 138.872 50.7298C139.065 50.792 139.234 50.9124 139.357 51.0746C139.479 51.2368 139.548 51.4328 139.554 51.6358C139.561 51.809 139.527 51.9814 139.455 52.1389C139.382 52.2964 139.274 52.4345 139.137 52.5418C138.835 52.7924 138.295 52.9283 137.57 52.5116L136.631 55.0997L137.766 55.5104L138.316 54.0004C138.831 54.0324 139.343 53.8943 139.772 53.6073C140.202 53.3203 140.525 52.9004 140.693 52.4119C141.297 50.7328 139.935 49.7996 139.291 49.5671C138.799 49.3738 137.078 48.8876 136.365 50.92Z" fill="#EBEBEB"/>
<path d="M137.597 56.0352L136.444 55.6177L136.054 56.6938L137.207 57.1114L137.597 56.0352Z" fill="#EBEBEB"/>
<path d="M14.5745 64.063L16.9905 63.1268C16.9905 63.1268 16.2053 61.0883 18.3103 60.2336C18.7131 60.0632 19.1589 60.0219 19.5863 60.1155C20.0136 60.2091 20.4013 60.4329 20.6961 60.7561C20.9468 61.0248 21.1306 61.349 21.2324 61.7022C21.3342 62.0554 21.3512 62.4276 21.282 62.7886C21.131 63.6281 20.4666 64.6006 18.718 64.9358L20.832 70.411L23.248 69.4869L22.0098 66.2797C22.0098 66.2797 25.0298 64.1113 23.6134 60.3967C22.2393 56.8452 18.724 57.2499 17.3741 57.7724C16.3322 58.174 12.8773 59.7958 14.5745 64.063Z" fill="#F5F5F5"/>
<path d="M23.7057 70.6019L21.2681 71.541L22.1453 73.818L24.583 72.8789L23.7057 70.6019Z" fill="#F5F5F5"/>
<path d="M137.31 73.2771L135.589 73.9385C135.589 73.9385 136.145 75.3851 134.653 75.9891C134.367 76.1085 134.052 76.1372 133.749 76.0713C133.447 76.0053 133.172 75.848 132.962 75.6207C132.784 75.4302 132.654 75.2004 132.582 74.95C132.51 74.6997 132.498 74.4359 132.548 74.1801C132.657 73.5761 133.128 72.8996 134.36 72.6701L132.88 68.7773L131.177 69.4327L132.053 71.7067C131.433 72.1809 130.986 72.8457 130.781 73.5987C130.575 74.3517 130.623 75.1512 130.917 75.8743C131.886 78.39 134.369 78.1061 135.335 77.7347C136.066 77.4478 138.512 76.3002 137.31 73.2771Z" fill="#F5F5F5"/>
<path d="M130.84 68.6441L132.567 67.9785L131.946 66.3666L130.219 67.0321L130.84 68.6441Z" fill="#F5F5F5"/>
<path d="M142.173 140.058C142.173 140.104 112.32 140.137 75.5031 140.137C38.6863 140.137 8.82751 140.104 8.82751 140.058C8.82751 140.013 38.6742 139.98 75.5031 139.98C112.332 139.98 142.173 140.016 142.173 140.058Z" fill="#263238"/>
<path d="M27.9773 132.216C28.2793 131.104 27.5334 129.99 26.718 129.196C25.9026 128.401 24.9271 127.67 24.5013 126.604C23.8127 124.877 24.7369 122.642 23.5651 121.202C22.8735 120.356 21.6353 120.072 21.0223 119.166C20.7388 118.667 20.5514 118.119 20.4696 117.55C19.818 114.681 18.4067 112.04 16.3835 109.904C16.2472 112.459 16.8011 115.005 17.9872 117.273C18.4613 118.179 19.0472 119.06 19.1952 120.072C19.4519 121.712 18.5338 123.394 18.9385 125.013C19.4005 126.855 21.4692 128.09 21.5659 129.987C21.6504 131.59 20.2522 133.007 20.3579 134.601C20.4426 135.284 20.6901 135.937 21.0796 136.504C22.3178 138.567 24.1419 139.986 26.9022 139.941L30.2846 140.059L27.9773 132.216Z" fill="#6556D0"/>
<g opacity="0.3">
<path d="M27.9773 132.216C28.2793 131.104 27.5334 129.99 26.718 129.196C25.9026 128.401 24.9271 127.67 24.5013 126.604C23.8127 124.877 24.7369 122.642 23.5651 121.202C22.8735 120.356 21.6353 120.072 21.0223 119.166C20.7388 118.667 20.5514 118.119 20.4696 117.55C19.818 114.681 18.4067 112.04 16.3835 109.904C16.2472 112.459 16.8011 115.005 17.9872 117.273C18.4613 118.179 19.0472 119.06 19.1952 120.072C19.4519 121.712 18.5338 123.394 18.9385 125.013C19.4005 126.855 21.4692 128.09 21.5659 129.987C21.6504 131.59 20.2522 133.007 20.3579 134.601C20.4426 135.284 20.6901 135.937 21.0796 136.504C22.3178 138.567 24.1419 139.986 26.9022 139.941L30.2846 140.059L27.9773 132.216Z" fill="black"/>
</g>
<path d="M30.9671 140.128C31.2769 140.175 31.5926 140.169 31.9003 140.11C32.2739 140.053 32.641 139.96 32.9966 139.832C33.4876 139.661 33.9468 139.41 34.3556 139.089C34.6015 138.891 34.7937 138.634 34.9143 138.343C35.0153 138.016 35.0682 137.676 35.0713 137.334C35.0781 136.968 35.1053 136.603 35.1528 136.241C35.2165 135.855 35.3561 135.485 35.5636 135.154C35.9622 134.453 36.6266 133.789 36.838 132.837C37.0494 131.886 36.9044 130.889 36.7474 129.875C36.5904 128.86 36.4454 127.761 36.8259 126.698C37.2064 125.635 37.9312 124.683 38.3027 123.493C38.6742 122.304 38.499 120.993 38.5775 119.715C38.6007 119.067 38.7505 118.428 39.0184 117.837C39.2902 117.233 39.6708 116.674 39.9667 116.046C40.5707 114.772 40.6734 113.328 40.8365 111.912C40.918 111.199 40.9965 110.477 41.0781 109.752C41.1295 109.02 41.256 108.294 41.4556 107.587C41.6847 106.874 41.955 106.176 42.2649 105.494C42.4246 105.142 42.5559 104.777 42.6575 104.404C42.7144 104.018 42.7507 103.629 42.7663 103.238C42.8023 102.457 42.772 101.674 42.6757 100.898C42.5851 100.119 42.4431 99.3455 42.3586 98.5634C42.3586 98.515 42.3586 98.4697 42.3586 98.4275L42.3404 98.2734L42.2045 98.3399C41.4905 98.7063 40.8705 99.2323 40.3925 99.8771C39.9238 100.508 39.5466 101.203 39.2721 101.94C38.7074 103.392 38.505 104.914 38.2212 106.367C37.9373 107.82 37.5749 109.248 36.832 110.456C36.4605 111.06 36.0105 111.61 35.624 112.196C35.2042 112.767 34.9174 113.426 34.7844 114.122C34.5821 115.554 35.3703 116.81 35.2072 118.079C35.1336 118.7 34.9277 119.298 34.6032 119.833C34.3012 120.374 33.9358 120.875 33.5915 121.376C33.2426 121.868 32.9393 122.391 32.6855 122.938C32.4466 123.473 32.3055 124.047 32.2687 124.632C32.1872 125.774 32.3473 126.855 32.2687 127.875C32.1745 128.848 31.8902 129.793 31.4322 130.657C31.0245 131.487 30.5685 132.239 30.188 132.97C29.9977 133.333 29.8195 133.689 29.6746 134.048C29.5374 134.393 29.4362 134.752 29.3726 135.117C29.2715 135.756 29.2634 136.406 29.3484 137.047C29.4371 137.941 29.7716 138.793 30.3148 139.509C30.3978 139.617 30.4898 139.718 30.5896 139.811C30.6563 139.881 30.7302 139.943 30.8101 139.998C30.9369 140.091 31.0034 140.134 31.0034 140.134C30.7619 139.943 30.5422 139.726 30.348 139.487C29.8295 138.769 29.5163 137.924 29.442 137.041C29.3651 136.408 29.3794 135.768 29.4843 135.139C29.5479 134.782 29.6491 134.432 29.7863 134.097C29.9393 133.733 30.1117 133.379 30.3027 133.034C30.6863 132.309 31.1453 131.56 31.5621 130.723C32.0338 129.846 32.3273 128.885 32.4258 127.894C32.5164 126.852 32.3593 125.765 32.4439 124.653C32.4828 124.087 32.6208 123.532 32.8516 123.013C33.107 122.478 33.4102 121.966 33.7576 121.485C34.1019 120.984 34.4673 120.483 34.7814 119.93C35.1261 119.375 35.3466 118.751 35.4277 118.103C35.5907 116.753 34.8086 115.49 35.0109 114.159C35.1433 113.492 35.4206 112.863 35.8233 112.316C36.2068 111.74 36.6598 111.19 37.0313 110.571C37.8014 109.33 38.1728 107.874 38.4537 106.415C38.7346 104.957 38.9429 103.447 39.4986 102.021C39.7659 101.305 40.1329 100.63 40.5888 100.016C41.0486 99.3972 41.6449 98.8929 42.3314 98.5422L42.1774 98.4546C42.1774 98.4999 42.1774 98.5452 42.1925 98.5936C42.277 99.3848 42.419 100.158 42.4945 100.931C42.5898 101.695 42.6191 102.466 42.582 103.235C42.5668 103.613 42.5325 103.99 42.4794 104.365C42.3818 104.726 42.2545 105.079 42.0988 105.419C41.7872 106.107 41.515 106.813 41.2834 107.533C41.0822 108.251 40.9547 108.987 40.9029 109.731C40.8244 110.459 40.7429 111.181 40.6643 111.894C40.5013 113.316 40.3956 114.735 39.8188 115.965C39.5168 116.569 39.1543 117.145 38.8735 117.761C38.5971 118.375 38.4432 119.037 38.4205 119.709C38.345 121.014 38.5141 122.292 38.1608 123.445C37.8074 124.599 37.0736 125.559 36.7021 126.649C36.3306 127.74 36.4665 128.893 36.6296 129.905C36.7927 130.917 36.9558 131.913 36.7383 132.81C36.5209 133.707 35.8988 134.378 35.4941 135.096C35.2807 135.442 35.1381 135.827 35.0743 136.229C35.0287 136.596 35.0045 136.965 35.0018 137.334C35.0023 137.668 34.9535 137.999 34.8569 138.319C34.745 138.595 34.5654 138.839 34.3344 139.028C33.9366 139.349 33.4887 139.602 33.0086 139.777C32.6578 139.913 32.2947 140.014 31.9245 140.079C31.6982 140.12 31.4689 140.143 31.2389 140.146C31.0487 140.128 30.9671 140.128 30.9671 140.128Z" fill="#263238"/>
<path d="M41.6519 100.294C41.6358 100.326 41.6246 100.361 41.6187 100.397L41.5462 100.699C41.4798 100.967 41.3982 101.369 41.2714 101.87C41.1445 102.372 40.8335 102.939 40.5707 103.637C40.263 104.422 39.9949 105.223 39.7674 106.035C39.5077 106.941 39.2812 107.938 39.0396 109.013C38.8343 110.158 38.4704 111.269 37.9584 112.314C37.6806 112.863 37.3544 113.419 37.1219 114.029C36.8781 114.652 36.7147 115.303 36.6357 115.968C36.4639 117.344 36.22 118.71 35.9048 120.06C35.2284 122.829 34.5821 125.469 33.9932 127.873C33.4043 130.277 32.8486 132.427 32.3896 134.245C31.9305 136.063 31.5832 137.512 31.3295 138.548C31.2118 139.044 31.1181 139.433 31.0517 139.72C31.0245 139.844 31.0004 139.944 30.9822 140.022C30.9789 140.057 30.9789 140.093 30.9822 140.128C30.9998 140.096 31.013 140.063 31.0215 140.028C31.0426 139.947 31.0728 139.85 31.1091 139.726C31.1846 139.445 31.2903 139.056 31.4262 138.563C31.698 137.537 32.0815 136.078 32.5557 134.281C33.0298 132.484 33.5825 130.31 34.2016 127.921C34.8207 125.532 35.4488 122.874 36.1313 120.102C36.4444 118.748 36.6824 117.378 36.8441 115.998C36.9212 115.35 37.0795 114.713 37.3152 114.104C37.5538 113.5 37.8588 112.96 38.1366 112.404C38.7406 111.302 38.9792 110.118 39.2178 109.052C39.4564 107.986 39.6678 106.977 39.9154 106.077C40.163 105.177 40.4228 104.374 40.6825 103.679C40.9422 102.985 41.2291 102.411 41.3529 101.892C41.4767 101.372 41.5341 100.986 41.5885 100.708C41.6086 100.583 41.6267 100.482 41.6428 100.406C41.6519 100.33 41.6579 100.294 41.6519 100.294Z" fill="#263238"/>
<path d="M31.5651 140.143C33.7727 138.829 34.4069 134.843 33.4858 132.445C32.5647 130.047 30.952 127.854 30.7044 125.297C30.5111 123.331 31.1574 121.313 30.7044 119.392C30.0853 116.798 27.5545 114.79 27.5847 112.123C27.5998 110.628 28.4515 109.221 28.382 107.726C28.3005 105.896 26.8932 104.44 26.0234 102.828C24.6886 100.354 24.601 97.434 24.145 94.6737C23.6889 91.9135 22.635 88.9358 20.1767 87.5737C19.8143 89.9263 19.1952 91.539 19.3885 94.7251C19.4609 95.8697 20.7898 98.0471 20.971 100.569C21.0797 102.079 21.1521 103.571 21.2458 105.069C21.3394 106.567 21.43 108.016 21.9525 109.381C22.3541 110.429 22.9974 111.38 23.2963 112.462C23.855 114.494 23.1182 116.69 23.5712 118.755C23.9547 120.501 25.1627 122.002 25.4103 123.771C25.7546 126.257 24.148 128.842 24.9694 131.213C25.3801 132.391 26.3465 133.327 26.6214 134.55C26.8358 135.492 26.6033 136.492 26.7965 137.437C27.0985 138.965 30.0159 140.155 31.5711 140.055" fill="#6556D0"/>
<path d="M20.7807 89.896C20.7766 89.9402 20.7766 89.9847 20.7807 90.0289C20.7807 90.1285 20.8109 90.2554 20.829 90.4154C20.8803 90.7567 20.9377 91.255 21.0525 91.9013C21.1672 92.5476 21.5115 93.2784 21.7773 94.1602C22.043 95.0421 22.339 96.0508 22.5866 97.1802C22.8343 98.3097 23.0517 99.5691 23.2722 100.919C23.4926 102.269 23.7342 103.74 24.4047 105.147C24.7067 105.851 25.063 106.557 25.3107 107.312C25.5644 108.085 25.7207 108.887 25.7758 109.698C25.8992 111.42 26.116 113.134 26.4251 114.832C27.1015 118.317 27.7448 121.636 28.3307 124.659C28.9166 127.682 29.5055 130.379 29.9766 132.662C30.4477 134.945 30.8343 136.769 31.103 138.056L31.405 139.521C31.4413 139.678 31.4685 139.801 31.4926 139.898C31.5008 139.942 31.5129 139.986 31.5289 140.028C31.5342 139.984 31.5342 139.939 31.5289 139.895C31.5107 139.795 31.4896 139.672 31.4624 139.512C31.396 139.161 31.3024 138.666 31.1846 138.038C30.9309 136.748 30.5806 134.906 30.1246 132.632C29.6685 130.358 29.128 127.631 28.527 124.62C27.926 121.609 27.319 118.278 26.6395 114.796C26.3302 113.097 26.1124 111.384 25.9872 109.662C25.9297 108.834 25.7684 108.016 25.507 107.228C25.2382 106.461 24.8849 105.751 24.5738 105.05C23.9094 103.664 23.6678 102.218 23.4383 100.874C23.2088 99.5298 22.9883 98.2674 22.7256 97.1319C22.4628 95.9964 22.1759 94.9817 21.88 94.1119C21.584 93.2422 21.2548 92.5053 21.1219 91.8741C20.9891 91.2429 20.9256 90.7356 20.8622 90.4003C20.832 90.2433 20.8079 90.1165 20.7897 90.0168C20.7891 89.9764 20.7861 89.936 20.7807 89.896Z" fill="#263238"/>
<path d="M127.284 26.8085H126.076C126.077 26.9455 126.05 27.0813 125.998 27.2078C125.945 27.3343 125.867 27.449 125.77 27.545C125.672 27.641 125.556 27.7165 125.429 27.7669C125.301 27.8172 125.165 27.8415 125.028 27.8383C124.826 27.8455 124.626 27.7895 124.457 27.678C124.288 27.5665 124.159 27.405 124.086 27.2162C124.022 27.0589 123.997 26.8888 124.011 26.7198C124.026 26.5508 124.08 26.3877 124.17 26.2437C124.376 25.9055 124.823 25.6005 125.632 25.7424V23.0244H124.445V24.6129C123.958 24.7563 123.532 25.0555 123.231 25.4647C122.93 25.8738 122.772 26.3703 122.781 26.8779C122.781 28.6356 124.358 29.0433 125.034 29.0433C125.55 29.0554 127.308 28.9315 127.284 26.8085Z" fill="#6556D0"/>
<path d="M124.436 22.4746H125.641V21.3482H124.436V22.4746Z" fill="#6556D0"/>
<path d="M133.871 25.2018C133.875 25.1506 133.875 25.0991 133.871 25.0478C133.871 24.9391 133.871 24.7911 133.871 24.6008C133.871 24.5042 133.871 24.3925 133.855 24.2717C133.84 24.1509 133.822 24.018 133.801 23.8791C133.78 23.7401 133.759 23.5771 133.735 23.417L133.608 22.9036C133.383 22.0194 133.016 21.1779 132.521 20.4121C131.801 19.278 130.831 18.3241 129.685 17.6236C128.539 16.9231 127.247 16.4947 125.91 16.3713C125.508 16.3359 125.105 16.3278 124.702 16.3472C124.499 16.3472 124.291 16.3472 124.098 16.3864L123.476 16.4801C122.622 16.6387 121.796 16.9205 121.023 17.3166C120.217 17.7434 119.475 18.2834 118.822 18.9202C118.153 19.5985 117.593 20.3769 117.164 21.2275C116.702 22.1044 116.399 23.0564 116.27 24.0391C116.232 24.2881 116.211 24.5393 116.207 24.7911C116.186 25.0432 116.181 25.2964 116.191 25.5491C116.257 27.1692 116.764 28.7406 117.656 30.0942V30.0006C117.236 31.0485 116.823 32.0784 116.418 33.081L116.345 33.2652L116.536 33.2109L119.828 32.3049L119.749 32.2867C120.858 33.126 122.149 33.6911 123.518 33.9357C124.153 34.054 124.8 34.0936 125.445 34.0534C125.756 34.0488 126.066 34.0195 126.372 33.9659L126.822 33.8964C126.97 33.8692 127.124 33.8239 127.257 33.7907C129.285 33.2767 131.065 32.0573 132.276 30.3509C132.728 29.7223 133.091 29.0343 133.354 28.3064C133.411 28.1463 133.466 28.0044 133.517 27.8473C133.569 27.6903 133.596 27.5453 133.629 27.4094C133.662 27.2735 133.698 27.1346 133.729 27.0078C133.759 26.8809 133.768 26.7571 133.786 26.6393C133.813 26.4068 133.855 26.2014 133.864 26.0353C133.874 25.8692 133.864 25.7092 133.864 25.5823C133.864 25.4555 133.864 25.377 133.864 25.3075C133.864 25.2381 133.864 25.2139 133.864 25.2139C133.86 25.2449 133.86 25.2765 133.864 25.3075C133.864 25.377 133.864 25.4676 133.843 25.5823C133.822 25.6971 133.825 25.8572 133.813 26.0323C133.801 26.2075 133.756 26.4128 133.72 26.6363C133.431 28.3078 132.664 29.8596 131.511 31.1034C130.358 32.3471 128.868 33.2293 127.224 33.6427C127.082 33.6759 126.94 33.7182 126.795 33.7454L126.351 33.8118C126.051 33.8618 125.748 33.8891 125.445 33.8934C124.812 33.9267 124.177 33.8852 123.554 33.7696C122.217 33.5236 120.957 32.9682 119.873 32.1478L119.837 32.1176H119.791L116.496 33.0236L116.611 33.1535L117.852 30.0761L117.871 30.0278L117.843 29.9825C117.249 29.0828 116.827 28.0801 116.599 27.0259C116.495 26.5368 116.432 26.0397 116.412 25.5401C116.402 25.2934 116.407 25.0463 116.427 24.8002C116.429 24.5544 116.449 24.3091 116.487 24.0663C116.603 23.1066 116.889 22.1751 117.33 21.3151C117.75 20.4838 118.295 19.7219 118.946 19.0561C119.585 18.431 120.311 17.9011 121.102 17.4827C121.857 17.0898 122.666 16.81 123.503 16.6522L124.107 16.5586C124.309 16.5284 124.512 16.5314 124.711 16.5163C125.105 16.4976 125.499 16.5046 125.892 16.5374C127.207 16.6526 128.479 17.066 129.611 17.7463C130.743 18.4266 131.705 19.3558 132.424 20.4634C132.922 21.2159 133.296 22.044 133.529 22.9157L133.665 23.423C133.692 23.5831 133.717 23.725 133.741 23.876C133.765 24.027 133.783 24.1478 133.804 24.2686C133.825 24.3894 133.819 24.4982 133.828 24.5948C133.828 24.782 133.852 24.93 133.861 25.0387C133.856 25.0932 133.859 25.1483 133.871 25.2018Z" fill="#263238"/>
<path d="M43.8112 60.8168H61.2517C61.2517 60.8168 61.2517 46.1728 76.4695 45.9131C84.3728 45.7741 88.471 50.9534 90.138 54.9187C92.0708 59.5242 91.4849 64.773 88.8938 69.0463C85.9372 73.9236 79.565 78.825 67.8111 76.7533L67.6994 115.612H84.9466V92.5751C84.9466 92.5751 109.134 86.3237 109.134 59.6571C109.134 34.1532 88.5102 28.6447 77.4238 28.2883C71.257 28.092 69.0222 27.8263 61.3936 28.9105C51.6723 30.2997 43.6058 41.5884 43.8112 60.8168Z" fill="#6556D0"/>
<path d="M85.155 123.711H67.6511V140.059H85.155V123.711Z" fill="#6556D0"/>
<path opacity="0.1" d="M85.155 123.711H67.6511V140.059H85.155V123.711Z" fill="black"/>
<path opacity="0.1" d="M43.8112 60.8168H61.2517C61.2517 60.8168 61.2517 46.1728 76.4695 45.9131C84.3728 45.7741 88.471 50.9534 90.138 54.9187C92.0708 59.5242 91.4849 64.773 88.8938 69.0463C85.9372 73.9236 79.565 78.825 67.8111 76.7533L67.6994 115.612H84.9466V92.5751C84.9466 92.5751 109.134 86.3237 109.134 59.6571C109.134 34.1532 88.5102 28.6447 77.4238 28.2883C71.257 28.092 69.0222 27.8263 61.3936 28.9105C51.6723 30.2997 43.6058 41.5884 43.8112 60.8168Z" fill="black"/>
<path d="M36.5843 60.8168H54.0279C54.0279 60.8168 54.0279 46.1728 69.2456 45.9131C77.149 45.7741 81.2471 50.9534 82.9111 54.9187C84.847 59.5242 84.2611 64.773 81.6699 69.0463C78.7133 73.9236 72.2294 78.3569 60.4756 76.2943V115.612H77.7228V92.5751C77.7228 92.5751 101.91 86.3237 101.91 59.6571C101.91 34.1532 79.0365 28.231 69.2487 28.231C61.7621 28.24 36.2552 30.049 36.5843 60.8168Z" fill="#6556D0"/>
<path opacity="0.3" d="M36.5843 60.8168H54.0279C54.0279 60.8168 54.0279 46.1728 69.2456 45.9131C77.149 45.7741 81.2471 50.9534 82.9111 54.9187C84.847 59.5242 84.2611 64.773 81.6699 69.0463C78.7133 73.9236 72.2294 78.3569 60.4756 76.2943V115.612H77.7228V92.5751C77.7228 92.5751 101.91 86.3237 101.91 59.6571C101.91 34.1532 79.0365 28.231 69.2487 28.231C61.7621 28.24 36.2552 30.049 36.5843 60.8168Z" fill="black"/>
<path d="M77.9312 123.711H60.4272V140.059H77.9312V123.711Z" fill="#6556D0"/>
<path opacity="0.3" d="M77.9312 123.711H60.4272V140.059H77.9312V123.711Z" fill="black"/>
<path d="M71.2147 45.9916C71.1283 45.999 71.0414 45.999 70.955 45.9916C70.7829 45.9916 70.5352 45.9342 70.2121 45.9312C69.2985 45.8863 68.3826 45.9247 67.476 46.0459C66.1315 46.2161 64.8085 46.5269 63.5288 46.9731C62.7745 47.2367 62.0398 47.5536 61.3303 47.9213C60.5634 48.3046 59.8412 48.7715 59.177 49.3136C58.5174 49.8605 57.9262 50.4852 57.4163 51.1739C56.9331 51.8106 56.4922 52.4785 56.0966 53.1731C55.4361 54.3562 54.9123 55.6105 54.5353 56.9119C54.2796 57.7902 54.1037 58.6898 54.0098 59.5997C53.9735 59.9198 53.9645 60.1735 53.9554 60.3426C53.9556 60.4298 53.9475 60.5167 53.9313 60.6023C53.9235 60.5159 53.9235 60.429 53.9313 60.3426C53.9313 60.1705 53.9313 59.9168 53.9584 59.5936C54.0279 58.674 54.1887 57.7635 54.4386 56.8756C54.8018 55.5592 55.3188 54.2901 55.9788 53.0946C56.3752 52.3923 56.8181 51.7174 57.3046 51.0742C57.8187 50.3742 58.4172 49.7403 59.0864 49.1867C59.7587 48.6372 60.49 48.1642 61.2668 47.7764C61.9808 47.4019 62.7205 47.0789 63.4805 46.81C64.7718 46.3655 66.1074 46.0617 67.4639 45.904C68.3766 45.7918 69.2982 45.7706 70.2151 45.8406C70.4643 45.8565 70.7123 45.8867 70.958 45.9312C71.0449 45.9453 71.1307 45.9654 71.2147 45.9916Z" fill="#263238"/>
<path d="M97.4948 42.8838C97.4948 42.8838 97.4736 42.8627 97.4374 42.8174C97.4012 42.7721 97.3468 42.6936 97.2864 42.606L96.7096 41.7906C96.5858 41.6154 96.4529 41.4131 96.2958 41.2047L95.7522 40.5433L95.1301 39.7793C94.9036 39.5135 94.6378 39.2568 94.3721 38.9759C94.1063 38.6951 93.8345 38.3961 93.5265 38.1092C93.2184 37.8223 92.8893 37.5294 92.551 37.2274C92.3819 37.0764 92.2158 36.9254 92.0346 36.7653L91.4729 36.3214C91.0894 36.0194 90.7088 35.7174 90.2951 35.4154C88.4917 34.1251 86.5788 32.9953 84.5782 32.039L82.9867 31.3202L81.4072 30.7162C80.8908 30.5018 80.3653 30.3508 79.858 30.1817C79.3506 30.0126 78.8553 29.8404 78.348 29.7227L76.9044 29.3452C76.4363 29.2213 75.9712 29.1458 75.5273 29.0432C75.0833 28.9405 74.6545 28.8499 74.2347 28.7985L73.0267 28.6234C72.2627 28.4935 71.562 28.4663 70.952 28.4059C70.65 28.3818 70.348 28.3486 70.0973 28.3365L69.3786 28.3184L68.382 28.2851H68.1223H68.0347C68.0637 28.2806 68.0932 28.2806 68.1223 28.2851H68.382H69.3786H70.1003C70.3631 28.2851 70.65 28.3214 70.958 28.3425C71.562 28.3939 72.2748 28.415 73.0388 28.5388L74.2468 28.7019C74.6666 28.7502 75.0954 28.8589 75.5424 28.9405C75.9893 29.022 76.4484 29.1066 76.9286 29.2425L78.3782 29.617C78.8795 29.7317 79.3748 29.919 79.8882 30.073C80.4016 30.227 80.924 30.375 81.4405 30.6045L83.029 31.2085L84.6296 31.9303C86.6407 32.8888 88.5611 34.0269 90.3676 35.3308C90.7843 35.6328 91.1649 35.9559 91.5484 36.2549L92.1101 36.6626C92.2913 36.8136 92.4574 36.9646 92.6265 37.1277L93.599 38.0337C93.901 38.3357 94.1728 38.6377 94.4415 38.9125C94.7103 39.1873 94.967 39.4561 95.1935 39.7249L95.7975 40.495L96.3351 41.1654C96.4891 41.3768 96.619 41.5822 96.7398 41.7694C96.9753 42.1228 97.1595 42.4006 97.2894 42.5999L97.4313 42.8204C97.4551 42.8387 97.4765 42.86 97.4948 42.8838Z" fill="#263238"/>
<path d="M95.6766 80.332C95.6407 80.3974 95.5971 80.4582 95.5468 80.5132L95.13 81.0055C94.9579 81.226 94.7404 81.4887 94.4716 81.7816C94.2029 82.0746 93.916 82.4189 93.5656 82.7752C93.2153 83.1316 92.8408 83.5302 92.415 83.9319C91.9892 84.3335 91.5271 84.7563 91.0349 85.1972C88.8758 87.0818 86.5089 88.714 83.9801 90.0625C83.3943 90.3645 82.8416 90.6665 82.3071 90.899C81.7725 91.1315 81.2742 91.3701 80.8152 91.5634C80.3562 91.7567 79.9333 91.9167 79.5649 92.0587C79.1965 92.2006 78.8733 92.3154 78.6076 92.3999L78.0036 92.5962C77.9335 92.6241 77.8606 92.6444 77.7861 92.6566C77.8512 92.6194 77.9201 92.589 77.9915 92.5661L78.5955 92.3426C78.8582 92.2489 79.1753 92.1281 79.5408 91.9771C79.9062 91.8261 80.329 91.6752 80.782 91.4607C81.235 91.2463 81.7363 91.044 82.2588 90.7812C82.7812 90.5185 83.3399 90.2406 83.9228 89.9356C85.0734 89.3014 86.3146 88.5585 87.5679 87.7008C88.8212 86.8431 89.9477 85.9402 90.9503 85.0885C91.4426 84.6537 91.9137 84.246 92.3335 83.8352C92.7532 83.4245 93.1458 83.053 93.4931 82.6967C93.8404 82.3403 94.1455 82.0112 94.4173 81.7212C94.6891 81.4313 94.9126 81.1776 95.0938 80.9662L95.5166 80.4861C95.5657 80.4305 95.6192 80.379 95.6766 80.332Z" fill="#263238"/>
<path d="M77.4177 114.241C77.3724 114.241 77.3362 109.391 77.3362 103.408C77.3362 97.4254 77.3724 92.5723 77.4177 92.5723C77.463 92.5723 77.4962 97.4224 77.4962 103.408C77.4962 109.394 77.46 114.241 77.4177 114.241Z" fill="#263238"/>
<path d="M78.0822 138.95C78.0369 138.95 78.0037 135.547 78.0037 131.349C78.0037 127.151 78.0369 123.745 78.0822 123.745C78.1275 123.745 78.1607 127.148 78.1607 131.349C78.1607 135.55 78.1245 138.95 78.0822 138.95Z" fill="#263238"/>
<path d="M95.2507 58.5002C94.9487 59.1042 96.0752 59.5995 96.7245 59.7958C97.3869 59.9584 98.0725 60.0054 98.7509 59.9347C99.6569 59.8864 100.584 59.8018 101.366 59.3549C102.051 58.9305 102.599 58.3169 102.943 57.5882C103.282 56.8617 103.55 56.1042 103.743 55.3262C103.743 55.3262 96.6067 55.7913 95.2507 58.5002Z" fill="#6556D0"/>
<g opacity="0.4">
<path d="M95.2507 58.5002C94.9487 59.1042 96.0752 59.5995 96.7245 59.7958C97.3869 59.9584 98.0725 60.0054 98.7509 59.9347C99.6569 59.8864 100.584 59.8018 101.366 59.3549C102.051 58.9305 102.599 58.3169 102.943 57.5882C103.282 56.8617 103.55 56.1042 103.743 55.3262C103.743 55.3262 96.6067 55.7913 95.2507 58.5002Z" fill="black"/>
</g>
<path d="M115.406 56.5676C116.583 57.402 117.993 57.8438 119.435 57.8299C120.126 57.8684 120.808 57.6537 121.353 57.2259C121.585 57.0115 121.76 56.7397 121.999 56.5343C122.162 56.3954 122.352 56.2897 122.506 56.1417C122.588 56.0717 122.65 55.9827 122.689 55.8826C122.727 55.7825 122.74 55.6744 122.727 55.5679C122.667 55.3056 122.52 55.0714 122.31 54.9035C121.492 54.4385 120.513 54.4566 119.571 54.4777C118.628 54.5185 117.696 54.7008 116.808 55.0183C116.077 55.2659 115.313 55.6223 114.941 56.2867" fill="#6556D0"/>
<g opacity="0.4">
<path d="M122.727 55.5681C122.62 55.3134 122.432 55.101 122.192 54.9641C121.374 54.499 120.513 54.4567 119.571 54.4779C118.628 54.5187 117.696 54.7009 116.808 55.0185C116.077 55.2661 115.313 55.6225 114.941 56.2869L115.406 56.5677C116.583 57.4022 117.993 57.844 119.435 57.8301C120.126 57.8686 120.808 57.6539 121.353 57.2261C121.585 57.0117 121.76 56.7399 121.999 56.5345C122.162 56.3956 122.352 56.2899 122.506 56.1419C122.588 56.0719 122.65 55.9829 122.689 55.8827C122.727 55.7826 122.74 55.6745 122.727 55.5681Z" fill="black"/>
</g>
<path d="M101.472 67.4062L116.527 67.6055C116.557 67.6054 116.588 67.5982 116.615 67.5843C116.642 67.5705 116.666 67.5504 116.684 67.5258C116.702 67.5011 116.715 67.4725 116.72 67.4423C116.725 67.4121 116.723 67.3811 116.714 67.3518L114.947 61.8433C114.947 61.8433 115.207 59.0891 115.566 55.7792C116.113 50.7509 116.841 44.43 116.85 44.4481C115.82 41.561 109.744 41.0718 109.744 41.0718L102.819 41.4825L102.577 41.0748L100.584 42.0019C100.149 42.2042 99.7313 42.4405 99.3338 42.7086C98.0171 43.5874 94.8461 45.6078 94.2663 47.8577C92.9284 53.0672 95.1934 58.8807 95.1934 58.8807L96.6491 57.7422C97.0157 57.4596 97.4012 57.2024 97.8027 56.9721L100.72 64.7909C100.546 64.9003 100.399 65.0471 100.29 65.2206C100.18 65.394 100.11 65.5897 100.086 65.7935C100.062 66.4277 100.388 67.1887 101.472 67.4062Z" fill="#6556D0"/>
<g opacity="0.3">
<path d="M107.932 58.1894C108.409 55.6224 108.158 52.9829 107.902 50.3857C107.068 52.4997 107.098 54.9157 106.213 57.0116C106.105 57.233 106.026 57.4675 105.978 57.7092C105.955 57.8307 105.961 57.9558 105.995 58.0745C106.03 58.1931 106.092 58.3018 106.177 58.3918C106.419 58.6122 106.781 58.4914 107.101 58.4552C107.388 58.4005 107.667 58.3113 107.932 58.1894Z" fill="black"/>
</g>
<g opacity="0.4">
<path d="M102.378 64.1329C103.586 64.5526 104.873 63.7705 106.15 63.6315C106.996 63.5409 107.841 63.7342 108.681 63.8701C110.378 64.1448 112.106 64.1874 113.815 63.997C114.077 63.9825 114.334 63.9158 114.57 63.8007C114.692 63.7175 114.792 63.6058 114.86 63.4753C114.929 63.3447 114.965 63.1993 114.965 63.0517C112.121 62.7497 109.279 62.5866 106.434 62.2937C105.726 62.1728 105 62.1965 104.302 62.3631C103.444 62.6289 102.792 63.3024 102.188 63.9698" fill="black"/>
</g>
<path d="M122.292 54.5775C121.063 51.8081 116.729 44.1494 116.729 44.1494L113.374 48.3563L114.156 56.616C114.156 56.616 115.929 54.6379 120.885 54.5986C121.245 54.613 121.597 54.7078 121.916 54.8761C122.235 55.0444 122.512 55.2818 122.727 55.5711L122.292 54.5775Z" fill="#6556D0"/>
<path d="M102.145 53.1128C101.906 52.5256 101.716 51.9195 101.578 51.3008C101.39 50.6981 101.253 50.0809 101.167 49.4556C101.403 50.0437 101.592 50.6496 101.732 51.2676C101.919 51.8704 102.058 52.4875 102.145 53.1128Z" fill="#263238"/>
<path d="M113.12 47.7974C113.229 47.8746 113.331 47.9626 113.422 48.0601C113.689 48.3178 113.939 48.5921 114.171 48.8815C114.952 49.8361 115.501 50.9587 115.775 52.1613C115.917 52.826 115.948 53.5096 115.868 54.1847C115.793 54.8038 115.675 55.3474 115.596 55.8064C115.518 56.2654 115.47 56.6399 115.445 56.8996C115.445 57.0346 115.431 57.1692 115.403 57.3013C115.382 57.1665 115.376 57.0298 115.385 56.8936C115.398 56.5235 115.433 56.1545 115.488 55.7883C115.551 55.3262 115.657 54.7766 115.726 54.1696C115.796 53.5098 115.761 52.8431 115.621 52.1945C115.35 51.0144 114.826 49.9075 114.083 48.951C113.531 48.2081 113.096 47.8215 113.12 47.7974Z" fill="#263238"/>
<path d="M110.046 66.7419C109.941 66.7887 109.83 66.8212 109.717 66.8386C109.588 66.8726 109.456 66.8978 109.324 66.9141C109.17 66.9352 108.995 66.9684 108.798 66.9775C108.338 67.0197 107.875 67.0197 107.415 66.9775C106.852 66.9196 106.296 66.8084 105.754 66.6453C105.215 66.472 104.693 66.2485 104.196 65.9779C103.793 65.7528 103.41 65.4931 103.051 65.2017C102.894 65.0809 102.768 64.9541 102.653 64.8484C102.554 64.7592 102.46 64.6644 102.372 64.5645C102.288 64.4868 102.216 64.3972 102.157 64.2987C102.179 64.2776 102.502 64.64 103.121 65.1141C103.483 65.3893 103.865 65.6357 104.265 65.851C104.757 66.1094 105.271 66.3246 105.8 66.4943C106.332 66.6547 106.878 66.7679 107.43 66.8325C107.882 66.8811 108.336 66.8952 108.789 66.8748C109.566 66.8325 110.04 66.7178 110.046 66.7419Z" fill="#263238"/>
<path d="M114.693 65.0269C114.765 65.1634 114.805 65.3139 114.811 65.4678C114.859 65.8359 114.832 66.21 114.73 66.5671C114.626 66.9322 114.416 67.2582 114.126 67.5033C113.905 67.6875 113.736 67.7449 113.727 67.7298C113.718 67.7147 113.86 67.615 114.05 67.4278C114.295 67.173 114.472 66.8617 114.567 66.5218C114.808 65.7245 114.636 65.0299 114.693 65.0269Z" fill="#263238"/>
<path d="M113.875 66.0898C113.941 66.4005 113.915 66.7234 113.8 67.0194C113.685 67.3154 113.487 67.5716 113.229 67.7569C113.196 67.7237 113.477 67.4247 113.652 66.9626C113.827 66.5006 113.83 66.0929 113.875 66.0898Z" fill="#263238"/>
<path d="M111.181 56.1538C111.021 56.4243 110.842 56.6827 110.644 56.9269C110.488 57.1997 110.311 57.4602 110.115 57.7061C110.173 57.3874 110.31 57.0883 110.514 56.8363C110.675 56.5559 110.905 56.321 111.181 56.1538Z" fill="#263238"/>
<path d="M100.847 48.8392C100.617 48.7041 100.394 48.5569 100.179 48.3983C99.1054 47.6927 97.8865 47.2375 96.6129 47.0665C96.3462 47.0471 96.081 47.0118 95.8186 46.9608C96.0861 46.9239 96.3574 46.9239 96.6249 46.9608C97.9333 47.0725 99.1864 47.5392 100.249 48.3107C100.472 48.4583 100.673 48.6362 100.847 48.8392Z" fill="#263238"/>
<path d="M116.729 44.0498C116.189 44.4851 115.684 44.9627 115.219 45.4783C114.791 46.0285 114.409 46.6122 114.074 47.2238C114.11 47.0181 114.181 46.82 114.283 46.6379C114.501 46.1851 114.775 45.7611 115.098 45.3756C115.422 44.9909 115.793 44.6489 116.204 44.3578C116.36 44.2257 116.537 44.1215 116.729 44.0498Z" fill="#263238"/>
<path d="M110.514 41.561C110.541 41.6046 110.564 41.6512 110.58 41.7C110.639 41.8367 110.687 41.9781 110.722 42.1228C110.85 42.6609 110.85 43.2214 110.722 43.7596C110.534 44.563 110.104 45.2893 109.49 45.8404C108.715 46.497 107.727 46.8491 106.712 46.8309C105.695 46.8344 104.705 46.5092 103.888 45.9038C103.237 45.407 102.709 44.7674 102.345 44.0344C102.099 43.5436 101.926 43.0197 101.831 42.4791C101.804 42.3335 101.786 42.1862 101.777 42.0382C101.769 41.9862 101.769 41.9332 101.777 41.8812C101.777 41.8812 101.81 42.0926 101.895 42.467C102.012 42.9924 102.198 43.5 102.447 43.977C102.816 44.688 103.339 45.3072 103.979 45.789C104.766 46.3718 105.717 46.6891 106.697 46.695C107.676 46.713 108.628 46.3786 109.381 45.7528C109.975 45.222 110.395 44.5256 110.589 43.7536C110.724 43.2324 110.742 42.6881 110.644 42.159C110.586 41.7604 110.496 41.5671 110.514 41.561Z" fill="#263238"/>
<g opacity="0.3">
<path d="M111.571 56.6885C111.571 56.5375 111.547 56.3593 111.414 56.2838C111.372 56.2625 111.325 56.2515 111.278 56.2515C111.231 56.2515 111.184 56.2625 111.142 56.2838C111.058 56.3294 110.983 56.3909 110.922 56.465C110.567 56.8344 110.292 57.2735 110.115 57.7545L111.595 57.6246C111.586 57.3196 111.58 56.9995 111.571 56.6885Z" fill="black"/>
</g>
<g opacity="0.3">
<path d="M116.484 53.575C116.336 52.7282 115.965 51.9361 115.409 51.2798C116.05 53.3696 115.835 54.5504 115.476 55.9819L115.554 55.7826C115.968 54.9461 116.596 54.4206 116.484 53.575Z" fill="black"/>
</g>
<path d="M113.528 123.778L112.625 137.323L106.736 137.253L105.809 123.171L113.528 123.778Z" fill="#FFBE9D"/>
<path d="M112.791 135.541V135.933C112.791 135.933 119.435 138.603 119.498 139.859L106.304 139.787L106.509 135.399C108.475 136.32 110.532 136.435 112.791 135.541Z" fill="#6556D0"/>
<path d="M107.847 136.806C107.722 136.844 107.615 136.926 107.546 137.037C107.477 137.148 107.451 137.281 107.473 137.41C107.505 137.539 107.586 137.65 107.699 137.72C107.811 137.791 107.947 137.815 108.077 137.787C108.211 137.747 108.326 137.658 108.398 137.538C108.471 137.418 108.496 137.276 108.469 137.138C108.421 137.008 108.325 136.901 108.2 136.841C108.074 136.78 107.931 136.771 107.799 136.815" fill="white"/>
<path d="M106.304 139.787L106.352 138.733L118.988 139.192C118.988 139.192 119.574 139.452 119.504 139.862L106.304 139.787Z" fill="#263238"/>
<path d="M112.839 135.969C112.839 136.033 112.513 136.06 112.196 136.271C111.879 136.483 111.707 136.745 111.649 136.721C111.592 136.697 111.689 136.323 112.078 136.081C112.468 135.839 112.854 135.9 112.839 135.969Z" fill="#263238"/>
<path d="M114.219 136.549C114.235 136.613 113.954 136.719 113.733 136.99C113.513 137.262 113.449 137.549 113.383 137.546C113.316 137.543 113.28 137.178 113.561 136.848C113.842 136.519 114.216 136.504 114.219 136.549Z" fill="#263238"/>
<path d="M114.996 138.21C114.935 138.21 114.848 137.908 115.017 137.549C115.186 137.189 115.485 137.06 115.512 137.111C115.539 137.162 115.352 137.352 115.21 137.645C115.068 137.938 115.062 138.204 114.996 138.21Z" fill="#263238"/>
<path d="M112.453 24.7187C112.794 23.8731 112.38 22.8493 111.646 22.3027C110.873 21.7936 109.93 21.6102 109.022 21.7923C108.126 21.9801 107.259 22.2847 106.443 22.6983C106.063 22.3155 105.585 22.0457 105.061 21.9191C104.537 21.7925 103.988 21.814 103.475 21.9813C102.963 22.1486 102.507 22.455 102.158 22.8664C101.81 23.2778 101.583 23.778 101.502 24.311C101.176 24.2288 100.833 24.2371 100.511 24.3349C100.189 24.4328 99.8991 24.6165 99.6735 24.8664C99.4478 25.1163 99.2944 25.4229 99.2298 25.7534C99.1652 26.0838 99.1917 26.4256 99.3067 26.7421L103.39 28.1766L107.847 36.0286C108.506 36.5907 109.347 36.8938 110.213 36.8816C111.079 36.8693 111.91 36.5424 112.553 35.9619C113.196 35.3815 113.605 34.587 113.705 33.7269C113.805 32.8667 113.588 31.9995 113.096 31.2872C113.346 31.0651 113.558 30.804 113.724 30.5141C114.08 30.3035 114.391 30.0241 114.638 29.6923C114.886 29.3605 115.065 28.9828 115.165 28.5813C115.56 26.8327 114.207 24.9241 112.453 24.7187Z" fill="#263238"/>
<path d="M109.75 41.0719C109.496 39.7944 109.321 38.9186 109.324 38.9277C109.327 38.9367 111.74 37.9915 111.565 34.6302C111.48 32.9571 110.843 30.3207 110.251 28.1825C109.72 26.2558 107.923 24.1327 106.023 24.7458L100.264 27.5544C99.6872 27.7416 99.5875 28.2852 99.7234 28.8741V29.1761L101.961 38.4354L102.907 42.5728C103.108 43.4224 103.62 44.1657 104.342 44.6565C105.065 45.1472 105.944 45.3498 106.808 45.2244C107.28 45.158 107.734 44.9959 108.141 44.748C108.548 44.5001 108.9 44.1716 109.175 43.7828C109.45 43.3939 109.644 42.9529 109.742 42.4867C109.841 42.0205 109.844 41.5391 109.75 41.0719Z" fill="#FFBE9D"/>
<path d="M110.23 30.4176C110.254 30.5247 110.236 30.6371 110.18 30.7315C110.124 30.8259 110.034 30.8952 109.928 30.925C109.875 30.9399 109.819 30.9438 109.764 30.9366C109.709 30.9293 109.656 30.9111 109.608 30.8828C109.561 30.8546 109.519 30.8171 109.486 30.7724C109.454 30.7277 109.43 30.6769 109.418 30.623C109.393 30.5162 109.411 30.4042 109.468 30.3103C109.524 30.2164 109.614 30.1477 109.72 30.1186C109.773 30.1032 109.828 30.0988 109.883 30.1057C109.938 30.1125 109.991 30.1305 110.039 30.1585C110.087 30.1864 110.128 30.2238 110.161 30.2684C110.194 30.3129 110.217 30.3637 110.23 30.4176Z" fill="#263238"/>
<path d="M109.967 29.774C109.925 29.8404 109.56 29.6743 109.113 29.774C108.666 29.8736 108.382 30.1636 108.321 30.1183C108.261 30.073 108.321 29.9884 108.445 29.8555C108.611 29.6799 108.827 29.5597 109.064 29.5112C109.298 29.4609 109.542 29.4873 109.759 29.5867C109.928 29.6562 109.985 29.7468 109.967 29.774Z" fill="#263238"/>
<path d="M105.845 31.408C105.869 31.5148 105.851 31.6268 105.795 31.7207C105.739 31.8146 105.648 31.8832 105.543 31.9124C105.491 31.9275 105.436 31.9322 105.382 31.9262C105.328 31.9201 105.276 31.9034 105.228 31.8769C105.181 31.8505 105.139 31.815 105.106 31.7723C105.072 31.7297 105.047 31.6808 105.033 31.6285C105.008 31.5213 105.026 31.409 105.082 31.3146C105.139 31.2202 105.229 31.1509 105.335 31.1211C105.387 31.106 105.442 31.1014 105.496 31.1077C105.55 31.114 105.602 31.131 105.65 31.1577C105.697 31.1844 105.739 31.2203 105.773 31.2632C105.806 31.3062 105.831 31.3554 105.845 31.408Z" fill="#263238"/>
<path d="M105.624 30.8402C105.585 30.9067 105.217 30.7376 104.77 30.8402C104.323 30.9429 104.039 31.2268 103.979 31.1845C103.918 31.1422 103.979 31.0546 104.102 30.9187C104.269 30.7448 104.485 30.6257 104.722 30.5775C104.955 30.5279 105.198 30.5532 105.416 30.65C105.576 30.7224 105.646 30.804 105.624 30.8402Z" fill="#263238"/>
<path d="M107.899 33.679C108.12 33.5568 108.355 33.4615 108.599 33.3951C108.711 33.3589 108.817 33.3136 108.82 33.232C108.804 33.1119 108.752 32.9993 108.672 32.9089L108.149 32.1056C107.418 30.961 106.863 30.0127 106.908 29.9916C106.953 29.9704 107.584 30.8674 108.315 32.012L108.826 32.8213C108.926 32.9452 108.98 33.0999 108.98 33.2592C108.971 33.3027 108.952 33.3436 108.926 33.3791C108.899 33.4146 108.865 33.4438 108.826 33.4646C108.767 33.4959 108.704 33.5192 108.638 33.534C108.4 33.6158 108.151 33.6646 107.899 33.679Z" fill="#263238"/>
<path d="M109.324 38.9278C107.797 39.273 106.203 39.1873 104.722 38.6802C104.722 38.6802 106.304 40.7459 109.496 39.7583L109.324 38.9278Z" fill="#EB996E"/>
<path d="M105.7 30.2C105.67 30.3298 105.208 30.3268 104.682 30.4567C104.157 30.5865 103.74 30.7828 103.655 30.6801C103.619 30.6318 103.68 30.505 103.84 30.3781C104.052 30.199 104.305 30.0736 104.577 30.0127C104.846 29.9489 105.126 29.9489 105.395 30.0127C105.609 30.052 105.721 30.1396 105.7 30.2Z" fill="#263238"/>
<path d="M109.795 28.3488C109.723 28.4696 109.336 28.4394 108.889 28.527C108.442 28.6146 108.089 28.7656 107.983 28.678C107.935 28.6327 107.983 28.5179 108.113 28.376C108.312 28.2083 108.553 28.0977 108.811 28.0559C109.063 28.0049 109.326 28.0237 109.569 28.1102C109.753 28.1948 109.825 28.2884 109.795 28.3488Z" fill="#263238"/>
<path d="M101.686 25.392C101.753 25.7192 101.891 26.0276 102.091 26.2954C102.29 26.5631 102.546 26.7837 102.841 26.9414C103.135 27.0991 103.46 27.19 103.794 27.2077C104.127 27.2255 104.46 27.1695 104.77 27.044C105.247 26.8507 105.742 26.4883 106.225 26.6634C106.709 26.8386 106.908 27.5272 107.37 27.7839C108.05 28.1644 108.88 27.506 109.638 27.5725C110.242 27.6238 110.698 28.0859 111.166 28.4785C111.634 28.8711 112.281 29.167 112.809 28.8831C112.688 28.3788 112.509 27.8903 112.275 27.4275C112.038 26.9616 111.648 26.5922 111.169 26.3826C110.903 26.2769 110.617 26.2406 110.363 26.1108C109.816 25.8329 109.572 25.2048 109.176 24.7306C108.916 24.4318 108.589 24.1993 108.221 24.0522C107.854 23.9052 107.456 23.8479 107.062 23.885C106.41 23.9515 105.791 24.2806 105.132 24.2535C104.646 24.2323 104.181 24.0149 103.695 24.024C102.749 24.024 102.04 24.8696 101.514 25.6578" fill="#263238"/>
<path d="M104.87 26.0836C104.435 26.0504 103.547 25.9598 103.254 25.6518C102.956 25.3189 102.576 25.0701 102.152 24.9301C101.728 24.7902 101.275 24.7641 100.838 24.8545C100.404 24.9839 100.023 25.2491 99.7512 25.6112C99.4793 25.9733 99.3309 26.4131 99.3278 26.8658C98.7994 26.9948 98.3156 27.264 97.9276 27.6452C97.5395 28.0263 97.2616 28.5052 97.1232 29.0312C96.9826 29.5818 96.9779 30.1584 97.1094 30.7112C97.2409 31.2641 97.5048 31.7768 97.8782 32.2052C98.0596 32.432 98.2251 32.6712 98.3735 32.9209C98.1687 33.175 97.9887 33.448 97.8359 33.7363C97.1443 35.2644 99.0198 35.8503 99.0198 35.8503C99.0198 36.8771 99.9711 36.8711 100.578 36.8681C101.185 36.865 101.52 38.4868 101.994 38.4234L101.514 33.4192C101.585 33.4466 101.659 33.4609 101.735 33.4615C102.879 33.4826 102.58 31.3143 102.212 30.7435C102.553 30.319 102.841 29.8545 103.07 29.3603C103.277 28.6049 103.291 27.8095 103.112 27.047C103.495 26.9987 105.057 26.0957 104.87 26.0836Z" fill="#263238"/>
<path d="M101.665 33.6853C101.626 33.5263 101.548 33.3797 101.437 33.2593C101.326 33.1389 101.186 33.0486 101.031 32.9967C100.876 32.9448 100.71 32.9332 100.549 32.9627C100.388 32.9923 100.237 33.0622 100.11 33.1658C99.8079 33.4256 99.6479 33.8604 99.8291 34.5883C100.318 36.5331 102.17 35.6422 102.158 35.5879C102.145 35.5335 101.877 34.4886 101.665 33.6853Z" fill="#FFBE9D"/>
<path d="M101.378 34.9988C101.378 34.9988 101.351 35.032 101.3 35.0713C101.228 35.126 101.139 35.1509 101.049 35.1408C100.826 35.1166 100.569 34.8388 100.472 34.4854C100.426 34.3203 100.417 34.1471 100.445 33.9781C100.448 33.9124 100.467 33.8484 100.5 33.7916C100.533 33.7348 100.58 33.6869 100.635 33.6519C100.672 33.6321 100.715 33.6258 100.755 33.6341C100.796 33.6424 100.833 33.6647 100.859 33.6972C100.898 33.7425 100.895 33.7848 100.907 33.7878C100.919 33.7908 100.94 33.7425 100.907 33.667C100.884 33.6222 100.847 33.5862 100.802 33.5643C100.738 33.5385 100.666 33.5385 100.602 33.5643C100.526 33.6003 100.461 33.6549 100.412 33.723C100.363 33.7911 100.332 33.8706 100.321 33.9539C100.282 34.1441 100.289 34.3409 100.342 34.5277C100.376 34.7031 100.461 34.8646 100.586 34.9919C100.711 35.1193 100.871 35.2068 101.046 35.2434C101.103 35.2457 101.16 35.2353 101.212 35.2128C101.264 35.1903 101.311 35.1564 101.348 35.1136C101.387 35.0471 101.387 35.0018 101.378 34.9988Z" fill="#EB996E"/>
<path d="M112.093 30.9702C112.093 30.9702 112.271 30.8343 112.519 30.5323C112.861 30.0972 113.07 29.5731 113.123 29.0223C113.163 28.6463 113.126 28.2661 113.014 27.9049C112.885 27.4906 112.646 27.119 112.323 26.8298C111.949 26.5035 111.497 26.2806 111.011 26.1831C110.524 26.0857 110.021 26.117 109.55 26.2741C109.46 26.3043 109.375 26.3496 109.291 26.3859C109.206 26.4221 109.131 26.4765 109.052 26.5218L108.931 26.5882V26.4553C108.929 26.2214 108.842 25.9962 108.687 25.8211C108.528 25.6512 108.333 25.5191 108.116 25.4346C107.706 25.2636 107.251 25.2297 106.82 25.3379C105.987 25.5282 105.28 25.9087 104.613 25.9872C104.089 26.0782 103.551 25.9705 103.103 25.6852C102.984 25.6038 102.882 25.5015 102.801 25.3832C102.752 25.3017 102.728 25.2564 102.734 25.2534C102.844 25.4025 102.977 25.5321 103.13 25.6369C103.571 25.8914 104.089 25.9783 104.589 25.8815C104.936 25.8161 105.276 25.7149 105.603 25.5795C105.987 25.4261 106.381 25.298 106.781 25.196C107.004 25.1419 107.234 25.1186 107.464 25.1265C107.706 25.1393 107.944 25.1945 108.167 25.2896C108.398 25.3883 108.604 25.5368 108.771 25.7245C108.95 25.9289 109.05 26.1899 109.055 26.4614L108.934 26.3949L109.185 26.2499C109.279 26.2137 109.366 26.1654 109.463 26.1322C109.959 25.9624 110.491 25.9268 111.005 26.0292C111.519 26.1316 111.996 26.3682 112.389 26.715C112.729 27.0225 112.978 27.4174 113.108 27.8566C113.244 28.3221 113.262 28.8138 113.161 29.2881C113.061 29.7623 112.844 30.2043 112.531 30.5746C112.432 30.6881 112.319 30.7895 112.196 30.8766C112.166 30.9118 112.131 30.9433 112.093 30.9702Z" fill="#455A64"/>
<path d="M111.701 24.1419C111.502 24.0413 111.291 23.9691 111.073 23.9275C110.823 23.8934 110.569 23.9171 110.33 23.9969C110.02 24.0917 109.751 24.2873 109.566 24.5526L109.49 24.6583L109.445 24.5375C109.287 24.1663 109.033 23.8438 108.709 23.6033C108.386 23.3629 108.004 23.2131 107.603 23.1695C106.973 23.1458 106.352 23.3258 105.833 23.6829C105.39 23.9713 104.92 24.2141 104.429 24.4077C104.09 24.5358 103.725 24.5793 103.366 24.5345C103.27 24.5168 103.176 24.4905 103.085 24.456C103.024 24.4288 102.991 24.4137 102.994 24.4077C102.997 24.4016 103.13 24.4469 103.375 24.4711C103.722 24.4928 104.07 24.436 104.392 24.305C104.87 24.0968 105.328 23.8461 105.76 23.556C106.028 23.3901 106.311 23.2515 106.606 23.1423C106.93 23.024 107.277 22.9797 107.621 23.0124C108.049 23.0592 108.457 23.2212 108.8 23.4813C109.144 23.7413 109.41 24.0897 109.572 24.4892H109.454C109.662 24.2054 109.958 23.9992 110.296 23.9033C110.554 23.8288 110.824 23.8154 111.088 23.8641C111.254 23.8957 111.414 23.9571 111.559 24.0453C111.61 24.0706 111.658 24.1031 111.701 24.1419Z" fill="#455A64"/>
<path d="M107.723 34.5728C107.653 34.5138 107.571 34.4704 107.482 34.4454C107.394 34.4205 107.301 34.4145 107.21 34.4278C107.104 34.4506 107.003 34.4954 106.915 34.5593C106.827 34.6233 106.754 34.7051 106.7 34.7993C106.7 34.7993 106.685 34.8144 106.681 34.8235C106.64 34.8924 106.621 34.9727 106.627 35.053C106.64 35.1405 106.675 35.2234 106.727 35.2945C106.78 35.3655 106.849 35.4226 106.929 35.4607C107.057 35.5254 107.201 35.5491 107.343 35.5286C107.485 35.508 107.616 35.4442 107.72 35.3459C107.819 35.2416 107.874 35.1036 107.875 34.96C107.875 34.8163 107.821 34.6779 107.723 34.5728Z" fill="#6556D0"/>
<path d="M107.874 35.5124C107.85 35.5124 107.823 35.4218 107.742 35.298C107.643 35.132 107.497 35.0001 107.321 34.9202C107.146 34.8402 106.95 34.8161 106.76 34.851C106.612 34.8721 106.521 34.9144 106.512 34.8933C106.503 34.8721 106.573 34.7997 106.736 34.7423C106.949 34.6736 107.181 34.6865 107.385 34.7785C107.591 34.8704 107.755 35.0379 107.841 35.2466C107.905 35.4037 107.896 35.5094 107.874 35.5124Z" fill="#263238"/>
<path d="M101.711 35.8865C101.711 35.8865 101.798 36.0375 101.683 36.267C101.618 36.4043 101.504 36.5121 101.363 36.569C101.275 36.6004 101.181 36.6111 101.089 36.6001C100.996 36.5891 100.907 36.5567 100.829 36.5056C100.749 36.4572 100.682 36.3912 100.632 36.3126C100.582 36.2341 100.552 36.1451 100.542 36.0526C100.533 35.9034 100.577 35.7558 100.666 35.6358C100.823 35.4365 100.998 35.4304 100.998 35.4486C100.998 35.4667 100.865 35.518 100.759 35.6992C100.698 35.8007 100.673 35.9198 100.687 36.0375C100.698 36.1064 100.724 36.172 100.763 36.2299C100.802 36.2878 100.854 36.3365 100.913 36.3727C100.972 36.4104 101.038 36.4352 101.108 36.4457C101.177 36.4561 101.248 36.4518 101.315 36.4331C101.426 36.3932 101.523 36.3192 101.59 36.2217C101.708 36.0344 101.686 35.8865 101.711 35.8865Z" fill="#6556D0"/>
<path d="M100.693 35.7691C100.708 35.7691 100.693 35.8718 100.551 35.9383C100.481 35.9672 100.405 35.9756 100.33 35.9625C100.256 35.9494 100.187 35.9152 100.131 35.8641C100.076 35.8129 100.036 35.747 100.017 35.674C99.9972 35.6009 99.9993 35.5239 100.022 35.452C100.052 35.3704 100.108 35.3012 100.182 35.2557C100.306 35.1802 100.4 35.2104 100.397 35.2286C100.394 35.2467 100.324 35.2678 100.249 35.3433C100.212 35.3897 100.189 35.4461 100.184 35.5053C100.179 35.5645 100.191 35.624 100.219 35.6762C100.248 35.7284 100.291 35.7711 100.343 35.799C100.396 35.8268 100.455 35.8385 100.515 35.8326C100.617 35.8114 100.672 35.7571 100.693 35.7691Z" fill="#6556D0"/>
<path d="M104.012 62.5896C104.012 62.5896 111.489 63.0244 115.911 63.0637C119.332 63.0969 120.86 62.1879 121.543 59.9863C122.117 58.1411 120.885 54.5986 120.885 54.5986C118.568 54.5986 117.14 54.9308 115.651 55.6285L116.047 57.2472L103.991 58.2861L104.012 62.5896Z" fill="#FFBE9D"/>
<path d="M118.559 58.9745C118.235 58.5529 117.856 58.1761 117.433 57.8541C116.978 57.5762 116.489 57.3608 115.977 57.2139C116.138 57.1907 116.303 57.2051 116.457 57.2561C116.837 57.3459 117.198 57.5046 117.52 57.7242C117.844 57.9446 118.123 58.2231 118.345 58.5457C118.514 58.7933 118.577 58.9655 118.559 58.9745Z" fill="#EB996E"/>
<path d="M101.276 55.6162C101.276 55.6162 98.9623 56.1719 97.2621 57.3074L99.0741 62.218C99.6781 63.8306 101.523 64.6339 103 63.7883C105.274 62.4867 106.077 58.6936 106.077 58.6936L108.575 47.8579L104.435 45.2637L101.291 55.6162" fill="#FFBE9D"/>
<path d="M104.42 45.264L104.589 41.7004L103.661 38.0764C103.61 37.877 103.586 37.6264 103.749 37.5056C103.83 37.4436 103.93 37.4115 104.032 37.4148C104.134 37.4181 104.231 37.4566 104.308 37.5237C104.558 37.7834 105.766 40.9514 105.766 40.9514C105.766 40.9514 107.6 39.8521 107.926 39.7978C108.252 39.7434 108.66 40.7309 108.687 40.8064C108.699 41.0277 108.699 41.2495 108.687 41.4708C108.687 41.4708 109.819 41.5041 109.922 41.6581C110.004 41.9727 110.048 42.2962 110.052 42.6215C110.052 42.6215 110.532 42.7755 110.607 43.1379C110.683 43.5003 110.84 44.0982 110.607 44.2311C110.375 44.364 109.904 44.6237 109.904 44.6237C109.904 44.6237 109.714 46.472 109.662 46.6411C109.611 46.8102 108.551 47.8491 108.551 47.8491L104.42 45.264Z" fill="#FFBE9D"/>
<path d="M100.566 63.8608C100.566 63.8608 100.678 63.9273 100.913 64.0028C101.258 64.1108 101.622 64.1398 101.979 64.0873C102.553 64.0055 103.091 63.7578 103.526 63.3746C104.1 62.8531 104.586 62.241 104.963 61.5626C105.185 61.1638 105.372 60.7465 105.522 60.3153C105.679 59.8409 105.809 59.3579 105.911 58.8688C106.147 57.851 106.404 56.7548 106.676 55.589C107.219 53.2606 107.829 50.6574 108.488 47.8518V47.8307H108.503C108.711 47.6253 108.919 47.4169 109.128 47.1995C109.23 47.0908 109.333 46.982 109.43 46.8703C109.478 46.8129 109.529 46.7555 109.569 46.6982C109.599 46.6413 109.617 46.5784 109.62 46.5139C109.702 45.9099 109.765 45.2848 109.831 44.6536V44.6144L109.868 44.5962L110.444 44.2731C110.487 44.2459 110.553 44.2157 110.58 44.1916C110.609 44.1654 110.628 44.1303 110.635 44.0919C110.649 43.9917 110.649 43.8901 110.635 43.7899C110.605 43.5684 110.56 43.3494 110.499 43.1346C110.396 42.9467 110.224 42.8068 110.019 42.745L109.967 42.7269V42.6755C109.967 42.5004 109.949 42.3192 109.928 42.141C109.92 42.0517 109.907 41.963 109.889 41.8752C109.882 41.8365 109.87 41.7989 109.853 41.7635C109.853 41.7423 109.853 41.7635 109.834 41.7454C109.818 41.7368 109.801 41.7297 109.783 41.7242C109.42 41.6451 109.049 41.6036 108.678 41.6004H108.599V41.5219C108.599 41.3346 108.599 41.1263 108.599 40.9179C108.587 40.8468 108.562 40.7784 108.527 40.7155C108.497 40.6431 108.46 40.5736 108.424 40.5011C108.353 40.3612 108.271 40.2278 108.176 40.1025C108.134 40.0441 108.082 39.9931 108.022 39.9515C108.001 39.933 107.974 39.9214 107.945 39.9181C107.917 39.9149 107.888 39.9202 107.862 39.9334C107.716 39.9893 107.574 40.0549 107.437 40.1297C106.875 40.4317 106.325 40.7337 105.788 41.0598L105.709 41.1081L105.676 41.0236C105.392 40.3078 105.108 39.6012 104.83 38.9096C104.691 38.5623 104.555 38.215 104.417 37.8737C104.395 37.7973 104.353 37.7284 104.294 37.675C104.235 37.6216 104.162 37.5858 104.084 37.5717C104.012 37.5478 103.934 37.5491 103.863 37.5754C103.791 37.6018 103.731 37.6516 103.692 37.7167C103.654 37.7815 103.638 37.8566 103.646 37.9311C103.646 37.9975 103.689 38.1002 103.707 38.1818C103.755 38.3569 103.8 38.5291 103.846 38.7012C103.936 39.0485 104.024 39.3898 104.115 39.728C104.292 40.4085 104.466 41.0729 104.637 41.7212V41.7423C104.577 42.9826 104.519 44.1704 104.465 45.3059V45.2999L101.714 54.2512L100.938 56.7427C100.847 57.0235 100.777 57.244 100.729 57.398C100.681 57.552 100.651 57.6185 100.651 57.6185C100.651 57.6185 100.666 57.54 100.708 57.392L100.898 56.7306C101.073 56.1477 101.324 55.3052 101.641 54.23C102.293 52.0677 103.221 48.9813 104.341 45.2606V45.2757C104.393 44.1443 104.447 42.9564 104.501 41.7121V41.7333C104.329 41.084 104.151 40.4196 103.973 39.7431L103.701 38.7163C103.656 38.5442 103.61 38.369 103.562 38.1969C103.536 38.1064 103.515 38.0147 103.498 37.922C103.487 37.8172 103.51 37.7115 103.562 37.62C103.618 37.5258 103.704 37.4534 103.807 37.4147C103.908 37.385 104.015 37.3817 104.118 37.4049C104.221 37.4282 104.317 37.4772 104.395 37.5476C104.471 37.6187 104.527 37.7081 104.558 37.8073L104.972 38.8431C105.253 39.5377 105.534 40.2444 105.821 40.9571L105.709 40.9179C106.25 40.5978 106.793 40.2776 107.367 39.9787C107.512 39.9029 107.661 39.8353 107.814 39.7763C107.862 39.7565 107.914 39.7492 107.965 39.7552C108.017 39.7627 108.066 39.7812 108.11 39.8095C108.183 39.8617 108.247 39.9249 108.3 39.9968C108.401 40.1289 108.489 40.2705 108.563 40.4196C108.602 40.4951 108.638 40.5676 108.672 40.6431C108.715 40.723 108.743 40.8099 108.756 40.8998C108.756 41.1142 108.756 41.3135 108.756 41.5038L108.681 41.4222C109.069 41.4248 109.456 41.4694 109.834 41.5551C109.86 41.5642 109.886 41.5753 109.91 41.5883C109.943 41.6064 109.97 41.6337 109.988 41.6668C110.012 41.7159 110.029 41.7676 110.04 41.8209C110.058 41.9175 110.07 42.0081 110.082 42.1017C110.1 42.2859 110.112 42.4671 110.121 42.6483L110.067 42.5759C110.19 42.6121 110.305 42.6731 110.404 42.7551C110.504 42.8372 110.585 42.9385 110.644 43.053C110.71 43.2825 110.758 43.5168 110.789 43.7537C110.81 43.8746 110.81 43.9982 110.789 44.1191C110.776 44.1923 110.737 44.2586 110.68 44.3063C110.63 44.3395 110.579 44.3697 110.526 44.3969L109.952 44.6959L109.991 44.6385C109.922 45.2697 109.859 45.8888 109.774 46.5019L109.756 46.6196C109.749 46.6673 109.729 46.7122 109.699 46.7495C109.654 46.8156 109.605 46.8782 109.551 46.9367C109.448 47.0515 109.345 47.1632 109.249 47.272C109.04 47.4894 108.832 47.6978 108.62 47.9031L108.642 47.8669C107.977 50.6695 107.361 53.2727 106.808 55.6011C106.534 56.7638 106.271 57.8601 106.029 58.8748C105.926 59.3676 105.793 59.8537 105.631 60.3304C105.475 60.7657 105.283 61.1869 105.057 61.5898C104.671 62.2769 104.174 62.8953 103.586 63.4199C103.138 63.8055 102.587 64.0513 102.001 64.1266C101.636 64.1756 101.264 64.1383 100.916 64.0179C100.828 63.9853 100.742 63.946 100.66 63.9001L100.566 63.8608Z" fill="#EB996E"/>
<path d="M108.69 41.4799C108.69 41.501 108.587 41.5131 108.427 41.5191C108.224 41.523 108.021 41.5473 107.823 41.5916C107.632 41.6387 107.455 41.7332 107.31 41.8664C107.201 41.9691 107.153 42.0567 107.128 42.0476C107.104 42.0386 107.128 41.9298 107.228 41.7909C107.369 41.6151 107.564 41.4917 107.784 41.4406C107.995 41.3885 108.215 41.3782 108.43 41.4104C108.593 41.4315 108.69 41.4587 108.69 41.4799Z" fill="#EB996E"/>
<path d="M107.814 41.5129C107.775 41.4978 107.772 41.4042 107.814 41.3045C107.856 41.2049 107.917 41.1354 107.956 41.1505C107.995 41.1656 108.001 41.2592 107.956 41.3589C107.911 41.4585 107.844 41.528 107.814 41.5129Z" fill="#EB996E"/>
<path d="M110.103 42.6092C109.81 42.6999 109.504 42.7417 109.197 42.733C109.101 42.7298 109.005 42.7498 108.918 42.7913C108.83 42.8328 108.754 42.8946 108.696 42.9716C108.617 43.0954 108.645 43.1981 108.62 43.2041C108.596 43.2102 108.524 43.1045 108.599 42.9233C108.641 42.8213 108.717 42.7369 108.814 42.6847C108.925 42.6234 109.049 42.5863 109.176 42.576C109.484 42.5288 109.799 42.54 110.103 42.6092Z" fill="#EB996E"/>
<path d="M109.904 43.6963C109.946 43.6963 109.97 43.9198 109.958 44.1946C109.946 44.4694 109.901 44.6869 109.858 44.6869C109.816 44.6869 109.789 44.4604 109.801 44.1856C109.813 43.9107 109.858 43.6933 109.904 43.6963Z" fill="#EB996E"/>
<path d="M111.157 51.8293L111.426 50.9052C111.438 50.8629 111.461 50.8245 111.493 50.7939C111.525 50.7632 111.564 50.7413 111.606 50.7304C111.649 50.7194 111.694 50.7197 111.736 50.7313C111.779 50.7429 111.817 50.7654 111.849 50.7965L112.202 51.1559L112.419 50.2831C112.432 50.2327 112.46 50.1874 112.5 50.1534C112.539 50.1194 112.588 50.0984 112.64 50.0931C112.691 50.0878 112.744 50.0986 112.789 50.1239C112.834 50.1493 112.871 50.188 112.894 50.2348L113.386 51.2676L111.157 51.8293Z" fill="white"/>
<path d="M113.392 51.6631C113.054 51.8264 112.695 51.9422 112.326 52.0074C111.969 52.1241 111.596 52.1892 111.221 52.2006C111.916 51.9214 112.647 51.7404 113.392 51.6631Z" fill="white"/>
<path d="M95.432 46.5078C95.432 46.5078 95.3202 46.6226 95.1632 46.8672C94.9524 47.2156 94.8137 47.6027 94.7555 48.0057C94.6694 48.6058 94.6512 49.2136 94.7011 49.8177C94.7343 50.5033 94.7887 51.2522 94.8733 52.0374C95.0163 53.3784 95.229 54.711 95.5105 56.0299C95.6162 56.5372 95.7128 56.9359 95.7793 57.2379C95.8095 57.3647 95.8366 57.4704 95.8578 57.561C95.8789 57.6516 95.8819 57.6758 95.8819 57.6758C95.8819 57.6758 95.8668 57.6395 95.8457 57.5671C95.8246 57.4946 95.7913 57.3677 95.7581 57.2439C95.6826 56.9631 95.5799 56.5584 95.4561 56.051C95.1626 54.7326 94.9438 53.3987 94.8008 52.0556C94.7162 51.2704 94.6649 50.5184 94.6347 49.8328C94.5889 49.2282 94.6112 48.6204 94.7011 48.0208C94.766 47.6126 94.914 47.222 95.136 46.8732C95.2178 46.7387 95.3173 46.6158 95.432 46.5078Z" fill="white"/>
<path d="M101.789 42.3946L101.72 42.4308L101.52 42.5275C101.348 42.609 101.098 42.7298 100.799 42.8959C100.019 43.3306 99.2622 43.8043 98.5305 44.3153C97.6668 44.9193 96.9027 45.469 96.344 45.8676L95.6827 46.3357L95.4984 46.4595C95.4779 46.476 95.4556 46.4901 95.432 46.5018C95.4492 46.4815 95.4696 46.4642 95.4924 46.4505L95.6676 46.3176L96.3169 45.8314C96.8695 45.4237 97.6306 44.8559 98.4943 44.264C99.2273 43.7508 99.9896 43.2809 100.777 42.8567C101.079 42.6966 101.333 42.5818 101.511 42.5063L101.714 42.4218C101.774 42.4006 101.774 42.3916 101.789 42.3946Z" fill="white"/>
<path d="M116.191 44.361C116.173 44.3505 116.155 44.3373 116.14 44.3218L116.004 44.204C115.836 44.0619 115.659 43.9298 115.476 43.8084C114.863 43.4175 114.212 43.0887 113.534 42.8269C112.858 42.559 112.167 42.3291 111.465 42.1383C111.193 42.0628 110.976 42.0084 110.822 41.9722L110.65 41.9269C110.629 41.9226 110.608 41.9155 110.589 41.9058H110.653L110.828 41.939C110.982 41.9692 111.202 42.0175 111.474 42.087C112.183 42.2658 112.879 42.4908 113.558 42.7604C114.24 43.0222 114.891 43.3584 115.5 43.7631C115.753 43.9345 115.985 44.1352 116.191 44.361Z" fill="white"/>
<path d="M101.874 67.4126C101.833 67.4053 101.793 67.3921 101.756 67.3733C101.651 67.3272 101.55 67.2727 101.454 67.2102C101.291 67.1127 101.149 66.9841 101.036 66.8318C100.923 66.6794 100.842 66.5063 100.796 66.3223C100.713 65.951 100.754 65.5626 100.913 65.217C100.959 65.1097 101.018 65.0083 101.088 64.915C101.137 64.8516 101.17 64.8214 101.173 64.8244C101.091 64.9532 101.017 65.0874 100.953 65.2261C100.812 65.5654 100.779 65.9397 100.859 66.2982C100.945 66.6522 101.161 66.9612 101.463 67.1649C101.714 67.3461 101.88 67.4005 101.874 67.4126Z" fill="white"/>
<path d="M100.913 64.1416C100.978 64.2615 101.025 64.3895 101.055 64.5221C101.103 64.6492 101.131 64.7825 101.14 64.9177C101.071 64.8007 101.022 64.6732 100.995 64.5402C100.945 64.4129 100.918 64.2781 100.913 64.1416Z" fill="white"/>
<path d="M104.996 131.853L114.207 131.808L114.041 99.9618L113.954 67.5663L101.472 67.4062L99.2281 71.6342C98.31 73.334 97.7247 75.1934 97.5036 77.1125C97.3526 78.5802 98.4519 83.3519 98.8325 84.5599L102.266 95.45L104.996 131.853Z" fill="#263238"/>
<path d="M116.657 67.6057L126.78 95.1994C127.379 96.9773 127.579 98.8659 127.363 100.73C127.147 102.594 126.522 104.387 125.532 105.981L113.779 128.933L107.171 120.664L117.004 100.128L108.337 86.07L109.795 67.648L113.878 67.5815L116.657 67.6057Z" fill="#263238"/>
<path d="M113.114 76.8501C113.114 76.8501 113.114 76.8984 113.114 76.992C113.114 77.0857 113.129 77.2306 113.141 77.4088C113.162 77.7803 113.19 78.3148 113.226 79.0064C113.295 80.4046 113.392 82.4129 113.528 84.8924C113.664 87.3718 113.779 90.3284 113.93 93.6202C114.002 95.263 114.081 96.9875 114.159 98.7753C114.216 99.6813 114.192 100.587 114.201 101.493C114.21 102.399 114.201 103.354 114.201 104.302C114.201 111.891 114.226 118.762 114.235 123.742C114.235 126.224 114.235 128.235 114.235 129.634C114.235 130.325 114.235 130.863 114.235 131.237C114.235 131.412 114.235 131.539 114.235 131.654C114.235 131.769 114.235 131.796 114.235 131.796C114.235 131.796 114.235 131.748 114.235 131.654V131.237C114.235 130.863 114.235 130.331 114.216 129.634C114.216 128.235 114.192 126.227 114.174 123.745C114.153 118.765 114.126 111.894 114.096 104.305C114.096 103.357 114.096 102.42 114.096 101.496C114.096 100.572 114.114 99.6602 114.056 98.7783C113.981 96.9935 113.905 95.2691 113.836 93.6262C113.697 90.3404 113.57 87.3839 113.467 84.8954C113.365 82.4069 113.289 80.4077 113.232 79.0094C113.208 78.3208 113.19 77.7833 113.178 77.4088C113.178 77.2306 113.178 77.1068 113.178 76.992C113.178 76.8773 113.114 76.8501 113.114 76.8501Z" fill="#455A64"/>
<path d="M112.882 68.1494C112.917 68.2466 112.938 68.3483 112.945 68.4514C112.978 68.6447 113.014 68.9256 113.057 69.2759C113.135 69.9735 113.22 70.9429 113.268 72.015C113.316 73.0871 113.32 74.0596 113.304 74.7632C113.304 75.1135 113.283 75.4004 113.268 75.5967C113.271 75.6986 113.259 75.8004 113.232 75.8987C113.194 75.5215 113.181 75.1422 113.193 74.7632C113.193 74.0596 113.159 73.0932 113.111 72.0211C113.063 70.949 112.996 69.9856 112.945 69.3031C112.902 68.92 112.881 68.5349 112.882 68.1494Z" fill="#455A64"/>
<path d="M110.852 68.7714C110.867 68.7926 110.695 68.8711 110.647 69.1157C110.633 69.1821 110.637 69.2508 110.658 69.3153C110.678 69.3798 110.715 69.438 110.765 69.4842C110.824 69.5397 110.899 69.5769 110.979 69.5914C111.059 69.6059 111.142 69.5969 111.218 69.5657C111.29 69.5284 111.35 69.4716 111.392 69.4016C111.434 69.3317 111.455 69.2514 111.453 69.1701C111.45 69.1025 111.43 69.0367 111.395 68.9791C111.359 68.9215 111.31 68.8739 111.251 68.8409C111.128 68.7814 110.991 68.7573 110.855 68.7714C110.855 68.7714 110.885 68.7322 110.964 68.708C111.077 68.6804 111.196 68.6921 111.302 68.7412C111.386 68.7763 111.459 68.8341 111.513 68.9083C111.566 68.9824 111.598 69.0699 111.604 69.161C111.616 69.2734 111.593 69.3868 111.537 69.4852C111.481 69.5835 111.396 69.6618 111.293 69.7092C111.19 69.7565 111.075 69.7705 110.964 69.7491C110.853 69.7277 110.752 69.672 110.674 69.5898C110.61 69.526 110.564 69.4458 110.542 69.358C110.521 69.2701 110.523 69.178 110.55 69.0916C110.58 68.9785 110.649 68.8794 110.743 68.8107C110.804 68.7684 110.849 68.7624 110.852 68.7714Z" fill="#455A64"/>
<path d="M106.02 68.2246C106.065 68.3198 106.092 68.422 106.102 68.5266C106.15 68.7977 106.159 69.0744 106.129 69.348C106.085 69.7556 105.968 70.1517 105.782 70.5168C105.557 70.9709 105.224 71.3629 104.812 71.6583C104.4 71.9537 103.922 72.1435 103.42 72.211C103.018 72.271 102.608 72.2557 102.212 72.1657C101.944 72.1075 101.685 72.0109 101.445 71.8788C101.354 71.8358 101.27 71.7787 101.197 71.7097C101.531 71.8599 101.879 71.9762 102.236 72.057C102.666 72.1463 103.109 72.1456 103.538 72.0549C103.967 71.9642 104.373 71.7856 104.73 71.5301C105.087 71.2747 105.387 70.9482 105.611 70.571C105.835 70.1939 105.978 69.7744 106.032 69.339C106.068 68.9682 106.064 68.5946 106.02 68.2246Z" fill="#455A64"/>
<path d="M117.871 70.8704C117.673 70.8931 117.474 70.8693 117.288 70.8009C116.831 70.6572 116.422 70.3945 116.101 70.0399C115.777 69.6868 115.555 69.2527 115.458 68.7835C115.41 68.5922 115.41 68.3921 115.458 68.2007C115.485 68.2007 115.488 68.4211 115.578 68.7594C115.701 69.1964 115.923 69.599 116.228 69.935C116.534 70.271 116.913 70.5313 117.336 70.6952C117.65 70.819 117.874 70.8402 117.871 70.8704Z" fill="#455A64"/>
<path d="M121.467 100.617C121.316 100.79 121.135 100.934 120.933 101.043C120.721 101.178 120.49 101.279 120.247 101.345C119.942 101.426 119.621 101.418 119.32 101.321C118.793 101.122 118.341 100.763 118.028 100.294C117.884 100.118 117.765 99.9229 117.674 99.7144C117.837 99.8699 117.985 100.041 118.115 100.225C118.436 100.65 118.869 100.977 119.366 101.17C119.619 101.238 119.884 101.253 120.143 101.215C120.403 101.177 120.652 101.087 120.876 100.95C121.066 100.828 121.264 100.717 121.467 100.617Z" fill="#455A64"/>
<path d="M119.16 102.378C118.803 102.008 118.485 101.604 118.209 101.17C117.891 100.766 117.614 100.332 117.381 99.8745C117.741 100.243 118.061 100.648 118.336 101.083C118.656 101.484 118.932 101.918 119.16 102.378Z" fill="#455A64"/>
<path d="M103.686 77.916C103.643 77.9311 103.538 77.7589 103.444 77.5264C103.35 77.2938 103.311 77.0975 103.35 77.0794C103.39 77.0613 103.498 77.2365 103.589 77.469C103.68 77.7015 103.725 77.916 103.686 77.916Z" fill="#FAFAFA"/>
<path d="M109.532 78.7558C109.487 78.7558 109.454 78.6078 109.454 78.4236C109.454 78.2394 109.487 78.0884 109.532 78.0884C109.578 78.0884 109.611 78.2394 109.611 78.4236C109.611 78.6078 109.575 78.7558 109.532 78.7558Z" fill="#FAFAFA"/>
<path d="M107.128 81.9328C107.086 81.9328 107.038 81.7516 107.023 81.519C107.008 81.2865 107.023 81.0992 107.071 81.0962C107.119 81.0932 107.165 81.2774 107.18 81.51C107.195 81.7425 107.171 81.9297 107.128 81.9328Z" fill="#FAFAFA"/>
<path d="M102.737 84.2579C102.701 84.285 102.577 84.1733 102.414 84.0585C102.251 83.9438 102.112 83.8562 102.112 83.8139C102.112 83.7716 102.312 83.7958 102.496 83.9287C102.68 84.0616 102.774 84.2579 102.737 84.2579Z" fill="#FAFAFA"/>
<path d="M110.478 87.2205C110.441 87.1964 110.478 87.0665 110.58 86.9185C110.683 86.7705 110.777 86.686 110.813 86.7101C110.849 86.7343 110.813 86.8672 110.71 87.0121C110.608 87.1571 110.514 87.2447 110.478 87.2205Z" fill="#FAFAFA"/>
<path d="M105.7 88.0572C105.658 88.0572 105.621 87.8066 105.621 87.5016C105.621 87.1965 105.658 86.9429 105.7 86.9429C105.742 86.9429 105.779 87.1935 105.779 87.5016C105.779 87.8096 105.733 88.0572 105.7 88.0572Z" fill="#FAFAFA"/>
<path d="M104.136 91.4456C104.111 91.4788 103.954 91.4093 103.785 91.2855C103.616 91.1617 103.483 91.0348 103.523 90.9986C103.562 90.9624 103.707 91.0348 103.876 91.1587C104.045 91.2825 104.163 91.4093 104.136 91.4456Z" fill="#FAFAFA"/>
<path d="M108.974 92.6236C108.992 92.6629 108.895 92.7444 108.756 92.8078C108.617 92.8712 108.49 92.8863 108.472 92.8471C108.454 92.8078 108.554 92.7263 108.693 92.6629C108.832 92.5994 108.959 92.5844 108.974 92.6236Z" fill="#FAFAFA"/>
<path d="M105.7 98.15C105.664 98.1681 105.507 97.9356 105.353 97.6275C105.199 97.3195 105.105 97.0537 105.144 97.0235C105.184 96.9933 105.341 97.2379 105.492 97.546C105.643 97.854 105.727 98.1168 105.7 98.15Z" fill="#FAFAFA"/>
<path d="M111.036 97.6367C110.997 97.6155 111.067 97.4132 111.187 97.1806C111.308 96.9481 111.444 96.779 111.489 96.8001C111.535 96.8213 111.459 97.0236 111.335 97.2561C111.212 97.4887 111.073 97.6578 111.036 97.6367Z" fill="#FAFAFA"/>
<path d="M108.696 102.314C108.651 102.314 108.657 102.07 108.608 101.786C108.56 101.502 108.487 101.276 108.53 101.254C108.572 101.233 108.717 101.448 108.765 101.762C108.814 102.076 108.738 102.323 108.696 102.314Z" fill="#FAFAFA"/>
<path d="M106.189 104.988C106.159 105.018 106.008 104.903 105.854 104.734C105.7 104.565 105.6 104.405 105.634 104.374C105.667 104.344 105.815 104.459 105.969 104.628C106.123 104.797 106.222 104.957 106.189 104.988Z" fill="#FAFAFA"/>
<path d="M112.272 106.002C112.241 105.972 112.353 105.809 112.522 105.637C112.691 105.464 112.848 105.353 112.882 105.383C112.915 105.413 112.8 105.579 112.634 105.748C112.468 105.917 112.305 106.032 112.272 106.002Z" fill="#FAFAFA"/>
<path d="M108.774 110.003C108.732 110.003 108.732 109.765 108.774 109.487C108.817 109.209 108.883 108.992 108.928 108.998C108.974 109.004 108.971 109.233 108.928 109.511C108.886 109.789 108.817 110.009 108.774 110.003Z" fill="#FAFAFA"/>
<path d="M106.422 111.946C106.383 111.967 106.25 111.81 106.12 111.595C105.99 111.381 105.924 111.191 105.96 111.169C105.996 111.148 106.129 111.302 106.262 111.517C106.395 111.731 106.458 111.921 106.422 111.946Z" fill="#FAFAFA"/>
<path d="M112.09 114.394C112.118 114.431 111.963 114.585 111.746 114.739C111.529 114.893 111.338 114.989 111.311 114.953C111.284 114.917 111.441 114.763 111.655 114.609C111.87 114.455 112.066 114.361 112.09 114.394Z" fill="#FAFAFA"/>
<path d="M107.367 117.574C107.325 117.559 107.367 117.318 107.406 117.016C107.446 116.714 107.421 116.466 107.467 116.46C107.512 116.454 107.591 116.708 107.56 117.031C107.53 117.354 107.406 117.593 107.367 117.574Z" fill="#FAFAFA"/>
<path d="M109.255 122.141C109.218 122.168 109.091 122.065 108.968 121.911C108.844 121.757 108.774 121.609 108.808 121.582C108.841 121.555 108.968 121.658 109.091 121.812C109.215 121.966 109.288 122.114 109.255 122.141Z" fill="#FAFAFA"/>
<path d="M107.192 125.203C107.156 125.227 106.99 125.049 106.82 124.801C106.651 124.554 106.546 124.336 106.579 124.312C106.612 124.288 106.781 124.466 106.95 124.714C107.119 124.962 107.228 125.179 107.192 125.203Z" fill="#FAFAFA"/>
<path d="M112.872 121.359C112.833 121.344 112.836 121.232 112.872 121.111C112.909 120.99 112.99 120.9 113.032 120.915C113.075 120.93 113.069 121.042 113.032 121.165C112.996 121.289 112.915 121.377 112.872 121.359Z" fill="#FAFAFA"/>
<path d="M110.366 128.652C110.327 128.631 110.402 128.417 110.463 128.148C110.523 127.879 110.544 127.652 110.589 127.649C110.635 127.646 110.68 127.891 110.617 128.181C110.553 128.471 110.402 128.676 110.366 128.652Z" fill="#FAFAFA"/>
<path d="M111.997 81.981C111.957 81.9991 111.861 81.8783 111.782 81.7092C111.704 81.5401 111.671 81.3891 111.71 81.3709C111.749 81.3528 111.846 81.4736 111.924 81.6427C112.003 81.8119 112.042 81.9629 111.997 81.981Z" fill="#FAFAFA"/>
<path d="M107.814 72.5766C107.838 72.6129 107.627 72.782 107.4 73.0236C107.174 73.2652 107.02 73.4887 106.98 73.4675C106.941 73.4464 107.044 73.1655 107.282 72.9179C107.521 72.6702 107.784 72.5374 107.814 72.5766Z" fill="#FAFAFA"/>
<path d="M111.538 72.4798C111.492 72.4798 111.423 72.3076 111.317 72.1023C111.212 71.8969 111.115 71.7278 111.148 71.6976C111.181 71.6674 111.344 71.8003 111.45 72.0298C111.556 72.2593 111.577 72.4556 111.538 72.4798Z" fill="#FAFAFA"/>
<path d="M99.9106 75.5331C99.8714 75.515 99.9106 75.3157 100.004 75.0862C100.098 74.8566 100.201 74.6785 100.243 74.6966C100.285 74.7147 100.243 74.911 100.149 75.1435C100.056 75.3761 99.962 75.5482 99.9106 75.5331Z" fill="#FAFAFA"/>
<path d="M100.288 80.0934C100.258 80.1266 100.086 80.03 99.9016 79.876C99.7173 79.7219 99.5996 79.574 99.6177 79.5377C99.6358 79.5015 99.82 79.6011 100.004 79.7552C100.188 79.9092 100.315 80.0602 100.288 80.0934Z" fill="#FAFAFA"/>
<path d="M107.917 68.9555C107.877 68.9555 107.793 68.8589 107.732 68.7048C107.672 68.5508 107.654 68.4028 107.693 68.4028C107.732 68.4028 107.817 68.4995 107.877 68.6535C107.938 68.8075 107.956 68.9404 107.917 68.9555Z" fill="#FAFAFA"/>
<path d="M115.222 71.1843C115.18 71.1843 115.183 70.994 115.222 70.7796C115.261 70.5652 115.34 70.3961 115.382 70.4051C115.424 70.4142 115.421 70.5984 115.382 70.8128C115.343 71.0273 115.264 71.1934 115.222 71.1843Z" fill="#FAFAFA"/>
<path d="M116.937 74.6361C116.898 74.618 116.953 74.3945 117.061 74.1318C117.17 73.869 117.288 73.6727 117.327 73.6878C117.366 73.7029 117.327 73.9294 117.206 74.1922C117.085 74.4549 116.98 74.6512 116.937 74.6361Z" fill="#FAFAFA"/>
<path d="M115.714 77.4207C115.675 77.4388 115.53 77.2305 115.391 76.9557C115.252 76.6808 115.174 76.4362 115.213 76.4181C115.252 76.4 115.394 76.6084 115.533 76.8832C115.672 77.158 115.754 77.3996 115.714 77.4207Z" fill="#FAFAFA"/>
<path d="M118.33 80.2053C118.29 80.1902 118.33 80.0151 118.396 79.8158C118.462 79.6164 118.568 79.4654 118.61 79.4805C118.653 79.4956 118.61 79.6708 118.544 79.8701C118.478 80.0694 118.384 80.2204 118.33 80.2053Z" fill="#FAFAFA"/>
<path d="M115.992 82.9321C115.956 82.9562 115.862 82.8747 115.787 82.7539C115.711 82.6331 115.675 82.5123 115.714 82.4881C115.754 82.464 115.841 82.5455 115.92 82.6693C115.998 82.7931 116.028 82.9109 115.992 82.9321Z" fill="#FAFAFA"/>
<path d="M116.49 88.5614C116.46 88.5886 116.27 88.4406 116.071 88.2232C115.871 88.0057 115.735 87.8094 115.769 87.7792C115.802 87.749 115.989 87.9 116.188 88.1175C116.388 88.3349 116.524 88.5312 116.49 88.5614Z" fill="#FAFAFA"/>
<path d="M119.556 85.3272C119.523 85.3544 119.356 85.2034 119.187 84.9859C119.018 84.7685 118.91 84.5752 118.943 84.548C118.976 84.5209 119.142 84.6749 119.311 84.8893C119.48 85.1037 119.592 85.303 119.556 85.3272Z" fill="#FAFAFA"/>
<path d="M121.238 89.7877C121.199 89.7696 121.268 89.5431 121.392 89.2834C121.516 89.0237 121.646 88.8243 121.694 88.8425C121.742 88.8606 121.667 89.0901 121.543 89.3498C121.419 89.6095 121.277 89.8089 121.238 89.7877Z" fill="#FAFAFA"/>
<path d="M117.662 93.46C117.623 93.4811 117.484 93.315 117.291 93.1368C117.097 92.9587 116.919 92.8348 116.937 92.7895C116.956 92.7442 117.185 92.8258 117.396 93.0221C117.608 93.2184 117.698 93.4388 117.662 93.46Z" fill="#FAFAFA"/>
<path d="M117.886 97.2441C117.886 97.2863 117.735 97.3226 117.55 97.3226C117.366 97.3226 117.218 97.2863 117.218 97.2441C117.218 97.2018 117.366 97.1655 117.55 97.1655C117.735 97.1655 117.886 97.2018 117.886 97.2441Z" fill="#FAFAFA"/>
<path d="M121.561 96.1868C121.522 96.1657 121.6 95.9754 121.658 95.7399C121.715 95.5043 121.739 95.2989 121.784 95.2959C121.83 95.2929 121.878 95.5134 121.812 95.7761C121.745 96.0389 121.594 96.211 121.561 96.1868Z" fill="#FAFAFA"/>
<path d="M125.212 97.4585C125.173 97.4736 125.061 97.2592 124.965 96.9844C124.868 96.7096 124.823 96.474 124.862 96.4619C124.901 96.4498 125.016 96.6582 125.113 96.933C125.209 97.2079 125.254 97.4434 125.212 97.4585Z" fill="#FAFAFA"/>
<path d="M124.629 102.653C124.593 102.632 124.687 102.378 124.838 102.085C124.989 101.792 125.14 101.572 125.185 101.593C125.23 101.614 125.131 101.868 124.977 102.157C124.823 102.447 124.669 102.68 124.629 102.653Z" fill="#FAFAFA"/>
<path d="M121.298 105.7C121.259 105.715 121.135 105.507 121.02 105.232C120.906 104.957 120.848 104.721 120.891 104.703C120.933 104.685 121.054 104.897 121.165 105.171C121.277 105.446 121.338 105.7 121.298 105.7Z" fill="#FAFAFA"/>
<path d="M117.608 106.881C117.608 106.923 117.481 106.959 117.327 106.959C117.173 106.959 117.049 106.923 117.049 106.881C117.049 106.838 117.176 106.802 117.327 106.802C117.478 106.802 117.608 106.838 117.608 106.881Z" fill="#FAFAFA"/>
<path d="M119.722 111.74C119.683 111.74 119.598 111.574 119.535 111.344C119.471 111.115 119.459 110.916 119.501 110.907C119.544 110.898 119.625 111.073 119.689 111.302C119.752 111.532 119.764 111.716 119.722 111.74Z" fill="#FAFAFA"/>
<path d="M117.049 110.109C117.013 110.088 117.049 109.946 117.149 109.792C117.248 109.638 117.348 109.532 117.384 109.553C117.421 109.575 117.384 109.72 117.285 109.874C117.185 110.028 117.088 110.133 117.049 110.109Z" fill="#FAFAFA"/>
<path d="M116.995 115.458C116.952 115.458 116.892 115.255 116.862 114.993C116.832 114.73 116.841 114.515 116.883 114.509C116.925 114.503 116.986 114.712 117.016 114.974C117.046 115.237 117.037 115.452 116.995 115.458Z" fill="#FAFAFA"/>
</svg>
