<svg width="52" height="51" viewBox="0 0 52 51" fill="none" xmlns="http://www.w3.org/2000/svg">
<path d="M13.408 50.6592C10.3846 50.5217 8.74222 50.0186 7.64981 49.5925C6.20231 49.0289 5.17033 48.358 4.08396 47.2732C2.99758 46.1883 2.32521 45.1563 1.76465 43.7088C1.33856 42.6164 0.835412 40.974 0.697916 37.9506C0.546821 34.6824 0.516602 33.7018 0.516602 25.4218C0.516602 17.1417 0.549842 16.1627 0.696405 12.8914C0.833901 9.86803 1.34007 8.22864 1.76314 7.1332C2.32672 5.68571 2.9991 4.65373 4.08245 3.56585C5.16731 2.48098 6.19929 1.8071 7.64829 1.24654C8.74071 0.820447 10.3831 0.3173 13.4065 0.179803C16.6762 0.030219 17.6584 0 25.9353 0C34.2154 0 35.1945 0.0332409 38.4657 0.179803C41.4891 0.3173 43.1285 0.823469 44.2239 1.24654C45.6714 1.8071 46.7034 2.48098 47.7898 3.56585C48.8761 4.65071 49.5455 5.6842 50.1091 7.13169C50.5352 8.22411 51.0383 9.86652 51.1758 12.8899C51.3254 16.1611 51.3556 17.1402 51.3556 25.4203C51.3556 33.6973 51.3254 34.6794 51.1758 37.9506C51.0383 40.974 50.5321 42.6164 50.1091 43.7088C49.5455 45.1563 48.8746 46.1883 47.7898 47.2732C46.7049 48.358 45.6714 49.0289 44.2239 49.5925C43.1315 50.0186 41.4891 50.5217 38.4657 50.6592C35.1975 50.8088 34.2154 50.839 25.9353 50.839C17.6584 50.839 16.6762 50.8103 13.408 50.6592Z" fill="black"/>
<path d="M20.1682 25.2394C20.1682 22.153 22.6696 19.6502 25.756 19.6502C28.8425 19.6502 31.3452 22.153 31.3452 25.2394C31.3452 28.3259 28.8425 30.8286 25.756 30.8286C22.6696 30.8286 20.1682 28.3259 20.1682 25.2394ZM17.1467 25.2394C17.1467 29.9943 21.0011 33.8487 25.756 33.8487C30.5109 33.8487 34.3653 29.9943 34.3653 25.2394C34.3653 20.4845 30.5109 16.6301 25.756 16.6301C21.0011 16.6301 17.1469 20.4842 17.1469 25.2394M32.6943 16.2888C32.6942 16.6867 32.812 17.0757 33.0329 17.4067C33.2539 17.7376 33.568 17.9957 33.9356 18.1481C34.3032 18.3005 34.7077 18.3405 35.098 18.263C35.4883 18.1856 35.8469 17.9941 36.1284 17.7128C36.4099 17.4316 36.6016 17.0731 36.6794 16.6829C36.7572 16.2926 36.7175 15.8881 36.5654 15.5204C36.4132 15.1527 36.1555 14.8384 35.8247 14.6172C35.4939 14.3959 35.105 14.2778 34.7071 14.2776H34.7063C34.1729 14.2779 33.6614 14.4898 33.2842 14.8669C32.9069 15.244 32.6948 15.7554 32.6943 16.2888ZM18.9824 38.8869C17.3478 38.8125 16.4593 38.5402 15.8689 38.3101C15.0861 38.0054 14.5276 37.6424 13.9404 37.056C13.3531 36.4696 12.9896 35.9116 12.6862 35.1288C12.4561 34.5387 12.1838 33.6499 12.1095 32.0153C12.0282 30.248 12.012 29.7171 12.012 25.2397C12.012 20.7623 12.0295 20.2329 12.1095 18.4641C12.1839 16.8295 12.4582 15.9425 12.6862 15.3505C12.991 14.5678 13.3539 14.0092 13.9404 13.422C14.5268 12.8348 15.0848 12.4713 15.8689 12.1679C16.4591 11.9377 17.3478 11.6654 18.9824 11.5911C20.7497 11.5099 21.2806 11.4936 25.756 11.4936C30.2314 11.4936 30.7628 11.5109 32.5316 11.5914C34.1663 11.6658 35.0533 11.9401 35.6452 12.1682C36.428 12.4716 36.9865 12.8359 37.5737 13.4223C38.1609 14.0087 38.5231 14.568 38.8278 15.3508C39.058 15.941 39.3303 16.8297 39.4046 18.4644C39.4859 20.2331 39.5021 20.7626 39.5021 25.24C39.5021 29.7174 39.4859 30.2468 39.4046 32.0155C39.3301 33.6502 39.0565 34.5387 38.8278 35.1291C38.5231 35.9119 38.1601 36.4704 37.5737 37.0563C36.9873 37.6422 36.428 38.0057 35.6452 38.3104C35.055 38.5406 34.1663 38.8129 32.5316 38.8872C30.7643 38.9685 30.2334 38.9847 25.756 38.9847C21.2786 38.9847 20.7492 38.9685 18.9824 38.8872M18.8436 8.57468C17.0588 8.65596 15.8391 8.93898 14.774 9.35344C13.6716 9.78145 12.7371 10.3557 11.8039 11.2873C10.8708 12.219 10.2981 13.1536 9.87004 14.2574C9.45558 15.3232 9.17257 16.5422 9.09128 18.327C9.00866 20.1147 8.98975 20.6862 8.98975 25.2394C8.98975 29.7926 9.00866 30.3641 9.09128 32.1518C9.17257 33.9368 9.45558 35.1557 9.87004 36.2215C10.2981 37.3239 10.8709 38.2603 11.8039 39.1915C12.7369 40.1228 13.6702 40.6962 14.774 41.1254C15.8411 41.5399 17.0588 41.8229 18.8436 41.9042C20.6323 41.9854 21.2028 42.0057 25.756 42.0057C30.3092 42.0057 30.8807 41.9868 32.6684 41.9042C34.4534 41.8229 35.6723 41.5399 36.7381 41.1254C37.8405 40.6962 38.775 40.1232 39.7081 39.1915C40.6413 38.2598 41.2128 37.3239 41.642 36.2215C42.0565 35.1557 42.3408 33.9367 42.4208 32.1518C42.502 30.3628 42.521 29.7926 42.521 25.2394C42.521 20.6862 42.502 20.1147 42.4208 18.327C42.3395 16.542 42.0565 15.3225 41.642 14.2574C41.2128 13.155 40.6398 12.2205 39.7081 11.2873C38.7764 10.3542 37.8405 9.78145 36.7394 9.35344C35.6723 8.93898 34.4533 8.65462 32.6698 8.57468C30.8818 8.493 30.3106 8.47314 25.758 8.47314C21.2055 8.47314 20.6329 8.49206 18.8443 8.57468" fill="white"/>
</svg>
