<svg width="150" height="150" viewBox="0 0 150 150" fill="none" xmlns="http://www.w3.org/2000/svg">
<path d="M110.58 7.40976L101.805 11.8108C101.484 11.9474 101.21 12.1755 101.017 12.4668C100.825 12.7581 100.722 13.0996 100.722 13.4488V17.5528C100.714 21.2837 101.802 24.9348 103.851 28.0528C105.432 30.4528 107.529 33.5398 111.018 35.3008H112.59C116.475 34.1008 119.373 30.9598 121.143 28.2598C123.192 25.1416 124.28 21.4906 124.272 17.7598V13.4488C124.272 13.1 124.17 12.7589 123.978 12.4677C123.786 12.1766 123.513 11.9481 123.192 11.8108L113.196 7.55076C112.749 7.36176 111.024 7.22076 110.58 7.40976Z" fill="#E0E0E0"/>
<path d="M110.226 7.55079L100.23 11.8108C99.9088 11.9474 99.6347 12.1756 99.4421 12.4668C99.2495 12.7581 99.1469 13.0996 99.1471 13.4488V17.5528C99.1473 21.3549 100.275 25.0715 102.388 28.2324C104.502 31.3932 107.505 33.8562 111.018 35.3098C114.9 34.1098 117.798 30.9688 119.571 28.2688C121.62 25.1475 122.708 21.4935 122.7 17.7598V13.4488C122.7 13.0996 122.598 12.7581 122.405 12.4668C122.212 12.1756 121.938 11.9474 121.617 11.8108L111.621 7.55079C111.4 7.45797 111.163 7.41016 110.924 7.41016C110.684 7.41016 110.447 7.45797 110.226 7.55079Z" fill="#F5F5F5"/>
<path d="M122.667 16.647C122.681 16.709 122.687 16.7725 122.685 16.836C122.685 16.977 122.7 17.157 122.709 17.379C122.718 17.601 122.733 17.904 122.709 18.24C122.685 18.576 122.709 18.96 122.655 19.38C122.601 19.8 122.586 20.28 122.499 20.757C122.46 21.003 122.43 21.258 122.379 21.519C122.328 21.78 122.265 22.044 122.208 22.317C121.931 23.5014 121.545 24.6575 121.053 25.77C120.548 26.877 119.945 27.9372 119.253 28.938C118.92 29.388 118.611 29.838 118.281 30.195C118.119 30.384 117.981 30.576 117.816 30.744L117.36 31.227C117.075 31.527 116.784 31.791 116.541 32.025C116.298 32.259 116.076 32.442 115.893 32.589L115.5 32.931C115.453 32.9736 115.402 33.0109 115.347 33.042C115.387 32.9922 115.432 32.9469 115.482 32.907L115.887 32.544C116.064 32.391 116.28 32.199 116.514 31.944C116.748 31.689 117.036 31.455 117.312 31.137L117.759 30.648C117.912 30.48 118.059 30.288 118.215 30.099C118.539 29.724 118.839 29.289 119.166 28.839C119.845 27.8427 120.437 26.7898 120.936 25.692C121.422 24.5876 121.809 23.4421 122.091 22.269L122.268 21.477C122.322 21.219 122.355 20.964 122.397 20.721C122.487 20.235 122.523 19.776 122.568 19.356C122.613 18.936 122.619 18.558 122.643 18.222C122.667 17.886 122.664 17.601 122.664 17.364C122.664 17.127 122.664 16.962 122.664 16.821C122.659 16.763 122.66 16.7047 122.667 16.647Z" fill="#E0E0E0"/>
<path d="M110.178 25.5687L104.445 21.0117L106.035 19.0107L109.881 22.0677L115.497 15.7827L117.402 17.4867L110.178 25.5687Z" fill="white"/>
<path d="M137.262 29.8678H136.176V23.9608C136.176 23.2925 135.911 22.6515 135.438 22.1789C134.965 21.7063 134.324 21.4408 133.656 21.4408C132.988 21.4408 132.347 21.7063 131.874 22.1789C131.402 22.6515 131.136 23.2925 131.136 23.9608V29.8678H130.05V23.9608C130.05 23.0061 130.429 22.0904 131.104 21.4153C131.78 20.7401 132.695 20.3608 133.65 20.3608C134.605 20.3608 135.521 20.7401 136.196 21.4153C136.871 22.0904 137.25 23.0061 137.25 23.9608L137.262 29.8678Z" fill="#EBEBEB"/>
<path d="M137.589 25.8599H129.72C129.21 25.8599 128.796 26.2736 128.796 26.7839V32.5529C128.796 33.0632 129.21 33.4769 129.72 33.4769H137.589C138.099 33.4769 138.513 33.0632 138.513 32.5529V26.7839C138.513 26.2736 138.099 25.8599 137.589 25.8599Z" fill="#EBEBEB"/>
<path d="M134.4 29.8647C134.497 29.7666 134.573 29.6503 134.624 29.5227C134.676 29.395 134.702 29.2584 134.7 29.1207C134.702 28.9211 134.647 28.725 134.543 28.5547C134.439 28.3843 134.289 28.2465 134.111 28.1566C133.933 28.0668 133.733 28.0285 133.534 28.0462C133.335 28.0639 133.146 28.1368 132.986 28.2566C132.826 28.3765 132.703 28.5386 132.631 28.7247C132.559 28.9107 132.54 29.1133 132.576 29.3095C132.613 29.5057 132.704 29.6878 132.838 29.8352C132.973 29.9826 133.146 30.0895 133.338 30.1437L133.11 31.1577H134.127L133.923 30.1437C134.101 30.093 134.262 29.9968 134.391 29.8647" fill="#FAFAFA"/>
<path d="M13.929 116.082C12.7639 115.352 11.4472 114.9 10.08 114.759C9.45002 114.693 8.76302 114.711 8.25902 115.092C8.2005 115.125 8.15207 115.174 8.11881 115.232C8.08556 115.291 8.0687 115.357 8.07002 115.425C8.10075 115.52 8.16463 115.601 8.25002 115.653C9.06727 116.236 10.0286 116.584 11.0297 116.66C12.0307 116.735 13.0334 116.535 13.929 116.082Z" fill="#E0E0E0"/>
<path d="M13.83 115.974C12.9389 115.319 12.1067 114.587 11.343 113.787C10.5778 112.981 10.0405 111.986 9.78603 110.904C9.73536 110.744 9.72012 110.574 9.74135 110.407C9.76259 110.241 9.8198 110.08 9.90903 109.938C11.889 111.486 13.446 113.49 13.83 115.974Z" fill="#E0E0E0"/>
<path d="M13.908 116.067C13.7255 114.984 13.7417 113.877 13.956 112.8C14.1764 111.714 14.7962 110.75 15.693 110.1C16.035 110.901 15.888 111.825 15.648 112.659C15.275 113.955 14.6923 115.181 13.923 116.289" fill="#E0E0E0"/>
<path d="M15.852 119.55C14.686 119.738 13.6072 120.285 12.765 121.113C11.8792 121.918 11.2624 122.975 10.998 124.143C12.156 124.071 13.137 123.243 13.848 122.343C14.559 121.443 15.048 120.426 15.837 119.571" fill="#E0E0E0"/>
<path d="M16.2751 120.105C15.8107 118.926 15.6478 117.651 15.8013 116.393C15.9548 115.136 16.4198 113.937 17.1541 112.905C17.8261 115.305 17.5771 118.005 16.2751 120.105Z" fill="#E0E0E0"/>
<path d="M18.8401 123.162C17.7619 123.097 16.6883 123.349 15.7524 123.888C14.8165 124.427 14.0594 125.23 13.5751 126.195C13.5121 126.324 13.4521 126.495 13.5421 126.606C13.5872 126.65 13.6426 126.683 13.7033 126.701C13.764 126.718 13.8282 126.721 13.8901 126.708C14.9281 126.642 15.8461 126.018 16.6051 125.307C17.3641 124.596 18.0271 123.774 18.8641 123.159" fill="#E0E0E0"/>
<path d="M18.759 123C18.2063 121.22 18.172 119.32 18.66 117.522C18.855 116.817 19.179 116.076 19.83 115.746C19.8561 115.728 19.8856 115.716 19.9166 115.71C19.9476 115.705 19.9794 115.705 20.01 115.713C20.0627 115.741 20.1025 115.788 20.121 115.845C20.3411 116.337 20.4359 116.876 20.397 117.414C20.3586 117.95 20.2763 118.483 20.151 119.007C19.947 119.979 19.851 121.023 19.302 121.863C19.1767 122.065 19.0635 122.274 18.963 122.49C18.864 122.703 18.864 122.79 18.771 122.946" fill="#E0E0E0"/>
<path d="M25.554 124.008C25.3256 123.008 25.3181 121.97 25.5321 120.967C25.7461 119.964 26.1764 119.019 26.793 118.2C26.88 118.083 26.997 117.96 27.144 117.972C27.366 117.993 27.423 118.29 27.414 118.512C27.322 120.481 26.6774 122.384 25.554 124.005" fill="#E0E0E0"/>
<path d="M26.166 124.428C27.3548 124.708 28.5904 124.727 29.7873 124.484C30.9843 124.24 32.1142 123.74 33.099 123.018C31.939 122.434 30.6124 122.272 29.346 122.559C28.092 122.859 26.946 123.405 26.166 124.428Z" fill="#E0E0E0"/>
<path d="M26.682 123.153C27.987 121.029 30.486 119.643 32.982 119.514C32.682 120.528 31.863 121.314 30.924 121.791C29.9614 122.222 28.9438 122.519 27.9 122.673C27.498 122.751 26.946 122.838 26.7 123.153" fill="#E0E0E0"/>
<path d="M25.6831 116.964C26.0788 115.767 26.3482 114.532 26.4871 113.28C26.6265 112.019 26.3707 110.746 25.7551 109.638C24.5371 111.993 24.4141 114.738 25.6471 117.093" fill="#E0E0E0"/>
<path d="M29.781 114.9C31.206 112.314 34.11 110.247 37.047 109.956C35.913 112.779 32.823 114.96 29.781 114.9Z" fill="#E0E0E0"/>
<path d="M28.8871 115.401C31.0081 115.725 32.8171 117.081 34.8001 117.903C35.2165 118.102 35.6775 118.19 36.1381 118.158C36.352 118.155 36.56 118.087 36.734 117.962C36.908 117.838 37.0396 117.663 37.1112 117.461C37.1828 117.259 37.1909 117.041 37.1343 116.834C37.0778 116.628 36.9594 116.444 36.7951 116.307C36.5144 116.044 36.1839 115.84 35.8231 115.707C33.6631 114.807 31.3441 114.786 29.0701 115.332" fill="#E0E0E0"/>
<path d="M27.6571 116.889C28.1371 117.027 28.3021 117.276 28.6831 117.6C29.9846 118.706 31.525 119.494 33.1831 119.904C33.3541 119.946 33.5791 119.964 33.6661 119.811C33.7531 119.658 33.6451 119.511 33.5491 119.391C32.831 118.546 31.8982 117.911 30.8491 117.552C29.8141 117.165 28.9171 116.7 27.6811 116.802" fill="#E0E0E0"/>
<path d="M26.271 107.898C27.1417 108.7 28.1707 109.312 29.2918 109.693C30.413 110.075 31.6015 110.217 32.781 110.112C32.8906 110.115 32.9975 110.078 33.081 110.007C33.246 109.827 33.048 109.551 32.859 109.407C30.945 107.907 28.626 107.307 26.277 107.907" fill="#E0E0E0"/>
<path d="M27.915 107.295C29.0673 106.447 30.4037 105.884 31.8151 105.652C33.2264 105.419 34.6728 105.524 36.036 105.957C34.9731 106.941 33.61 107.539 32.166 107.655C30.7389 107.786 29.2998 107.664 27.915 107.295Z" fill="#E0E0E0"/>
<path d="M27.261 103.164C27.075 101.253 27.195 99.7468 27.063 97.8268C27.063 97.6738 27.021 97.4908 26.877 97.4338C26.676 97.3588 26.511 97.6018 26.445 97.8058C26.1665 98.6953 26.0951 99.6367 26.236 100.558C26.3769 101.479 26.7264 102.356 27.258 103.122" fill="#E0E0E0"/>
<path d="M27.123 103.374C28.376 102.57 29.456 101.525 30.3 100.299C30.924 99.4436 31.452 98.4206 31.311 97.3706C30.8709 97.3822 30.4387 97.4897 30.0444 97.6856C29.6501 97.8814 29.3032 98.1609 29.028 98.5046C28.4832 99.1962 28.0869 99.9928 27.864 100.845C27.612 101.685 27.435 102.549 27.135 103.374" fill="#E0E0E0"/>
<path d="M30.234 102.51C33.0869 101.457 35.7285 99.9026 38.034 97.9198C37.104 97.5448 36.039 97.7698 35.109 98.1448C32.9977 98.9444 31.2534 100.491 30.207 102.492" fill="#E0E0E0"/>
<path d="M27.999 104.421C29.4324 104.624 30.8868 104.631 32.322 104.442C33.723 104.208 35.049 103.65 36.357 103.101C36.4715 103.066 36.5696 102.992 36.633 102.891C36.6528 102.83 36.6539 102.764 36.6362 102.703C36.6186 102.642 36.583 102.587 36.534 102.546C36.4327 102.466 36.3148 102.411 36.189 102.384C34.764 101.988 33.228 102.174 31.827 102.645C30.4926 103.102 29.2097 103.697 27.999 104.421Z" fill="#E0E0E0"/>
<path d="M19.8001 107.964C18.8191 105.984 18.9001 103.674 19.7311 101.634C20.3311 102.534 20.4001 103.698 20.2921 104.781C20.1841 105.864 19.8541 106.974 19.8301 108.06" fill="#E0E0E0"/>
<path d="M15.8731 105.987C14.6455 105.97 13.4281 106.211 12.2988 106.692C11.1694 107.173 10.1532 107.886 9.31506 108.783C10.5549 108.931 11.8106 108.699 12.9151 108.117C14.0085 107.536 15.0399 106.846 15.9931 106.056" fill="#E0E0E0"/>
<path d="M13.239 105.105C12.039 105.009 10.89 104.862 9.73804 105.213C9.15681 105.376 8.61769 105.663 8.15744 106.054C7.6972 106.445 7.32664 106.931 7.07104 107.478C8.20091 107.568 9.33438 107.354 10.353 106.857C11.3657 106.36 12.3316 105.774 13.239 105.105Z" fill="#E0E0E0"/>
<path d="M17.139 105.147C16.062 104.442 14.955 103.722 13.701 103.428C12.447 103.134 11.001 103.353 10.119 104.298C11.133 104.898 12.366 104.964 13.545 104.964C14.724 104.964 16.164 104.949 17.274 105.342" fill="#E0E0E0"/>
<path d="M17.145 105.204C15.303 103.404 14.607 100.146 15.345 97.6738C16.7985 99.8998 17.4347 102.561 17.145 105.204Z" fill="#E0E0E0"/>
<path d="M22.2001 100.08C22.5481 99.2697 22.8001 98.4236 23.1001 97.6016C23.3841 96.7676 23.8205 95.9934 24.3871 95.3187C24.9611 94.6345 25.7811 94.2035 26.6701 94.1187C26.3861 95.3648 25.8457 96.5381 25.0834 97.5639C24.321 98.5896 23.3534 99.4454 22.2421 100.077" fill="#E0E0E0"/>
<path d="M21.3 101.148C20.727 100.356 20.061 99.2819 19.281 98.6909C18.501 98.0999 17.481 97.7429 16.536 97.9679C17.0288 98.8313 17.7159 99.5682 18.5427 100.12C19.3696 100.672 20.3136 101.024 21.3 101.148Z" fill="#E0E0E0"/>
<path d="M21.477 100.146C21.0686 99.2011 20.7668 98.214 20.577 97.2026C20.3885 96.1791 20.5513 95.122 21.039 94.2026C22.05 96.1136 22.377 98.1656 21.54 100.161" fill="#E0E0E0"/>
<path d="M22.2211 94.2C22.7941 92.307 24.5281 90.9 26.4031 90.27C26.6346 90.1749 26.8859 90.1378 27.1351 90.162C27.2596 90.1748 27.3775 90.2245 27.4737 90.3047C27.5698 90.3848 27.64 90.4918 27.6751 90.612C27.7441 90.933 27.4771 91.212 27.2251 91.437C25.7616 92.6876 24.0591 93.6276 22.2211 94.2Z" fill="#E0E0E0"/>
<path d="M22.242 92.661C22.314 91.437 22.389 90.198 22.788 89.04C23.187 87.882 23.952 86.799 25.065 86.292C25.254 87.525 24.711 88.752 24.054 89.814C23.397 90.876 22.605 91.878 22.212 93.063" fill="#E0E0E0"/>
<path d="M22.2001 93.5009C21.7261 92.1209 21.6781 90.3659 20.8501 89.1629C20.2711 88.3229 19.3501 87.7499 18.8491 86.8589C18.5482 87.7132 18.5901 88.6509 18.9661 89.4749C19.3422 90.2898 19.8602 91.0314 20.4961 91.6649C21.0961 92.3189 21.6301 92.8109 22.2001 93.5009Z" fill="#E0E0E0"/>
<path d="M22.221 134.166C22.185 134.166 22.152 124.956 22.149 113.595C22.146 102.234 22.176 93.021 22.212 93.021C22.248 93.021 22.281 102.228 22.284 113.595C22.287 124.962 22.257 134.166 22.221 134.166Z" fill="#E0E0E0"/>
<path d="M30.2701 106.572C30.16 106.628 30.0444 106.672 29.9251 106.704L28.9711 107.025C28.1671 107.298 27.0631 107.694 25.8661 108.186C24.6691 108.678 23.5591 109.107 22.9231 109.659C22.6654 109.87 22.46 110.138 22.3231 110.442C22.2301 110.658 22.2151 110.79 22.2031 110.79C22.1911 110.79 22.2031 110.754 22.2031 110.691C22.2183 110.6 22.2414 110.511 22.2721 110.424C22.3922 110.102 22.5901 109.816 22.8481 109.59C23.2329 109.264 23.6635 108.998 24.1261 108.798C24.6361 108.558 25.2031 108.309 25.8031 108.063C27.0031 107.571 28.1161 107.187 28.9291 106.935C29.3371 106.809 29.6671 106.716 29.8981 106.653C30.0193 106.614 30.1438 106.587 30.2701 106.572Z" fill="#E0E0E0"/>
<path d="M32.9101 100.092C32.8819 100.13 32.8486 100.164 32.8111 100.194L32.5111 100.473L31.4071 101.475L27.7351 104.745C26.3011 106.023 25.0621 107.241 24.2041 108.159C23.7721 108.618 23.4331 108.999 23.2021 109.263L22.9351 109.563C22.9072 109.601 22.8738 109.634 22.8361 109.662C22.8584 109.62 22.8856 109.581 22.9171 109.545C22.9711 109.47 23.0521 109.359 23.1631 109.224C23.3821 108.948 23.7121 108.558 24.1351 108.09C25.2432 106.878 26.4148 105.727 27.6451 104.64C29.0851 103.368 30.3931 102.222 31.3441 101.4C31.8121 100.998 32.1961 100.671 32.4751 100.428L32.7751 100.17C32.8163 100.138 32.8617 100.111 32.9101 100.092Z" fill="#E0E0E0"/>
<path d="M26.193 106.044C26.154 106.026 26.454 105.336 26.754 104.46C27.054 103.584 27.195 102.849 27.234 102.855C27.2029 103.419 27.0834 103.974 26.88 104.502C26.7512 104.875 26.6019 105.242 26.433 105.6C26.3727 105.757 26.292 105.907 26.193 106.044Z" fill="#E0E0E0"/>
<path d="M22.23 111.618C22.146 111.542 22.0714 111.456 22.008 111.363L21.441 110.637C20.967 110.022 20.31 109.173 19.572 108.237C18.834 107.301 18.159 106.476 17.667 105.873L17.1 105.165C17.0241 105.081 16.9568 104.989 16.899 104.892C16.9866 104.964 17.067 105.044 17.139 105.132C17.286 105.291 17.496 105.528 17.739 105.822C18.249 106.422 18.939 107.232 19.677 108.162C20.415 109.092 21.06 109.962 21.516 110.58C21.747 110.88 21.927 111.153 22.05 111.333C22.1196 111.421 22.1799 111.517 22.23 111.618Z" fill="#E0E0E0"/>
<path d="M20.463 109.353C20.1073 108.959 19.8539 108.485 19.725 107.97C19.5847 107.518 19.5278 107.044 19.557 106.572H19.617C19.6088 106.629 19.5895 106.684 19.56 106.734C19.56 106.734 19.56 106.671 19.56 106.563H19.62C19.6481 107.023 19.7265 107.479 19.854 107.922C20.0223 108.413 20.2258 108.891 20.463 109.353Z" fill="#E0E0E0"/>
<path d="M18.186 106.5C18.0264 106.38 17.8532 106.279 17.67 106.2C17.2056 106.06 16.7166 106.021 16.236 106.086C15.7493 106.121 15.2665 106.198 14.793 106.317C14.5962 106.377 14.3958 106.425 14.193 106.461C14.3682 106.353 14.5596 106.274 14.76 106.227C15.235 106.08 15.7251 105.987 16.221 105.951C16.7186 105.885 17.2248 105.939 17.697 106.11C17.9003 106.179 18.0731 106.317 18.186 106.5Z" fill="#E0E0E0"/>
<path d="M17.646 105.792C17.646 105.813 17.346 105.672 16.854 105.492C15.5719 105.056 14.1999 104.952 12.867 105.192C12.357 105.282 12.051 105.378 12.042 105.357C12.1065 105.316 12.1775 105.285 12.252 105.267C12.4482 105.198 12.6486 105.142 12.852 105.099C13.5224 104.952 14.2106 104.903 14.895 104.955C15.5782 105.008 16.2501 105.16 16.89 105.405C17.0832 105.479 17.2716 105.565 17.454 105.663C17.5242 105.696 17.589 105.739 17.646 105.792Z" fill="#E0E0E0"/>
<path d="M22.2001 102.855C21.9652 102.2 21.7728 101.531 21.6241 100.851C21.4303 100.182 21.28 99.502 21.1741 98.814C21.4092 99.4691 21.6026 100.138 21.7531 100.818C21.9451 101.487 22.0944 102.167 22.2001 102.855Z" fill="#E0E0E0"/>
<path d="M22.248 102.855C22.0636 102.44 21.85 102.039 21.609 101.655C21.3388 101.291 21.0221 100.964 20.667 100.683C20.8009 100.717 20.9251 100.782 21.03 100.872C21.2974 101.066 21.5297 101.304 21.717 101.577C22.0036 101.948 22.1868 102.389 22.248 102.855Z" fill="#E0E0E0"/>
<path d="M22.221 129.255C22.221 129.255 22.179 129.033 22.074 128.655C21.9269 128.104 21.7259 127.57 21.474 127.059C20.587 125.393 19.4901 123.847 18.21 122.46C17.481 121.626 16.773 120.84 16.173 120.087C15.6329 119.426 15.1454 118.724 14.715 117.987C14.4255 117.489 14.1796 116.967 13.98 116.427C13.911 116.235 13.863 116.085 13.836 115.983C13.8184 115.931 13.8054 115.878 13.797 115.824C13.797 115.824 13.875 116.034 14.028 116.409C14.246 116.937 14.5027 117.448 14.796 117.939C15.2356 118.664 15.7269 119.357 16.266 120.012C16.866 120.756 17.58 121.536 18.309 122.37C19.5984 123.765 20.6924 125.33 21.561 127.02C21.8117 127.538 22.0059 128.083 22.14 128.643C22.1755 128.795 22.2026 128.949 22.221 129.105C22.2256 129.155 22.2256 129.205 22.221 129.255Z" fill="#E0E0E0"/>
<path d="M29.496 121.041C29.3728 121.118 29.2456 121.189 29.115 121.254C28.7693 121.447 28.4384 121.666 28.125 121.908C27.6607 122.267 27.2263 122.663 26.826 123.093C26.37 123.573 25.902 124.131 25.422 124.731C24.465 125.931 23.568 126.999 23.022 127.848C22.749 128.268 22.551 128.622 22.422 128.871C22.3604 129.003 22.2902 129.132 22.212 129.255C22.212 129.255 22.212 129.216 22.248 129.147C22.284 129.078 22.314 128.976 22.374 128.847C22.5443 128.486 22.7367 128.137 22.95 127.8C23.6787 126.706 24.469 125.654 25.317 124.65C25.797 124.05 26.274 123.492 26.739 123.009C27.1482 122.581 27.5928 122.189 28.068 121.836C28.3922 121.593 28.7376 121.38 29.1 121.2C29.1973 121.15 29.2975 121.106 29.4 121.068C29.462 121.044 29.494 121.035 29.496 121.041Z" fill="#E0E0E0"/>
<path d="M29.6371 123.705C29.3712 123.763 29.1015 123.802 28.8301 123.822C28.1827 123.888 27.5429 124.014 26.9191 124.2C26.302 124.4 25.7237 124.704 25.2091 125.1C24.8161 125.4 24.6301 125.655 24.6091 125.643C24.5881 125.631 24.6391 125.568 24.7261 125.457C24.8514 125.3 24.9921 125.156 25.1461 125.028C25.6565 124.601 26.2442 124.277 26.8771 124.074C27.5087 123.885 28.1601 123.77 28.8181 123.732C29.0897 123.697 29.3638 123.688 29.6371 123.705Z" fill="#E0E0E0"/>
<path d="M24.846 125.346C24.804 125.322 25.167 124.767 25.446 124.02C25.725 123.273 25.773 122.607 25.818 122.616C25.8436 122.759 25.8436 122.905 25.818 123.048C25.7771 123.395 25.6986 123.737 25.584 124.068C25.4606 124.394 25.3038 124.707 25.116 125.001C25.0462 125.13 24.9549 125.247 24.846 125.346Z" fill="#E0E0E0"/>
<path d="M31.851 113.883C31.8119 113.912 31.7684 113.936 31.722 113.952L31.344 114.123C31.176 114.195 30.975 114.285 30.744 114.405C30.513 114.525 30.249 114.645 29.973 114.81L29.535 115.059C29.382 115.149 29.235 115.251 29.07 115.359C28.746 115.554 28.422 115.797 28.074 116.043C27.3387 116.601 26.6449 117.211 25.998 117.87C25.3632 118.536 24.7786 119.248 24.249 120C24.012 120.357 23.781 120.69 23.595 121.02C23.502 121.182 23.403 121.338 23.319 121.494L23.1 121.944C22.944 122.226 22.833 122.496 22.722 122.727C22.611 122.958 22.527 123.162 22.461 123.327C22.395 123.492 22.344 123.609 22.302 123.711C22.2855 123.757 22.2644 123.801 22.239 123.843C22.2447 123.794 22.2579 123.747 22.278 123.702L22.413 123.309C22.473 123.138 22.548 122.928 22.653 122.694C22.758 122.46 22.863 122.184 23.016 121.899C23.088 121.752 23.166 121.599 23.244 121.443C23.322 121.287 23.421 121.143 23.517 120.963C23.7 120.627 23.928 120.291 24.162 119.931C25.215 118.391 26.5204 117.04 28.023 115.935C28.374 115.689 28.704 115.449 29.031 115.257C29.196 115.158 29.349 115.053 29.502 114.957L29.949 114.711C30.231 114.552 30.501 114.435 30.732 114.324C30.9273 114.226 31.1276 114.139 31.332 114.063L31.722 113.913C31.7639 113.899 31.8071 113.889 31.851 113.883Z" fill="#E0E0E0"/>
<path d="M26.1001 117.741C26.1476 117.556 26.2527 117.391 26.4001 117.27C26.755 116.961 27.2077 116.788 27.6781 116.781C28.1379 116.779 28.5936 116.867 29.0191 117.042C29.1988 117.1 29.3694 117.183 29.5261 117.288C29.3425 117.253 29.1626 117.201 28.9891 117.132C28.5684 116.986 28.1263 116.912 27.6811 116.913C27.2397 116.922 26.813 117.073 26.4631 117.342C26.3317 117.465 26.2103 117.598 26.1001 117.741Z" fill="#E0E0E0"/>
<path d="M25.233 118.629C25.4038 118.253 25.5258 117.857 25.596 117.45C25.6203 117.038 25.5931 116.625 25.515 116.22C25.5922 116.321 25.6437 116.439 25.665 116.565C25.8202 117.158 25.7463 117.788 25.458 118.329C25.344 118.533 25.245 118.638 25.233 118.629Z" fill="#E0E0E0"/>
<path d="M15.858 130.575C16.056 134.097 17.118 137.676 18.75 141.297H25.845C27.402 137.712 28.389 134.139 28.563 130.575H15.858Z" fill="#E0E0E0"/>
<path d="M27.4141 136.272C27.4141 136.308 25.0771 136.338 22.1971 136.338C19.3171 136.338 16.9801 136.308 16.9801 136.272C16.9801 136.236 19.3141 136.2 22.2001 136.2C25.0861 136.2 27.4141 136.236 27.4141 136.272Z" fill="#FAFAFA"/>
<path d="M27.255 137.547C27.255 137.583 25.065 137.613 22.365 137.613C19.665 137.613 17.472 137.583 17.472 137.547C17.472 137.511 19.662 137.481 22.365 137.481C25.068 137.481 27.255 137.511 27.255 137.547Z" fill="#FAFAFA"/>
<path d="M18.8641 132.9C18.9521 133.987 18.9521 135.08 18.8641 136.167C18.7761 135.08 18.7761 133.987 18.8641 132.9Z" fill="#FAFAFA"/>
<path d="M22.665 132.9C22.753 134.026 22.753 135.158 22.665 136.284C22.577 135.158 22.577 134.026 22.665 132.9Z" fill="#FAFAFA"/>
<path d="M26.2351 132.858C26.3231 134.007 26.3231 135.162 26.2351 136.311C26.1471 135.162 26.1471 134.007 26.2351 132.858Z" fill="#FAFAFA"/>
<path d="M28.338 132.9C28.338 132.936 25.599 132.966 22.221 132.966C18.843 132.966 16.098 132.936 16.098 132.9C16.098 132.864 18.84 132.834 22.221 132.834C25.602 132.834 28.338 132.849 28.338 132.9Z" fill="#FAFAFA"/>
<path d="M138.417 100.059C139.066 99.7718 139.617 99.3009 140.002 98.7043C140.386 98.1076 140.587 97.4113 140.58 96.7016C140.58 94.6976 139.08 93.0656 137.193 93.0596C135.306 93.0536 133.782 94.6676 133.776 96.6596C133.762 97.3749 133.961 98.0782 134.346 98.681C134.732 99.2837 135.287 99.7589 135.942 100.047C130.707 100.836 130.944 106.524 130.944 106.524L143.325 106.581C143.325 106.581 143.607 100.842 138.417 100.059Z" fill="#EBEBEB"/>
<path d="M82.7611 17.3427C83.2171 17.2532 83.6373 17.0331 83.9707 16.7094C84.3041 16.3856 84.5363 15.9719 84.6391 15.5187C84.7245 15.2279 84.7497 14.9227 84.7132 14.6218C84.6768 14.3209 84.5794 14.0306 84.4271 13.7685C84.2748 13.5065 84.0707 13.2782 83.8272 13.0976C83.5838 12.917 83.3061 12.7879 83.0112 12.7181C82.7162 12.6484 82.4101 12.6394 82.1116 12.6918C81.813 12.7442 81.5283 12.8569 81.2747 13.0229C81.0211 13.189 80.804 13.4049 80.6366 13.6576C80.4692 13.9103 80.3551 14.1945 80.3011 14.4927C80.1857 14.9476 80.2079 15.4265 80.3649 15.8687C80.5219 16.3109 80.8067 16.6965 81.1831 16.9767C77.7241 16.7037 77.0371 20.3697 77.0371 20.3697L84.9271 22.2387C84.9271 22.2387 85.9591 18.5997 82.7611 17.3427Z" fill="#EBEBEB"/>
<path d="M138.756 47.8826C139.134 47.6459 139.435 47.3035 139.621 46.8977C139.806 46.4919 139.869 46.0405 139.8 45.5996C139.777 45.3077 139.695 45.0235 139.559 44.7646C139.422 44.5056 139.234 44.2775 139.005 44.0942C138.777 43.9109 138.514 43.7764 138.231 43.6989C137.949 43.6214 137.654 43.6027 137.364 43.6438C137.074 43.6848 136.796 43.7849 136.546 43.9378C136.296 44.0907 136.08 44.2932 135.912 44.5327C135.744 44.7722 135.626 45.0437 135.567 45.3304C135.508 45.6171 135.508 45.9129 135.567 46.1996C135.622 46.646 135.809 47.066 136.103 47.4062C136.398 47.7464 136.786 47.9916 137.22 48.1106C134.037 49.0736 134.694 52.5896 134.694 52.5896L142.398 51.5126C142.398 51.5126 142.053 47.9036 138.756 47.8826Z" fill="#F5F5F5"/>
<path d="M15.144 48.9716L10.983 45.6626L12.135 44.2106L14.928 46.4276L19.002 41.8706L20.385 43.1066L15.144 48.9716Z" fill="#F5F5F5"/>
<path d="M141.198 141.402C141.198 141.447 111.153 141.48 74.103 141.48C37.0529 141.48 7.00195 141.447 7.00195 141.402C7.00195 141.357 37.038 141.324 74.103 141.324C111.168 141.324 141.198 141.36 141.198 141.402Z" fill="#263238"/>
<path d="M20.8201 53.763L11.6191 58.38C11.2853 58.5254 11.0014 58.7654 10.8025 59.0704C10.6037 59.3754 10.4985 59.732 10.5001 60.096V64.401C10.4895 68.317 11.6297 72.1497 13.7791 75.423C15.4381 77.949 17.6371 81.177 21.2941 83.022H22.9441C27.0181 81.78 30.0571 78.471 31.9141 75.639C34.0643 72.3659 35.2056 68.5332 35.1961 64.617V60.096C35.1956 59.7304 35.0879 59.373 34.8864 59.068C34.6848 58.763 34.3982 58.5238 34.0621 58.38L23.5651 53.913C23.1001 53.715 21.3001 53.565 20.8201 53.763Z" fill="#6556D0"/>
<path opacity="0.3" d="M20.8201 53.763L11.6191 58.38C11.2853 58.5254 11.0014 58.7654 10.8025 59.0704C10.6037 59.3754 10.4985 59.732 10.5001 60.096V64.401C10.4895 68.317 11.6297 72.1497 13.7791 75.423C15.4381 77.949 17.6371 81.177 21.2941 83.022H22.9441C27.0181 81.78 30.0571 78.471 31.9141 75.639C34.0643 72.3659 35.2056 68.5332 35.1961 64.617V60.096C35.1956 59.7304 35.0879 59.373 34.8864 59.068C34.6848 58.763 34.3982 58.5238 34.0621 58.38L23.5651 53.913C23.1001 53.715 21.3001 53.565 20.8201 53.763Z" fill="black"/>
<path d="M20.451 53.913L9.96603 58.38C9.6299 58.5237 9.34331 58.7629 9.14175 59.0679C8.94018 59.373 8.8325 59.7304 8.83203 60.096V64.401C8.83227 68.3879 10.015 72.2852 12.2306 75.5998C14.4462 78.9144 17.5951 81.4973 21.279 83.022C25.35 81.78 28.389 78.471 30.249 75.639C32.3993 72.3659 33.5405 68.5332 33.531 64.617V60.096C33.5308 59.7307 33.4236 59.3735 33.2226 59.0686C33.0216 58.7636 32.7356 58.5242 32.4 58.38L21.9 53.913C21.6706 53.8167 21.4243 53.7671 21.1755 53.7671C20.9267 53.7671 20.6804 53.8167 20.451 53.913Z" fill="#6556D0"/>
<path opacity="0.3" d="M23.6695 73.4392C27.2085 72.0665 28.9646 68.0848 27.5919 64.5459C26.2193 61.0069 22.2376 59.2508 18.6986 60.6234C15.1597 61.9961 13.4035 65.9778 14.7762 69.5167C16.1489 73.0557 20.1306 74.8118 23.6695 73.4392Z" fill="black"/>
<path d="M21.18 67.413C22.7557 67.413 24.033 66.1357 24.033 64.56C24.033 62.9844 22.7557 61.707 21.18 61.707C19.6044 61.707 18.327 62.9844 18.327 64.56C18.327 66.1357 19.6044 67.413 21.18 67.413Z" fill="white"/>
<path d="M15.972 71.5113C16.4309 70.5513 17.155 69.7429 18.0588 69.1815C18.9625 68.6201 20.0082 68.3292 21.072 68.3433C22.1629 68.3434 23.2336 68.6378 24.1713 69.1953C25.1089 69.7528 25.8789 70.5529 26.4 71.5113C26.4 71.5113 24.717 74.0013 21 73.9113C20.0367 73.9074 19.0862 73.6901 18.2169 73.2752C17.3475 72.8602 16.5809 72.2578 15.972 71.5113Z" fill="white"/>
<path d="M28.0531 67.0318C28.0496 66.9949 28.0496 66.9578 28.0531 66.9208C28.0531 66.8398 28.0531 66.7318 28.0261 66.5968C28.0261 66.5248 28.0261 66.4438 28.0261 66.3568C28.0261 66.2698 27.9961 66.1738 27.9811 66.0568C27.9498 65.8187 27.9017 65.5831 27.8371 65.3518C27.674 64.7112 27.4161 64.0984 27.0721 63.5338C26.6208 62.7846 26.0302 62.1288 25.3321 61.6018C24.4887 60.9605 23.5062 60.5268 22.4641 60.3358C21.2676 60.1156 20.034 60.2192 18.8911 60.6358C18.5818 60.7432 18.2809 60.8736 17.9911 61.0258C17.7012 61.1847 17.4226 61.3631 17.1571 61.5598C16.887 61.763 16.6295 61.9824 16.3861 62.2168C16.1474 62.4643 15.925 62.7268 15.7201 63.0028C15.3001 63.5717 14.973 64.2035 14.7511 64.8748C14.283 66.2665 14.283 67.7731 14.7511 69.1648C14.9717 69.8367 15.2989 70.4688 15.7201 71.0368C15.9249 71.3138 16.1474 71.5774 16.3861 71.8258C16.6288 72.0601 16.8863 72.2786 17.1571 72.4798C17.6779 72.8771 18.258 73.1899 18.8761 73.4068C20.019 73.8235 21.2526 73.9271 22.4491 73.7068C23.3993 73.5279 24.301 73.1503 25.0951 72.5987C25.8892 72.047 26.5578 71.3339 27.0571 70.5058C27.3973 69.9451 27.6511 69.3362 27.8101 68.6998C27.8744 68.4675 27.9225 68.2309 27.9541 67.9918C27.9541 67.8898 27.9901 67.7938 27.9991 67.6918C28.0081 67.5898 27.9991 67.5238 27.9991 67.4518L28.0261 67.1248C28.023 67.0879 28.023 67.0508 28.0261 67.0138C28.0293 67.0508 28.0293 67.0879 28.0261 67.1248C28.0261 67.2088 28.0261 67.3168 28.0261 67.4548C28.0261 67.5268 28.0261 67.6078 28.0261 67.6948C28.0261 67.7818 28.0021 67.8808 27.9871 67.9948C27.9631 68.2371 27.9189 68.4769 27.8551 68.7118C27.7029 69.3617 27.4509 69.9841 27.1081 70.5568C26.2928 71.9486 25.0157 73.0109 23.4987 73.5589C21.9817 74.107 20.3206 74.1062 18.8041 73.5568C18.4953 73.4458 18.1945 73.3135 17.9041 73.1608C17.6088 72.9947 17.326 72.8072 17.0581 72.5998C16.779 72.3953 16.5144 72.1718 16.2661 71.9308C16.0273 71.6815 15.8048 71.4169 15.6001 71.1388C15.1682 70.558 14.832 69.9118 14.6041 69.2248C14.3762 68.5158 14.2559 67.7766 14.2471 67.0318C14.2554 66.2868 14.3768 65.5474 14.6071 64.8388C14.8327 64.1515 15.168 63.5051 15.6001 62.9248C15.811 62.6428 16.0394 62.3742 16.2841 62.1208C16.5315 61.8801 16.7951 61.6566 17.0731 61.4518C17.3391 61.2489 17.6187 61.0644 17.9101 60.8998C18.2005 60.7462 18.5012 60.6129 18.8101 60.5008C19.9767 60.0781 21.235 59.9746 22.4551 60.2008C23.4228 60.3869 24.3397 60.7776 25.1442 61.3467C25.9487 61.9158 26.6224 62.6503 27.1201 63.5008C27.4629 64.0746 27.7149 64.698 27.8671 65.3488C27.9309 65.5827 27.9751 65.8216 27.9991 66.0628C27.9991 66.1678 28.0321 66.2638 28.0381 66.3628V66.6058C28.0381 66.7438 28.0381 66.8518 28.0381 66.9328C28.0458 66.9654 28.0508 66.9985 28.0531 67.0318Z" fill="#263238"/>
<path d="M33.495 63.4502C33.509 63.5163 33.516 63.5836 33.516 63.6512C33.516 63.7952 33.516 63.9842 33.54 64.2212C33.564 64.4582 33.564 64.7702 33.54 65.1212C33.54 65.2982 33.54 65.4842 33.54 65.6852C33.54 65.8862 33.54 66.0962 33.501 66.3152C33.459 66.7562 33.429 67.2422 33.336 67.7582C33.297 68.0162 33.264 68.2832 33.21 68.5562C33.156 68.8292 33.09 69.1082 33.03 69.3962C32.7415 70.6364 32.3398 71.8474 31.83 73.0142C31.3031 74.175 30.6736 75.2864 29.949 76.3352C29.601 76.8062 29.28 77.2622 28.932 77.6552C28.764 77.8532 28.608 78.0542 28.443 78.2312L27.966 78.7352C27.666 79.0682 27.366 79.3352 27.108 79.5722C26.8921 79.7845 26.6648 79.9848 26.427 80.1722L25.983 80.5322C25.9343 80.5759 25.881 80.6141 25.824 80.6462C25.8666 80.596 25.9138 80.5498 25.965 80.5082L26.388 80.1272C26.577 79.9652 26.802 79.7642 27.048 79.5272C27.294 79.2902 27.594 79.0112 27.885 78.6782L28.353 78.1682C28.515 77.9912 28.653 77.7902 28.833 77.5922C29.172 77.1992 29.487 76.7432 29.832 76.2692C30.5441 75.2248 31.1644 74.1206 31.686 72.9692C32.1929 71.8075 32.5946 70.6027 32.886 69.3692L33.072 68.5352C33.126 68.2652 33.162 67.9982 33.207 67.7432C33.303 67.2332 33.339 66.7502 33.387 66.3122C33.414 66.0932 33.432 65.8832 33.438 65.6852L33.465 65.1242C33.492 64.7732 33.486 64.4702 33.486 64.2242C33.486 63.9782 33.486 63.8012 33.486 63.6542C33.4838 63.5861 33.4869 63.5179 33.495 63.4502Z" fill="#263238"/>
<path d="M106.443 141.402H35.505C35.0403 141.394 34.5816 141.295 34.1553 141.11C33.7289 140.924 33.3433 140.657 33.0203 140.323C32.6974 139.988 32.4436 139.594 32.2733 139.161C32.103 138.728 32.0197 138.267 32.028 137.802V29.3759C32.0197 28.9111 32.103 28.4493 32.2733 28.0168C32.4436 27.5842 32.6974 27.1895 33.0203 26.8552C33.3433 26.5208 33.7289 26.2534 34.1553 26.0682C34.5816 25.883 35.0403 25.7837 35.505 25.7759H106.443C106.908 25.7837 107.366 25.8831 107.792 26.0683C108.219 26.2535 108.604 26.521 108.927 26.8554C109.249 27.1897 109.503 27.5845 109.673 28.017C109.843 28.4495 109.926 28.9113 109.917 29.3759V137.808C109.925 138.272 109.841 138.733 109.671 139.165C109.501 139.597 109.247 139.991 108.925 140.325C108.602 140.658 108.217 140.925 107.791 141.11C107.365 141.295 106.907 141.394 106.443 141.402Z" fill="#263238"/>
<path d="M72.333 136.143C72.3443 136.798 72.1605 137.442 71.8048 137.992C71.4491 138.542 70.9378 138.974 70.3359 139.232C69.734 139.491 69.0687 139.564 68.4249 139.443C67.781 139.323 67.1877 139.013 66.7205 138.554C66.2533 138.095 65.9333 137.507 65.8012 136.865C65.6692 136.223 65.7311 135.557 65.9792 134.951C66.2272 134.344 66.65 133.826 67.1939 133.46C67.7377 133.095 68.3779 132.9 69.033 132.9C69.9006 132.893 70.7355 133.23 71.3543 133.838C71.9731 134.447 72.3251 135.275 72.333 136.143Z" fill="#455A64"/>
<path d="M78.954 31.8897H63.054C62.9059 31.8874 62.7596 31.8559 62.6237 31.797C62.4877 31.7381 62.3647 31.6531 62.2616 31.5467C62.1585 31.4402 62.0774 31.3146 62.0229 31.1768C61.9684 31.039 61.9416 30.8919 61.944 30.7437C61.9392 30.4443 62.0533 30.1551 62.2614 29.9397C62.4695 29.7243 62.7545 29.6002 63.054 29.5947H78.954C79.2534 29.6002 79.5385 29.7243 79.7466 29.9397C79.9547 30.1551 80.0688 30.4443 80.064 30.7437C80.0664 30.8919 80.0396 31.039 79.9851 31.1768C79.9306 31.3146 79.8495 31.4402 79.7464 31.5467C79.6433 31.6531 79.5203 31.7381 79.3843 31.797C79.2484 31.8559 79.1021 31.8874 78.954 31.8897Z" fill="#455A64"/>
<path d="M107.397 34.0288H34.4191V130.587H107.397V34.0288Z" fill="white"/>
<path d="M107.397 34.0288H104.283V130.587H107.397V34.0288Z" fill="#F5F5F5"/>
<path d="M105.837 68.7209C105.58 68.7201 105.333 68.6174 105.152 68.4352C104.97 68.253 104.868 68.0062 104.868 67.7489V46.3919C104.868 46.1347 104.97 45.8879 105.152 45.7057C105.333 45.5235 105.58 45.4207 105.837 45.4199C106.095 45.4199 106.342 45.5223 106.524 45.7046C106.707 45.8869 106.809 46.1341 106.809 46.3919V67.7489C106.809 68.0067 106.707 68.2539 106.524 68.4362C106.342 68.6185 106.095 68.7209 105.837 68.7209Z" fill="#E0E0E0"/>
<path d="M97.8781 56.0037H44.0701C43.6595 56.0037 43.2658 55.8406 42.9755 55.5503C42.6852 55.26 42.5221 54.8663 42.5221 54.4557C42.5221 54.0452 42.6852 53.6514 42.9755 53.3611C43.2658 53.0708 43.6595 52.9077 44.0701 52.9077H97.8781C98.2887 52.9077 98.6824 53.0708 98.9727 53.3611C99.263 53.6514 99.4261 54.0452 99.4261 54.4557C99.4261 54.8663 99.263 55.26 98.9727 55.5503C98.6824 55.8406 98.2887 56.0037 97.8781 56.0037Z" fill="#E0E0E0"/>
<path d="M89.601 44.7H55.752C55.3414 44.7 54.9477 44.5369 54.6574 44.2466C54.3671 43.9563 54.204 43.5626 54.204 43.152C54.204 42.7414 54.3671 42.3477 54.6574 42.0574C54.9477 41.7671 55.3414 41.604 55.752 41.604H89.601C90.0115 41.604 90.4053 41.7671 90.6956 42.0574C90.9859 42.3477 91.149 42.7414 91.149 43.152C91.149 43.5626 90.9859 43.9563 90.6956 44.2466C90.4053 44.5369 90.0115 44.7 89.601 44.7Z" fill="#6556D0"/>
<path d="M90.2371 62.2347H51.7111C51.3005 62.2347 50.9068 62.0716 50.6165 61.7813C50.3262 61.491 50.1631 61.0972 50.1631 60.6867C50.1631 60.2761 50.3262 59.8824 50.6165 59.5921C50.9068 59.3018 51.3005 59.1387 51.7111 59.1387H90.2371C90.4404 59.1387 90.6417 59.1787 90.8295 59.2565C91.0173 59.3343 91.1879 59.4483 91.3317 59.5921C91.4754 59.7358 91.5895 59.9065 91.6673 60.0943C91.745 60.2821 91.7851 60.4834 91.7851 60.6867C91.7851 60.89 91.745 61.0913 91.6673 61.2791C91.5895 61.4669 91.4754 61.6375 91.3317 61.7813C91.1879 61.925 91.0173 62.039 90.8295 62.1168C90.6417 62.1946 90.4404 62.2347 90.2371 62.2347Z" fill="#E0E0E0"/>
<path d="M72.843 89.3997H43.2C42.7894 89.3997 42.3957 89.2366 42.1054 88.9463C41.8151 88.656 41.652 88.2623 41.652 87.8517C41.652 87.6484 41.692 87.4471 41.7698 87.2593C41.8476 87.0715 41.9616 86.9009 42.1054 86.7571C42.2491 86.6134 42.4198 86.4993 42.6076 86.4215C42.7954 86.3438 42.9967 86.3037 43.2 86.3037H72.843C73.0463 86.3037 73.2476 86.3438 73.4354 86.4215C73.6232 86.4993 73.7938 86.6134 73.9376 86.7571C74.0813 86.9009 74.1954 87.0715 74.2731 87.2593C74.3509 87.4471 74.391 87.6484 74.391 87.8517C74.391 88.2623 74.2279 88.656 73.9376 88.9463C73.6473 89.2366 73.2535 89.3997 72.843 89.3997Z" fill="#E0E0E0"/>
<path d="M97.008 82.9109H43.2C42.7894 82.9109 42.3957 82.7478 42.1054 82.4575C41.8151 82.1672 41.652 81.7734 41.652 81.3629C41.652 81.1597 41.692 80.9586 41.7699 80.7709C41.8477 80.5833 41.9618 80.4128 42.1056 80.2693C42.2493 80.1258 42.42 80.0121 42.6078 79.9346C42.7956 79.8572 42.9968 79.8175 43.2 79.8179H97.008C97.2111 79.8175 97.4124 79.8572 97.6001 79.9346C97.7879 80.0121 97.9586 80.1258 98.1024 80.2693C98.2462 80.4128 98.3603 80.5833 98.4381 80.7709C98.5159 80.9586 98.556 81.1597 98.556 81.3629C98.556 81.5662 98.5159 81.7675 98.4381 81.9553C98.3604 82.1431 98.2463 82.3137 98.1026 82.4575C97.9588 82.6012 97.7882 82.7152 97.6004 82.793C97.4126 82.8708 97.2113 82.9109 97.008 82.9109Z" fill="#E0E0E0"/>
<path d="M97.008 100.695H49.911C49.0561 100.695 48.363 101.388 48.363 102.243C48.363 103.098 49.0561 103.791 49.911 103.791H97.008C97.863 103.791 98.556 103.098 98.556 102.243C98.556 101.388 97.863 100.695 97.008 100.695Z" fill="#E0E0E0"/>
<path d="M97.008 110.4H43.2C42.7894 110.4 42.3957 110.237 42.1054 109.947C41.8151 109.656 41.652 109.263 41.652 108.852C41.6536 108.443 41.8174 108.05 42.1075 107.761C42.3976 107.472 42.7905 107.31 43.2 107.31H97.008C97.2113 107.31 97.4126 107.35 97.6004 107.428C97.7882 107.506 97.9588 107.62 98.1026 107.763C98.2463 107.907 98.3604 108.078 98.4381 108.266C98.5159 108.453 98.556 108.655 98.556 108.858C98.5544 109.268 98.3906 109.66 98.1005 109.949C97.8103 110.238 97.4175 110.4 97.008 110.4Z" fill="#E0E0E0"/>
<path d="M97.008 117.126H43.2C42.7894 117.126 42.3957 116.963 42.1054 116.672C41.8151 116.382 41.652 115.988 41.652 115.578C41.652 115.167 41.8151 114.773 42.1054 114.483C42.3957 114.193 42.7894 114.03 43.2 114.03H97.008C97.2113 114.03 97.4126 114.07 97.6004 114.148C97.7882 114.225 97.9588 114.339 98.1026 114.483C98.2463 114.627 98.3604 114.798 98.4381 114.985C98.5159 115.173 98.556 115.374 98.556 115.578C98.556 115.988 98.3929 116.382 98.1026 116.672C97.8123 116.963 97.4185 117.126 97.008 117.126Z" fill="#E0E0E0"/>
<path d="M45.621 102.243C45.621 102.561 45.5266 102.872 45.3498 103.136C45.173 103.401 44.9217 103.607 44.6277 103.729C44.3337 103.85 44.0102 103.882 43.6982 103.82C43.3862 103.757 43.0997 103.604 42.8749 103.379C42.6502 103.154 42.4973 102.867 42.4356 102.555C42.3739 102.243 42.4061 101.919 42.5283 101.625C42.6505 101.332 42.857 101.081 43.1219 100.904C43.3867 100.728 43.6979 100.634 44.016 100.635C44.442 100.636 44.8502 100.805 45.1511 101.107C45.452 101.408 45.621 101.817 45.621 102.243Z" fill="#6556D0"/>
<path d="M97.008 76.866H49.908C49.4974 76.866 49.1037 76.7029 48.8134 76.4126C48.5231 76.1223 48.36 75.7286 48.36 75.318C48.36 74.9075 48.5231 74.5137 48.8134 74.2234C49.1037 73.9331 49.4974 73.77 49.908 73.77H97.008C97.2113 73.77 97.4126 73.8101 97.6004 73.8879C97.7882 73.9657 97.9588 74.0797 98.1026 74.2234C98.2463 74.3672 98.3604 74.5378 98.4382 74.7256C98.5159 74.9134 98.556 75.1147 98.556 75.318C98.556 75.5213 98.5159 75.7226 98.4382 75.9104C98.3604 76.0982 98.2463 76.2689 98.1026 76.4126C97.9588 76.5564 97.7882 76.6704 97.6004 76.7482C97.4126 76.826 97.2113 76.866 97.008 76.866Z" fill="#E0E0E0"/>
<path d="M44.0161 76.926C44.9042 76.926 45.6241 76.206 45.6241 75.318C45.6241 74.4299 44.9042 73.71 44.0161 73.71C43.128 73.71 42.4081 74.4299 42.4081 75.318C42.4081 76.206 43.128 76.926 44.0161 76.926Z" fill="#6556D0"/>
<path d="M95.505 126.969H83.43C82.776 126.969 82.1487 126.709 81.6863 126.247C81.2238 125.784 80.964 125.157 80.964 124.503C80.964 123.849 81.2238 123.222 81.6863 122.759C82.1487 122.297 82.776 122.037 83.43 122.037H95.505C96.159 122.037 96.7862 122.297 97.2487 122.759C97.7112 123.222 97.971 123.849 97.971 124.503C97.971 125.157 97.7112 125.784 97.2487 126.247C96.7862 126.709 96.159 126.969 95.505 126.969Z" fill="#6556D0"/>
<path d="M33.3 10.605L20.784 16.884C20.326 17.0787 19.9354 17.4038 19.6607 17.8187C19.386 18.2337 19.2393 18.7203 19.239 19.218V25.074C19.2242 30.4035 20.7766 35.6198 23.703 40.074C25.959 43.5 28.947 47.892 33.924 50.4H36.168C41.706 48.711 45.84 44.208 48.369 40.359C51.2954 35.9048 52.8478 30.6885 52.833 25.359V19.218C52.8337 18.7217 52.6888 18.236 52.4163 17.8212C52.1439 17.4064 51.7557 17.0805 51.3 16.884L37.032 10.8C36.396 10.539 33.936 10.335 33.3 10.605Z" fill="#6556D0"/>
<path opacity="0.3" d="M33.3 10.605L20.784 16.884C20.326 17.0787 19.9354 17.4038 19.6607 17.8187C19.386 18.2337 19.2393 18.7203 19.239 19.218V25.074C19.2242 30.4035 20.7766 35.6198 23.703 40.074C25.959 43.5 28.947 47.892 33.924 50.4H36.168C41.706 48.711 45.84 44.208 48.369 40.359C51.2954 35.9048 52.8478 30.6885 52.833 25.359V19.218C52.8337 18.7217 52.6888 18.236 52.4163 17.8212C52.1439 17.4064 51.7557 17.0805 51.3 16.884L37.032 10.8C36.396 10.539 33.936 10.335 33.3 10.605Z" fill="black"/>
<path d="M32.796 10.7999L18.537 16.8839C18.0793 17.0787 17.6891 17.4039 17.4149 17.8189C17.1407 18.2339 16.9947 18.7205 16.995 19.2179V25.0739C16.9957 30.4963 18.6045 35.7967 21.6179 40.3048C24.6312 44.8128 28.9138 48.326 33.924 50.3999C39.462 48.7109 43.596 44.2079 46.122 40.3589C49.0497 35.9053 50.6022 30.6886 50.586 25.3589V19.2179C50.5863 18.7205 50.4403 18.2339 50.1661 17.8189C49.8919 17.4039 49.5017 17.0787 49.044 16.8839L34.8 10.7999C34.4834 10.6642 34.1425 10.5942 33.798 10.5942C33.4535 10.5942 33.1126 10.6642 32.796 10.7999Z" fill="#6556D0"/>
<path d="M50.541 23.7808C50.5447 23.8036 50.5447 23.8269 50.541 23.8498C50.541 23.9038 50.541 23.9698 50.541 24.0508C50.541 24.2428 50.556 24.5008 50.568 24.8278C50.58 25.1548 50.598 25.5748 50.568 26.0548C50.568 26.2948 50.568 26.5498 50.544 26.8198C50.544 26.9578 50.544 27.0958 50.544 27.2398C50.544 27.3838 50.517 27.5398 50.502 27.6808C50.442 28.2808 50.403 28.9408 50.277 29.6398C50.22 29.9878 50.175 30.3538 50.103 30.7228C50.031 31.0918 49.941 31.4728 49.857 31.8628C49.4607 33.549 48.9094 35.195 48.21 36.7798C47.4952 38.3573 46.6419 39.8682 45.66 41.2948C45.186 41.9368 44.76 42.5578 44.28 43.0948C44.049 43.3648 43.839 43.6378 43.614 43.8778L42.966 44.5678C42.564 45.0178 42.15 45.3748 41.805 45.7078C41.628 45.8698 41.469 46.0258 41.316 46.1608L40.896 46.4998L40.296 46.9918L40.137 47.1178C40.101 47.1448 40.08 47.1568 40.08 47.1538C40.08 47.1508 40.08 47.1358 40.125 47.1028L40.275 46.9678L40.854 46.4548L41.277 46.0858C41.43 45.9508 41.577 45.7858 41.757 45.6238C42.096 45.2878 42.501 44.9278 42.897 44.4748L43.536 43.7788C43.758 43.5388 43.965 43.2658 44.19 42.9958C44.655 42.4618 45.09 41.8408 45.552 41.1958C46.5243 39.7722 47.3705 38.2665 48.081 36.6958C48.7743 35.119 49.3255 33.4835 49.728 31.8088C49.815 31.4218 49.896 31.0438 49.98 30.6778C50.064 30.3118 50.1 29.9458 50.16 29.5978C50.292 28.9018 50.337 28.2448 50.403 27.6478C50.421 27.5008 50.436 27.3478 50.451 27.2128C50.466 27.0778 50.451 26.9308 50.469 26.7958C50.481 26.5258 50.493 26.2708 50.505 26.0308C50.538 25.5538 50.529 25.1308 50.529 24.8068V24.0538V23.8498C50.5284 23.8262 50.5325 23.8028 50.541 23.7808Z" fill="#263238"/>
<path d="M39.4381 31.6498H37.9171V23.3728C37.8903 22.4537 37.5064 21.5813 36.8468 20.9407C36.1873 20.3001 35.304 19.9417 34.3846 19.9417C33.4651 19.9417 32.5819 20.3001 31.9223 20.9407C31.2628 21.5813 30.8788 22.4537 30.8521 23.3728V31.6498H29.3311V23.3728C29.3632 22.0538 29.9097 20.7997 30.8539 19.8782C31.7981 18.9567 33.0652 18.4409 34.3846 18.4409C35.7039 18.4409 36.971 18.9567 37.9152 19.8782C38.8594 20.7997 39.4059 22.0538 39.4381 23.3728V31.6498Z" fill="#F5F5F5"/>
<path d="M39.453 26.0342H29.3191C28.3564 26.0342 27.576 26.8145 27.576 27.7772V34.9652C27.576 35.9278 28.3564 36.7082 29.3191 36.7082H39.453C40.4157 36.7082 41.1961 35.9278 41.1961 34.9652V27.7772C41.1961 26.8145 40.4157 26.0342 39.453 26.0342Z" fill="white"/>
<path d="M39.453 36.7079C39.6056 36.6917 39.7569 36.6657 39.906 36.6299C40.2695 36.525 40.5886 36.304 40.8145 36.0006C41.0404 35.6972 41.1607 35.3281 41.157 34.9499C41.157 34.5989 41.157 34.2179 41.157 33.8069C41.157 32.9879 41.157 32.0549 41.157 31.0229C41.157 29.9909 41.157 28.8659 41.157 27.6539C41.1345 27.3518 41.0305 27.0615 40.8562 26.8138C40.6819 26.566 40.4437 26.3701 40.167 26.2469C39.8719 26.1254 39.5521 26.076 39.234 26.1029H38.226L29.319 26.0999C28.9447 26.0997 28.5811 26.2258 28.2872 26.4577C27.9933 26.6896 27.7861 27.0137 27.699 27.3779C27.6601 27.5592 27.644 27.7446 27.651 27.9299V29.6189C27.651 31.1189 27.651 32.5349 27.651 33.8999C27.678 34.5779 27.537 35.2769 27.885 35.8109C28.0391 36.0732 28.2613 36.2889 28.528 36.4352C28.7947 36.5815 29.096 36.6529 29.4 36.6419H32.775L37.662 36.6689H38.988H39.333C39.373 36.6651 39.4131 36.6651 39.453 36.6689C39.4132 36.6734 39.3729 36.6734 39.333 36.6689H38.988H37.662L32.775 36.6929H29.4C29.1522 36.704 28.9046 36.6642 28.6728 36.5759C28.4409 36.4875 28.2296 36.3526 28.0519 36.1794C27.8742 36.0063 27.7339 35.7985 27.6397 35.5689C27.5454 35.3394 27.4993 35.093 27.504 34.8449V33.8999C27.504 32.5349 27.504 31.1039 27.504 29.6189V27.9419C27.495 27.7405 27.5122 27.5388 27.555 27.3419C27.6525 26.9487 27.8798 26.5999 28.2 26.3519C28.5229 26.0965 28.9223 25.957 29.334 25.9559H38.208H39.216C39.5542 25.93 39.8937 25.9856 40.206 26.1179C40.5045 26.2511 40.761 26.4631 40.9481 26.731C41.1352 26.999 41.2458 27.3128 41.268 27.6389C41.268 28.8629 41.268 29.9849 41.268 31.0169C41.268 32.0489 41.268 32.9819 41.268 33.8009C41.268 34.2119 41.268 34.5929 41.268 34.9439C41.2684 35.2724 41.1769 35.5945 41.004 35.8739C40.7688 36.2618 40.3907 36.5419 39.951 36.6539C39.7899 36.7028 39.621 36.7211 39.453 36.7079Z" fill="#263238"/>
<path d="M35.43 31.6472C35.5673 31.5103 35.6762 31.3475 35.7503 31.1683C35.8245 30.9892 35.8624 30.7971 35.862 30.6032C35.8638 30.3237 35.7874 30.0493 35.6415 29.8109C35.4957 29.5725 35.2861 29.3795 35.0364 29.2539C34.7868 29.1282 34.507 29.0748 34.2286 29.0997C33.9502 29.1246 33.6843 29.2267 33.4609 29.3947C33.2374 29.5626 33.0654 29.7896 32.9641 30.0501C32.8628 30.3106 32.8362 30.5942 32.8875 30.8689C32.9388 31.1437 33.0658 31.3987 33.2543 31.6051C33.4427 31.8115 33.6851 31.9612 33.954 32.0372L33.633 33.4592H35.058L34.758 32.0372C35.007 31.9661 35.2334 31.8317 35.415 31.6472" fill="#6556D0"/>
<path d="M128.346 42.3509V54.5069C128.373 56.6069 128.682 59.9069 125.346 59.7989C122.469 59.4989 121.704 56.7599 121.683 54.7979C121.683 53.8679 121.662 53.0909 121.653 52.9979C121.653 52.9979 118.503 52.7399 118.236 49.6259C118.107 48.1259 118.095 45.0029 118.116 42.1799C118.129 40.7179 118.691 39.3142 119.692 38.248C120.693 37.1819 122.058 36.5314 123.516 36.4259L123.816 36.4049C127.077 36.3569 128.4 39.0959 128.346 42.3509Z" fill="#FFBF9D"/>
<path d="M121.662 52.998C123.101 52.8875 124.479 52.367 125.631 51.498C125.631 51.498 124.809 53.847 121.68 53.793L121.662 52.998Z" fill="#FF9A6C"/>
<path d="M123.447 43.458C123.51 43.521 123.87 43.23 124.389 43.218C124.908 43.206 125.289 43.458 125.355 43.392C125.421 43.326 125.319 43.245 125.148 43.128C124.92 42.9746 124.649 42.897 124.374 42.906C124.101 42.9146 123.838 43.0102 123.624 43.179C123.468 43.311 123.417 43.428 123.447 43.458Z" fill="#263238"/>
<path d="M123.438 44.9307C123.444 45.0411 123.494 45.1446 123.576 45.2187C123.658 45.2928 123.766 45.3316 123.876 45.3267C123.93 45.3271 123.983 45.3168 124.033 45.2962C124.083 45.2756 124.128 45.2452 124.165 45.2069C124.203 45.1686 124.233 45.1231 124.253 45.073C124.273 45.023 124.282 44.9695 124.281 44.9157C124.274 44.8062 124.225 44.7036 124.144 44.6297C124.062 44.5558 123.956 44.5164 123.846 44.5197C123.792 44.5197 123.739 44.5304 123.689 44.5511C123.639 44.5718 123.594 44.6021 123.556 44.6403C123.519 44.6785 123.489 44.7238 123.468 44.7737C123.448 44.8235 123.438 44.8769 123.438 44.9307Z" fill="#263238"/>
<path d="M122.142 47.0999C121.884 47.0397 121.619 47.0115 121.353 47.0159C121.23 47.0159 121.113 46.9949 121.086 46.9139C121.066 46.7883 121.085 46.6595 121.14 46.5449C121.236 46.2449 121.332 45.9239 121.44 45.5879C121.845 44.2259 122.13 43.1099 122.076 43.0949C122.022 43.0799 121.647 44.1689 121.242 45.5309C121.146 45.8669 121.053 46.1879 120.963 46.4939C120.898 46.6468 120.888 46.8177 120.936 46.9769C120.956 47.0191 120.986 47.056 121.023 47.0846C121.06 47.1133 121.103 47.1329 121.149 47.1419C121.219 47.1501 121.289 47.1501 121.359 47.1419C121.621 47.159 121.884 47.145 122.142 47.0999Z" fill="#263238"/>
<path d="M123.669 41.238C123.72 41.355 124.137 41.2679 124.638 41.2919C125.139 41.3159 125.538 41.427 125.607 41.316C125.631 41.265 125.553 41.157 125.385 41.055C125.161 40.9294 124.911 40.8585 124.654 40.848C124.398 40.8376 124.142 40.8879 123.909 40.9949C123.732 41.0819 123.648 41.184 123.669 41.238Z" fill="#263238"/>
<path d="M118.716 42.0177C118.773 42.1137 119.178 42.0177 119.673 41.9937C120.168 41.9697 120.573 42.0417 120.627 41.9427C120.648 41.8947 120.567 41.8107 120.396 41.7357C120.165 41.6434 119.916 41.6024 119.667 41.6157C119.415 41.6227 119.167 41.6841 118.941 41.7957C118.773 41.8827 118.692 41.9727 118.716 42.0177Z" fill="#263238"/>
<path d="M114 39.3868C114.017 39.3235 114.047 39.2644 114.088 39.2129C114.129 39.1613 114.179 39.1185 114.237 39.0868C114.486 38.9736 114.76 38.929 115.032 38.9578C115.863 38.9425 116.673 38.6963 117.372 38.2468C117.698 37.7779 118.063 37.3364 118.461 36.9268C119.406 35.9548 120.18 35.2918 120.984 34.9678C122.022 34.5508 123.759 34.3678 124.842 34.6678C125.925 34.9678 126.897 35.8318 127.05 36.9388C127.65 36.4258 128.568 36.4318 129.309 36.7288H129.327C130.149 37.0288 130.617 37.8928 130.86 38.7328C131.103 39.5728 131.208 40.4728 131.652 41.2258C131.745 41.3818 131.856 41.5708 131.775 41.7358C131.737 41.7956 131.683 41.8425 131.618 41.8703C131.553 41.8982 131.481 41.9057 131.412 41.8918C131.273 41.8621 131.142 41.8027 131.028 41.7178C131.121 41.9398 131.211 42.1588 131.304 42.3778C131.004 42.4301 130.695 42.4105 130.404 42.3208C130.253 43.0697 130.057 43.809 129.819 44.5348C129.512 44.4986 129.202 44.5742 128.946 44.7478C128.646 45.0088 128.529 45.4978 128.046 45.3118C127.803 45.2158 127.581 44.7118 127.497 44.4568C126.954 42.7953 126.775 41.0366 126.972 39.2998C126.631 38.9364 126.223 38.6412 125.772 38.4298L125.808 38.4628C124.938 38.1628 123.954 37.8628 123.129 38.2708C122.49 38.5888 122.115 39.2518 121.629 39.7708C121.189 40.2642 120.654 40.6629 120.055 40.943C119.456 41.223 118.807 41.3784 118.146 41.3998C118.101 42.2758 118.173 43.5148 118.128 44.3998L117.39 42.9958C117.332 42.8985 117.279 42.7984 117.231 42.6958V42.6658C117.157 42.4945 117.074 42.3272 116.982 42.1648C116.88 42.2469 116.752 42.2897 116.621 42.2856C116.49 42.2814 116.365 42.2305 116.268 42.1421C116.171 42.0537 116.109 41.9336 116.093 41.8035C116.077 41.6734 116.108 41.5419 116.181 41.4328C116.255 41.3309 116.344 41.2409 116.445 41.1658C116.338 41.2701 116.206 41.3446 116.061 41.382C115.916 41.4193 115.764 41.4182 115.62 41.3788C115.477 41.3353 115.353 41.2458 115.266 41.1243C115.179 41.0028 115.135 40.8561 115.14 40.7068C115.152 40.6065 115.191 40.5111 115.251 40.4301C115.312 40.3491 115.392 40.2852 115.485 40.2448C115.099 40.2758 114.712 40.1901 114.375 39.9988C114.135 39.8698 113.919 39.6628 114 39.3868Z" fill="#263238"/>
<path d="M126.063 37.3018C126.172 37.3929 126.272 37.4932 126.363 37.6018C126.61 37.8981 126.774 38.254 126.84 38.6338C126.895 38.8942 126.922 39.1597 126.921 39.4258C126.921 39.7258 126.9 40.0258 126.876 40.3438C126.848 40.683 126.841 41.0237 126.855 41.3638C126.864 41.5453 126.887 41.7259 126.924 41.9038C126.952 42.0934 127.027 42.2729 127.143 42.4258C127.198 42.4863 127.267 42.5317 127.344 42.5575C127.422 42.5832 127.504 42.5885 127.584 42.5728C127.736 42.5449 127.875 42.4667 127.977 42.3508C128.147 42.1187 128.25 41.845 128.277 41.5588H128.214C128.307 41.7943 128.434 42.0147 128.592 42.2128C128.743 42.3948 128.958 42.5128 129.192 42.5428C129.302 42.5537 129.413 42.534 129.513 42.4858C129.606 42.4372 129.682 42.362 129.732 42.2698C129.777 42.1848 129.8 42.0899 129.798 41.9938C129.793 41.9043 129.757 41.8193 129.696 41.7538L129.663 41.7838C129.849 41.9957 130.077 42.1663 130.332 42.2848C130.422 42.3248 130.491 42.3518 130.539 42.3658L130.614 42.3838L130.545 42.3538C130.497 42.3328 130.428 42.3058 130.344 42.2638C130.097 42.1383 129.876 41.9649 129.696 41.7538L129.663 41.7838C129.714 41.849 129.744 41.9286 129.747 42.0114C129.751 42.0942 129.729 42.1761 129.684 42.2458C129.64 42.3271 129.572 42.393 129.489 42.4348C129.396 42.4796 129.292 42.4963 129.189 42.4828C128.97 42.4576 128.768 42.3504 128.625 42.1828C128.474 41.9881 128.352 41.773 128.262 41.5438L128.217 41.4448L128.196 41.5528C128.164 41.8267 128.061 42.0874 127.896 42.3088C127.802 42.4106 127.678 42.4799 127.542 42.5068C127.474 42.5205 127.404 42.5164 127.338 42.4949C127.273 42.4733 127.214 42.435 127.167 42.3838C127.059 42.2408 126.99 42.0723 126.966 41.8948C126.929 41.7208 126.905 41.5443 126.894 41.3668C126.88 41.0287 126.887 40.69 126.915 40.3528C126.933 40.0288 126.954 39.7228 126.951 39.4318C126.949 39.1623 126.919 38.8939 126.861 38.6308C126.788 38.2438 126.613 37.8834 126.354 37.5868C126.274 37.4759 126.176 37.3795 126.063 37.3018Z" fill="#455A64"/>
<path d="M116.43 40.3286L116.457 40.3496C116.482 40.3705 116.508 40.3895 116.535 40.4066C116.576 40.44 116.62 40.4692 116.667 40.4936C116.728 40.5297 116.791 40.5628 116.856 40.5926C117.273 40.7818 117.731 40.8642 118.188 40.8326C118.868 40.7867 119.52 40.545 120.066 40.1366C120.726 39.6342 121.276 39.001 121.68 38.2766C121.908 37.9016 122.091 37.5146 122.28 37.1576C122.474 36.809 122.716 36.4898 123 36.2096C123.25 35.9551 123.559 35.7674 123.9 35.6636C124.054 35.6209 124.214 35.6026 124.374 35.6096C124.519 35.6206 124.663 35.6509 124.8 35.6996C125.042 35.7818 125.264 35.9148 125.451 36.0896C125.592 36.2215 125.711 36.3755 125.802 36.5456C125.875 36.6942 125.928 36.8515 125.961 37.0136C125.961 37.0136 125.961 37.0136 125.961 36.9806C125.961 36.9476 125.961 36.9236 125.946 36.8846C125.921 36.763 125.881 36.645 125.826 36.5336C125.616 36.1209 125.255 35.805 124.818 35.6516C124.674 35.6013 124.523 35.5701 124.371 35.5586C124.205 35.5516 124.039 35.5698 123.879 35.6126C123.528 35.7162 123.209 35.9071 122.952 36.1676C122.669 36.4509 122.43 36.7744 122.241 37.1276C122.034 37.4876 121.848 37.8716 121.626 38.2466C121.224 38.9615 120.683 39.588 120.033 40.0886C119.499 40.4934 118.859 40.736 118.191 40.7876C117.741 40.8231 117.289 40.749 116.874 40.5716C116.721 40.4999 116.573 40.4187 116.43 40.3286Z" fill="#455A64"/>
<path d="M116.148 38.961C116.148 38.961 116.184 38.994 116.259 39.039C116.365 39.103 116.475 39.1592 116.589 39.207C116.759 39.2791 116.934 39.3363 117.114 39.3779C117.334 39.4296 117.558 39.4598 117.783 39.468C118.009 39.4735 118.235 39.4585 118.458 39.423C118.639 39.3925 118.816 39.3463 118.989 39.285C119.107 39.2448 119.221 39.1956 119.331 39.138C119.372 39.1193 119.412 39.0962 119.448 39.069C119.448 39.069 119.271 39.1439 118.974 39.2369C118.801 39.2885 118.625 39.3286 118.446 39.357C118.227 39.3874 118.007 39.4004 117.786 39.396C117.565 39.3862 117.346 39.3591 117.129 39.315C116.952 39.2761 116.779 39.2239 116.61 39.159C116.322 39.048 116.154 38.949 116.148 38.961Z" fill="#455A64"/>
<path d="M118.695 43.458C118.755 43.521 119.115 43.23 119.637 43.218C120.159 43.206 120.537 43.458 120.603 43.392C120.669 43.326 120.564 43.245 120.396 43.128C120.167 42.9747 119.895 42.8971 119.619 42.906C119.347 42.9143 119.085 43.0101 118.872 43.179C118.713 43.311 118.662 43.428 118.695 43.458Z" fill="#263238"/>
<path d="M119.226 44.9307C119.233 45.0403 119.282 45.1428 119.363 45.2167C119.445 45.2906 119.551 45.3301 119.661 45.3267C119.715 45.3271 119.768 45.3168 119.818 45.2962C119.868 45.2757 119.913 45.2454 119.951 45.2071C119.989 45.1688 120.019 45.1233 120.04 45.0733C120.06 45.0232 120.07 44.9697 120.069 44.9157C120.061 44.8059 120.011 44.7034 119.93 44.6295C119.848 44.5557 119.741 44.5164 119.631 44.5197C119.577 44.5197 119.524 44.5304 119.475 44.5511C119.425 44.5719 119.38 44.6022 119.342 44.6405C119.305 44.6787 119.275 44.7241 119.255 44.7739C119.235 44.8237 119.225 44.877 119.226 44.9307Z" fill="#263238"/>
<path d="M128.265 44.676C128.316 44.649 130.365 43.887 130.446 46.02C130.527 48.153 128.373 47.799 128.367 47.739C128.361 47.679 128.265 44.676 128.265 44.676Z" fill="#FFBF9D"/>
<path d="M129 46.9047C129 46.9047 129.039 46.9287 129.102 46.9557C129.192 46.9904 129.291 46.9904 129.381 46.9557C129.515 46.8625 129.622 46.7353 129.691 46.5871C129.759 46.439 129.787 46.2752 129.771 46.1127C129.771 45.9296 129.729 45.749 129.648 45.5847C129.625 45.5178 129.585 45.4578 129.533 45.4102C129.48 45.3625 129.417 45.3287 129.348 45.3117C129.305 45.3032 129.261 45.3096 129.222 45.3298C129.183 45.3499 129.153 45.3827 129.135 45.4227C129.108 45.4827 129.135 45.5247 129.111 45.5307C129.087 45.5367 129.066 45.4977 129.078 45.4077C129.089 45.3547 129.116 45.3065 129.156 45.2697C129.214 45.2244 129.287 45.2019 129.36 45.2067C129.448 45.2209 129.531 45.2572 129.602 45.3123C129.672 45.3674 129.727 45.4395 129.762 45.5217C129.863 45.7057 129.915 45.912 129.915 46.1217C129.915 46.5507 129.717 46.9617 129.411 47.0637C129.355 47.0827 129.295 47.0888 129.235 47.0815C129.176 47.0742 129.119 47.0538 129.069 47.0217C129 46.9557 128.979 46.9077 129 46.9047Z" fill="#FF9A6C"/>
<path d="M123.66 47.5256C123.678 47.5256 123.678 47.6516 123.606 47.8256C123.502 48.0597 123.33 48.258 123.114 48.3956C122.904 48.5374 122.654 48.6088 122.4 48.5996C122.205 48.5816 122.1 48.5156 122.1 48.5006C122.1 48.4856 122.22 48.5006 122.4 48.5006C122.629 48.4837 122.85 48.4094 123.042 48.2846C123.236 48.16 123.399 47.9927 123.519 47.7956C123.6 47.6306 123.636 47.5196 123.66 47.5256Z" fill="#263238"/>
<path d="M134.4 131.877L135.036 139.077L137.292 144.645C137.329 144.742 137.345 144.846 137.339 144.949C137.333 145.053 137.305 145.154 137.256 145.246C137.208 145.338 137.141 145.419 137.059 145.483C136.977 145.546 136.883 145.592 136.782 145.617C136.663 145.653 136.537 145.66 136.414 145.639C136.291 145.619 136.175 145.57 136.074 145.497C134.787 144.561 130.146 141.117 130.095 140.67C130.029 140.088 128.844 132.999 128.844 132.999L134.4 131.877Z" fill="#455A64"/>
<path d="M136.8 145.626L129.984 139.857L130.053 140.391C130.098 140.691 130.104 140.841 130.308 141.024C132.119 142.665 134.022 144.201 136.008 145.626C136.13 145.683 136.263 145.713 136.398 145.713C136.533 145.713 136.666 145.683 136.788 145.626H136.8Z" fill="#263238"/>
<path d="M131.31 137.607C131.41 137.659 131.486 137.746 131.523 137.853C131.56 137.959 131.554 138.075 131.508 138.177C131.448 138.276 131.354 138.35 131.244 138.384C131.133 138.419 131.014 138.413 130.908 138.366C130.804 138.311 130.725 138.218 130.687 138.107C130.649 137.995 130.655 137.873 130.704 137.766C130.777 137.669 130.883 137.602 131.002 137.578C131.121 137.554 131.245 137.575 131.349 137.637" fill="white"/>
<path d="M134.682 142.656C134.727 142.674 134.856 142.278 135.282 142.032C135.553 141.9 135.844 141.816 136.143 141.783C136.143 141.765 136.044 141.72 135.864 141.714C135.627 141.712 135.393 141.775 135.189 141.897C134.99 142.012 134.83 142.183 134.727 142.389C134.661 142.545 134.661 142.653 134.682 142.656Z" fill="#263238"/>
<path d="M135.336 143.565C135.375 143.595 135.594 143.334 135.978 143.19C136.22 143.119 136.467 143.064 136.716 143.025C136.59 142.967 136.452 142.939 136.314 142.942C136.175 142.945 136.039 142.979 135.915 143.043C135.477 143.211 135.3 143.55 135.336 143.565Z" fill="#263238"/>
<path d="M133.527 141.525C133.827 141.287 134.145 141.071 134.478 140.88C134.838 140.733 135.208 140.612 135.585 140.517C135.176 140.456 134.759 140.534 134.4 140.739C133.782 141.036 133.5 141.507 133.527 141.525Z" fill="#263238"/>
<path d="M133.14 139.347C133.164 139.389 133.569 139.179 134.115 139.107C134.661 139.035 135.114 139.107 135.126 139.068C134.804 138.914 134.44 138.871 134.091 138.948C133.738 138.969 133.402 139.11 133.14 139.347Z" fill="#263238"/>
<path d="M132.9 137.235C133.216 137.076 133.56 136.982 133.912 136.959C134.264 136.935 134.618 136.982 134.952 137.097C134.952 137.079 134.871 136.998 134.682 136.92C134.433 136.822 134.166 136.781 133.899 136.8C133.633 136.815 133.374 136.892 133.143 137.025C132.963 137.127 132.882 137.22 132.9 137.235Z" fill="#263238"/>
<path d="M133.845 136.557C133.845 136.557 133.863 136.458 133.827 136.284C133.774 136.036 133.672 135.801 133.527 135.594C133.428 135.43 133.279 135.302 133.101 135.231C133.039 135.212 132.974 135.212 132.912 135.23C132.85 135.248 132.795 135.284 132.753 135.333C132.717 135.381 132.692 135.436 132.677 135.494C132.663 135.552 132.66 135.613 132.669 135.672C132.721 135.919 132.857 136.14 133.054 136.298C133.251 136.456 133.497 136.541 133.749 136.539C134.001 136.543 134.249 136.473 134.462 136.338C134.675 136.203 134.845 136.009 134.949 135.78C134.973 135.724 134.984 135.663 134.98 135.602C134.977 135.541 134.96 135.482 134.931 135.429C134.893 135.377 134.84 135.337 134.779 135.315C134.718 135.293 134.652 135.29 134.589 135.306C134.408 135.364 134.244 135.468 134.112 135.606C133.925 135.778 133.77 135.981 133.653 136.206C133.605 136.285 133.574 136.374 133.563 136.467C133.734 136.174 133.948 135.908 134.196 135.678C134.314 135.561 134.458 135.475 134.616 135.426C134.65 135.416 134.686 135.417 134.72 135.429C134.753 135.441 134.782 135.463 134.802 135.492C134.819 135.528 134.827 135.567 134.827 135.607C134.827 135.647 134.819 135.686 134.802 135.723C134.707 135.917 134.558 136.081 134.374 136.196C134.19 136.31 133.978 136.371 133.761 136.371C133.547 136.372 133.339 136.3 133.17 136.169C133.002 136.037 132.882 135.853 132.831 135.645C132.817 135.563 132.834 135.478 132.879 135.408C132.902 135.38 132.932 135.36 132.966 135.349C133.001 135.339 133.037 135.34 133.071 135.351C133.222 135.411 133.35 135.516 133.44 135.651C133.63 135.925 133.767 136.232 133.845 136.557Z" fill="#263238"/>
<path d="M116.238 132.249L116.52 138.354C116.52 138.354 110.013 140.676 109.95 141.81L122.565 141.717L122.538 132.186L116.238 132.249Z" fill="#455A64"/>
<path d="M120.417 137.811C120.536 137.84 120.639 137.913 120.706 138.016C120.773 138.118 120.798 138.242 120.777 138.363C120.741 138.481 120.662 138.581 120.555 138.644C120.448 138.707 120.322 138.727 120.201 138.702C120.076 138.671 119.967 138.594 119.897 138.485C119.827 138.377 119.8 138.247 119.823 138.12C119.873 137.998 119.966 137.9 120.085 137.844C120.204 137.788 120.34 137.78 120.465 137.82" fill="#E0E0E0"/>
<path d="M122.565 141.717L122.523 140.757L110.442 141.204C110.442 141.204 109.884 141.438 109.95 141.804L122.565 141.717Z" fill="#263238"/>
<path d="M116.316 138.3C116.316 138.357 116.616 138.381 116.916 138.564C117.216 138.747 117.384 138.99 117.441 138.966C117.498 138.942 117.402 138.609 117.03 138.393C116.658 138.177 116.301 138.243 116.316 138.3Z" fill="#263238"/>
<path d="M114.996 138.819C114.996 138.876 115.251 138.972 115.461 139.215C115.671 139.458 115.737 139.719 115.797 139.716C115.857 139.713 115.896 139.383 115.626 139.086C115.356 138.789 114.999 138.765 114.996 138.819Z" fill="#263238"/>
<path d="M114.258 140.313C114.315 140.313 114.396 140.037 114.237 139.713C114.078 139.389 113.787 139.275 113.76 139.323C113.733 139.371 113.916 139.539 114.042 139.8C114.168 140.061 114.198 140.31 114.258 140.313Z" fill="#263238"/>
<path d="M116.415 136.896C116.442 136.95 116.715 136.869 117.072 136.896C117.429 136.923 117.693 137.016 117.723 136.968C117.753 136.92 117.495 136.713 117.084 136.695C116.673 136.677 116.4 136.851 116.415 136.896Z" fill="#263238"/>
<path d="M114.042 88.404C114.042 88.755 115.506 137.559 115.506 137.559H123.306L124.887 95.811C124.887 95.811 126.732 117.639 126.732 118.11C126.732 118.581 128.358 137.793 128.358 137.793L135.588 137.238L135.111 93.3L134.229 86.856L114.042 88.404Z" fill="#263238"/>
<path d="M125.7 94.266C125.601 94.322 125.495 94.3644 125.385 94.392C125.178 94.464 124.875 94.563 124.503 94.692L124.434 94.713V94.644C124.392 94.059 124.341 93.273 124.296 92.412C124.245 91.479 124.209 90.636 124.191 90.012C124.191 89.712 124.176 89.457 124.176 89.286C124.167 89.1967 124.173 89.1064 124.194 89.019C124.219 89.1049 124.233 89.1936 124.236 89.283C124.257 89.454 124.278 89.703 124.299 90.006C124.347 90.606 124.401 91.461 124.449 92.406C124.497 93.267 124.53 94.053 124.548 94.641L124.473 94.593C124.851 94.488 125.157 94.404 125.373 94.35C125.479 94.3115 125.589 94.2833 125.7 94.266Z" fill="#455A64"/>
<path d="M125.1 89.1929C125.1 89.1929 125.124 89.1539 125.205 89.1269C125.319 89.0968 125.44 89.1074 125.547 89.1569C125.628 89.1865 125.697 89.2413 125.744 89.3131C125.791 89.385 125.813 89.4702 125.808 89.5559C125.798 89.6644 125.753 89.7665 125.679 89.8467C125.605 89.9269 125.507 89.9807 125.4 89.9999C125.291 90.0163 125.18 90.0022 125.078 89.9594C124.976 89.9165 124.888 89.8464 124.824 89.7569C124.779 89.6877 124.755 89.607 124.755 89.5244C124.755 89.4419 124.779 89.3611 124.824 89.2919C124.886 89.1989 124.977 89.1284 125.082 89.0909C125.16 89.0639 125.205 89.0699 125.208 89.0759C125.211 89.0819 125.031 89.1329 124.923 89.3369C124.891 89.3913 124.876 89.4537 124.879 89.5166C124.883 89.5795 124.904 89.64 124.941 89.6909C124.99 89.7551 125.054 89.8051 125.129 89.8357C125.203 89.8663 125.284 89.8764 125.364 89.8649C125.438 89.8507 125.507 89.8145 125.56 89.761C125.614 89.7075 125.65 89.6392 125.664 89.5649C125.67 89.5034 125.657 89.4415 125.626 89.3878C125.595 89.3341 125.549 89.2912 125.493 89.2649C125.373 89.1999 125.235 89.1747 125.1 89.1929Z" fill="#455A64"/>
<path d="M128.682 89.6998C128.64 89.6998 128.58 89.4898 128.55 89.2258C128.52 88.9618 128.529 88.7428 128.571 88.7398C128.613 88.7368 128.673 88.9468 128.703 89.2108C128.733 89.4748 128.724 89.6998 128.682 89.6998Z" fill="#455A64"/>
<path d="M129.222 89.6428C129.18 89.6428 129.144 89.4178 129.144 89.1388C129.144 88.8598 129.174 88.6348 129.219 88.6348C129.264 88.6348 129.297 88.8598 129.297 89.1388C129.297 89.4178 129.267 89.6428 129.222 89.6428Z" fill="#455A64"/>
<path d="M119.823 89.979C119.781 89.979 119.715 89.73 119.676 89.415C119.637 89.1 119.64 88.836 119.676 88.833C119.712 88.83 119.784 89.082 119.823 89.4C119.862 89.718 119.865 89.976 119.823 89.979Z" fill="#455A64"/>
<path d="M120.48 90.0267C120.341 89.8587 120.273 89.6439 120.288 89.4267C120.256 89.2168 120.304 89.0024 120.423 88.8267C120.468 88.8267 120.423 89.1027 120.444 89.4267C120.465 89.7507 120.522 90.0147 120.48 90.0267Z" fill="#455A64"/>
<path d="M118.014 89.3756C118.017 89.4476 118.008 89.5196 117.987 89.5886C117.949 89.7832 117.897 89.9747 117.831 90.1616C117.609 90.7915 117.282 91.3796 116.865 91.9016C116.432 92.4397 115.918 92.9073 115.341 93.2876C115.164 93.4046 114.979 93.5108 114.789 93.6056C114.72 93.6445 114.646 93.6757 114.57 93.6986C114.57 93.6806 114.852 93.5246 115.281 93.2156C115.833 92.8239 116.328 92.3574 116.751 91.8296C117.16 91.3149 117.492 90.7441 117.738 90.1346C117.921 89.6696 117.99 89.3696 118.014 89.3756Z" fill="#455A64"/>
<path d="M134.874 92.6638C134.797 92.6866 134.717 92.6987 134.637 92.6998C134.419 92.717 134.201 92.717 133.983 92.6998C133.271 92.6312 132.586 92.3925 131.985 92.0038C131.416 91.6312 130.957 91.1133 130.656 90.5038C130.569 90.3265 130.5 90.1405 130.452 89.9488C130.428 89.8815 130.417 89.8102 130.419 89.7388C130.443 89.7388 130.509 90.0388 130.746 90.4678C131.063 91.048 131.517 91.5414 132.069 91.9048C132.651 92.2803 133.309 92.5221 133.995 92.6128C134.532 92.6728 134.871 92.6398 134.874 92.6638Z" fill="#455A64"/>
<path d="M122.169 117.378C122.169 117.411 120.867 117.129 119.283 116.754C117.699 116.379 116.421 116.043 116.433 116.01C116.445 115.977 117.735 116.256 119.319 116.634C120.903 117.012 122.178 117.345 122.169 117.378Z" fill="#455A64"/>
<path d="M134.733 115.602C134.751 115.632 133.626 116.217 132.222 116.913C130.818 117.609 129.66 118.146 129.642 118.113C129.624 118.08 130.749 117.495 132.153 116.802C133.557 116.109 134.715 115.572 134.733 115.602Z" fill="#455A64"/>
<path d="M110.256 71.877L111.321 73.212V70.917H114.681C114.681 70.917 115.053 76.17 114.981 77.289C114.901 77.8723 114.764 78.4461 114.57 79.002C114.47 79.3255 114.288 79.6177 114.042 79.8504C113.795 80.0831 113.493 80.2484 113.165 80.3304C112.836 80.4125 112.492 80.4084 112.165 80.3186C111.839 80.2289 111.541 80.0564 111.3 79.818C110.924 79.4522 110.573 79.0613 110.25 78.648C108.75 76.728 106.278 72.048 106.278 72.048L108.87 70.5L110.256 71.877Z" fill="#FFBF9D"/>
<path d="M110.043 71.631C110.17 71.8443 110.317 72.0451 110.481 72.231C110.781 72.582 111.159 73.065 111.606 73.587C112.053 74.109 112.479 74.571 112.806 74.886C112.972 75.0678 113.164 75.2235 113.376 75.348C113.224 75.1576 113.06 74.9772 112.884 74.808C112.584 74.478 112.17 74.007 111.723 73.485C110.838 72.423 110.082 71.595 110.043 71.631Z" fill="#FF9A6C"/>
<path d="M117.918 55.74L121.461 54.348L127.986 53.979L131.052 55.146L126.849 57.48L123.225 57.348L117.918 55.74Z" fill="#FFBF9D"/>
<path d="M113.739 89.0698C114.06 89.1238 135.438 90.0328 135.438 90.0328L134.7 70.7998L134.637 67.0258L133.437 55.5928C133.437 55.5928 130.239 54.4918 128.61 53.9668C128.61 53.9668 126.894 55.7668 123.63 55.7068C120.441 55.6618 119.775 54.9418 119.775 54.9418L115.317 56.6518C115.317 56.6518 112.146 57.7888 111.6 59.1928C111.054 60.5968 110.1 68.3578 110.1 68.3578H114.723L114.6 82.1488L113.739 89.0698Z" fill="#455A64"/>
<g opacity="0.2">
<path d="M127.182 63.4138L127.845 68.2618L131.052 69.6928L133.422 67.6738V63.1738L127.182 63.4138Z" fill="black"/>
</g>
<path d="M133.338 64.7999C133.338 64.8389 132.006 64.8719 130.362 64.8719C128.718 64.8719 127.383 64.8389 127.383 64.7999C128.374 64.7246 129.368 64.6996 130.362 64.7249C131.355 64.6996 132.348 64.7246 133.338 64.7999Z" fill="#263238"/>
<path d="M112.299 61.1997C112.314 61.2417 112.326 61.2849 112.335 61.3287C112.356 61.4247 112.383 61.5447 112.419 61.6977C112.534 62.1606 112.677 62.6164 112.845 63.0627C113.058 63.6357 113.358 64.3107 113.727 65.0667C114.096 65.8227 114.39 66.7257 114.717 67.6857C114.717 68.8377 114.717 70.0857 114.693 71.4147C114.663 74.3547 114.633 77.0157 114.615 78.9567C114.597 79.9107 114.585 80.6877 114.573 81.2427C114.573 81.5007 114.567 81.7077 114.555 81.8637C114.556 81.936 114.551 82.0083 114.54 82.0797C114.535 82.0068 114.535 81.9336 114.54 81.8607C114.54 81.7087 114.54 81.5017 114.54 81.2397C114.54 80.6877 114.54 79.9077 114.54 78.9537C114.54 77.0127 114.564 74.3517 114.579 71.4147C114.579 70.0977 114.603 68.8377 114.612 67.6857V67.7067C114.291 66.7467 113.982 65.8557 113.646 65.0907C113.325 64.432 113.039 63.7571 112.788 63.0687C112.626 62.6182 112.495 62.1571 112.395 61.6887C112.365 61.5237 112.341 61.3887 112.329 61.3107C112.316 61.2747 112.306 61.2375 112.299 61.1997Z" fill="#263238"/>
<path d="M134.964 58.9561C134.974 59.0929 134.974 59.2303 134.964 59.3671C134.964 59.6671 134.94 60.0331 134.922 60.4831C134.883 61.4491 134.832 62.7391 134.775 64.1641C134.718 65.5891 134.652 66.8821 134.61 67.8481C134.583 68.2981 134.562 68.6731 134.544 68.9641C134.543 69.1011 134.529 69.2378 134.502 69.3721C134.491 69.2353 134.491 69.0978 134.502 68.9611C134.502 68.6611 134.502 68.2951 134.523 67.8451C134.547 66.9001 134.589 65.5981 134.649 64.1611C134.709 62.7241 134.775 61.4191 134.835 60.4801C134.865 60.0091 134.895 59.6281 134.922 59.3641C134.924 59.2271 134.938 59.0906 134.964 58.9561Z" fill="#263238"/>
<g opacity="0.3">
<path d="M112.311 61.9048C112.23 64.0158 112.984 66.0738 114.411 67.6318C113.976 65.6488 112.89 63.8038 112.311 61.9048Z" fill="black"/>
</g>
<g opacity="0.3">
<path d="M121.701 80.9339C122.706 80.8 123.623 80.2896 124.266 79.5059C124.943 78.7501 125.522 77.9126 125.991 77.0129C126.596 75.7891 126.939 74.4527 126.999 73.0889C125.754 76.4279 123.93 79.0679 121.701 80.9339Z" fill="black"/>
</g>
<path d="M127.395 71.634C127.393 71.6755 127.387 71.7167 127.377 71.757C127.356 71.853 127.329 71.967 127.299 72.105C127.269 72.243 127.221 72.438 127.155 72.648C127.089 72.858 127.026 73.098 126.93 73.359C126.72 73.9731 126.474 74.5741 126.192 75.159C125.504 76.5909 124.62 77.9205 123.567 79.11C123.137 79.5953 122.676 80.0523 122.187 80.478C121.986 80.667 121.785 80.817 121.614 80.955C121.443 81.093 121.293 81.204 121.164 81.291L120.864 81.492C120.795 81.534 120.759 81.558 120.756 81.552C120.782 81.5203 120.813 81.4921 120.846 81.468L121.125 81.246C121.248 81.156 121.395 81.039 121.56 80.895C121.725 80.751 121.92 80.595 122.118 80.406C122.592 79.9709 123.042 79.5102 123.465 79.026C123.978 78.4283 124.456 77.8012 124.896 77.148C125.326 76.4897 125.719 75.8076 126.072 75.105C126.356 74.5276 126.609 73.9358 126.831 73.332C126.933 73.077 127.005 72.837 127.074 72.63C127.143 72.423 127.2 72.243 127.242 72.096C127.284 71.949 127.314 71.85 127.344 71.757C127.374 71.664 127.389 71.631 127.395 71.634Z" fill="#263238"/>
<path d="M126.777 65.6157C126.772 65.6822 126.763 65.7484 126.75 65.8137C126.726 65.9547 126.693 66.1407 126.654 66.3717C126.615 66.6027 126.555 66.9087 126.468 67.2477C126.381 67.5867 126.303 67.9797 126.168 68.3997C126.108 68.6097 126.042 68.8317 125.973 69.0627C125.904 69.2937 125.814 69.5277 125.73 69.7707C125.571 70.2657 125.355 70.7757 125.13 71.3157C124.145 73.6465 122.82 75.8189 121.2 77.7627C120.819 78.2007 120.462 78.6267 120.096 78.9927C119.916 79.1787 119.748 79.3647 119.574 79.5297C119.4 79.6947 119.235 79.8567 119.073 80.0067C118.773 80.3067 118.449 80.5677 118.173 80.7957C117.897 81.0237 117.675 81.2127 117.477 81.3597L117.024 81.7017C116.975 81.745 116.92 81.7823 116.862 81.8127C116.906 81.7643 116.954 81.7201 117.006 81.6807L117.441 81.3177C117.633 81.1647 117.867 80.9757 118.122 80.7387C118.377 80.5017 118.686 80.2497 118.995 79.9347L119.487 79.4547C119.658 79.2867 119.823 79.1007 120 78.9147C120.363 78.5457 120.714 78.1197 121.092 77.6787C122.698 75.7381 124.02 73.5784 125.016 71.2647C125.238 70.7277 125.454 70.2237 125.616 69.7347C125.703 69.4887 125.793 69.2577 125.865 69.0297C125.937 68.8017 126.003 68.5827 126.069 68.3727C126.207 67.9557 126.294 67.5687 126.387 67.2297C126.48 66.8907 126.546 66.5997 126.594 66.3597C126.642 66.1197 126.687 65.9487 126.717 65.8077C126.73 65.7417 126.75 65.6774 126.777 65.6157Z" fill="#263238"/>
<path d="M109.884 59.6369L118.116 72.1529C118.155 72.212 118.177 72.2812 118.178 72.3522C118.179 72.4232 118.159 72.4929 118.122 72.5531C118.084 72.6133 118.03 72.6613 117.965 72.6914C117.901 72.7215 117.829 72.7324 117.759 72.7229L108.279 71.5229C108.229 71.5159 108.181 71.4991 108.138 71.4733C108.095 71.4475 108.057 71.4134 108.027 71.3729L98.9731 59.0069C98.9282 58.9497 98.9011 58.8806 98.8951 58.8081C98.8891 58.7357 98.9044 58.6631 98.9392 58.5993C98.9739 58.5354 99.0267 58.4832 99.0908 58.449C99.155 58.4148 99.2277 58.4002 99.3001 58.4069L109.053 59.1269C109.222 59.1421 109.384 59.1961 109.528 59.2846C109.672 59.373 109.794 59.4936 109.884 59.6369Z" fill="#E0E0E0"/>
<path d="M109.884 59.6369C109.864 59.5961 109.838 59.5578 109.809 59.5229C109.726 59.4194 109.624 59.332 109.509 59.2649C109.314 59.1629 109.096 59.1103 108.876 59.1119L108 59.0399L102.378 58.5989L100.515 58.4549L99.5251 58.3799C99.4381 58.3799 99.3631 58.3799 99.2641 58.3799C99.1627 58.3832 99.0659 58.4226 98.9911 58.4909C98.9149 58.5603 98.8659 58.6545 98.8527 58.7567C98.8395 58.8589 98.863 58.9624 98.9191 59.0489L101.553 62.6639C103.413 65.2049 105.453 67.9979 107.598 70.9319C107.736 71.1149 107.859 71.2919 108.009 71.4839C108.055 71.5348 108.113 71.5739 108.177 71.5979C108.236 71.6186 108.298 71.6307 108.36 71.6339L108.696 71.6759L110.022 71.8439L112.614 72.1679L117.516 72.7679C117.618 72.7679 117.702 72.7949 117.816 72.8009C117.874 72.8013 117.932 72.7901 117.986 72.768C118.041 72.7459 118.09 72.7132 118.131 72.6719C118.21 72.5912 118.256 72.4844 118.26 72.3719C118.256 72.2622 118.216 72.1569 118.146 72.0719L117.51 71.0999L116.31 69.2999L114.162 66.0509C112.848 64.0739 111.786 62.4689 111.045 61.3559L110.19 60.0809C110.094 59.9429 110.019 59.8319 109.962 59.7539C109.938 59.7149 109.911 59.6778 109.881 59.6429C109.902 59.6842 109.925 59.7243 109.95 59.7629L110.163 60.0989C110.355 60.3989 110.634 60.8339 110.991 61.3889L114.069 66.1139L116.202 69.3719L117.402 71.1869L118.026 72.1379C118.08 72.201 118.112 72.28 118.116 72.3629C118.113 72.4416 118.081 72.5164 118.026 72.5729C117.97 72.6283 117.895 72.6595 117.816 72.6599C117.735 72.6599 117.624 72.6359 117.531 72.6269L112.62 71.9999L110.028 71.6729L108.702 71.5049L108.369 71.4629C108.319 71.4587 108.27 71.4497 108.222 71.4359C108.18 71.4196 108.142 71.3939 108.111 71.3609C107.979 71.1809 107.847 71.0039 107.715 70.8209C105.567 67.8929 103.515 65.1029 101.661 62.5619C100.728 61.2959 99.8461 60.0899 99.0181 58.9619C98.9871 58.9173 98.9689 58.8652 98.9652 58.8111C98.9615 58.757 98.9726 58.7029 98.9972 58.6546C99.0218 58.6063 99.0591 58.5655 99.105 58.5367C99.1509 58.5079 99.2038 58.492 99.258 58.4909C99.327 58.4909 99.4231 58.4909 99.5041 58.5059L100.494 58.5779L102.36 58.7099L108 59.0999L108.882 59.1599C109.097 59.1526 109.31 59.199 109.503 59.2949C109.653 59.3801 109.783 59.4968 109.884 59.6369Z" fill="#263238"/>
<path d="M98.973 59.0157C99.0378 59.0324 99.1042 59.0425 99.171 59.0457L99.747 59.1057L101.889 59.2947L109.173 59.8947L109.116 59.8617C109.572 60.5397 110.043 61.2417 110.514 61.9617C112.437 64.9167 114.114 67.6347 115.383 69.5667C116.013 70.5357 116.538 71.3097 116.904 71.8437L117.33 72.4437C117.376 72.5169 117.429 72.5853 117.489 72.6477C117.45 72.5712 117.405 72.497 117.357 72.4257L116.955 71.7987L115.476 69.4977C114.234 67.5507 112.569 64.8267 110.646 61.8687C110.175 61.1397 109.701 60.4377 109.242 59.7687L109.221 59.7387H109.2L101.913 59.1987L99.768 59.0547L99.189 59.0217C99.1173 59.0144 99.0451 59.0124 98.973 59.0157Z" fill="#263238"/>
<path d="M104.616 60.9269C104.622 60.902 104.632 60.8785 104.647 60.8578C104.662 60.8371 104.681 60.8196 104.703 60.8064C104.725 60.7932 104.749 60.7846 104.774 60.7811C104.8 60.7776 104.825 60.7792 104.85 60.7859C104.947 60.8079 105.035 60.8568 105.105 60.9269C105.15 60.9676 105.178 61.0225 105.187 61.0823C105.195 61.142 105.182 61.2027 105.15 61.2539C105.057 61.3709 104.85 61.3259 104.748 61.2299C104.702 61.1949 104.666 61.1486 104.643 61.0956C104.619 61.0426 104.61 60.9845 104.616 60.9269Z" fill="white"/>
<path d="M109.044 67.9409C109.044 67.9409 109.416 67.0409 108.468 66.9329C107.322 66.8733 106.173 66.8733 105.027 66.9329C105.027 66.9329 103.662 67.0769 103.95 68.0549C103.95 68.0549 103.146 68.7749 103.578 69.5549C104.01 70.3349 104.178 70.1009 104.178 70.1009C104.178 70.1009 104.064 71.0519 104.778 71.1929C104.778 71.1929 105.558 72.1139 106.278 72.0569C106.998 71.9999 110.043 70.5329 110.244 70.2569C110.445 69.9809 110.733 69.8069 110.562 69.4859C110.562 69.4859 110.934 68.6429 110.13 68.5139C110.136 68.4989 110.079 67.7999 109.044 67.9409Z" fill="#FFBF9D"/>
<path d="M104.718 68.2619C104.929 68.3059 105.145 68.3221 105.36 68.3099C105.756 68.3099 106.302 68.3099 106.905 68.3099C107.425 68.3251 107.945 68.2949 108.459 68.2199C108.867 68.1239 109.029 67.8839 109.011 67.8779C108.835 67.9896 108.64 68.0679 108.435 68.1089C108.06 68.1719 107.505 68.1329 106.902 68.1539C106.299 68.1749 105.753 68.1809 105.357 68.1989C105.142 68.1942 104.928 68.2154 104.718 68.2619Z" fill="#FF9A6C"/>
<path d="M105.396 69.7017C105.459 69.7388 105.53 69.7623 105.603 69.7707C105.8 69.8108 106.002 69.8239 106.203 69.8097C106.496 69.7873 106.785 69.734 107.067 69.6507C107.385 69.5637 107.724 69.4407 108.081 69.3327C108.413 69.2229 108.756 69.1514 109.104 69.1197C109.405 69.1476 109.707 69.0871 109.974 68.9457C110.078 68.8752 110.152 68.7681 110.181 68.6457C110.2 68.5542 110.188 68.4589 110.145 68.3757C110.07 68.2407 109.968 68.2317 109.971 68.2377C109.974 68.2437 110.043 68.2797 110.088 68.4027C110.117 68.486 110.115 68.5769 110.082 68.6589C110.05 68.7409 109.989 68.8086 109.911 68.8497C109.655 68.9625 109.373 69.0049 109.095 68.9727C108.735 68.9951 108.379 69.0637 108.036 69.1767L107.028 69.5097C106.756 69.5943 106.477 69.6566 106.194 69.6957C105.928 69.7138 105.662 69.7158 105.396 69.7017Z" fill="#FF9A6C"/>
<path d="M106.416 70.9167C106.634 70.9042 106.85 70.8628 107.058 70.7937C107.448 70.6947 107.982 70.5417 108.558 70.3527C109.134 70.1637 109.662 69.9687 110.034 69.8157C110.245 69.7493 110.447 69.6555 110.634 69.5367C110.616 69.4947 109.68 69.8367 108.534 70.1997C107.388 70.5627 106.404 70.8747 106.416 70.9167Z" fill="#FF9A6C"/>
<path d="M106.173 72.045C106.352 72.0608 106.533 72.0404 106.704 71.985C107.122 71.8834 107.53 71.7397 107.919 71.556C108.375 71.349 108.774 71.136 109.062 70.983C109.227 70.9135 109.38 70.8205 109.518 70.707C108.943 70.8927 108.386 71.1286 107.853 71.412C106.956 71.844 106.167 72 106.173 72.045Z" fill="#FF9A6C"/>
<path d="M136.479 63.4677C136.479 63.4677 134.541 71.2317 132.12 74.0997C129.774 76.8777 126.099 75.5997 124.827 71.9997C123.555 68.3997 121.287 60.2067 121.287 60.2067L124.071 58.0767L128.871 67.4037L131.04 61.0467L136.479 63.4677Z" fill="#FFBF9D"/>
<path d="M121.416 60.4289L119.373 57.4679C119.076 57.4037 118.785 57.3133 118.503 57.1979C118.272 57.0629 118.044 55.8869 118.05 55.6589C118.056 55.4309 117.654 54.8939 117.816 54.7409C117.978 54.5879 118.524 54.5789 118.494 54.3599C118.494 54.3119 118.089 53.8199 118.407 53.4599C118.582 53.344 118.778 53.2616 118.983 53.2169L118.95 52.0859C118.95 52.0859 119.55 50.7539 120.183 51.2369C120.183 51.2369 122.532 53.0369 122.769 53.3369C123.006 53.6369 123.912 57.3839 124.071 58.0889" fill="#FFBF9D"/>
<path d="M124.071 58.0829C124.068 58.016 124.058 57.9497 124.041 57.8849C124.008 57.7409 123.969 57.5549 123.918 57.3209C123.81 56.8289 123.645 56.1209 123.423 55.2479C123.309 54.8099 123.186 54.3479 123.027 53.8229C122.988 53.6969 122.946 53.5679 122.892 53.4359C122.83 53.3015 122.735 53.1849 122.616 53.0969C122.4 52.9079 122.175 52.7219 121.944 52.5329C121.479 52.1579 120.984 51.7679 120.471 51.3689C120.342 51.2536 120.196 51.1576 120.039 51.0839C119.947 51.0619 119.852 51.0619 119.76 51.0838C119.668 51.1057 119.583 51.1489 119.511 51.2099C119.243 51.443 119.029 51.7317 118.884 52.0559V52.0739C118.884 52.1849 118.884 52.3019 118.884 52.4189C118.884 52.6829 118.884 52.9469 118.908 53.2049L118.962 53.1329C118.82 53.1671 118.682 53.2133 118.548 53.2709C118.473 53.3019 118.405 53.3467 118.347 53.4029C118.295 53.4634 118.256 53.5338 118.233 53.6099C118.195 53.7597 118.207 53.9181 118.269 54.0599C118.294 54.1276 118.325 54.1929 118.362 54.2549L118.413 54.3419V54.3629C118.414 54.3698 118.414 54.377 118.413 54.3839C118.413 54.4079 118.353 54.4439 118.296 54.4649C118.239 54.4859 118.176 54.5069 118.113 54.5279C118.048 54.5453 117.984 54.5663 117.921 54.5909C117.842 54.6136 117.774 54.6622 117.726 54.7289C117.695 54.8058 117.695 54.892 117.726 54.9689C117.744 55.0336 117.767 55.0968 117.795 55.1579C117.846 55.2779 117.903 55.3919 117.945 55.5029C117.966 55.5534 117.978 55.6072 117.981 55.6619C117.982 55.7262 117.988 55.7904 117.999 55.8539C118.017 55.9769 118.038 56.0969 118.065 56.2169C118.112 56.4481 118.175 56.6757 118.254 56.8979C118.292 57.014 118.353 57.1212 118.434 57.2129C118.532 57.2763 118.639 57.3239 118.752 57.3539C118.959 57.4169 119.163 57.4679 119.352 57.5129L119.319 57.4919L120.819 59.6399L121.239 60.2219C121.286 60.292 121.338 60.3583 121.395 60.4199C121.357 60.3453 121.313 60.2731 121.266 60.2039L120.87 59.6039C120.513 59.0729 120.012 58.3319 119.397 57.4259V57.4079H119.4C119.208 57.3599 119.007 57.3059 118.8 57.2429C118.704 57.2155 118.612 57.1751 118.527 57.1229C118.462 57.0439 118.414 56.9533 118.383 56.8559C118.306 56.6387 118.246 56.4161 118.203 56.1899C118.179 56.0729 118.158 55.9559 118.14 55.8359C118.14 55.7789 118.14 55.7159 118.14 55.6619C118.137 55.592 118.123 55.5231 118.098 55.4579C118.053 55.3349 117.996 55.2209 117.948 55.1039C117.922 55.049 117.901 54.9917 117.885 54.9329C117.869 54.8883 117.869 54.8395 117.885 54.7949C117.919 54.759 117.963 54.7331 118.011 54.7199C118.071 54.6963 118.132 54.6763 118.194 54.6599C118.257 54.6389 118.323 54.6209 118.389 54.5939C118.472 54.5683 118.541 54.5112 118.581 54.4349C118.592 54.4104 118.597 54.3837 118.596 54.3569C118.595 54.338 118.59 54.3195 118.581 54.3029V54.2789L118.53 54.1919C118.498 54.135 118.47 54.0758 118.446 54.0149C118.398 53.9023 118.387 53.777 118.416 53.6579C118.432 53.6002 118.461 53.5469 118.5 53.5019C118.545 53.4622 118.597 53.4307 118.653 53.4089C118.779 53.3546 118.91 53.3105 119.043 53.2769L119.097 53.2619V53.2049C119.097 52.9469 119.082 52.6859 119.073 52.4219C119.073 52.3049 119.073 52.1849 119.073 52.0769V52.1099C119.206 51.8071 119.404 51.5369 119.652 51.3179C119.705 51.2687 119.77 51.2334 119.84 51.2151C119.91 51.1968 119.984 51.196 120.054 51.2129C120.194 51.2815 120.324 51.3683 120.441 51.4709C120.957 51.8699 121.452 52.2569 121.917 52.6289C122.151 52.8149 122.376 52.9979 122.589 53.1809C122.697 53.2574 122.783 53.3608 122.838 53.4809C122.889 53.6039 122.931 53.7329 122.973 53.8559C123.132 54.3599 123.273 54.8369 123.381 55.2689C123.606 56.1299 123.792 56.8289 123.921 57.3299C123.984 57.5609 124.032 57.7469 124.068 57.8879C124.062 57.9528 124.063 58.0182 124.071 58.0829Z" fill="#FF9A6C"/>
<path d="M118.983 53.217C118.983 53.241 119.22 53.217 119.583 53.259C119.8 53.2925 120.015 53.3417 120.225 53.406C120.501 53.4451 120.78 53.4451 121.056 53.406C121.293 53.3728 121.534 53.3939 121.761 53.4677C121.988 53.5415 122.195 53.6661 122.367 53.832C122.5 53.9797 122.607 54.1492 122.682 54.333C122.683 54.2262 122.663 54.1202 122.622 54.0216C122.58 53.923 122.519 53.834 122.442 53.76C122.286 53.5883 122.093 53.454 121.878 53.367C121.614 53.2645 121.328 53.2285 121.047 53.262C120.783 53.2949 120.516 53.2949 120.252 53.262C120.035 53.2017 119.813 53.1625 119.589 53.145C119.384 53.1287 119.178 53.1532 118.983 53.217Z" fill="#FF9A6C"/>
<path d="M119.814 53.1538C119.847 53.1718 119.943 53.0339 119.931 52.8389C119.919 52.6439 119.808 52.5209 119.778 52.5389C119.748 52.5569 119.778 52.6889 119.778 52.8389C119.778 52.9889 119.775 53.1388 119.814 53.1538Z" fill="#FF9A6C"/>
<path d="M118.422 54.4017C119.016 54.4583 119.614 54.4116 120.192 54.2637C120.402 54.1948 120.623 54.1663 120.843 54.1797C121.014 54.2173 121.164 54.3167 121.266 54.4587C121.354 54.5999 121.433 54.7473 121.5 54.8997C121.51 54.7179 121.459 54.538 121.353 54.3897C121.245 54.215 121.073 54.09 120.873 54.0417C120.635 54.0138 120.393 54.0373 120.165 54.1107C119.214 54.3267 118.422 54.3597 118.422 54.4017Z" fill="#FF9A6C"/>
<path d="M118.11 55.4696C118.253 55.503 118.402 55.503 118.545 55.4696C118.812 55.4396 119.172 55.3466 119.562 55.2686C119.742 55.2285 119.927 55.2103 120.111 55.2146C120.255 55.2171 120.393 55.2679 120.504 55.3586C120.604 55.4504 120.672 55.5711 120.699 55.7036C120.699 55.7036 120.726 55.6646 120.723 55.5836C120.711 55.4695 120.659 55.3633 120.576 55.2836C120.455 55.1638 120.294 55.0923 120.123 55.0826C119.922 55.0687 119.72 55.0839 119.523 55.1276C119.121 55.2056 118.773 55.3136 118.515 55.3676C118.377 55.3878 118.241 55.422 118.11 55.4696Z" fill="#FF9A6C"/>
<path d="M118.8 56.3159C118.776 56.3339 118.977 56.5439 119.343 56.5439L119.271 56.4809C119.271 56.5439 119.271 56.6069 119.292 56.6699C119.302 56.9271 119.359 57.1803 119.46 57.4169C119.5 57.1637 119.492 56.9052 119.436 56.6549L119.409 56.4659V56.3999H119.346C119.161 56.3923 118.978 56.3641 118.8 56.3159Z" fill="#FF9A6C"/>
<path d="M133.413 55.605C133.413 55.605 137.382 56.565 137.373 61.83C137.364 67.095 136.173 69.693 136.173 69.693L128.856 65.7L130.5 61.611L133.413 55.605Z" fill="#455A64"/>
<path d="M136.173 69.6926C136.12 69.6773 136.07 69.6551 136.023 69.6266L135.597 69.4106L134.037 68.5886L128.82 65.7776L128.76 65.7476L128.784 65.6846L129.177 64.6586C129.645 63.4436 130.077 62.2856 130.497 61.2326C130.701 60.7076 130.893 60.2066 131.076 59.7326C131.236 59.2923 131.429 58.865 131.655 58.4546C131.956 57.8406 132.411 57.3147 132.975 56.9276C133.133 56.8285 133.308 56.7584 133.491 56.7206C133.537 56.7107 133.585 56.7047 133.632 56.7026H133.683C133.443 56.7526 133.214 56.8461 133.008 56.9786C132.467 57.3745 132.034 57.9008 131.751 58.5086C131.535 58.9176 131.35 59.3417 131.196 59.7776C131.019 60.2486 130.83 60.7496 130.629 61.2776L129.321 64.7096L128.928 65.7356L128.892 65.6396L134.1 68.4986L135.636 69.3626L136.047 69.6026C136.092 69.6279 136.134 69.6581 136.173 69.6926Z" fill="#263238"/>
</svg>
