<svg width="150" height="150" viewBox="0 0 150 150" fill="none" xmlns="http://www.w3.org/2000/svg">
<path d="M99.6541 27.6238H119.379C119.379 27.6238 117.636 24.4498 112.557 24.9238C107.709 25.3648 107.457 23.3608 104.997 23.1238C102.537 22.8868 100.476 24.7468 99.6541 27.6238Z" fill="#E0E0E0"/>
<path d="M48.096 79.7697C48.096 79.7697 46.119 80.8377 48.996 84.9657C51.873 89.0937 53.745 91.0737 53.745 91.0737C53.745 91.0737 54.291 92.0487 53.445 92.3277C52.599 92.6067 50.646 92.5677 50.406 93.6807C50.157 94.8387 51.102 95.7807 52.848 96.4557C54.594 97.1307 58.368 98.7897 58.707 98.9397C59.046 99.0897 59.418 99.5247 58.872 99.8067C58.326 100.089 54.093 101.13 54.705 103.107C55.317 105.084 60.501 106.203 61.065 106.335C61.629 106.467 61.788 106.677 61.785 106.977C61.782 107.277 60.327 107.493 59.133 107.838C57.939 108.183 56.619 108.795 57.069 109.908C57.519 111.021 60.777 113.04 67.971 112.755L71.295 112.407L72.711 109.362C75.342 102.663 74.511 98.9217 73.611 98.1297C72.711 97.3377 71.697 98.3877 70.98 99.4017C70.263 100.416 69.579 101.718 69.294 101.622C69.009 101.526 68.865 101.307 68.925 100.722C68.985 100.137 69.636 94.8837 67.968 93.6537C66.3 92.4237 63.924 96.0777 63.468 96.5007C63.012 96.9237 62.733 96.4257 62.703 96.0597C62.673 95.6937 62.358 91.5867 62.283 89.7087C62.208 87.8307 61.641 86.6367 60.468 86.4927C59.295 86.3487 58.734 88.2087 58.191 88.9167C57.648 89.6247 56.907 88.7877 56.907 88.7877C56.907 88.7877 55.65 86.3697 52.707 82.2957C49.764 78.2217 48.057 79.7997 48.057 79.7997" fill="#EBEBEB"/>
<path d="M71.5741 113.166C69.4171 110.166 65.6761 104.766 62.4391 100.149C59.2021 95.5317 56.2711 91.3557 54.1291 88.3437C53.0581 86.8437 52.1941 85.6257 51.5911 84.7827L50.9011 83.8107L50.7241 83.5587C50.6851 83.5017 50.6671 83.4688 50.6671 83.4688C50.6671 83.4688 50.6911 83.4957 50.7331 83.5527L50.9191 83.7987L51.6241 84.7587C52.2241 85.5897 53.1241 86.8017 54.1891 88.3017C56.3461 91.3017 59.2891 95.4717 62.5231 100.089C65.7571 104.706 69.4921 110.112 71.6341 113.121" fill="#E0E0E0"/>
<path d="M53.136 93.8486C53.2169 93.852 53.2973 93.863 53.376 93.8816C53.529 93.9086 53.7481 93.9536 54.0211 94.0136C54.5641 94.1306 55.3081 94.3136 56.1211 94.5296L58.2211 95.0906L58.857 95.2586C58.9366 95.2722 59.0141 95.2953 59.0881 95.3276C59.0072 95.3266 58.9267 95.3165 58.8481 95.2976C58.6951 95.2706 58.476 95.2256 58.203 95.1626C57.663 95.0396 56.919 94.8626 56.103 94.6316L54.003 94.0856L53.367 93.9206C53.2872 93.9071 53.2095 93.8829 53.136 93.8486Z" fill="#E0E0E0"/>
<path d="M59.286 95.0996C59.256 95.0996 59.565 93.5396 59.973 91.6316C60.381 89.7236 60.738 88.1786 60.765 88.1846C60.792 88.1906 60.486 89.7416 60.075 91.6526C59.664 93.5636 59.313 95.0996 59.286 95.0996Z" fill="#E0E0E0"/>
<path d="M63.936 102.399C63.9618 102.321 63.9971 102.246 64.041 102.177L64.359 101.577C64.626 101.079 64.995 100.377 65.37 99.6087C65.745 98.8407 66.069 98.1087 66.294 97.6017L66.564 96.9867C66.59 96.9076 66.6274 96.8328 66.675 96.7646C66.6584 96.8457 66.6343 96.925 66.603 97.0017C66.549 97.1517 66.468 97.3646 66.363 97.6286C66.153 98.1566 65.844 98.8767 65.463 99.6567C65.082 100.437 64.704 101.121 64.422 101.613C64.278 101.856 64.158 102.054 64.074 102.186C64.0349 102.261 63.9887 102.332 63.936 102.399Z" fill="#E0E0E0"/>
<path d="M58.1281 102.507C58.2013 102.487 58.2771 102.478 58.3531 102.48L58.9741 102.444C59.4961 102.417 60.2191 102.39 61.0171 102.363C61.8151 102.336 62.5381 102.321 63.0631 102.315H63.6841C63.7599 102.308 63.8362 102.308 63.9121 102.315C63.8378 102.335 63.7611 102.345 63.6841 102.345L63.0661 102.381C62.5411 102.405 61.8181 102.435 61.0201 102.459C60.2221 102.483 59.4991 102.501 58.9741 102.507H58.3561C58.2803 102.516 58.2038 102.516 58.1281 102.507Z" fill="#E0E0E0"/>
<path d="M61.413 109.5C61.5115 109.478 61.6121 109.467 61.713 109.467L62.508 109.419C63.177 109.383 64.104 109.338 65.127 109.296C66.15 109.254 67.077 109.224 67.746 109.206L68.541 109.188C68.6409 109.18 68.7412 109.18 68.841 109.188C68.7421 109.207 68.6418 109.218 68.541 109.221L67.746 109.269C67.077 109.305 66.15 109.35 65.127 109.392C64.104 109.434 63.177 109.464 62.508 109.482L61.713 109.5C61.6132 109.508 61.5129 109.508 61.413 109.5Z" fill="#E0E0E0"/>
<path d="M68.643 109.14C68.6769 109.041 68.7191 108.946 68.769 108.855L69.147 108.09C69.465 107.445 69.897 106.554 70.347 105.555C70.797 104.556 71.187 103.644 71.463 102.978L71.79 102.192C71.8259 102.095 71.869 102 71.919 101.91C71.8982 102.013 71.8671 102.113 71.826 102.21C71.76 102.402 71.661 102.675 71.526 103.008C71.268 103.68 70.89 104.601 70.437 105.6C69.984 106.599 69.537 107.49 69.204 108.126C69.036 108.444 68.904 108.702 68.796 108.876C68.7517 108.967 68.7005 109.056 68.643 109.14Z" fill="#E0E0E0"/>
<path d="M96.5401 64.8656C92.9701 60.8606 93.3121 55.0796 94.6651 50.1326C94.8901 49.3046 95.0071 48.4046 95.5651 47.7686C96.1231 47.1326 97.1791 46.8506 97.8421 47.3786C98.3911 47.8166 98.4901 48.5996 98.6941 49.2776C98.9652 50.1792 99.4851 50.9861 100.194 51.6056C100.659 52.0076 101.274 52.3286 101.868 52.1666C102.681 51.9386 102.999 50.9666 103.191 50.1356C103.545 48.5896 103.901 47.0436 104.259 45.4976C104.407 44.6587 104.688 43.8486 105.09 43.0976C105.534 42.3716 106.29 41.7776 107.118 41.7446C107.946 41.7116 108.825 42.3956 108.798 43.2446C108.748 43.5951 108.675 43.9419 108.579 44.2826C108.534 44.4528 108.54 44.6324 108.596 44.7993C108.652 44.9662 108.755 45.113 108.894 45.2216C109.194 45.3986 109.587 45.2426 109.893 45.0566C110.946 44.4236 111.783 43.4846 112.578 42.5396C113.373 41.5946 114.159 40.6256 115.152 39.8966C116.145 39.1676 117.387 38.6966 118.59 38.9126C119.793 39.1286 120.882 40.1606 120.906 41.3936C120.93 42.6266 119.97 43.6586 119.004 44.4266C117.577 45.5668 115.992 46.4954 114.3 47.1836C113.98 47.2728 113.697 47.462 113.493 47.7236C113.193 48.2336 113.574 48.9056 114.075 49.2236C114.645 49.5746 115.329 49.6706 115.959 49.8986C116.589 50.1266 117.219 50.5796 117.318 51.2456C117.456 52.1726 116.538 52.8926 115.704 53.3096C114.034 54.1396 112.234 54.6774 110.382 54.8996C109.719 54.9776 109.032 55.0226 108.438 55.3316C107.844 55.6406 107.373 56.3186 107.538 56.9726C107.703 57.6266 108.414 57.9956 109.08 58.0256C109.746 58.0556 110.4 57.8486 111.063 57.7646C112.302 57.6026 113.763 58.0286 114.249 59.1866C114.393 59.5801 114.444 60.0019 114.397 60.4185C114.35 60.835 114.207 61.235 113.979 61.5866C113.522 62.2804 112.931 62.8752 112.239 63.3356C109.922 65.0745 107.185 66.1677 104.307 66.5036C101.451 66.8036 98.9431 66.4616 96.5461 64.8806" fill="#F5F5F5"/>
<path d="M97.2661 65.346C97.9141 63.414 97.2361 64.383 98.5711 62.046C100.043 59.5234 101.659 57.0874 103.41 54.75C103.87 54.126 104.325 53.511 104.775 52.905C105.225 52.305 105.675 51.705 106.143 51.138C107.054 50.0659 108.022 49.0443 109.044 48.078C110.013 47.148 110.967 46.302 111.867 45.516C112.767 44.73 113.619 44.016 114.423 43.401C115.689 42.42 117.03 41.5403 118.434 40.77C118.929 40.497 119.334 40.299 119.589 40.17L119.889 40.023L119.994 39.978C119.963 40.0013 119.93 40.0214 119.895 40.038L119.595 40.2C119.331 40.341 118.944 40.548 118.455 40.827C117.068 41.6171 115.742 42.5106 114.489 43.5C113.691 44.121 112.845 44.838 111.951 45.624C111.057 46.41 110.109 47.262 109.143 48.192C108.128 49.158 107.166 50.1775 106.26 51.246C105.792 51.804 105.36 52.401 104.901 53.007L103.536 54.852C101.791 57.1815 100.176 59.6063 98.7001 62.115C97.3621 64.446 98.034 63.462 97.374 65.382" fill="#E0E0E0"/>
<path d="M106.2 51.1436C106.188 51.0199 106.188 50.8953 106.2 50.7716C106.2 50.5316 106.239 50.1716 106.278 49.7606C106.356 48.9056 106.506 47.7326 106.674 46.4396C106.842 45.1466 106.974 43.9736 107.037 43.1216C107.07 42.6956 107.094 42.3536 107.109 42.1136C107.108 41.9895 107.121 41.8657 107.148 41.7446C107.168 41.8676 107.175 41.9922 107.169 42.1166C107.169 42.3536 107.169 42.7166 107.148 43.1276C107.112 43.9856 106.998 45.1646 106.827 46.4606C106.656 47.7566 106.506 48.8906 106.389 49.7606C106.338 50.1596 106.296 50.4956 106.263 50.7656C106.256 50.8936 106.235 51.0203 106.2 51.1436Z" fill="#E0E0E0"/>
<path d="M117.3 51.6746C117.154 51.6736 117.008 51.6575 116.865 51.6266C116.586 51.5846 116.181 51.5246 115.68 51.4646C114.681 51.3386 113.28 51.2156 111.756 51.1436C110.232 51.0716 108.825 51.0716 107.814 51.0986C107.31 51.0986 106.914 51.1286 106.614 51.1406C106.467 51.1529 106.32 51.1529 106.173 51.1406C106.317 51.105 106.463 51.0829 106.611 51.0746C106.893 51.0446 107.301 51.0086 107.811 50.9846C108.822 50.9276 110.211 50.9126 111.765 50.9846C113.081 51.0416 114.394 51.1647 115.698 51.3536C116.196 51.4286 116.598 51.5066 116.877 51.5636C117.021 51.5869 117.163 51.6241 117.3 51.6746Z" fill="#E0E0E0"/>
<path d="M98.748 61.8778C98.7261 61.8315 98.7119 61.7818 98.706 61.7308C98.682 61.6138 98.652 61.4728 98.613 61.3018C98.538 60.9298 98.439 60.4018 98.328 59.7178C98.103 58.3768 97.851 56.5138 97.599 54.4528C97.347 52.3918 97.113 50.5288 96.918 49.1848C96.822 48.5308 96.741 47.9848 96.681 47.5948C96.657 47.4208 96.636 47.2768 96.618 47.1598C96.6133 47.1089 96.6133 47.0577 96.618 47.0068C96.6397 47.0536 96.6548 47.103 96.663 47.1538L96.753 47.5828C96.831 47.9548 96.927 48.4828 97.038 49.1668C97.263 50.5078 97.515 52.3708 97.767 54.4318C98.019 56.4928 98.253 58.3558 98.448 59.6998C98.547 60.3538 98.625 60.8998 98.685 61.2928C98.712 61.4638 98.73 61.6078 98.748 61.7248C98.7546 61.7756 98.7546 61.827 98.748 61.8778Z" fill="#E0E0E0"/>
<path d="M113.979 60.6687C113.93 60.6846 113.878 60.6927 113.826 60.6927L113.382 60.7347L111.75 60.8667C110.373 60.9777 108.471 61.1667 106.371 61.3527C104.271 61.5387 102.363 61.7097 100.971 61.7937C100.281 61.8357 99.723 61.8627 99.336 61.8747H98.892C98.8403 61.8825 98.7877 61.8825 98.736 61.8747C98.7858 61.8603 98.8372 61.8523 98.889 61.8507L99.333 61.8087L100.965 61.6767C102.342 61.5657 104.244 61.3767 106.344 61.1907C108.444 61.0047 110.349 60.8337 111.744 60.7527C112.437 60.7107 112.995 60.6807 113.382 60.6687H113.826C113.877 60.6625 113.928 60.6625 113.979 60.6687Z" fill="#E0E0E0"/>
<path d="M125.793 91.1997C125.783 91.2484 125.766 91.2957 125.745 91.3407L125.58 91.7397C125.427 92.0997 125.211 92.6067 124.941 93.2397L122.628 98.5887L122.613 98.6187H122.58L115.314 99.8187L112.878 100.218L112.767 100.236L112.794 100.128C113.394 97.7907 113.931 95.6277 114.396 93.8127L114.429 93.8817L110.16 91.9737L108.981 91.4367L108.681 91.2927C108.645 91.2775 108.611 91.2584 108.579 91.2357L108.687 91.2747L109.002 91.4037L110.202 91.9107L114.492 93.7707L114.54 93.7917V93.8397C114.084 95.6697 113.547 97.8237 112.965 100.164L112.881 100.074L115.317 99.6717L122.586 98.4897L122.535 98.5287L124.896 93.2037C125.181 92.5677 125.409 92.0637 125.571 91.7037L125.751 91.3107C125.763 91.2729 125.777 91.2358 125.793 91.1997Z" fill="#E0E0E0"/>
<path d="M113.73 99.375L113.529 99.897L113.847 100.359L113.289 100.332L112.95 100.776L112.803 100.236L112.275 100.05L112.743 99.744L112.758 99.186L113.193 99.537L113.73 99.375Z" fill="#E0E0E0"/>
<path d="M108.741 90.8997L108.642 91.1607L108.798 91.3887L108.522 91.3737L108.354 91.5957L108.279 91.3287L108.018 91.2357L108.249 91.0827L108.258 90.8037L108.474 90.9777L108.741 90.8997Z" fill="#E0E0E0"/>
<path d="M122.832 98.2678L122.733 98.5288L122.889 98.7568L122.613 98.7448L122.445 98.9668L122.37 98.6968L122.109 98.6068L122.34 98.4538L122.346 98.1748L122.565 98.3488L122.832 98.2678Z" fill="#E0E0E0"/>
<path d="M114.699 93.5906L114.6 93.8486L114.759 94.0796L114.48 94.0646L114.312 94.2866L114.24 94.0166L113.976 93.9266L114.21 93.7736L114.216 93.4946L114.432 93.6686L114.699 93.5906Z" fill="#E0E0E0"/>
<path d="M126.132 90.9387L126.033 91.1997L126.192 91.4277L125.913 91.4157L125.745 91.6377L125.673 91.3677L125.409 91.2747L125.643 91.1247L125.649 90.8457L125.865 91.0197L126.132 90.9387Z" fill="#E0E0E0"/>
<path d="M35.202 112.773H50.91C50.91 112.773 49.521 110.244 45.477 110.613C41.616 110.964 41.421 109.368 39.456 109.173C37.491 108.978 35.859 110.481 35.202 112.773Z" fill="#E0E0E0"/>
<path d="M38.322 50.9367H54.027C54.027 50.9367 52.638 48.4107 48.594 48.7767C44.736 49.1307 44.538 47.5347 42.576 47.3397C40.614 47.1447 38.976 48.6477 38.322 50.9367Z" fill="#F5F5F5"/>
<path d="M118.086 61.8599H130.986C130.986 61.8599 129.846 59.7839 126.525 60.0839C123.351 60.3839 123.189 59.0639 121.578 58.9019C119.967 58.7399 118.623 59.9789 118.086 61.8599Z" fill="#F5F5F5"/>
<path d="M92.319 87.3269C92.961 82.4939 89.562 78.5039 85.314 76.1069C81.066 73.7099 76.137 72.8999 71.445 71.5739C67.02 70.3169 62.619 68.4809 59.343 65.2529C56.067 62.0249 54.099 57.1739 55.275 52.7279C55.575 51.6119 56.1 50.4899 57.06 49.8449C58.02 49.1999 59.481 49.2179 60.198 50.1239C61.722 52.0559 58.752 55.5239 60.612 57.1259C61.038 57.4979 61.626 57.6329 62.067 57.9839C63.24 58.9229 62.862 60.7439 63.027 62.2379C63.354 65.1929 66.126 67.2449 68.847 68.4419C72.492 70.0439 76.44 70.7969 80.304 71.7419C84.168 72.6869 88.071 73.8899 91.29 76.2419C94.509 78.5939 97.308 82.2419 97.29 86.2289C97.29 87.3419 97.143 88.7099 96.444 89.5739C95.745 90.4379 94.857 90.6209 93.849 90.1469C92.841 89.6729 92.139 88.9469 92.325 87.3329" fill="#6556D0"/>
<g opacity="0.8">
<path d="M92.319 87.3269C92.961 82.4939 89.562 78.5039 85.314 76.1069C81.066 73.7099 76.137 72.8999 71.445 71.5739C67.02 70.3169 62.619 68.4809 59.343 65.2529C56.067 62.0249 54.099 57.1739 55.275 52.7279C55.575 51.6119 56.1 50.4899 57.06 49.8449C58.02 49.1999 59.481 49.2179 60.198 50.1239C61.722 52.0559 58.752 55.5239 60.612 57.1259C61.038 57.4979 61.626 57.6329 62.067 57.9839C63.24 58.9229 62.862 60.7439 63.027 62.2379C63.354 65.1929 66.126 67.2449 68.847 68.4419C72.492 70.0439 76.44 70.7969 80.304 71.7419C84.168 72.6869 88.071 73.8899 91.29 76.2419C94.509 78.5939 97.308 82.2419 97.29 86.2289C97.29 87.3419 97.143 88.7099 96.444 89.5739C95.745 90.4379 94.857 90.6209 93.849 90.1469C92.841 89.6729 92.139 88.9469 92.325 87.3329" fill="white"/>
</g>
<path d="M71.769 48.8998C71.616 47.0998 72.951 45.5488 74.469 44.7148C75.987 43.8808 77.727 43.5388 79.29 42.7978C83.175 40.9558 85.644 36.6208 85.827 32.1778C86.01 27.7348 84.081 23.2888 81.069 20.0248C79.842 18.6988 78.336 17.3068 78.318 15.4978C78.3 13.6078 80.118 12.1198 81.96 12.1438C83.802 12.1678 85.476 13.3948 86.571 14.9338C87.666 16.4728 88.269 18.2998 88.86 20.0998C88.44 19.3438 89.301 18.4108 90.135 18.4918C90.969 18.5728 91.635 19.2658 92.136 19.9558C94.3555 22.9693 95.42 26.6791 95.136 30.4108C94.8354 34.073 93.1769 37.4906 90.486 39.9928C87.525 42.6928 83.61 43.9558 79.812 45.1558L71.889 47.6548" fill="#6556D0"/>
<g opacity="0.8">
<path d="M71.769 48.8998C71.616 47.0998 72.951 45.5488 74.469 44.7148C75.987 43.8808 77.727 43.5388 79.29 42.7978C83.175 40.9558 85.644 36.6208 85.827 32.1778C86.01 27.7348 84.081 23.2888 81.069 20.0248C79.842 18.6988 78.336 17.3068 78.318 15.4978C78.3 13.6078 80.118 12.1198 81.96 12.1438C83.802 12.1678 85.476 13.3948 86.571 14.9338C87.666 16.4728 88.269 18.2998 88.86 20.0998C88.44 19.3438 89.301 18.4108 90.135 18.4918C90.969 18.5728 91.635 19.2658 92.136 19.9558C94.3555 22.9693 95.42 26.6791 95.136 30.4108C94.8354 34.073 93.1769 37.4906 90.486 39.9928C87.525 42.6928 83.61 43.9558 79.812 45.1558L71.889 47.6548" fill="white"/>
</g>
<path d="M69.564 11.2559C69.1622 11.4216 68.84 11.7361 68.6645 12.1337C68.489 12.5313 68.4739 12.9814 68.6222 13.3899C68.7706 13.7984 69.071 14.1339 69.4607 14.3262C69.8504 14.5186 70.2994 14.5531 70.7139 14.4224C71.1284 14.2918 71.4764 14.0061 71.6854 13.625C71.8943 13.2439 71.948 12.7968 71.8353 12.3771C71.7226 11.9573 71.4521 11.5973 71.0803 11.3722C70.7085 11.1471 70.2642 11.0742 69.84 11.1689" fill="#6556D0"/>
<g opacity="0.8">
<path d="M69.564 11.2559C69.1622 11.4216 68.84 11.7361 68.6645 12.1337C68.489 12.5313 68.4739 12.9814 68.6222 13.3899C68.7706 13.7984 69.071 14.1339 69.4607 14.3262C69.8504 14.5186 70.2994 14.5531 70.7139 14.4224C71.1284 14.2918 71.4764 14.0061 71.6854 13.625C71.8943 13.2439 71.948 12.7968 71.8353 12.3771C71.7226 11.9573 71.4521 11.5973 71.0803 11.3722C70.7085 11.1471 70.2642 11.0742 69.84 11.1689" fill="white"/>
</g>
<path d="M79.335 126.852C78.363 124.839 79.212 122.328 80.76 120.714C82.308 119.1 84.42 118.179 86.46 117.279C90.978 115.287 95.76 112.917 98.055 108.549C98.829 107.076 99.27 105.456 99.705 103.848C100.548 100.74 101.34 97.2088 99.645 94.4698C99.156 93.6808 98.424 92.9698 97.512 92.8198C96.471 92.6338 95.412 93.2068 94.764 94.0438C94.1632 94.9184 93.8022 95.9352 93.717 96.9928C93.465 98.9818 93.675 101.007 93.465 102.993C93.255 104.979 92.532 107.1 90.9 108.234C88.899 109.629 86.046 109.317 84.105 110.79C82.536 111.99 81.939 114.042 80.715 115.59C79.683 116.883 78.24 117.765 76.92 118.761C75.6 119.757 74.322 120.969 73.872 122.562C73.6359 123.395 73.6449 124.278 73.898 125.105C74.1511 125.933 74.6375 126.67 75.299 127.228C75.9604 127.787 76.7688 128.142 77.6273 128.253C78.4857 128.363 79.3578 128.224 80.139 127.851" fill="#6556D0"/>
<g opacity="0.8">
<path d="M79.335 126.852C78.363 124.839 79.212 122.328 80.76 120.714C82.308 119.1 84.42 118.179 86.46 117.279C90.978 115.287 95.76 112.917 98.055 108.549C98.829 107.076 99.27 105.456 99.705 103.848C100.548 100.74 101.34 97.2088 99.645 94.4698C99.156 93.6808 98.424 92.9698 97.512 92.8198C96.471 92.6338 95.412 93.2068 94.764 94.0438C94.1632 94.9184 93.8022 95.9352 93.717 96.9928C93.465 98.9818 93.675 101.007 93.465 102.993C93.255 104.979 92.532 107.1 90.9 108.234C88.899 109.629 86.046 109.317 84.105 110.79C82.536 111.99 81.939 114.042 80.715 115.59C79.683 116.883 78.24 117.765 76.92 118.761C75.6 119.757 74.322 120.969 73.872 122.562C73.6359 123.395 73.6449 124.278 73.898 125.105C74.1511 125.933 74.6375 126.67 75.299 127.228C75.9604 127.787 76.7688 128.142 77.6273 128.253C78.4857 128.363 79.3578 128.224 80.139 127.851" fill="white"/>
</g>
<path d="M49.299 25.1579C48.5002 24.5648 47.8544 23.7898 47.4152 22.8971C46.976 22.0044 46.7561 21.0198 46.7737 20.0251C46.7913 19.0304 47.0459 18.0542 47.5164 17.1776C47.9869 16.301 48.6597 15.5493 49.479 14.9849C50.403 14.3519 51.495 13.9619 52.317 13.1849C53.046 12.5069 53.517 11.5679 54.336 10.9979C54.8471 10.6354 55.4607 10.4457 56.0872 10.4565C56.7137 10.4673 57.3203 10.6779 57.8187 11.0577C58.3171 11.4375 58.6811 11.9666 58.8576 12.5678C59.0341 13.169 59.0139 13.8109 58.8 14.3999C58.425 15.4529 57.48 16.2239 57.084 17.2679C56.658 18.3959 56.934 19.6679 56.784 20.8499C56.6858 21.5858 56.4232 22.2901 56.0158 22.9108C55.6083 23.5314 55.0664 24.0523 54.4302 24.435C53.7939 24.8176 53.0798 25.0522 52.3405 25.1212C51.6013 25.1903 50.8561 25.0921 50.16 24.8339" fill="#6556D0"/>
<g opacity="0.8">
<path d="M49.299 25.1579C48.5002 24.5648 47.8544 23.7898 47.4152 22.8971C46.976 22.0044 46.7561 21.0198 46.7737 20.0251C46.7913 19.0304 47.0459 18.0542 47.5164 17.1776C47.9869 16.301 48.6597 15.5493 49.479 14.9849C50.403 14.3519 51.495 13.9619 52.317 13.1849C53.046 12.5069 53.517 11.5679 54.336 10.9979C54.8471 10.6354 55.4607 10.4457 56.0872 10.4565C56.7137 10.4673 57.3203 10.6779 57.8187 11.0577C58.3171 11.4375 58.6811 11.9666 58.8576 12.5678C59.0341 13.169 59.0139 13.8109 58.8 14.3999C58.425 15.4529 57.48 16.2239 57.084 17.2679C56.658 18.3959 56.934 19.6679 56.784 20.8499C56.6858 21.5858 56.4232 22.2901 56.0158 22.9108C55.6083 23.5314 55.0664 24.0523 54.4302 24.435C53.7939 24.8176 53.0798 25.0522 52.3405 25.1212C51.6013 25.1903 50.8561 25.0921 50.16 24.8339" fill="white"/>
</g>
<path d="M49.413 18.7261H53.1V26.3251C53.1 26.5382 53.058 26.7493 52.9764 26.9462C52.8949 27.1431 52.7753 27.322 52.6246 27.4727C52.4739 27.6234 52.295 27.743 52.0981 27.8245C51.9011 27.9061 51.6901 27.9481 51.477 27.9481H51.039C50.6085 27.9481 50.1957 27.7771 49.8913 27.4727C49.587 27.1683 49.416 26.7555 49.416 26.3251V18.7261H49.413Z" fill="#6556D0"/>
<path d="M49.413 18.7257L51.255 15.3447L53.1 18.7257H49.413Z" fill="#FFBE9D"/>
<path d="M50.526 16.6827C50.526 16.6827 51.087 17.5257 51.987 16.6827L51.258 15.3447L50.526 16.6827Z" fill="#6556D0"/>
<path d="M53.151 25.9561C52.529 26.0313 51.902 26.0563 51.276 26.0311C50.651 26.0564 50.025 26.0313 49.404 25.9561C50.025 25.8809 50.651 25.8558 51.276 25.8811C51.902 25.8559 52.529 25.8809 53.151 25.9561Z" fill="#263238"/>
<path d="M53.1 25.3888C52.4911 25.4639 51.877 25.489 51.264 25.4638C50.651 25.489 50.0369 25.4639 49.428 25.3888C50.0372 25.3174 50.651 25.2933 51.264 25.3168C51.8769 25.2933 52.4908 25.3174 53.1 25.3888Z" fill="#263238"/>
<path d="M50.496 18.7798C50.535 18.7798 50.571 20.2498 50.571 22.0648C50.571 23.8798 50.535 25.3648 50.496 25.3648C50.457 25.3648 50.421 23.8918 50.421 22.0648C50.421 20.2378 50.454 18.7798 50.496 18.7798Z" fill="#FAFAFA"/>
<path d="M51.987 18.7798C52.029 18.7798 52.062 20.2498 52.062 22.0648C52.062 23.8798 52.029 25.3648 51.987 25.3648C51.945 25.3648 51.912 23.8918 51.912 22.0648C51.912 20.2378 51.945 18.7798 51.987 18.7798Z" fill="#FAFAFA"/>
<path d="M81.447 122.616L98.196 123.333L98.601 124.308L87.621 142.128L67.803 141.549L81.447 122.616Z" fill="#263238"/>
<path d="M67.053 139.812L86.988 140.952L97.404 124.791L90.09 125.385L71.583 131.901L67.053 139.812Z" fill="#E0E0E0"/>
<path d="M64.251 138.615L82.551 138.915C81.792 136.572 83.583 133.275 86.046 132.165C87.678 131.43 90.747 130.476 92.331 129.663C95.331 128.118 98.061 125.196 97.824 122.685L90.3 122.436L80.7 122.064C79.896 124.446 78.18 126.003 75.57 126.942C73.236 127.782 70.578 127.779 68.298 128.742C64.632 130.278 62.871 135.255 64.236 138.624" fill="#EBEBEB"/>
<path d="M64.251 138.615C64.251 138.615 64.233 138.576 64.206 138.495L64.08 138.144C64.0135 137.948 63.9613 137.748 63.924 137.544C63.8628 137.269 63.8207 136.991 63.798 136.71C63.7396 135.931 63.7881 135.148 63.942 134.382C64.155 133.351 64.5535 132.367 65.118 131.478C65.277 131.221 65.4524 130.974 65.643 130.74C65.742 130.623 65.838 130.494 65.943 130.38L66.282 130.035C66.3953 129.917 66.5177 129.807 66.648 129.708C66.777 129.603 66.903 129.492 67.041 129.393C67.3267 129.192 67.6276 129.013 67.941 128.859C69.21 128.22 70.725 127.959 72.303 127.659C73.095 127.515 73.911 127.359 74.727 127.14C75.5666 126.91 76.377 126.584 77.142 126.168C77.5371 125.954 77.9134 125.707 78.267 125.43C78.6313 125.15 78.966 124.833 79.266 124.485C79.8873 123.767 80.3603 122.933 80.658 122.031L80.676 121.98H80.727L88.722 122.28C91.497 122.388 94.368 122.463 97.308 122.562L97.842 122.58H97.908V122.646C97.9481 123.221 97.8663 123.797 97.668 124.338C97.5733 124.605 97.461 124.866 97.332 125.118C97.1995 125.366 97.0533 125.606 96.894 125.838C96.2614 126.746 95.497 127.555 94.626 128.238C93.7838 128.909 92.8643 129.476 91.887 129.927C90.921 130.362 89.943 130.716 88.986 131.07C88.029 131.424 87.081 131.76 86.184 132.15C85.7423 132.346 85.3279 132.598 84.951 132.9C84.756 133.038 84.594 133.215 84.417 133.368C84.24 133.521 84.087 133.707 83.946 133.896C83.3616 134.601 82.9259 135.418 82.665 136.296C82.4003 137.127 82.3846 138.018 82.62 138.858L82.647 138.939H82.563L69.246 138.705L65.553 138.63L64.587 138.603H64.254C64.254 138.603 64.368 138.603 64.587 138.603H65.556L69.249 138.645L82.563 138.831L82.506 138.909C82.2596 138.046 82.2731 137.13 82.545 136.275C82.806 135.377 83.2481 134.542 83.844 133.821C83.985 133.629 84.162 133.464 84.321 133.284C84.48 133.104 84.669 132.945 84.867 132.801C85.2511 132.491 85.6748 132.234 86.127 132.036C87.027 131.64 87.981 131.301 88.938 130.947C89.895 130.593 90.87 130.236 91.827 129.804C92.7913 129.357 93.6979 128.795 94.527 128.13C95.3865 127.458 96.1408 126.661 96.765 125.766C96.9217 125.542 97.0669 125.309 97.2 125.07C97.3255 124.824 97.4347 124.571 97.527 124.311C97.7181 123.79 97.7978 123.235 97.761 122.682L97.833 122.748L97.296 122.733C94.356 122.634 91.485 122.556 88.713 122.433L80.715 122.133L80.784 122.085C80.4778 123.003 79.9947 123.852 79.362 124.584C79.0557 124.938 78.7139 125.26 78.342 125.544C77.9826 125.826 77.5991 126.076 77.196 126.291C76.423 126.711 75.6034 127.04 74.754 127.269C73.929 127.494 73.11 127.644 72.318 127.785C70.74 128.067 69.231 128.331 67.98 128.955C67.6738 129.106 67.3799 129.28 67.101 129.477C66.963 129.573 66.84 129.684 66.711 129.777C66.5817 129.875 66.4603 129.984 66.348 130.101L66 130.446C65.892 130.56 65.799 130.686 65.7 130.803C65.5088 131.033 65.3334 131.275 65.175 131.529C64.6104 132.407 64.2108 133.381 63.996 134.403C63.8349 135.162 63.7793 135.939 63.831 136.713C63.8489 136.992 63.887 137.27 63.945 137.544C63.9785 137.747 64.0266 137.948 64.089 138.144C64.14 138.3 64.176 138.417 64.203 138.501C64.23 138.585 64.251 138.615 64.251 138.615Z" fill="#263238"/>
<path d="M85.857 122.361C85.857 122.361 85.881 122.244 85.899 122.034C85.921 121.739 85.8716 121.442 85.755 121.17C85.5916 120.764 85.2839 120.433 84.891 120.24C84.6502 120.128 84.3893 120.065 84.1238 120.056C83.8583 120.047 83.5937 120.091 83.3457 120.186C83.0977 120.282 82.8713 120.426 82.6802 120.61C82.489 120.795 82.3369 121.016 82.233 121.26C82.0492 121.658 81.9876 122.102 82.056 122.535C82.0995 122.826 82.2015 123.106 82.356 123.357C82.47 123.537 82.554 123.621 82.545 123.63C82.4521 123.566 82.3726 123.485 82.311 123.39C82.1252 123.143 81.9989 122.857 81.942 122.553C81.8529 122.098 81.9063 121.627 82.095 121.203C82.2046 120.94 82.3666 120.703 82.571 120.504C82.7753 120.306 83.0179 120.151 83.2839 120.05C83.55 119.948 83.8339 119.902 84.1184 119.913C84.4029 119.925 84.6821 119.994 84.939 120.117C85.3566 120.329 85.6783 120.691 85.839 121.131C85.9511 121.417 85.9863 121.727 85.941 122.031C85.9289 122.114 85.9088 122.195 85.881 122.274C85.875 122.337 85.863 122.361 85.857 122.361Z" fill="#263238"/>
<path d="M88.728 122.361C88.713 122.361 88.7519 122.244 88.7699 122.034C88.7905 121.739 88.7412 121.443 88.626 121.17C88.4611 120.764 88.1525 120.433 87.7589 120.24C87.5181 120.128 87.2572 120.066 86.9918 120.057C86.7265 120.048 86.462 120.092 86.2141 120.187C85.9662 120.283 85.74 120.426 85.5487 120.611C85.3575 120.795 85.2052 121.016 85.101 121.26C84.918 121.658 84.8574 122.102 84.9269 122.535C84.9692 122.827 85.0713 123.106 85.2269 123.357C85.3409 123.537 85.425 123.621 85.416 123.63C85.3208 123.568 85.24 123.486 85.1789 123.39C84.9944 123.142 84.8682 122.856 84.81 122.553C84.7235 122.097 84.7779 121.627 84.966 121.203C85.0756 120.94 85.2374 120.703 85.4416 120.505C85.6458 120.307 85.8881 120.153 86.1537 120.051C86.4194 119.949 86.7029 119.903 86.9871 119.914C87.2713 119.926 87.5502 119.994 87.807 120.117C88.2246 120.329 88.5463 120.691 88.707 121.131C88.8181 121.417 88.8543 121.727 88.812 122.031C88.8006 122.114 88.7795 122.196 88.7489 122.274C88.7482 122.304 88.741 122.334 88.728 122.361Z" fill="#263238"/>
<path d="M90.8999 122.511C90.8999 122.511 90.9179 122.391 90.9239 122.181C90.9286 121.885 90.8628 121.592 90.7319 121.326C90.5443 120.931 90.2174 120.619 89.8139 120.45C89.5678 120.353 89.3046 120.305 89.0399 120.311C88.7752 120.316 88.5142 120.373 88.2719 120.48C87.7845 120.704 87.4057 121.112 87.2189 121.614C87.0583 122.023 87.0218 122.469 87.1139 122.898C87.1772 123.188 87.2998 123.462 87.4739 123.702C87.5969 123.873 87.6869 123.954 87.6779 123.963C87.58 123.907 87.4952 123.83 87.4289 123.738C87.2295 123.502 87.0869 123.223 87.0119 122.922C86.8994 122.473 86.9266 122 87.0899 121.566C87.1846 121.298 87.3328 121.051 87.5257 120.842C87.7185 120.632 87.952 120.464 88.2118 120.348C88.4716 120.231 88.7525 120.169 89.0372 120.164C89.3219 120.16 89.6045 120.213 89.8679 120.321C90.297 120.509 90.6391 120.852 90.8249 121.281C90.9553 121.562 91.0091 121.873 90.9809 122.181C90.9746 122.265 90.9585 122.347 90.9329 122.427C90.9239 122.484 90.8999 122.511 90.8999 122.511Z" fill="#263238"/>
<path d="M93.243 122.643C93.243 122.643 93.243 122.523 93.243 122.313C93.2331 122.017 93.1518 121.728 93.006 121.47C92.7984 121.085 92.4553 120.79 92.043 120.642C91.7916 120.557 91.5257 120.524 91.2611 120.544C90.9965 120.563 90.7386 120.636 90.5027 120.758C90.2668 120.879 90.0577 121.047 89.8878 121.251C89.718 121.454 89.5909 121.69 89.514 121.944C89.3744 122.36 89.3618 122.808 89.478 123.231C89.557 123.518 89.6938 123.785 89.88 124.017C90.012 124.179 90.105 124.254 90.096 124.266C89.9955 124.214 89.9067 124.141 89.835 124.053C89.624 123.827 89.4671 123.557 89.376 123.261C89.2376 122.819 89.2376 122.345 89.376 121.902C89.457 121.63 89.5919 121.376 89.7728 121.156C89.9537 120.937 90.1768 120.756 90.429 120.624C90.683 120.494 90.9608 120.417 91.2455 120.398C91.5303 120.379 91.8159 120.418 92.085 120.513C92.5219 120.676 92.8817 120.998 93.093 121.413C93.2383 121.69 93.3077 122.001 93.294 122.313C93.2912 122.396 93.2801 122.479 93.261 122.559C93.258 122.616 93.249 122.643 93.243 122.643Z" fill="#263238"/>
<path d="M95.583 122.589C95.583 122.589 95.583 122.469 95.583 122.259C95.5647 121.963 95.4752 121.676 95.322 121.422C95.1036 121.043 94.7533 120.758 94.338 120.621C94.0841 120.543 93.8171 120.516 93.5528 120.543C93.2884 120.57 93.0322 120.65 92.7995 120.778C92.5668 120.907 92.3624 121.08 92.1984 121.29C92.0344 121.499 91.9142 121.739 91.845 121.995C91.7371 122.347 91.7193 122.719 91.7932 123.08C91.8671 123.44 92.0304 123.776 92.268 124.056C92.406 124.215 92.502 124.287 92.493 124.296C92.3903 124.25 92.2991 124.181 92.226 124.095C92.0099 123.874 91.8459 123.608 91.746 123.315C91.5965 122.876 91.585 122.402 91.713 121.956C91.7867 121.681 91.9146 121.424 92.0893 121.199C92.264 120.975 92.4818 120.787 92.73 120.648C92.9801 120.512 93.2553 120.427 93.539 120.4C93.8226 120.374 94.1088 120.405 94.38 120.492C94.8226 120.644 95.192 120.957 95.415 121.368C95.5683 121.643 95.6459 121.953 95.64 122.268C95.6399 122.352 95.6308 122.435 95.613 122.517C95.598 122.559 95.589 122.589 95.583 122.589Z" fill="#263238"/>
<path d="M97.557 122.85C97.557 122.85 97.557 122.73 97.557 122.52C97.5505 122.224 97.4722 121.933 97.329 121.674C97.1254 121.288 96.7869 120.99 96.378 120.837C96.1277 120.749 95.8621 120.712 95.5972 120.728C95.3323 120.745 95.0734 120.814 94.836 120.933C94.5986 121.052 94.3875 121.217 94.2154 121.419C94.0432 121.621 93.9135 121.856 93.834 122.109C93.7131 122.456 93.6808 122.828 93.74 123.19C93.7992 123.553 93.948 123.895 94.173 124.185C94.305 124.35 94.395 124.425 94.389 124.437C94.2889 124.384 94.2011 124.31 94.131 124.221C93.9213 123.993 93.7672 123.72 93.681 123.423C93.5487 122.979 93.556 122.504 93.702 122.064C93.7861 121.792 93.924 121.54 94.1075 121.323C94.2909 121.105 94.5162 120.927 94.77 120.798C95.0254 120.671 95.304 120.598 95.5887 120.583C95.8734 120.567 96.1583 120.61 96.426 120.708C96.8627 120.876 97.2189 121.205 97.422 121.626C97.5646 121.904 97.6309 122.214 97.614 122.526C97.6105 122.609 97.5985 122.692 97.578 122.772C97.572 122.823 97.563 122.853 97.557 122.85Z" fill="#263238"/>
<path d="M106.2 61.3951C105.371 61.3702 104.542 61.4083 103.719 61.5091C101.222 61.8304 98.9288 63.0536 97.2711 64.9484C95.6134 66.8431 94.7057 69.2786 94.719 71.7961C94.7102 73.4524 94.9251 75.1023 95.358 76.7011C96.801 81.8191 97.245 86.3281 97.08 88.5271L101.91 91.1221C101.91 91.1221 104.145 87.9091 106.305 86.5231C108.465 85.1371 115.653 81.4231 118.5 77.6281C120.333 75.1741 120.687 70.1281 116.313 65.7301C113.623 63.0416 110.002 61.4897 106.2 61.3951Z" fill="#6556D0"/>
<path d="M94.77 94.1133L99.132 96.4713L96.294 100.077L93.384 98.7573L94.77 94.1133Z" fill="#455A64"/>
<path d="M94.983 94.26C94.944 94.245 95.376 92.949 95.949 91.368C96.522 89.787 97.017 88.512 97.056 88.527C97.095 88.542 96.663 89.835 96.09 91.419C95.517 93.003 95.022 94.272 94.983 94.26Z" fill="#263238"/>
<path d="M98.859 96.2999C98.823 96.2789 99.507 95.0549 100.383 93.5669C101.259 92.0789 102 90.8999 102.039 90.8999C102.078 90.8999 101.391 92.1449 100.512 93.6329C99.633 95.1209 98.892 96.3149 98.859 96.2999Z" fill="#263238"/>
<g opacity="0.4">
<path d="M107.64 61.533C107.445 61.533 105.045 64.353 103.983 66.255C100.41 72.654 100.248 78.879 99.258 86.139C99.117 87.177 98.601 89.412 98.61 89.361C99.138 89.775 100.914 90.6 100.914 90.6C100.914 90.6 102.591 88.578 103.257 87.561C105.921 83.49 108.816 80.313 111.099 76.014C113.382 71.715 115.578 67.914 113.466 63.516C113.466 63.516 109.8 61.41 107.64 61.533Z" fill="black"/>
</g>
<path d="M118.5 78.2701C118.475 78.2262 118.454 78.18 118.437 78.1321C118.398 78.0421 118.35 77.9011 118.269 77.7271C118.043 77.2236 117.76 76.7475 117.426 76.3081C116.913 75.6298 116.287 75.0452 115.575 74.5801C114.663 73.9754 113.622 73.5903 112.536 73.4551H112.5L112.482 73.4311C111.899 72.6302 111.248 71.8814 110.535 71.1931C109.755 70.4405 108.856 69.8221 107.874 69.3631C106.887 68.9167 105.809 68.7111 104.727 68.7631C103.741 68.8016 102.787 69.1201 101.976 69.6811L101.931 69.7111L101.892 69.6751C101.067 68.9516 100.042 68.4964 98.952 68.3701C98.1056 68.2738 97.2484 68.3828 96.453 68.6881C95.938 68.8852 95.4548 69.1571 95.019 69.4951C94.869 69.6151 94.755 69.7111 94.683 69.7771C94.6473 69.8129 94.6082 69.8451 94.566 69.8731C94.5979 69.8342 94.6319 69.7971 94.668 69.7621C94.737 69.6901 94.845 69.5881 94.992 69.4621C95.4219 69.1048 95.906 68.8182 96.426 68.6131C97.2316 68.29 98.1039 68.1685 98.967 68.2591C100.083 68.3794 101.135 68.839 101.982 69.5761H101.898C102.729 68.9964 103.709 68.6664 104.721 68.6251C105.824 68.5686 106.925 68.7742 107.934 69.2251C108.931 69.6916 109.844 70.3213 110.634 71.0881C111.352 71.7832 112.007 72.5412 112.59 73.3531L112.545 73.3261C113.65 73.4664 114.707 73.8652 115.629 74.4901C116.347 74.9685 116.975 75.5685 117.486 76.2631C117.816 76.712 118.09 77.1996 118.302 77.7151C118.377 77.8921 118.419 78.0361 118.452 78.1291C118.471 78.175 118.487 78.2221 118.5 78.2701Z" fill="#263238"/>
<path d="M109.518 84.645C109.444 84.2736 109.303 83.9188 109.101 83.598C108.865 83.231 108.548 82.9231 108.174 82.698C107.696 82.4022 107.135 82.2695 106.575 82.32H106.515V82.26C106.398 81.5419 106.099 80.8656 105.647 80.2953C105.195 79.7251 104.605 79.2799 103.932 79.002C103.336 78.7689 102.695 78.6716 102.057 78.717C101.47 78.7596 100.899 78.9241 100.38 79.2L100.335 79.224L100.299 79.185C99.8499 78.7144 99.2625 78.3992 98.622 78.285C98.1247 78.1885 97.6121 78.2049 97.122 78.333C96.6872 78.4542 96.2798 78.6579 95.922 78.933C95.922 78.933 95.94 78.906 95.985 78.867C96.03 78.828 96.096 78.765 96.189 78.696C96.4628 78.5022 96.767 78.3552 97.089 78.261C97.5911 78.1163 98.1199 78.0896 98.634 78.183C99.304 78.2936 99.92 78.619 100.389 79.11L100.308 79.095C100.841 78.8117 101.428 78.6421 102.03 78.597C102.69 78.5507 103.353 78.6532 103.968 78.897C104.708 79.1961 105.35 79.6971 105.819 80.343C106.241 80.9104 106.517 81.5728 106.623 82.272L106.554 82.218C107.14 82.1722 107.724 82.3186 108.219 82.635C108.6 82.8713 108.92 83.1928 109.155 83.574C109.305 83.818 109.413 84.0858 109.473 84.366C109.488 84.4394 109.499 84.5135 109.506 84.588C109.512 84.6067 109.516 84.6257 109.518 84.645Z" fill="#263238"/>
<path d="M98.289 97.6081C98.289 97.6081 98.241 97.5481 98.13 97.5001C97.9627 97.4495 97.7833 97.4558 97.62 97.5181C97.4945 97.5576 97.3644 97.5807 97.233 97.5871C97.152 97.5864 97.0719 97.5693 96.9977 97.5369C96.9234 97.5044 96.8565 97.4572 96.801 97.3981C96.57 97.1551 96.483 96.7981 96.264 96.5671C96.2141 96.5103 96.1521 96.4654 96.0825 96.4358C96.0129 96.4062 95.9376 96.3927 95.862 96.3961C95.7075 96.413 95.5548 96.4441 95.406 96.4891C95.2578 96.5314 95.1019 96.5396 94.95 96.5131C94.7904 96.4737 94.6452 96.3899 94.5311 96.2716C94.417 96.1532 94.3386 96.0051 94.305 95.8441C94.2846 95.7777 94.2846 95.7066 94.305 95.6401C94.305 95.6401 94.305 95.7121 94.356 95.8321C94.4124 95.9978 94.5169 96.143 94.656 96.2491C94.7474 96.3221 94.8558 96.3706 94.971 96.3901C95.105 96.4083 95.2414 96.396 95.37 96.3541C95.5271 96.3036 95.6889 96.2694 95.853 96.2521C95.9495 96.2465 96.046 96.2627 96.1354 96.2996C96.2247 96.3365 96.3046 96.3931 96.369 96.4651C96.624 96.7651 96.702 97.0951 96.897 97.3021C96.9832 97.3984 97.104 97.4567 97.233 97.4641C97.3537 97.4628 97.4737 97.4456 97.59 97.4131C97.7751 97.3556 97.9749 97.3684 98.151 97.4491C98.277 97.5211 98.295 97.6081 98.289 97.6081Z" fill="#263238"/>
<path d="M98.79 96.9C98.0592 96.596 97.3488 96.2453 96.663 95.85C95.9526 95.4983 95.2644 95.1036 94.6021 94.668C95.333 94.9737 96.0444 95.3244 96.7321 95.718C97.4413 96.07 98.1286 96.4648 98.79 96.9Z" fill="#263238"/>
<path d="M97.923 98.0071C97.923 98.0071 97.863 98.0371 97.758 98.0851C97.704 98.1091 97.644 98.1451 97.56 98.1811C97.4638 98.2147 97.3617 98.228 97.26 98.2201C96.9966 98.2055 96.7445 98.1079 96.54 97.9411C96.4205 97.8396 96.327 97.711 96.267 97.5661C96.2181 97.4243 96.1461 97.2915 96.054 97.1731C95.9458 97.082 95.8196 97.0146 95.6837 96.9754C95.5478 96.9361 95.4052 96.9258 95.265 96.9451C95.0098 96.975 94.7511 96.9505 94.506 96.8731C94.3381 96.8091 94.2009 96.6836 94.122 96.5221C94.074 96.4051 94.092 96.3301 94.098 96.3331C94.104 96.3361 94.116 96.3991 94.176 96.4951C94.2629 96.6281 94.3934 96.7268 94.545 96.7741C94.7784 96.8327 95.0212 96.8439 95.259 96.8071C95.4192 96.7836 95.5826 96.795 95.7379 96.8405C95.8933 96.8861 96.037 96.9648 96.159 97.0711C96.2605 97.2022 96.3396 97.3492 96.393 97.5061C96.4437 97.6332 96.5227 97.7471 96.624 97.8391C96.8057 97.9913 97.0277 98.0872 97.263 98.1151C97.4237 98.1296 97.5854 98.1005 97.731 98.0311C97.854 97.9981 97.923 97.9981 97.923 98.0071Z" fill="#263238"/>
<path d="M64.986 69.99L72.531 68.871L68.931 63.771L66.999 63.885C66.3606 63.9217 65.7449 64.1354 65.2209 64.502C64.697 64.8686 64.2853 65.3738 64.032 65.961C63.758 66.5978 63.6817 67.3023 63.813 67.983L64.986 69.99Z" fill="#6556D0"/>
<path opacity="0.4" d="M64.986 69.99L72.531 68.871L68.931 63.771L66.999 63.885C66.3606 63.9217 65.7449 64.1354 65.2209 64.502C64.697 64.8686 64.2853 65.3738 64.032 65.961C63.758 66.5978 63.6817 67.3023 63.813 67.983L64.986 69.99Z" fill="black"/>
<path d="M97.392 78.3479C97.47 78.5639 97.554 78.8189 97.641 79.1249C97.7128 79.3885 97.7402 79.6623 97.722 79.9349C97.7102 80.2731 97.6526 80.6081 97.551 80.9309C97.428 81.2309 97.716 81.5069 97.959 81.3629C98.202 81.2189 98.559 80.4389 98.559 79.4369C98.559 78.4349 99.561 79.6349 99.942 80.0669C100.323 80.4989 101.565 81.7799 101.79 81.7679C102.12 81.7499 102.162 81.3929 101.772 80.9699C101.382 80.5469 100.299 79.1999 100.536 79.0079C100.773 78.8159 102.681 81.0449 102.681 81.0449C102.681 81.0449 103.011 81.5879 103.281 81.3779C103.791 80.9969 101.586 78.7799 101.37 78.5759C101.223 78.4319 101.472 78.2159 101.625 78.3779C101.778 78.5399 103.479 80.6429 104.001 80.2589C104.4 79.9589 102.201 78.4199 102.093 77.7899C101.985 77.1599 103.641 79.1309 104.01 78.8369C104.151 78.7259 104.238 78.6239 103.11 77.6369C102.57 77.1509 100.512 75.7109 100.512 75.7109L94.32 57.9839L89.538 60.7229L97.392 78.3479Z" fill="#FFBE9D"/>
<path d="M60.531 44.82L53.613 36.564C53.5258 36.2791 53.4123 36.0029 53.274 35.739C53.1136 35.4096 52.8852 35.118 52.6039 34.8832C52.3226 34.6485 51.9948 34.4759 51.642 34.377C51.204 34.281 50.7 34.329 50.355 34.041C50.202 33.912 50.1 33.741 49.938 33.609C49.776 33.477 49.509 33.465 49.404 33.636C49.3771 33.7027 49.3658 33.7747 49.371 33.8465C49.3762 33.9182 49.3977 33.9879 49.434 34.05C49.6939 34.6608 50.1072 35.1941 50.634 35.598C49.986 35.796 49.059 36.096 49.059 36.096C49.059 36.096 47.598 34.509 46.848 34.512C46.098 34.515 47.448 35.931 47.448 35.931C47.448 35.931 46.248 34.821 45.876 35.133C45.504 35.445 46.458 36.27 46.458 36.27C46.1715 36.0752 45.8291 35.9793 45.483 35.997C45.144 36.054 44.853 36.453 45.036 36.744C45.1141 36.8488 45.2172 36.9324 45.336 36.987L47.178 38.013C47.4728 38.2095 47.8101 38.3329 48.162 38.373C49.098 38.403 49.809 37.824 50.742 37.848C50.742 37.848 55.959 48.831 56.487 49.398C57.015 49.965 68.487 50.736 68.487 50.736L75.12 45.021L60.531 44.82Z" fill="#FFBE9D"/>
<path d="M81.315 104.649L88.38 107.724L84.6 116.535C83.778 116.124 84.048 110.835 84.048 110.835L79.44 109.05L81.315 104.649Z" fill="#6556D0"/>
<g opacity="0.6">
<path d="M84.831 107.952C84.8931 107.878 84.9804 107.829 85.0762 107.815C85.172 107.801 85.2695 107.823 85.35 107.877C85.4256 107.937 85.4754 108.023 85.4893 108.118C85.5033 108.214 85.4803 108.311 85.425 108.39C85.3595 108.468 85.2674 108.519 85.1665 108.532C85.0656 108.546 84.9632 108.522 84.879 108.465C84.8056 108.395 84.7623 108.299 84.7584 108.198C84.7545 108.096 84.7902 107.997 84.858 107.922" fill="white"/>
</g>
<path opacity="0.6" d="M88.3801 107.724L87.654 107.442L84.3 115.995C84.3 115.995 84.3 116.463 84.6 116.535L88.3801 107.724Z" fill="white"/>
<path d="M83.937 110.964C83.982 110.979 84.093 110.772 84.324 110.622C84.555 110.472 84.78 110.433 84.78 110.388C84.78 110.343 84.504 110.298 84.231 110.487C83.958 110.676 83.895 110.955 83.937 110.964Z" fill="#263238"/>
<path d="M83.9221 112.05C83.9611 112.08 84.1141 111.924 84.3601 111.855C84.6061 111.786 84.8131 111.828 84.8311 111.786C84.8491 111.744 84.6151 111.609 84.3121 111.699C84.0091 111.789 83.8831 112.032 83.9221 112.05Z" fill="#263238"/>
<path d="M84.804 113.052C84.831 113.016 84.639 112.863 84.357 112.872C84.075 112.881 83.895 113.043 83.922 113.076C83.949 113.109 84.129 113.04 84.363 113.037C84.597 113.034 84.78 113.1 84.804 113.052Z" fill="#263238"/>
<path d="M82.932 110.439C82.98 110.439 83.004 110.214 83.127 109.98C83.25 109.746 83.406 109.587 83.379 109.548C83.352 109.509 83.1181 109.626 82.9801 109.905C82.8421 110.184 82.89 110.445 82.932 110.439Z" fill="#263238"/>
<path d="M81.978 109.779C81.996 109.779 82.095 109.629 82.164 109.338C82.2052 109.167 82.2244 108.992 82.221 108.816C82.2196 108.715 82.2116 108.615 82.197 108.516C82.1905 108.455 82.1743 108.395 82.149 108.339C82.1309 108.298 82.0995 108.264 82.0598 108.242C82.02 108.221 81.9744 108.214 81.93 108.222C81.8906 108.23 81.8537 108.247 81.8224 108.272C81.791 108.297 81.7662 108.329 81.75 108.366C81.7258 108.422 81.7096 108.482 81.702 108.543C81.6539 108.823 81.6777 109.111 81.771 109.38C81.87 109.665 82.002 109.803 82.017 109.791C82.032 109.779 81.948 109.62 81.879 109.347C81.8419 109.187 81.8248 109.022 81.828 108.858C81.8303 108.757 81.8403 108.657 81.858 108.558C81.873 108.456 81.906 108.375 81.96 108.369C82.014 108.363 81.984 108.369 82.005 108.399C82.021 108.441 82.0321 108.486 82.038 108.531C82.0551 108.63 82.0662 108.73 82.071 108.831C82.08 108.996 82.073 109.162 82.05 109.326C82.0158 109.475 81.9918 109.626 81.978 109.779Z" fill="#263238"/>
<path d="M82.062 109.752C82.062 109.752 81.96 109.587 81.687 109.452C81.5269 109.374 81.3543 109.324 81.177 109.305C81.0773 109.294 80.9767 109.294 80.877 109.305C80.8085 109.304 80.7409 109.321 80.6805 109.354C80.6202 109.386 80.5691 109.433 80.532 109.491C80.5166 109.531 80.5126 109.574 80.5206 109.616C80.5286 109.658 80.5481 109.697 80.577 109.728C80.6197 109.772 80.6681 109.811 80.721 109.842C80.8139 109.9 80.915 109.944 81.021 109.971C81.1964 110.015 81.3797 110.015 81.555 109.971C81.855 109.896 81.987 109.74 81.975 109.731C81.8305 109.781 81.6833 109.823 81.534 109.857C81.3753 109.88 81.2135 109.868 81.06 109.821C80.9709 109.793 80.8861 109.752 80.808 109.701C80.721 109.647 80.661 109.581 80.685 109.551C80.7109 109.521 80.7432 109.497 80.7795 109.481C80.8158 109.465 80.8553 109.457 80.895 109.458C80.9948 109.448 81.0953 109.448 81.195 109.458C81.358 109.469 81.5186 109.504 81.672 109.56C81.9 109.656 82.047 109.77 82.062 109.752Z" fill="#263238"/>
<path d="M75.873 116.751L78.795 122.874L79.71 128.4C79.7255 128.494 79.7603 128.584 79.812 128.664C79.8638 128.744 79.9314 128.812 80.0108 128.865C80.0902 128.917 80.1796 128.953 80.2734 128.97C80.3672 128.986 80.4634 128.983 80.556 128.961C80.664 128.936 80.7643 128.885 80.8484 128.813C80.9325 128.741 80.9979 128.65 81.039 128.547C81.576 127.218 83.529 122.313 83.289 121.878C83.013 121.374 80.634 115.215 80.634 115.215L75.873 116.751Z" fill="#6556D0"/>
<path opacity="0.6" d="M80.556 128.946L83.1 121.446L83.22 121.707C83.3218 121.933 83.3399 122.188 83.271 122.427C83.085 123.066 82.536 124.827 81.057 128.523C81.0152 128.629 80.9474 128.724 80.86 128.798C80.7725 128.871 80.6681 128.922 80.556 128.946Z" fill="white"/>
<g opacity="0.6">
<path d="M80.934 120.021C80.8829 120.111 80.8668 120.216 80.889 120.317C80.9112 120.418 80.97 120.507 81.054 120.567C81.1423 120.621 81.2482 120.64 81.3498 120.619C81.4514 120.598 81.541 120.538 81.6 120.453C81.6527 120.357 81.6684 120.245 81.6441 120.138C81.6198 120.032 81.5571 119.937 81.468 119.874C81.3703 119.826 81.258 119.819 81.1549 119.853C81.0518 119.887 80.9661 119.96 80.916 120.057" fill="white"/>
</g>
<path d="M80.754 125.607C80.527 125.461 80.2647 125.378 79.9949 125.369C79.7251 125.359 79.4577 125.423 79.221 125.553C79.221 125.553 79.266 125.457 79.401 125.373C79.5817 125.264 79.7903 125.211 80.001 125.22C80.2104 125.226 80.4135 125.293 80.586 125.412C80.718 125.508 80.766 125.595 80.754 125.607Z" fill="#263238"/>
<path d="M80.7 126.633C80.4787 126.613 80.2562 126.607 80.034 126.615C79.8175 126.667 79.6041 126.731 79.395 126.807C79.362 126.783 79.602 126.507 80.013 126.465C80.1326 126.436 80.2575 126.436 80.377 126.465C80.4966 126.495 80.6074 126.552 80.7 126.633Z" fill="#263238"/>
<path d="M81.096 124.176C80.7571 124.117 80.4141 124.084 80.07 124.077C79.7272 124.115 79.3881 124.181 79.056 124.275C79.351 124.065 79.7 123.944 80.0615 123.927C80.4231 123.909 80.7821 123.995 81.096 124.176Z" fill="#263238"/>
<path d="M80.364 122.241C80.364 122.286 79.959 122.295 79.506 122.481C79.053 122.667 78.75 122.928 78.72 122.895C78.8917 122.63 79.1507 122.433 79.452 122.34C79.7348 122.2 80.0579 122.165 80.364 122.241Z" fill="#263238"/>
<path d="M79.5511 120.42C79.2422 120.455 78.9394 120.532 78.6511 120.648C78.3835 120.804 78.1392 120.997 77.9251 121.221C77.9101 121.221 77.9401 121.104 78.0481 120.96C78.1892 120.77 78.3745 120.616 78.5881 120.513C78.7993 120.407 79.0329 120.354 79.2691 120.357C79.4491 120.363 79.5541 120.405 79.5511 120.42Z" fill="#263238"/>
<path d="M78.5071 120.3C78.4551 120.231 78.4164 120.152 78.3931 120.069C78.3191 119.845 78.2895 119.608 78.3061 119.373C78.3026 119.2 78.3563 119.03 78.4591 118.89C78.4961 118.849 78.5443 118.821 78.5977 118.807C78.6511 118.794 78.7072 118.797 78.7591 118.815C78.8601 118.864 78.94 118.949 78.9841 119.052C79.0636 119.266 79.0658 119.502 78.9902 119.718C78.9146 119.934 78.766 120.116 78.5701 120.234C78.3743 120.347 78.1496 120.399 77.9243 120.384C77.699 120.369 77.4832 120.288 77.3041 120.15C77.2585 120.114 77.2214 120.069 77.1954 120.017C77.1695 119.965 77.1554 119.908 77.1541 119.85C77.1571 119.793 77.1782 119.738 77.2142 119.693C77.2503 119.648 77.2996 119.616 77.3551 119.601C77.5228 119.567 77.6965 119.577 77.8591 119.631C78.0886 119.691 78.3052 119.793 78.4981 119.931C78.6331 120.024 78.6931 120.093 78.6871 120.102C78.4234 119.939 78.136 119.817 77.8351 119.742C77.6917 119.7 77.5399 119.694 77.3941 119.727C77.3635 119.735 77.3363 119.752 77.3163 119.776C77.2963 119.801 77.2847 119.831 77.2831 119.862C77.2884 119.899 77.3009 119.934 77.32 119.966C77.339 119.998 77.3642 120.026 77.3941 120.048C77.5518 120.163 77.7391 120.23 77.9338 120.241C78.1285 120.252 78.3223 120.207 78.4921 120.111C78.6621 120.012 78.7927 119.857 78.8616 119.673C78.9305 119.489 78.9335 119.286 78.8701 119.1C78.8431 119.026 78.7896 118.965 78.7201 118.929C78.6914 118.916 78.6594 118.912 78.6286 118.919C78.5978 118.925 78.57 118.942 78.5491 118.965C78.4611 119.083 78.4128 119.226 78.4111 119.373C78.3883 119.685 78.4208 119.999 78.5071 120.3Z" fill="#263238"/>
<path d="M85.7191 105.396L77.7061 99.9959L80.3581 73.9589L72.7681 69.5279L65.8291 67.9199C65.8291 67.9199 62.9311 73.9499 61.6291 77.8199C58.8871 86.0309 56.9641 88.9739 57.4051 94.9199C57.5431 96.8039 64.4971 101.52 68.8891 104.133C68.9383 104.656 69.0165 105.176 69.1231 105.69C70.6231 112.476 75.2071 121.5 75.2071 121.5L82.1671 118.263L79.9231 110.568L82.2631 111.933L85.7191 105.396ZM68.4961 88.5959L69.4321 84.4229C69.2341 87.0779 69.0541 89.8469 68.9251 92.5019C68.4726 91.2559 68.3255 89.9195 68.4961 88.6049V88.5959Z" fill="#263238"/>
<path d="M75.2191 121.5C75.1976 121.465 75.1796 121.428 75.1651 121.389L75.0181 121.062L74.4811 119.793C74.0191 118.686 73.3561 117.093 72.5611 115.098C71.7661 113.103 70.8241 110.739 69.8611 108.069C69.6241 107.4 69.3931 106.713 69.1741 106.002C69.0781 105.642 68.9551 105.288 68.8921 104.907C68.8741 104.814 68.8531 104.718 68.8381 104.625L68.8051 104.34L68.7421 103.77C68.6581 103.002 68.5911 102.22 68.5411 101.424C68.5171 101.028 68.4961 100.626 68.4781 100.224C68.4601 99.8221 68.4481 99.4111 68.4781 99.0001C68.5981 95.7301 68.8711 92.6281 69.0991 89.8051C69.3271 86.9821 69.5461 84.4441 69.7261 82.3051C69.9061 80.1661 70.0261 78.4441 70.0861 77.2471C70.1251 76.6471 70.1461 76.1851 70.1581 75.8731L70.1791 75.5131C70.1737 75.4732 70.1737 75.4329 70.1791 75.3931C70.1824 75.433 70.1824 75.4731 70.1791 75.5131C70.1791 75.6031 70.1791 75.7201 70.1791 75.8731C70.1791 76.1881 70.1641 76.6531 70.1371 77.2501C70.0861 78.4501 69.9811 80.1781 69.8221 82.3141C69.6631 84.4501 69.4501 86.9911 69.2221 89.8141C68.9941 92.6371 68.7331 95.7391 68.6221 99.0001C68.5981 99.4081 68.6221 99.8101 68.6221 100.215C68.6221 100.62 68.6581 101.016 68.6851 101.415C68.7331 102.215 68.7981 102.994 68.8801 103.752L68.9431 104.325L68.9761 104.607C68.9911 104.7 69.0121 104.79 69.0301 104.883C69.0901 105.249 69.2101 105.606 69.3061 105.963C69.5191 106.668 69.7501 107.355 69.9841 108.024C70.9261 110.691 71.8591 113.064 72.6391 115.059C73.4191 117.054 74.0701 118.659 74.5171 119.769C74.7361 120.321 74.9101 120.75 75.0301 121.05C75.0841 121.191 75.1291 121.302 75.1591 121.383C75.1891 121.464 75.2191 121.5 75.2191 121.5Z" fill="#455A64"/>
<path d="M69.861 74.5108C69.861 74.5108 69.792 74.4688 69.681 74.3638C69.5377 74.2025 69.4231 74.0178 69.342 73.8178C69.1046 73.1561 68.9887 72.4568 69 71.7538C68.9909 71.0525 69.0239 70.3512 69.099 69.6538C69.1131 69.3658 69.1533 69.0796 69.219 68.7988C69.2436 69.0863 69.2436 69.3754 69.219 69.6628C69.192 70.1938 69.15 70.9288 69.162 71.7388C69.1573 72.4272 69.2585 73.1122 69.462 73.7698C69.5326 73.9626 69.6284 74.1452 69.747 74.3128C69.819 74.4358 69.87 74.5048 69.861 74.5108Z" fill="#455A64"/>
<path d="M66.867 68.3159C66.9379 68.551 66.9583 68.7984 66.927 69.0419C66.8871 69.6392 66.6884 70.215 66.3514 70.7097C66.0144 71.2045 65.5513 71.6002 65.01 71.8559C64.7941 71.9736 64.5561 72.0452 64.311 72.0659C64.311 72.0419 64.572 71.9699 64.962 71.7659C65.4696 71.4959 65.9041 71.1066 66.2281 70.6316C66.552 70.1566 66.7559 69.6101 66.822 69.0389C66.873 68.5949 66.84 68.3159 66.867 68.3159Z" fill="#455A64"/>
<path d="M79.317 83.4541C79.317 83.4541 79.317 83.4811 79.317 83.5321C79.317 83.5831 79.317 83.6701 79.299 83.7631C79.275 83.9791 79.245 84.2791 79.209 84.6631C79.122 85.4461 79.002 86.5591 78.852 87.9271C78.552 90.6961 78.108 94.4971 77.634 98.7001C77.4651 100.679 77.5976 102.671 78.027 104.61C78.215 105.455 78.4565 106.286 78.75 107.1C79.02 107.868 79.269 108.585 79.5 109.242C79.953 110.544 80.319 111.603 80.577 112.347C80.697 112.707 80.793 112.989 80.877 113.193L80.949 113.415C80.959 113.439 80.9651 113.464 80.967 113.49C80.967 113.49 80.967 113.469 80.934 113.418C80.901 113.367 80.883 113.292 80.85 113.202C80.772 113.001 80.67 112.722 80.55 112.365L79.428 109.278C79.194 108.624 78.936 107.907 78.66 107.142C78.3594 106.324 78.1119 105.487 77.919 104.637C77.4773 102.686 77.3386 100.678 77.508 98.6851C77.976 94.4701 78.444 90.6721 78.771 87.9151C78.942 86.5471 79.071 85.4341 79.176 84.6541C79.224 84.2761 79.263 83.9821 79.293 83.7541C79.293 83.6611 79.317 83.5861 79.326 83.5261C79.3196 83.5027 79.3166 83.4784 79.317 83.4541Z" fill="#455A64"/>
<path d="M65.829 67.8749L67.059 64.7339L69.864 68.9159L66.123 67.9829" fill="#FFBE9D"/>
<path d="M95.175 58.4339L91.848 50.9729C91.449 49.7729 90.702 49.5869 90.078 48.8909L81.741 44.1899C75.663 41.6999 72.354 50.0459 72.354 50.0459L66.831 62.6459C60.336 64.7969 64.935 69.7859 64.935 69.7859C64.935 69.7859 63.168 66.7139 64.908 65.6069C66.726 64.4459 68.742 67.5029 70.68 70.4069C72.969 73.8329 80.403 76.0589 80.403 76.0589C81.273 75.1409 81.03 71.9339 81.711 70.2119C81.927 69.6689 87.075 57.7439 87.075 57.7439L89.07 62.5769C89.07 62.5769 91.626 59.5769 92.868 59.1029C93.6167 58.8149 94.3885 58.5911 95.175 58.4339Z" fill="#6556D0"/>
<path d="M80.4 63.7379C80.3237 63.8071 80.239 63.8666 80.148 63.9149C79.9057 64.0555 79.6518 64.175 79.389 64.2719C78.5152 64.6011 77.5712 64.6992 76.6483 64.5568C75.7255 64.4143 74.855 64.0362 74.121 63.4589C73.8993 63.2878 73.6935 63.097 73.506 62.8889C73.4316 62.8182 73.3689 62.7362 73.32 62.6459C73.341 62.6249 73.62 62.9639 74.184 63.3749C74.917 63.9157 75.7701 64.2707 76.6704 64.4097C77.5706 64.5487 78.4911 64.4675 79.353 64.1729C80.019 63.9509 80.4 63.7139 80.4 63.7379Z" fill="#263238"/>
<path d="M66.6001 51.9001L71.7451 52.3861L79.9771 43.6861L75.1351 43.5181L66.5161 44.3701C66.9695 46.8573 66.9979 49.4034 66.6001 51.9001Z" fill="#6556D0"/>
<path d="M73.7311 47.3218C73.7186 47.3778 73.6973 47.4314 73.6681 47.4808L73.4611 47.9248C73.2751 48.3268 73.0141 48.8818 72.6991 49.5538C72.0601 50.9338 71.1991 52.8538 70.2991 54.9838C69.3991 57.1138 68.5411 59.0428 67.8991 60.4258C67.5841 61.1188 67.3231 61.6738 67.1371 62.0578L66.9181 62.4958C66.8951 62.549 66.8659 62.5994 66.8311 62.6458C66.8463 62.5901 66.8664 62.5359 66.8911 62.4838L67.0831 62.0338L67.8031 60.3838C68.4031 58.9708 69.2401 57.0478 70.1521 54.9238C71.0641 52.7998 71.9521 50.8798 72.6031 49.5088C72.9361 48.8248 73.2031 48.2758 73.4101 47.8978C73.5061 47.7238 73.5811 47.5798 73.6411 47.4658C73.6658 47.4147 73.696 47.3664 73.7311 47.3218Z" fill="#263238"/>
<path d="M89.436 49.8511C89.451 49.8781 89.136 50.0431 88.695 50.4151C88.4421 50.6319 88.2101 50.8719 88.002 51.1321C87.7485 51.4534 87.5294 51.8002 87.348 52.1671C87.1739 52.5365 87.0372 52.9224 86.94 53.3191C86.8644 53.6451 86.8202 53.9776 86.808 54.3121C86.787 54.8821 86.853 55.2361 86.823 55.2391C86.7914 55.1614 86.7712 55.0795 86.763 54.9961C86.7405 54.8975 86.7264 54.7971 86.721 54.6961C86.7056 54.5647 86.6986 54.4324 86.7 54.3001C86.6977 53.9573 86.7329 53.6152 86.805 53.2801C86.895 52.8663 87.0309 52.4638 87.21 52.0801C87.3978 51.7043 87.6262 51.3502 87.891 51.0241C88.1103 50.7619 88.3567 50.5235 88.626 50.3131C88.7276 50.2297 88.8348 50.1535 88.947 50.0851C89.0277 50.0273 89.113 49.9761 89.202 49.9321C89.2752 49.8929 89.3542 49.8655 89.436 49.8511Z" fill="#263238"/>
<path d="M90.873 37.9022L86.046 46.9262C85.6656 47.6359 85.0306 48.1752 84.2686 48.4357C83.5066 48.6962 82.6743 48.6585 81.939 48.3302C81.5428 48.151 81.1875 47.8924 80.895 47.5706C80.6026 47.2487 80.3792 46.8703 80.2386 46.4588C80.0981 46.0472 80.0433 45.6112 80.0778 45.1777C80.1123 44.7442 80.2352 44.3223 80.439 43.9382L81.27 42.3722C81.27 42.3722 79.17 41.0132 80.154 38.7452C81.03 36.7232 84.246 31.0112 84.927 29.8052L88.995 31.6262C89.5366 31.9086 90.016 32.2967 90.4049 32.7675C90.7939 33.2384 91.0845 33.7824 91.2595 34.3675C91.4346 34.9526 91.4906 35.5669 91.4242 36.174C91.3579 36.7811 91.1704 37.3687 90.873 37.9022Z" fill="#FFBE9D"/>
<path d="M81.27 42.3389C82.303 42.8239 83.4569 42.991 84.5851 42.8189C84.5851 42.8189 83.1631 44.1299 81.0031 42.9209L81.27 42.3389Z" fill="#EB996E"/>
<path d="M82.8211 35.1239C82.7826 35.2076 82.7784 35.303 82.8092 35.3899C82.84 35.4767 82.9035 35.5481 82.9861 35.5889C83.0256 35.6103 83.069 35.6236 83.1137 35.6281C83.1584 35.6326 83.2036 35.6282 83.2466 35.6151C83.2896 35.602 83.3295 35.5804 83.3641 35.5517C83.3987 35.523 83.4272 35.4877 83.4481 35.4479C83.4865 35.3641 83.4907 35.2687 83.4599 35.1819C83.4291 35.0951 83.3657 35.0237 83.2831 34.9829C83.2435 34.9614 83.2002 34.9481 83.1554 34.9436C83.1107 34.9391 83.0655 34.9435 83.0225 34.9567C82.9795 34.9698 82.9396 34.9913 82.905 35.02C82.8704 35.0487 82.8419 35.084 82.8211 35.1239Z" fill="#263238"/>
<path d="M82.8391 34.8388C82.8601 34.8988 83.1841 34.8388 83.5321 34.9828C83.8801 35.1268 84.0541 35.4238 84.1111 35.3998C84.1681 35.3758 84.1291 35.2948 84.0571 35.1658C83.9528 34.9949 83.799 34.8599 83.6161 34.7788C83.4354 34.6978 83.2339 34.6757 83.0401 34.7158C82.8991 34.7488 82.8271 34.7998 82.8391 34.8388Z" fill="#263238"/>
<path d="M86.064 36.7202C86.0248 36.8038 86.0201 36.8995 86.051 36.9866C86.0819 37.0736 86.1459 37.145 86.229 37.1852C86.2687 37.2065 86.3123 37.2197 86.3571 37.224C86.402 37.2283 86.4472 37.2236 86.4902 37.2102C86.5333 37.1967 86.5732 37.1749 86.6076 37.1459C86.6421 37.1169 86.6705 37.0813 86.691 37.0412C86.7285 36.9578 86.7323 36.8631 86.7015 36.777C86.6708 36.6909 86.6079 36.62 86.526 36.5792C86.4866 36.5574 86.4432 36.5437 86.3984 36.539C86.3535 36.5342 86.3082 36.5386 86.2651 36.5517C86.222 36.5649 86.182 36.5866 86.1475 36.6155C86.1129 36.6445 86.0845 36.6801 86.064 36.7202Z" fill="#263238"/>
<path d="M86.2171 36.4261C86.2381 36.4861 86.562 36.4261 86.91 36.5701C87.258 36.7141 87.432 37.0141 87.489 36.9901C87.546 36.9661 87.51 36.8851 87.435 36.7531C87.3305 36.5832 87.1767 36.4493 86.994 36.3691C86.8138 36.2867 86.6118 36.2646 86.418 36.3061C86.277 36.3391 86.2051 36.3991 86.2171 36.4261Z" fill="#263238"/>
<path d="M83.808 38.4327C83.6507 38.2955 83.4775 38.1777 83.2921 38.0817C83.2081 38.0307 83.1301 37.9767 83.1421 37.9107C83.1541 37.8447 83.2321 37.7577 83.3191 37.6737L83.883 37.1157C84.3811 36.653 84.8415 36.1514 85.2601 35.6157C84.7232 36.035 84.2215 36.4976 83.7601 36.9987L83.2051 37.5657C83.1017 37.6477 83.0305 37.7635 83.004 37.8927C83.0036 37.9296 83.0111 37.9661 83.0262 37.9998C83.0412 38.0334 83.0633 38.0634 83.0911 38.0877C83.1344 38.1223 83.1817 38.1515 83.2321 38.1747C83.4113 38.2868 83.6051 38.3736 83.808 38.4327Z" fill="#263238"/>
<path d="M84.72 39.1288C84.666 39.1018 84.498 39.4768 84.057 39.5998C83.616 39.7228 83.232 39.5038 83.205 39.5548C83.178 39.6058 83.262 39.6658 83.43 39.7468C83.6486 39.8491 83.8963 39.8704 84.129 39.8068C84.3534 39.7474 84.5453 39.6018 84.663 39.4018C84.747 39.2518 84.747 39.1408 84.72 39.1288Z" fill="#263238"/>
<path d="M86.736 35.028C86.736 35.139 87.093 35.247 87.477 35.478C87.861 35.709 88.143 35.967 88.233 35.907C88.275 35.877 88.257 35.763 88.167 35.607C88.0391 35.4167 87.8699 35.2577 87.672 35.1418C87.4741 35.026 87.2526 34.9563 87.024 34.938C86.85 34.938 86.739 34.977 86.736 35.028Z" fill="#263238"/>
<path d="M83.415 33.9001C83.442 34.0081 83.715 34.0321 84.015 34.1551C84.315 34.2781 84.522 34.4551 84.615 34.3891C84.708 34.3231 84.657 34.2631 84.582 34.1431C84.4832 33.9874 84.3371 33.8675 84.165 33.8011C83.9949 33.7276 83.8059 33.7097 83.625 33.7501C83.475 33.7741 83.4 33.8401 83.415 33.9001Z" fill="#263238"/>
<path d="M89.355 39.2549C89.403 39.2549 91.11 39.4889 90.372 41.0099C89.634 42.5309 88.272 41.4749 88.272 41.4299C88.272 41.3849 89.355 39.2549 89.355 39.2549Z" fill="#FFBE9D"/>
<path d="M89.022 41.079C89.022 41.079 89.04 41.109 89.073 41.154C89.124 41.211 89.1948 41.2464 89.271 41.253C89.4014 41.2399 89.5258 41.1921 89.6313 41.1145C89.7368 41.0369 89.8196 40.9325 89.871 40.812C89.938 40.6838 89.9759 40.5425 89.982 40.398C89.9905 40.3435 89.9856 40.2877 89.9679 40.2355C89.9501 40.1832 89.92 40.1361 89.88 40.098C89.8531 40.0755 89.8191 40.0632 89.784 40.0632C89.749 40.0632 89.715 40.0755 89.688 40.098C89.649 40.131 89.643 40.164 89.634 40.164C89.625 40.164 89.613 40.122 89.655 40.065C89.6825 40.0314 89.7206 40.0082 89.763 39.999C89.8202 39.9882 89.8794 40.0001 89.928 40.032C89.984 40.0748 90.0282 40.1311 90.0566 40.1956C90.0849 40.2602 90.0964 40.3308 90.09 40.401C90.0905 40.5639 90.0514 40.7245 89.976 40.869C89.9177 41.008 89.8198 41.1268 89.6944 41.2106C89.5691 41.2944 89.4218 41.3394 89.271 41.34C89.2245 41.3307 89.1804 41.3118 89.1417 41.2844C89.1029 41.257 89.0703 41.2218 89.046 41.181C89.007 41.118 89.016 41.079 89.022 41.079Z" fill="#EB996E"/>
<path d="M90.237 39.5998C90.0957 39.5284 89.9382 39.4955 89.7802 39.5045C89.6221 39.5135 89.4693 39.5639 89.337 39.6508C89.139 39.8248 89.004 40.0648 88.806 40.2508C88.7147 40.3476 88.5939 40.4113 88.4625 40.432C88.3311 40.4526 88.1965 40.429 88.08 40.3648C88.0118 40.3039 87.9609 40.226 87.9324 40.1391C87.904 40.0522 87.899 39.9593 87.918 39.8698C87.9582 39.6903 88.0325 39.5202 88.137 39.3688C88.548 38.6908 89.019 38.0428 89.373 37.3318C89.7582 36.6295 89.9263 35.8287 89.856 35.0308C89.8153 34.634 89.6685 34.2555 89.4309 33.935C89.1934 33.6146 88.8739 33.364 88.506 33.2098C88.011 33.0358 87.459 33.0868 86.952 32.9428C86.6519 32.8527 86.3762 32.6958 86.1454 32.4838C85.9147 32.2718 85.7351 32.0102 85.62 31.7188C85.5603 31.6013 85.4942 31.4871 85.422 31.3768C85.44 31.3408 85.62 31.0348 85.797 30.9748C87.135 30.5218 88.944 31.0408 90.051 31.9138C90.6161 32.3529 91.0785 32.91 91.406 33.5463C91.7335 34.1826 91.9181 34.8828 91.947 35.5978C91.962 37.0078 91.074 38.5618 90.249 39.6118" fill="#263238"/>
<path d="M90.252 39.435C90.675 38.715 91.359 38.196 91.881 37.548C92.403 36.9 92.781 35.985 92.391 35.241C92.265 34.986 92.061 34.773 91.956 34.509C91.8729 34.2349 91.8226 33.9519 91.806 33.666C91.7383 33.229 91.5724 32.8131 91.321 32.4494C91.0695 32.0857 90.7389 31.7836 90.354 31.566C89.82 31.266 89.205 31.146 88.662 30.861C87.807 30.411 87.18 29.577 86.262 29.22C86.1174 29.1494 85.9595 29.1103 85.7987 29.1051C85.6379 29.0999 85.4779 29.1288 85.329 29.19C85.2578 29.2246 85.1947 29.2738 85.1438 29.3345C85.0929 29.3951 85.0553 29.4658 85.0335 29.5419C85.0117 29.6181 85.0062 29.6979 85.0173 29.7763C85.0284 29.8547 85.0559 29.9299 85.098 29.997C85.0803 29.9279 85.0476 29.8635 85.0024 29.8083C84.9571 29.7532 84.9003 29.7086 84.836 29.6777C84.7717 29.6469 84.7014 29.6304 84.63 29.6296C84.5587 29.6288 84.488 29.6436 84.423 29.673C84.2954 29.7425 84.1911 29.8483 84.1233 29.9769C84.0555 30.1055 84.0273 30.2513 84.042 30.396C84.0772 30.6847 84.1903 30.9585 84.369 31.188C84.9254 31.9765 85.7442 32.5412 86.679 32.781L88.752 32.619L90.45 33.876L91.704 35.877L89.427 38.835L90.252 39.435Z" fill="#263238"/>
<path d="M77.295 27.6301C77.2107 26.3229 76.777 25.0624 76.039 23.9802C75.3011 22.898 74.2861 22.0338 73.1001 21.4779C71.914 20.9221 70.6005 20.6949 69.2966 20.8201C67.9928 20.9454 66.7465 21.4185 65.688 22.1901C64.6295 22.9616 63.7976 24.0032 63.2792 25.2061C62.7609 26.4091 62.5751 27.7291 62.7412 29.0284C62.9074 30.3276 63.4194 31.5584 64.2238 32.5922C65.0281 33.626 66.0954 34.4247 67.314 34.9051C67.371 35.7691 67.434 36.7471 67.434 36.7471L73.83 36.3331C73.83 36.3331 73.803 35.2981 73.755 34.3741C74.908 33.6841 75.8485 32.6895 76.473 31.4997C77.0976 30.3099 77.382 28.971 77.295 27.6301Z" fill="#6556D0"/>
<path d="M71.514 36.4532C71.514 36.4532 71.514 36.4202 71.514 36.3632C71.514 36.3062 71.514 36.2102 71.514 36.0962C71.514 35.8652 71.547 35.5202 71.583 35.0792C71.619 34.6382 71.67 34.0952 71.769 33.4742C71.8785 32.7667 72.0563 32.0714 72.3 31.3982C72.4434 31.0063 72.6211 30.6279 72.831 30.2672C72.9453 30.0703 73.1073 29.9053 73.302 29.7872C73.4074 29.7285 73.5253 29.6959 73.6459 29.6922C73.7665 29.6886 73.8862 29.714 73.995 29.7662C74.1101 29.8217 74.1993 29.9195 74.244 30.0392C74.2933 30.1604 74.2933 30.2961 74.244 30.4172C74.1369 30.6504 73.948 30.8362 73.713 30.9392C73.4653 31.0362 73.2009 31.0831 72.935 31.0771C72.6691 31.0711 72.4071 31.0124 72.164 30.9044C71.921 30.7964 71.7018 30.6413 71.5191 30.448C71.3365 30.2547 71.194 30.027 71.1 29.7782C70.989 29.513 70.9547 29.222 71.001 28.9382C71.0261 28.7873 71.1031 28.6499 71.2186 28.5497C71.3342 28.4495 71.4811 28.3927 71.634 28.3892C71.7131 28.3918 71.7903 28.4147 71.8581 28.4556C71.9258 28.4966 71.982 28.5543 72.021 28.6232C72.1016 28.7563 72.1325 28.9136 72.108 29.0672C72.0374 29.3632 71.8746 29.629 71.643 29.8262C71.4224 30.0383 71.1596 30.2014 70.8716 30.3048C70.5836 30.4082 70.2771 30.4496 69.972 30.4262C69.6663 30.3975 69.3721 30.2952 69.1145 30.128C68.857 29.9608 68.6437 29.7338 68.493 29.4662C68.4155 29.3344 68.3662 29.188 68.3481 29.0362C68.3301 28.8844 68.3436 28.7305 68.388 28.5842C68.4097 28.5092 68.4477 28.4398 68.4991 28.381C68.5506 28.3222 68.6143 28.2754 68.6859 28.244C68.7574 28.2125 68.8349 28.1971 68.9131 28.1989C68.9912 28.2006 69.068 28.2195 69.138 28.2542C69.2761 28.3181 69.3913 28.4228 69.468 28.5542C69.5397 28.6823 69.5865 28.8228 69.606 28.9682C69.6445 29.2492 69.6251 29.5351 69.549 29.8082C69.408 30.3437 69.0678 30.8052 68.598 31.0982C68.1495 31.3733 67.6178 31.4796 67.098 31.3982C66.8454 31.3746 66.6074 31.2693 66.42 31.0982C66.3283 31.0089 66.2698 30.891 66.254 30.764C66.2381 30.637 66.266 30.5083 66.333 30.3992C66.4108 30.2988 66.525 30.233 66.651 30.2162C66.7709 30.2009 66.8927 30.2164 67.005 30.2612C67.2119 30.3623 67.3796 30.5289 67.482 30.7352C67.692 31.1192 67.863 31.4942 68.037 31.8512C68.715 33.2852 69.207 34.4702 69.537 35.2922C69.702 35.7032 69.837 36.0242 69.909 36.2402C69.948 36.3482 69.978 36.4322 70.002 36.4892C70.013 36.5176 70.022 36.5466 70.029 36.5762L69.993 36.4922L69.891 36.2492L69.504 35.3042C69.162 34.4882 68.661 33.3062 67.977 31.8782C67.803 31.5242 67.626 31.1432 67.419 30.7682C67.3227 30.577 67.1669 30.4222 66.975 30.3272C66.878 30.2816 66.769 30.268 66.6638 30.2885C66.5586 30.309 66.4627 30.3625 66.39 30.4412C66.3356 30.5364 66.3143 30.647 66.3295 30.7556C66.3447 30.8642 66.3955 30.9647 66.474 31.0412C66.6489 31.2007 66.8712 31.2987 67.107 31.3202C67.6084 31.3949 68.1199 31.2885 68.55 31.0202C68.9959 30.7345 69.3173 30.2909 69.45 29.7782C69.5233 29.5158 69.5417 29.2411 69.504 28.9712C69.4952 28.8371 69.4523 28.7075 69.3793 28.5946C69.3063 28.4817 69.2057 28.3893 69.087 28.3262C69.0272 28.2988 68.9623 28.2845 68.8965 28.2845C68.8307 28.2845 68.7657 28.2988 68.706 28.3262C68.6452 28.3552 68.5915 28.3971 68.5485 28.4489C68.5055 28.5007 68.4743 28.5612 68.457 28.6262C68.4167 28.7608 68.4046 28.9022 68.4217 29.0416C68.4387 29.181 68.4845 29.3154 68.556 29.4362C68.702 29.688 68.9062 29.9011 69.1515 30.0577C69.3969 30.2143 69.6761 30.3098 69.966 30.3362C70.2583 30.3579 70.5518 30.3175 70.8274 30.2177C71.103 30.1179 71.3543 29.961 71.565 29.7572C71.7796 29.5743 71.9317 29.3289 72 29.0552C72.021 28.9214 71.9945 28.7845 71.925 28.6682C71.8928 28.6124 71.8471 28.5655 71.7921 28.5319C71.737 28.4984 71.6744 28.4792 71.61 28.4762C71.4776 28.4771 71.3502 28.5274 71.253 28.6172C71.1553 28.7066 71.0899 28.8258 71.067 28.9562C71.0227 29.2237 71.0549 29.4983 71.16 29.7482C71.2497 29.9889 71.3865 30.2092 71.5625 30.3963C71.7384 30.5833 71.95 30.7334 72.1847 30.8376C72.4194 30.9418 72.6726 30.9982 72.9294 31.0032C73.1861 31.0083 73.4413 30.9621 73.68 30.8672C73.897 30.7725 74.0719 30.6018 74.172 30.3872C74.2149 30.2861 74.2177 30.1725 74.1798 30.0694C74.1419 29.9663 74.0662 29.8815 73.968 29.8322C73.8697 29.7848 73.7614 29.7616 73.6523 29.7647C73.5432 29.7679 73.4364 29.7972 73.341 29.8502C73.1594 29.9619 73.0079 30.1164 72.9 30.3002C72.6919 30.6562 72.5152 31.0296 72.372 31.4162C72.1255 32.0831 71.9447 32.7723 71.832 33.4742C71.727 34.0952 71.67 34.6352 71.628 35.0762C71.586 35.5172 71.565 35.8562 71.544 36.0932C71.544 36.2042 71.526 36.2942 71.523 36.3572C71.52 36.4202 71.514 36.4532 71.514 36.4532Z" fill="#263238"/>
<path d="M73.413 37.548L67.923 37.905C67.8133 37.9116 67.7055 37.8747 67.6229 37.8022C67.5404 37.7298 67.4897 37.6276 67.482 37.518C67.4754 37.4087 67.5125 37.3012 67.585 37.2191C67.6576 37.137 67.7597 37.087 67.869 37.08L73.362 36.726C73.416 36.7224 73.4702 36.7294 73.5215 36.7467C73.5727 36.7641 73.6201 36.7914 73.6608 36.8271C73.7015 36.8627 73.7347 36.9061 73.7586 36.9547C73.7825 37.0032 73.7966 37.056 73.8 37.11C73.8066 37.2194 73.7695 37.3269 73.697 37.409C73.6245 37.4911 73.5223 37.5411 73.413 37.548Z" fill="#263238"/>
<path d="M73.437 37.9082L67.944 38.2652C67.835 38.2724 67.7333 38.3226 67.6613 38.4047C67.5892 38.4868 67.5528 38.5942 67.56 38.7032C67.5671 38.8122 67.6173 38.9139 67.6994 38.9859C67.7816 39.058 67.889 39.0944 67.998 39.0872L68.598 39.0482L69.498 40.5212C69.5492 40.6034 69.6217 40.6702 69.7077 40.7146C69.7938 40.759 69.8903 40.7792 69.987 40.7732L71.949 40.6472C72.0461 40.6397 72.1393 40.6062 72.219 40.5503C72.2987 40.4943 72.3619 40.418 72.402 40.3292L73.08 38.7602L73.491 38.7332C73.5961 38.7206 73.6924 38.6681 73.76 38.5866C73.8276 38.5051 73.8615 38.4008 73.8545 38.2952C73.8476 38.1895 73.8005 38.0905 73.7228 38.0185C73.6451 37.9466 73.5428 37.9071 73.437 37.9082Z" fill="#263238"/>
<g opacity="0.2">
<path d="M65.007 23.7541C65.4116 23.3237 65.8851 22.9638 66.408 22.6891C66.7501 22.5019 67.1181 22.3665 67.5 22.2871C67.776 22.2421 67.935 22.2571 67.953 22.3141C67.992 22.4461 67.452 22.6771 66.753 23.2141C65.8192 23.8936 65.1007 24.8273 64.6831 25.904C64.2656 26.9807 64.1666 28.1547 64.398 29.2861C64.557 30.1711 64.8 30.7051 64.698 30.7861C64.644 30.8191 64.518 30.7231 64.347 30.5041C64.112 30.1876 63.9278 29.8363 63.801 29.4631C63.6066 28.9075 63.5053 28.3237 63.501 27.7351C63.487 27.0026 63.6143 26.2744 63.876 25.5901" fill="white"/>
</g>
<g opacity="0.2">
<path d="M69.735 22.5182C69.273 22.5422 68.856 22.4432 68.793 22.2002C68.766 22.0802 68.844 21.9452 69.003 21.8342C69.2089 21.7091 69.4421 21.636 69.6826 21.6214C69.923 21.6068 70.1635 21.651 70.383 21.7502C70.557 21.8432 70.647 21.9692 70.635 22.0922" fill="white"/>
</g>
<path d="M72.3 40.4641C72.1692 40.4412 72.0399 40.4101 71.913 40.3711C71.6045 40.3059 71.2881 40.2867 70.974 40.3141C70.6644 40.3475 70.3613 40.4253 70.074 40.5451C69.852 40.6411 69.72 40.7191 69.714 40.7071C69.8109 40.6147 69.9237 40.5405 70.047 40.4881C70.3388 40.3459 70.6538 40.2575 70.977 40.2271C71.3004 40.1959 71.6268 40.2244 71.94 40.3111C72.0678 40.3414 72.1895 40.3931 72.3 40.4641Z" fill="#455A64"/>
<path d="M73.095 38.7779C73.095 38.8019 72.105 38.886 70.878 38.967C69.651 39.048 68.661 39.09 68.658 39.063C68.655 39.036 69.648 38.9549 70.872 38.8769C72.096 38.7989 73.092 38.7539 73.095 38.7779Z" fill="#455A64"/>
<path d="M72.792 39.4532C72.6157 39.4969 72.436 39.526 72.255 39.5402C71.922 39.5852 71.46 39.6332 70.947 39.6752C70.434 39.7172 69.972 39.7382 69.636 39.7472C69.4553 39.7636 69.2736 39.7636 69.093 39.7472C69.2708 39.711 69.4515 39.6909 69.633 39.6872L70.941 39.5882L72.249 39.4802C72.4289 39.4558 72.6105 39.4468 72.792 39.4532Z" fill="#455A64"/>
<path d="M33.24 76.2L34.44 78.111C34.44 78.111 39.54 73.428 44.577 74.751C44.568 74.745 40.032 70.899 33.24 76.2Z" fill="#6556D0"/>
<path d="M44.568 74.7452C44.568 74.7452 48.303 70.6892 53.781 71.6132L55.281 71.8382L54.807 70.9772C54.807 70.9772 45.27 67.7132 44.568 74.7452Z" fill="#6556D0"/>
<path d="M36.684 61.0682C36.684 61.0682 29.202 59.7812 24.3 62.4362L32.1 77.1002C32.1 77.1002 38.478 70.9532 44.58 74.7392L36.684 61.0682Z" fill="#F5F5F5"/>
<path d="M36.684 61.0678C36.6994 61.0868 36.7134 61.1068 36.726 61.1278L36.837 61.3138L37.269 62.0428L38.889 64.8208L44.625 74.7208C44.6321 74.7334 44.635 74.7479 44.633 74.7622C44.6311 74.7766 44.6245 74.7899 44.6143 74.8001C44.6041 74.8103 44.5908 74.8169 44.5764 74.8188C44.5621 74.8208 44.5475 74.8179 44.535 74.8108C43.6555 74.2669 42.6816 73.8934 41.664 73.7098C41.1295 73.6232 40.5883 73.5851 40.047 73.5958C39.4902 73.6203 38.9363 73.6905 38.391 73.8058C36.0859 74.3723 33.9592 75.5067 32.205 77.1058L32.139 77.1658C32.1322 77.173 32.1241 77.1787 32.1151 77.1826C32.1061 77.1865 32.0963 77.1885 32.0865 77.1885C32.0766 77.1885 32.0669 77.1865 32.0579 77.1826C32.0488 77.1787 32.0407 77.173 32.034 77.1658V77.1508L24.243 62.4658C24.2388 62.459 24.2362 62.4514 24.2352 62.4435C24.2341 62.4356 24.2348 62.4276 24.237 62.42C24.2393 62.4123 24.2431 62.4053 24.2483 62.3992C24.2534 62.3932 24.2598 62.3882 24.267 62.3848C25.8305 61.6048 27.5175 61.1023 29.253 60.8998C30.5773 60.7368 31.9125 60.6787 33.246 60.7258C34.35 60.7648 35.211 60.8518 35.793 60.9238C36.093 60.9598 36.309 60.9928 36.459 61.0198L36.63 61.0498H36.684H36.627L36.456 61.0288C36.306 61.0108 36.084 60.9808 35.79 60.9508C35.19 60.8908 34.344 60.8158 33.243 60.7888C31.9148 60.752 30.5857 60.8192 29.268 60.9898C27.5469 61.2014 25.8753 61.7089 24.327 62.4898L24.351 62.4088L32.151 77.0728L32.034 77.0518L32.1 76.9918C33.0096 76.179 34.0102 75.4743 35.082 74.8918C36.11 74.3254 37.2129 73.9073 38.358 73.6498C38.9119 73.5314 39.475 73.4611 40.041 73.4398C40.5914 73.4271 41.1419 73.4663 41.685 73.5568C42.7186 73.747 43.7075 74.1285 44.601 74.6818L44.508 74.7718L38.835 64.8718L37.239 62.0698L36.822 61.3258C36.777 61.2418 36.741 61.1788 36.717 61.1308C36.7045 61.1106 36.6935 61.0895 36.684 61.0678Z" fill="#263238"/>
<path d="M48.444 58.0591C48.444 58.0591 42.786 54.4591 36.78 61.0591L44.664 74.7361C44.664 74.7361 46.272 69.1861 55.686 71.1151L48.444 58.0591Z" fill="#F5F5F5"/>
<path d="M48.444 58.059C48.4594 58.0762 48.4725 58.0953 48.483 58.116C48.507 58.161 48.543 58.218 48.585 58.293L48.984 58.989L50.484 61.641L55.743 71.1C55.7472 71.1072 55.75 71.1153 55.7511 71.1236C55.7521 71.1319 55.7516 71.1404 55.7493 71.1485C55.7471 71.1566 55.7432 71.1642 55.738 71.1708C55.7328 71.1774 55.7263 71.1829 55.719 71.187C55.7045 71.1925 55.6885 71.1925 55.674 71.187L54.273 70.956C54.0337 70.9153 53.7923 70.8883 53.55 70.875L52.812 70.815C52.5615 70.794 52.3101 70.7879 52.059 70.797L51.3 70.8C51.042 70.8 50.787 70.851 50.529 70.875C50.2686 70.8963 50.01 70.9354 49.755 70.992L48.984 71.166L48.225 71.433C47.9754 71.5336 47.7311 71.6468 47.493 71.772C47.3692 71.8283 47.2508 71.8956 47.139 71.973L46.794 72.195C46.566 72.348 46.362 72.534 46.149 72.705C45.948 72.8933 45.7587 73.0937 45.582 73.305C45.2188 73.7314 44.9344 74.219 44.742 74.745C44.7352 74.7637 44.7213 74.7789 44.7033 74.7873C44.6853 74.7958 44.6647 74.7967 44.646 74.79C44.6294 74.7841 44.6155 74.7724 44.607 74.757L44.289 74.208C41.502 69.363 38.889 64.848 36.732 61.077C36.7247 61.0658 36.7209 61.0528 36.7209 61.0395C36.7209 61.0262 36.7247 61.0131 36.732 61.002C37.9227 59.6537 39.3751 58.5616 41.001 57.792C42.2625 57.2161 43.6455 56.9566 45.03 57.036C45.9143 57.0888 46.7843 57.2832 47.607 57.612C47.8223 57.7004 48.0326 57.8005 48.237 57.912L48.393 58.002L48.441 58.038L48.387 58.011L48.228 57.93C48.087 57.861 47.877 57.759 47.595 57.651C46.5425 57.2504 45.4204 57.0649 44.295 57.1056C43.1696 57.1463 42.0637 57.4124 41.043 57.888C39.4355 58.6597 38.0008 59.7485 36.825 61.089V61.017L44.4 74.157L44.73 74.7L44.592 74.718C44.7903 74.1708 45.0838 73.663 45.459 73.218C45.642 73.001 45.8363 72.7937 46.041 72.597C46.263 72.42 46.47 72.228 46.704 72.075L47.055 71.847C47.1698 71.7686 47.2913 71.7003 47.418 71.643C47.67 71.526 47.907 71.385 48.165 71.295L48.936 71.028L49.722 70.851C49.9807 70.7927 50.2434 70.7536 50.508 70.734C50.769 70.71 51.027 70.662 51.285 70.659H52.056C52.3091 70.6469 52.5627 70.6529 52.815 70.677L53.559 70.74C53.8034 70.7516 54.0469 70.7787 54.288 70.821L55.698 71.058L55.629 71.154C53.478 67.254 51.681 63.987 50.415 61.686C49.788 60.543 49.293 59.637 48.954 59.013L48.57 58.305C48.531 58.227 48.498 58.167 48.474 58.122C48.45 58.077 48.444 58.059 48.444 58.059Z" fill="#263238"/>
<path d="M26.4 55.3862L34.839 71.6312C34.839 71.6312 41.694 71.3312 44.598 74.6732L36.78 61.0682C36.78 61.0682 32.196 55.3862 26.4 55.3862Z" fill="#F5F5F5"/>
<path d="M26.4 55.386H26.616L27.264 55.413C27.336 55.413 27.414 55.413 27.492 55.413L27.741 55.455L28.305 55.548C28.5235 55.5842 28.7391 55.6364 28.95 55.704C29.1945 55.7626 29.4358 55.8337 29.673 55.917C31.689 56.589 34.395 58.215 36.825 61.017L44.655 74.613C44.6648 74.6302 44.6675 74.6505 44.6624 74.6696C44.6574 74.6887 44.645 74.705 44.628 74.715C44.6152 74.7252 44.5993 74.7308 44.583 74.7308C44.5666 74.7308 44.5507 74.7252 44.538 74.715L44.208 74.385C43.5806 73.7827 42.8486 73.2998 42.048 72.96C41.2725 72.6133 40.4632 72.3479 39.633 72.168C38.0577 71.8185 36.4462 71.6594 34.833 71.694C34.8202 71.6941 34.8077 71.6909 34.7966 71.6845C34.7855 71.6782 34.7763 71.6691 34.77 71.658C32.31 66.888 30.21 62.811 28.719 59.925C27.993 58.5 27.411 57.36 27 56.574C26.805 56.193 26.652 55.896 26.547 55.674L26.433 55.449L26.397 55.374C26.4149 55.3993 26.43 55.4265 26.442 55.455L26.568 55.686L27.042 56.586L28.8 59.952L34.89 71.598L34.827 71.562C36.4509 71.5227 38.0737 71.6798 39.66 72.03C40.499 72.2123 41.3172 72.4797 42.102 72.828C42.9183 73.1764 43.6645 73.6705 44.304 74.286L44.646 74.622L44.523 74.709C41.622 69.654 38.937 64.968 36.723 61.101C35.6385 59.8351 34.3975 58.7121 33.03 57.759C31.9863 57.0217 30.8481 56.4284 29.646 55.995C29.4098 55.9099 29.1695 55.8368 28.926 55.776C28.7173 55.7063 28.5037 55.6521 28.287 55.614L27.726 55.512L27.483 55.467L27.261 55.449L26.4 55.386Z" fill="#263238"/>
<path d="M52.74 101.46L52.92 101.76C53.1234 102.098 53.419 102.37 53.772 102.546L54.072 102.702L53.772 102.882C53.4353 103.087 53.1629 103.382 52.986 103.734L52.83 104.049L52.65 103.749C52.4467 103.411 52.1511 103.138 51.798 102.963L51.483 102.807L51.783 102.627C52.1216 102.425 52.3945 102.129 52.569 101.775L52.74 101.46Z" fill="#6556D0"/>
<path d="M36.108 39.5791L36.288 39.8791C36.4916 40.216 36.7872 40.4877 37.14 40.6621L37.44 40.8181L37.14 41.0011C36.8009 41.2029 36.5278 41.4989 36.354 41.8531L36.198 42.1531L36.018 41.8531C35.8144 41.5145 35.5176 41.2416 35.163 41.0671L34.848 40.9111L35.148 40.7311C35.4852 40.5257 35.7576 40.2293 35.934 39.8761L36.108 39.5791Z" fill="#6556D0"/>
<path d="M113.082 50.2559L113.262 50.5559C113.466 50.8945 113.762 51.1674 114.117 51.3419L114.432 51.4979L114.132 51.6779C113.795 51.8825 113.523 52.1791 113.349 52.5329L113.193 52.8329L113.01 52.5329C112.807 52.1953 112.511 51.9234 112.158 51.7499L111.84 51.5999L112.14 51.4169C112.479 51.2151 112.752 50.9191 112.926 50.5649L113.082 50.2559Z" fill="#6556D0"/>
<path d="M103.992 105.345L104.172 105.645C104.377 105.982 104.673 106.254 105.027 106.428L105.342 106.584L105.042 106.767C104.704 106.971 104.432 107.266 104.256 107.619L104.103 107.934L103.92 107.634C103.718 107.296 103.422 107.023 103.068 106.848L102.753 106.692L103.053 106.512C103.392 106.309 103.665 106.012 103.839 105.657L103.992 105.345Z" fill="#6556D0"/>
<path d="M105.723 116.922L105.81 116.958C105.905 116.995 106.009 117.005 106.11 116.988L106.203 116.97L106.167 117.057C106.13 117.152 106.119 117.256 106.137 117.357L106.155 117.45L106.068 117.414C105.973 117.377 105.869 117.366 105.768 117.384L105.675 117.402L105.711 117.315C105.748 117.219 105.759 117.116 105.741 117.015L105.723 116.922Z" fill="#6556D0"/>
<path d="M110.958 38.6431L111.042 38.6791C111.138 38.7158 111.241 38.7262 111.342 38.7091L111.432 38.6911L111.399 38.7781C111.36 38.8731 111.35 38.9773 111.369 39.0781L111.387 39.1711L111.3 39.1351C111.205 39.0983 111.101 39.088 111 39.1051L110.91 39.1231L110.943 39.0361C110.982 38.941 110.992 38.8369 110.973 38.7361L110.958 38.6431Z" fill="#6556D0"/>
<path d="M39.489 31.5L39.576 31.533C39.6711 31.5716 39.7752 31.582 39.876 31.563H39.969L39.933 31.647C39.8963 31.7425 39.8859 31.8461 39.903 31.947L39.921 32.037L39.834 32.004C39.739 31.9654 39.6348 31.955 39.534 31.974H39.441L39.477 31.89C39.5138 31.7945 39.5241 31.6909 39.507 31.59L39.489 31.5Z" fill="#6556D0"/>
<path d="M48.3 92.4482L48.387 92.4812C48.4817 92.5212 48.5863 92.5317 48.687 92.5112L48.78 92.4962L48.744 92.5832C48.7068 92.6786 48.6965 92.7824 48.714 92.8832L48.732 92.9732L48.645 92.9402C48.55 92.9016 48.4458 92.8912 48.345 92.9102L48.252 92.9282L48.288 92.8412C48.3248 92.7457 48.3351 92.6421 48.318 92.5412L48.3 92.4482Z" fill="#6556D0"/>
<path d="M57.873 116.007L57.789 116.094L57.54 116.343L56.571 117.3L52.971 120.771V120.735C53.16 124.5 53.4 129.6 53.652 135.3V135.426L53.544 135.357L52.245 134.487L44.013 128.976H43.995V128.958C42.765 125.289 41.73 122.193 40.995 120.009C40.635 118.923 40.353 118.065 40.155 117.471L39.939 116.796C39.915 116.724 39.897 116.667 39.885 116.625C39.885 116.583 39.867 116.565 39.87 116.565L39.894 116.619L39.957 116.79C40.011 116.949 40.089 117.171 40.191 117.459L41.061 119.988C41.805 122.169 42.861 125.256 44.103 128.919L44.079 128.889L52.32 134.391L53.619 135.258L53.517 135.315C53.274 129.615 53.055 124.515 52.893 120.744V120.723H52.908L56.532 117.285L57.519 116.358L57.777 116.121C57.84 116.031 57.873 116.007 57.873 116.007Z" fill="#6556D0"/>
<path d="M54.0391 133.575L54.012 134.424L54.6991 134.928L53.8831 135.165L53.6161 135.972L53.136 135.27L52.287 135.267L52.8091 134.595L52.5481 133.785L53.3491 134.073L54.0391 133.575Z" fill="#6556D0"/>
<path d="M44.121 127.812L44.139 128.361L44.601 128.661L44.082 128.844L43.941 129.378L43.605 128.943L43.056 128.973L43.365 128.517L43.167 128.004L43.695 128.16L44.121 127.812Z" fill="#6556D0"/>
<path d="M39.849 115.533L40.263 116.067L40.938 116.025L40.56 116.586L40.806 117.213L40.158 117.027L39.636 117.456L39.612 116.781L39.045 116.418L39.678 116.187L39.849 115.533Z" fill="#6556D0"/>
<path d="M57.456 115.002L57.873 115.533L58.545 115.494L58.167 116.052L58.413 116.682L57.765 116.493L57.243 116.922L57.222 116.247L56.652 115.884L57.288 115.653L57.456 115.002Z" fill="#6556D0"/>
<path d="M52.836 120.144L53.1 120.486L53.529 120.459L53.289 120.816L53.445 121.218L53.031 121.098L52.698 121.371L52.683 120.942L52.32 120.708L52.725 120.561L52.836 120.144Z" fill="#6556D0"/>
<path d="M36.957 97.4547C40.2607 97.4547 42.939 94.7765 42.939 91.4727C42.939 88.169 40.2607 85.4907 36.957 85.4907C33.6532 85.4907 30.975 88.169 30.975 91.4727C30.975 94.7765 33.6532 97.4547 36.957 97.4547Z" fill="#6556D0"/>
<g opacity="0.3">
<path d="M36.18 93.3388C36.1806 93.5325 36.1237 93.722 36.0164 93.8832C35.9092 94.0445 35.7565 94.1704 35.5776 94.2448C35.3988 94.3191 35.2019 94.3388 35.0119 94.3011C34.8219 94.2635 34.6474 94.1703 34.5104 94.0333C34.3735 93.8964 34.2803 93.7218 34.2426 93.5318C34.205 93.3418 34.2246 93.1449 34.299 92.9661C34.3734 92.7873 34.4992 92.6346 34.6605 92.5273C34.8218 92.4201 35.0113 92.3632 35.205 92.3638C35.4633 92.3646 35.7109 92.4675 35.8935 92.6502C36.0762 92.8329 36.1792 93.0804 36.18 93.3388Z" fill="white"/>
</g>
<g opacity="0.3">
<path d="M34.8 90.525C34.8006 90.6379 34.7677 90.7484 34.7054 90.8425C34.6432 90.9366 34.5543 91.0102 34.4502 91.0538C34.3461 91.0974 34.2314 91.1091 34.1207 91.0874C34.0099 91.0658 33.9081 91.0117 33.828 90.9321C33.748 90.8525 33.6934 90.751 33.6712 90.6403C33.649 90.5297 33.6601 90.4149 33.7031 90.3106C33.7462 90.2062 33.8192 90.1171 33.913 90.0543C34.0068 89.9915 34.1172 89.958 34.23 89.958C34.3807 89.958 34.5252 90.0177 34.632 90.1239C34.7388 90.2301 34.7992 90.3744 34.8 90.525Z" fill="white"/>
</g>
<path d="M31.152 92.9278C31.179 93.0328 26.031 97.9708 27.36 99.0238C28.689 100.077 34.26 97.3768 39.027 93.5338C43.794 89.6908 48.132 85.0228 46.941 83.7868C45.75 82.5508 39.804 86.2078 39.804 86.2078L40.515 86.6638C40.515 86.6638 44.115 84.3568 45.249 85.2508C46.383 86.1448 43.149 89.6428 38.568 92.9848C33.987 96.3268 29.568 98.6668 28.887 97.7518C28.206 96.8368 31.437 93.7858 31.437 93.7858L31.152 92.9278Z" fill="#6556D0"/>
<g opacity="0.3">
<path d="M31.152 92.9278C31.179 93.0328 26.031 97.9708 27.36 99.0238C28.689 100.077 34.26 97.3768 39.027 93.5338C43.794 89.6908 48.132 85.0228 46.941 83.7868C45.75 82.5508 39.804 86.2078 39.804 86.2078L40.515 86.6638C40.515 86.6638 44.115 84.3568 45.249 85.2508C46.383 86.1448 43.149 89.6428 38.568 92.9848C33.987 96.3268 29.568 98.6668 28.887 97.7518C28.206 96.8368 31.437 93.7858 31.437 93.7858L31.152 92.9278Z" fill="black"/>
</g>
<g opacity="0.3">
<path d="M33.66 87.2578C33.708 87.3148 33.303 87.6598 32.844 88.3498C32.2351 89.2364 31.8992 90.2819 31.8779 91.3573C31.8565 92.4327 32.1507 93.4907 32.724 94.4008C33.156 95.1118 33.546 95.4718 33.495 95.5258C33.444 95.5798 32.985 95.2918 32.451 94.5838C32.1426 94.1695 31.8979 93.7115 31.725 93.2248C31.2873 92.0134 31.314 90.6827 31.8 89.4898C31.9914 89.009 32.2544 88.5599 32.58 88.1578C33.141 87.4738 33.633 87.2158 33.66 87.2578Z" fill="white"/>
</g>
<path d="M106.309 38.9823C108.274 37.0938 108.336 33.9697 106.448 32.0045C104.559 30.0393 101.435 29.9772 99.4699 31.8657C97.5047 33.7542 97.4426 36.8783 99.3311 38.8435C101.22 40.8087 104.344 40.8708 106.309 38.9823Z" fill="#6556D0"/>
<g opacity="0.4">
<path d="M104.499 33.5397C104.503 33.3808 104.553 33.2264 104.645 33.0963C104.736 32.9661 104.864 32.8659 105.012 32.8084C105.16 32.7508 105.322 32.7386 105.477 32.7731C105.633 32.8076 105.774 32.8873 105.884 33.0023C105.994 33.1172 106.067 33.2621 106.095 33.4187C106.122 33.5753 106.103 33.7365 106.039 33.882C105.974 34.0275 105.869 34.1508 105.735 34.2362C105.6 34.3215 105.444 34.3652 105.285 34.3617C105.179 34.3598 105.075 34.3369 104.978 34.2945C104.881 34.252 104.794 34.1908 104.721 34.1144C104.648 34.038 104.591 33.9479 104.552 33.8492C104.514 33.7506 104.496 33.6454 104.499 33.5397Z" fill="black"/>
</g>
<g opacity="0.4">
<path d="M106.107 35.4179C106.109 35.3246 106.138 35.234 106.192 35.1575C106.245 35.081 106.32 35.0221 106.407 34.9882C106.494 34.9544 106.589 34.947 106.68 34.9672C106.771 34.9874 106.854 35.0341 106.918 35.1015C106.983 35.1689 107.026 35.254 107.042 35.3459C107.058 35.4377 107.046 35.5323 107.009 35.6176C106.971 35.7029 106.909 35.7751 106.83 35.825C106.751 35.8749 106.659 35.9003 106.566 35.8979C106.504 35.8967 106.443 35.8834 106.387 35.8586C106.33 35.8338 106.279 35.798 106.237 35.7534C106.194 35.7088 106.161 35.6562 106.138 35.5986C106.116 35.541 106.105 35.4796 106.107 35.4179Z" fill="black"/>
</g>
<g opacity="0.4">
<path d="M105.48 36.858C105.503 36.858 105.525 36.8625 105.546 36.8714C105.566 36.8802 105.585 36.8931 105.601 36.9093C105.617 36.9256 105.629 36.9448 105.637 36.9659C105.645 36.987 105.649 37.0095 105.648 37.032C105.646 37.0779 105.627 37.1214 105.594 37.1533C105.561 37.1852 105.517 37.203 105.471 37.203C105.425 37.2014 105.382 37.182 105.351 37.1489C105.319 37.1158 105.302 37.0717 105.303 37.026C105.303 37.0033 105.308 36.9809 105.317 36.9601C105.327 36.9393 105.34 36.9205 105.356 36.9049C105.373 36.8892 105.392 36.877 105.413 36.869C105.435 36.8609 105.457 36.8572 105.48 36.858Z" fill="black"/>
</g>
</svg>
