<svg width="52" height="51" viewBox="0 0 52 51" fill="none" xmlns="http://www.w3.org/2000/svg">
<rect x="0.355469" width="50.839" height="50.839" rx="6" fill="black"/>
<g clip-path="url(#clip0_204_243)">
<path d="M10.9469 14.5473C10.9469 13.5931 11.2809 12.8059 11.9488 12.1857C12.6167 11.5655 13.485 11.2554 14.5537 11.2554C15.6033 11.2554 16.4525 11.5607 17.1014 12.1714C17.7693 12.8012 18.1033 13.6217 18.1033 14.6332C18.1033 15.5492 17.7789 16.3125 17.13 16.9232C16.4621 17.553 15.5842 17.8679 14.4965 17.8679H14.4678C13.4182 17.8679 12.569 17.553 11.9202 16.9232C11.2713 16.2935 10.9469 15.5015 10.9469 14.5473ZM11.319 39.5947V20.4728H17.6739V39.5947H11.319ZM21.1949 39.5947H27.5497V28.9173C27.5497 28.2494 27.6261 27.7341 27.7787 27.3716C28.0459 26.7227 28.4514 26.174 28.9953 25.7256C29.5392 25.2771 30.2214 25.0529 31.042 25.0529C33.1794 25.0529 34.2481 26.4937 34.2481 29.3754V39.5947H40.603V28.6311C40.603 25.8067 39.9351 23.6646 38.5992 22.2046C37.2633 20.7447 35.4981 20.0148 33.3035 20.0148C30.8417 20.0148 28.9238 21.0739 27.5497 23.1922V23.2495H27.5211L27.5497 23.1922V20.4728H21.1949C21.233 21.0835 21.2521 22.9823 21.2521 26.1693C21.2521 29.3563 21.233 33.8314 21.1949 39.5947Z" fill="white"/>
</g>
<defs>
<clipPath id="clip0_204_243">
<rect width="29.6561" height="29.6561" fill="white" transform="translate(10.9469 10.5913)"/>
</clipPath>
</defs>
</svg>
