<svg width="22" height="16" viewBox="0 0 22 16" fill="none" xmlns="http://www.w3.org/2000/svg">
<path d="M0 1.33333C0 0.595833 0.595833 0 1.33333 0H17.3333C18.0708 0 18.6667 0.595833 18.6667 1.33333C18.6667 2.07083 18.0708 2.66667 17.3333 2.66667H1.33333C0.595833 2.66667 0 2.07083 0 1.33333ZM2.66667 8C2.66667 7.2625 3.2625 6.66667 4 6.66667H20C20.7375 6.66667 21.3333 7.2625 21.3333 8C21.3333 8.7375 20.7375 9.33333 20 9.33333H4C3.2625 9.33333 2.66667 8.7375 2.66667 8ZM18.6667 14.6667C18.6667 15.4042 18.0708 16 17.3333 16H1.33333C0.595833 16 0 15.4042 0 14.6667C0 13.9292 0.595833 13.3333 1.33333 13.3333H17.3333C18.0708 13.3333 18.6667 13.9292 18.6667 14.6667Z" fill="black"/>
</svg>
