<svg width="61" height="63" viewBox="0 0 61 63" fill="none" xmlns="http://www.w3.org/2000/svg">
<path d="M53.889 37.2884C53.387 37.1211 53.2615 36.8768 53.2916 36.3982C53.3284 35.7941 53.2916 35.1849 53.2916 34.5792C53.2916 33.2806 53.0389 33.0229 51.7638 33.0212H41.238V29.0603C42.4847 29.0603 43.6929 29.077 44.9011 29.0603C45.8818 29.0418 46.8825 29.0904 47.838 28.913C49.1923 28.6492 50.4327 27.975 51.3907 26.982C52.3487 25.989 52.9779 24.7252 53.1929 23.3623C53.4263 21.961 53.2273 20.5219 52.6226 19.2364C52.0178 17.951 51.0359 16.8802 49.8076 16.1666C49.5365 16.0127 49.3056 15.9139 49.3056 15.4889C49.3558 11.0611 45.3496 7.03482 40.5168 7.66737C40.4048 7.66787 40.294 7.64386 40.1923 7.59703C40.0905 7.5502 40.0002 7.48169 39.9278 7.39628C38.7681 5.84503 37.2252 5.20244 35.3259 5.44341C34.9644 5.49026 34.8155 5.39321 34.6314 5.11877C32.3037 1.62302 29.0489 -0.13574 24.8303 0.00817292C18.2621 0.230737 13.4343 5.86511 13.759 12.2241C13.8175 13.3603 14.0819 14.4848 14.261 15.6629L13.8627 15.8303C11.028 17.0753 9.32778 20.2012 9.84654 23.21C10.4205 26.5334 12.8587 28.831 16.1302 29.0151C17.6948 29.1038 19.2678 29.0502 20.8358 29.0586C21.2893 29.0586 21.7428 29.0586 22.2181 29.0586V31.5034H8.99812C8.04093 31.5034 7.70792 31.8381 7.69956 32.7769C7.69119 33.7157 7.67111 34.6612 7.69956 35.5999C7.71964 36.112 7.5707 36.3429 7.05529 36.527C5.95211 36.9309 5.0496 37.7485 4.53914 38.8066C4.02869 39.8647 3.95042 41.08 4.32094 42.1949C4.65669 43.2173 5.34187 44.0888 6.25621 44.6564C7.17054 45.2239 8.25558 45.4513 9.32085 45.2985C10.3861 45.1457 11.3635 44.6226 12.0815 43.8209C12.7994 43.0192 13.2121 41.9903 13.2469 40.9147C13.3406 38.9836 12.0755 37.1646 10.1913 36.4617C9.99045 36.3864 9.68924 36.2057 9.67753 36.0601C9.629 35.2117 9.6541 34.3599 9.6541 33.4647H22.782C23.9534 33.4647 24.2195 33.1835 24.2211 32.0155V29.0954H29.2631V29.7999C29.2631 33.3141 29.2548 36.8282 29.2732 40.3424C29.2732 40.821 29.1761 41.0519 28.6724 41.2293C27.6473 41.5947 26.7879 42.3166 26.2509 43.2631C25.7138 44.2096 25.5351 45.3177 25.7473 46.3851C25.9578 47.4186 26.5164 48.3487 27.3298 49.0202C28.1432 49.6917 29.1622 50.064 30.217 50.0749C32.4359 50.0833 34.3888 48.4618 34.7502 46.3131C34.9367 45.252 34.7442 44.159 34.2064 43.2255C33.6687 42.2919 32.8198 41.577 31.8084 41.2059L31.2729 41.0034V29.0971H39.2701V33.1936C39.2701 34.867 39.4023 34.9908 41.1025 34.9908H51.3103V37.0759L50.8752 37.2265C48.5458 38.0465 47.2724 40.406 47.9049 42.7303C48.2031 43.8549 48.9183 44.8238 49.9053 45.4399C50.8922 46.056 52.0767 46.2731 53.218 46.047C55.1173 45.6956 56.702 43.967 56.861 42.071C57.0417 39.8889 55.8904 37.9846 53.889 37.2884ZM11.2974 40.8026C11.293 41.3231 11.1343 41.8305 10.8412 42.2607C10.5482 42.6909 10.134 43.0244 9.65122 43.2189C9.16844 43.4135 8.63877 43.4604 8.12933 43.3536C7.61989 43.2469 7.1536 42.9913 6.78956 42.6192C6.42552 42.2472 6.18011 41.7755 6.08442 41.2639C5.98874 40.7522 6.04709 40.2237 6.25208 39.7452C6.45707 39.2668 6.79947 38.86 7.2359 38.5763C7.67233 38.2927 8.18314 38.145 8.7036 38.1519C9.39898 38.1633 10.0617 38.449 10.5475 38.9467C11.0332 39.4444 11.3028 40.1138 11.2974 40.8093V40.8026ZM32.8743 45.4697C32.8823 45.9906 32.7354 46.502 32.4523 46.9393C32.1692 47.3766 31.7627 47.72 31.2842 47.926C30.8058 48.1319 30.277 48.1912 29.7648 48.0963C29.2526 48.0014 28.7801 47.7566 28.4072 47.3929C28.0343 47.0291 27.7778 46.5629 27.6702 46.0532C27.5626 45.5436 27.6087 45.0134 27.8027 44.53C27.9967 44.0466 28.3299 43.6316 28.76 43.3377C29.1901 43.0439 29.6978 42.8843 30.2186 42.8793C30.9146 42.8735 31.5846 43.1434 32.0822 43.63C32.5799 44.1166 32.8646 44.7805 32.8743 45.4764V45.4697ZM31.5557 27.1074H16.8163C14.0317 27.1074 12.0638 25.3821 11.7442 22.6661C11.4463 20.1443 13.0829 17.922 15.7018 17.3012C16.5921 17.0887 16.8263 16.5749 16.4732 15.6512C15.0592 11.9697 15.4541 8.50408 17.9057 5.37647C21.5018 0.786309 29.6196 0.32612 33.2576 6.56794C33.9704 7.79455 33.9754 7.79121 35.3108 7.41971C36.6462 7.04821 38.0017 7.69582 38.6007 9.03455C38.9522 9.81938 39.2835 10.0185 40.0633 9.77587C43.7113 8.6413 47.6455 11.8911 47.3493 15.8654C47.3493 15.9708 47.3309 16.0746 47.3242 16.1783C47.2673 17.015 47.4079 17.2326 48.1944 17.5505C48.9106 17.8346 49.5514 18.2806 50.0664 18.8537C50.5814 19.4268 50.9567 20.1114 51.1629 20.8538C51.3691 21.5962 51.4005 22.3763 51.2548 23.1329C51.1091 23.8895 50.7902 24.602 50.323 25.2148C49.3474 26.4932 48.0338 27.1074 46.4189 27.1074C41.4656 27.1074 36.5112 27.1074 31.5557 27.1074ZM52.2859 44.1762C51.5887 44.1677 50.9233 43.8827 50.4363 43.3837C49.9492 42.8847 49.6803 42.2127 49.6888 41.5154C49.6972 40.8182 49.9823 40.1529 50.4812 39.6658C50.9802 39.1788 51.6523 38.9099 52.3495 38.9183C53.0456 38.9349 53.7076 39.223 54.1941 39.7211C54.6806 40.2192 54.9531 40.8878 54.9533 41.5841C54.9406 42.2806 54.653 42.9439 54.1534 43.4294C53.6538 43.9149 52.9825 44.1833 52.2859 44.1762Z" fill="#702AFC"/>
<path d="M17.3419 50.6303C17.3252 48.6356 15.9848 47.2835 13.9951 47.2651C10.4609 47.245 6.92606 47.245 3.3907 47.2651C1.37257 47.2751 0.0120857 48.6607 0.00371869 50.6688C-0.00464836 52.5095 0.00371869 54.3503 0.00371869 56.191C0.00371869 57.267 0.299912 57.5632 1.3893 57.5649C3.79344 57.5649 6.19868 57.5649 8.60505 57.5649C11.0934 57.5649 13.5834 57.5649 16.0718 57.5649C17.0374 57.5649 17.3486 57.2436 17.352 56.2831C17.3486 54.3955 17.3587 52.5129 17.3419 50.6303ZM15.4192 55.5819H13.2973C13.2973 54.9577 13.2973 54.3402 13.2973 53.7228C13.2973 52.963 12.9224 52.538 12.3016 52.5514C11.6808 52.5648 11.3595 52.963 11.3444 53.7043C11.331 54.3084 11.3444 54.9125 11.3444 55.5602H6.01126C6.01126 54.9243 6.02632 54.2666 6.01126 53.6073C5.98951 52.8727 5.48748 52.4359 4.83987 52.5714C4.27091 52.6886 4.06843 53.1019 4.05839 53.6324C4.04668 54.2582 4.05839 54.8841 4.05839 55.5568H2.0001C1.97108 55.4257 1.95206 55.2925 1.9432 55.1585C1.9432 53.6943 1.92981 52.2301 1.9432 50.7675C1.95324 49.6848 2.44523 49.2012 3.5296 49.1995C6.95897 49.1995 10.3883 49.1995 13.8177 49.1995C14.8887 49.1995 15.4091 49.7015 15.4158 50.7608C15.4259 52.3455 15.4192 53.9303 15.4192 55.5819Z" fill="#702AFC"/>
<path d="M60.9946 51.4419C60.9846 49.4339 59.6157 48.0516 57.6043 48.0466C54.0901 48.0366 50.5759 48.0366 47.0618 48.0466C45.0068 48.0466 43.6614 49.4054 43.648 51.4754C43.638 53.3162 43.648 55.1569 43.648 56.9977C43.648 58.0335 43.9559 58.3364 44.9867 58.3364C47.4333 58.3364 49.8804 58.3364 52.328 58.3364C54.7963 58.3364 57.2646 58.3364 59.7328 58.3364C60.6449 58.3364 60.9862 57.9883 60.9896 57.0864C60.9996 55.2071 61.0046 53.3245 60.9946 51.4419ZM59.0334 56.3484H56.9466C56.9466 55.7694 56.9466 55.2138 56.9466 54.6582C56.9466 53.763 56.627 53.3329 55.976 53.3195C55.3251 53.3061 54.9854 53.7429 54.982 54.6248C54.982 55.1837 54.982 55.7426 54.982 56.3333H49.6539C49.6539 55.7142 49.6539 55.1151 49.6539 54.5177C49.6405 53.7312 49.2991 53.3195 48.6783 53.3178C48.0575 53.3162 47.706 53.7395 47.6993 54.5093C47.6993 55.0933 47.6993 55.6807 47.6993 56.3132H45.5992C45.5992 54.5729 45.5624 52.8443 45.6159 51.1173C45.6377 50.4245 46.2134 49.9727 46.9547 49.9693C50.5313 49.9526 54.1068 49.9526 57.6812 49.9693C58.4527 49.9693 58.9949 50.4596 59.02 51.1976C59.0618 52.8961 59.0334 54.5863 59.0334 56.3484Z" fill="#702AFC"/>
<path d="M38.9137 55.4014C38.9036 53.3615 37.5247 51.9759 35.4832 51.9692C31.9902 51.9614 28.4973 51.9614 25.0043 51.9692C22.9627 51.9692 21.5838 53.3582 21.5738 55.3981C21.5638 57.2606 21.5738 59.1214 21.5738 60.9839C21.5738 61.9595 21.8733 62.2624 22.8389 62.2641C25.3077 62.2641 27.7755 62.2641 30.2421 62.2641C32.7321 62.2641 35.2216 62.2641 37.7105 62.2641C38.5941 62.2641 38.9137 61.9294 38.917 61.0508C38.9187 59.1666 38.9237 57.284 38.9137 55.4014ZM36.9608 60.3045H34.8707C34.8707 59.6786 34.8707 59.0796 34.8707 58.4821C34.8624 57.7274 34.4976 57.2656 33.9085 57.2505C33.3195 57.2355 32.9145 57.7124 32.9045 58.5039C32.9045 59.0862 32.9045 59.6753 32.9045 60.2928H27.583C27.583 59.6837 27.583 59.0879 27.583 58.4905C27.573 57.7074 27.173 57.2271 26.5656 57.2505C25.9581 57.2739 25.6268 57.7308 25.6184 58.4939C25.6184 59.0779 25.6184 59.6652 25.6184 60.2894H23.4982V59.118C23.4982 57.9048 23.4899 56.6933 23.4982 55.48C23.5099 54.4291 24.0002 53.9372 25.0378 53.9355C28.5084 53.9288 31.9785 53.9288 35.448 53.9355C36.3383 53.9355 36.914 54.3304 36.9407 55.1069C36.9993 56.8221 36.9608 58.5324 36.9608 60.3045Z" fill="#702AFC"/>
<path d="M37.7392 16.4395C37.7392 15.7701 37.5233 15.1844 36.9309 14.838C36.5962 14.6456 36.2063 14.5669 35.788 14.418C35.88 12.9119 35.7177 11.436 34.7003 10.191C33.6828 8.94595 32.3575 8.26989 30.7343 8.24479C29.488 8.21289 28.2756 8.6521 27.3389 9.47474C25.8044 10.79 25.4078 12.5321 25.5718 14.4766C24.0942 14.7343 23.6106 15.3133 23.6089 16.7056C23.6089 18.9195 23.6089 21.1351 23.6089 23.349C23.6089 24.6877 24.29 25.3755 25.6036 25.3788C28.9895 25.3866 32.3742 25.3866 35.7578 25.3788C37.0246 25.3788 37.7224 24.7095 37.7341 23.4594C37.7559 21.12 37.7442 18.7789 37.7392 16.4395ZM28.8416 10.7649C29.3516 10.3935 29.9626 10.186 30.5933 10.1702C31.224 10.1543 31.8446 10.3309 32.3725 10.6763C33.7665 11.5849 33.9891 12.9487 33.8234 14.5151H27.5381C27.3607 13.0307 27.5481 11.7121 28.8416 10.7649ZM35.7277 23.4092H25.6053V16.5165H35.7277V23.4092Z" fill="#702AFC"/>
</svg>
