<svg width="61" height="59" viewBox="0 0 61 59" fill="none" xmlns="http://www.w3.org/2000/svg">
<g clip-path="url(#clip0_494_7257)">
<path d="M55.121 18.198C54.8264 17.8505 54.2722 17.4933 54.2929 17.1698C54.3168 16.7823 54.8471 16.4395 55.1273 16.0488C55.3359 15.7621 55.5016 15.6964 55.7643 15.9815C56.0169 16.2359 56.2866 16.4724 56.5717 16.6894C57.0876 17.1074 57.5271 17.0801 57.9778 16.5773C58.5999 15.8822 59.2082 15.1717 59.8027 14.4457C60.1913 13.9652 60.1801 13.5168 59.7295 13.1228C57.5415 11.2074 55.3444 9.3064 53.1384 7.41982C52.6766 7.02424 52.2179 7.06428 51.8214 7.5095C51.1749 8.23766 50.5427 8.98022 49.9248 9.73721C49.5649 10.1792 49.6063 10.6196 50.0124 11.0184C50.2803 11.2855 50.5666 11.5333 50.8691 11.7599C51.1526 11.9697 51.2147 12.1363 50.9376 12.4117C50.6439 12.7116 50.3724 13.0328 50.1255 13.3726C49.9408 13.6161 49.7847 13.5969 49.5458 13.4479C46.9475 11.8266 44.0604 10.7289 41.0454 10.2161C40.7269 10.1616 40.6154 10.0655 40.6282 9.73561C40.6552 9.095 40.6584 8.45439 40.6282 7.81379C40.6107 7.44704 40.7587 7.39579 41.0741 7.4022C41.9674 7.42142 42.8608 7.42622 43.7541 7.4022C44.4475 7.39712 45.1106 7.11578 45.598 6.61984C46.0855 6.1239 46.3575 5.45383 46.3546 4.7565C46.3657 4.15753 46.3546 3.55856 46.3546 2.9596C46.353 1.06341 45.2972 0.00960909 43.3942 0C41.9053 0 40.4148 0 38.9259 0C36.0865 0 33.2472 0 30.4079 0C28.7183 0.0160151 27.6355 1.09063 27.6068 2.7546C27.5956 3.41283 27.5909 4.07265 27.6068 4.73087C27.6466 6.29876 28.7406 7.38298 30.2948 7.4022C31.15 7.41341 32.0035 7.41982 32.8571 7.4022C33.2074 7.39259 33.3571 7.46786 33.3348 7.85703C33.2902 8.41452 33.2902 8.97472 33.3348 9.53221C33.3842 10.0255 33.1931 10.1728 32.744 10.2513C29.7486 10.7641 26.8848 11.872 24.32 13.5104C24.0015 13.7138 23.7993 13.6961 23.5986 13.3823C23.5044 13.2538 23.4012 13.1323 23.2897 13.0187C22.4935 12.0786 22.4935 12.0786 23.4346 11.2458C23.5094 11.1802 23.5938 11.1193 23.6575 11.0488C24.0748 10.6341 24.1353 10.1648 23.7626 9.71639C23.1575 8.97862 22.5359 8.2526 21.8979 7.53833C21.4695 7.05787 21.0236 7.02424 20.538 7.44063C18.3499 9.31334 16.1683 11.1983 13.993 13.0956C13.5535 13.4783 13.5153 13.9732 13.8816 14.4232C14.4994 15.1776 15.138 15.9174 15.7925 16.6461C16.1683 17.0673 16.6174 17.0962 17.0664 16.7502C17.3534 16.5355 17.6248 16.3006 17.8786 16.0472C18.1541 15.7669 18.3563 15.7109 18.6095 16.0824C18.8391 16.4084 19.0987 16.7119 19.385 16.9889C19.6191 17.2227 19.6016 17.3764 19.3771 17.6135C18.4168 18.6224 17.563 19.7285 16.8292 20.9142C16.7508 21.0711 16.6274 21.2008 16.4749 21.2864C16.3225 21.3721 16.148 21.4098 15.974 21.3946C14.286 21.369 12.598 21.3786 10.9101 21.3946C10.2396 21.3946 9.86701 21.7149 9.85427 22.2691C9.84153 22.8232 10.2349 23.1883 10.9244 23.2011C11.5614 23.2123 12.1983 23.2011 12.8353 23.2011H15.4469C15.0998 24.0387 14.7606 24.777 14.4915 25.5409C14.3322 25.9686 14.1634 26.1463 13.6666 26.1399C11.0454 26.1047 8.42426 26.1239 5.80311 26.1239C5.54549 26.107 5.28685 26.115 5.03077 26.1479C4.83093 26.1723 4.64632 26.2676 4.51024 26.4168C4.37417 26.566 4.29559 26.7592 4.2887 26.9615C4.26214 27.1626 4.30876 27.3665 4.41997 27.5358C4.53117 27.705 4.69947 27.8281 4.89382 27.8824C5.10559 27.9352 5.32457 27.9525 5.54195 27.9336C8.10418 27.9336 10.6648 27.9432 13.2271 27.9336C13.622 27.9336 13.7271 27.9913 13.6124 28.4141C13.3549 29.3334 13.1911 30.2768 13.1236 31.2295C13.0933 31.7004 12.9388 31.8189 12.4866 31.8173C8.77301 31.7981 5.05944 31.8173 1.3395 31.7981C0.794883 31.7981 0.344222 31.9038 -0.00292969 32.341V33.0585C0.32989 33.5149 0.778958 33.6318 1.32994 33.6318C5.02281 33.6158 8.71727 33.6318 12.4101 33.6126C12.856 33.6126 12.9898 33.7199 12.9691 34.1731C12.9344 35.1321 12.9926 36.0922 13.1427 37.0398C13.2032 37.445 13.0837 37.493 12.7302 37.4898C11.1473 37.4754 9.55489 37.4866 7.96245 37.4866C6.77131 37.4866 5.58016 37.4866 4.38902 37.4866C4.18766 37.4718 3.9874 37.5275 3.82223 37.6442C3.65706 37.761 3.53717 37.9317 3.48292 38.1273C3.42042 38.3085 3.41985 38.5055 3.48129 38.6871C3.54273 38.8687 3.66267 39.0245 3.82211 39.1298C4.05938 39.3108 4.34284 39.2899 4.61833 39.2899C7.41943 39.2899 10.2189 39.2899 13.0184 39.2787C13.4118 39.2787 13.5583 39.386 13.6427 39.7736C13.7938 40.4536 13.9874 41.1232 14.2223 41.7787C14.3672 42.1823 14.2606 42.2495 13.88 42.2447C12.5901 42.2287 11.2986 42.2319 10.0087 42.2447C9.38769 42.2447 9.01346 42.5779 8.99276 43.0967C8.96888 43.6573 9.37654 44.0432 10.047 44.048C11.5375 44.0593 13.0264 44.0689 14.5153 44.048C14.9485 44.0384 15.1714 44.1569 15.3673 44.5669C21.7371 57.8963 38.6742 62.3437 50.7035 53.8557C50.8534 53.7587 50.9918 53.6448 51.116 53.5162C51.2611 53.3749 51.349 53.1845 51.3625 52.9819C51.3761 52.7792 51.3143 52.5787 51.1892 52.4192C50.9185 52.0364 50.5347 51.9035 50.092 52.1117C49.8822 52.224 49.681 52.352 49.4901 52.4944C44.2844 56.0001 38.5803 57.1596 32.4669 55.9057C20.3644 53.4217 12.6394 41.4072 15.251 29.2613C17.2878 19.7867 25.406 12.5447 34.9495 11.7583C41.1059 11.2522 46.6524 12.9178 51.3246 17.0001C57.516 22.4052 60.0448 29.3077 58.9301 37.4754C58.2851 42.1951 56.1592 46.2501 52.8565 49.6726C52.3358 50.2123 52.2864 50.7312 52.6973 51.1331C53.1081 51.5351 53.6193 51.4775 54.14 50.9362C58.3711 46.5432 60.6945 41.2838 60.9732 35.1837C61.2646 28.7632 59.2693 23.0906 55.121 18.198ZM43.2016 1.80811C44.329 1.80811 44.5615 2.01791 44.5631 3.15498C44.5631 3.63544 44.5631 4.11589 44.5631 4.59635C44.5472 5.3971 43.579 5.97685 42.8783 5.6005C42.719 5.51241 42.7684 5.36027 42.7668 5.23055C42.7668 4.71165 42.7668 4.19437 42.7668 3.67548C42.7668 3.21744 42.7843 2.75781 42.7668 2.30138C42.7382 1.95064 42.8082 1.80811 43.2016 1.80811ZM30.7423 5.6053C29.6372 5.6053 29.4062 5.3939 29.4062 4.30007C29.4062 3.77957 29.3951 3.26068 29.4062 2.74179C29.427 2.0051 30.4827 1.44617 31.1022 1.83373C31.2519 1.92822 31.2025 2.08197 31.2041 2.21489C31.2041 2.71297 31.2041 3.21264 31.2041 3.71231C31.2041 4.21198 31.177 4.67322 31.2121 5.15367C31.2455 5.54284 31.0926 5.6053 30.7423 5.6053ZM16.8801 14.5241C16.7909 14.601 16.6986 14.6731 16.5616 14.7884C16.3303 14.5427 16.1139 14.2834 15.9135 14.0116C15.7638 13.7842 16.0473 13.7186 16.1571 13.6209C17.6843 12.2852 19.2306 10.9752 20.7418 9.61709C21.1367 9.26476 21.2721 9.53702 21.4679 9.77724C21.6638 10.0175 21.9632 10.1568 21.5412 10.5107C19.9663 11.832 18.4296 13.1869 16.8801 14.5241ZM22.2068 14.979C22.0906 15.0526 21.9918 15.1551 21.8788 15.2352C21.5428 15.4722 21.2577 16.0087 20.9233 15.9399C20.5889 15.871 20.3564 15.3745 20.0841 15.0542C19.9408 14.8941 19.8038 14.7211 19.6366 14.5209C19.7338 14.4393 19.8261 14.3608 19.9153 14.2871C21.2116 13.1228 21.2195 13.1292 22.2578 14.5642C22.3947 14.7531 22.4027 14.8556 22.2068 14.979ZM34.4463 4.56912C34.4463 5.69819 34.4463 5.69018 33.3205 5.61331C33.0466 5.59569 33.002 5.4964 33.002 5.25617C33.0099 4.23921 33.0179 3.22225 33.002 2.21329C33.002 1.87858 33.1246 1.82893 33.4176 1.82412C34.4527 1.80491 34.4527 1.7937 34.4527 2.84269L34.4463 4.56912ZM36.6534 1.81612C37.6997 1.78729 37.6981 1.77768 37.6981 2.83308V4.56271C37.6981 5.69819 37.6981 5.68377 36.5706 5.6085C36.3079 5.59089 36.2346 5.5044 36.2378 5.25457C36.2474 4.23921 36.2537 3.22225 36.2378 2.21169C36.2267 1.87377 36.3636 1.82092 36.6534 1.81291V1.81612ZM38.8462 9.6251C38.8558 9.92779 38.7045 9.93419 38.4816 9.91818C37.9688 9.88134 37.4544 9.86052 36.9544 9.8333C36.4639 9.86052 35.9894 9.87814 35.5212 9.91658C35.268 9.9374 35.112 9.91658 35.1263 9.59627C35.1518 8.98129 35.1438 8.36311 35.1263 7.74652C35.1183 7.48548 35.2011 7.4054 35.4607 7.4086C36.4703 7.42142 37.4799 7.41821 38.4863 7.4086C38.7125 7.4086 38.8558 7.42302 38.8478 7.7177C38.8271 8.34709 38.8271 8.9861 38.8462 9.6219V9.6251ZM39.5039 4.63318C39.5039 3.85484 39.5182 3.07651 39.5039 2.29977C39.4959 1.95385 39.5676 1.81131 39.9578 1.81131C40.9753 1.81131 40.9753 1.79209 40.9753 2.80105V3.76196C40.9753 4.21999 40.9546 4.67963 40.9753 5.13766C40.996 5.48999 40.9084 5.61811 40.5231 5.61811C39.5039 5.6053 39.5039 5.62932 39.5039 4.62998V4.63318ZM52.2434 9.78846C52.4266 9.55784 52.5428 9.25515 52.9489 9.61869C54.4712 10.9816 56.0302 12.3012 57.5797 13.6353C57.6848 13.725 57.8074 13.7954 57.9316 13.8803C57.6402 14.2006 57.4443 14.4953 57.1848 14.6987C57.0128 14.8332 56.887 14.5786 56.766 14.4745C55.2308 13.1564 53.718 11.8112 52.1638 10.5155C51.7307 10.1488 52.073 10.0015 52.2466 9.78525L52.2434 9.78846ZM53.562 15.1199C52.8915 15.9094 52.8915 15.9094 52.1049 15.2656C51.3692 14.6635 51.366 14.6603 52.0109 13.9188C52.2004 13.701 52.3501 13.4383 52.6224 13.2782L53.4823 14.0245C54.0652 14.5289 54.0652 14.5289 53.5651 15.1167L53.562 15.1199Z" fill="#702AFC"/>
<path d="M40.9974 52.5777C30.7596 54.8519 20.8594 48.4138 18.5106 38.1561C16.6379 29.9772 20.6556 21.14 28.0095 17.2659C28.4729 17.0225 28.9124 16.9328 29.3089 17.3604C29.7373 17.8201 29.6019 18.4543 28.9761 18.8018C27.8654 19.4202 26.8151 20.1425 25.839 20.959C25.546 21.2025 25.4982 21.3466 25.8056 21.6172C26.2387 21.9984 26.632 22.418 27.0317 22.8408C27.5095 23.3213 27.5397 23.8754 27.1416 24.2597C26.7435 24.6441 26.2546 24.6025 25.7737 24.1364C25.3453 23.72 24.9138 23.3052 24.5141 22.8552C24.28 22.5942 24.151 22.6102 23.9297 22.8776C21.7977 25.4 20.4396 28.4905 20.0202 31.7741C19.9581 32.2433 19.6874 32.8487 19.9772 33.1578C20.267 33.4669 20.8817 33.225 21.3531 33.249C21.6509 33.2635 21.9503 33.2394 22.2465 33.2619C22.772 33.2987 23.1111 33.6494 23.1175 34.1347C23.1233 34.2503 23.106 34.366 23.0668 34.4749C23.0275 34.5837 22.967 34.6836 22.8888 34.7686C22.8106 34.8537 22.7164 34.9221 22.6115 34.97C22.5067 35.0179 22.3934 35.0443 22.2783 35.0475C21.6063 35.0924 20.9279 35.0796 20.2543 35.062C19.9565 35.054 19.8849 35.1452 19.9119 35.4367C20.2814 39.314 21.7528 42.7012 24.401 45.6752C24.8979 45.1483 25.3565 44.6358 25.8517 44.1442C26.347 43.6525 26.8072 43.6285 27.2149 44.008C27.6225 44.3876 27.6018 44.9193 27.1161 45.4238C26.7148 45.8386 26.3199 46.2565 25.8915 46.6473C25.6638 46.8571 25.71 46.9676 25.9218 47.1486C28.6946 49.5169 32.1495 50.9286 35.779 51.1764C36.1421 51.2036 36.2169 51.0787 36.2058 50.7504C36.1851 50.1723 36.1883 49.5925 36.2058 49.0128C36.2233 48.433 36.5864 48.0839 37.0848 48.0807C37.2046 48.0807 37.3232 48.1045 37.4338 48.1509C37.5443 48.1973 37.6446 48.2653 37.7289 48.351C37.8132 48.4366 37.8797 48.5382 37.9247 48.6499C37.9697 48.7615 37.9922 48.8811 37.9909 49.0015C38.0164 49.5797 38.0116 50.1594 37.9909 50.7392C37.9813 51.0499 38.0243 51.1972 38.4002 51.1636C42.0241 50.8598 45.4572 49.4011 48.2 46.9997C48.4023 46.8251 48.4118 46.721 48.2176 46.5368C47.7987 46.1396 47.3927 45.7281 46.993 45.3101C46.5519 44.8472 46.5312 44.3107 46.9245 43.936C47.2923 43.5852 47.8258 43.6157 48.2526 44.024C48.6555 44.41 49.0488 44.804 49.4294 45.2124C49.6316 45.4286 49.7479 45.4734 49.974 45.2124C52.352 42.4181 53.7808 38.9332 54.0522 35.2654C54.0793 34.9451 53.9169 34.9563 53.7067 34.9563C53.1302 34.9563 52.5554 34.9659 51.9789 34.9563C51.3419 34.9435 50.9502 34.5879 50.9518 34.0434C50.9534 33.4989 51.3228 33.1642 51.9869 33.153C52.5617 33.153 53.1382 33.1385 53.7131 33.153C54.0077 33.1626 54.0809 33.0617 54.057 32.7702C53.7837 29.1233 52.3695 25.657 50.017 22.868C49.7558 22.5477 49.6253 22.607 49.3896 22.868C49.0026 23.2956 48.5934 23.6976 48.1698 24.098C47.7255 24.524 47.2318 24.5464 46.8496 24.1829C46.4675 23.8193 46.4754 23.2764 46.9165 22.8136C47.3146 22.3956 47.7127 21.976 48.1395 21.5884C48.4102 21.3418 48.4198 21.2041 48.1252 20.9478C45.8727 19.0055 43.1531 17.6913 40.2378 17.1362C39.6168 17.0161 38.9782 16.9761 38.354 16.8736C37.9336 16.8015 37.8587 16.9761 37.8762 17.354C37.9033 17.8905 37.8858 18.4318 37.8762 18.9699C37.8762 19.7018 37.5275 20.1294 36.959 20.1214C36.3905 20.1134 36.0863 19.705 36.0816 19.0004C36.0816 18.4222 36.0656 17.8425 36.0816 17.2643C36.0927 16.9536 36.0099 16.8463 35.6835 16.8704C34.7343 16.9402 33.7929 17.0918 32.8696 17.3236C32.4269 17.4341 31.9954 17.4613 31.6785 17.0417C31.2756 16.5068 31.5511 15.7829 32.2549 15.6004C34.0037 15.1342 35.8123 14.936 37.6199 15.0126C43.0119 15.2833 47.5885 17.362 51.1556 21.4651C60.6816 32.4227 55.1431 49.4356 40.9974 52.5777Z" fill="#702AFC"/>
<path d="M45.2572 40.8833C45.1347 40.7264 44.9983 40.5812 44.8495 40.4493C43.0447 38.6343 41.2363 36.8144 39.4241 34.9897C39.2473 34.8136 39.0865 34.6774 39.1406 34.3395C39.2855 33.4363 38.9479 32.6916 38.1851 32.1871C38.084 32.1309 38.0015 32.0459 37.9483 31.9428C37.895 31.8396 37.8733 31.7229 37.8858 31.6073C37.9001 30.8066 37.8858 30.0058 37.8858 29.2051C37.8858 28.4043 37.8858 27.6036 37.8858 26.8124C37.8858 26.1174 37.5434 25.7234 36.9765 25.7266C36.4096 25.7298 36.0943 26.1061 36.0911 26.8236C36.0911 28.3995 36.0911 29.9754 36.0911 31.5497C36.1031 31.6742 36.0796 31.7996 36.0231 31.9111C35.9667 32.0226 35.8798 32.1156 35.7726 32.1791C34.8283 32.8357 34.5273 33.9247 34.9668 34.9129C35.1734 35.3942 35.5467 35.7838 36.0174 36.0091C36.4881 36.2345 37.0241 36.2803 37.5259 36.138C37.8937 36.0387 38.0593 36.1604 38.2791 36.3815C40.0552 38.1784 41.835 39.971 43.6186 41.7593C43.7361 41.8943 43.8662 42.0176 44.0071 42.1277C44.4227 42.4015 44.8463 42.3919 45.1935 42.0236C45.5167 41.6873 45.5247 41.2741 45.2572 40.8833ZM37.365 34.0625C37.3459 34.2723 37.2058 34.4132 36.9128 34.3988C36.8123 34.3884 36.72 34.3382 36.6562 34.2594C36.5925 34.1806 36.5625 34.0795 36.5728 33.9784C36.5831 33.8773 36.633 33.7845 36.7114 33.7204C36.7898 33.6562 36.8903 33.6261 36.9908 33.6365C37.0452 33.6331 37.0997 33.6422 37.15 33.6632C37.2004 33.6842 37.2453 33.7165 37.2814 33.7575C37.3175 33.7986 37.3438 33.8474 37.3583 33.9003C37.3728 33.9531 37.3751 34.0086 37.365 34.0625Z" fill="#702AFC"/>
<path d="M36.9128 34.3991C36.8123 34.3887 36.72 34.3386 36.6562 34.2597C36.5925 34.1809 36.5625 34.0798 36.5728 33.9787C36.5832 33.8776 36.633 33.7848 36.7114 33.7207C36.7898 33.6566 36.8903 33.6264 36.9908 33.6368C37.0451 33.6331 37.0996 33.6421 37.1499 33.6629C37.2003 33.6836 37.2453 33.7157 37.2814 33.7567C37.3175 33.7977 37.3438 33.8464 37.3583 33.8992C37.3728 33.952 37.3751 34.0074 37.365 34.0612C37.3459 34.2726 37.1994 34.4135 36.9128 34.3991Z" fill="#702AFC"/>
</g>
<defs>
<clipPath id="clip0_494_7257">
<rect width="61" height="58.1846" fill="white"/>
</clipPath>
</defs>
</svg>
