<svg width="61" height="75" viewBox="0 0 61 75" fill="none" xmlns="http://www.w3.org/2000/svg">
<path d="M46.8278 12H10.0331C7.95861 12 7 12.9772 7 15.0719C7 25.0098 7 34.9453 7 44.8782C7 47.0044 7.9769 48 10.0789 48C22.3432 48 34.6087 48 46.8754 48C49.0085 48 50 46.9951 50 44.8339C50 34.9465 50 25.0597 50 15.1735C50 12.9439 49.0524 12 46.8278 12ZM47.7626 44.8247C47.7626 45.1147 47.6291 45.6319 47.4974 45.6541C47.0476 45.6973 46.5938 45.6649 46.1546 45.558C46.0137 45.5321 45.9076 45.3253 45.7887 45.2015C41.4494 40.8236 37.1095 36.4458 32.7689 32.0679C31.3054 30.5994 29.9095 30.5902 28.4662 32.0679C27.6448 32.8973 26.838 33.7304 25.9452 34.654C24.6464 33.3388 23.4463 32.0827 22.1913 30.8839C21.8779 30.5844 21.4648 30.4143 21.0333 30.4073C20.2009 30.4701 19.8094 31.5526 20.4022 32.1825C21.8364 33.699 23.3054 35.186 24.822 36.6157C25.5227 37.277 26.5471 37.1385 27.3027 36.4015C28.2466 35.4828 29.1729 34.5469 30.0815 33.5937C30.4474 33.2095 30.7127 33.1541 31.1151 33.5642C35.0044 37.5122 38.9023 41.4529 42.8086 45.3862C42.8948 45.4863 42.9754 45.5912 43.0501 45.7002C42.772 45.7224 42.5672 45.7501 42.3604 45.7501C31.628 45.7501 20.8955 45.7544 10.163 45.763C9.46969 45.763 9.21357 45.5783 9.21906 44.8395C9.25565 41.2189 9.21906 37.5966 9.25565 33.9761C9.27056 33.5946 9.41751 33.2305 9.67092 32.9472C11.3595 31.1905 13.0974 29.4837 14.7932 27.7307C15.2542 27.2523 15.5799 27.2523 15.9915 27.751C16.2809 28.0928 16.5978 28.4098 16.9391 28.6987C17.4349 29.129 18.0569 29.1106 18.4795 28.6876C18.6834 28.4825 18.7993 28.2048 18.8024 27.9142C18.8055 27.6237 18.6954 27.3435 18.4959 27.1341C18.0352 26.6099 17.5415 26.1163 17.0178 25.6563C15.9842 24.7697 14.5426 24.8528 13.5236 25.8558C12.3181 27.0417 11.1454 28.2572 9.95082 29.4523C9.76788 29.637 9.56847 29.8217 9.29224 30.0896C9.26845 29.8033 9.24284 29.6186 9.24101 29.4338C9.24101 24.6625 9.25382 19.8931 9.22455 15.1255C9.22455 14.4143 9.45506 14.2314 10.1191 14.2333C22.3871 14.248 34.6568 14.248 46.9284 14.2333C47.6309 14.2333 47.8029 14.4919 47.8029 15.1569C47.7761 25.0455 47.7626 34.9348 47.7626 44.8247Z" fill="#702AFC"/>
<path d="M24 8.00082C24 8.62531 23.5029 8.99671 22.5886 9C20.3792 9 18.1659 9 15.9564 9C13.7946 9 11.6347 9 9.48045 9C8.51286 9 7.98145 8.62366 8.00049 7.98603C8.01764 7.37962 8.55096 7 9.45759 7C13.8308 7 18.2021 7 22.5715 7C23.4876 7.00329 23.9943 7.37469 24 8.00082Z" fill="#702AFC"/>
<path d="M33.9998 8.02715C33.987 8.6065 33.5285 8.97636 32.7648 8.99273C32.0012 9.00909 31.2358 8.99273 30.474 8.99273C29.7121 8.99273 28.9467 9.00746 28.1849 8.99273C27.4231 8.978 27.0267 8.63105 27.0011 8.05661C26.9755 7.48218 27.4048 7.03049 28.1538 7.01903C29.7048 6.99284 31.2595 6.99448 32.8087 7.01903C33.5577 7.02394 34.0108 7.44617 33.9998 8.02715Z" fill="#702AFC"/>
<path d="M22 53.0016C21.9998 53.133 21.9738 53.263 21.9233 53.3842C21.8728 53.5055 21.7988 53.6156 21.7057 53.7083C21.6126 53.801 21.502 53.8744 21.3805 53.9244C21.2589 53.9744 21.1286 54 20.9971 53.9997C20.8657 54.0029 20.735 53.9795 20.6129 53.9309C20.4908 53.8823 20.3799 53.8095 20.2867 53.7169C20.1935 53.6243 20.1201 53.5138 20.0709 53.3921C20.0216 53.2704 19.9976 53.14 20.0002 53.0087C19.9991 52.8772 20.024 52.7468 20.0734 52.625C20.1228 52.5031 20.1958 52.3921 20.2881 52.2985C20.3805 52.2048 20.4905 52.1302 20.6117 52.079C20.733 52.0278 20.8631 52.0009 20.9948 52C21.2595 52.0045 21.5122 52.1115 21.6997 52.2983C21.8872 52.4851 21.9948 52.7372 22 53.0016V53.0016Z" fill="#702AFC"/>
<path d="M11.998 52.9862C12.0099 53.1174 11.9683 53.2485 11.8756 53.3715C11.7829 53.4945 11.6412 53.6067 11.459 53.7015C11.2769 53.7963 11.058 53.8716 10.8158 53.9228C10.5736 53.974 10.3131 54.0001 10.05 53.9995C9.78706 54.0037 9.52502 53.9818 9.27913 53.9351C9.03324 53.8883 8.8084 53.8176 8.61768 53.7271C8.42696 53.6366 8.27415 53.528 8.16813 53.4077C8.06212 53.2874 8.00501 53.1578 8.00012 53.0264C7.99426 52.7609 8.19688 52.5047 8.56454 52.3129C8.93221 52.121 9.43568 52.0088 9.96708 52.0001C10.2301 51.9982 10.4912 52.0222 10.7356 52.0708C10.98 52.1193 11.2028 52.1914 11.3914 52.283C11.58 52.3746 11.7307 52.4838 11.8348 52.6045C11.9388 52.7251 11.9943 52.8548 11.998 52.9862V52.9862Z" fill="#702AFC"/>
<path d="M17 53C17 53.2652 16.842 53.5196 16.5607 53.7071C16.2794 53.8946 15.8978 54 15.5 54C15.1022 54 14.7206 53.8946 14.4393 53.7071C14.158 53.5196 14 53.2652 14 53C14 52.7348 14.158 52.4804 14.4393 52.2929C14.7206 52.1054 15.1022 52 15.5 52C15.8978 52 16.2794 52.1054 16.5607 52.2929C16.842 52.4804 17 52.7348 17 53V53Z" fill="#702AFC"/>
<path d="M38.0113 20.0003C37.4831 19.9934 36.9588 20.0921 36.4694 20.2909C35.98 20.4896 35.5353 20.7843 35.1615 21.1576C34.7877 21.5309 34.4924 21.9751 34.293 22.4643C34.0936 22.9534 33.994 23.4775 34.0003 24.0057C34.0022 25.0597 34.4198 26.0703 35.1625 26.8182C35.9051 27.566 36.9128 27.9907 37.9667 28C39.0339 27.9951 40.0561 27.5694 40.8113 26.8153C41.5665 26.0611 41.9936 25.0395 42 23.9723C41.9912 22.9187 41.5676 21.911 40.821 21.1675C40.0744 20.4241 39.0649 20.0047 38.0113 20.0003V20.0003ZM37.9834 25.7332C37.5273 25.7298 37.0911 25.5464 36.7696 25.2228C36.4482 24.8993 36.2675 24.4618 36.2671 24.0057C36.2606 23.7798 36.2996 23.5548 36.3818 23.3442C36.464 23.1336 36.5877 22.9416 36.7456 22.7798C36.9034 22.6179 37.0922 22.4895 37.3007 22.402C37.5092 22.3146 37.7331 22.27 37.9592 22.2708C38.1915 22.2651 38.4225 22.3061 38.6386 22.3914C38.8547 22.4768 39.0515 22.6047 39.2171 22.7676C39.3828 22.9305 39.514 23.125 39.603 23.3396C39.692 23.5543 39.7369 23.7846 39.7351 24.0169C39.718 24.4727 39.5269 24.9047 39.2011 25.224C38.8753 25.5432 38.4395 25.7255 37.9834 25.7332V25.7332Z" fill="#702AFC"/>
<path d="M60.2414 66.6966C58.635 71.3142 55.242 74.014 50.4139 74.8646C50.2505 74.9008 50.0892 74.946 49.9307 75H47.2985C46.2474 74.7165 45.1909 74.4456 44.1471 74.1386C43.7774 74.0168 43.42 73.8602 43.0798 73.6709C42.3262 73.2934 42.0612 72.6867 42.3586 72.0835C42.6561 71.4803 43.2727 71.3467 44.0605 71.7223C49.9109 74.46 56.4752 71.6375 58.3231 65.5823C60.0214 60.0293 56.6302 54.106 50.989 52.7606C45.2937 51.4188 39.5966 55.1787 38.6465 60.9358C38.211 63.3889 38.7034 65.9165 40.0275 68.0257C40.1032 68.1521 40.1916 68.2695 40.2601 68.3977C40.5648 68.981 40.4404 69.5571 39.959 69.8894C39.8382 69.973 39.7016 70.0311 39.5577 70.0601C39.4137 70.0892 39.2653 70.0886 39.1216 70.0583C38.9779 70.0281 38.8418 69.9688 38.7217 69.8842C38.6016 69.7996 38.4999 69.6914 38.4229 69.5661C37.4237 68.1154 36.7586 66.4605 36.4758 64.7209C36.4001 64.2695 36.3478 63.818 36.2739 63.2943H3.79686C1.23858 63.2943 0 62.05 0 59.473C0 40.9206 0 22.3676 0 3.81402C0 1.24786 1.2494 0 3.81309 0H53.3201C55.8099 0 57.0899 1.2894 57.0917 3.79235C57.0917 13.7283 57.0917 23.6643 57.0917 33.6002C57.1053 33.8194 57.0999 34.0393 57.0755 34.2575C56.9619 34.8589 56.5923 35.2273 55.9667 35.211C55.3411 35.1948 54.9824 34.8318 54.9121 34.2106C54.8949 33.9666 54.8913 33.7218 54.9013 33.4774V3.89348C54.9013 2.47586 54.62 2.19776 53.1831 2.19776H3.89963C2.45732 2.19776 2.19771 2.4578 2.19771 3.89889V59.4116C2.19771 60.8563 2.45011 61.0983 3.90864 61.0983H36.3406C37.5269 52.6107 46.8334 47.5109 54.8616 51.9335C54.876 51.65 54.8976 51.3917 54.8976 51.1443C54.8976 47.4844 54.8976 43.8227 54.8976 40.1592C54.8865 39.94 54.8907 39.7204 54.9103 39.5018C54.9968 38.9239 55.3339 38.5718 55.9253 38.5321C56.5166 38.4923 56.8934 38.8174 57.0467 39.3754C57.091 39.6135 57.105 39.8562 57.0881 40.0978C57.0881 44.3705 57.099 48.6414 57.0881 52.9195C57.0795 53.1568 57.1199 53.3933 57.2067 53.6143C57.2936 53.8352 57.4251 54.0358 57.5929 54.2035C60.8706 57.8478 61.8495 62.0825 60.2414 66.6966Z" fill="#702AFC"/>
<path d="M43.75 62.75L47.25 66.25L54.25 58.75" stroke="#702AFC" stroke-width="1.5" stroke-linecap="round" stroke-linejoin="round"/>
</svg>
