<svg width="61" height="57" viewBox="0 0 61 57" fill="none" xmlns="http://www.w3.org/2000/svg">
<path d="M60.889 11.7032C60.5086 8.60372 59.052 5.73625 56.7734 3.60103C54.4948 1.46581 51.5388 0.19841 48.4212 0.0199532C39.9003 -0.441582 33.1301 7.17375 34.5752 15.5896C35.616 21.6373 40.8282 26.2893 46.922 26.5885C53.253 26.9068 58.8726 22.8834 60.5119 16.8548C60.7187 16.0941 60.8397 15.3095 61.0004 14.536V12.0342C60.9527 11.9277 60.9154 11.8168 60.889 11.7032ZM47.6987 24.8299C45.4227 24.8317 43.1971 24.1592 41.303 22.8972C39.4089 21.6352 37.9312 19.8404 37.0564 17.7392C36.1815 15.638 35.9489 13.3248 36.3877 11.0914C36.8265 8.85814 37.9172 6.80492 39.522 5.19099C41.1269 3.57706 43.1739 2.47479 45.4047 2.02333C47.6355 1.57188 49.95 1.79147 52.0561 2.6544C54.1622 3.51733 55.9654 4.9849 57.2381 6.87184C58.5107 8.75877 59.1958 10.9805 59.2068 13.2565C59.2152 14.7732 58.9238 16.2766 58.3492 17.6802C57.7746 19.0839 56.9283 20.3602 55.8589 21.4357C54.7894 22.5112 53.5179 23.3647 52.1175 23.9472C50.7171 24.5297 49.2154 24.8297 47.6987 24.8299Z" fill="#702AFC"/>
<path d="M50.4783 33.2443C50.2746 35.1541 48.9727 36.6437 47.1234 37.0225C46.7191 37.1053 46.6189 37.2676 46.5902 37.6368C46.3308 40.8294 45.1674 43.667 43.2322 46.2103C43.0143 46.5031 42.8895 46.8546 42.8741 47.2193C42.8454 49.7657 42.8597 52.3009 42.8582 54.8426C42.8678 55.0407 42.8598 55.2394 42.8343 55.4362C42.742 55.9248 42.4428 56.2128 41.9351 56.2192C41.8203 56.2195 41.7066 56.1966 41.6008 56.1518C41.4951 56.107 41.3995 56.0414 41.3198 55.9587C41.2402 55.876 41.178 55.7781 41.1371 55.6708C41.0963 55.5635 41.0775 55.4491 41.082 55.3343C41.0629 54.1232 41.0725 52.9121 41.0725 51.7009C41.0725 50.676 41.0725 49.6511 41.0725 48.5179C38.1145 51.0159 34.3678 52.3862 30.4962 52.3862C26.6245 52.3862 22.8779 51.0159 19.9199 48.5179V49.145C19.9199 51.1694 19.9199 53.1954 19.9199 55.2197C19.9199 55.92 19.4042 56.372 18.8281 56.2017C18.2806 56.0426 18.1342 55.6144 18.1358 55.0877C18.1358 53.5789 18.1358 52.0638 18.1358 50.5614V50.0203C18.1358 49.0272 18.2058 48.0293 18.1167 47.0442C18.0228 46.0081 17.0949 45.3986 16.6143 44.5471C15.3936 42.3907 14.5915 40.1164 14.4037 37.64C14.3767 37.274 14.2828 37.1069 13.8737 37.0225C12.8825 36.8178 11.9976 36.2641 11.3802 35.462C10.7627 34.66 10.4537 33.6629 10.5093 32.6523C10.6478 30.5467 12.2934 28.8534 14.3401 28.6942C15.1247 28.6337 15.5416 28.8772 15.6133 29.4358C15.6881 30.0311 15.3332 30.3701 14.5263 30.4703C13.296 30.6295 12.4366 31.4714 12.2982 32.6634C12.2471 33.2014 12.377 33.741 12.6673 34.1968C12.9576 34.6526 13.3917 34.9984 13.9008 35.1796C14.2204 35.2836 14.5532 35.342 14.8891 35.353C15.8806 35.4056 16.07 35.5949 16.113 36.6071C16.2896 40.831 17.9034 44.415 21.1453 47.1301C25.4153 50.7062 30.298 51.6357 35.5182 49.6765C40.6587 47.7476 43.6937 43.9121 44.6868 38.501C44.7924 37.8158 44.8583 37.125 44.8841 36.4321C44.9351 35.6443 45.1849 35.3849 45.9823 35.361C47.4512 35.3164 48.3695 34.6289 48.6465 33.3764C48.7127 33.0553 48.7131 32.7241 48.6476 32.4029C48.5822 32.0816 48.4522 31.777 48.2657 31.5074C48.0791 31.2379 47.8398 31.0089 47.5622 30.8345C47.2846 30.6601 46.9745 30.5437 46.6507 30.4926C46.4916 30.4687 46.3324 30.4608 46.1733 30.4321C45.6115 30.3287 45.3154 29.9547 45.3775 29.439C45.3864 29.3241 45.4193 29.2123 45.474 29.1108C45.5287 29.0093 45.604 28.9204 45.6952 28.8498C45.7863 28.7792 45.8913 28.7284 46.0032 28.7008C46.1151 28.6732 46.2316 28.6693 46.3451 28.6894C46.8963 28.7297 47.4387 28.8493 47.9557 29.0443C49.6204 29.7335 50.6629 31.5239 50.4783 33.2443Z" fill="#702AFC"/>
<path d="M13.4587 0.00725007C6.10438 -0.050044 0.0678155 5.84487 0.000972441 13.1451C-0.0202564 14.9012 0.306282 16.6442 0.961764 18.2735C1.61725 19.9029 2.58871 21.3864 3.82017 22.6386C5.05163 23.8907 6.51874 24.8868 8.13692 25.5694C9.75511 26.2519 11.4924 26.6075 13.2486 26.6155C20.5504 26.6888 26.5488 20.7525 26.6172 13.3918C26.6634 6.09474 20.7366 0.0629526 13.4587 0.00725007ZM13.2996 24.8347C11.0206 24.8347 8.79291 24.1586 6.89836 22.892C5.0038 21.6255 3.52757 19.8253 2.65648 17.7194C1.78539 15.6136 1.55861 13.2966 2.00483 11.0618C2.45105 8.82695 3.55022 6.77474 5.16323 5.16485C6.77623 3.55496 8.83057 2.45977 11.0663 2.01788C13.3019 1.57599 15.6184 1.80725 17.7226 2.68242C19.8268 3.55758 21.6241 5.0373 22.887 6.93431C24.1499 8.83131 24.8216 11.0603 24.8172 13.3393C24.8076 16.3885 23.5901 19.3096 21.4315 21.4632C19.2728 23.6168 16.3488 24.8274 13.2996 24.8299V24.8347Z" fill="#702AFC"/>
<path d="M32.3261 9.51943C32.3261 10.0096 31.9839 10.3422 31.4507 10.3741C31.1324 10.3932 30.8141 10.3741 30.4958 10.3741C30.16 10.3741 29.8226 10.3948 29.4868 10.3741C28.9791 10.3359 28.6911 10.0367 28.6656 9.53216C28.6401 9.02766 28.9314 8.66957 29.42 8.62978C30.1297 8.57328 30.8428 8.57328 31.5526 8.62978C32.046 8.66161 32.3276 9.00697 32.3261 9.51943Z" fill="#702AFC"/>
<path d="M52.9786 19.7498C52.5967 20.0299 52.1335 20.0363 51.8503 19.6623C50.784 18.2665 49.2466 18.0278 47.6917 18.058C46.6874 18.0787 45.6736 18.3922 44.6996 18.6946C44.3018 18.8156 43.9723 19.2166 43.6604 19.5381C43.2784 19.9328 42.7898 20.049 42.3872 19.7673C41.9845 19.4856 41.8954 18.9604 42.201 18.4941C42.9872 17.3005 44.2063 16.7848 45.524 16.484C46.1483 16.3649 46.7783 16.2783 47.4116 16.2246C49.1288 16.2787 50.5373 16.4506 51.7548 17.232C52.3175 17.6282 52.8134 18.1118 53.2237 18.6644C53.5277 19.0272 53.3542 19.4713 52.9786 19.7498Z" fill="#702AFC"/>
<path d="M55.0525 11.9914C54.4445 12.9463 53.5023 13.2136 52.5172 13.2471C51.4493 13.2264 50.5708 12.9383 49.9453 12.1155C49.5395 11.5808 49.5825 11.0206 50.0217 10.6959C50.461 10.3712 50.8923 10.4651 51.3427 10.9999C51.887 11.6444 53.0567 11.6365 53.5962 10.9712C54.0005 10.4763 54.4429 10.3776 54.8774 10.68C55.3119 10.9824 55.3835 11.4741 55.0525 11.9914Z" fill="#702AFC"/>
<path d="M45.5048 11.9993C45.0401 12.7744 44.0533 13.2423 42.6003 13.2391C42.171 13.2319 41.7491 13.1266 41.3668 12.9313C40.9845 12.736 40.6519 12.4559 40.3945 12.1123C39.995 11.5807 40.0396 11.0126 40.4772 10.6927C40.9149 10.3728 41.3398 10.4667 41.7982 11.011C42.3472 11.6476 43.5011 11.6365 44.0486 10.9744C44.456 10.4826 44.8984 10.3855 45.3313 10.6927C45.7642 10.9999 45.8167 11.4773 45.5048 11.9993Z" fill="#702AFC"/>
<path d="M18.8186 16.7244C17.8637 18.7313 16.1544 19.6209 14.0441 19.8931C13.8085 19.9249 13.5666 19.9185 13.3024 19.9297C11.5947 19.917 10.0287 19.4252 8.80644 18.1583C8.36241 17.6984 8.03775 17.1064 7.74013 16.5334C7.68732 16.4316 7.65608 16.32 7.64837 16.2055C7.64066 16.091 7.65665 15.9762 7.69534 15.8682C7.73403 15.7602 7.79458 15.6614 7.87321 15.5778C7.95185 15.4943 8.04687 15.4279 8.15233 15.3828C8.59318 15.1711 9.05153 15.3255 9.3205 15.7759C10.678 18.0422 13.2308 18.7997 15.5576 17.6268C16.2819 17.285 16.8644 16.7014 17.2048 15.9764C17.4944 15.3493 17.9878 15.1377 18.478 15.3875C18.9682 15.6374 19.1019 16.1212 18.8186 16.7244Z" fill="#702AFC"/>
<path d="M10.9581 12.1233C10.5507 12.4209 10.0605 12.3159 9.66742 11.8464C9.52423 11.6853 9.34841 11.5565 9.15164 11.4685C8.95487 11.3806 8.74164 11.3355 8.52611 11.3362C8.31057 11.337 8.09767 11.3835 7.90151 11.4729C7.70536 11.5622 7.53045 11.6922 7.38839 11.8543C6.99529 12.319 6.50192 12.4193 6.09609 12.1169C5.69026 11.8145 5.61864 11.3212 5.94808 10.8007C6.54808 9.87608 7.48388 9.61985 8.51994 9.54346C9.54646 9.61348 10.5061 9.86176 11.1173 10.8055C11.4467 11.3148 11.3767 11.8241 10.9581 12.1233Z" fill="#702AFC"/>
<path d="M20.535 12.1028C20.1148 12.4323 19.6469 12.3193 19.1742 11.775C18.6315 11.1495 17.4809 11.1893 16.9286 11.8768C16.6453 12.2301 16.2825 12.4163 15.8973 12.2238C15.7563 12.1476 15.6322 12.0436 15.5326 11.918C15.4331 11.7925 15.36 11.6479 15.318 11.4933C15.2687 11.2339 15.4438 10.879 15.6204 10.6418C16.2268 9.82857 17.1212 9.60258 18.0793 9.54688C19.0342 9.60258 19.9207 9.83494 20.5509 10.6275C20.9901 11.1782 20.9742 11.7591 20.535 12.1028Z" fill="#702AFC"/>
<path d="M24.8174 40.1924C28.5765 44.9669 32.3643 44.9016 36.1759 40.1924" stroke="#702AFC" stroke-width="2" stroke-linecap="round" stroke-linejoin="round"/>
</svg>
