<svg width="120" height="185" viewBox="0 0 120 185" fill="none" xmlns="http://www.w3.org/2000/svg">
<g clip-path="url(#clip0_406_776)">
<g opacity="0.2">
<path opacity="0.09" d="M10.6713 124.688C10.6713 124.688 18.5057 121.626 18.7115 121.743L24.591 119.903C27.0751 118.431 33.1456 119.108 35.1152 120.257L70.8624 138.378L73.9491 139.939L112.812 159.636C114.102 160.301 115.205 161.278 116.021 162.478C116.838 163.679 117.341 165.065 117.487 166.51C117.524 167 117.524 167.492 117.487 167.982C117.22 169.375 116.641 170.688 115.793 171.823C114.945 172.958 113.85 173.884 112.592 174.533C112.592 174.533 111.298 175.152 109.549 176.005C106.507 177.36 101.715 179.215 97.3788 180.878C93.7591 182.34 89.9875 183.391 86.1343 184.014C83.4615 183.982 80.8372 183.294 78.491 182.012L45.8159 163.213L42.1118 161.078L5.73257 140.145C4.44821 139.48 3.35199 138.501 2.54527 137.3C1.73855 136.098 1.24738 134.712 1.11719 133.27C1.16012 132.43 1.49857 131.632 2.0726 131.018C4.62166 128.507 7.51743 126.375 10.6713 124.688Z" fill="black"/>
<path opacity="0.18" d="M10.2887 125.335C10.2887 125.335 17.741 122.391 18.1672 122.568L23.8703 121.096C26.1045 119.815 32.3368 120.801 34.1594 121.817L69.0835 139.615L72.0232 141.087L110.152 160.46C112.503 161.829 114.973 164.567 114.973 166.967C114.973 167.394 115.09 167.909 114.973 168.321C114.812 169.669 114.327 170.957 113.558 172.075C112.79 173.193 111.762 174.107 110.563 174.739C110.563 174.739 109.181 175.431 107.623 176.212C104.684 177.566 99.8772 179.156 95.7763 180.628C92.2775 181.867 88.6473 182.697 84.958 183.101C82.3803 182.98 79.8653 182.264 77.6087 181.011L45.8448 162.668L42.2437 160.607L6.90805 140.263C4.55626 138.908 2.21917 136.185 2.21917 133.771C2.2069 132.988 2.46091 132.225 2.93941 131.607C5.02542 129.123 7.50903 127.004 10.2887 125.335Z" fill="black"/>
<path opacity="0.27" d="M10.0248 125.998C10.0248 125.998 17.0949 123.054 17.727 123.392L23.2831 122.362C25.2674 121.213 31.6613 122.538 33.2341 123.436L67.4085 140.851L70.3482 142.324L107.492 161.24C109.594 162.447 112.46 165.23 112.46 167.364C112.46 167.747 112.651 168.262 112.636 168.645C112.575 169.956 112.17 171.229 111.46 172.333C110.75 173.436 109.761 174.333 108.594 174.931C108.594 174.931 107.124 175.696 105.757 176.403C102.818 177.772 98.0846 179.112 94.2189 180.378C90.82 181.361 87.317 181.939 83.7828 182.1C81.2842 181.886 78.8593 181.144 76.6686 179.921L45.8749 162.256L42.3913 160.254L8.09932 140.395C5.99741 139.173 3.33695 136.42 3.33695 134.271C3.26513 133.566 3.4141 132.856 3.76321 132.24C5.39053 129.742 7.52388 127.616 10.0248 125.998Z" fill="black"/>
<path opacity="0.36" d="M9.70083 126.601C9.70083 126.601 16.3887 123.657 17.2412 124.158L22.6357 123.657C24.3701 122.656 30.9257 124.305 32.2927 125.129L65.6881 142.073L68.5396 143.545L104.831 162.064C106.668 163.124 109.946 165.966 109.946 167.835C109.946 168.174 110.299 168.689 110.225 169.013C110.74 171.177 109.446 173.532 106.609 175.166C106.609 175.166 105.139 176.005 103.875 176.638C100.207 178.044 96.457 179.223 92.6455 180.171C89.349 180.891 85.9792 181.217 82.6063 181.143C80.2 180.839 77.8746 180.074 75.7567 178.891L45.9037 161.608L42.523 159.665L9.28926 140.528C7.45193 139.453 4.4093 136.656 4.4093 134.786C4.4093 134.271 4.08593 133.314 4.57099 132.873C5.47686 130.235 7.29691 128.01 9.70083 126.601Z" fill="black"/>
<path opacity="0.45" d="M9.37808 127.323C9.37808 127.323 15.6838 124.378 16.7274 125.041L22.0483 124.835C23.5182 123.966 30.2355 125.954 31.4261 126.631L63.9543 143.31L66.747 144.782L102.171 162.904C103.744 163.816 107.433 166.702 107.433 168.306C107.433 168.586 107.889 169.116 107.83 169.396C108.594 171.427 107.433 173.812 104.64 175.417C104.64 175.417 103.053 176.314 102.009 176.889C99.0694 178.258 94.5422 179.067 91.088 179.951C88.1483 180.731 82.2688 180.186 81.4163 180.186C79.1103 179.782 76.8889 178.99 74.846 177.845L45.9337 161.078L42.6265 159.194L10.4658 140.645C8.89302 139.733 5.55642 136.906 5.55642 135.287C5.55642 134.845 5.04197 133.947 5.45353 133.506C5.58088 132.24 6.00211 131.021 6.68356 129.948C7.365 128.874 8.28776 127.975 9.37808 127.323Z" fill="black"/>
<path opacity="0.55" d="M9.05397 127.985C9.05397 127.985 14.9334 125.129 16.2416 125.865L21.3421 126.071C22.5915 125.35 29.441 127.661 30.4258 128.235L62.2338 144.546L64.9383 145.93L99.5096 163.669C100.833 164.42 104.919 167.364 104.919 168.689C104.919 168.925 105.463 169.469 105.419 169.69C106.447 171.619 105.418 173.974 102.655 175.579C102.655 175.579 100.994 176.565 100.127 177.051C96.779 178.54 93.1873 179.403 89.5292 179.597C87.148 180.569 80.9011 179.082 80.2397 179.082C78.0288 178.591 75.9034 177.773 73.9339 176.653L46.0064 160.46L42.8462 158.635L11.6556 140.763C10.3475 140.012 6.65809 137.127 6.65809 135.787C6.65809 135.419 5.95255 134.507 6.29062 134.139C6.07883 132.954 6.22933 131.732 6.72241 130.634C7.21548 129.536 8.02815 128.613 9.05397 127.985Z" fill="black"/>
<path opacity="0.64" d="M8.7312 128.648C8.7312 128.648 14.2873 125.836 15.7572 126.69L20.7106 127.308C21.6954 126.734 28.7067 129.369 29.5298 129.825L60.4999 145.739L63.2045 147.211L96.8645 164.464C97.9081 165.082 102.406 168.056 102.406 169.131C102.406 169.322 103.053 169.852 103.023 170.043C104.302 171.839 103.435 174.195 100.671 175.799C100.671 175.799 98.9517 176.859 98.2608 177.183C95.038 178.674 91.5213 179.419 87.9718 179.362C86.0609 180.142 79.5788 178.096 79.0644 178.096C76.9585 177.512 74.934 176.666 73.0379 175.578L45.9924 160.004L42.9497 158.237L12.8321 140.896C11.7885 140.292 7.77579 137.363 7.77579 136.288C7.77579 135.993 6.86447 135.081 7.14375 134.816C6.49701 133.035 6.08544 130.179 8.7312 128.648Z" fill="black"/>
<path opacity="0.73" d="M8.42229 129.295C8.42229 129.295 13.5815 126.601 15.2572 127.514L20.0636 128.53C20.7986 128.103 27.9715 131.077 28.5595 131.474L58.7947 147.005L61.3522 148.33L94.2185 165.274C94.9975 165.73 99.9069 168.763 99.9069 169.558C99.9069 169.705 100.656 170.249 100.627 170.382C102.097 172.075 101.45 174.43 98.7016 176.005C98.7016 176.005 96.923 177.154 96.3939 177.477C93.2854 178.95 89.8348 179.546 86.4135 179.2C84.9436 179.789 78.2851 177.183 77.9029 177.183C75.901 176.508 73.9709 175.635 72.1411 174.577L46.0215 159.474L43.0818 157.766L14.0225 141.013C13.2288 140.557 8.81916 137.598 8.81916 136.788C8.81916 136.568 7.71676 135.64 7.92254 135.419C6.92303 133.771 5.76183 130.841 8.42229 129.295Z" fill="black"/>
<path opacity="0.82" d="M8.09939 129.958C8.09939 129.958 12.8765 127.234 14.7726 128.324L19.4174 129.796C19.9171 129.516 27.2371 132.74 27.6192 133.049L57.0166 148.271L59.5154 149.552L91.5144 166.113C92.0435 166.407 97.3939 169.499 97.3939 170.029C97.3939 170.117 98.2611 170.662 98.2317 170.765C100.04 172.34 99.4664 174.68 96.7618 176.256C96.7618 176.256 94.8951 177.477 94.557 177.639C91.5556 179.1 88.1627 179.55 84.8853 178.92C83.9299 179.303 77.0068 176.153 76.7569 176.153C74.8676 175.382 73.0312 174.487 71.2596 173.473L46.0661 158.988L43.2145 157.354L15.287 141.161C14.6991 140.837 9.99552 137.834 9.99552 137.289C9.99552 137.142 8.68734 136.2 8.83432 136.052C7.34976 134.507 5.42423 131.503 8.09939 129.958Z" fill="black"/>
<path opacity="0.91" d="M7.77591 130.62C7.77591 130.62 12.1855 127.941 14.2727 129.148L18.7705 131.018C19.0204 130.871 26.4873 134.507 26.6931 134.624L55.3114 149.478L57.7367 150.744L88.8832 166.937C89.1478 167.099 94.8509 170.235 94.8509 170.5C94.8509 170.5 95.8063 171.089 95.8063 171.133C97.8641 172.605 97.4231 174.931 94.7333 176.491C94.7333 176.491 92.8078 177.801 92.6314 177.875C89.7387 179.347 86.391 179.648 83.283 178.714C82.8127 178.905 75.6544 175.196 75.5221 175.196C75.3898 175.196 70.4952 172.531 70.3041 172.428L46.0954 158.399L43.3614 156.824L16.3893 141.323C14.5623 140.25 12.8003 139.07 11.1125 137.789C11.1125 137.789 9.64264 136.759 9.64264 136.685C7.77591 135.243 5.10075 132.166 7.77591 130.62Z" fill="black"/>
<path d="M81.7242 178.405L46.124 157.795L10.5238 137.186C8.20138 135.846 4.77659 132.769 7.45175 131.15C7.45175 131.15 11.4645 128.5 13.7869 129.84L53.5909 150.567L93.3949 171.295C95.7173 172.634 95.4233 174.975 92.7482 176.521L90.7638 177.904C89.4011 178.69 87.8734 179.144 86.3034 179.231C84.7335 179.318 83.1651 179.035 81.7242 178.405Z" fill="black"/>
</g>
<path d="M102.744 98.6313L5.58595 62.2702V134.404C5.26258 136.744 6.51197 139.026 9.37821 140.689L75.0813 178.802C80.7697 182.1 90.7207 181.747 97.291 177.875C100.76 175.873 102.597 173.311 102.715 170.868L102.744 98.6313Z" fill="url(#paint0_linear_406_776)"/>
<path style="mix-blend-mode:color-dodge" d="M82.8421 171.53C87.7777 171.53 91.7789 155.738 91.7789 136.258C91.7789 116.778 87.7777 100.987 82.8421 100.987C77.9064 100.987 73.9053 116.778 73.9053 136.258C73.9053 155.738 77.9064 171.53 82.8421 171.53Z" fill="url(#paint1_radial_406_776)"/>
<path d="M75.0806 106.33L9.37755 68.2175C3.68916 64.9347 4.4094 59.1788 10.965 55.3807C17.5353 51.5238 27.4863 51.1705 33.1747 54.468L98.8778 92.5662C104.581 95.8637 103.861 101.62 97.2903 105.418C90.72 109.216 80.8425 109.628 75.0806 106.33Z" fill="url(#paint2_linear_406_776)"/>
<path style="mix-blend-mode:color-dodge" d="M97.5995 104.785C91.0292 108.598 81.0782 109.01 75.3898 105.712L9.6867 67.5993C6.74696 65.9211 5.55637 63.6098 5.90914 61.2397C4.70384 64.0956 5.77685 67.0399 9.27513 69.0566L74.9635 107.17C80.6519 110.452 90.6029 110.114 97.1732 106.242C100.392 104.373 102.2 102.047 102.538 99.7649C101.479 101.93 99.7459 103.692 97.5995 104.785Z" fill="url(#paint3_radial_406_776)"/>
<path style="mix-blend-mode:multiply" d="M40.3922 64.022C40.3922 67.4078 35.6886 70.146 29.8826 70.146C24.0766 70.146 19.373 67.4078 19.373 64.022C19.373 60.6361 24.0766 57.898 29.8826 57.898C35.6886 57.898 40.3922 60.6361 40.3922 64.022Z" fill="url(#paint4_linear_406_776)"/>
<path style="mix-blend-mode:multiply" d="M90.1472 94.112C90.1472 97.4978 85.4436 100.236 79.6376 100.236C73.8317 100.236 69.084 97.4978 69.084 94.112C69.084 90.7261 73.7876 87.988 79.5935 87.988C85.3995 87.988 90.1472 90.7261 90.1472 94.112Z" fill="url(#paint5_linear_406_776)"/>
<path d="M60.6469 3.72441C56.4631 1.3052 51.7171 0.0318319 46.886 0.0323488C42.055 0.0328657 37.3092 1.30725 33.1259 3.72735C28.9426 6.14746 25.4693 9.62798 23.0551 13.8189C20.6409 18.0099 19.371 22.7636 19.373 27.602V63.9631C19.373 66.9073 23.4152 69.2333 28.4127 69.2333C33.4103 69.2333 37.4377 66.8779 37.4377 63.9631V63.8601H37.5259V31.4737C37.5235 29.424 38.0599 27.4098 39.0812 25.6337C40.1026 23.8575 41.5728 22.382 43.3442 21.3554C45.1156 20.3289 47.1256 19.7875 49.1721 19.7858C51.2186 19.7841 53.2295 20.322 55.0026 21.3456C59.4387 23.8951 63.1243 27.5721 65.6871 32.005C68.25 36.438 69.5991 41.4698 69.5984 46.5922V93.8911H69.7013C69.8042 96.7617 73.8023 99.0582 78.7263 99.0582C83.6504 99.0582 87.7072 96.7323 87.7513 93.847V50.7141C87.7509 41.1879 85.2456 31.8297 80.4876 23.5809C75.7296 15.3321 68.8866 8.48367 60.6469 3.72441Z" fill="url(#paint6_linear_406_776)"/>
<path style="mix-blend-mode:color-dodge" d="M24.9874 66.451V31.9594C24.9952 25.1397 27.7026 18.6013 32.5162 13.7776C37.3298 8.95398 43.8567 6.23866 50.666 6.22697C55.1564 6.22703 59.5656 7.42629 63.4392 9.70115C66.0335 11.174 68.4929 12.8735 70.7885 14.7799C67.5186 11.4595 63.8153 8.59726 59.7792 6.27114C55.8867 3.99013 51.457 2.79081 46.9472 2.79696C40.1315 2.80475 33.597 5.5199 28.7775 10.3467C23.958 15.1736 21.247 21.718 21.2393 28.5442V63.021V65.023C21.2393 66.1124 22.7091 67.2754 24.9727 67.9672L24.9874 66.451Z" fill="url(#paint7_radial_406_776)"/>
<path style="mix-blend-mode:color-dodge" d="M75.2276 96.9826V51.5238C75.2172 46.7914 74.1288 42.1238 72.0452 37.8763C69.9616 33.6289 66.9379 29.9135 63.2041 27.0132C68.5451 32.7546 71.522 40.3056 71.5382 48.1527V93.5673V95.378C71.5382 96.4673 73.0081 97.645 75.2423 98.3222L75.2276 96.9826Z" fill="url(#paint8_radial_406_776)"/>
<path d="M41.7589 12.7337C37.8384 12.7376 34.0795 14.2992 31.3073 17.0756C28.5351 19.8521 26.9759 23.6166 26.972 27.5432V65.2144L26.8691 68.4531C26.8691 68.7328 31.9255 68.3059 32.0578 67.8348L32.146 64.5962V26.9249C32.1495 23.7518 33.1695 20.6637 35.056 18.1145C36.9425 15.5653 39.596 13.6896 42.6261 12.7632C42.3378 12.7376 42.0483 12.7278 41.7589 12.7337Z" fill="url(#paint9_linear_406_776)"/>
<path d="M57.5304 8.12602C53.848 5.96538 49.6571 4.82712 45.3893 4.82849C43.5979 4.83096 41.8127 5.0384 40.0684 5.44678H40.2006C44.4819 5.46739 48.6793 6.63655 52.3565 8.83263C60.0963 13.3166 66.5278 19.7536 71.0101 27.5023C75.4924 35.251 77.8688 44.0408 77.9028 52.9959V98.6313C77.9028 98.8816 83.0767 98.4399 83.0767 98.013V52.4365C83.0655 43.4571 80.6999 34.638 76.2167 26.8617C71.7335 19.0855 65.2898 12.6248 57.5304 8.12602Z" fill="url(#paint10_linear_406_776)"/>
<path style="mix-blend-mode:screen" opacity="0.5" d="M32.8662 32.9163V67.717C34.9093 67.084 36.2469 65.9799 36.3057 64.9347L36.3939 62.9326V32.298C36.3953 29.4199 37.3102 26.6167 39.0064 24.2934C40.7027 21.9701 43.0924 20.247 45.8304 19.3729C42.3441 19.5245 39.0506 21.0172 36.6356 23.54C34.2207 26.0629 32.8705 29.4214 32.8662 32.9163Z" fill="url(#paint11_linear_406_776)"/>
<g style="mix-blend-mode:screen" opacity="0.5">
<path d="M60.8668 6.37422C59.0176 5.30382 57.0426 4.4681 54.9873 3.88635C63.4846 8.96991 70.5229 16.1704 75.417 24.7868C80.311 33.4031 82.8941 43.1419 82.9148 53.0548V97.6597C85.3695 97.0562 87.0157 95.8049 87.0304 94.7155V51.6416C87.0141 42.4614 84.5883 33.4469 79.9962 25.5018C75.4042 17.5568 68.8072 10.9604 60.8668 6.37422Z" fill="url(#paint12_linear_406_776)"/>
</g>
<path style="mix-blend-mode:screen" d="M50.6373 6.33006C55.3233 6.33699 59.9361 7.49449 64.0719 9.70119C62.475 8.51238 60.8113 7.41631 59.089 6.41839C55.4064 4.25656 51.2165 3.11348 46.9479 3.10614C40.4645 3.12167 34.2508 5.707 29.665 10.2971C25.0791 14.8872 22.494 21.1088 22.4746 27.602V27.6756C24.2495 21.5558 27.9489 16.1729 33.0228 12.3271C38.0967 8.48142 44.2743 6.37817 50.6373 6.33006Z" fill="url(#paint13_linear_406_776)"/>
<path style="mix-blend-mode:screen" d="M72.7148 47.343C73.3591 42.612 72.9299 37.7964 71.4589 33.2545C69.988 28.7127 67.5133 24.5615 64.2189 21.11C56.3551 12.7926 46.8745 10.6286 41.877 18.6074C44.1114 17.3154 46.6461 16.6352 49.2263 16.6352C51.8065 16.6352 54.3412 17.3154 56.5756 18.6074C61.4802 21.4434 65.5551 25.5196 68.3925 30.4282C71.23 35.3368 72.7306 40.9056 72.7442 46.5775L72.7148 47.343Z" fill="url(#paint14_linear_406_776)"/>
<path d="M51.3129 120.33C51.1785 117.777 50.4424 115.293 49.1651 113.079C47.8877 110.866 46.1052 108.987 43.9636 107.596C39.8921 105.241 36.6143 107.125 36.6143 111.807C36.8013 115.297 38.111 118.633 40.3477 121.316V136.141L47.6971 140.351V125.527C49.8137 125.35 51.3129 123.48 51.3129 120.33Z" fill="#25054D"/>
<path d="M43.7579 134.58V119.756C41.5147 117.077 40.2041 113.738 40.0244 110.246C39.9707 108.957 40.3145 107.682 41.0092 106.595C38.4075 106.389 36.5996 108.318 36.5996 111.807C36.7867 115.297 38.0964 118.633 40.3331 121.317V136.141L47.6824 140.351V136.803L43.7579 134.58Z" fill="url(#paint15_linear_406_776)"/>
</g>
<defs>
<linearGradient id="paint0_linear_406_776" x1="103.685" y1="121.67" x2="4.92451" y2="121.67" gradientUnits="userSpaceOnUse">
<stop offset="0.06" stop-color="#7C1DC9"/>
<stop offset="0.09" stop-color="#6E41D2"/>
<stop offset="0.15" stop-color="#4C9BE8"/>
<stop offset="0.21" stop-color="#2AF6FF"/>
<stop offset="0.23" stop-color="#34DBF8"/>
<stop offset="0.28" stop-color="#43B3EE"/>
<stop offset="0.33" stop-color="#4F93E6"/>
<stop offset="0.37" stop-color="#5979E0"/>
<stop offset="0.42" stop-color="#6067DC"/>
<stop offset="0.48" stop-color="#645CD9"/>
<stop offset="0.54" stop-color="#6559D8"/>
<stop offset="0.66" stop-color="#645DD9"/>
<stop offset="0.78" stop-color="#5F68DC"/>
<stop offset="0.9" stop-color="#587BE1"/>
<stop offset="0.99" stop-color="#5090E6"/>
</linearGradient>
<radialGradient id="paint1_radial_406_776" cx="0" cy="0" r="1" gradientUnits="userSpaceOnUse" gradientTransform="translate(116.619 135.66) scale(8.78261 35.184)">
<stop stop-color="white"/>
<stop offset="0.02" stop-color="#F7F7F7"/>
<stop offset="0.13" stop-color="#BEBEBE"/>
<stop offset="0.25" stop-color="#8B8B8B"/>
<stop offset="0.37" stop-color="#606060"/>
<stop offset="0.49" stop-color="#3E3E3E"/>
<stop offset="0.62" stop-color="#232323"/>
<stop offset="0.74" stop-color="#0F0F0F"/>
<stop offset="0.87" stop-color="#040404"/>
<stop offset="1"/>
</radialGradient>
<linearGradient id="paint2_linear_406_776" x1="57.648" y1="34.6387" x2="52.8859" y2="96.319" gradientUnits="userSpaceOnUse">
<stop offset="0.03" stop-color="#7C1DC9"/>
<stop offset="0.21" stop-color="#6E41D2"/>
<stop offset="0.62" stop-color="#4C9BE8"/>
<stop offset="1" stop-color="#2AF6FF"/>
</linearGradient>
<radialGradient id="paint3_radial_406_776" cx="0" cy="0" r="1" gradientUnits="userSpaceOnUse" gradientTransform="translate(58.6714 80.575) scale(38.248 38.3064)">
<stop stop-color="white"/>
<stop offset="1"/>
</radialGradient>
<linearGradient id="paint4_linear_406_776" x1="36.3353" y1="58.2808" x2="21.3961" y2="71.5366" gradientUnits="userSpaceOnUse">
<stop stop-color="white"/>
<stop offset="1" stop-color="#4B61B8"/>
</linearGradient>
<linearGradient id="paint5_linear_406_776" x1="86.0904" y1="88.3707" x2="71.1511" y2="101.627" gradientUnits="userSpaceOnUse">
<stop stop-color="white"/>
<stop offset="1" stop-color="#4B61B8"/>
</linearGradient>
<linearGradient id="paint6_linear_406_776" x1="113.621" y1="79.8325" x2="-16.7755" y2="0.515151" gradientUnits="userSpaceOnUse">
<stop stop-color="#9F79C8"/>
<stop offset="0.14" stop-color="#A27DCA"/>
<stop offset="0.27" stop-color="#AC88CF"/>
<stop offset="0.4" stop-color="#BC9BD7"/>
<stop offset="0.52" stop-color="#D1B4E3"/>
<stop offset="0.65" stop-color="#DBC4E9"/>
<stop offset="0.9" stop-color="#F4EDF8"/>
<stop offset="1" stop-color="white"/>
</linearGradient>
<radialGradient id="paint7_radial_406_776" cx="0" cy="0" r="1" gradientUnits="userSpaceOnUse" gradientTransform="translate(12.877 71.8404) scale(55.677 55.7619)">
<stop stop-color="#F49587"/>
<stop offset="0.12" stop-color="#BD7368"/>
<stop offset="0.24" stop-color="#8B554D"/>
<stop offset="0.36" stop-color="#603B35"/>
<stop offset="0.48" stop-color="#3E2622"/>
<stop offset="0.61" stop-color="#231513"/>
<stop offset="0.74" stop-color="#0F0908"/>
<stop offset="0.86" stop-color="#040202"/>
<stop offset="1"/>
</radialGradient>
<radialGradient id="paint8_radial_406_776" cx="0" cy="0" r="1" gradientUnits="userSpaceOnUse" gradientTransform="translate(56.9348 105.492) scale(66.3667 66.468)">
<stop stop-color="#F49587"/>
<stop offset="0.12" stop-color="#BD7368"/>
<stop offset="0.24" stop-color="#8B554D"/>
<stop offset="0.36" stop-color="#603B35"/>
<stop offset="0.48" stop-color="#3E2622"/>
<stop offset="0.61" stop-color="#231513"/>
<stop offset="0.74" stop-color="#0F0908"/>
<stop offset="0.86" stop-color="#040202"/>
<stop offset="1"/>
</radialGradient>
<linearGradient id="paint9_linear_406_776" x1="36.6291" y1="41.7785" x2="-0.133233" y2="19.408" gradientUnits="userSpaceOnUse">
<stop stop-color="#9F79C8"/>
<stop offset="0.14" stop-color="#A27DCA"/>
<stop offset="0.27" stop-color="#AC88CF"/>
<stop offset="0.4" stop-color="#BC9BD7"/>
<stop offset="0.52" stop-color="#D1B4E3"/>
<stop offset="0.65" stop-color="#DBC4E9"/>
<stop offset="0.9" stop-color="#F4EDF8"/>
<stop offset="1" stop-color="white"/>
</linearGradient>
<linearGradient id="paint10_linear_406_776" x1="81.9155" y1="57.6183" x2="-11.4181" y2="27.7877" gradientUnits="userSpaceOnUse">
<stop stop-color="#9F79C8"/>
<stop offset="0.14" stop-color="#A27DCA"/>
<stop offset="0.27" stop-color="#AC88CF"/>
<stop offset="0.4" stop-color="#BC9BD7"/>
<stop offset="0.52" stop-color="#D1B4E3"/>
<stop offset="0.65" stop-color="#DBC4E9"/>
<stop offset="0.9" stop-color="#F4EDF8"/>
<stop offset="1" stop-color="white"/>
</linearGradient>
<linearGradient id="paint11_linear_406_776" x1="49.5051" y1="49.7278" x2="20.4219" y2="32.043" gradientUnits="userSpaceOnUse">
<stop stop-color="#FFE4A7"/>
<stop offset="1"/>
</linearGradient>
<linearGradient id="paint12_linear_406_776" x1="111.401" y1="76.1228" x2="11.3674" y2="15.2687" gradientUnits="userSpaceOnUse">
<stop stop-color="#FFE4A7"/>
<stop offset="1"/>
</linearGradient>
<linearGradient id="paint13_linear_406_776" x1="36.409" y1="7.33109" x2="42.6257" y2="17.598" gradientUnits="userSpaceOnUse">
<stop stop-color="#FFE4A7"/>
<stop offset="1"/>
</linearGradient>
<linearGradient id="paint14_linear_406_776" x1="74.2728" y1="25.7619" x2="7.96011" y2="48.7378" gradientUnits="userSpaceOnUse">
<stop stop-color="#FFE4A7"/>
<stop offset="1"/>
</linearGradient>
<linearGradient id="paint15_linear_406_776" x1="15.0661" y1="126.543" x2="51.5641" y2="122.668" gradientUnits="userSpaceOnUse">
<stop offset="0.03" stop-color="#7C1DC9"/>
<stop offset="0.21" stop-color="#6E41D2"/>
<stop offset="0.62" stop-color="#4C9BE8"/>
<stop offset="1" stop-color="#2AF6FF"/>
</linearGradient>
<clipPath id="clip0_406_776">
<rect width="120" height="185" fill="white"/>
</clipPath>
</defs>
</svg>
