<svg width="121" height="185" viewBox="0 0 121 185" fill="none" xmlns="http://www.w3.org/2000/svg">
<g clip-path="url(#clip0_406_909)">
<path d="M114.083 64.5333C95.9157 54.2641 78.169 36.7419 63.2843 14.4078L63.13 14.2254C48.2031 19.374 30.4565 16.3999 12.289 5.69578L11.6016 5.28894L12.6257 39.2811C16.0628 91.8757 34.0058 114.757 62.8774 163.662L63.5789 164.069C92.4505 148.511 110.394 146.322 113.831 97.7118L114.813 64.9121L114.083 64.5333Z" fill="url(#paint0_linear_406_909)"/>
<path d="M120.187 59.1742C102.033 48.905 84.2725 31.3828 69.3877 9.04869L69.1913 8.93645C54.3066 14.029 36.56 11.0969 18.4065 0.40684L17.705 0L11.7988 5.40115L12.2898 5.69576C30.5275 16.3999 48.204 19.374 63.0887 14.2254L63.2851 14.3376C78.1699 36.6717 95.9165 54.1939 114.084 64.5333L114.771 64.9261L113.789 97.7258C111.545 129.459 103.113 141.398 89.5193 150.194C106.508 140.163 117.367 128.099 119.906 92.4369L120.874 59.6371L120.187 59.1742Z" fill="url(#paint1_linear_406_909)"/>
<path d="M120.873 59.567L120.186 59.1741C102.032 48.9049 84.2715 31.3828 69.3868 9.04863L69.1904 8.9364L63.1299 14.2253L63.3263 14.3376C78.1689 36.6717 95.9156 54.1939 114.083 64.5332L114.771 64.926L120.873 59.567Z" fill="url(#paint2_linear_406_909)"/>
<path d="M114.771 64.8559L113.789 97.6557C111.544 129.389 103.113 141.328 89.5186 150.124C106.508 140.093 117.366 128.028 119.905 92.3667L120.873 59.567L114.771 64.8559Z" fill="url(#paint3_linear_406_909)"/>
<path d="M112.232 65.7818C94.4851 55.7371 77.1593 38.5937 62.5692 16.7646L62.3728 16.6524C47.7827 21.6888 30.4288 18.7708 12.6261 8.31919L11.9527 7.91235L6.21484 13.2013L6.70586 13.4959C24.4525 23.9475 41.7783 26.8515 56.3684 21.8291L56.5648 21.9413C71.1129 43.7704 88.4667 60.8998 106.227 70.9445L106.901 71.3373L105.947 103.408C103.814 134.426 95.5092 146.112 82.2098 154.711C98.8201 144.891 109.426 133.093 111.909 98.2028L112.877 66.1326L112.232 65.7818Z" fill="url(#paint4_linear_406_909)"/>
<path d="M112.877 66.1606L112.231 65.7818C94.4848 55.737 77.159 38.5936 62.5689 16.7646L62.3725 16.6523L56.4102 21.829L56.6066 21.9413C71.1125 43.7703 88.4664 60.8997 106.227 70.9445L106.9 71.3373L112.877 66.1606Z" fill="url(#paint5_linear_406_909)"/>
<path d="M106.901 71.3373L105.947 103.408C103.815 134.426 95.5094 146.112 82.21 154.711C98.8203 144.891 109.426 133.093 111.909 98.2028L112.877 66.1326L106.901 71.3373Z" fill="url(#paint6_linear_406_909)"/>
<path style="mix-blend-mode:color-dodge" d="M114.799 63.9581C96.5613 53.6889 78.8848 36.1527 64.0001 13.8326L63.8037 13.7204C48.919 18.855 31.1723 15.8808 13.0048 5.19078L12.3174 4.78394V6.48144C30.3165 16.9471 47.8808 19.837 62.6393 14.7305L62.8357 14.8427C77.7625 37.1768 95.5092 54.713 113.635 64.9682L114.322 65.361L113.382 98.2028C111.6 123.455 105.877 136.165 96.7998 144.751C106.62 136.151 112.709 123.455 114.575 97.1507L115.557 64.3509L114.799 63.9581Z" fill="url(#paint7_radial_406_909)"/>
<path style="mix-blend-mode:multiply" opacity="0.4" d="M68.9379 185C96.3658 185 118.6 175.522 118.6 163.83C118.6 152.139 96.3658 142.661 68.9379 142.661C41.5101 142.661 19.2754 152.139 19.2754 163.83C19.2754 175.522 41.5101 185 68.9379 185Z" fill="url(#paint8_radial_406_909)"/>
<path d="M102.482 74.9989C84.3141 64.7297 66.5675 47.1935 51.6827 24.8734L51.4863 24.7612C36.6016 29.8958 18.8549 26.9216 0.687419 16.2315L0 15.8247L0.982028 49.7468C4.41913 102.412 22.3622 125.237 51.2338 174.128L51.9352 174.534C80.8069 158.976 98.7499 156.802 102.187 108.191L103.169 75.3917L102.482 74.9989Z" fill="url(#paint9_linear_406_909)"/>
<path d="M108.584 69.71C90.4306 59.4268 72.6699 41.9046 57.7992 19.6406L57.5888 19.5143C42.7181 24.663 24.9574 21.6888 6.80393 10.9988L6.10249 10.5919L0.196289 15.937L0.687303 16.2316C18.925 26.9216 36.6015 29.8958 51.4862 24.7612L51.6826 24.8734C66.5673 47.1935 84.314 64.7297 102.482 74.9989L103.169 75.3917L102.187 108.191C99.9423 139.911 91.5108 151.864 77.9168 160.66C94.9059 150.615 105.764 138.564 108.304 102.903L109.286 70.1449L108.584 69.71Z" fill="url(#paint10_linear_406_909)"/>
<path d="M109.286 70.1448L108.584 69.752C90.4307 59.4267 72.6701 41.9045 57.7994 19.6405L57.5889 19.5143L51.4863 24.7611L51.6827 24.8733C66.5675 47.1934 84.3141 64.7296 102.482 74.9989L103.169 75.3917L109.286 70.1448Z" fill="url(#paint11_linear_406_909)"/>
<path d="M103.169 75.3917L102.187 108.191C99.9425 139.911 91.5111 151.864 77.917 160.66C94.9061 150.615 105.764 138.564 108.304 102.903L109.286 70.1449L103.169 75.3917Z" fill="url(#paint12_linear_406_909)"/>
<path d="M47.9932 151.878C25.5468 114.701 14.3236 96.0002 11.588 55.1899L10.9707 33.7817C25.3644 40.2772 39.1549 42.3534 51.6547 39.8843C64.0844 56.7191 77.8748 70.5657 92.2686 80.6665L91.6513 101.373C88.9297 139.041 77.6223 144.723 55.2461 156.086L51.6547 157.896L47.9932 151.878Z" fill="url(#paint13_linear_406_909)"/>
<path d="M51.585 39.8844C64.0146 56.7192 77.8051 70.5658 92.1988 80.6666L91.5815 101.373C88.8599 139.041 77.5526 144.723 55.1764 156.086L51.585 157.896V39.8844Z" fill="url(#paint14_linear_406_909)"/>
<path style="mix-blend-mode:color-dodge" d="M103.197 74.4938C84.9598 64.2105 67.2833 46.6884 52.3985 24.3683L52.2021 24.242C37.3174 29.4608 19.6409 26.4165 1.40324 15.7264L0.71582 15.3196V17.0031C18.7571 27.4827 36.3354 30.3727 51.0798 25.2521L51.2762 25.3643C66.161 47.6984 83.9076 65.2347 102.075 75.5039L102.763 75.8967L101.781 108.696C99.9988 133.949 94.275 146.701 85.1281 155.287C94.9484 146.687 101.037 133.991 102.903 107.672L103.885 74.8866L103.197 74.4938Z" fill="url(#paint15_radial_406_909)"/>
<path style="mix-blend-mode:color-dodge" d="M47.9932 151.878C25.5468 114.701 14.3236 96.0002 11.588 55.1899L10.9707 33.7817C25.3644 40.2772 39.1549 42.3534 51.6547 39.8843C64.0844 56.7191 77.8748 70.5657 92.2686 80.6665L91.6513 101.373C88.9297 139.041 77.6223 144.723 55.2461 156.086L51.6547 157.896L47.9932 151.878Z" fill="url(#paint16_radial_406_909)"/>
<path style="mix-blend-mode:color-dodge" d="M51.5846 39.8843C39.1549 42.3534 25.3644 40.2772 10.9707 33.7817V35.0864C24.9997 41.2592 38.4815 43.2092 50.6306 40.7962C63.1304 57.617 76.8928 71.5477 91.2866 81.5925L90.6693 102.285C89.1401 123.329 84.9455 134.397 77.6364 142.029C85.5206 134.355 89.9959 123.273 91.5812 101.345L92.1984 80.6385C77.8047 70.5657 64.0142 56.7051 51.5846 39.8843Z" fill="url(#paint17_radial_406_909)"/>
</g>
<defs>
<linearGradient id="paint0_linear_406_909" x1="2.72123" y1="103.772" x2="190.962" y2="1.8238" gradientUnits="userSpaceOnUse">
<stop stop-color="#9F79C8"/>
<stop offset="0.14" stop-color="#A27DCA"/>
<stop offset="0.27" stop-color="#AC88CF"/>
<stop offset="0.4" stop-color="#BC9BD7"/>
<stop offset="0.52" stop-color="#D1B4E3"/>
<stop offset="0.65" stop-color="#DBC4E9"/>
<stop offset="0.9" stop-color="#F4EDF8"/>
<stop offset="1" stop-color="white"/>
</linearGradient>
<linearGradient id="paint1_linear_406_909" x1="-33.0237" y1="59.8195" x2="75.0975" y2="78.7867" gradientUnits="userSpaceOnUse">
<stop stop-color="#9F79C8"/>
<stop offset="0.14" stop-color="#A27DCA"/>
<stop offset="0.27" stop-color="#AC88CF"/>
<stop offset="0.4" stop-color="#BC9BD7"/>
<stop offset="0.52" stop-color="#D1B4E3"/>
<stop offset="0.65" stop-color="#DBC4E9"/>
<stop offset="0.9" stop-color="#F4EDF8"/>
<stop offset="1" stop-color="white"/>
</linearGradient>
<linearGradient id="paint2_linear_406_909" x1="42.9141" y1="-10.4516" x2="145.494" y2="93.7275" gradientUnits="userSpaceOnUse">
<stop stop-color="#9F79C8"/>
<stop offset="0.14" stop-color="#A27DCA"/>
<stop offset="0.27" stop-color="#AC88CF"/>
<stop offset="0.4" stop-color="#BC9BD7"/>
<stop offset="0.52" stop-color="#D1B4E3"/>
<stop offset="0.65" stop-color="#DBC4E9"/>
<stop offset="0.9" stop-color="#F4EDF8"/>
<stop offset="1" stop-color="white"/>
</linearGradient>
<linearGradient id="paint3_linear_406_909" x1="99.0583" y1="101.359" x2="188.816" y2="152.341" gradientUnits="userSpaceOnUse">
<stop stop-color="#9F79C8"/>
<stop offset="0.14" stop-color="#A27DCA"/>
<stop offset="0.27" stop-color="#AC88CF"/>
<stop offset="0.4" stop-color="#BC9BD7"/>
<stop offset="0.52" stop-color="#D1B4E3"/>
<stop offset="0.65" stop-color="#DBC4E9"/>
<stop offset="0.9" stop-color="#F4EDF8"/>
<stop offset="1" stop-color="white"/>
</linearGradient>
<linearGradient id="paint4_linear_406_909" x1="-37.5976" y1="66.4131" x2="68.1107" y2="84.9454" gradientUnits="userSpaceOnUse">
<stop offset="0.1" stop-color="#45108A"/>
<stop offset="1" stop-color="#7C1DC9"/>
</linearGradient>
<linearGradient id="paint5_linear_406_909" x1="36.6433" y1="-2.30079" x2="136.95" y2="99.5635" gradientUnits="userSpaceOnUse">
<stop offset="0.1" stop-color="#45108A"/>
<stop offset="1" stop-color="#7C1DC9"/>
</linearGradient>
<linearGradient id="paint6_linear_406_909" x1="91.5392" y1="107.027" x2="179.304" y2="156.872" gradientUnits="userSpaceOnUse">
<stop offset="0.1" stop-color="#45108A"/>
<stop offset="1" stop-color="#7C1DC9"/>
</linearGradient>
<radialGradient id="paint7_radial_406_909" cx="0" cy="0" r="1" gradientUnits="userSpaceOnUse" gradientTransform="translate(73.9001 74.6483) scale(61.2092 61.2092)">
<stop stop-color="white"/>
<stop offset="1"/>
</radialGradient>
<radialGradient id="paint8_radial_406_909" cx="0" cy="0" r="1" gradientUnits="userSpaceOnUse" gradientTransform="translate(78.9075 153.718) scale(49.4382 21.4062)">
<stop stop-color="#231F20"/>
<stop offset="0.06" stop-color="#353132"/>
<stop offset="0.32" stop-color="#7C7A7A"/>
<stop offset="0.55" stop-color="#B4B3B3"/>
<stop offset="0.75" stop-color="#DDDCDC"/>
<stop offset="0.91" stop-color="#F6F6F6"/>
<stop offset="1" stop-color="white"/>
</radialGradient>
<linearGradient id="paint9_linear_406_909" x1="-8.88034" y1="114.294" x2="179.36" y2="12.3596" gradientUnits="userSpaceOnUse">
<stop stop-color="#9F79C8"/>
<stop offset="0.14" stop-color="#A27DCA"/>
<stop offset="0.27" stop-color="#AC88CF"/>
<stop offset="0.4" stop-color="#BC9BD7"/>
<stop offset="0.52" stop-color="#D1B4E3"/>
<stop offset="0.65" stop-color="#DBC4E9"/>
<stop offset="0.9" stop-color="#F4EDF8"/>
<stop offset="1" stop-color="white"/>
</linearGradient>
<linearGradient id="paint10_linear_406_909" x1="-44.6263" y1="70.3553" x2="63.495" y2="89.3225" gradientUnits="userSpaceOnUse">
<stop stop-color="#9F79C8"/>
<stop offset="0.14" stop-color="#A27DCA"/>
<stop offset="0.27" stop-color="#AC88CF"/>
<stop offset="0.4" stop-color="#BC9BD7"/>
<stop offset="0.52" stop-color="#D1B4E3"/>
<stop offset="0.65" stop-color="#DBC4E9"/>
<stop offset="0.9" stop-color="#F4EDF8"/>
<stop offset="1" stop-color="white"/>
</linearGradient>
<linearGradient id="paint11_linear_406_909" x1="31.3127" y1="0.0841613" x2="133.892" y2="104.263" gradientUnits="userSpaceOnUse">
<stop stop-color="#9F79C8"/>
<stop offset="0.14" stop-color="#A27DCA"/>
<stop offset="0.27" stop-color="#AC88CF"/>
<stop offset="0.4" stop-color="#BC9BD7"/>
<stop offset="0.52" stop-color="#D1B4E3"/>
<stop offset="0.65" stop-color="#DBC4E9"/>
<stop offset="0.9" stop-color="#F4EDF8"/>
<stop offset="1" stop-color="white"/>
</linearGradient>
<linearGradient id="paint12_linear_406_909" x1="87.4707" y1="111.895" x2="177.214" y2="162.876" gradientUnits="userSpaceOnUse">
<stop stop-color="#9F79C8"/>
<stop offset="0.14" stop-color="#A27DCA"/>
<stop offset="0.27" stop-color="#AC88CF"/>
<stop offset="0.4" stop-color="#BC9BD7"/>
<stop offset="0.52" stop-color="#D1B4E3"/>
<stop offset="0.65" stop-color="#DBC4E9"/>
<stop offset="0.9" stop-color="#F4EDF8"/>
<stop offset="1" stop-color="white"/>
</linearGradient>
<linearGradient id="paint13_linear_406_909" x1="5.99042" y1="127.453" x2="83.1217" y2="47.8809" gradientUnits="userSpaceOnUse">
<stop offset="0.03" stop-color="#7C1DC9"/>
<stop offset="0.21" stop-color="#6E41D2"/>
<stop offset="0.62" stop-color="#4C9BE8"/>
<stop offset="1" stop-color="#2AF6FF"/>
</linearGradient>
<linearGradient id="paint14_linear_406_909" x1="120.93" y1="98.5956" x2="35.9427" y2="98.9183" gradientUnits="userSpaceOnUse">
<stop offset="0.03" stop-color="#7C1DC9"/>
<stop offset="0.21" stop-color="#6E41D2"/>
<stop offset="0.62" stop-color="#4C9BE8"/>
<stop offset="1" stop-color="#2AF6FF"/>
</linearGradient>
<radialGradient id="paint15_radial_406_909" cx="0" cy="0" r="1" gradientUnits="userSpaceOnUse" gradientTransform="translate(62.3472 85.1265) scale(61.2092 61.2092)">
<stop stop-color="white"/>
<stop offset="1"/>
</radialGradient>
<radialGradient id="paint16_radial_406_909" cx="0" cy="0" r="1" gradientUnits="userSpaceOnUse" gradientTransform="translate(86.9095 26.6117) scale(97.3251 97.3251)">
<stop offset="0.02" stop-color="#4B61B8"/>
<stop offset="0.11" stop-color="#4154A0"/>
<stop offset="0.34" stop-color="#2A3768"/>
<stop offset="0.55" stop-color="#181F3B"/>
<stop offset="0.74" stop-color="#0B0E1B"/>
<stop offset="0.89" stop-color="#030407"/>
<stop offset="1"/>
</radialGradient>
<radialGradient id="paint17_radial_406_909" cx="0" cy="0" r="1" gradientUnits="userSpaceOnUse" gradientTransform="translate(61.6393 87.7256) scale(47.642 47.642)">
<stop stop-color="white"/>
<stop offset="1"/>
</radialGradient>
<clipPath id="clip0_406_909">
<rect width="120.874" height="185" fill="white"/>
</clipPath>
</defs>
</svg>
