<svg width="120" height="185" viewBox="0 0 120 185" fill="none" xmlns="http://www.w3.org/2000/svg">
<g clip-path="url(#clip0_411_3364)">
<g opacity="0.2">
<path opacity="0.09" d="M23.3445 145.164C23.3445 144.704 24.7374 143.966 26.6038 143.2C30.1834 141.807 36.0613 140.094 41.0199 138.673C45.3935 137.419 49.3771 136.444 50.1432 135.985L52.9289 134.898C54.656 133.909 69.3368 142.991 70.7157 143.785L77.8611 148.381L92.8344 158.006L112.418 170.542L114.967 172.185C115.852 172.626 116.603 173.295 117.144 174.122C117.685 174.95 117.996 175.906 118.045 176.893C118.029 178.015 117.701 179.111 117.099 180.058C116.496 181.005 115.642 181.766 114.633 182.256C114.633 182.256 110.579 184.61 108.267 184.638C106.454 184.683 104.66 184.261 103.058 183.412L77.6801 172.046L66.6904 167.143L52.2882 160.708C51.1042 160.012 38.666 154.245 30.7127 150.122C26.367 147.852 23.2888 145.888 23.3445 145.164Z" fill="black"/>
<path opacity="0.18" d="M28.6373 146.849C28.6373 146.431 30.0301 145.707 31.6876 145.011C35.0584 143.618 40.588 142.225 45.1566 140.916C49.1123 139.829 52.9148 139.091 53.6391 138.673L56.2856 137.754C57.8456 136.862 71.6071 145.429 72.8606 146.111L79.5324 150.429L93.5307 159.427L111.819 171.197L114.215 172.715C115.019 173.138 115.705 173.756 116.209 174.513C116.713 175.27 117.018 176.141 117.098 177.047C117.13 178.083 116.861 179.106 116.325 179.993C115.789 180.88 115.008 181.594 114.075 182.047C114.075 182.047 110.287 184.22 108.058 184.262C106.359 184.327 104.672 183.943 103.169 183.147L79.3932 172.394L69.086 167.728L55.5056 161.572C54.4331 160.945 42.3848 155.276 35.2255 151.557C31.2001 149.496 28.3726 147.643 28.6373 146.849Z" fill="black"/>
<path opacity="0.27" d="M33.9305 148.549C33.9305 148.173 35.2259 147.448 36.7162 146.822C40.8232 145.368 45.0084 144.145 49.252 143.158C52.7759 142.239 56.4531 141.765 57.1077 141.375L59.5452 140.623C60.9381 139.815 73.8221 147.866 74.8667 148.493L81.0789 152.491L94.0882 160.848L111.081 171.796L113.31 173.188C114.063 173.576 114.71 174.141 115.196 174.835C115.681 175.53 115.99 176.332 116.095 177.172C116.176 178.122 115.968 179.075 115.498 179.905C115.029 180.735 114.319 181.404 113.463 181.824C111.74 182.826 109.854 183.514 107.891 183.858C106.297 183.945 104.708 183.599 103.295 182.855L81.0093 172.645L71.3707 168.244L58.7374 162.449C57.7763 161.892 46.1181 156.335 39.7666 153.02C36.0198 151.139 33.5266 149.287 33.9305 148.549Z" fill="black"/>
<path opacity="0.36" d="M39.2231 150.234C39.2231 149.914 40.5046 149.189 41.8417 148.632C45.632 147.31 49.5027 146.231 53.4303 145.401C56.5225 144.649 60.0743 144.398 60.6454 144.008L62.8879 143.423C64.0857 142.727 76.0922 150.248 77.0533 150.791L82.7779 154.608L94.8123 162.38L110.51 172.52L112.571 173.829C113.253 174.2 113.842 174.719 114.295 175.348C114.748 175.978 115.054 176.701 115.19 177.464C115.321 178.325 115.174 179.205 114.77 179.976C114.367 180.748 113.729 181.371 112.947 181.755C111.304 182.681 109.514 183.317 107.654 183.635C106.174 183.724 104.696 183.411 103.378 182.73L82.6526 173.105L73.6825 168.926L61.9268 163.466C61.0911 162.979 49.8228 157.519 44.2792 154.608C40.8528 152.769 38.6938 151 39.2231 150.234Z" fill="black"/>
<path opacity="0.45" d="M44.5722 151.919C44.5722 151.641 45.8258 150.916 46.9679 150.443C50.4431 149.243 54.0054 148.311 57.6233 147.657C60.2976 147.058 63.7101 147.058 64.1977 146.78L66.2312 146.348C67.2759 145.749 78.377 152.755 79.1988 153.229L84.4638 156.627L95.5092 163.773L109.911 173.105L111.806 174.303C112.412 174.651 112.94 175.122 113.355 175.686C113.77 176.249 114.063 176.893 114.215 177.576C114.399 178.344 114.318 179.152 113.984 179.867C113.65 180.583 113.083 181.165 112.377 181.518C110.842 182.362 109.175 182.936 107.446 183.217C106.071 183.319 104.694 183.045 103.462 182.423L84.2967 173.369L75.9395 169.469L65.1448 164.358C64.4344 163.94 53.5562 158.577 48.7926 156.084C45.6726 154.412 43.8479 152.699 44.5722 151.919Z" fill="black"/>
<path opacity="0.55" d="M49.823 153.619C49.823 153.382 51.0348 152.658 51.9958 152.226C55.166 151.138 58.4299 150.345 61.7459 149.858C63.9884 149.412 67.3173 149.663 67.6795 149.426L69.518 149.161C70.3816 148.674 80.6609 155.137 81.2877 155.541L86.0792 158.647L96.1078 165.207L109.229 173.718L110.956 174.818C112.091 175.446 112.932 176.497 113.296 177.743C113.541 178.407 113.534 179.137 113.278 179.797C113.021 180.456 112.532 180.999 111.903 181.323C110.476 182.085 108.932 182.603 107.334 182.855C106.074 182.971 104.805 182.735 103.671 182.172L86.0513 173.704L78.4324 170.041L68.4455 165.235C67.8466 164.887 57.3026 159.664 53.4026 157.533C50.4915 156 49.0012 154.399 49.823 153.619Z" fill="black"/>
<path opacity="0.64" d="M55.1162 155.304C55.6789 154.767 56.3414 154.346 57.0662 154.064C59.9126 153.104 62.8548 152.455 65.8412 152.128C67.638 151.822 70.8137 152.337 71.148 152.128L72.7777 152.031C73.4741 151.627 82.7923 157.602 83.3356 157.895L87.6534 160.68L96.721 166.586L108.532 174.289L110.12 175.278C111.128 175.858 111.906 176.768 112.321 177.854C112.604 178.424 112.652 179.082 112.454 179.687C112.256 180.292 111.828 180.794 111.262 181.086C109.949 181.762 108.54 182.232 107.084 182.479C105.928 182.596 104.762 182.393 103.713 181.894L87.6534 173.996L80.6891 170.598L71.5659 166.113C71.0923 165.848 61.008 160.667 57.8322 158.995C55.3251 157.686 54.169 156.112 55.1162 155.304Z" fill="black"/>
<path opacity="0.73" d="M60.4084 156.989C60.9251 156.526 61.513 156.15 62.1495 155.875C64.2945 154.914 67.8324 155.415 69.9774 154.37C71.2031 153.758 74.3928 154.983 74.6435 154.844H76.0363C76.5517 154.552 84.9785 159.97 85.3964 160.207L89.2407 162.728L97.3193 168.021L107.835 174.901L109.228 175.779C110.12 176.302 110.838 177.077 111.29 178.007C111.819 179.136 111.819 180.18 110.621 180.877C109.41 181.461 108.119 181.865 106.791 182.075C105.745 182.21 104.682 182.046 103.726 181.601L89.2825 174.358L83.0146 171.196L74.7828 167.018C74.4206 166.823 64.7263 161.739 62.3584 160.471C59.9906 159.204 59.322 157.811 60.4084 156.989Z" fill="black"/>
<path opacity="0.82" d="M65.7018 158.689C66.1668 158.289 66.6819 157.952 67.2339 157.686C69.3953 156.736 71.7669 156.367 74.1147 156.613C74.9922 156.349 77.9729 157.644 78.14 157.547L79.3797 157.769C79.714 157.574 87.2494 162.477 87.5279 162.631L90.9126 164.859L98.0023 169.525L107.251 175.598L108.504 176.364C109.28 176.85 109.932 177.508 110.413 178.286C111.026 179.275 111.179 180.195 110.134 180.807C109.024 181.3 107.853 181.642 106.652 181.824C105.708 181.977 104.74 181.851 103.866 181.462L90.9126 174.721L85.3411 171.823L78.0008 167.951L66.8579 161.99C64.9775 160.973 64.49 159.511 65.7018 158.689Z" fill="black"/>
<path opacity="0.91" d="M71.0365 160.374C71.4539 160.054 71.8912 159.761 72.3457 159.497C74.2014 158.626 76.2948 158.4 78.2933 158.856C79.4612 159.217 80.594 159.683 81.6779 160.249L82.7086 160.653C82.8897 160.541 89.5337 164.929 89.673 164.998L92.584 166.934L98.6848 170.974L106.624 176.239C106.861 176.378 107.404 176.698 107.711 176.907C108.389 177.311 108.996 177.824 109.507 178.426C110.204 179.261 110.51 180.069 109.619 180.584C108.619 180.987 107.577 181.277 106.513 181.448C105.687 181.597 104.836 181.505 104.061 181.183L92.6537 175.027L87.7508 172.353L81.2879 168.87L71.4682 163.466C69.7968 162.603 69.6436 161.224 71.0365 160.374Z" fill="black"/>
<path d="M82.3879 161.098L94.1576 168.982L105.858 176.893C107.139 177.645 110.426 179.567 108.95 180.431C108.95 180.431 105.342 181.698 104.047 180.96L89.965 172.979L75.8693 164.998C74.5878 164.26 74.7411 162.964 76.2314 162.101L77.3318 161.335C78.096 160.899 78.9526 160.65 79.8314 160.609C80.7102 160.568 81.5863 160.736 82.3879 161.098Z" fill="black"/>
</g>
<path d="M113.268 171.322C113.918 172.521 114.198 173.887 114.071 175.245C113.945 176.604 113.418 177.894 112.558 178.953C111.698 180.012 110.542 180.792 109.239 181.194C107.935 181.596 106.541 181.603 105.234 181.212C103.927 180.822 102.765 180.053 101.895 179.002C101.025 177.951 100.486 176.665 100.347 175.308C100.208 173.951 100.475 172.583 101.114 171.377C101.753 170.172 102.735 169.183 103.936 168.536C105.547 167.689 107.426 167.506 109.17 168.026C110.914 168.547 112.386 169.73 113.268 171.322Z" fill="url(#paint0_linear_411_3364)"/>
<path d="M84.1012 114.033L69.1836 122.07L98.7959 177.018C100.091 179.428 104.479 179.567 108.546 177.353C112.613 175.138 114.953 171.391 113.658 168.996L84.1012 114.033Z" fill="url(#paint1_linear_411_3364)"/>
<path d="M84.1012 114.033L69.1836 122.07L98.7959 177.018C100.091 179.428 104.479 179.567 108.546 177.353C112.613 175.138 114.953 171.391 113.658 168.996L84.1012 114.033Z" fill="url(#paint2_linear_411_3364)"/>
<path d="M84.1156 114.061C85.4109 116.471 83.1266 120.204 79.0037 122.418C74.8809 124.633 70.4934 124.494 69.2537 122.084C68.0141 119.674 70.2566 115.941 74.3794 113.727C78.5023 111.512 82.8202 111.665 84.1156 114.061Z" fill="url(#paint3_linear_411_3364)"/>
<path d="M74.3374 103.155L65.4648 107.932L71.7745 119.632C72.5406 121.025 75.1592 121.137 77.6106 119.827C80.062 118.518 81.4131 116.276 80.647 114.855L74.3374 103.155Z" fill="url(#paint4_linear_411_3364)"/>
<path d="M48.3045 102.668C25.8376 89.7004 7.63289 58.3052 7.63289 32.5233C7.63289 22.1744 10.5718 14.3047 15.5443 9.42969C6.07288 12.5358 0 22.2858 0 37.1616C0 62.9295 18.2047 94.3386 40.6716 107.25C54.1127 115.009 66.0217 114.41 73.4317 107.153C66.5092 109.465 57.7899 108.142 48.3045 102.668Z" fill="url(#paint5_linear_411_3364)"/>
<path opacity="0.7" d="M70.0105 106.091C84.9463 97.3599 84.7926 69.3072 69.6672 43.4337C54.5419 17.5602 30.1726 3.66358 15.2369 12.3948C0.301157 21.126 0.454862 49.1787 15.5802 75.0523C30.7055 100.926 55.0748 114.822 70.0105 106.091Z" fill="url(#paint6_linear_411_3364)"/>
<path style="mix-blend-mode:multiply" d="M70.0105 106.091C84.9463 97.3599 84.7926 69.3072 69.6672 43.4337C54.5419 17.5602 30.1726 3.66358 15.2369 12.3948C0.301157 21.126 0.454862 49.1787 15.5802 75.0523C30.7055 100.926 55.0748 114.822 70.0105 106.091Z" fill="url(#paint7_radial_411_3364)"/>
<path d="M49.2938 9.0532C38.2484 2.67389 28.2337 1.9496 20.8933 5.91926C20.6844 6.01676 10.1683 11.8946 9.83398 12.3961C17.2858 6.82462 28.3312 6.82462 40.658 13.97C63.111 26.9376 81.3296 58.3466 81.3296 84.1146C81.3296 97.2771 76.5799 106.4 68.9471 110.495C69.6438 110.284 70.3125 109.989 70.9389 109.618L78.5439 105.021C85.6057 100.704 89.9514 91.7892 89.9514 79.1978C89.9654 53.4298 71.7467 22.0207 49.2938 9.0532Z" fill="url(#paint8_linear_411_3364)"/>
<path d="M40.6716 13.9285C18.2047 1.00277 0 11.3935 0 37.1615C0 62.9294 18.2047 94.3385 40.6716 107.25C63.1385 120.162 81.3432 109.897 81.3432 84.1149C81.3432 58.333 63.1245 26.9379 40.6716 13.9285ZM40.393 104.214C19.6533 92.2492 2.78572 63.2498 2.78572 39.4597C2.78572 15.6696 19.6533 6.07279 40.393 18.1071C61.1327 30.1415 78.0003 59.0155 78.0003 82.8056C78.0003 106.596 61.1188 116.192 40.393 104.214Z" fill="url(#paint9_linear_411_3364)"/>
<path style="mix-blend-mode:screen" d="M42.6219 12.9949C31.8551 6.78274 22.0772 5.94702 14.7646 9.58239C21.5479 7.6881 31.479 8.70489 40.644 13.9699C63.097 26.9375 81.3156 58.3465 81.3156 84.1145C81.3156 97.5417 74.8109 107.166 66.8995 111.108C76.8306 108.322 83.2656 98.4609 83.2656 83.1395C83.2935 57.3715 65.0748 25.9625 42.6219 12.9949Z" fill="url(#paint10_radial_411_3364)"/>
<path d="M66.3566 65.1023C65.883 64.2805 65.1169 63.8487 64.6573 64.1133L60.8269 66.2862C59.044 67.3169 56.6483 67.0662 54.1272 65.6037L53.584 65.2973C53.6676 64.0437 53.7233 62.7344 53.7233 61.3833L31.3539 48.4715C31.3539 49.8643 31.3539 51.2572 31.4793 52.5386L30.9361 52.2183C28.1373 50.4801 25.8307 48.0536 24.2364 45.1704L20.42 38.5682C19.9464 37.7604 19.1803 37.3147 18.7067 37.5793C18.2332 37.8439 18.2332 38.7354 18.7067 39.5432L22.5232 46.1315C24.5075 49.749 27.3845 52.7986 30.8804 54.9901L31.6882 55.4636C31.8414 56.8565 32.0225 58.124 32.2593 59.4333L24.9468 55.2547C24.2782 54.8647 23.735 55.1711 23.735 55.9372C23.7589 56.3561 23.8811 56.7635 24.0916 57.1265C24.3021 57.4894 24.595 57.7977 24.9468 58.0265L32.8722 62.609C33.2343 64.169 33.6382 65.6873 34.0979 67.1219C30.2675 65.924 27.0082 67.2055 25.5875 70.7294L24.111 74.4066C24.0339 74.8084 24.0641 75.2234 24.1986 75.6098C24.3331 75.9962 24.5672 76.3403 24.8771 76.6073C25.0042 76.739 25.1496 76.8516 25.3089 76.9416C25.7964 77.2202 26.2561 77.1505 26.4371 76.6909L27.8578 72.9719C29.0557 69.9773 31.925 69.0162 35.24 70.3116C37.19 75.2423 39.7111 79.003 42.4829 80.5909C45.2547 82.1788 47.7619 81.343 49.7119 78.6687C53.2711 81.5253 55.8515 85.4203 57.094 89.8116L58.5705 95.202C58.7433 95.8463 59.1507 96.4027 59.7126 96.762C59.8445 96.8313 59.985 96.8829 60.1305 96.9152C60.7573 96.9988 61.0776 96.3859 60.8408 95.5224L59.3644 90.132C57.8844 84.932 54.9282 80.2728 50.854 76.7187C51.3446 75.7129 51.7545 74.6696 52.0797 73.5987L60.0051 78.1812C60.6737 78.5712 61.2169 78.2648 61.2169 77.4987C61.193 77.0798 61.0708 76.6724 60.8603 76.3095C60.6498 75.9465 60.3568 75.6382 60.0051 75.4094L52.7065 71.2309C52.9294 70.1862 53.1104 69.0858 53.2637 67.9158L54.0715 68.3755C57.2472 70.2141 60.2419 70.5205 62.4287 69.2391L66.2451 67.0662C66.858 66.8573 66.858 65.9101 66.3566 65.1023Z" fill="url(#paint11_linear_411_3364)"/>
<path d="M32.6352 33.2474C33.8196 33.9528 34.8446 34.8964 35.6454 36.0185C36.4462 37.1406 37.0053 38.4167 37.2874 39.766L37.6077 41.521C34.822 41.8275 32.9695 44.3068 32.9695 48.2068L52.0099 59.2104C51.7968 54.8031 50.176 50.5803 47.3856 47.1621L47.7339 45.7693C48.291 43.7078 50.241 43.2203 52.386 44.6271C53.0685 45.0728 53.6257 44.8082 53.6674 44.07C53.6594 43.6512 53.5531 43.2402 53.3572 42.8701C53.1612 42.4999 52.881 42.181 52.5392 41.9389C49.2521 39.7939 46.2574 40.546 45.4078 43.7078L45.1431 44.6968C44.3325 43.9509 43.4454 43.2926 42.4967 42.7328C41.6695 42.2457 40.7789 41.8754 39.8503 41.6325L39.5717 40.351C39.1389 38.2798 38.2819 36.3206 37.0545 34.597C35.8271 32.8734 34.256 31.4227 32.4402 30.3363C31.7716 30.0021 31.2702 30.3363 31.312 31.1581C31.3422 31.5888 31.4789 32.0051 31.7098 32.3698C31.9408 32.7345 32.2588 33.0361 32.6352 33.2474Z" fill="url(#paint12_linear_411_3364)"/>
<path style="mix-blend-mode:screen" opacity="0.5" d="M37.2453 45.8529C43.7779 39.3012 51.0135 33.4903 58.8207 28.5257C54.1506 23.2287 48.6857 18.6895 42.6217 15.0706C21.3666 2.78556 4.17871 12.6331 4.17871 37.0221C4.17871 49.2793 8.53837 62.9015 15.5723 74.9637C21.3308 64.2503 28.6332 54.4417 37.2453 45.8529Z" fill="url(#paint13_radial_411_3364)"/>
<path style="mix-blend-mode:color-dodge" d="M42.6095 106.785C48.0273 101.368 48.0273 92.5837 42.6095 87.166C37.1918 81.7483 28.408 81.7482 22.9903 87.166C17.5726 92.5837 17.5726 101.368 22.9903 106.785C28.408 112.203 37.1918 112.203 42.6095 106.785Z" fill="url(#paint14_radial_411_3364)"/>
<path style="mix-blend-mode:color-dodge" d="M91.1447 95.7598C96.5624 90.3421 96.5624 81.5583 91.1447 76.1406C85.727 70.7229 76.9432 70.7229 71.5254 76.1406C66.1077 81.5583 66.1077 90.3421 71.5254 95.7598C76.9432 101.178 85.727 101.178 91.1447 95.7598Z" fill="url(#paint15_radial_411_3364)"/>
<path style="mix-blend-mode:color-dodge" d="M55.7987 35.2107C63.4605 35.2107 69.6716 28.9995 69.6716 21.3378C69.6716 13.676 63.4605 7.46484 55.7987 7.46484C48.1369 7.46484 41.9258 13.676 41.9258 21.3378C41.9258 28.9995 48.1369 35.2107 55.7987 35.2107Z" fill="url(#paint16_radial_411_3364)"/>
<path style="mix-blend-mode:color-dodge" d="M63.1128 38.881C67.0924 21.8468 56.5096 4.81168 39.4754 0.832026C22.4412 -3.14763 5.40616 7.43517 1.4265 24.4694C-2.55315 41.5036 8.02965 58.5386 25.0638 62.5183C42.098 66.498 59.1331 55.9152 63.1128 38.881Z" fill="url(#paint17_radial_411_3364)"/>
</g>
<defs>
<linearGradient id="paint0_linear_411_3364" x1="100.315" y1="174.525" x2="114.09" y2="174.525" gradientUnits="userSpaceOnUse">
<stop offset="0.1" stop-color="#45108A"/>
<stop offset="1" stop-color="#7C1DC9"/>
</linearGradient>
<linearGradient id="paint1_linear_411_3364" x1="85.2626" y1="151.732" x2="99.9397" y2="143.823" gradientUnits="userSpaceOnUse">
<stop offset="0.01" stop-color="#C1A1D5"/>
<stop offset="0.05" stop-color="#C8ABDA"/>
<stop offset="0.11" stop-color="#DAC6E6"/>
<stop offset="0.2" stop-color="#F7F2F9"/>
<stop offset="0.22" stop-color="white"/>
<stop offset="0.25" stop-color="#F9F5FB"/>
<stop offset="0.3" stop-color="#E9DBF2"/>
<stop offset="0.36" stop-color="#D1B4E3"/>
<stop offset="0.43" stop-color="#B395D6"/>
<stop offset="0.49" stop-color="#9C7DCB"/>
<stop offset="0.56" stop-color="#8E6EC5"/>
<stop offset="0.61" stop-color="#8969C3"/>
<stop offset="0.76" stop-color="#9471C6"/>
<stop offset="1" stop-color="#B086CC"/>
</linearGradient>
<linearGradient id="paint2_linear_411_3364" x1="85.189" y1="151.772" x2="100.111" y2="143.73" gradientUnits="userSpaceOnUse">
<stop offset="0.01" stop-color="#C1A1D5"/>
<stop offset="0.05" stop-color="#C8ABDA"/>
<stop offset="0.11" stop-color="#DAC6E6"/>
<stop offset="0.2" stop-color="#F7F2F9"/>
<stop offset="0.22" stop-color="white"/>
<stop offset="0.25" stop-color="#F9F5FB"/>
<stop offset="0.3" stop-color="#E9DBF2"/>
<stop offset="0.36" stop-color="#D1B4E3"/>
<stop offset="0.43" stop-color="#B395D6"/>
<stop offset="0.49" stop-color="#9C7DCB"/>
<stop offset="0.56" stop-color="#8E6EC5"/>
<stop offset="0.61" stop-color="#8969C3"/>
<stop offset="0.76" stop-color="#9471C6"/>
<stop offset="1" stop-color="#B086CC"/>
</linearGradient>
<linearGradient id="paint3_linear_411_3364" x1="60.1165" y1="116.958" x2="90.9963" y2="119.061" gradientUnits="userSpaceOnUse">
<stop stop-color="#9F79C8"/>
<stop offset="0.14" stop-color="#A27DCA"/>
<stop offset="0.27" stop-color="#AC88CF"/>
<stop offset="0.4" stop-color="#BC9BD7"/>
<stop offset="0.52" stop-color="#D1B4E3"/>
<stop offset="0.65" stop-color="#DBC4E9"/>
<stop offset="0.9" stop-color="#F4EDF8"/>
<stop offset="1" stop-color="white"/>
</linearGradient>
<linearGradient id="paint4_linear_411_3364" x1="69.3765" y1="115.088" x2="78.1067" y2="110.384" gradientUnits="userSpaceOnUse">
<stop offset="0.1" stop-color="#45108A"/>
<stop offset="0.31" stop-color="#7C1DC9"/>
<stop offset="0.52" stop-color="#5D16A5"/>
<stop offset="0.67" stop-color="#45108A"/>
<stop offset="0.89" stop-color="#56149D"/>
</linearGradient>
<linearGradient id="paint5_linear_411_3364" x1="3.5518" y1="22.5087" x2="68.4453" y2="138.019" gradientUnits="userSpaceOnUse">
<stop offset="0.01" stop-color="#C1A1D5"/>
<stop offset="0.05" stop-color="#C8ABDA"/>
<stop offset="0.11" stop-color="#DAC6E6"/>
<stop offset="0.2" stop-color="#F7F2F9"/>
<stop offset="0.22" stop-color="white"/>
<stop offset="0.25" stop-color="#F9F5FB"/>
<stop offset="0.3" stop-color="#E9DBF2"/>
<stop offset="0.36" stop-color="#D1B4E3"/>
<stop offset="0.43" stop-color="#B395D6"/>
<stop offset="0.49" stop-color="#9C7DCB"/>
<stop offset="0.56" stop-color="#8E6EC5"/>
<stop offset="0.61" stop-color="#8969C3"/>
<stop offset="0.76" stop-color="#9471C6"/>
<stop offset="1" stop-color="#B086CC"/>
</linearGradient>
<linearGradient id="paint6_linear_411_3364" x1="46.0538" y1="147.45" x2="41.5548" y2="31.7312" gradientUnits="userSpaceOnUse">
<stop offset="0.03" stop-color="#7C1DC9"/>
<stop offset="0.21" stop-color="#6E41D2"/>
<stop offset="0.62" stop-color="#4C9BE8"/>
<stop offset="1" stop-color="#2AF6FF"/>
</linearGradient>
<radialGradient id="paint7_radial_411_3364" cx="0" cy="0" r="1" gradientUnits="userSpaceOnUse" gradientTransform="translate(55.7899 52.5127) scale(75.4514)">
<stop offset="0.48" stop-color="white"/>
<stop offset="1" stop-color="#8770B8"/>
</radialGradient>
<linearGradient id="paint8_linear_411_3364" x1="31.7019" y1="2.31174" x2="83.0707" y2="100.634" gradientUnits="userSpaceOnUse">
<stop offset="0.01" stop-color="#C1A1D5"/>
<stop offset="0.05" stop-color="#C8ABDA"/>
<stop offset="0.11" stop-color="#DAC6E6"/>
<stop offset="0.2" stop-color="#F7F2F9"/>
<stop offset="0.22" stop-color="white"/>
<stop offset="0.25" stop-color="#F9F5FB"/>
<stop offset="0.3" stop-color="#E9DBF2"/>
<stop offset="0.36" stop-color="#D1B4E3"/>
<stop offset="0.43" stop-color="#B395D6"/>
<stop offset="0.49" stop-color="#9C7DCB"/>
<stop offset="0.56" stop-color="#8E6EC5"/>
<stop offset="0.61" stop-color="#8969C3"/>
<stop offset="0.76" stop-color="#9471C6"/>
<stop offset="1" stop-color="#B086CC"/>
</linearGradient>
<linearGradient id="paint9_linear_411_3364" x1="-40.6577" y1="40.184" x2="109.047" y2="77.8331" gradientUnits="userSpaceOnUse">
<stop stop-color="#9F79C8"/>
<stop offset="0.14" stop-color="#A27DCA"/>
<stop offset="0.27" stop-color="#AC88CF"/>
<stop offset="0.4" stop-color="#BC9BD7"/>
<stop offset="0.52" stop-color="#D1B4E3"/>
<stop offset="0.65" stop-color="#DBC4E9"/>
<stop offset="0.9" stop-color="#F4EDF8"/>
<stop offset="1" stop-color="white"/>
</linearGradient>
<radialGradient id="paint10_radial_411_3364" cx="0" cy="0" r="1" gradientUnits="userSpaceOnUse" gradientTransform="translate(59.3362 27.5364) scale(43.9309 43.9309)">
<stop stop-color="white"/>
<stop offset="1"/>
</radialGradient>
<linearGradient id="paint11_linear_411_3364" x1="53.8626" y1="89.7977" x2="11.6171" y2="-6.32373" gradientUnits="userSpaceOnUse">
<stop offset="0.1" stop-color="#45108A"/>
<stop offset="1" stop-color="#7C1DC9"/>
</linearGradient>
<linearGradient id="paint12_linear_411_3364" x1="61.2307" y1="86.5662" x2="18.9852" y2="-9.55523" gradientUnits="userSpaceOnUse">
<stop offset="0.1" stop-color="#45108A"/>
<stop offset="1" stop-color="#7C1DC9"/>
</linearGradient>
<radialGradient id="paint13_radial_411_3364" cx="0" cy="0" r="1" gradientUnits="userSpaceOnUse" gradientTransform="translate(33.1642 37.1196) scale(30.0858)">
<stop stop-color="white"/>
<stop offset="1"/>
</radialGradient>
<radialGradient id="paint14_radial_411_3364" cx="0" cy="0" r="1" gradientUnits="userSpaceOnUse" gradientTransform="translate(33.2404 97.409) scale(10.14)">
<stop stop-color="#364F87"/>
<stop offset="0.15" stop-color="#263860"/>
<stop offset="0.31" stop-color="#19243D"/>
<stop offset="0.48" stop-color="#0E1422"/>
<stop offset="0.65" stop-color="#06090F"/>
<stop offset="0.82" stop-color="#020204"/>
<stop offset="1"/>
</radialGradient>
<radialGradient id="paint15_radial_411_3364" cx="0" cy="0" r="1" gradientUnits="userSpaceOnUse" gradientTransform="translate(81.7768 86.3929) scale(10.14)">
<stop stop-color="#364F87"/>
<stop offset="0.15" stop-color="#263860"/>
<stop offset="0.31" stop-color="#19243D"/>
<stop offset="0.48" stop-color="#0E1422"/>
<stop offset="0.65" stop-color="#06090F"/>
<stop offset="0.82" stop-color="#020204"/>
<stop offset="1"/>
</radialGradient>
<radialGradient id="paint16_radial_411_3364" cx="0" cy="0" r="1" gradientUnits="userSpaceOnUse" gradientTransform="translate(56.2444 21.7835) scale(10.14)">
<stop stop-color="#364F87"/>
<stop offset="0.15" stop-color="#263860"/>
<stop offset="0.31" stop-color="#19243D"/>
<stop offset="0.48" stop-color="#0E1422"/>
<stop offset="0.65" stop-color="#06090F"/>
<stop offset="0.82" stop-color="#020204"/>
<stop offset="1"/>
</radialGradient>
<radialGradient id="paint17_radial_411_3364" cx="0" cy="0" r="1" gradientUnits="userSpaceOnUse" gradientTransform="translate(33.2939 32.694) scale(23.1633 23.1633)">
<stop offset="0.01" stop-color="#A56EF4"/>
<stop offset="0.12" stop-color="#8055BD"/>
<stop offset="0.24" stop-color="#5E3F8B"/>
<stop offset="0.36" stop-color="#412B60"/>
<stop offset="0.49" stop-color="#2A1C3E"/>
<stop offset="0.61" stop-color="#171023"/>
<stop offset="0.74" stop-color="#0A070F"/>
<stop offset="0.87" stop-color="#030204"/>
<stop offset="1"/>
</radialGradient>
<clipPath id="clip0_411_3364">
<rect width="119.006" height="185" fill="white"/>
</clipPath>
</defs>
</svg>
