<svg width="183" height="185" viewBox="0 0 183 185" fill="none" xmlns="http://www.w3.org/2000/svg">
<g clip-path="url(#clip0_406_847)">
<g opacity="0.2">
<path opacity="0.09" d="M48.5763 103.543C48.5763 103.543 53.0727 101.709 53.2493 101.677C56.1559 100.068 58.4522 97.1245 60.7165 98.4596L117.772 129.473L122.397 131.982L174.828 160.486C176.238 161.208 177.444 162.275 178.334 163.588C179.223 164.901 179.768 166.418 179.918 167.997C179.934 168.308 179.934 168.62 179.918 168.93C179.728 170.579 179.131 172.154 178.18 173.513C177.23 174.873 175.956 175.973 174.474 176.716C174.474 176.716 172.981 177.52 171.07 178.453C166.493 180.689 158.753 184.099 156.136 183.97C153.197 183.944 150.311 183.187 147.737 181.767L95.4991 151.075L43.2128 120.368C41.8313 119.622 40.6528 118.549 39.7796 117.243C38.9064 115.936 38.365 114.436 38.2026 112.872C38.0901 109.526 44.8507 105.698 48.5763 103.543Z" fill="black"/>
<path opacity="0.18" d="M49.4122 104.958C49.4122 104.958 53.6195 103.253 53.9888 103.173C56.8151 101.677 59.1436 99.0065 61.3115 100.261L116.922 130.47L121.434 132.915L172.532 160.662C175.118 162.158 177.735 165.134 177.735 167.756C177.735 168.03 177.832 168.351 177.735 168.625C177.645 170.215 177.139 171.753 176.268 173.086C175.397 174.418 174.192 175.498 172.773 176.217C172.773 176.217 171.167 177.086 169.561 177.922C165.145 180.094 157.742 183.198 155.109 182.925C152.295 182.802 149.548 182.032 147.08 180.673L96.351 150.882L45.7509 121.124C44.4372 120.393 43.302 119.379 42.4272 118.155C41.5524 116.931 40.9599 115.528 40.6925 114.047C40.4676 110.878 45.783 107.065 49.4122 104.958Z" fill="black"/>
<path opacity="0.27" d="M50.2464 106.374C50.2464 106.374 54.1807 104.765 54.7267 104.765C57.4727 103.366 59.8333 100.969 61.9049 102.159L116.07 131.467L120.438 133.848L170.219 160.855C172.499 162.174 175.534 165.199 175.534 167.531C175.534 167.772 175.679 168.11 175.679 168.351C175.693 169.878 175.279 171.377 174.484 172.68C173.689 173.982 172.545 175.035 171.183 175.718C171.183 175.718 169.577 176.668 167.971 177.327C163.715 179.434 156.65 182.153 154.048 181.831C151.342 181.601 148.716 180.801 146.34 179.483L97.3137 150.689L48.2873 121.88C45.9909 120.545 43.4698 117.553 43.1807 115.237C42.8274 112.213 46.6975 108.433 50.2464 106.374Z" fill="black"/>
<path opacity="0.36" d="M51.0976 107.773C51.0976 107.773 54.7268 106.309 55.4495 106.165C58.1312 104.894 60.5079 102.738 62.4991 103.897L115.219 132.464L119.507 134.781L167.955 161.016C169.962 162.175 173.399 165.231 173.399 167.274C173.399 167.483 173.624 167.821 173.607 168.03C174.282 170.571 172.837 173.322 169.577 175.204C169.577 175.204 167.875 176.217 166.542 176.812C162.447 178.839 155.718 181.316 153.117 180.785C150.521 180.462 148.012 179.637 145.73 178.357L98.2131 150.496L50.8246 122.636C48.8173 121.478 46.0071 118.438 45.6699 116.411C45.2042 113.532 47.613 109.816 51.0976 107.773Z" fill="black"/>
<path opacity="0.45" d="M51.9327 109.221C51.9327 109.221 55.2889 107.886 56.1882 107.612C58.7897 106.454 61.1985 104.572 63.0933 105.666L114.368 133.51L118.543 135.762L165.659 161.242C167.377 162.239 171.215 165.327 171.215 167.081C171.215 167.258 171.52 167.611 171.488 167.788C172.451 170.169 171.151 172.888 167.939 174.753C167.939 174.753 166.172 175.815 165.032 176.362C161.098 178.324 154.691 180.496 152.186 179.836C149.697 179.411 147.301 178.557 145.104 177.311L99.1285 150.303L53.3619 123.392C51.6437 122.395 48.1751 119.355 48.1751 117.601C47.0028 115.012 48.5283 111.183 51.9327 109.221Z" fill="black"/>
<path opacity="0.55" d="M52.784 110.636C52.784 110.636 55.8511 109.43 56.9271 109.189C59.4643 108.143 61.8891 106.518 63.6716 107.58L113.533 134.459L117.564 136.727L163.362 161.451C164.792 162.271 169.047 165.424 169.047 166.871C169.047 167.032 169.4 167.37 169.384 167.515C170.605 169.751 169.384 172.453 166.317 174.271C166.317 174.271 164.47 175.413 163.523 175.879C159.749 177.794 153.679 179.643 151.11 178.839C148.74 178.312 146.461 177.433 144.349 176.233L100.044 150.11L55.8993 124.148C54.4541 123.312 50.6321 120.239 50.6321 118.776C50.2353 118.101 49.9762 117.354 49.8696 116.578C49.763 115.802 49.8112 115.013 50.0114 114.256C50.2115 113.499 50.5596 112.789 51.0356 112.168C51.5115 111.547 52.1058 111.026 52.784 110.636Z" fill="black"/>
<path opacity="0.64" d="M53.6193 112.052C53.6193 112.052 56.3974 110.974 57.666 110.685C60.123 109.752 62.6281 108.4 64.2339 109.382L112.682 135.456L116.601 137.58L161.066 161.531C162.206 162.207 166.863 165.392 166.863 166.55C166.863 166.678 167.297 167.032 167.281 167.145C168.758 169.22 167.795 171.971 164.679 173.692C164.679 173.692 162.769 174.898 162.014 175.3C158.385 177.15 152.668 178.694 150.114 177.761C147.869 177.134 145.711 176.226 143.691 175.059L100.944 149.917L58.4208 124.904C57.2806 124.245 53.1215 121.124 53.1215 119.966C51.5157 117.746 50.3755 113.934 53.6193 112.052Z" fill="black"/>
<path opacity="0.73" d="M54.4536 113.468C55.7471 112.974 57.0658 112.55 58.404 112.197C60.7807 111.376 63.2216 110.266 64.8274 111.199L111.798 136.454L115.62 138.513L158.753 161.708C159.62 162.207 164.679 165.44 164.679 166.309C164.679 166.405 165.161 166.759 165.161 166.855C166.895 168.77 166.092 171.408 163.025 173.177C163.025 173.177 161.05 174.48 160.488 174.786C157.019 176.555 151.639 177.794 149.086 176.716C146.943 175.989 144.878 175.052 142.92 173.917L101.81 149.789L61.0215 125.66C60.1704 125.162 55.6741 122.025 55.6741 121.14C53.7631 119.114 51.2901 115.301 54.4536 113.468Z" fill="black"/>
<path opacity="0.82" d="M55.305 114.883C56.5619 114.417 57.8431 114.019 59.143 113.693C61.4394 112.985 63.9605 112.084 65.454 113.017L110.98 137.467L114.673 139.446L156.425 161.965C157.003 162.303 162.479 165.569 162.479 166.164C162.479 166.164 163.025 166.566 163.009 166.63C165.016 168.4 164.374 171.022 161.403 172.759C161.403 172.759 159.364 174.126 158.978 174.367C155.767 176.072 150.644 176.989 148.107 175.799C146.101 174.973 144.153 174.011 142.278 172.92L102.774 149.596L63.4949 126.416C62.9167 126.079 58.0992 122.91 58.0992 122.331C56.0277 120.481 52.2218 116.669 55.305 114.883Z" fill="black"/>
<path opacity="0.91" d="M56.2044 116.299C57.4259 115.868 58.6696 115.503 59.9299 115.205C62.1621 114.61 64.7475 114.03 66.1124 114.851L110.129 138.464L113.71 140.379L154.161 162.062C156.283 163.21 158.341 164.472 160.327 165.842C160.327 165.842 160.938 166.228 160.938 166.26C163.202 167.869 162.72 170.459 159.749 172.18C159.749 172.18 157.646 173.611 157.453 173.708C154.241 175.316 149.616 175.96 147.079 174.625C146.774 174.625 141.796 171.794 141.571 171.665L103.673 149.338L66.0322 127.172C64.1393 126.062 62.316 124.838 60.5723 123.505C58.2759 121.864 53.1372 118.036 56.2044 116.299Z" fill="black"/>
<path d="M146.132 173.595L104.572 149.145L63.0612 124.695C60.54 123.231 54.0524 119.419 56.9751 117.73C56.9751 117.73 64.105 115.205 66.6101 116.668L112.746 141.312L158.85 165.955C161.387 167.418 161.066 169.976 158.143 171.665L155.959 173.177C154.466 174.007 152.801 174.477 151.095 174.55C149.389 174.622 147.689 174.295 146.132 173.595Z" fill="black"/>
</g>
<path d="M101.056 26.0103V34.9056L41.4306 0.434266C40.9449 0.171587 40.3999 0.0387172 39.848 0.0484748C39.2961 0.0582324 38.7561 0.210288 38.28 0.489973C37.8039 0.769657 37.4078 1.16753 37.1298 1.64521C36.8519 2.12289 36.7016 2.66425 36.6934 3.21707V113.049L150.451 179.29C151.761 180.048 153.252 180.437 154.765 180.414C156.278 180.392 157.756 179.958 159.043 179.161L161.483 177.649C162.578 176.97 163.483 176.023 164.112 174.897C164.741 173.772 165.075 172.505 165.081 171.215V62.5245C165.08 61.0116 164.682 59.5254 163.927 58.2153C163.171 56.9052 162.085 55.8173 160.777 55.0608L105.793 23.2758C105.311 23.0148 104.77 22.8817 104.222 22.8892C103.674 22.8967 103.137 23.0445 102.662 23.3186C102.187 23.5927 101.791 23.9839 101.509 24.4551C101.228 24.9262 101.072 25.4616 101.056 26.0103Z" fill="url(#paint0_linear_406_847)"/>
<g style="mix-blend-mode:color-dodge">
<path d="M40.1464 1.512L99.7553 35.9994V34.1496L41.4311 0.434268C40.7385 0.0521617 39.9297 -0.0606521 39.1593 0.117427C38.3889 0.295506 37.7112 0.751963 37.2559 1.3994C37.7105 1.1813 38.2113 1.07756 38.715 1.09718C39.2187 1.1168 39.71 1.25919 40.1464 1.512Z" fill="url(#paint1_radial_406_847)"/>
<path d="M160.777 55.0608L105.793 23.2757C105.101 22.8936 104.292 22.7808 103.522 22.9589C102.751 23.1369 102.073 23.5934 101.618 24.2408C102.071 24.0255 102.569 23.9232 103.069 23.9428C103.57 23.9624 104.058 24.1033 104.493 24.3534L159.477 56.1546C160.788 56.909 161.877 57.9961 162.636 59.3063C163.394 60.6166 163.794 62.1038 163.796 63.6183V172.26C163.793 174.211 163.046 176.086 161.709 177.504C162.748 176.81 163.601 175.87 164.192 174.767C164.783 173.665 165.094 172.434 165.097 171.182V62.5245C165.095 61.01 164.695 59.5227 163.936 58.2125C163.178 56.9022 162.088 55.8152 160.777 55.0608Z" fill="url(#paint2_radial_406_847)"/>
</g>
<path d="M30.832 103.269L159.219 177.504V79.913L30.832 5.66211V103.269Z" fill="white"/>
<g style="mix-blend-mode:multiply" opacity="0.7">
<path d="M30.832 106.518L156.939 179.45V88.1809L30.832 15.249V106.518Z" fill="#C7BCD6"/>
</g>
<path d="M31.8277 110.476L150.66 179.209C151.877 179.914 153.254 180.294 154.66 180.314C156.066 180.334 157.453 179.992 158.689 179.322L159.476 178.904L158.657 179.209C158.209 179.382 157.726 179.442 157.25 179.386C156.773 179.329 156.318 179.157 155.923 178.885C155.527 178.612 155.204 178.248 154.981 177.822C154.758 177.397 154.642 176.923 154.643 176.442V94.7278C154.645 93.2142 154.249 91.7268 153.493 90.4161C152.737 89.1055 151.649 88.0181 150.339 87.2641L31.0087 18.241C30.5313 17.982 29.9962 17.8485 29.4532 17.8529C28.9103 17.8573 28.3774 17.9995 27.9043 18.2662C27.4311 18.5329 27.0332 18.9154 26.7476 19.378C26.4621 19.8405 26.2983 20.368 26.2715 20.9112V100.824C26.2695 102.78 26.782 104.702 27.7574 106.396C28.7328 108.091 30.1367 109.498 31.8277 110.476Z" fill="url(#paint3_linear_406_847)"/>
<path style="mix-blend-mode:color-dodge" d="M158.673 179.209C158.225 179.382 157.742 179.442 157.266 179.386C156.789 179.329 156.334 179.157 155.938 178.885C155.543 178.612 155.22 178.248 154.997 177.822C154.774 177.397 154.658 176.923 154.659 176.442V94.7278C154.661 93.2142 154.265 91.7268 153.509 90.4161C152.753 89.1054 151.665 88.0181 150.355 87.2641L31.0085 18.241C30.3745 17.8905 29.6409 17.765 28.9268 17.8847C28.2126 18.0044 27.5598 18.3624 27.0742 18.9005C27.5196 18.7046 28.0049 18.6171 28.4906 18.645C28.9762 18.673 29.4483 18.8156 29.8684 19.0613L149.215 88.0684C150.523 88.8248 151.609 89.9128 152.364 91.2229C153.12 92.533 153.518 94.0191 153.518 95.5321V177.263C153.527 177.972 153.79 178.654 154.258 179.185C154.727 179.717 155.37 180.062 156.072 180.158C156.994 180.028 157.886 179.734 158.705 179.29L159.492 178.871L158.673 179.209Z" fill="url(#paint4_radial_406_847)"/>
<path d="M124.083 89.2587C113.806 83.4036 103.753 73.9935 95.3224 62.3636H95.21C86.7793 64.2617 76.7267 62.0419 66.4493 55.9294L66.0479 55.7042L60.6201 58.8087L66.8508 62.9106C68.8099 88.9852 78.9588 110.379 95.3063 135.73L95.7078 135.955C98.6465 134.797 94.1983 137.467 96.7195 135.955L103.994 132.046C115.331 125.612 122.333 115.526 123.922 96.1916L124.485 89.4195L124.083 89.2587Z" fill="url(#paint5_linear_406_847)"/>
<path d="M124.084 89.2587C113.806 83.4036 103.754 73.9935 95.3229 62.3636H95.2105H95.0499L74.3506 74.3152L116.729 93.7787L124.485 89.4839L124.084 89.2587Z" fill="url(#paint6_linear_406_847)"/>
<path style="mix-blend-mode:screen" d="M119.314 91.929C109.037 86.0738 98.9845 76.6799 90.5538 65.0339H90.4414C82.0107 66.932 71.9582 64.6961 61.6808 58.5997L61.2793 58.3745L61.8413 65.79C63.8005 91.8486 73.9494 113.242 90.2969 138.577L90.6984 138.818C107.046 132.384 117.211 122.733 119.154 98.9262L119.716 92.1381L119.314 91.929Z" fill="url(#paint7_radial_406_847)"/>
<path d="M118.56 92.2184C108.282 86.3794 98.2296 76.9854 89.7989 65.3395H89.6865C81.2559 67.2376 71.2033 65.0017 60.9259 58.9053L60.5244 58.6801L61.0222 66.0794C62.9653 92.1541 73.1303 113.548 89.4778 138.883L89.8792 139.124C106.227 132.69 116.376 123.038 118.335 99.2157L118.881 92.4436L118.56 92.2184Z" fill="url(#paint8_linear_406_847)"/>
<path style="mix-blend-mode:color-dodge" d="M118.56 92.2185L118.046 91.929L117.5 98.6366C115.621 122.347 105.472 132.014 89.2529 138.432L89.542 138.883L89.9434 139.124C106.291 132.69 116.44 123.038 118.399 99.2157L118.945 92.4437L118.56 92.2185Z" fill="url(#paint9_radial_406_847)"/>
<path d="M90.9873 135.247C76.2938 112.213 66.177 91.4142 64.2339 65.8382L64.1055 64.2296C70.1238 67.3024 76.7514 68.9895 83.5041 69.1679C85.1166 69.1738 86.7272 69.0555 88.3216 68.814C95.7028 78.9587 104.973 87.5779 115.621 94.197L115.219 99.0227C113.437 120.851 104.653 129.408 90.9873 135.247Z" fill="url(#paint10_linear_406_847)"/>
<path style="mix-blend-mode:multiply" opacity="0.2" d="M66.3212 65.4521V65.2108C65.5986 64.8891 64.876 64.5674 64.1533 64.2135L64.2818 65.8221C66.1927 91.3981 76.3096 112.197 91.003 135.231L92.8016 134.427C78.2366 111.569 68.2161 90.8673 66.3212 65.4521Z" fill="url(#paint11_radial_406_847)"/>
<path d="M92.8985 117.988L86.0576 114.03V82.6315L92.8985 86.5885V117.988Z" fill="url(#paint12_linear_406_847)"/>
<path style="mix-blend-mode:multiply" opacity="0.7" d="M88.1452 112.679V83.8379L86.0576 82.6315V114.03L92.8985 117.988V115.446L88.1452 112.679Z" fill="url(#paint13_linear_406_847)"/>
<g opacity="0.2">
<path opacity="0.09" d="M88.6258 117.907C88.6258 117.907 85.4142 116.572 85.3018 116.556C84.274 116.009 80.9339 118.245 77.4973 121.028C73.4346 124.341 68.6813 128.556 67.8623 129.071L43.0199 143.162L39.8082 144.979L11.8505 161.033C10.3452 161.898 9.20425 163.281 8.63877 164.925C8.48297 165.448 8.39659 165.989 8.38184 166.534C8.42569 167.851 8.82912 169.13 9.54825 170.233C10.2674 171.337 11.2747 172.221 12.4607 172.791C12.4607 172.791 13.8899 173.547 15.6724 174.4C18.9804 176.008 23.8622 178.132 25.6125 178.115C26.7329 178.104 27.8483 177.964 28.9366 177.697C29.8664 177.45 30.7619 177.088 31.6023 176.619L56.2039 160.727L61.2783 157.51L80.9178 144.915C81.9242 144.394 82.7787 143.621 83.3979 142.671C84.0171 141.721 84.3798 140.626 84.4507 139.494C85.0185 136.926 85.7262 134.392 86.5704 131.902C88.2083 126.111 90.3602 118.905 88.6258 117.907Z" fill="black"/>
<path opacity="0.18" d="M85.7514 120.529C85.7514 120.529 82.7646 119.307 82.5397 119.274C81.4799 118.728 78.2682 120.706 75.0886 123.28C71.4434 126.239 66.674 130.325 65.8871 130.776L42.4418 144.175L39.5031 145.88L13.0388 161C11.5782 161.8 10.4423 163.086 9.82714 164.636C9.66798 165.092 9.57076 165.569 9.53809 166.051C9.5388 167.296 9.89435 168.514 10.5629 169.562C11.2315 170.611 12.1852 171.447 13.3118 171.971C13.3118 171.971 14.725 172.743 16.3469 173.579C19.4622 175.075 24.0228 177.038 25.7411 176.989C26.7927 176.978 27.8389 176.838 28.8564 176.571C29.7315 176.328 30.573 175.977 31.3615 175.526L54.6784 160.534L59.4959 157.462L77.9631 145.574C78.9082 145.08 79.7157 144.359 80.3128 143.474C80.91 142.589 81.2779 141.57 81.3835 140.507C81.3835 139.719 82.62 136.663 83.5354 133.542C85.1091 128.202 87.4857 121.526 85.7514 120.529Z" fill="black"/>
<path opacity="0.27" d="M82.8774 123.151C82.8774 123.151 80.1475 122.041 79.9066 121.977C78.8146 121.462 75.7475 123.183 72.8248 125.532C69.6132 128.138 64.7956 132.111 64.0891 132.497L41.9926 145.124L39.1664 146.732L14.2276 160.968C12.9097 161.753 11.8664 162.928 11.2407 164.33C11.0867 164.757 10.979 165.199 10.9196 165.649C10.8927 166.817 11.2065 167.967 11.8227 168.958C12.4388 169.95 13.3304 170.739 14.3882 171.231C14.3882 171.231 15.8013 172.003 17.2305 172.711C20.1371 174.11 24.3926 175.928 26.0787 175.815C27.0367 175.768 27.9856 175.606 28.905 175.333C29.7162 175.089 30.4973 174.754 31.2335 174.335L53.089 160.26L57.5693 157.381L74.9285 146.121C75.7992 145.667 76.5545 145.019 77.1363 144.227C77.7181 143.436 78.1109 142.521 78.2847 141.553C78.2847 140.845 79.6497 137.918 80.5008 135.119C81.9942 130.293 84.5957 124.148 82.8774 123.151Z" fill="black"/>
<path opacity="0.36" d="M79.9869 125.757C79.9869 125.757 77.5139 124.76 77.2088 124.679C76.0847 124.197 73.1461 125.644 70.4964 127.768C67.8468 129.891 62.8365 133.88 62.2424 134.202L41.4949 146.073L38.8452 147.585L15.416 160.952C14.1609 161.687 13.1457 162.771 12.4933 164.073C12.3294 164.465 12.2109 164.876 12.14 165.295C12.0795 166.393 12.3545 167.483 12.9284 168.42C13.5022 169.356 14.3476 170.096 15.3517 170.539C15.3517 170.539 16.7328 171.311 17.9853 171.939C20.6992 173.258 24.6335 174.85 26.2875 174.753C27.2058 174.713 28.1164 174.568 29.0014 174.319C29.759 174.083 30.4865 173.759 31.1693 173.354L51.5475 160.132L55.7387 157.413L71.9738 146.942C72.7879 146.498 73.4965 145.883 74.0509 145.138C74.6053 144.394 74.9924 143.539 75.1855 142.631C75.1855 142.019 76.695 139.188 77.4658 136.792C78.895 132.4 81.7213 126.754 79.9869 125.757Z" fill="black"/>
<path opacity="0.45" d="M77.0797 128.379C77.0797 128.379 74.8636 127.494 74.4782 127.398C73.322 126.931 70.5279 128.105 68.1352 130.02C65.7424 131.934 60.8607 135.65 60.3468 135.955L40.9803 147.022L38.5394 148.421L16.6036 160.856C15.4573 161.545 14.4978 162.506 13.8095 163.654C13.6429 164.012 13.5086 164.383 13.408 164.764C13.3228 165.767 13.5525 166.771 14.065 167.636C14.5775 168.501 15.3472 169.185 16.2664 169.59C16.2664 169.59 17.6314 170.394 18.7233 170.925C21.2285 172.148 24.8416 173.563 26.4635 173.435C27.3177 173.386 28.1635 173.241 28.9847 173C29.6751 172.756 30.3417 172.449 30.9759 172.083L49.9731 159.778L53.8753 157.252L69.0505 147.617C70.3191 146.893 72.1498 144.979 72.1498 143.692C72.1498 143.161 73.7556 140.475 74.5264 138.416C75.795 134.507 78.8301 129.376 77.0797 128.379Z" fill="black"/>
<path opacity="0.55" d="M74.2213 131.001C74.2213 131.001 72.2622 130.293 71.8125 130.1C70.6242 129.65 67.9746 130.567 65.8227 132.256C63.6709 133.945 58.9497 137.419 58.5161 137.676L40.4665 147.987L38.1701 149.306L17.7919 160.856C16.7299 161.505 15.8161 162.371 15.1102 163.397C14.9411 163.716 14.8013 164.05 14.6927 164.394C14.5463 165.33 14.7166 166.288 15.1763 167.116C15.6361 167.944 16.3589 168.594 17.2299 168.963C17.2299 168.963 18.5949 169.767 19.4941 170.217C21.7139 171.429 24.1556 172.179 26.6723 172.421C27.4675 172.365 28.254 172.219 29.0168 171.987C29.6479 171.738 30.2598 171.442 30.8474 171.102L48.3993 159.681L52.0125 157.349L65.9673 148.261C67.0271 147.698 69.0505 145.832 69.0505 144.77C69.0505 144.336 70.8651 141.746 71.4914 140.057C72.6957 136.583 75.9395 131.998 74.2213 131.001Z" fill="black"/>
<path opacity="0.64" d="M71.3473 133.623C71.3473 133.623 69.7415 132.947 69.1152 132.818C68.1125 132.691 67.0942 132.775 66.1261 133.066C65.158 133.357 64.2616 133.848 63.4947 134.507C61.8889 135.794 57.0714 139.204 56.6538 139.333L39.9531 148.84L37.8334 150.062L18.9808 160.856C18.3384 161.226 16.6041 162.464 16.4275 163.108C16.2256 163.381 16.0685 163.685 15.9618 164.008C15.48 165.504 16.2829 167.113 18.2099 168.223C18.2099 168.223 19.5428 169.043 20.2654 169.397C22.3088 170.518 24.5726 171.177 26.8976 171.327C27.623 171.251 28.3386 171.1 29.0333 170.877C29.5838 170.628 30.1199 170.349 30.6392 170.04L46.7779 159.504L50.0859 157.349L62.9327 148.968C63.7677 148.486 65.8232 146.652 65.8232 145.751C65.8232 145.397 67.7984 142.936 68.3283 141.601C69.5969 138.674 73.0656 134.62 71.3473 133.623Z" fill="black"/>
<path opacity="0.73" d="M68.4568 136.245C68.4568 136.245 67.0437 135.682 66.4014 135.521C65.492 135.345 64.5559 135.363 63.654 135.574C62.752 135.785 61.9044 136.183 61.1663 136.743C59.9298 137.708 55.048 140.974 54.7429 141.119L39.4071 149.853L37.448 150.963L20.1691 160.856C19.253 161.37 18.4326 162.039 17.7443 162.834C17.5358 163.067 17.3675 163.334 17.2465 163.622C16.6844 164.973 17.3749 166.469 19.1735 167.515C19.1735 167.515 20.5063 168.351 21.0363 168.609C22.9037 169.634 24.9931 170.186 27.1224 170.217C27.785 170.141 28.4369 169.99 29.0655 169.767C29.5616 169.502 30.044 169.212 30.5107 168.898L45.2203 159.247L48.2393 157.268L59.978 149.596C60.6043 149.242 62.7722 147.456 62.7561 146.813C62.7561 146.539 64.9079 144.223 65.3415 143.226C66.4977 140.749 70.1751 137.226 68.4568 136.245Z" fill="black"/>
<path opacity="0.82" d="M65.582 138.867C65.582 138.867 64.4097 138.416 63.7031 138.223C62.8903 138.013 62.0429 137.973 61.214 138.106C60.3851 138.239 59.5924 138.542 58.8856 138.995C58.0506 139.623 53.1527 142.743 52.9761 142.84L38.9892 150.882L37.2228 151.896L21.357 160.856C20.5274 161.301 19.7515 161.841 19.0446 162.464C18.8347 162.667 18.6561 162.9 18.5147 163.156C17.8884 164.346 18.5147 165.729 20.1205 166.695C20.1205 166.695 21.4213 167.547 21.7264 167.724C23.4222 168.652 25.3353 169.107 27.2665 169.043C27.8602 168.953 28.442 168.797 29.0009 168.577C29.1936 168.577 30.1731 167.917 30.3337 167.837L43.614 159.07L46.344 157.268L56.8944 150.303C57.3279 150.046 59.5761 148.309 59.5761 147.891C59.5761 147.714 62.0491 145.574 62.2418 144.866C63.8477 143.161 67.2842 139.848 65.582 138.867Z" fill="black"/>
<path opacity="0.91" d="M62.6276 141.553C62.6276 141.553 61.7284 141.231 61.0218 141.022C59.5432 140.523 57.9281 140.627 56.5254 141.312C56.0918 141.617 51.178 144.529 51.0816 144.657L38.4436 151.832L36.8378 152.732L22.4815 160.856C21.7225 161.289 20.9929 161.773 20.2976 162.303C20.0787 162.463 19.8886 162.659 19.7355 162.882C19.029 163.896 19.5107 165.183 21.0523 166.099C21.0523 166.099 22.337 166.968 22.5297 167.048C24.0529 167.871 25.785 168.224 27.5078 168.062C28.0588 167.967 28.5974 167.81 29.1137 167.595C29.194 167.595 30.1896 166.936 30.2699 166.888L42.121 159.006L44.5619 157.397L53.9882 151.124C54.9025 150.525 55.7623 149.847 56.5575 149.097C57.5093 148.324 58.4205 147.503 59.2875 146.636C60.7809 145.204 64.4101 142.47 62.6276 141.553Z" fill="black"/>
<path d="M29.1298 166.373L42.6992 157.268L56.2043 148.164C57.6817 147.312 61.4715 145.092 59.7693 144.094C59.7693 144.094 55.6101 142.631 54.1167 143.483L37.9298 152.7L21.6787 161.917C20.2013 162.77 20.3779 164.266 22.0962 165.247L23.3648 166.132C24.2378 166.627 25.2159 166.907 26.2182 166.949C27.2206 166.991 28.2186 166.793 29.1298 166.373Z" fill="black"/>
</g>
<path d="M89.7026 84.7709L40.6602 112.679V141.489L89.9435 112.985L91.3566 107.934L92.7056 86.5081L89.7026 84.7709Z" fill="url(#paint14_linear_406_847)"/>
<path d="M92.7051 86.4598L43.6787 114.368V143.178L92.7051 114.819V86.4598Z" fill="url(#paint15_linear_406_847)"/>
<path d="M92.7058 92.7976L50.7451 116.797V131.017L92.7058 107.017V92.7976Z" fill="url(#paint16_linear_406_847)"/>
<path d="M92.7058 105.505L50.7451 129.505V131.017L92.7058 107.017V105.505Z" fill="#7A52C3"/>
<path d="M45.6379 99.3766L40.8204 96.9155C40.1064 96.5331 39.2986 96.3618 38.4912 96.4216C37.6837 96.4814 36.9099 96.7698 36.2598 97.2533L15.6889 109.189C13.8775 110.364 12.3689 111.951 11.2861 113.821C10.2034 115.692 9.57705 117.791 9.45826 119.95V162.046C9.3416 162.9 9.49979 163.769 9.90985 164.527C10.3199 165.285 10.9605 165.892 11.7386 166.26L16.5561 168.85V166.421L16.8612 166.26L37.4963 154.325C39.3068 153.149 40.8148 151.561 41.8974 149.691C42.9801 147.821 43.6069 145.722 43.727 143.564V101.468C43.727 101.243 43.727 101.033 43.727 100.824L45.6379 99.3766ZM30.2539 140.684C30.1467 142.639 29.5804 144.54 28.6009 146.234C27.6215 147.928 26.2566 149.366 24.6174 150.432L23.4291 151.108C20.3138 152.909 17.7926 151.478 17.7926 147.891V142.277L21.7911 118.776C22.2746 118.295 22.8137 117.874 23.397 117.521L24.5853 116.829C27.7006 115.028 30.2218 116.476 30.2218 120.047L30.2539 140.684Z" fill="url(#paint17_linear_406_847)"/>
<path d="M41.1578 99.7305L20.5227 111.73C18.7121 112.906 17.2042 114.494 16.1215 116.364C15.0389 118.234 14.4121 120.333 14.292 122.492V164.587C14.292 168.544 17.0862 170.137 20.5227 168.142L41.1578 156.207C42.971 155.034 44.481 153.447 45.564 151.576C46.647 149.706 47.2722 147.605 47.3884 145.446V103.35C47.3884 99.3927 44.6103 97.8002 41.1578 99.7305ZM33.8191 142.566C33.7132 144.519 33.1473 146.419 32.1676 148.11C31.1879 149.802 29.8223 151.237 28.1825 152.298L26.9942 152.99C23.8789 154.791 21.3577 153.36 21.3577 149.773V129.135C21.4759 127.196 22.0477 125.312 23.0268 123.636C24.006 121.959 25.365 120.537 26.9942 119.484L28.1825 118.792C31.2979 116.99 33.8191 118.422 33.8191 122.009V142.566Z" fill="url(#paint18_linear_406_847)"/>
<g style="mix-blend-mode:color-dodge">
<path d="M27.6523 152.99L28.8406 152.298C30.4804 151.237 31.846 149.802 32.8257 148.11C33.8054 146.419 34.3713 144.519 34.4771 142.566V121.928C34.4771 119.58 33.3852 118.164 31.7793 117.971C32.3854 118.356 32.8711 118.905 33.1806 119.553C33.4902 120.202 33.6111 120.925 33.5297 121.639V142.293C33.4193 144.243 32.8531 146.139 31.8769 147.829C30.9006 149.52 29.5416 150.957 27.9092 152.025L26.7209 152.716C25.8432 153.266 24.815 153.525 23.7822 153.456C24.4143 153.711 25.1005 153.802 25.777 153.72C26.4536 153.639 27.0986 153.388 27.6523 152.99Z" fill="url(#paint19_radial_406_847)"/>
<path d="M14.9499 164.587V122.491C15.07 120.333 15.6968 118.234 16.7795 116.364C17.8622 114.494 19.3701 112.906 21.1806 111.73L41.7515 99.7304C42.7275 99.0985 43.8856 98.8099 45.0435 98.91C44.3495 98.6478 43.6021 98.5591 42.8662 98.6516C42.1302 98.7441 41.4279 99.015 40.8201 99.4409L20.2492 111.441C18.4314 112.621 16.9189 114.216 15.8358 116.095C14.7527 117.974 14.1299 120.083 14.0186 122.25V164.362C14.0186 166.92 15.1908 168.48 16.9573 168.721C16.2576 168.302 15.6951 167.688 15.3385 166.954C14.982 166.22 14.847 165.397 14.9499 164.587Z" fill="url(#paint20_radial_406_847)"/>
</g>
<path style="mix-blend-mode:color-dodge" d="M14.9986 130.18C23.2821 130.18 29.9972 123.454 29.9972 115.156C29.9972 106.859 23.2821 100.133 14.9986 100.133C6.71509 100.133 0 106.859 0 115.156C0 123.454 6.71509 130.18 14.9986 130.18Z" fill="url(#paint21_radial_406_847)"/>
<path d="M92.6577 95.1943C91.8575 95.8809 91.2034 96.7218 90.7344 97.667C90.2654 98.6121 89.991 99.6421 89.9277 100.696C89.9277 102.61 91.0839 103.527 92.6416 103.06L92.6577 95.1943Z" fill="url(#paint22_linear_406_847)"/>
<path d="M66.2248 110.09C65.2029 110.755 64.3519 111.652 63.7409 112.709C63.1299 113.765 62.776 114.951 62.708 116.17C62.708 118.406 64.3139 119.387 66.2248 118.181C67.2467 117.515 68.0977 116.618 68.7087 115.561C69.3197 114.505 69.6736 113.319 69.7416 112.1C69.7416 109.864 68.1679 108.964 66.2248 110.09Z" fill="url(#paint23_linear_406_847)"/>
<path d="M57.1359 115.253C56.114 115.918 55.2631 116.816 54.652 117.872C54.041 118.928 53.6872 120.114 53.6191 121.333C53.6191 123.569 55.225 124.47 57.1359 123.344C58.1599 122.679 59.0134 121.783 59.6271 120.726C60.2409 119.67 60.5977 118.484 60.6688 117.264C60.6688 115.028 59.079 114.207 57.1359 115.253Z" fill="url(#paint24_linear_406_847)"/>
<path d="M84.3873 99.7304C83.3616 100.393 82.5068 101.289 81.8928 102.346C81.2788 103.403 80.923 104.59 80.8545 105.811C80.8545 108.047 82.4603 109.028 84.3873 107.821C85.4096 107.153 86.2605 106.252 86.8714 105.193C87.4823 104.134 87.8361 102.946 87.9042 101.725C87.9042 99.5535 86.3304 98.6527 84.3873 99.7304Z" fill="url(#paint25_linear_406_847)"/>
<path d="M75.298 104.926C74.2791 105.591 73.4301 106.486 72.8194 107.539C72.2086 108.592 71.853 109.774 71.7812 110.99C71.7812 113.226 73.3871 114.127 75.298 113.001C76.3217 112.338 77.1741 111.441 77.7853 110.384C78.3966 109.327 78.7494 108.14 78.8148 106.921C78.8148 104.701 77.2411 103.8 75.298 104.926Z" fill="url(#paint26_linear_406_847)"/>
</g>
<defs>
<linearGradient id="paint0_linear_406_847" x1="100.783" y1="88.7118" x2="113.318" y2="-79.7491" gradientUnits="userSpaceOnUse">
<stop offset="0.03" stop-color="#7C1DC9"/>
<stop offset="0.21" stop-color="#6E41D2"/>
<stop offset="0.62" stop-color="#4C9BE8"/>
<stop offset="1" stop-color="#2AF6FF"/>
</linearGradient>
<radialGradient id="paint1_radial_406_847" cx="0" cy="0" r="1" gradientUnits="userSpaceOnUse" gradientTransform="translate(68.5056 17.9997) scale(25.4847 25.5278)">
<stop stop-color="white"/>
<stop offset="1"/>
</radialGradient>
<radialGradient id="paint2_radial_406_847" cx="0" cy="0" r="1" gradientUnits="userSpaceOnUse" gradientTransform="translate(120.31 73.6074) scale(45.9432 46.0208)">
<stop stop-color="white"/>
<stop offset="1"/>
</radialGradient>
<linearGradient id="paint3_linear_406_847" x1="32.7912" y1="335.384" x2="124.325" y2="-22.3653" gradientUnits="userSpaceOnUse">
<stop offset="0.03" stop-color="#7C1DC9"/>
<stop offset="0.21" stop-color="#6E41D2"/>
<stop offset="0.62" stop-color="#4C9BE8"/>
<stop offset="1" stop-color="#2AF6FF"/>
</linearGradient>
<radialGradient id="paint4_radial_406_847" cx="0" cy="0" r="1" gradientUnits="userSpaceOnUse" gradientTransform="translate(75.2335 99.4409) scale(73.9973 74.1223)">
<stop stop-color="white"/>
<stop offset="1"/>
</radialGradient>
<linearGradient id="paint5_linear_406_847" x1="113.211" y1="123.617" x2="81.0046" y2="52.7693" gradientUnits="userSpaceOnUse">
<stop offset="0.03" stop-color="#7C1DC9"/>
<stop offset="0.21" stop-color="#6E41D2"/>
<stop offset="0.62" stop-color="#4C9BE8"/>
<stop offset="1" stop-color="#2AF6FF"/>
</linearGradient>
<linearGradient id="paint6_linear_406_847" x1="94.1185" y1="112.888" x2="102.271" y2="65.3441" gradientUnits="userSpaceOnUse">
<stop offset="0.03" stop-color="#7C1DC9"/>
<stop offset="0.21" stop-color="#6E41D2"/>
<stop offset="0.62" stop-color="#4C9BE8"/>
<stop offset="1" stop-color="#2AF6FF"/>
</linearGradient>
<radialGradient id="paint7_radial_406_847" cx="0" cy="0" r="1" gradientUnits="userSpaceOnUse" gradientTransform="translate(112.04 86.8942) scale(47.2279 47.3076)">
<stop offset="0.36" stop-color="white"/>
<stop offset="0.43" stop-color="#E1E1E1"/>
<stop offset="0.64" stop-color="#828282"/>
<stop offset="0.81" stop-color="#3C3C3C"/>
<stop offset="0.94" stop-color="#111111"/>
<stop offset="1"/>
</radialGradient>
<linearGradient id="paint8_linear_406_847" x1="63.7682" y1="146.861" x2="124.13" y2="-2.59962" gradientUnits="userSpaceOnUse">
<stop offset="0.03" stop-color="#7C1DC9"/>
<stop offset="0.21" stop-color="#6E41D2"/>
<stop offset="0.62" stop-color="#4C9BE8"/>
<stop offset="1" stop-color="#2AF6FF"/>
</linearGradient>
<radialGradient id="paint9_radial_406_847" cx="0" cy="0" r="1" gradientUnits="userSpaceOnUse" gradientTransform="translate(114.079 138.931) scale(19.6716 19.7048)">
<stop stop-color="#FF63CE"/>
<stop offset="1"/>
</radialGradient>
<linearGradient id="paint10_linear_406_847" x1="52.2704" y1="175.123" x2="109.957" y2="37.6774" gradientUnits="userSpaceOnUse">
<stop offset="0.03" stop-color="#7C1DC9"/>
<stop offset="0.21" stop-color="#6E41D2"/>
<stop offset="0.62" stop-color="#4C9BE8"/>
<stop offset="1" stop-color="#2AF6FF"/>
</linearGradient>
<radialGradient id="paint11_radial_406_847" cx="0" cy="0" r="1" gradientUnits="userSpaceOnUse" gradientTransform="translate(74.2541 120.96) scale(27.0424 44.9662)">
<stop offset="0.14" stop-color="#25166D"/>
<stop offset="0.22" stop-color="#2C1D72"/>
<stop offset="0.34" stop-color="#3E317E"/>
<stop offset="0.48" stop-color="#5D5293"/>
<stop offset="0.64" stop-color="#887FAF"/>
<stop offset="0.82" stop-color="#BEBAD4"/>
<stop offset="1" stop-color="white"/>
</radialGradient>
<linearGradient id="paint12_linear_406_847" x1="105.633" y1="111.248" x2="78.9316" y2="93.2254" gradientUnits="userSpaceOnUse">
<stop stop-color="#9F79C8"/>
<stop offset="0.14" stop-color="#A27DCA"/>
<stop offset="0.27" stop-color="#AC88CF"/>
<stop offset="0.4" stop-color="#BC9BD7"/>
<stop offset="0.52" stop-color="#D1B4E3"/>
<stop offset="0.65" stop-color="#DBC4E9"/>
<stop offset="0.9" stop-color="#F4EDF8"/>
<stop offset="1" stop-color="white"/>
</linearGradient>
<linearGradient id="paint13_linear_406_847" x1="88.4021" y1="100.599" x2="141.311" y2="86.2477" gradientUnits="userSpaceOnUse">
<stop offset="0.03" stop-color="#7C1DC9"/>
<stop offset="0.21" stop-color="#6E41D2"/>
<stop offset="0.62" stop-color="#4C9BE8"/>
<stop offset="1" stop-color="#2AF6FF"/>
</linearGradient>
<linearGradient id="paint14_linear_406_847" x1="11.225" y1="131.805" x2="115.915" y2="95.7055" gradientUnits="userSpaceOnUse">
<stop stop-color="#9F79C8"/>
<stop offset="0.14" stop-color="#A27DCA"/>
<stop offset="0.27" stop-color="#AC88CF"/>
<stop offset="0.4" stop-color="#BC9BD7"/>
<stop offset="0.52" stop-color="#D1B4E3"/>
<stop offset="0.65" stop-color="#DBC4E9"/>
<stop offset="0.9" stop-color="#F4EDF8"/>
<stop offset="1" stop-color="white"/>
</linearGradient>
<linearGradient id="paint15_linear_406_847" x1="54.1328" y1="124.872" x2="190.581" y2="25.4414" gradientUnits="userSpaceOnUse">
<stop stop-color="#9F79C8"/>
<stop offset="0.14" stop-color="#A27DCA"/>
<stop offset="0.27" stop-color="#AC88CF"/>
<stop offset="0.4" stop-color="#BC9BD7"/>
<stop offset="0.52" stop-color="#D1B4E3"/>
<stop offset="0.65" stop-color="#DBC4E9"/>
<stop offset="0.9" stop-color="#F4EDF8"/>
<stop offset="1" stop-color="white"/>
</linearGradient>
<linearGradient id="paint16_linear_406_847" x1="45.9276" y1="83.4358" x2="85.4723" y2="126.945" gradientUnits="userSpaceOnUse">
<stop stop-color="#9F79C8"/>
<stop offset="0.14" stop-color="#A27DCA"/>
<stop offset="0.27" stop-color="#AC88CF"/>
<stop offset="0.4" stop-color="#BC9BD7"/>
<stop offset="0.52" stop-color="#D1B4E3"/>
<stop offset="0.65" stop-color="#DBC4E9"/>
<stop offset="0.9" stop-color="#F4EDF8"/>
<stop offset="1" stop-color="white"/>
</linearGradient>
<linearGradient id="paint17_linear_406_847" x1="47.6131" y1="185.161" x2="9.34509" y2="82.8186" gradientUnits="userSpaceOnUse">
<stop stop-color="#9F79C8"/>
<stop offset="0.14" stop-color="#A27DCA"/>
<stop offset="0.27" stop-color="#AC88CF"/>
<stop offset="0.4" stop-color="#BC9BD7"/>
<stop offset="0.52" stop-color="#D1B4E3"/>
<stop offset="0.65" stop-color="#DBC4E9"/>
<stop offset="0.9" stop-color="#F4EDF8"/>
<stop offset="1" stop-color="white"/>
</linearGradient>
<linearGradient id="paint18_linear_406_847" x1="42.3461" y1="128.475" x2="125.34" y2="88.9815" gradientUnits="userSpaceOnUse">
<stop stop-color="#9F79C8"/>
<stop offset="0.14" stop-color="#A27DCA"/>
<stop offset="0.27" stop-color="#AC88CF"/>
<stop offset="0.4" stop-color="#BC9BD7"/>
<stop offset="0.52" stop-color="#D1B4E3"/>
<stop offset="0.65" stop-color="#DBC4E9"/>
<stop offset="0.9" stop-color="#F4EDF8"/>
<stop offset="1" stop-color="white"/>
</linearGradient>
<radialGradient id="paint19_radial_406_847" cx="0" cy="0" r="1" gradientUnits="userSpaceOnUse" gradientTransform="translate(40.4027 148.1) scale(13.184 13.2062)">
<stop stop-color="white"/>
<stop offset="1"/>
</radialGradient>
<radialGradient id="paint20_radial_406_847" cx="0" cy="0" r="1" gradientUnits="userSpaceOnUse" gradientTransform="translate(25.2434 116.733) scale(27.0424 27.0881)">
<stop stop-color="white"/>
<stop offset="1"/>
</radialGradient>
<radialGradient id="paint21_radial_406_847" cx="0" cy="0" r="1" gradientUnits="userSpaceOnUse" gradientTransform="translate(14.9986 115.156) scale(14.9986 15.0239)">
<stop stop-color="#A56EF4"/>
<stop offset="0.12" stop-color="#8055BD"/>
<stop offset="0.24" stop-color="#5E3F8B"/>
<stop offset="0.36" stop-color="#412B60"/>
<stop offset="0.48" stop-color="#2A1C3E"/>
<stop offset="0.61" stop-color="#171023"/>
<stop offset="0.74" stop-color="#0A070F"/>
<stop offset="0.86" stop-color="#030204"/>
<stop offset="1"/>
</radialGradient>
<linearGradient id="paint22_linear_406_847" x1="39.8414" y1="125.258" x2="115.961" y2="87.72" gradientUnits="userSpaceOnUse">
<stop offset="0.1" stop-color="#45108A"/>
<stop offset="1" stop-color="#7C1DC9"/>
</linearGradient>
<linearGradient id="paint23_linear_406_847" x1="40.6116" y1="126.818" x2="116.715" y2="89.2642" gradientUnits="userSpaceOnUse">
<stop offset="0.1" stop-color="#45108A"/>
<stop offset="1" stop-color="#7C1DC9"/>
</linearGradient>
<linearGradient id="paint24_linear_406_847" x1="40.8687" y1="127.349" x2="116.988" y2="89.795" gradientUnits="userSpaceOnUse">
<stop offset="0.1" stop-color="#45108A"/>
<stop offset="1" stop-color="#7C1DC9"/>
</linearGradient>
<linearGradient id="paint25_linear_406_847" x1="40.0821" y1="125.741" x2="116.185" y2="88.2025" gradientUnits="userSpaceOnUse">
<stop offset="0.1" stop-color="#45108A"/>
<stop offset="1" stop-color="#7C1DC9"/>
</linearGradient>
<linearGradient id="paint26_linear_406_847" x1="40.3388" y1="126.288" x2="116.458" y2="88.7334" gradientUnits="userSpaceOnUse">
<stop offset="0.1" stop-color="#45108A"/>
<stop offset="1" stop-color="#7C1DC9"/>
</linearGradient>
<clipPath id="clip0_406_847">
<rect width="182.087" height="185" fill="white"/>
</clipPath>
</defs>
</svg>
