<svg width="145" height="185" viewBox="0 0 145 185" fill="none" xmlns="http://www.w3.org/2000/svg">
<g clip-path="url(#clip0_406_931)">
<g opacity="0.2">
<path opacity="0.09" d="M9.22175 104.8C9.22175 104.8 12.5082 103.46 12.6518 103.428C14.7577 102.264 16.4169 100.142 18.0601 101.083L78.4452 134.267L82.1146 136.293L138.798 167.515C139.83 168.041 140.714 168.818 141.369 169.774C142.024 170.73 142.429 171.834 142.547 172.987C142.588 173.438 142.588 173.892 142.547 174.343C142.313 175.409 141.846 176.41 141.182 177.275C140.518 178.141 139.671 178.85 138.703 179.352C138.703 179.352 137.729 179.863 136.501 180.469C133.592 181.882 130.591 183.097 127.519 184.107C126.775 184.347 126.003 184.486 125.222 184.521C123.09 184.499 120.997 183.951 119.127 182.926L62.2202 149.966L5.45666 117.069C4.44049 116.548 3.57002 115.782 2.92383 114.841C2.27764 113.9 1.87607 112.812 1.75538 111.676C1.74792 111.318 1.82441 110.963 1.97873 110.639C3.07954 108.486 6.87654 106.141 9.22175 104.8Z" fill="black"/>
<path opacity="0.18" d="M9.70034 106.141C9.70034 106.141 12.7635 104.896 13.0825 104.832C15.1246 103.747 16.7838 101.817 18.3632 102.726L77.6475 135.288L81.269 137.203L136.948 167.786C138.83 168.871 140.824 171.088 140.824 172.987C140.848 173.412 140.848 173.838 140.824 174.263C140.667 175.303 140.267 176.29 139.658 177.147C139.048 178.003 138.245 178.704 137.315 179.193C137.315 179.193 136.278 179.767 135.177 180.31C132.336 181.648 129.391 182.753 126.37 183.612C125.646 183.801 124.901 183.897 124.153 183.899C122.085 183.816 120.063 183.271 118.234 182.304L62.8264 150.157L7.29132 118.058C5.42472 116.973 3.49432 114.772 3.49432 112.873C3.4725 112.537 3.52141 112.2 3.6379 111.884C5.13819 109.486 7.22458 107.509 9.70034 106.141Z" fill="black"/>
<path opacity="0.27" d="M10.1789 107.497C10.1789 107.497 13.0825 106.316 13.5132 106.236C15.4915 105.247 17.1666 103.508 18.6503 104.37L76.8657 136.277L80.4074 138.224L135.065 168.217C136.66 169.174 139.069 171.407 139.069 173.146C139.069 173.497 139.245 173.992 139.213 174.343C139.131 175.346 138.794 176.311 138.236 177.148C137.678 177.986 136.916 178.667 136.022 179.129C136.022 179.129 134.937 179.751 133.948 180.246C131.171 181.504 128.281 182.498 125.317 183.213C124.613 183.349 123.896 183.403 123.18 183.373C121.168 183.187 119.217 182.584 117.452 181.602L63.3528 150.348L9.10999 118.951C7.43484 117.978 5.21727 115.761 5.21727 114.038C5.16195 113.732 5.16195 113.418 5.21727 113.112C6.25485 110.775 7.9873 108.814 10.1789 107.497Z" fill="black"/>
<path opacity="0.36" d="M10.6727 108.837C10.6727 108.837 13.3689 107.752 13.9432 107.64C15.8736 106.731 17.5328 105.183 18.9527 106.045L76.0672 137.362L79.5451 139.261L133.182 168.632C134.634 169.477 137.314 171.822 137.314 173.29C137.314 173.609 137.633 174.12 137.569 174.407C137.936 176.002 136.915 177.885 134.729 179.193C134.729 179.193 133.565 179.879 132.703 180.31C129.999 181.504 127.167 182.387 124.264 182.942C123.574 183.012 122.879 183.012 122.19 182.942C120.243 182.675 118.364 182.042 116.654 181.075L63.8147 150.524L10.9758 119.893C9.52401 119.047 7.00331 116.702 7.00331 115.25C7.00331 115.027 6.79591 114.628 7.00331 114.389C7.15671 113.246 7.56646 112.154 8.2019 111.192C8.83734 110.231 9.682 109.426 10.6727 108.837Z" fill="black"/>
<path opacity="0.45" d="M11.1675 110.193C11.1675 110.193 13.6882 109.188 14.3582 109.044C16.2248 108.214 17.9 106.874 19.2401 107.656L75.2857 138.335L78.6998 140.218L131.347 169.03C132.608 169.748 135.607 172.221 135.607 173.418C135.607 173.673 136.054 174.199 135.99 174.455C136.564 176.05 135.655 177.853 133.469 179.113C133.469 179.113 132.257 179.847 131.523 180.214C128.882 181.345 126.103 182.123 123.259 182.527C122.592 182.546 121.925 182.509 121.265 182.415C119.383 182.075 117.571 181.423 115.904 180.485L64.4212 150.699L12.7629 120.818C11.5663 120.1 8.74252 117.739 8.74252 116.463C8.74252 116.255 8.47131 115.856 8.58298 115.649C8.44949 114.588 8.6218 113.511 9.07965 112.544C9.5375 111.577 10.2618 110.762 11.1675 110.193Z" fill="black"/>
<path opacity="0.55" d="M11.6307 111.533C12.675 111.117 13.74 110.755 14.8214 110.448C16.6242 109.714 18.2994 108.565 19.6076 109.299L74.4886 139.356L77.8389 141.191L129.401 169.413C130.438 170.019 133.789 172.476 133.789 173.529C133.789 173.753 134.331 174.279 134.267 174.486C135.065 175.97 134.267 177.805 132.098 179.065C132.098 179.065 130.821 179.863 130.199 180.166C127.698 181.442 124.934 182.119 122.127 182.144C121.475 182.149 120.826 182.068 120.196 181.905C118.391 181.478 116.656 180.796 115.043 179.879L64.9482 150.875L14.6619 121.759C13.6249 121.153 10.498 118.744 10.498 117.691C10.498 117.531 10.131 117.117 10.2268 116.941C9.81196 115.362 9.39716 112.825 11.6307 111.533Z" fill="black"/>
<path opacity="0.64" d="M12.1245 112.873C13.1681 112.473 14.2334 112.132 15.3153 111.852C17.0543 111.198 18.7294 110.257 19.9259 110.943L73.6902 140.393L76.9767 142.196L127.518 169.828C128.348 170.307 132.033 172.811 132.033 173.673C132.033 173.848 132.671 174.375 132.623 174.534C133.629 175.938 132.943 177.725 130.773 179.033C130.773 179.033 129.433 179.879 128.954 180.134C126.49 181.383 123.732 181.935 120.977 181.73C120.354 181.678 119.738 181.555 119.142 181.363C117.407 180.858 115.736 180.151 114.165 179.257L65.4899 151.066L16.5118 122.701C15.6663 122.222 12.2522 119.749 12.2522 118.904C12.2522 118.776 11.8055 118.361 11.8852 118.218C11.1673 116.734 9.90697 114.165 12.1245 112.873Z" fill="black"/>
<path opacity="0.73" d="M12.6037 114.229C13.6103 113.85 14.6384 113.53 15.6828 113.272C17.3579 112.697 19.049 111.948 20.1658 112.602L72.909 141.398L76.0997 143.153L125.556 170.275C126.179 170.642 130.215 173.21 130.215 173.848C130.215 173.976 130.949 174.518 130.917 174.646C132.113 175.954 131.555 177.837 129.401 179.049C129.401 179.049 127.997 179.959 127.63 180.15C125.255 181.376 122.556 181.834 119.909 181.458C119.304 181.342 118.711 181.171 118.138 180.948C116.478 180.369 114.876 179.637 113.352 178.762L66.0169 151.242L18.347 123.642C17.7248 123.275 14.0076 120.754 14.0076 120.116C14.0076 120.02 13.4811 119.605 13.529 119.494C12.5399 118.058 10.418 115.489 12.6037 114.229Z" fill="black"/>
<path opacity="0.82" d="M13.0819 115.569C14.0746 115.21 15.0866 114.906 16.1132 114.66C17.7085 114.181 19.4156 113.623 20.4685 114.229L72.1109 142.403L75.3017 144.126L123.769 170.594C125.468 171.53 127.071 172.631 128.555 173.88C128.555 173.976 129.385 174.518 129.353 174.598C130.773 175.827 130.326 177.677 128.172 178.922C128.172 178.922 126.721 179.895 126.465 180.022C124.154 181.242 121.481 181.587 118.935 180.996C118.358 180.82 117.793 180.607 117.244 180.358C115.66 179.697 114.12 178.935 112.634 178.076L66.5431 151.417L20.2771 124.583C18.6861 123.678 17.1942 122.608 15.826 121.392C15.826 121.392 15.2197 120.898 15.2676 120.818C13.9115 119.51 10.9122 116.83 13.0819 115.569Z" fill="black"/>
<path opacity="0.91" d="M13.577 116.925C14.5486 116.581 15.5394 116.293 16.5444 116.064C17.8822 115.535 19.3569 115.462 20.7402 115.856L71.3137 143.424L74.4087 145.179L121.855 171.04C122.063 171.168 126.769 173.848 126.769 174.072C126.769 174.295 127.694 174.662 127.678 174.71C129.274 175.843 128.971 177.709 126.833 178.938L125.237 180.038C124.114 180.634 122.882 180.996 121.616 181.102C120.349 181.209 119.074 181.059 117.867 180.661L116.271 179.911C116.271 179.911 112.012 177.629 111.868 177.55L67.086 151.561L22.0325 125.508C20.4868 124.605 18.9903 123.62 17.5495 122.557C17.5495 122.557 16.8635 122.094 16.8794 122.046C15.2681 120.882 11.4232 118.17 13.577 116.925Z" fill="black"/>
<path d="M116.75 180.278L67.6122 151.768L18.4745 123.323C16.6399 122.27 11.9335 119.494 14.0553 118.265C14.0553 118.265 19.2403 116.447 21.075 117.5L73.547 146.089L126.035 174.678C127.87 175.747 127.63 177.598 125.508 178.826L123.913 179.927C122.829 180.54 121.617 180.892 120.373 180.953C119.129 181.014 117.888 180.783 116.75 180.278Z" fill="black"/>
</g>
<path d="M123.69 91.9097L68.9205 5.83908C66.2881 1.723 62.4114 -0.542433 59.779 0.558378L4.88204 23.3244C4.53481 23.5229 4.25409 23.8197 4.07523 24.1774C3.89638 24.5351 3.82738 24.9377 3.87695 25.3346V110.464C3.93541 111.525 4.24322 112.558 4.77542 113.478C5.30761 114.399 6.04922 115.181 6.94008 115.761L121.584 181.953C123.275 182.926 124.647 182.144 124.647 180.198V95.1005C124.616 93.9709 124.286 92.8698 123.69 91.9097Z" fill="url(#paint0_linear_406_931)"/>
<path opacity="0.15" d="M110.336 155.533L20.708 103.779V0L110.336 51.7541V155.533Z" fill="black"/>
<path style="mix-blend-mode:color-dodge" d="M123.514 181.873V96.7756C123.464 95.6401 123.111 94.5385 122.493 93.5849L67.6439 7.43448C65.0274 3.3184 61.1347 1.05297 58.5183 2.16973L3.98828 24.872C4.00637 24.5589 4.10371 24.2556 4.27114 23.9905C4.43858 23.7254 4.67063 23.5072 4.94551 23.3563L59.7786 0.558398C62.411 -0.526459 66.2878 1.72302 68.9202 5.8391L123.753 91.9895C124.372 92.9432 124.724 94.0447 124.774 95.1802V180.278C124.837 180.716 124.75 181.162 124.527 181.545C124.304 181.927 123.958 182.223 123.546 182.384C123.547 182.213 123.537 182.042 123.514 181.873Z" fill="url(#paint1_radial_406_931)"/>
<path d="M109.139 156.73L19.4951 104.976V1.19653L109.139 52.9506V156.73Z" fill="url(#paint2_linear_406_931)"/>
<path d="M109.139 60.4967L19.4951 8.74267V1.19653L109.139 52.9506V60.4967Z" fill="url(#paint3_linear_406_931)"/>
<path opacity="0.2" d="M68.9521 115.936C66.2718 117.053 62.3153 114.755 59.651 110.576L3.94043 26.6108V106.89C3.99883 107.95 4.30673 108.98 4.83905 109.898C5.37137 110.815 6.11303 111.594 7.00355 112.171L121.647 178.363C123.339 179.352 124.711 178.555 124.711 176.624V96.3448L68.9521 115.936Z" fill="black"/>
<path d="M68.9521 119.462C66.2718 120.563 62.3153 118.281 59.651 114.085L3.94043 26.6108V110.464C3.99889 111.525 4.3067 112.558 4.8389 113.478C5.37109 114.399 6.1127 115.18 7.00355 115.761L121.647 181.953C123.339 182.926 124.711 182.144 124.711 180.198V96.3448L68.9521 119.462Z" fill="url(#paint4_linear_406_931)"/>
<path style="mix-blend-mode:color-dodge" d="M123.514 98.4986L67.6758 121.616C65.0115 122.716 61.055 120.435 58.3907 116.239L3.94043 30.6471V26.6108L59.651 114.085C62.3153 118.281 66.2718 120.563 68.9521 119.462L124.79 96.3448V180.278C124.849 180.709 124.763 181.148 124.547 181.526C124.33 181.904 123.995 182.199 123.594 182.368L123.514 98.4986Z" fill="url(#paint5_radial_406_931)"/>
<path d="M63.1287 52.105C53.6841 46.6488 46.0422 51.0201 46.0422 61.8528C45.9532 64.1135 46.363 66.366 47.2426 68.4505C48.1221 70.535 49.4499 72.4002 51.1315 73.9138C53.7197 76.4433 55.4684 79.7068 56.1409 83.2627C57.2737 89.5166 59.9858 95.0047 63.1287 96.8234C66.2716 98.6422 68.9837 96.2651 70.1165 91.3194C70.1706 90.7365 70.3499 90.1721 70.6421 89.6648C70.9343 89.1576 71.3325 88.7193 71.8096 88.3801C72.2867 88.0408 72.8314 87.8085 73.4065 87.699C73.9816 87.5896 74.5735 87.6055 75.1419 87.7457C78.3327 88.4158 80.2312 87.0438 80.2312 81.5716C80.2312 70.7709 72.5733 57.5612 63.1287 52.105ZM59.4115 67.4206C58.5181 71.1219 55.6464 72.2068 54.051 70.8188C51.3708 68.4736 51.7696 66.1922 53.4448 63.9746C55.1199 61.757 55.8378 59.0289 57.4332 60.0021C59.0286 60.9753 60.1294 64.4692 59.4115 67.4206ZM66.2556 84.6507C65.5696 87.5383 64.8677 89.9633 63.1606 88.9742C61.4536 87.985 60.8952 84.7943 60.0815 81.093C59.1881 76.9769 61.4695 76.3069 63.1606 77.2322C64.3052 78.0678 65.1989 79.2012 65.7445 80.5091C66.2902 81.817 66.467 83.2494 66.2556 84.6507ZM72.2224 81.3642C70.627 80.9175 67.7393 76.5781 66.8459 71.792C66.144 68.0109 67.1969 65.7136 68.8402 66.6708C70.4834 67.628 70.9939 70.739 72.8126 75.238C74.5037 79.3221 74.9824 82.0662 72.2224 81.3642Z" fill="url(#paint6_linear_406_931)"/>
<path opacity="0.2" d="M6.7002 115.665L59.3477 91.1918C61.8524 90.1388 65.5856 92.2926 68.1063 96.2491L120.754 181.57L6.7002 115.665Z" fill="black"/>
<path d="M6.7002 115.665L59.3477 93.7764C61.8524 92.7394 65.5856 94.8931 68.1063 98.8337L120.754 181.57L6.7002 115.665Z" fill="url(#paint7_linear_406_931)"/>
<path style="mix-blend-mode:color-dodge" d="M67.3565 100.062C64.8358 96.1216 61.1026 93.9678 58.5978 95.0048L7.54575 116.191L6.7002 115.665L59.3477 93.7764C61.8524 92.7394 65.5856 94.8931 68.1063 98.8337L120.754 181.57L118.409 180.214L67.3565 100.062Z" fill="url(#paint8_radial_406_931)"/>
<path d="M36.2789 30.1686L25.5898 24.0902V26.2121L36.2789 32.2905V30.1686Z" fill="url(#paint9_linear_406_931)"/>
<path d="M39.8685 27.6L25.5898 19.4476V21.5695L39.8685 29.7219V27.6Z" fill="url(#paint10_linear_406_931)"/>
<path d="M57.2736 44.0484L42.1973 35.5131V33.4072L57.2736 41.9265V44.0484Z" fill="url(#paint11_linear_406_931)"/>
<path d="M58.9014 44.9577V42.8518L70.2924 49.2971V51.403L58.9014 44.9577Z" fill="url(#paint12_linear_406_931)"/>
<path d="M53.1104 34.9707L63.6877 40.9853V43.1071L53.1104 37.0766V34.9707Z" fill="url(#paint13_linear_406_931)"/>
<path d="M68.9679 46.1064L65.3145 44.0164V41.9105L68.9679 43.9845V46.1064Z" fill="url(#paint14_linear_406_931)"/>
<path d="M79.9127 52.3284L70.5957 47.0318V44.9099L79.9127 50.2225V52.3284Z" fill="url(#paint15_linear_406_931)"/>
<path d="M90.6016 58.4068V56.3009L95.5791 59.1247V61.2466L90.6016 58.4068Z" fill="url(#paint16_linear_406_931)"/>
<path d="M88.9745 57.4815L81.54 53.2537V51.1478L88.9745 55.3756V57.4815Z" fill="url(#paint17_linear_406_931)"/>
<path d="M51.4824 36.1512L42.1973 30.8865V28.7646L51.4824 34.0453V36.1512Z" fill="url(#paint18_linear_406_931)"/>
</g>
<defs>
<linearGradient id="paint0_linear_406_931" x1="47.611" y1="76.9969" x2="107.153" y2="-26.6053" gradientUnits="userSpaceOnUse">
<stop offset="0.03" stop-color="#7C1DC9"/>
<stop offset="0.21" stop-color="#6E41D2"/>
<stop offset="0.62" stop-color="#4C9BE8"/>
<stop offset="1" stop-color="#2AF6FF"/>
</linearGradient>
<radialGradient id="paint1_radial_406_931" cx="0" cy="0" r="1" gradientUnits="userSpaceOnUse" gradientTransform="translate(76.0994 42.6285) rotate(180) scale(48.9143 48.9143)">
<stop stop-color="white"/>
<stop offset="0.07" stop-color="#D8D8D8"/>
<stop offset="0.16" stop-color="#A6A6A6"/>
<stop offset="0.26" stop-color="#797979"/>
<stop offset="0.37" stop-color="#545454"/>
<stop offset="0.47" stop-color="#353535"/>
<stop offset="0.59" stop-color="#1E1E1E"/>
<stop offset="0.7" stop-color="#0D0D0D"/>
<stop offset="0.84" stop-color="#030303"/>
<stop offset="1"/>
</radialGradient>
<linearGradient id="paint2_linear_406_931" x1="50.589" y1="165.058" x2="69.6857" y2="45.3566" gradientUnits="userSpaceOnUse">
<stop stop-color="#9F79C8"/>
<stop offset="0.14" stop-color="#A27DCA"/>
<stop offset="0.27" stop-color="#AC88CF"/>
<stop offset="0.4" stop-color="#BC9BD7"/>
<stop offset="0.52" stop-color="#D1B4E3"/>
<stop offset="0.65" stop-color="#DBC4E9"/>
<stop offset="0.9" stop-color="#F4EDF8"/>
<stop offset="1" stop-color="white"/>
</linearGradient>
<linearGradient id="paint3_linear_406_931" x1="48.3395" y1="110.783" x2="47.9567" y2="112.697" gradientUnits="userSpaceOnUse">
<stop stop-color="#9F79C8"/>
<stop offset="0.14" stop-color="#A27DCA"/>
<stop offset="0.27" stop-color="#AC88CF"/>
<stop offset="0.4" stop-color="#BC9BD7"/>
<stop offset="0.52" stop-color="#D1B4E3"/>
<stop offset="0.65" stop-color="#DBC4E9"/>
<stop offset="0.9" stop-color="#F4EDF8"/>
<stop offset="1" stop-color="white"/>
</linearGradient>
<linearGradient id="paint4_linear_406_931" x1="44.8903" y1="159.425" x2="96.083" y2="78.5598" gradientUnits="userSpaceOnUse">
<stop offset="0.03" stop-color="#7C1DC9"/>
<stop offset="0.21" stop-color="#6E41D2"/>
<stop offset="0.62" stop-color="#4C9BE8"/>
<stop offset="1" stop-color="#2AF6FF"/>
</linearGradient>
<radialGradient id="paint5_radial_406_931" cx="0" cy="0" r="1" gradientUnits="userSpaceOnUse" gradientTransform="translate(83.7412 82.3852) rotate(180) scale(47.989)">
<stop stop-color="white"/>
<stop offset="0.07" stop-color="#D8D8D8"/>
<stop offset="0.16" stop-color="#A6A6A6"/>
<stop offset="0.26" stop-color="#797979"/>
<stop offset="0.37" stop-color="#545454"/>
<stop offset="0.47" stop-color="#353535"/>
<stop offset="0.59" stop-color="#1E1E1E"/>
<stop offset="0.7" stop-color="#0D0D0D"/>
<stop offset="0.84" stop-color="#030303"/>
<stop offset="1"/>
</radialGradient>
<linearGradient id="paint6_linear_406_931" x1="73.6103" y1="89.373" x2="40.3627" y2="33.2317" gradientUnits="userSpaceOnUse">
<stop offset="0.1" stop-color="#45108A"/>
<stop offset="1" stop-color="#7C1DC9"/>
</linearGradient>
<linearGradient id="paint7_linear_406_931" x1="45.1967" y1="181.028" x2="88.7026" y2="104.784" gradientUnits="userSpaceOnUse">
<stop offset="0.03" stop-color="#7C1DC9"/>
<stop offset="0.21" stop-color="#6E41D2"/>
<stop offset="0.62" stop-color="#4C9BE8"/>
<stop offset="1" stop-color="#2AF6FF"/>
</linearGradient>
<radialGradient id="paint8_radial_406_931" cx="0" cy="0" r="1" gradientUnits="userSpaceOnUse" gradientTransform="translate(74.8547 132.656) rotate(180) scale(33.7582 33.7582)">
<stop stop-color="white"/>
<stop offset="0.07" stop-color="#D8D8D8"/>
<stop offset="0.16" stop-color="#A6A6A6"/>
<stop offset="0.26" stop-color="#797979"/>
<stop offset="0.37" stop-color="#545454"/>
<stop offset="0.47" stop-color="#353535"/>
<stop offset="0.59" stop-color="#1E1E1E"/>
<stop offset="0.7" stop-color="#0D0D0D"/>
<stop offset="0.84" stop-color="#030303"/>
<stop offset="1"/>
</radialGradient>
<linearGradient id="paint9_linear_406_931" x1="-57.7527" y1="240.439" x2="-86.2621" y2="308.69" gradientUnits="userSpaceOnUse">
<stop offset="0.1" stop-color="#45108A"/>
<stop offset="1" stop-color="#7C1DC9"/>
</linearGradient>
<linearGradient id="paint10_linear_406_931" x1="-57.992" y1="241.748" x2="-86.5174" y2="309.998" gradientUnits="userSpaceOnUse">
<stop offset="0.1" stop-color="#45108A"/>
<stop offset="1" stop-color="#7C1DC9"/>
</linearGradient>
<linearGradient id="paint11_linear_406_931" x1="-38.0024" y1="248.703" x2="-66.5118" y2="316.954" gradientUnits="userSpaceOnUse">
<stop offset="0.1" stop-color="#45108A"/>
<stop offset="1" stop-color="#7C1DC9"/>
</linearGradient>
<linearGradient id="paint12_linear_406_931" x1="-22.3672" y1="255.244" x2="-50.8766" y2="323.495" gradientUnits="userSpaceOnUse">
<stop offset="0.1" stop-color="#45108A"/>
<stop offset="1" stop-color="#7C1DC9"/>
</linearGradient>
<linearGradient id="paint13_linear_406_931" x1="-31.0139" y1="253.027" x2="-59.5233" y2="321.277" gradientUnits="userSpaceOnUse">
<stop offset="0.1" stop-color="#45108A"/>
<stop offset="1" stop-color="#7C1DC9"/>
</linearGradient>
<linearGradient id="paint14_linear_406_931" x1="-21.7932" y1="256.872" x2="-50.3185" y2="325.122" gradientUnits="userSpaceOnUse">
<stop offset="0.1" stop-color="#45108A"/>
<stop offset="1" stop-color="#7C1DC9"/>
</linearGradient>
<linearGradient id="paint15_linear_406_931" x1="-13.2414" y1="260.445" x2="-41.7668" y2="328.696" gradientUnits="userSpaceOnUse">
<stop offset="0.1" stop-color="#45108A"/>
<stop offset="1" stop-color="#7C1DC9"/>
</linearGradient>
<linearGradient id="paint16_linear_406_931" x1="5.55199" y1="268.295" x2="-22.9733" y2="336.545" gradientUnits="userSpaceOnUse">
<stop offset="0.1" stop-color="#45108A"/>
<stop offset="1" stop-color="#7C1DC9"/>
</linearGradient>
<linearGradient id="paint17_linear_406_931" x1="-2.6959" y1="264.849" x2="-31.2212" y2="333.099" gradientUnits="userSpaceOnUse">
<stop offset="0.1" stop-color="#45108A"/>
<stop offset="1" stop-color="#7C1DC9"/>
</linearGradient>
<linearGradient id="paint18_linear_406_931" x1="-43.1873" y1="247.938" x2="-71.7127" y2="316.188" gradientUnits="userSpaceOnUse">
<stop offset="0.1" stop-color="#45108A"/>
<stop offset="1" stop-color="#7C1DC9"/>
</linearGradient>
<clipPath id="clip0_406_931">
<rect width="144.334" height="185" fill="white"/>
</clipPath>
</defs>
</svg>
