<svg width="182" height="185" viewBox="0 0 182 185" fill="none" xmlns="http://www.w3.org/2000/svg">
<g clip-path="url(#clip0_406_970)">
<g opacity="0.2">
<path opacity="0.09" d="M25.5558 125.218L35.1961 119.822C35.4386 119.685 50.5661 111.334 50.8237 111.394C51.8648 110.862 52.9633 110.45 54.0978 110.166C55.5342 109.838 57.0052 109.685 58.4784 109.712C60.6816 109.711 62.8496 110.264 64.784 111.318L98.5251 130.538L103.224 133.206L141.679 155.109C142.753 155.651 143.658 156.475 144.299 157.492C144.94 158.509 145.292 159.682 145.317 160.884C145.235 162.265 144.79 163.599 144.026 164.752C143.262 165.905 142.206 166.835 140.967 167.447L131.281 172.798C131.038 172.935 115.911 181.286 115.653 181.226C114.612 181.758 113.514 182.17 112.379 182.454C110.943 182.781 109.472 182.934 107.999 182.908C105.796 182.908 103.627 182.356 101.693 181.302L67.9368 162.188L63.2379 159.505L24.7676 137.556C23.7122 137.001 22.8259 136.172 22.2017 135.156C21.5776 134.139 21.2387 132.974 21.2207 131.781C21.3007 130.402 21.7439 129.069 22.5052 127.916C23.2665 126.764 24.3189 125.833 25.5558 125.218Z" fill="black"/>
<path opacity="0.18" d="M28.3755 125.809L37.5762 120.701C38.0613 120.428 52.0367 112.864 52.5521 113.001C53.5544 112.546 54.6007 112.196 55.6745 111.955C57.0394 111.709 58.4264 111.607 59.8126 111.652C61.9034 111.714 63.9498 112.27 65.7848 113.274L97.9343 131.615L102.482 134.176L139.118 155.048C140.12 155.576 140.961 156.365 141.553 157.33C142.145 158.296 142.466 159.403 142.483 160.535C142.38 161.854 141.935 163.123 141.19 164.215C140.446 165.308 139.428 166.187 138.239 166.765L129.038 171.873C128.568 172.146 114.577 179.725 114.077 179.574C113.071 180.03 112.019 180.381 110.94 180.619C109.575 180.867 108.188 180.968 106.802 180.923C104.711 180.858 102.665 180.303 100.829 179.301L68.695 160.99L64.1477 158.429L27.6024 137.571C26.5823 137.053 25.722 136.267 25.1133 135.298C24.5047 134.329 24.1705 133.213 24.1465 132.069C24.2332 130.745 24.6705 129.467 25.4136 128.367C26.1567 127.267 27.1789 126.384 28.3755 125.809Z" fill="black"/>
<path opacity="0.27" d="M31.1942 126.446L39.9706 121.626C40.6678 121.216 53.5216 114.441 54.2794 114.653C55.2612 114.276 56.2762 113.992 57.311 113.804C58.5884 113.653 59.8766 113.612 61.161 113.683C63.1389 113.803 65.0651 114.362 66.7997 115.32L97.3274 132.706L101.556 135.131L136.419 154.973C137.389 155.46 138.207 156.203 138.784 157.123C139.361 158.042 139.676 159.102 139.693 160.187C139.595 161.44 139.169 162.646 138.459 163.683C137.749 164.72 136.779 165.553 135.646 166.098L126.885 170.919C126.173 171.328 113.243 178.103 112.561 177.891C111.579 178.268 110.564 178.552 109.529 178.74C108.238 178.908 106.934 178.953 105.634 178.876C103.672 178.757 101.762 178.203 100.041 177.254L69.4978 159.838L65.1778 157.413L30.3151 137.572C29.3462 137.083 28.5292 136.339 27.9522 135.42C27.3752 134.501 27.0601 133.442 27.041 132.357C27.1496 131.093 27.591 129.88 28.3205 128.842C29.0501 127.803 30.0416 126.977 31.1942 126.446Z" fill="black"/>
<path opacity="0.36" d="M34.0287 127.067L42.3503 122.52C43.2901 121.974 54.9919 116.002 55.9923 116.275C56.9161 115.994 57.8581 115.776 58.8116 115.623C60.0326 115.532 61.2587 115.532 62.4798 115.623C64.3428 115.794 66.1497 116.351 67.785 117.26L96.7362 133.797L100.768 136.101L133.751 154.912C134.672 155.368 135.449 156.07 135.997 156.939C136.545 157.808 136.843 158.811 136.859 159.838C136.754 161.026 136.341 162.165 135.661 163.143C134.98 164.122 134.055 164.905 132.978 165.416L124.657 169.964C123.717 170.509 112.015 176.481 111.015 176.209C110.093 176.497 109.15 176.715 108.195 176.86C106.974 176.951 105.748 176.951 104.527 176.86C102.664 176.69 100.857 176.132 99.2221 175.223L70.2708 158.686L66.2389 156.397L33.2405 137.571C32.3332 137.106 31.5708 136.401 31.0363 135.532C30.5018 134.663 30.2157 133.665 30.209 132.645C30.3075 131.464 30.7114 130.329 31.3811 129.351C32.0507 128.373 32.9631 127.586 34.0287 127.067Z" fill="black"/>
<path opacity="0.45" d="M36.8479 127.689L44.7299 123.429C45.9122 122.747 56.4771 117.563 57.7352 117.912C58.613 117.699 59.5043 117.547 60.403 117.457C61.5474 117.451 62.6913 117.512 63.8286 117.639C65.5765 117.866 67.2644 118.427 68.8004 119.291L96.1297 134.904L99.9343 137.071L131.114 154.851C131.984 155.28 132.717 155.942 133.231 156.764C133.745 157.586 134.02 158.535 134.024 159.505C133.917 160.621 133.523 161.691 132.88 162.61C132.237 163.529 131.368 164.266 130.356 164.749L122.489 169.009C121.292 169.691 110.742 174.875 109.469 174.526C108.593 174.725 107.708 174.877 106.816 174.981C105.671 174.987 104.528 174.926 103.39 174.799C101.64 174.562 99.9488 174.002 98.4034 173.147L71.1195 157.549L67.3149 155.367L36.0749 137.587C35.2055 137.156 34.4722 136.494 33.9559 135.673C33.4396 134.851 33.1605 133.903 33.1494 132.933C33.2567 131.813 33.6543 130.74 34.3029 129.82C34.9515 128.901 35.8287 128.166 36.8479 127.689Z" fill="black"/>
<path opacity="0.55" d="M39.668 128.295L47.1104 124.293C48.5352 123.475 57.9482 119.079 59.4639 119.504C60.2825 119.322 61.2071 119.504 61.965 119.246C62.7229 118.988 64.4357 119.579 65.1632 119.579C66.7931 119.875 68.3614 120.443 69.8015 121.262L95.4939 135.965L99.0711 138.011L128.416 154.776C129.245 155.171 129.946 155.791 130.44 156.566C130.933 157.34 131.198 158.238 131.205 159.156C131.089 160.208 130.705 161.211 130.089 162.071C129.473 162.932 128.647 163.619 127.689 164.067L120.246 168.039C118.822 168.872 109.409 173.253 107.893 172.828C107.074 173.01 106.226 172.995 105.392 173.101C104.558 173.207 102.921 172.798 102.194 172.798C100.563 172.514 98.9934 171.95 97.5553 171.131L71.7872 156.443L68.2099 154.351L38.8949 137.587C38.0768 137.186 37.3866 136.566 36.9019 135.794C36.4173 135.023 36.1573 134.132 36.1514 133.221C36.2691 132.168 36.6539 131.163 37.2694 130.301C37.8849 129.439 38.7105 128.748 39.668 128.295Z" fill="black"/>
<path opacity="0.64" d="M42.4416 128.916L49.4293 125.218C51.0966 124.263 59.3576 120.671 61.131 121.156C61.9116 121.065 62.7 121.065 63.4805 121.156C64.4765 121.251 65.4643 121.418 66.4362 121.656C67.9491 122.001 69.4041 122.562 70.7562 123.323L94.8721 137.117L98.222 139.042L125.809 154.715C126.58 155.086 127.231 155.666 127.687 156.39C128.142 157.114 128.385 157.952 128.386 158.808C128.254 159.786 127.878 160.715 127.293 161.51C126.707 162.304 125.931 162.939 125.036 163.355L118.048 167.038C116.381 167.993 108.105 171.585 106.347 171.1C105.561 171.184 104.768 171.184 103.982 171.1C102.991 171.004 102.008 170.837 101.041 170.6C99.5278 170.25 98.0728 169.684 96.7214 168.918L72.6054 155.124L69.2404 153.214L41.714 137.602C40.9458 137.229 40.2982 136.647 39.8451 135.924C39.3921 135.2 39.152 134.363 39.1523 133.509C39.2711 132.529 39.6346 131.595 40.2094 130.792C40.7842 129.989 41.5519 129.344 42.4416 128.916Z" fill="black"/>
<path opacity="0.73" d="M45.3209 129.523L51.869 126.127C53.7637 125.021 60.9636 122.232 62.919 122.793C63.6538 122.749 64.3913 122.79 65.1169 122.914C66.034 123.081 66.9402 123.303 67.8301 123.581C69.2208 123.982 70.5589 124.547 71.8166 125.263L94.3258 138.147L97.4635 139.936L123.232 154.639C123.952 154.981 124.559 155.523 124.981 156.2C125.403 156.877 125.622 157.661 125.611 158.459C125.483 159.377 125.125 160.249 124.572 160.993C124.018 161.737 123.286 162.331 122.443 162.718L115.895 166.129C114.001 167.22 106.801 170.024 104.845 169.463C104.11 169.499 103.374 169.459 102.647 169.342C102.253 169.448 100.374 168.675 99.9342 168.675C98.5483 168.274 97.2152 167.709 95.9628 166.993L73.4385 154.109L70.3008 152.305L44.5327 137.602C43.8128 137.261 43.205 136.722 42.7808 136.049C42.3565 135.375 42.1334 134.594 42.1378 133.797C42.2682 132.875 42.628 132.001 43.1841 131.254C43.7403 130.507 44.475 129.912 45.3209 129.523Z" fill="black"/>
<path opacity="0.82" d="M48.1407 130.144L54.2037 127.022C56.341 125.794 62.3283 123.793 64.6019 124.415C65.2939 124.442 65.9805 124.549 66.6482 124.733C66.9211 124.657 68.8309 125.551 69.1189 125.551C70.3787 126.041 71.5955 126.634 72.7568 127.325L93.6744 139.315L96.6454 140.967L120.519 154.609C121.193 154.913 121.764 155.405 122.165 156.026C122.566 156.647 122.778 157.371 122.777 158.11C122.636 158.966 122.286 159.774 121.757 160.462C121.228 161.149 120.537 161.695 119.746 162.051L113.683 165.219C111.545 166.447 105.558 168.448 103.284 167.826C102.592 167.798 101.906 167.692 101.238 167.508C100.98 167.508 99.0554 166.674 98.7674 166.674C97.5024 166.217 96.28 165.649 95.1144 164.977L74.1968 153.002L71.241 151.289L47.3676 137.647C46.6987 137.333 46.1343 136.833 45.7419 136.207C45.3495 135.581 45.1456 134.855 45.1546 134.116C45.2839 133.258 45.6246 132.446 46.1458 131.753C46.6671 131.059 47.3526 130.507 48.1407 130.144Z" fill="black"/>
<path opacity="0.91" d="M50.9757 130.766L56.6295 127.916C59.0092 126.552 63.8597 125.339 66.3759 126.036C67.0261 126.131 67.6623 126.304 68.2706 126.552C68.407 126.552 70.3624 127.537 70.4988 127.537C71.6342 128.05 72.7422 128.622 73.8183 129.25L93.1293 140.315L95.8122 141.831L117.867 154.488C118.488 154.769 119.012 155.226 119.376 155.803C119.74 156.379 119.926 157.05 119.913 157.731C119.768 158.515 119.436 159.252 118.945 159.88C118.454 160.508 117.819 161.008 117.094 161.339L111.425 164.173C109.06 165.553 104.21 166.75 101.678 166.053C101.034 165.962 100.403 165.794 99.7987 165.553C99.6622 165.553 97.7069 164.567 97.5553 164.567C97.4038 164.567 94.4025 162.946 94.2358 162.855L74.94 151.774L72.2571 150.259L50.1874 137.617C49.5682 137.335 49.0456 136.877 48.6844 136.3C48.3233 135.724 48.1397 135.053 48.1563 134.373C48.2991 133.589 48.6303 132.85 49.1214 132.222C49.6125 131.594 50.2488 131.094 50.9757 130.766Z" fill="black"/>
<path d="M98.4034 163.703L75.788 150.668L53.0515 137.617C50.2776 136.025 50.6262 133.221 53.8245 131.372L59.0236 128.841C60.6661 127.923 62.5011 127.404 64.3808 127.325C66.2605 127.246 68.1325 127.609 69.8462 128.386L92.5828 141.422L115.319 154.457C118.093 156.064 117.745 158.868 114.531 160.717L109.317 163.264C107.659 164.186 105.808 164.706 103.912 164.782C102.017 164.858 100.13 164.489 98.4034 163.703Z" fill="black"/>
</g>
<path d="M119.534 103.072C116.932 101.485 114.004 100.511 110.97 100.223C110.97 100.041 110.97 99.8742 110.97 99.6923C110.97 73.7726 92.6592 42.199 70.0438 29.1634C51.8546 18.6742 36.4998 23.3883 31.1643 39.1069C29.8083 38.0558 28.3855 37.0938 26.905 36.2269C12.1262 27.6476 0 34.5292 0 51.612C0 68.6947 12.1262 89.5063 26.9656 98.1159L119.534 151.577C131.205 158.307 140.649 152.926 140.649 139.542C140.649 126.158 131.205 109.818 119.534 103.072Z" fill="url(#paint0_linear_406_970)"/>
<path d="M129.007 146.545C127.045 146.397 125.15 145.767 123.49 144.711L30.9215 91.2646C18.4467 84.0647 7.91211 65.9057 7.91211 51.612C7.91211 47.4436 8.82157 40.4559 14.8543 40.4559C17.7523 40.6291 20.5586 41.5367 23.0092 43.0934C24.2027 43.817 25.3517 44.6117 26.45 45.4731C27.4488 46.2316 28.6136 46.7417 29.8483 46.9615C31.083 47.1813 32.3522 47.1045 33.5514 46.7373C34.7506 46.3701 35.8453 45.7232 36.7453 44.8498C37.6453 43.9764 38.3248 42.9016 38.7278 41.714C41.0166 34.8627 45.4729 31.4825 51.7786 31.4825C56.8784 31.7447 61.8259 33.3103 66.1481 36.0299C86.1108 47.5649 103.072 76.6222 103.072 99.5559V100.238C103.072 102.245 103.834 104.177 105.204 105.644C106.575 107.11 108.452 108.001 110.454 108.135C112.278 108.355 114.031 108.971 115.593 109.939C124.687 115.229 132.751 129.038 132.751 139.527C132.887 141.656 132.357 143.775 131.235 145.59C130.974 145.927 130.631 146.192 130.238 146.359C129.845 146.526 129.416 146.59 128.992 146.545H129.007Z" fill="url(#paint1_linear_406_970)"/>
<path d="M40.0467 40.0164C40.6211 38.341 41.4273 36.7543 42.4416 35.3024C40.7883 37.1403 39.5479 39.3111 38.8038 41.6686C38.6033 42.2224 38.3495 42.7554 38.0459 43.2602C38.9667 42.3577 39.6535 41.2443 40.0467 40.0164Z" fill="url(#paint2_linear_406_970)"/>
<path d="M130.356 144.893C128.394 144.745 126.499 144.115 124.839 143.059L32.2403 89.6125C19.7049 82.4126 9.23087 64.2536 9.23087 50.0205C9.11364 47.2151 9.69161 44.4242 10.9134 41.896C8.3972 44.1697 7.88184 48.6109 7.88184 51.6121C7.88184 65.9058 18.4922 84.0648 30.8913 91.2647L123.49 144.711C125.15 145.767 127.045 146.397 129.007 146.545C129.432 146.59 129.86 146.526 130.253 146.359C130.646 146.192 130.989 145.927 131.251 145.59C131.497 145.275 131.701 144.928 131.857 144.559C131.394 144.797 130.877 144.912 130.356 144.893Z" fill="url(#paint3_linear_406_970)"/>
<path d="M181.893 115.608C181.893 102.224 172.434 85.9139 160.778 79.2294C158.175 77.6445 155.247 76.6702 152.214 76.3797C152.214 76.1978 152.214 76.0311 152.214 75.8492C152.214 49.9295 133.903 18.356 111.288 5.30519C98.6617 -2.06147 87.6269 -1.07622 79.851 4.12288L66.8002 11.5653C59.4335 7.74558 52.8399 7.76074 48.2016 10.9742L9.09473 33.6804C13.8543 31.619 20.0841 32.2859 26.9354 36.2421C28.4159 37.109 29.8387 38.071 31.1947 39.1221C36.5302 23.4035 51.9153 18.6895 70.0742 29.1786C92.6592 42.2142 111 73.7878 111 99.7075C111 99.8894 111 100.056 111 100.238C114.022 100.526 116.94 101.495 119.534 103.072C131.205 109.803 140.649 126.127 140.649 139.451C140.649 145.105 138.951 149.334 136.101 151.82L175.026 129.492C179.24 127.537 181.893 122.778 181.893 115.608Z" fill="url(#paint4_linear_406_970)"/>
<path style="mix-blend-mode:color-dodge" d="M91.7985 34.8115C108.547 27.9289 119.596 16.198 116.478 8.6098C113.359 1.0216 97.2543 0.449611 80.506 7.33223C63.7578 14.2148 52.7086 25.9458 55.8269 33.534C58.9453 41.1222 75.0503 41.6942 91.7985 34.8115Z" fill="url(#paint5_radial_406_970)"/>
<path style="mix-blend-mode:color-dodge" d="M160.096 96.1152C162.476 100.405 153.851 109.757 140.845 116.957C127.84 124.157 131.645 119.807 129.265 115.441C126.885 111.076 119.2 108.544 132.297 101.329C145.393 94.1143 157.64 91.8104 160.096 96.1152Z" fill="url(#paint6_radial_406_970)"/>
<path style="mix-blend-mode:screen" d="M26.2837 37.3183C27.766 38.1958 29.1934 39.1626 30.5582 40.2135C30.8558 39.322 31.1998 38.4467 31.5889 37.5912C30.5403 36.8061 29.4471 36.0824 28.3148 35.4236C18.9171 29.9972 10.6106 30.7551 5.83594 36.3786C10.7774 32.574 18.0985 32.6043 26.2837 37.3183Z" fill="url(#paint7_radial_406_970)"/>
<path style="mix-blend-mode:screen" d="M120.898 102.269C118.295 100.684 115.367 99.7099 112.334 99.4195C112.334 99.2376 112.334 99.0708 112.334 98.8889C112.334 72.9844 94.023 41.3957 71.4077 28.3601C57.599 20.3416 45.3515 21.2208 37.9697 29.1028C45.4576 23.0397 56.7653 22.9488 69.422 30.2548C92.007 43.3056 110.348 74.8791 110.348 100.799C110.348 100.981 110.348 101.147 110.348 101.329C113.383 101.61 116.313 102.585 118.912 104.179C130.583 110.909 140.042 127.219 140.042 140.558C140.244 144.535 139.066 148.459 136.707 151.668C140.027 149.304 142.073 144.847 142.073 138.663C142.012 125.324 132.554 109.014 120.898 102.269Z" fill="url(#paint8_radial_406_970)"/>
<path d="M80.6543 76.1069L80.336 75.9401V67.6034C80.181 64.688 79.3396 61.8504 77.8804 59.3218C76.4211 56.7931 74.3853 54.6449 71.9386 53.052L66.1332 49.7021C61.4798 46.9889 57.7207 49.2019 57.7207 54.5678V62.8894L57.4175 62.7226C55.2651 61.4797 53.5068 62.4801 53.5068 64.9508V84.6558C53.5821 86.0106 53.9753 87.3286 54.6547 88.5031C55.3341 89.6776 56.2806 90.6756 57.4175 91.4162L80.6543 104.831C82.8067 106.074 84.565 105.073 84.565 102.587V82.8824C84.4921 81.525 84.1 80.204 83.4205 79.0267C82.7409 77.8493 81.7932 76.849 80.6543 76.1069ZM70.4835 85.9291V92.4621L67.5884 90.7947V84.2466C66.4046 82.9695 65.7071 81.3171 65.6179 79.578C65.6179 77.4256 67.1336 76.5465 69.0283 77.6378C70.0183 78.2832 70.8437 79.1511 71.4385 80.1722C72.0333 81.1934 72.381 82.3395 72.454 83.519C72.454 85.0803 71.6506 85.9746 70.4835 85.9291ZM75.4704 73.1208L62.6015 65.6784V59.009C62.6015 55.9774 64.7387 54.7648 67.3913 56.2806L70.6805 58.1905C72.069 59.0973 73.2255 60.317 74.0573 61.7516C74.8891 63.1863 75.3731 64.7959 75.4704 66.4514V73.1208Z" fill="url(#paint9_linear_406_970)"/>
</g>
<defs>
<linearGradient id="paint0_linear_406_970" x1="135.01" y1="56.5382" x2="-35.2265" y2="155.624" gradientUnits="userSpaceOnUse">
<stop stop-color="#BF9DD4"/>
<stop offset="0.26" stop-color="#B999D3"/>
<stop offset="0.59" stop-color="#AA8CD2"/>
<stop offset="0.67" stop-color="#A588D1"/>
<stop offset="0.94" stop-color="#B086CC"/>
<stop offset="0.96" stop-color="#B289CD"/>
<stop offset="0.98" stop-color="#BC97D5"/>
</linearGradient>
<linearGradient id="paint1_linear_406_970" x1="107.65" y1="172.283" x2="27.2685" y2="9.67058" gradientUnits="userSpaceOnUse">
<stop offset="0.03" stop-color="#7C1DC9"/>
<stop offset="0.21" stop-color="#6E41D2"/>
<stop offset="0.62" stop-color="#4C9BE8"/>
<stop offset="1" stop-color="#2AF6FF"/>
</linearGradient>
<linearGradient id="paint2_linear_406_970" x1="45.9431" y1="35.9087" x2="30.9976" y2="44.6092" gradientUnits="userSpaceOnUse">
<stop stop-color="#25054D"/>
<stop offset="0.5" stop-color="#45108A"/>
<stop offset="1" stop-color="#25054D"/>
</linearGradient>
<linearGradient id="paint3_linear_406_970" x1="114.774" y1="68.422" x2="-11.2169" y2="141.755" gradientUnits="userSpaceOnUse">
<stop stop-color="#25054D"/>
<stop offset="0.5" stop-color="#45108A"/>
<stop offset="1" stop-color="#25054D"/>
</linearGradient>
<linearGradient id="paint4_linear_406_970" x1="57.0234" y1="5.38098" x2="142.392" y2="146.909" gradientUnits="userSpaceOnUse">
<stop stop-color="#BF9DD4"/>
<stop offset="0.01" stop-color="#C3A3D6"/>
<stop offset="0.02" stop-color="#CDB2DD"/>
<stop offset="0.03" stop-color="#D4BDE2"/>
<stop offset="0.05" stop-color="#D3BBE1"/>
<stop offset="0.06" stop-color="#CEB4DE"/>
<stop offset="0.07" stop-color="#C1A1D5"/>
<stop offset="0.09" stop-color="#C8ABDA"/>
<stop offset="0.12" stop-color="#DAC6E6"/>
<stop offset="0.16" stop-color="#F7F2F9"/>
<stop offset="0.17" stop-color="white"/>
<stop offset="0.2" stop-color="#F9F5FB"/>
<stop offset="0.25" stop-color="#E9DBF2"/>
<stop offset="0.3" stop-color="#D1B4E3"/>
<stop offset="0.39" stop-color="#B395D6"/>
<stop offset="0.48" stop-color="#9C7DCB"/>
<stop offset="0.56" stop-color="#8E6EC5"/>
<stop offset="0.63" stop-color="#8969C3"/>
<stop offset="0.65" stop-color="#8B6BC4"/>
<stop offset="0.66" stop-color="#9B7DCC"/>
<stop offset="0.67" stop-color="#A588D1"/>
<stop offset="0.78" stop-color="#E3CEF0"/>
<stop offset="0.8" stop-color="#D7BDE8"/>
<stop offset="0.86" stop-color="#C29FD9"/>
<stop offset="0.91" stop-color="#B58DCF"/>
<stop offset="0.94" stop-color="#B086CC"/>
<stop offset="0.96" stop-color="#B289CD"/>
<stop offset="0.98" stop-color="#BC97D5"/>
</linearGradient>
<radialGradient id="paint5_radial_406_970" cx="0" cy="0" r="1" gradientUnits="userSpaceOnUse" gradientTransform="translate(93.6188 39.0814) rotate(-22.34) scale(32.7862 14.7538)">
<stop stop-color="#972A74"/>
<stop offset="0.04" stop-color="#8A266A"/>
<stop offset="0.19" stop-color="#601B4A"/>
<stop offset="0.35" stop-color="#3D112F"/>
<stop offset="0.51" stop-color="#230A1B"/>
<stop offset="0.67" stop-color="#0F040C"/>
<stop offset="0.83" stop-color="#040103"/>
<stop offset="1"/>
</radialGradient>
<radialGradient id="paint6_radial_406_970" cx="0" cy="0" r="1" gradientUnits="userSpaceOnUse" gradientTransform="translate(131.315 72.7673) rotate(-29.389) scale(23.1414 7.67588)">
<stop stop-color="#4B61B8"/>
<stop offset="0.13" stop-color="#38498A"/>
<stop offset="0.27" stop-color="#273360"/>
<stop offset="0.41" stop-color="#19203E"/>
<stop offset="0.55" stop-color="#0E1223"/>
<stop offset="0.7" stop-color="#06080F"/>
<stop offset="0.84" stop-color="#020204"/>
<stop offset="1"/>
</radialGradient>
<radialGradient id="paint7_radial_406_970" cx="0" cy="0" r="1" gradientUnits="userSpaceOnUse" gradientTransform="translate(20.3419 38.4097) scale(9.59484)">
<stop stop-color="white"/>
<stop offset="1"/>
</radialGradient>
<radialGradient id="paint8_radial_406_970" cx="0" cy="0" r="1" gradientUnits="userSpaceOnUse" gradientTransform="translate(83.8825 64.4203) scale(58.5846 58.5846)">
<stop stop-color="white"/>
<stop offset="1"/>
</radialGradient>
<linearGradient id="paint9_linear_406_970" x1="89.2791" y1="116.805" x2="12.2778" y2="-26.7686" gradientUnits="userSpaceOnUse">
<stop offset="0.1" stop-color="#45108A"/>
<stop offset="1" stop-color="#7C1DC9"/>
</linearGradient>
<clipPath id="clip0_406_970">
<rect width="181.893" height="185" fill="white"/>
</clipPath>
</defs>
</svg>
