<svg width="60" height="47" viewBox="0 0 60 47" fill="none" xmlns="http://www.w3.org/2000/svg">
<path d="M57.2487 0.252648C54.163 3.52695 51.8497 7.4553 50.4797 11.7474C48.6438 16.5484 46.2835 20.848 53.8392 23.8815C59.5341 26.1755 59.7714 32.5058 58.4601 38.0714C57.1487 43.637 53.3646 46.5828 47.8071 46.9463C42.2496 47.3099 37.3415 45.8808 35.081 40.1146C33.7953 37.207 33.1635 34.0509 33.2304 30.8705C33.2973 27.6901 34.0613 24.5635 35.4681 21.7129C39.2148 13.9912 43.0489 6.67068 50.4547 1.65659C52.4529 0.340395 54.0016 0.0771553 57.2487 0.252648Z" fill="#9255FA"/>
<path d="M22.6173 0.503196C20.6565 4.43925 18.6333 8.02433 17.0348 11.7849C14.9866 16.5483 12.8011 20.8604 20.3693 23.8187C26.1142 26.1503 26.1266 32.5934 24.9777 38.0712C23.8287 43.5491 19.8822 46.5827 14.3747 46.9462C8.86707 47.3097 3.92149 45.9183 1.63604 40.1145C0.642861 38.0803 0.0855309 35.8598 0 33.5962C0.774308 20.2462 6.33184 9.36559 17.3345 1.55615C18.7333 0.528266 20.3943 -0.71272 22.6173 0.503196Z" fill="#9255FA"/>
</svg>
