<svg width="52" height="51" viewBox="0 0 52 51" fill="none" xmlns="http://www.w3.org/2000/svg">
<rect x="0.677734" width="50.839" height="50.839" rx="6" fill="black"/>
<path d="M21.4455 38.8284C32.719 38.8284 38.8832 29.4867 38.8832 21.3906C38.8832 21.1237 38.8832 20.8568 38.8705 20.6026C40.0652 19.7383 41.1074 18.658 41.9336 17.4251C40.8405 17.9081 39.6585 18.2386 38.413 18.3911C39.6839 17.6285 40.6499 16.4338 41.1074 14.9976C39.9254 15.6966 38.6163 16.205 37.2183 16.4846C36.0998 15.2899 34.5111 14.5527 32.7444 14.5527C29.3636 14.5527 26.6183 17.298 26.6183 20.6788C26.6183 21.1618 26.6692 21.6321 26.7835 22.0769C21.6869 21.8227 17.175 19.3824 14.1501 15.6712C13.629 16.5736 13.3239 17.6285 13.3239 18.747C13.3239 20.8695 14.4043 22.7505 16.0565 23.8436C15.0525 23.8181 14.1119 23.5385 13.2858 23.081C13.2858 23.1064 13.2858 23.1318 13.2858 23.1572C13.2858 26.1313 15.3956 28.597 18.2045 29.1689C17.6961 29.3088 17.1496 29.385 16.5903 29.385C16.1963 29.385 15.815 29.3469 15.4337 29.2706C16.209 31.7109 18.4714 33.4776 21.1531 33.5284C19.056 35.1679 16.4124 36.1466 13.54 36.1466C13.0443 36.1466 12.5613 36.1212 12.0784 36.0576C14.7601 37.8116 17.9884 38.8284 21.4455 38.8284Z" fill="white"/>
</svg>
