<svg width="60" height="39" viewBox="0 0 60 39" fill="none" xmlns="http://www.w3.org/2000/svg">
<path d="M59.1667 3.41667V20.9167C59.1667 22.5208 57.8542 23.8333 56.25 23.8333C54.6458 23.8333 53.3333 22.5208 53.3333 20.9167V10.475L34.2583 29.55C33.7042 30.075 32.975 30.3958 32.1875 30.3958C31.4 30.3958 30.6708 30.075 30.1167 29.55L21.9792 21.3833L5.82084 37.5708C5.23751 38.125 4.50834 38.4167 3.75001 38.4167C2.99168 38.4167 2.26251 38.125 1.67917 37.5708C0.541675 36.4333 0.541675 34.5958 1.67917 33.4292L19.9083 15.2C20.4625 14.675 21.2208 14.3542 21.9792 14.3542C22.7667 14.3542 23.4958 14.675 24.05 15.2L32.1875 23.3667L49.1917 6.33333H38.75C37.1458 6.33333 35.8333 5.02083 35.8333 3.41667C35.8333 1.8125 37.1458 0.5 38.75 0.5H56.25C56.4833 0.5 56.7458 0.529167 56.9792 0.616667C57.125 0.616667 57.2417 0.675 57.3875 0.733333C57.7375 0.879166 58.0583 1.08333 58.3208 1.34583C58.5833 1.60833 58.7875 1.92917 58.9333 2.27917C58.9917 2.425 59.05 2.54167 59.05 2.6875C59.1375 2.92083 59.1667 3.18333 59.1667 3.41667Z" fill="white"/>
</svg>
