<svg width="45" height="60" viewBox="0 0 45 60" fill="none" xmlns="http://www.w3.org/2000/svg">
<path d="M8.97366 59.0288C8.82149 59.0355 8.66964 59.0096 8.52837 58.9526C8.38709 58.8957 8.25968 58.8091 8.15472 58.6987C5.55987 56.1039 2.95982 53.5147 0.354588 50.9313C0.237295 50.8194 0.145233 50.6837 0.084556 50.5333C0.0238787 50.383 -0.00401932 50.2214 0.00272403 50.0594C0.00272403 30.4236 0.00272403 15.3013 0.00272403 1.02601C-0.0120218 0.821586 0.0333289 0.617315 0.133191 0.438339C0.233052 0.259362 0.383069 0.113492 0.564772 0.0186831L0.595908 0H44.0135L44.0431 0.0171261C44.4417 0.241322 44.6052 0.585399 44.6052 1.20194C44.5927 16.9268 44.5943 32.9194 44.5943 48.3842V57.8051C44.5943 58.8062 44.3794 59.0226 43.3814 59.0226H38.773C36.4656 59.0226 34.1578 59.0226 31.8494 59.0226C31.3963 59.0226 31.1223 58.8466 30.9588 58.4512C30.8654 58.2239 30.8031 57.9125 31.197 57.517C31.3745 57.338 31.6143 57.3022 31.9428 57.3022C33.2226 57.3022 34.5024 57.3022 35.7821 57.3022H35.8553C37.8793 57.3022 39.964 57.3022 42.016 57.3146H42.0347C42.1517 57.3268 42.27 57.3152 42.3824 57.2804C42.4948 57.2456 42.599 57.1884 42.6886 57.1122C42.8428 56.9232 42.9156 56.6807 42.891 56.4381C42.8801 38.5663 42.8801 20.4438 42.891 2.56891C42.891 2.11117 42.7867 1.68769 42.03 1.68769C35.7323 1.68769 29.0952 1.69703 22.3055 1.69703C15.7374 1.69703 9.16723 1.69444 2.59498 1.68925C2.13569 1.68925 1.7091 1.79356 1.7091 2.55178C1.72467 17.7768 1.72467 33.223 1.7091 48.4402C1.68457 48.6892 1.75958 48.9377 1.91773 49.1315C2.10554 49.2857 2.34689 49.3591 2.58876 49.3355H2.63858C3.47775 49.3246 4.37609 49.3199 5.46593 49.3199H7.45722H8.45832C9.46876 49.3199 9.73032 49.5799 9.73188 50.5779V51.8327C9.73188 53.3679 9.73188 54.9544 9.72098 56.5128C9.70959 56.62 9.71999 56.7283 9.75157 56.8313C9.78314 56.9343 9.83522 57.0299 9.90469 57.1122C9.98648 57.1813 10.0811 57.2336 10.1832 57.2659C10.2853 57.2982 10.3928 57.31 10.4994 57.3006C12.2027 57.3006 14.0258 57.2913 16.2367 57.2913H21.4601C21.9163 57.2913 22.2557 57.5201 22.346 57.8845C22.4071 58.067 22.4044 58.265 22.3382 58.4457C22.272 58.6265 22.1463 58.7794 21.9817 58.8793C21.7987 58.9826 21.5881 59.0261 21.3791 59.0039H21.2359H15.1764C13.1088 59.0039 11.0412 59.0039 8.97366 59.0039V59.0288ZM5.17479 53.0689L7.43854 55.3374L7.96633 55.8683V54.2413C7.96633 53.4628 7.96633 52.5676 7.97412 51.6988C7.98134 51.6162 7.97123 51.5329 7.94442 51.4543C7.91761 51.3758 7.87469 51.3037 7.81842 51.2427C7.75216 51.1853 7.67497 51.1419 7.59148 51.1151C7.508 51.0884 7.41995 51.0788 7.33267 51.087H7.30465C6.72703 51.087 6.14941 51.087 5.57958 51.087H3.19595L5.17479 53.0689Z" fill="white"/>
<path d="M15.3447 36.7634C15.231 36.7618 15.1185 36.7391 15.0131 36.6965C14.3249 36.4333 14.3903 35.8277 14.5678 35.3653C16.6312 29.9389 18.6967 24.5141 20.7643 19.0909C21.0461 18.356 21.412 18.0555 22.0301 18.0555C22.4395 18.0555 22.9518 18.1676 23.2756 19.0395C24.2025 21.487 25.1273 23.9365 26.05 26.3881L27.5742 30.4361C28.1835 32.0543 28.7943 33.6719 29.4067 35.289C29.5391 35.6409 29.6247 35.9118 29.5142 36.1858C29.4628 36.3524 29.3596 36.4983 29.2196 36.6021C29.0796 36.706 28.91 36.7625 28.7357 36.7634H28.6999C28.3107 36.7634 28.0351 36.5579 27.8763 36.1531C27.54 35.289 27.1476 34.2677 26.7864 33.2354C26.623 32.7684 26.3427 32.5753 25.8523 32.5753H25.8336C24.6177 32.5847 23.3846 32.5893 22.069 32.5893C20.8235 32.5893 19.5484 32.5893 18.158 32.5769C17.8108 32.5769 17.4294 32.6516 17.2363 33.1996C16.9639 33.9781 16.6634 34.7565 16.3723 35.5039L16.1994 35.9507C15.997 36.4832 15.7012 36.7634 15.3447 36.7634ZM25.8772 30.8471L22.0301 20.6603L21.7405 21.4231C20.579 24.4778 19.4549 27.4313 18.3153 30.4283L18.1596 30.8471H25.8772Z" fill="white"/>
<path d="M35.7527 11.1475C32.7842 11.1475 29.8152 11.1475 26.8456 11.1475H17.2737C14.2907 11.1475 11.3087 11.1475 8.3277 11.1475C7.84661 11.1475 7.58505 11.0058 7.42313 10.6617C7.34336 10.5137 7.31088 10.3448 7.33009 10.1778C7.3493 10.0107 7.41927 9.85362 7.53056 9.72758C7.73296 9.47225 8.01632 9.4162 8.37908 9.4162C10.8483 9.4162 13.3181 9.4162 15.7884 9.4162H27.842C30.4961 9.4162 33.1511 9.4162 35.8072 9.4162C36.2867 9.4162 36.5483 9.55632 36.7118 9.90351C36.7929 10.0512 36.826 10.2206 36.8065 10.388C36.787 10.5554 36.7158 10.7126 36.6028 10.8377C36.43 11.0541 36.1871 11.149 35.7667 11.149L35.7527 11.1475Z" fill="white"/>
<path d="M8.32278 45.2828C7.84169 45.2828 7.58013 45.1412 7.42288 44.7971C7.34375 44.6502 7.31175 44.4824 7.33125 44.3167C7.35075 44.151 7.4208 43.9953 7.53187 43.8707C7.6213 43.7643 7.73465 43.6806 7.86266 43.6265C7.99066 43.5724 8.12967 43.5494 8.26829 43.5593C13.5805 43.5593 18.8932 43.5593 24.2064 43.5593H35.8677C36.4469 43.5593 36.7925 43.8801 36.7925 44.4172C36.7925 44.9543 36.4531 45.2657 35.8583 45.2673H15.251C12.9406 45.2673 10.6312 45.2673 8.32278 45.2673V45.2828Z" fill="white"/>
<path d="M9.97007 19.6918H8.43652C7.70944 19.6918 7.34668 19.396 7.34668 18.8262C7.34668 18.4292 7.53662 17.9543 8.44586 17.9528H12.4565C13.7933 17.9528 15.1307 17.9528 16.4686 17.9528C16.9933 17.9528 17.367 18.2205 17.4464 18.6503C17.4858 18.8418 17.4587 19.0411 17.3695 19.2152C17.2803 19.3893 17.1344 19.5278 16.9559 19.6078C16.7654 19.6778 16.562 19.7059 16.3597 19.6903H12.3895L9.97007 19.6918Z" fill="white"/>
<path d="M31.8587 19.5548C30.5603 19.5548 29.2629 19.5548 27.9665 19.5548C27.3624 19.5548 27.0557 19.3073 27.0557 18.8246C27.0557 18.2128 27.5819 18.0835 28.0241 18.082H35.6903C36.3302 18.082 36.6556 18.3342 36.6556 18.8231C36.6556 19.3119 36.3442 19.5533 35.7479 19.5548C34.4546 19.5548 33.1582 19.5548 31.8587 19.5548Z" fill="white"/>
<path d="M10.7519 28.2502C9.97028 28.2502 9.18819 28.2502 8.40558 28.2502C8.2523 28.2601 8.09856 28.2396 7.95321 28.1899C7.80786 28.1402 7.67377 28.0623 7.55862 27.9606C7.48176 27.8772 7.42289 27.7789 7.38566 27.6718C7.34843 27.5646 7.33363 27.451 7.34221 27.3379C7.35311 26.793 7.733 26.4909 8.41337 26.4847C8.71748 26.4847 9.02109 26.4847 9.32417 26.4847H12.3773C12.6887 26.4847 12.9829 26.4847 13.2865 26.4847C13.9513 26.4925 14.3577 26.8147 14.3763 27.3488C14.3826 27.4564 14.3665 27.5641 14.329 27.6651C14.2915 27.7662 14.2334 27.8583 14.1584 27.9357C14.0406 28.0427 13.9027 28.1253 13.7528 28.1788C13.6029 28.2322 13.4439 28.2555 13.285 28.2471C12.439 28.2492 11.5947 28.2502 10.7519 28.2502Z" fill="white"/>
<path d="M34.8262 28.2502H34.1038H31.9911C31.6797 28.2502 31.3683 28.2502 31.0569 28.2502C30.4015 28.2393 29.992 27.9014 29.9873 27.3705C29.9827 26.8396 30.4077 26.4924 31.0429 26.4877C31.8235 26.4815 32.6019 26.4784 33.3783 26.4784C34.1547 26.4784 34.9409 26.481 35.737 26.4862C36.4003 26.4862 36.7817 26.8085 36.7848 27.3596C36.7879 27.9108 36.4096 28.2377 35.7479 28.2502C35.4459 28.2486 35.1361 28.2502 34.8262 28.2502Z" fill="white"/>
<path d="M9.38768 36.7805C8.87857 36.7805 8.37569 36.7696 7.89149 36.7494C7.78942 36.745 7.68928 36.7201 7.59701 36.6762C7.50474 36.6323 7.42223 36.5704 7.35435 36.494C7.19497 36.318 7.11061 36.0868 7.11926 35.8495C7.12456 35.6339 7.21436 35.429 7.3693 35.2791C7.52424 35.1291 7.7319 35.046 7.94754 35.0477C8.11568 35.0477 8.29629 35.0352 8.5127 35.0352H8.93773H8.97355C9.12924 35.0352 9.28493 35.0352 9.44062 35.0352H9.77535H9.88122H10.2876C10.4962 35.0352 10.6644 35.0352 10.82 35.0461C11.045 35.0411 11.2627 35.1255 11.4256 35.2807C11.5884 35.436 11.6831 35.6495 11.6888 35.8744C11.6941 36.0968 11.613 36.3126 11.4627 36.4766C11.3123 36.6406 11.1043 36.74 10.8823 36.7541C10.3763 36.7712 9.87188 36.7805 9.38768 36.7805Z" fill="white"/>
<path d="M34.7139 36.7805C34.2998 36.7805 33.8887 36.7727 33.4948 36.7556C33.272 36.7436 33.0623 36.6461 32.9095 36.4834C32.7566 36.3207 32.6724 36.1054 32.6743 35.8822C32.6788 35.6582 32.7711 35.4449 32.9312 35.2883C33.0914 35.1316 33.3066 35.0441 33.5307 35.0446C33.6661 35.0446 33.8125 35.0352 33.9977 35.0352H34.3932H34.7964H35.1312H35.237H35.5173C35.6605 35.0352 35.8022 35.0352 35.9439 35.0446C36.467 35.0664 36.7862 35.3715 36.7986 35.8604C36.8076 35.9747 36.7929 36.0897 36.7554 36.1982C36.7179 36.3066 36.6584 36.4061 36.5806 36.4904C36.5028 36.5747 36.4085 36.6421 36.3035 36.6883C36.1985 36.7345 36.085 36.7584 35.9703 36.7587C35.5344 36.7727 35.1187 36.7805 34.7139 36.7805Z" fill="white"/>
<path d="M26.6433 59.021C26.409 59.018 26.1853 58.9229 26.0205 58.7563C25.942 58.6797 25.8797 58.5882 25.8371 58.4871C25.7946 58.386 25.7728 58.2774 25.773 58.1678C25.7786 57.941 25.8719 57.7252 26.0334 57.5658C26.1948 57.4064 26.4117 57.3158 26.6386 57.313C26.7536 57.3091 26.8682 57.3293 26.975 57.3723C27.0817 57.4153 27.1783 57.4802 27.2585 57.5627C27.3387 57.6453 27.4008 57.7437 27.4407 57.8516C27.4806 57.9596 27.4975 58.0747 27.4902 58.1896C27.4915 58.2995 27.4707 58.4086 27.4291 58.5103C27.3874 58.6121 27.3258 58.7044 27.2479 58.7819C27.1699 58.8595 27.0772 58.9206 26.9752 58.9616C26.8733 59.0027 26.7641 59.0229 26.6542 59.021H26.6433Z" fill="white"/>
</svg>
