<svg width="43" height="55" viewBox="0 0 43 55" fill="none" xmlns="http://www.w3.org/2000/svg">
<g clip-path="url(#clip0_172_255)">
<path d="M42.3222 16.1037C38.8702 16.1037 35.4121 16.1037 31.9479 16.1037C30.8807 16.1327 29.836 15.7851 28.9872 15.1186C28.1383 14.452 27.5363 13.5066 27.281 12.4392C27.1664 11.9516 27.1126 11.4509 27.1209 10.9493C27.1209 7.2974 27.1209 3.64553 27.1209 -0.00634766H3.75568C3.69411 0.190194 3.46631 0.158494 3.31238 0.209214C2.35913 0.507956 1.52356 1.11264 0.927658 1.93501C0.331755 2.75737 0.00671922 3.75435 0 4.7804C0 19.9289 0 35.0711 0 50.2069C0.00160866 51.4726 0.489336 52.6863 1.35674 53.5831C2.22415 54.4799 3.40082 54.987 4.62995 54.9937C15.8026 54.9937 26.9793 54.9937 38.1601 54.9937C39.3796 54.982 40.5457 54.4767 41.4063 53.5869C42.2669 52.6972 42.7529 51.4944 42.7593 50.2386C42.7593 39.0167 42.7593 27.7948 42.7593 16.5729C42.7778 16.1925 42.6854 16.1037 42.3222 16.1037ZM8.0039 6.75849C8.30361 6.54518 8.66178 6.43631 9.02594 6.44783H21.2781C21.4951 6.42798 21.7138 6.45487 21.9202 6.52677C22.1265 6.59868 22.3161 6.71405 22.4769 6.86552C22.6376 7.01699 22.766 7.20125 22.8538 7.40659C22.9416 7.61193 22.987 7.83384 22.987 8.05821C22.987 8.28257 22.9416 8.50449 22.8538 8.70982C22.766 8.91516 22.6376 9.09942 22.4769 9.2509C22.3161 9.40237 22.1265 9.51773 21.9202 9.58964C21.7138 9.66155 21.4951 9.68843 21.2781 9.66858H8.96437C8.61175 9.68886 8.26302 9.58416 7.97624 9.37191C7.68947 9.15965 7.48194 8.85265 7.38822 8.50201C7.29298 8.18197 7.30155 7.8387 7.41264 7.52412C7.52372 7.20955 7.73128 6.94078 8.0039 6.75849ZM32.4404 48.2669C31.375 48.5603 30.2428 48.452 29.2482 47.9613C28.2535 47.4707 27.4619 46.6302 27.0163 45.5914C26.5853 44.5769 26.2343 43.5308 25.8711 42.4974C25.8443 42.3705 25.7713 42.2589 25.6671 42.1858C25.5628 42.1127 25.4353 42.0835 25.3108 42.1043C22.688 42.1043 20.0652 42.1043 17.4424 42.1043C17.3254 42.0871 17.2064 42.1161 17.1093 42.1855C17.0122 42.2549 16.9443 42.3595 16.919 42.4784C16.5742 43.4611 16.2295 44.4565 15.8354 45.4202C15.465 46.3742 14.8074 47.1809 13.9591 47.7218C13.1108 48.2627 12.1164 48.5095 11.122 48.4258C10.1275 48.3421 9.18527 47.9324 8.43351 47.2568C7.68174 46.5812 7.16003 45.6753 6.94492 44.672C6.73259 43.7296 6.80564 42.7428 7.15426 41.8444C7.88077 39.8832 8.60522 37.9199 9.32762 35.9545C9.38304 35.8086 9.43229 35.6565 9.50002 35.4599C9.27837 35.4599 9.08751 35.4599 8.88433 35.4599C8.67113 35.4737 8.45743 35.4424 8.25644 35.3679C8.05545 35.2933 7.87141 35.1772 7.71569 35.0266C7.55997 34.876 7.43586 34.6942 7.35102 34.4923C7.26619 34.2904 7.22242 34.0727 7.22242 33.8527C7.22242 33.6327 7.26619 33.4151 7.35102 33.2132C7.43586 33.0113 7.55997 32.8295 7.71569 32.6789C7.87141 32.5283 8.05545 32.4121 8.25644 32.3376C8.45743 32.2631 8.67113 32.2317 8.88433 32.2455C9.38919 32.2455 9.89405 32.2455 10.3989 32.2455C10.5836 32.2455 10.7068 32.2455 10.7868 32.0046C11.1316 31.0219 11.501 30.0455 11.8827 29.0184H9.09367C8.87183 29.0472 8.64659 29.027 8.43292 28.9592C8.21925 28.8914 8.02203 28.7775 7.85436 28.6252C7.68669 28.4729 7.5524 28.2856 7.46043 28.0758C7.36845 27.8659 7.32088 27.6383 7.32088 27.4081C7.32088 27.1778 7.36845 26.9502 7.46043 26.7404C7.5524 26.5305 7.68669 26.3432 7.85436 26.1909C8.02203 26.0386 8.21925 25.9248 8.43292 25.857C8.64659 25.7892 8.87183 25.769 9.09367 25.7977C10.2943 25.7977 11.4948 25.7977 12.6954 25.7977C12.8266 25.8181 12.9602 25.7851 13.0682 25.7059C13.1762 25.6266 13.2501 25.5072 13.2742 25.3729C13.5943 24.4473 13.9391 23.5406 14.3024 22.5643H9.68472C9.45692 22.5643 9.23527 22.5643 9.00747 22.5643C8.79044 22.5841 8.57177 22.5572 8.36538 22.4853C8.15899 22.4134 7.96939 22.298 7.80866 22.1466C7.64792 21.9951 7.51956 21.8108 7.43174 21.6055C7.34392 21.4002 7.29857 21.1782 7.29857 20.9539C7.29857 20.7295 7.34392 20.5076 7.43174 20.3023C7.51956 20.0969 7.64792 19.9127 7.80866 19.7612C7.96939 19.6097 8.15899 19.4944 8.36538 19.4225C8.57177 19.3505 8.79044 19.3237 9.00747 19.3435C11.0023 19.3435 13.0033 19.3435 15.0042 19.3435C15.1604 19.366 15.3189 19.3259 15.4472 19.2315C15.5755 19.1371 15.6638 18.9957 15.6938 18.8363C15.9647 18.0121 16.2787 17.2006 16.5989 16.3954C16.9833 15.3897 17.6529 14.5264 18.5204 13.918C19.3879 13.3096 20.4132 12.9842 21.4628 12.9842C22.5124 12.9842 23.5377 13.3096 24.4052 13.918C25.2727 14.5264 25.9422 15.3897 26.3267 16.3954C26.6592 17.2323 26.9424 18.0818 27.2564 18.9314C27.2817 19.0578 27.3535 19.1693 27.4568 19.2425C27.56 19.3158 27.6867 19.3451 27.8105 19.3245C29.8238 19.3245 31.8432 19.3245 33.8565 19.3245C34.2153 19.3099 34.5679 19.4239 34.8541 19.647C35.1404 19.8701 35.3427 20.1886 35.4265 20.5481C35.5114 20.869 35.4944 21.2094 35.3781 21.5196C35.2618 21.8299 35.0522 22.0937 34.78 22.2726C34.4663 22.4664 34.1052 22.5632 33.7395 22.5516H28.5616C28.9372 23.585 29.3004 24.5677 29.6452 25.5504C29.7376 25.804 29.9161 25.7787 30.1008 25.7787C31.3035 25.7787 32.5041 25.7787 33.7026 25.7787C33.9231 25.7568 34.1456 25.7821 34.3562 25.853C34.5668 25.9239 34.7608 26.0389 34.9262 26.1907C35.0915 26.3425 35.2246 26.5279 35.3171 26.7352C35.4095 26.9425 35.4594 27.1673 35.4634 27.3954C35.4553 27.6238 35.4018 27.8482 35.3062 28.0545C35.2106 28.2609 35.075 28.4449 34.9077 28.5951C34.7404 28.7454 34.545 28.8589 34.3335 28.9284C34.122 28.9979 33.8989 29.0221 33.678 28.9994C32.896 28.9994 32.1141 28.9994 31.3322 28.9994C31.0736 28.9994 30.8951 28.9994 31.049 29.3671C31.3999 30.2167 31.7016 31.0663 32.0156 31.9602C32.0321 32.0455 32.0794 32.1211 32.148 32.1717C32.2166 32.2223 32.3013 32.2442 32.385 32.2328C32.8529 32.2328 33.327 32.2328 33.7949 32.2328C34.012 32.213 34.2306 32.2399 34.437 32.3118C34.6434 32.3837 34.833 32.4991 34.9938 32.6505C35.1545 32.802 35.2829 32.9863 35.3707 33.1916C35.4585 33.3969 35.5038 33.6189 35.5038 33.8432C35.5038 34.0676 35.4585 34.2895 35.3707 34.4948C35.2829 34.7002 35.1545 34.8844 34.9938 35.0359C34.833 35.1874 34.6434 35.3027 34.437 35.3747C34.2306 35.4466 34.012 35.4734 33.7949 35.4536C33.641 35.4536 33.4809 35.4536 33.2716 35.4536C33.8565 37.0513 34.4476 38.6236 34.9955 40.1706C35.4173 41.1088 35.7254 42.0968 35.9129 43.1124C36.0362 44.2585 35.7525 45.4119 35.1142 46.3594C34.4759 47.3069 33.5262 47.9844 32.4404 48.2669Z" fill="#FEC02D"/>
<path d="M41.7556 12.8577C41.7064 12.9654 41.5709 12.8577 41.4663 12.8577C38.2647 12.8577 35.0672 12.8577 31.8739 12.8577C31.6654 12.8698 31.4568 12.8379 31.2607 12.764C31.0646 12.6901 30.8853 12.5757 30.7337 12.4279C30.5821 12.2801 30.4614 12.1019 30.379 11.9044C30.2966 11.7068 30.2543 11.494 30.2546 11.279C30.2546 7.8617 30.2546 4.44441 30.2546 0.989075L41.7556 12.8577Z" fill="#FEC02D"/>
<path d="M32.6312 42.694C30.4394 36.709 28.2435 30.7197 26.0434 24.7263C25.1938 22.3973 24.338 20.0727 23.476 17.7522C23.3346 17.3097 23.0611 16.9245 22.6946 16.6515C22.3282 16.3784 21.8874 16.2314 21.435 16.2314C20.9827 16.2314 20.5418 16.3784 20.1754 16.6515C19.8089 16.9245 19.5355 17.3097 19.394 17.7522L10.0664 42.9349C9.96414 43.166 9.91599 43.4186 9.92581 43.6724C9.93563 43.9261 10.0031 44.174 10.1229 44.396C10.2427 44.618 10.4114 44.808 10.6154 44.9506C10.8195 45.0933 11.0532 45.1846 11.2978 45.2173C11.6454 45.2664 11.9989 45.1913 12.2992 45.0043C12.5995 44.8174 12.8284 44.53 12.9478 44.1902C13.4527 42.8778 13.9206 41.5591 14.4131 40.2467C14.5052 39.8116 14.7556 39.4292 15.1128 39.1781C15.47 38.927 15.907 38.8261 16.3341 38.8963H26.419C26.8559 38.8267 27.3022 38.9326 27.6654 39.1922C28.0287 39.4518 28.2811 39.8452 28.3707 40.2911C28.8509 41.6035 29.3189 42.9222 29.8237 44.2283C29.9474 44.5684 30.1821 44.8537 30.4876 45.0353C30.7931 45.2169 31.1504 45.2835 31.4984 45.2237C31.8254 45.1679 32.1281 45.0104 32.3658 44.7725C32.6035 44.5345 32.7649 44.2274 32.8283 43.8923C32.8795 43.4815 32.811 43.0644 32.6312 42.694ZM24.3133 35.6629C23.3406 35.6629 22.3678 35.6629 21.395 35.6629H18.5259C18.2511 35.6897 17.9744 35.6406 17.7242 35.5206C17.474 35.4006 17.2594 35.2141 17.1025 34.9802C16.9457 34.7464 16.8523 34.4736 16.8319 34.1902C16.8115 33.9067 16.865 33.6228 16.9867 33.3678C17.9759 30.7007 18.9569 28.0315 19.9297 25.3603C20.0264 25.0315 20.2251 24.7444 20.4953 24.5429C20.7654 24.3414 21.0923 24.2366 21.4258 24.2444C21.7547 24.2375 22.0766 24.3434 22.3407 24.5453C22.6048 24.7473 22.7963 25.034 22.8849 25.3603C23.8762 28.0548 24.8798 30.7493 25.8525 33.4502C25.9552 33.7018 25.9936 33.9763 25.964 34.2475C25.9344 34.5187 25.8378 34.7776 25.6835 34.9995C25.5291 35.2214 25.3222 35.3988 25.0823 35.515C24.8425 35.6311 24.5777 35.682 24.3133 35.6629Z" fill="#FEC02D"/>
<path d="M22.1646 32.4231H20.6624C20.8963 31.7891 21.1303 31.1551 21.4135 30.3689C21.6844 31.1234 21.9122 31.751 22.1646 32.4231Z" fill="#FEC02D"/>
</g>
<defs>
<clipPath id="clip0_172_255">
<rect width="42.7778" height="55" fill="white"/>
</clipPath>
</defs>
</svg>
