<svg width="52" height="51" viewBox="0 0 52 51" fill="none" xmlns="http://www.w3.org/2000/svg">
<rect x="0.838867" width="50.839" height="50.839" rx="6" fill="black"/>
<path d="M41.0615 18.1426C40.7126 16.8467 39.6908 15.825 38.3949 15.4761C36.0274 14.8281 26.5574 14.8281 26.5574 14.8281C26.5574 14.8281 17.0874 14.8281 14.7199 15.4512C13.4489 15.8 12.4022 16.8467 12.0533 18.1426C11.4303 20.5101 11.4303 25.4196 11.4303 25.4196C11.4303 25.4196 11.4303 30.354 12.0533 32.6965C12.4022 33.9924 13.424 35.0142 14.7199 35.3631C17.1123 36.011 26.5574 36.011 26.5574 36.011C26.5574 36.011 36.0274 36.011 38.3949 35.388C39.6908 35.0391 40.7126 34.0174 41.0615 32.7215C41.6845 30.354 41.6845 25.4445 41.6845 25.4445C41.6845 25.4445 41.7094 20.5101 41.0615 18.1426Z" fill="white"/>
<path d="M23.5417 29.9551L31.4168 25.4194L23.5417 20.8838V29.9551Z" fill="black"/>
</svg>
