<svg width="1439" height="774" viewBox="0 0 1439 774" fill="none" xmlns="http://www.w3.org/2000/svg">
<path d="M418.662 98.0522C290.289 81.9901 87.3985 156.901 2 196.364L43.1272 397.371C150.258 360.369 376.778 617.764 651.706 605.763C926.634 593.763 1296.9 737.922 1440 774V67.8203C1346.34 105.668 1135.41 184.363 1041.01 196.364C923.018 211.364 579.128 118.13 418.662 98.0522Z" fill="#854BE9" fill-opacity="0.18"/>
<path d="M414.137 2.74775C285.763 -13.5079 85.3985 45.9895 0 85.9279V704.589C107.131 667.142 390.124 589.212 665.052 577.067C939.98 564.922 1294.9 634.911 1438 671.424V125.366C1344.34 163.669 1131.4 191.517 1037 203.662C919.003 218.843 574.603 23.0673 414.137 2.74775Z" fill="#E1CFFF"/>
<path d="M417.241 40.7715C287.885 33.7532 239.5 40.7715 0 130.189V750.863C107.28 713.79 390.667 636.638 665.977 624.614C941.287 612.591 1296.7 681.881 1440 718.029V10.481C1346.21 48.4018 1134.1 121.555 1040.46 139.273C834.739 178.2 536.618 47.2482 417.241 40.7715Z" fill="url(#paint0_linear_409_2272)"/>
<defs>
<linearGradient id="paint0_linear_409_2272" x1="764.512" y1="-72.3011" x2="764.512" y2="616.353" gradientUnits="userSpaceOnUse">
<stop stop-color="#3B1684"/>
<stop offset="0.570934" stop-color="#0A1524"/>
</linearGradient>
</defs>
</svg>
