<svg width="1440" height="1392" viewBox="0 0 1440 1392" fill="none" xmlns="http://www.w3.org/2000/svg">
<mask id="mask0_494_7229" style="mask-type:alpha" maskUnits="userSpaceOnUse" x="0" y="0" width="1440" height="1392">
<rect width="1440" height="1392" fill="#D9D9D9"/>
</mask>
<g mask="url(#mask0_494_7229)">
<path d="M826.986 205.381C573.409 168.297 172.639 341.249 3.9502 432.361L85.1891 896.444C296.805 811.016 744.253 1405.28 1287.32 1377.58C1830.39 1349.87 2561.79 1682.7 2844.44 1766V135.582C2659.43 222.964 2242.79 404.654 2056.33 432.361C1823.25 466.994 1143.96 251.736 826.986 205.381Z" fill="#854BE9" fill-opacity="0.18"/>
<path d="M768.777 35.1501C509.085 -1.23299 103.757 165.11 -69 254.5V1606C147.72 1522.19 720.201 1347.76 1276.37 1320.58C1832.53 1293.4 2550.52 1450.05 2840 1531.77V309.591C2650.52 395.321 2219.76 457.65 2028.8 484.833C1790.1 518.812 1093.39 80.629 768.777 35.1501Z" fill="#E1CFFF"/>
<path d="M824.181 73.1335C568.662 56.9299 473.087 73.1335 0 279.581V1712.58C211.911 1626.99 771.687 1448.86 1315.51 1421.1C1859.33 1393.34 2561.39 1553.32 2844.45 1636.78V3.19922C2659.17 90.7504 2240.19 259.645 2055.23 300.553C1648.87 390.427 1059.99 88.087 824.181 73.1335Z" fill="url(#paint0_linear_494_7229)"/>
</g>
<defs>
<linearGradient id="paint0_linear_494_7229" x1="1510.15" y1="-187.927" x2="1510.15" y2="1402.03" gradientUnits="userSpaceOnUse">
<stop stop-color="#3B1684"/>
<stop offset="0.570934" stop-color="#0A1524"/>
</linearGradient>
</defs>
</svg>
