<svg width="1177" height="328" viewBox="0 0 1177 328" fill="none" xmlns="http://www.w3.org/2000/svg">
<rect width="1177" height="328" fill="url(#paint0_linear_568_3)"/>
<path d="M1117 328C1117 328 1077.16 328 1001.5 328C925.837 328 843 328 843 328C843 252.337 904.337 191 980 191C1055.66 191 1117 252.337 1117 328Z" fill="#1B1241"/>
<path d="M291 -2.38419e-07C291 -2.38419e-07 254.652 -2.38419e-07 185.617 -2.38419e-07C116.581 -2.38419e-07 41 -2.38419e-07 41 -2.38419e-07C41 67.931 96.9644 123 166 123C235.036 123 291 67.931 291 -2.38419e-07Z" fill="#231659"/>
<circle cx="265.5" cy="203.5" r="25.5" fill="#1D1442"/>
<path d="M1176.5 177.5C1176.5 202.629 1176.5 223 1176.5 223C1151.37 223 1131 202.629 1131 177.5C1131 152.371 1151.37 132 1176.5 132C1176.5 132 1176.5 152.371 1176.5 177.5Z" fill="#1D1442"/>
<defs>
<linearGradient id="paint0_linear_568_3" x1="618.133" y1="-54.6345" x2="618.133" y2="264.894" gradientUnits="userSpaceOnUse">
<stop stop-color="#3B1684"/>
<stop offset="0.570934" stop-color="#0A1524"/>
</linearGradient>
</defs>
</svg>
