<svg width="437" height="437" viewBox="0 0 437 437" fill="none" xmlns="http://www.w3.org/2000/svg">
<path d="M46.6104 195.627V237.265C46.6104 240.883 48.0478 244.353 50.6064 246.912C53.165 249.471 56.6352 250.908 60.2536 250.908H209.541C213.158 250.906 216.626 249.467 219.183 246.909C221.74 244.351 223.176 240.882 223.176 237.265V202.086L241.766 182.561L60.306 181.993C58.5107 181.986 56.7317 182.334 55.0709 183.016C53.4102 183.698 51.9003 184.701 50.628 185.967C49.3557 187.234 48.3459 188.739 47.6564 190.397C46.967 192.055 46.6115 193.832 46.6104 195.627Z" fill="#F5F5F5"/>
<path d="M201.169 207.217L65.7073 206.587L65.7161 202.427L201.186 203.048L201.169 207.217Z" fill="#E0E0E0"/>
<path d="M201.169 220.912L65.7073 220.292L65.7161 216.123L201.186 216.752L201.169 220.912Z" fill="#E0E0E0"/>
<path d="M147.578 229.836L147.558 233.996L201.16 234.258L201.18 230.098L147.578 229.836Z" fill="#E0E0E0"/>
<path d="M184.938 339.488V381.125C184.938 384.744 186.376 388.214 188.934 390.772C191.493 393.331 194.963 394.768 198.582 394.768H347.852C351.469 394.766 354.937 393.328 357.494 390.769C360.05 388.211 361.486 384.742 361.486 381.125V345.947L380.076 326.422L198.608 325.854C196.815 325.85 195.038 326.2 193.381 326.884C191.723 327.567 190.216 328.571 188.947 329.837C187.677 331.103 186.67 332.608 185.982 334.264C185.294 335.92 184.94 337.695 184.938 339.488Z" fill="#F5F5F5"/>
<path d="M340.152 349.993L204.682 349.373L204.691 345.204L340.161 345.833L340.152 349.993Z" fill="#E0E0E0"/>
<path d="M340.152 363.689L204.682 363.068L204.691 358.899L340.161 359.529L340.152 363.689Z" fill="#E0E0E0"/>
<path d="M286.549 372.604L286.528 376.764L340.13 377.026L340.151 372.866L286.549 372.604Z" fill="#E0E0E0"/>
<path d="M126.407 38.7969H214.453C216.54 38.7969 218.54 39.6256 220.015 41.1008C221.491 42.5759 222.319 44.5767 222.319 46.6629V89.7249C222.319 91.8111 221.491 93.8118 220.015 95.287C218.54 96.7621 216.54 97.5909 214.453 97.5909H139.744C137.658 97.5909 135.657 96.7621 134.182 95.287C132.707 93.8118 131.878 91.8111 131.878 89.7249V44.2419L126.407 38.7969Z" fill="#F5F5F5"/>
<path d="M177.422 80.6614V108.28C177.422 110.679 176.469 112.98 174.773 114.676C173.076 116.373 170.775 117.326 168.376 117.326H69.3869C68.1963 117.329 67.0168 117.098 65.9158 116.645C64.8148 116.192 63.8139 115.526 62.9704 114.686C62.1269 113.846 61.4575 112.847 61.0003 111.748C60.5431 110.649 60.3072 109.47 60.306 108.28V84.944L48.0176 71.9913L168.376 71.6155C170.775 71.6155 173.076 72.5685 174.773 74.265C176.469 75.9614 177.422 78.2623 177.422 80.6614Z" fill="#E0E0E0"/>
<path d="M74.9368 88.344L164.784 87.9332L164.775 85.1714L74.928 85.5909L74.9368 88.344Z" fill="#F5F5F5"/>
<path d="M74.9368 97.4336L164.784 97.0141L164.775 94.261L74.928 94.6718L74.9368 97.4336Z" fill="#F5F5F5"/>
<path d="M109.975 103.892H74.4211V106.654H109.975V103.892Z" fill="#F5F5F5"/>
<path d="M365.017 208.711V236.33C365.017 238.729 364.064 241.03 362.368 242.726C360.671 244.422 358.371 245.376 355.971 245.376H256.956C254.556 245.376 252.254 244.423 250.556 242.727C248.859 241.03 247.904 238.73 247.901 236.33V212.994L235.578 200.041L355.936 199.665C357.127 199.662 358.307 199.893 359.408 200.346C360.509 200.799 361.509 201.465 362.353 202.305C363.196 203.145 363.866 204.144 364.323 205.243C364.78 206.342 365.016 207.521 365.017 208.711Z" fill="#E0E0E0"/>
<path d="M262.506 216.402L352.362 215.983L352.344 213.221L262.497 213.64L262.506 216.402Z" fill="#F5F5F5"/>
<path d="M262.506 225.483L352.362 225.072L352.344 222.311L262.497 222.721L262.506 225.483Z" fill="#F5F5F5"/>
<path d="M296.915 232.869H261.361V235.63H296.915V232.869Z" fill="#F5F5F5"/>
<path d="M280.204 345.798C265.408 331.386 265.163 309.09 269.008 289.731C269.655 286.497 269.882 283.01 271.875 280.406C273.868 277.801 277.81 276.446 280.502 278.299C282.73 279.829 283.325 282.809 284.295 285.352C285.588 288.748 287.818 291.706 290.727 293.883C292.624 295.298 295.097 296.374 297.3 295.587C300.359 294.494 301.329 290.675 301.836 287.441C302.78 281.405 303.73 275.371 304.685 269.341C305.192 266.098 305.725 262.794 307.228 259.893C308.732 256.991 311.432 254.5 314.649 254.142C317.865 253.783 321.379 256.178 321.51 259.456C321.41 260.813 321.221 262.162 320.942 263.494C320.81 264.848 321.195 266.439 322.41 266.99C323.625 267.54 325.084 266.876 326.203 266.116C330.075 263.397 333.029 259.569 335.817 255.733C338.605 251.896 341.376 247.945 344.994 244.877C348.612 241.81 353.253 239.677 357.929 240.175C362.605 240.673 367.08 244.336 367.5 249.09C367.919 253.845 364.51 258.031 361.014 261.247C355.824 266.019 349.972 270.016 343.639 273.116C342.503 273.676 341.271 274.27 340.685 275.406C339.628 277.451 341.323 279.925 343.307 280.982C345.588 282.18 348.237 282.355 350.71 283.071C353.183 283.788 355.735 285.335 356.304 287.878C357.081 291.374 353.751 294.407 350.658 296.234C344.464 299.888 337.688 302.448 330.625 303.803C328.108 304.283 325.478 304.633 323.284 305.996C321.09 307.36 319.464 310.069 320.251 312.534C321.038 314.998 323.887 316.222 326.456 316.17C329.026 316.117 331.473 315.121 333.999 314.614C338.719 313.67 344.408 314.911 346.62 319.22C348.079 322.052 347.668 325.591 346.226 328.449C344.661 331.239 342.551 333.685 340.021 335.642C331.526 342.827 321.309 348.062 310.41 349.95C299.511 351.838 289.81 351.243 280.178 345.816" fill="#9255FA"/>
<path d="M277.582 360.202C279.955 351.317 283.175 342.68 287.196 334.41C292.168 324.33 297.712 314.542 303.802 305.096L308.557 297.641C310.121 295.193 311.668 292.764 313.338 290.491C316.549 286.117 320.001 281.924 323.677 277.932C327.173 274.095 330.582 270.59 333.824 267.33C337.067 264.07 340.143 261.107 343.071 258.52C347.661 254.408 352.571 250.667 357.754 247.333C359.59 246.153 361.041 245.279 362.028 244.711L363.164 244.056C363.297 243.972 363.438 243.902 363.584 243.846C363.469 243.944 363.347 244.031 363.217 244.108L362.116 244.807C361.146 245.41 359.721 246.311 357.912 247.525C352.787 250.922 347.929 254.703 343.377 258.835C340.475 261.457 337.425 264.42 334.2 267.68C330.975 270.94 327.566 274.471 324.114 278.299C320.475 282.282 317.055 286.46 313.871 290.815C312.219 293.078 310.681 295.491 309.116 297.938C307.552 300.385 305.979 302.876 304.37 305.393C298.299 314.824 292.755 324.584 287.764 334.628C283.724 342.856 280.464 351.444 278.028 360.28" fill="#263238"/>
<path d="M313.539 290.492C313.462 290.018 313.432 289.538 313.451 289.058C313.451 288.14 313.451 286.803 313.451 285.16C313.521 281.865 313.775 277.294 314.063 272.304C314.352 267.313 314.553 262.759 314.57 259.465C314.57 257.821 314.57 256.493 314.57 255.575C314.532 255.097 314.549 254.616 314.623 254.142C314.731 254.609 314.793 255.087 314.806 255.566C314.893 256.44 314.955 257.813 314.998 259.465C315.086 262.759 314.998 267.331 314.666 272.339C314.334 277.347 314.089 281.76 313.871 285.178C313.792 286.716 313.722 288.018 313.661 289.067C313.676 289.545 313.635 290.023 313.539 290.492Z" fill="#263238"/>
<path d="M356.391 289.53C355.828 289.563 355.263 289.539 354.704 289.46C353.62 289.381 352.082 289.25 350.116 289.163C346.235 288.953 340.877 288.848 334.952 288.988C329.026 289.128 323.677 289.504 319.805 289.862C317.874 290.037 316.309 290.22 315.234 290.343C314.675 290.44 314.107 290.484 313.539 290.474C314.08 290.302 314.636 290.179 315.199 290.107C316.274 289.914 317.821 289.67 319.762 289.434C323.633 288.944 329 288.516 334.943 288.359C340.012 288.22 345.085 288.339 350.142 288.717C352.082 288.866 353.638 289.049 354.73 289.207C355.293 289.26 355.849 289.368 356.391 289.53Z" fill="#263238"/>
<path d="M287.869 333.728C287.869 333.728 287.782 333.545 287.668 333.177C287.555 332.81 287.389 332.207 287.196 331.552C286.803 330.145 286.279 328.056 285.667 325.547C284.443 320.452 282.975 313.373 281.454 305.524C279.933 297.676 278.526 290.596 277.408 285.483C276.857 283.001 276.403 280.956 276.07 279.435C275.922 278.78 275.808 278.229 275.712 277.783C275.657 277.593 275.627 277.396 275.625 277.198C275.722 277.373 275.793 277.561 275.834 277.757C275.957 278.194 276.105 278.727 276.298 279.374C276.691 280.781 277.215 282.87 277.827 285.387C279.051 290.474 280.528 297.562 282.04 305.41C283.552 313.259 284.968 320.338 286.086 325.451C286.637 327.933 287.092 329.979 287.424 331.499C287.572 332.155 287.686 332.697 287.782 333.143C287.836 333.333 287.866 333.53 287.869 333.728Z" fill="#263238"/>
<path d="M346.034 324.971C345.846 325.04 345.649 325.084 345.449 325.102L343.753 325.381L337.521 326.325C332.277 327.129 325.014 328.327 317 329.647C308.985 330.966 301.714 332.102 296.435 332.793C293.813 333.143 291.654 333.405 290.177 333.553L288.429 333.719C288.232 333.75 288.031 333.75 287.834 333.719C288.024 333.655 288.221 333.611 288.42 333.588L290.107 333.309L296.338 332.365C301.582 331.561 308.854 330.372 316.869 329.044C324.883 327.715 332.155 326.588 337.434 325.897C340.056 325.547 342.206 325.285 343.692 325.137L345.44 324.979C345.636 324.945 345.837 324.942 346.034 324.971Z" fill="#263238"/>
<path d="M133.18 149.271C131.863 148.172 130.859 146.744 130.271 145.133C129.683 143.521 129.532 141.783 129.833 140.094C130.165 138.413 130.827 136.816 131.781 135.393C132.735 133.971 133.962 132.752 135.391 131.808C136.694 130.934 138.311 130.2 139.831 130.646C140.528 130.9 141.145 131.335 141.618 131.906C142.091 132.478 142.404 133.165 142.523 133.897C142.744 135.373 142.569 136.881 142.016 138.267C140.356 143.056 137.874 147.391 133.18 149.297" fill="#455A64"/>
<path d="M128.749 157.451C126.056 155.042 122.828 153.309 119.332 152.397C115.836 151.485 112.173 151.42 108.647 152.207C106.899 152.618 104.845 153.562 104.557 155.371C104.268 157.18 105.876 158.727 107.467 159.654C110.825 161.518 114.659 162.346 118.486 162.035C122.314 161.724 125.964 160.287 128.976 157.906" fill="#455A64"/>
<path d="M103.132 119.572C104.617 119.229 106.155 119.187 107.656 119.449C109.157 119.71 110.59 120.269 111.872 121.093C114.446 122.772 116.599 125.021 118.165 127.665C121.329 132.664 122.447 139.394 122.587 145.311C116.015 145.049 110.404 139.884 107.729 137.078C103.482 132.656 98.4998 122.089 103.08 119.598" fill="#455A64"/>
<path d="M138.686 166.392C138.088 165.599 137.539 164.77 137.043 163.91C135.342 160.576 134.099 157.027 133.346 153.361C132.605 149.646 132.889 145.8 134.168 142.235C134.567 141.168 135.099 140.155 135.75 139.22C135.971 138.863 136.245 138.541 136.563 138.267C135.803 139.589 135.148 140.968 134.605 142.392C133.496 145.902 133.286 149.635 133.993 153.247C134.755 156.865 135.928 160.384 137.489 163.735" fill="#263238"/>
<path d="M138.748 166.471L135.321 162.057C132.446 158.325 128.452 153.177 123.959 147.549C119.467 141.92 115.351 136.886 112.361 133.25L108.865 128.88C108.405 128.372 107.99 127.825 107.624 127.246C108.14 127.697 108.619 128.188 109.058 128.714C109.932 129.693 111.217 131.117 112.764 132.9C115.849 136.466 120.035 141.466 124.528 147.094C129.02 152.723 132.944 157.923 135.732 161.734C137.131 163.639 138.241 165.23 138.992 166.27" fill="#263238"/>
<path d="M112.746 156.079C113.103 155.902 113.487 155.784 113.882 155.729C114.332 155.605 114.791 155.518 115.254 155.467C115.865 155.366 116.481 155.299 117.098 155.266C118.712 155.164 120.331 155.226 121.932 155.45C123.888 155.741 125.807 156.242 127.656 156.944C129.497 157.68 131.255 158.609 132.9 159.715C134.229 160.631 135.462 161.68 136.58 162.844C137.017 163.283 137.428 163.747 137.812 164.233C138.128 164.586 138.42 164.96 138.686 165.352C139.115 165.99 139.053 166.287 139.018 166.313C138.166 165.22 137.256 164.172 136.292 163.176C135.151 162.085 133.917 161.096 132.603 160.222C130.984 159.18 129.266 158.302 127.473 157.6C125.665 156.914 123.795 156.408 121.888 156.088C120.328 155.839 118.748 155.734 117.168 155.773C114.407 155.799 112.746 156.201 112.746 156.079Z" fill="#263238"/>
<path d="M259.351 379.089L158.404 378.617C152.58 378.582 147.008 376.238 142.912 372.098C138.815 367.959 136.528 362.363 136.554 356.54L137.62 103.455C137.646 97.6278 139.983 92.0487 144.119 87.9436C148.256 83.8384 153.852 81.5431 159.68 81.5616L260.627 82.0249C266.451 82.0641 272.021 84.4112 276.117 88.5514C280.213 92.6915 282.5 98.287 282.477 104.111L281.428 357.186C281.403 363.018 279.063 368.6 274.923 372.707C270.783 376.814 265.182 379.11 259.351 379.089Z" fill="#263238"/>
<path d="M260.452 90.7648L240.874 90.6686C240.236 90.68 239.607 90.817 239.021 91.0718C238.436 91.3265 237.907 91.6941 237.464 92.1535C237.02 92.6129 236.672 93.1551 236.439 93.7491C236.205 94.3431 236.091 94.9773 236.102 95.6155V99.1639C236.114 99.8021 236 100.436 235.766 101.03C235.533 101.624 235.184 102.166 234.741 102.626C234.298 103.085 233.769 103.453 233.183 103.708C232.598 103.962 231.969 104.099 231.33 104.111L193.18 103.936C191.892 103.899 190.671 103.353 189.785 102.418C188.898 101.482 188.419 100.234 188.452 98.9454V95.397C188.485 94.1072 188.004 92.8571 187.116 91.9214C186.228 90.9856 185.005 90.4407 183.715 90.4064H176.836L159.706 90.3278C155.62 90.3115 151.695 91.9178 148.793 94.7939C145.89 97.67 144.248 101.581 144.228 105.666L143.187 352.685C143.171 356.769 144.777 360.692 147.651 363.592C150.525 366.493 154.434 368.134 158.517 368.155L259.263 368.618C261.286 368.627 263.29 368.238 265.162 367.473C267.034 366.707 268.737 365.581 270.173 364.157C271.61 362.734 272.752 361.041 273.534 359.176C274.317 357.311 274.724 355.31 274.733 353.288L275.773 106.261C275.788 104.236 275.403 102.229 274.641 100.353C273.878 98.478 272.753 96.7715 271.33 95.3319C269.906 93.8923 268.213 92.7478 266.346 91.964C264.48 91.1803 262.477 90.7728 260.452 90.7648Z" fill="#FAFAFA"/>
<path d="M203.467 344.933C203.532 345.358 203.464 345.794 203.273 346.18C203.083 346.566 202.778 346.884 202.401 347.092C202.024 347.3 201.593 347.387 201.164 347.342C200.736 347.297 200.332 347.122 200.007 346.84C199.681 346.559 199.449 346.184 199.343 345.767C199.237 345.349 199.261 344.91 199.413 344.507C199.564 344.104 199.835 343.757 200.19 343.512C200.544 343.268 200.965 343.139 201.396 343.141C201.907 343.109 202.41 343.279 202.797 343.614C203.184 343.949 203.425 344.422 203.467 344.933Z" fill="#455A64"/>
<path d="M209.909 344.968C209.971 345.393 209.902 345.828 209.71 346.213C209.518 346.598 209.213 346.915 208.835 347.122C208.458 347.328 208.026 347.414 207.599 347.368C207.171 347.322 206.767 347.146 206.443 346.863C206.118 346.581 205.888 346.206 205.782 345.789C205.677 345.372 205.702 344.933 205.854 344.53C206.006 344.127 206.277 343.781 206.632 343.538C206.986 343.294 207.407 343.165 207.837 343.167C208.35 343.136 208.854 343.307 209.241 343.644C209.629 343.98 209.868 344.456 209.909 344.968Z" fill="#455A64"/>
<path d="M216.35 344.994C216.414 345.42 216.347 345.855 216.156 346.241C215.965 346.627 215.661 346.945 215.284 347.153C214.907 347.361 214.475 347.448 214.047 347.403C213.619 347.358 213.215 347.183 212.889 346.902C212.564 346.62 212.332 346.245 212.226 345.828C212.12 345.411 212.144 344.971 212.295 344.568C212.447 344.165 212.718 343.818 213.073 343.574C213.427 343.33 213.848 343.2 214.279 343.202C214.79 343.168 215.294 343.338 215.682 343.673C216.07 344.008 216.31 344.483 216.35 344.994Z" fill="#455A64"/>
<path d="M174.38 209.847C176.024 210.083 275.048 229.504 275.048 229.504V209.847H174.38Z" fill="#EBEBEB"/>
<path d="M143.222 334.654C143.222 334.654 250.952 319.412 250.008 319.884C249.064 320.356 143.222 319.884 143.222 319.884V334.654Z" fill="#EBEBEB"/>
<path d="M268.318 46.2432C268.44 46.2432 268.545 51.6882 268.545 58.4005C268.545 65.1128 268.44 70.5666 268.318 70.5666C268.196 70.5666 268.091 65.1216 268.091 58.4005C268.091 51.6794 268.196 46.2432 268.318 46.2432Z" fill="#263238"/>
<path d="M311.432 74.2375C311.485 74.3511 306.538 76.641 300.394 79.3504C294.25 82.0598 289.224 84.1749 289.172 84.0525C289.119 83.9301 294.066 81.649 300.21 78.9396C306.355 76.2302 311.38 74.1151 311.432 74.2375Z" fill="#263238"/>
<path d="M310.34 31.7786C310.288 31.9464 310.212 32.1055 310.113 32.2505C309.912 32.5826 309.667 33.0109 309.361 33.5353C308.706 34.654 307.735 36.2534 306.512 38.2112C304.065 42.1442 300.542 47.4756 296.548 53.2964C292.554 59.1173 289.006 64.4225 286.488 68.303C285.256 70.1996 284.251 71.799 283.517 72.9003L282.695 74.1413C282.608 74.2936 282.502 74.4345 282.381 74.5609C282.445 74.3969 282.524 74.239 282.617 74.0889C282.818 73.7568 283.062 73.3285 283.368 72.8041C284.015 71.6854 284.994 70.0947 286.218 68.1282C288.665 64.1952 292.187 58.8638 296.172 53.043C300.158 47.2221 303.724 41.9519 306.241 38.0451L309.212 33.4392L310.034 32.1981C310.124 32.0501 310.227 31.9098 310.34 31.7786Z" fill="#263238"/>
<path d="M370.777 134.675H173.734C172.722 134.675 171.72 134.874 170.785 135.262C169.85 135.649 169.001 136.217 168.286 136.933C167.571 137.649 167.004 138.499 166.617 139.434C166.231 140.369 166.033 141.371 166.034 142.383V203.502C166.033 204.514 166.231 205.516 166.617 206.451C167.004 207.387 167.571 208.236 168.286 208.952C169.001 209.668 169.85 210.236 170.785 210.624C171.72 211.011 172.722 211.211 173.734 211.211H188.417C189.597 217.591 190.978 225.64 190.978 225.64L204.263 211.211H370.777C371.789 211.211 372.791 211.011 373.726 210.624C374.66 210.236 375.51 209.668 376.225 208.952C376.94 208.236 377.507 207.387 377.893 206.451C378.28 205.516 378.478 204.514 378.477 203.502V142.383C378.478 141.371 378.28 140.369 377.893 139.434C377.507 138.499 376.94 137.649 376.225 136.933C375.51 136.217 374.66 135.649 373.726 135.262C372.791 134.874 371.789 134.675 370.777 134.675Z" fill="#9255FA"/>
<path d="M289.478 167.808C289.478 167.93 266.028 168.035 237.107 168.035C208.187 168.035 184.729 167.93 184.729 167.808C184.729 167.686 208.178 167.572 237.107 167.572C266.037 167.572 289.478 167.703 289.478 167.808Z" fill="#F5F5F5"/>
<path d="M289.478 158.439C289.478 158.561 266.028 158.666 237.107 158.666C208.187 158.666 184.729 158.561 184.729 158.439C184.729 158.316 208.178 158.211 237.107 158.211C266.037 158.211 289.478 158.308 289.478 158.439Z" fill="#F5F5F5"/>
<path d="M289.478 177.125C289.478 177.247 266.028 177.352 237.107 177.352C208.187 177.352 184.729 177.247 184.729 177.125C184.729 177.002 208.178 176.897 237.107 176.897C266.037 176.897 289.478 176.994 289.478 177.125Z" fill="#F5F5F5"/>
<path d="M253.338 186.747C253.338 186.87 237.981 186.975 219.033 186.975C200.085 186.975 184.729 186.87 184.729 186.747C184.729 186.625 200.085 186.52 219.033 186.52C237.981 186.52 253.338 186.616 253.338 186.747Z" fill="#F5F5F5"/>
<path d="M281.743 244.563H83.0912C82.382 244.561 81.6795 244.7 81.0242 244.971C80.3688 245.243 79.7735 245.641 79.2724 246.142C78.7713 246.644 78.3743 247.24 78.1043 247.896C77.8342 248.552 77.6963 249.255 77.6986 249.964V314.64C77.6986 316.07 78.2668 317.442 79.2781 318.453C80.2894 319.464 81.661 320.032 83.0912 320.032H227.371L240.481 334.305C240.481 334.305 241.853 326.282 243.016 320.032H281.716C283.147 320.032 284.518 319.464 285.53 318.453C286.541 317.442 287.109 316.07 287.109 314.64V249.964C287.111 249.257 286.974 248.556 286.706 247.902C286.437 247.248 286.043 246.653 285.545 246.152C285.046 245.65 284.454 245.252 283.802 244.979C283.149 244.706 282.45 244.565 281.743 244.563Z" fill="#455A64"/>
<path d="M273.955 277.932C273.955 278.054 250.506 278.159 221.577 278.159C192.647 278.159 169.198 278.054 169.198 277.932C169.198 277.809 192.647 277.705 221.577 277.705C250.506 277.705 273.955 277.775 273.955 277.932Z" fill="#F5F5F5"/>
<path d="M273.955 268.51C273.955 268.633 250.506 268.737 221.577 268.737C192.647 268.737 169.198 268.633 169.198 268.51C169.198 268.388 192.647 268.283 221.577 268.283C250.506 268.283 273.955 268.379 273.955 268.51Z" fill="#F5F5F5"/>
<path d="M273.955 287.196C273.955 287.319 250.506 287.423 221.577 287.423C192.647 287.423 169.198 287.319 169.198 287.196C169.198 287.074 192.647 286.969 221.577 286.969C250.506 286.969 273.955 287.074 273.955 287.196Z" fill="#F5F5F5"/>
<path d="M237.815 296.819C237.815 296.95 222.459 297.046 203.511 297.046C184.563 297.046 169.198 296.95 169.198 296.819C169.198 296.688 184.563 296.592 203.511 296.592C222.459 296.592 237.815 296.697 237.815 296.819Z" fill="#F5F5F5"/>
<path d="M321.239 108.752C321.361 107.144 319.928 104.933 318.617 103.656C317.857 102.972 317.314 102.08 317.055 101.091C316.796 100.102 316.831 99.0583 317.157 98.0891C317.69 96.1051 318.949 96.2537 319.447 95.0825C319.689 94.1771 319.787 93.2391 319.735 92.3032C319.839 91.5126 320.105 90.7519 320.516 90.0685C320.926 89.3852 321.474 88.7938 322.123 88.3312C322.773 87.8687 323.51 87.545 324.291 87.3803C325.071 87.2156 325.877 87.2134 326.658 87.3739C327.092 85.8228 327.982 84.4381 329.213 83.3995C330.444 82.3609 331.959 81.7163 333.561 81.5495C335.163 81.3827 336.778 81.7014 338.196 82.4642C339.615 83.2269 340.771 84.3985 341.516 85.8269C342.42 85.3671 343.425 85.1374 344.439 85.1579C345.454 85.1784 346.448 85.4485 347.334 85.9444C348.219 86.4403 348.969 87.1467 349.517 88.0012C350.064 88.8557 350.393 89.8319 350.474 90.8436C351.391 90.2584 352.489 90.0245 353.565 90.1852C354.642 90.3458 355.623 90.8901 356.33 91.7176C356.993 92.5834 357.387 93.6254 357.461 94.7134C357.536 95.8015 357.288 96.8875 356.749 97.8356C356.195 98.7761 355.436 99.5791 354.528 100.184C353.62 100.79 352.586 101.182 351.505 101.332C349.337 101.607 347.137 101.207 345.204 100.187C343.279 99.173 341.532 97.8536 340.03 96.2799" fill="#263238"/>
<path d="M335.529 209.192C356.425 209.192 373.364 192.648 373.364 172.239C373.364 151.831 356.425 135.287 335.529 135.287C314.633 135.287 297.693 151.831 297.693 172.239C297.693 192.648 314.633 209.192 335.529 209.192Z" fill="#E0E0E0"/>
<path d="M373.521 172.265L369.335 161.533L354.328 170.963L367.701 191.581C367.701 191.581 373.137 184.519 373.521 172.265Z" fill="#EB996E"/>
<path d="M332.12 149.017C334.705 149.032 337.197 148.052 339.08 146.281C340.962 144.509 342.091 142.081 342.232 139.499C342.451 135.051 342.643 130.759 342.643 130.759C342.643 130.759 350.894 130.165 351.654 122.089C352.414 114.013 352.528 95.3536 352.528 95.3536C348.052 93.004 343.033 91.8819 337.982 92.1015C332.931 92.321 328.029 93.8743 323.773 96.6034L322.987 97.1016L322.034 138.879C322.025 140.208 322.279 141.527 322.782 142.757C323.285 143.988 324.027 145.107 324.964 146.05C325.902 146.992 327.017 147.74 328.245 148.249C329.474 148.758 330.79 149.02 332.12 149.017Z" fill="#FFBE9D"/>
<path d="M336.822 107.782C337.039 107.858 337.229 107.997 337.368 108.181C337.507 108.365 337.588 108.586 337.602 108.816C337.616 109.046 337.561 109.275 337.446 109.474C337.33 109.673 337.158 109.834 336.952 109.936C336.745 110.038 336.513 110.077 336.285 110.048C336.056 110.019 335.841 109.923 335.667 109.772C335.493 109.622 335.367 109.423 335.305 109.201C335.243 108.979 335.248 108.744 335.319 108.525C335.42 108.227 335.636 107.982 335.917 107.843C336.199 107.704 336.524 107.682 336.822 107.782Z" fill="#263238"/>
<path d="M339.112 108.201C338.972 108.332 338.238 107.668 337.084 107.598C335.931 107.528 335.109 108.053 334.996 107.904C334.882 107.756 335.083 107.59 335.45 107.345C335.953 107.028 336.544 106.881 337.137 106.925C337.727 106.965 338.288 107.195 338.736 107.581C339.042 107.878 339.156 108.14 339.112 108.201Z" fill="#263238"/>
<path d="M349.146 107.782C349.363 107.858 349.553 107.997 349.691 108.181C349.83 108.365 349.911 108.586 349.925 108.816C349.939 109.046 349.885 109.275 349.769 109.474C349.653 109.673 349.482 109.834 349.275 109.936C349.068 110.038 348.836 110.077 348.608 110.048C348.379 110.019 348.165 109.923 347.99 109.772C347.816 109.622 347.69 109.423 347.628 109.201C347.566 108.979 347.571 108.744 347.642 108.525C347.744 108.227 347.959 107.982 348.241 107.843C348.522 107.704 348.848 107.682 349.146 107.782Z" fill="#263238"/>
<path d="M351.558 108.219C351.427 108.358 350.684 107.694 349.53 107.624C348.376 107.554 347.555 108.079 347.441 107.93C347.328 107.782 347.529 107.616 347.904 107.371C348.403 107.053 348.993 106.905 349.583 106.951C350.175 106.993 350.738 107.223 351.191 107.607C351.523 107.904 351.628 108.166 351.558 108.219Z" fill="#263238"/>
<path d="M343.08 116.95C343.677 116.766 344.3 116.686 344.924 116.714C345.221 116.714 345.457 116.661 345.492 116.504C345.533 116.205 345.485 115.901 345.352 115.63C345.125 114.87 344.889 114.101 344.644 113.297C343.683 109.975 343.045 107.248 343.211 107.179C343.377 107.109 344.304 109.801 345.265 113.104C345.492 113.908 345.702 114.686 345.921 115.447C346.079 115.836 346.101 116.267 345.982 116.67C345.929 116.779 345.852 116.874 345.756 116.949C345.661 117.023 345.55 117.074 345.431 117.098C345.263 117.119 345.092 117.119 344.924 117.098C344.305 117.154 343.682 117.104 343.08 116.95Z" fill="#263238"/>
<path d="M342.608 130.654C338.843 130.421 335.23 129.08 332.225 126.8C332.225 126.8 334.261 132.822 342.459 132.752L342.608 130.654Z" fill="#EB996E"/>
<path d="M322.742 108.97C322.749 108.653 322.633 108.345 322.418 108.112C322.203 107.879 321.905 107.739 321.588 107.721C320.068 107.651 317.568 108.201 317.218 112.361C316.764 118.305 322.567 116.933 322.593 116.731C322.62 116.53 322.716 111.286 322.742 108.97Z" fill="#FFBE9D"/>
<path d="M321.352 114.398C321.352 114.398 321.239 114.468 321.055 114.529C320.932 114.58 320.8 114.607 320.666 114.607C320.533 114.607 320.401 114.58 320.277 114.529C319.908 114.258 319.619 113.893 319.439 113.471C319.259 113.05 319.195 112.588 319.255 112.134C319.277 111.624 319.414 111.125 319.657 110.675C319.732 110.491 319.851 110.327 320.003 110.199C320.155 110.072 320.336 109.983 320.531 109.941C320.653 109.916 320.78 109.936 320.889 109.997C320.998 110.058 321.082 110.156 321.125 110.273C321.195 110.439 321.125 110.561 321.178 110.57C321.23 110.579 321.317 110.482 321.282 110.229C321.261 110.08 321.186 109.943 321.073 109.844C320.919 109.708 320.719 109.636 320.513 109.643C320.26 109.676 320.02 109.773 319.816 109.926C319.612 110.08 319.452 110.283 319.351 110.517C319.051 111.008 318.883 111.568 318.861 112.143C318.794 112.671 318.883 113.208 319.12 113.686C319.356 114.163 319.729 114.56 320.19 114.826C320.348 114.883 320.517 114.905 320.685 114.89C320.852 114.875 321.015 114.823 321.16 114.739C321.326 114.547 321.37 114.415 321.352 114.398Z" fill="#EB996E"/>
<path d="M333.763 105.029C334.06 105.413 335.092 105.238 336.438 105.177C337.784 105.116 338.824 105.125 339.06 104.705C339.296 104.286 338.046 103.281 336.315 103.429C334.585 103.578 333.431 104.635 333.763 105.029Z" fill="#263238"/>
<path d="M346.856 104.635C347.013 105.151 348.001 105.308 349.093 105.299C350.186 105.291 351.164 105.098 351.313 104.574C351.462 104.05 350.439 103.342 349.067 103.359C347.695 103.377 346.69 104.128 346.856 104.635Z" fill="#263238"/>
<path d="M353.638 97.8881C353.638 97.8881 348.735 100.265 342.363 97.0841C338.177 94.9952 333.309 93.9726 332.234 94.8117C331.159 95.6507 330.931 99.9683 326.789 101.227C326.789 101.227 327.068 109.442 323.791 109.154C320.513 108.866 322.558 96.1401 322.558 96.1401L330.582 92.2246L339.322 90.5728L347.564 91.7352L353.944 93.4832L353.638 97.8881Z" fill="#263238"/>
<path d="M298.742 145.503C307.316 136.685 322.401 137.637 322.401 137.637L334.908 146.596L341.996 138.337C347.022 139.021 351.9 140.53 356.435 142.803L356.915 142.951V143.048C362.404 146.028 370.165 153.177 377.568 160.108L368.714 168.324L358.908 177.064C358.93 177.12 358.93 177.182 358.908 177.238C358.812 177.772 360.272 189.737 361.775 198.826C357.507 203.036 352.278 206.142 346.54 207.877C340.802 209.611 334.728 209.922 328.843 208.781C324.831 208.073 322.891 207.103 319.176 206.159C316.5 205.45 314.107 203.932 312.326 201.812C310.544 199.693 309.46 197.075 309.221 194.316C308.557 186.695 308.05 177.256 308.05 177.256" fill="#455A64"/>
<path d="M349.836 139.884C350.055 140.337 350.236 140.808 350.378 141.291C350.701 142.165 351.13 143.537 351.645 145.189C352.677 148.493 353.996 153.055 355.237 158.238C356.478 163.421 357.414 168.079 357.999 171.488C358.296 173.236 358.515 174.582 358.646 175.543C358.739 176.036 358.795 176.536 358.812 177.038C358.658 176.558 358.544 176.067 358.471 175.569C358.27 174.547 358.008 173.192 357.685 171.549C357.012 168.158 356.033 163.482 354.792 158.343C353.551 153.204 352.292 148.58 351.348 145.285L350.212 141.343C350.053 140.866 349.927 140.378 349.836 139.884Z" fill="#263238"/>
<path d="M357.886 171.392C357.807 171.295 361.548 168.114 366.241 164.295C370.934 160.475 374.797 157.451 374.876 157.547C374.955 157.644 371.223 160.825 366.529 164.644C361.836 168.464 357.973 171.488 357.886 171.392Z" fill="#263238"/>
<path opacity="0.2" d="M310.06 157.6L302.404 182.832L305.262 184.318L308.076 177.186C308.076 177.186 310.943 162.188 310.06 157.6Z" fill="black"/>
<g opacity="0.2">
<path d="M349.006 139.901C353.14 142.077 342.774 147.321 338.098 147.182L341.498 138.214C341.498 138.214 347.616 139.167 349.006 139.901Z" fill="black"/>
</g>
<path d="M321.169 138.214V131.528C321.169 131.528 334.218 134.893 334.69 142.698C334.69 142.698 336.35 134.063 343.08 133.652L344.033 145.792L336.167 152.609H328.274L321.99 147.182L321.169 138.756" fill="#455A64"/>
<path d="M337.635 180.158C337.59 179.681 337.59 179.201 337.635 178.724C337.635 177.798 337.635 176.461 337.679 174.809C337.679 171.514 337.582 166.943 337.172 161.935C336.761 156.927 336.097 152.399 335.546 149.148C335.266 147.584 335.03 146.29 334.856 145.303C334.742 144.835 334.672 144.358 334.646 143.878C334.81 144.331 334.938 144.795 335.03 145.268C335.258 146.142 335.546 147.47 335.861 149.096C336.669 153.33 337.253 157.604 337.609 161.9C337.962 166.196 338.085 170.508 337.976 174.818C337.932 176.469 337.871 177.807 337.792 178.733C337.773 179.211 337.721 179.687 337.635 180.158Z" fill="#263238"/>
<path d="M334.095 140.452C333.834 140.408 333.566 140.432 333.317 140.522C332.677 140.883 332.205 141.483 332.006 142.191C330.929 144.522 330.088 146.955 329.498 149.454L329.428 149.751L329.166 149.594C328.388 149.122 327.584 148.615 326.78 148.073C325.315 147.075 323.903 146.002 322.55 144.857C321.934 144.343 321.441 143.698 321.108 142.969C320.845 142.327 320.697 141.643 320.671 140.95C320.644 139.969 320.741 138.988 320.959 138.031C321.011 137.673 321.108 137.324 321.247 136.991C321.236 137.348 321.198 137.705 321.134 138.057C320.986 139.008 320.939 139.972 320.994 140.932C321.036 141.581 321.193 142.218 321.457 142.812C321.777 143.49 322.246 144.087 322.829 144.56C324.062 145.591 325.495 146.657 327.033 147.706C327.837 148.248 328.624 148.763 329.402 149.235L329.07 149.375C329.654 146.865 330.534 144.433 331.692 142.13C331.87 141.726 332.099 141.347 332.373 141.002C332.589 140.736 332.877 140.538 333.204 140.434C333.868 140.225 334.113 140.443 334.095 140.452Z" fill="#263238"/>
<path d="M343.08 133.652C343.159 133.993 343.2 134.342 343.202 134.692L343.412 137.541C343.508 138.739 343.657 140.163 343.902 141.728C344.112 142.567 344.165 143.439 344.059 144.297C343.728 145.198 343.115 145.968 342.311 146.491C341.289 147.125 340.33 147.854 339.444 148.667L339.095 149.061V148.536C338.936 146.253 338.277 144.033 337.163 142.034C336.333 140.539 335.651 139.779 335.703 139.735C335.756 139.691 335.913 139.892 336.219 140.251C336.658 140.766 337.056 141.316 337.408 141.894C338.623 143.903 339.351 146.169 339.532 148.51L339.147 148.379C340.045 147.531 341.026 146.776 342.075 146.124C342.785 145.658 343.33 144.978 343.631 144.184C343.722 143.383 343.675 142.573 343.491 141.789C343.272 140.207 343.159 138.765 343.097 137.559C343.036 136.353 343.028 135.374 343.036 134.701C343.006 134.351 343.021 133.998 343.08 133.652Z" fill="#263238"/>
<path d="M385.093 135.33C384.56 135.951 365.332 161.69 365.332 161.69L368.041 163.228L387.759 137.882L385.093 135.33Z" fill="#263238"/>
<path d="M307.893 155.642C307.893 155.642 328.108 184.746 329.332 185.314C331.727 186.442 359.38 162.547 362.02 160.257C362.387 159.767 363.138 158.745 364.642 156.708C364.642 156.708 366.827 146.727 369.151 147.488C371.476 148.248 367.875 152.566 369.396 156.359C370.917 160.152 377.856 151.115 378.136 150.293L379.928 147.951C379.928 147.951 381.807 153.274 381.676 155.502C381.265 162.625 374.527 171.094 374.527 171.094C374.527 171.094 344.26 208.589 323.529 209.751C317.559 210.084 306.923 193.145 299.852 180.437C297.787 176.727 297.151 172.389 298.064 168.241C298.977 164.094 301.375 160.424 304.808 157.923L307.893 155.642Z" fill="#FFBE9D"/>
<path d="M378.241 156.761C378.628 155.866 379.06 154.991 379.535 154.139C379.924 153.242 380.362 152.367 380.846 151.517C380.295 153.408 379.406 155.185 378.224 156.761H378.241Z" fill="#EB996E"/>
<path d="M304.475 141.439C304.475 141.439 282.774 149.157 298.908 185.646L323.957 170.526L320.391 161.996L304.475 141.439Z" fill="#455A64"/>
<path d="M302.815 142.077C303.695 141.996 304.582 142.07 305.437 142.296C306.437 142.555 307.394 142.958 308.277 143.493C309.445 144.221 310.51 145.103 311.441 146.115C313.808 148.758 315.791 151.721 317.332 154.917C319.167 158.465 320.88 162.512 322.637 166.751C323.162 168.027 323.686 169.276 324.175 170.465L324.254 170.657L324.07 170.753C316.825 174.704 310.515 178.401 306.057 181.172C303.82 182.552 302.046 183.689 300.813 184.475L299.415 185.349C299.255 185.46 299.085 185.557 298.908 185.638C299.047 185.503 299.199 185.383 299.362 185.279C299.668 185.052 300.123 184.72 300.726 184.309C301.915 183.435 303.671 182.299 305.883 180.883C310.305 178.043 316.598 174.284 323.852 170.325L323.747 170.605C323.258 169.416 322.733 168.166 322.209 166.89C320.461 162.651 318.713 158.614 316.965 155.074C315.453 151.913 313.518 148.973 311.214 146.334C310.313 145.33 309.285 144.449 308.155 143.712C307.29 143.169 306.355 142.749 305.376 142.462C304.534 142.261 303.678 142.133 302.815 142.077Z" fill="#263238"/>
<path d="M349.486 87.9768C349.542 88.0986 349.577 88.2284 349.591 88.3614C349.658 88.7333 349.681 89.1116 349.661 89.4888C349.577 90.9081 348.988 92.2506 348.001 93.2732C347.25 94.0219 346.312 94.5543 345.284 94.8142C344.257 95.0742 343.178 95.0521 342.162 94.7503C340.932 94.423 339.867 93.6506 339.173 92.5828C338.806 91.9935 338.649 91.2974 338.727 90.6075C338.767 90.248 338.884 89.9011 339.069 89.5905C339.255 89.2799 339.505 89.0127 339.803 88.8071C340.113 88.6116 340.467 88.4964 340.834 88.472C341.2 88.4476 341.566 88.5147 341.9 88.6673C342.548 88.9421 343.063 89.4598 343.333 90.1094C343.549 90.7153 343.609 91.3656 343.508 92.0008C343.408 92.636 343.149 93.2357 342.757 93.7452C342.1 94.5946 341.165 95.1849 340.116 95.412C339.067 95.6391 337.972 95.4883 337.023 94.9863C336.339 94.6279 335.614 94.3521 334.864 94.1647C334.304 94.0385 333.717 94.0999 333.195 94.3395C332.758 94.5756 332.342 94.8506 331.954 95.1611C331.954 95.1611 332.033 95.0475 332.207 94.8552C332.315 94.735 332.435 94.6266 332.566 94.5318C332.737 94.3897 332.925 94.2694 333.125 94.1735C333.665 93.9036 334.277 93.8118 334.873 93.9113C335.652 94.0794 336.406 94.3436 337.119 94.6979C337.524 94.8764 337.946 95.014 338.378 95.1086C338.843 95.1956 339.32 95.1956 339.785 95.1086C340.832 94.9425 341.772 94.375 342.407 93.5267C342.752 93.0751 342.98 92.5444 343.068 91.9828C343.157 91.4212 343.104 90.8463 342.914 90.3104C342.81 90.0394 342.65 89.7933 342.444 89.5882C342.239 89.383 341.993 89.2233 341.721 89.1195C341.45 89.0157 341.16 88.97 340.87 88.9854C340.58 89.0009 340.297 89.0771 340.038 89.2091C339.797 89.3819 339.594 89.6035 339.444 89.8594C339.293 90.1153 339.198 90.3999 339.164 90.6949C339.102 91.2843 339.238 91.8776 339.549 92.3818C340.183 93.3579 341.153 94.0671 342.276 94.3745C343.224 94.665 344.232 94.6975 345.197 94.4686C346.162 94.2397 347.048 93.7577 347.765 93.0722C348.726 92.1149 349.328 90.8555 349.469 89.5063C349.506 88.9973 349.512 88.4865 349.486 87.9768Z" fill="#455A64"/>
<path d="M344.758 120.935C344.758 120.988 344.496 121.11 344.015 121.128C343.385 121.136 342.763 120.993 342.2 120.71C341.637 120.427 341.15 120.013 340.781 119.502C340.519 119.1 340.44 118.812 340.493 118.785C341.068 119.367 341.711 119.877 342.407 120.306C343.163 120.61 343.952 120.821 344.758 120.935Z" fill="#263238"/>
<path d="M321.842 117.116C321.885 117.116 322.13 117.501 321.842 118.104C321.751 118.274 321.626 118.424 321.476 118.546C321.326 118.667 321.153 118.758 320.968 118.812C320.73 118.865 320.482 118.86 320.247 118.798C320.011 118.735 319.794 118.617 319.613 118.453C319.416 118.292 319.259 118.088 319.154 117.856C319.049 117.624 319 117.37 319.01 117.116C319.025 116.732 319.166 116.363 319.412 116.067C319.832 115.578 320.286 115.525 320.286 115.578C320.286 115.63 319.971 115.796 319.692 116.259C319.513 116.528 319.436 116.852 319.474 117.172C319.512 117.493 319.664 117.789 319.902 118.007C320.03 118.124 320.183 118.211 320.349 118.261C320.516 118.311 320.691 118.323 320.863 118.296C321.151 118.231 321.406 118.063 321.58 117.824C321.859 117.466 321.772 117.116 321.842 117.116Z" fill="#263238"/>
<path d="M350.929 90.896C351.216 91.3822 351.362 91.9394 351.348 92.5042C351.417 93.8845 350.95 95.238 350.044 96.282C349.139 97.326 347.865 97.9797 346.489 98.1065C345.931 98.2019 345.358 98.1352 344.837 97.9142C344.837 97.8356 345.475 97.9142 346.445 97.7831C347.704 97.5895 348.854 96.9571 349.692 95.9975C350.53 95.0379 351.002 93.8129 351.025 92.5391C351.051 91.5428 350.85 90.9397 350.929 90.896Z" fill="#455A64"/>
<path d="M321.37 164.05C321.422 164.163 315.663 167.126 308.496 170.666C301.329 174.206 295.482 176.994 295.386 176.88C295.29 176.766 301.084 173.804 308.251 170.255C315.418 166.707 321.317 163.936 321.37 164.05Z" fill="#E0E0E0"/>
<path d="M316.117 154.139C316.178 154.244 311.048 157.119 304.659 160.545C298.27 163.971 293.044 166.663 292.991 166.55C292.939 166.436 298.06 163.569 304.449 160.143C310.838 156.717 316.056 154.025 316.117 154.139Z" fill="#E0E0E0"/>
<path d="M311.039 146.124C310.223 146.689 309.367 147.195 308.478 147.636L302.203 151.132L295.963 154.698C295.124 155.232 294.247 155.705 293.341 156.114C294.113 155.482 294.937 154.918 295.805 154.427C297.361 153.439 299.537 152.128 301.984 150.739C304.432 149.349 306.687 148.178 308.338 147.356C309.202 146.869 310.105 146.457 311.039 146.124Z" fill="#E0E0E0"/>
<path d="M330.241 144.21C329.65 144.183 329.071 144.028 328.545 143.756C327.265 143.182 326.084 142.405 325.049 141.457C324.012 140.51 323.059 139.475 322.2 138.363C321.808 137.935 321.476 137.456 321.213 136.938C321.265 136.938 321.719 137.367 322.445 138.162C323.17 138.957 324.149 140.041 325.355 141.116C326.371 142.039 327.502 142.826 328.72 143.459C329.62 143.957 330.258 144.158 330.241 144.21Z" fill="#E0E0E0"/>
<path d="M342.984 139.49C342.695 140.544 342.057 141.469 341.175 142.112C340.392 142.877 339.371 143.349 338.282 143.45C339.188 142.939 340.063 142.375 340.904 141.763C341.635 141.041 342.329 140.282 342.984 139.49Z" fill="#E0E0E0"/>
<path d="M365.717 152.644C365.558 152.693 365.393 152.723 365.227 152.732L363.82 152.906C362.596 153.046 360.822 153.212 358.637 153.387C354.267 153.737 348.149 154.078 341.481 154.322C334.812 154.567 328.703 154.646 324.298 154.611C322.104 154.611 320.321 154.55 319.097 154.506L317.682 154.436C317.517 154.436 317.352 154.416 317.192 154.375C317.355 154.354 317.519 154.354 317.682 154.375H319.097L324.298 154.331C328.668 154.287 334.786 154.148 341.463 153.912C348.14 153.676 354.224 153.37 358.611 153.107L363.803 152.775L365.218 152.688C365.382 152.651 365.549 152.636 365.717 152.644Z" fill="#E0E0E0"/>
<path d="M358.812 163.01C358.34 163.118 357.861 163.194 357.379 163.237C356.443 163.351 355.097 163.491 353.437 163.648C350.107 163.954 345.501 164.268 340.406 164.478C335.31 164.688 330.687 164.732 327.296 164.697C325.626 164.697 324.272 164.644 323.336 164.609C322.85 164.613 322.365 164.575 321.885 164.496C322.367 164.438 322.852 164.415 323.336 164.426L327.296 164.373C330.634 164.373 335.249 164.225 340.336 164.024C345.422 163.823 350.037 163.552 353.367 163.325L357.317 163.054C357.813 162.992 358.314 162.978 358.812 163.01Z" fill="#E0E0E0"/>
<path d="M343.141 175.788C342.19 176.007 341.223 176.145 340.248 176.199C338.448 176.382 335.966 176.583 333.213 176.723C330.459 176.863 327.969 176.906 326.159 176.898C325.185 176.944 324.208 176.906 323.24 176.784C324.203 176.637 325.176 176.567 326.151 176.574L333.186 176.268L340.178 175.875C341.163 175.778 342.153 175.749 343.141 175.788Z" fill="#E0E0E0"/>
<path d="M323.118 145.46C323.118 145.591 320.435 145.617 317.131 145.757C313.827 145.897 311.162 146.08 311.144 145.949C315.095 145.251 319.123 145.086 323.118 145.46Z" fill="#E0E0E0"/>
<path d="M359.983 144.988C357.402 145.2 354.811 145.264 352.222 145.18C349.629 145.248 347.035 145.164 344.452 144.927C347.036 144.708 349.63 144.641 352.222 144.726C354.812 144.657 357.404 144.744 359.983 144.988Z" fill="#E0E0E0"/>
<path d="M361.329 198.171C361.083 198.354 360.816 198.506 360.534 198.625C360.009 198.896 359.232 199.255 358.261 199.665C355.712 200.715 353.082 201.554 350.395 202.174C347.711 202.786 344.981 203.181 342.232 203.354C341.183 203.415 340.327 203.432 339.733 203.415C339.44 203.428 339.147 203.408 338.859 203.354C338.859 203.284 340.152 203.231 342.241 203.03C344.961 202.769 347.661 202.334 350.325 201.728C352.997 201.114 355.625 200.323 358.191 199.359C360.088 198.625 361.303 198.101 361.329 198.171Z" fill="#E0E0E0"/>
<path d="M125.235 317.131C146.131 317.131 163.071 300.97 163.071 281.035C163.071 261.099 146.131 244.938 125.235 244.938C104.339 244.938 87.4 261.099 87.4 281.035C87.4 300.97 104.339 317.131 125.235 317.131Z" fill="#E0E0E0"/>
<path d="M117.527 194.028C111.531 194.342 109.171 200.6 108.455 201.999C107.839 203.448 107.513 205.004 107.493 206.578C107.475 208.155 107.079 209.705 106.34 211.097C105.02 213.203 102.241 214.296 101.489 216.664C100.615 219.348 102.826 222.214 102.241 224.967C101.926 226.444 100.851 227.659 100.493 229.119C100.162 230.679 100.454 232.307 101.305 233.655C103.272 237.046 107.362 238.742 111.278 238.899C115.193 239.056 119.021 237.868 122.771 236.714" fill="#263238"/>
<path d="M143.939 201.789C143.709 202.452 143.669 203.166 143.823 203.85C143.978 204.534 144.321 205.161 144.813 205.661C145.82 206.626 146.908 207.504 148.064 208.283C148.642 208.681 149.136 209.19 149.517 209.779C149.898 210.368 150.159 211.027 150.284 211.718C150.398 212.994 149.751 214.27 149.926 215.537C150.38 218.815 155.598 219.793 155.869 223.08C156.061 225.273 153.807 227.292 154.436 229.399C154.776 230.189 155.217 230.932 155.747 231.61C157.233 234.075 156.228 237.466 154.077 239.371C151.927 241.276 148.956 241.949 146.089 242.08C143.677 242.185 140.933 241.792 139.517 239.843C138.214 238.051 138.485 235.622 138.739 233.428C139.954 223.185 139.744 212.836 139.543 202.523" fill="#263238"/>
<path d="M119.109 249.186C119.152 243.802 119.109 238.139 119.109 238.139C119.109 238.139 112.195 236.906 110.858 227.852C109.591 219.208 111.732 200.627 111.732 200.627C121.757 196.667 133.049 198.197 140.067 206.264L138.966 249.964C138.844 255.033 134.377 258.966 128.95 258.791C123.47 258.608 119.065 254.334 119.109 249.186Z" fill="#FFBE9D"/>
<path d="M113.62 214.89C113.613 215.193 113.724 215.486 113.929 215.708C114.135 215.93 114.419 216.063 114.721 216.079C114.869 216.092 115.018 216.076 115.159 216.031C115.3 215.986 115.431 215.913 115.544 215.817C115.657 215.721 115.75 215.604 115.818 215.472C115.885 215.34 115.925 215.195 115.936 215.048C115.941 214.744 115.828 214.451 115.621 214.229C115.414 214.007 115.129 213.875 114.826 213.859C114.679 213.846 114.53 213.862 114.39 213.907C114.249 213.952 114.118 214.025 114.006 214.121C113.894 214.217 113.802 214.334 113.735 214.467C113.669 214.599 113.63 214.743 113.62 214.89Z" fill="#263238"/>
<path d="M111.758 213.999C111.898 214.147 112.781 213.509 114.031 213.527C116.382 213.868 116.338 214.226 116.321 214.025C116.391 213.964 116.251 213.684 115.849 213.396C115.317 213.012 114.678 212.804 114.022 212.801C113.371 212.795 112.735 212.994 112.204 213.37C111.82 213.658 111.688 213.929 111.758 213.999Z" fill="#263238"/>
<path d="M126.398 215.266C126.391 215.568 126.502 215.86 126.708 216.081C126.914 216.301 127.198 216.432 127.499 216.446C127.647 216.46 127.795 216.445 127.937 216.4C128.078 216.356 128.209 216.283 128.322 216.187C128.434 216.091 128.526 215.973 128.592 215.84C128.658 215.707 128.696 215.563 128.705 215.415C128.712 215.112 128.601 214.819 128.396 214.597C128.19 214.375 127.906 214.242 127.604 214.226C127.456 214.214 127.308 214.232 127.167 214.278C127.026 214.324 126.896 214.397 126.783 214.494C126.671 214.591 126.579 214.709 126.513 214.841C126.447 214.974 126.408 215.118 126.398 215.266Z" fill="#263238"/>
<path d="M124.772 214.427C124.912 214.584 125.804 213.938 127.045 213.955C128.286 213.973 129.203 214.611 129.343 214.462C129.483 214.314 129.265 214.121 128.871 213.824C128.336 213.441 127.694 213.236 127.036 213.239C126.386 213.227 125.749 213.423 125.218 213.798C124.833 214.13 124.702 214.357 124.772 214.427Z" fill="#263238"/>
<path d="M120.131 223.385C119.479 223.163 118.8 223.031 118.112 222.992C117.798 222.992 117.492 222.887 117.439 222.669C117.421 222.339 117.5 222.01 117.667 221.725L118.637 219.313C119.531 217.263 120.264 215.148 120.83 212.985C120.691 212.932 119.485 215.686 118.13 219.103C117.806 219.977 117.501 220.763 117.203 221.533C116.995 221.914 116.93 222.357 117.02 222.782C117.064 222.897 117.134 222.999 117.225 223.081C117.317 223.163 117.426 223.223 117.544 223.254C117.717 223.308 117.897 223.335 118.077 223.333C118.757 223.437 119.447 223.454 120.131 223.385Z" fill="#263238"/>
<path d="M119.1 238.139C123.357 238.254 127.562 237.186 131.249 235.053C131.249 235.053 128.242 241.233 119.196 240.297L119.1 238.139Z" fill="#EB996E"/>
<path d="M120.612 226.366C120.854 226.07 121.167 225.841 121.521 225.699C121.876 225.557 122.261 225.506 122.64 225.553C122.928 225.578 123.207 225.663 123.46 225.803C123.713 225.943 123.934 226.135 124.108 226.366C124.272 226.577 124.367 226.834 124.382 227.101C124.396 227.368 124.328 227.633 124.187 227.86C123.982 228.08 123.717 228.235 123.424 228.305C123.132 228.374 122.826 228.357 122.544 228.254C121.957 228.038 121.419 227.708 120.962 227.284C120.823 227.18 120.705 227.053 120.612 226.908C120.565 226.839 120.54 226.759 120.54 226.676C120.54 226.593 120.565 226.513 120.612 226.445" fill="#EB996E"/>
<path d="M123.802 224.286C123.592 224.286 123.575 225.632 122.404 226.576C121.233 227.52 119.782 227.362 119.782 227.546C119.782 227.729 120.105 227.817 120.708 227.834C121.504 227.862 122.283 227.601 122.902 227.1C123.493 226.624 123.879 225.939 123.977 225.186C124.038 224.618 123.889 224.277 123.802 224.286Z" fill="#263238"/>
<path d="M136.134 199.814C132.831 204.533 124.064 209.384 117.78 210.512C118.506 209.55 122.36 207.173 123.094 206.211C120.254 208.327 116.181 211.176 112.414 211.359C111.969 211.425 111.516 211.355 111.112 211.158C110.9 210.989 110.731 210.773 110.617 210.528C110.503 210.282 110.448 210.013 110.456 209.742C110.242 207.008 110.33 204.259 110.718 201.544C111.017 199.25 112.184 197.158 113.978 195.697C116.399 193.827 119.852 193.372 123.112 193.294C125.84 193.117 128.577 193.485 131.161 194.378C133.661 195.356 135.802 197.305 136.169 199.622" fill="#263238"/>
<path d="M145.626 220.956C146.04 218.959 146.332 216.94 146.5 214.908C146.771 210.241 145.425 193.058 129.334 194.404L128.679 199.307C128.679 199.307 126.197 216.079 136.606 216.201C137.306 219.946 139.136 223.387 141.85 226.06C141.85 226.06 144.577 225.981 145.556 220.956" fill="#263238"/>
<path d="M136.632 216.201C137.604 216.01 138.61 216.086 139.543 216.42C140.477 216.772 141.234 217.479 141.649 218.386C142.012 219.313 142.012 220.343 141.649 221.27C141.275 222.189 140.702 223.012 139.971 223.683C139.49 224.2 138.89 224.593 138.223 224.828C137.887 224.944 137.527 224.974 137.176 224.916C136.825 224.858 136.494 224.714 136.213 224.496" fill="#FFBE9D"/>
<path d="M137.096 222.074C136.982 222.074 137.402 222.695 138.284 222.468C138.522 222.393 138.742 222.27 138.931 222.108C139.12 221.946 139.275 221.747 139.386 221.524C139.659 221.033 139.832 220.492 139.892 219.933C139.976 219.322 139.836 218.701 139.499 218.185C139.363 217.969 139.178 217.788 138.96 217.656C138.741 217.524 138.495 217.445 138.241 217.425C137.367 217.425 137.043 218.019 137.139 218.037C137.235 218.054 137.568 217.792 138.162 217.94C138.526 218.082 138.826 218.35 139.007 218.695C139.189 219.041 139.239 219.44 139.15 219.82C139.036 220.816 138.643 221.725 138.109 221.943C137.576 222.162 137.157 221.996 137.096 222.074Z" fill="#EB996E"/>
<path d="M138.389 198.048C139.637 198.756 141.111 198.948 142.498 198.582C143.885 198.216 145.074 197.322 145.809 196.09C146.319 195.318 146.501 194.375 146.316 193.468C146.11 192.876 145.752 192.348 145.278 191.937C144.804 191.527 144.231 191.247 143.616 191.126C142.736 190.897 141.813 190.887 140.929 191.099C140.045 191.311 139.227 191.738 138.546 192.341C137.881 192.964 137.405 193.762 137.173 194.643C136.942 195.524 136.963 196.453 137.235 197.323C137.544 198.177 138.112 198.914 138.859 199.431C139.606 199.948 140.496 200.219 141.404 200.207" fill="#263238"/>
<path d="M139.84 224.128C138.919 224.74 138.079 225.465 137.34 226.287C136.601 227.123 136.215 228.214 136.265 229.329C136.401 229.931 136.468 230.547 136.466 231.164C136.2 231.973 135.769 232.717 135.199 233.349C134.671 234.316 134.465 235.427 134.611 236.519C134.758 237.612 135.248 238.629 136.012 239.423C137.598 240.983 139.739 241.851 141.964 241.836C143.244 241.945 144.525 241.639 145.617 240.962C147.12 239.913 147.697 237.938 147.741 236.093" fill="#263238"/>
<path d="M140.941 201.658C140.719 202.254 140.4 202.809 139.997 203.301C139.109 204.557 138.066 205.696 136.895 206.692C135.732 207.7 134.449 208.56 133.075 209.253C132.532 209.572 131.942 209.805 131.327 209.943C133.184 208.887 134.955 207.686 136.624 206.351C138.183 204.902 139.627 203.333 140.941 201.658Z" fill="#455A64"/>
<path d="M142.611 201.562C142.635 202.31 142.538 203.057 142.322 203.773C141.891 205.523 141.202 207.199 140.277 208.746C139.346 210.289 138.188 211.682 136.842 212.88C136.309 213.406 135.696 213.843 135.024 214.174C136.893 212.514 138.528 210.609 139.884 208.51C141.107 206.33 142.024 203.992 142.611 201.562Z" fill="#455A64"/>
<path d="M107.677 208.886C107.808 208.886 107.983 210.389 108.551 212.181C109.119 213.973 109.722 215.345 109.6 215.406C108.247 213.509 107.57 211.213 107.677 208.886Z" fill="#455A64"/>
<path d="M146.229 239.773C146.625 240.033 147.084 240.181 147.557 240.201C148.107 240.194 148.643 240.024 149.096 239.712C149.677 239.284 150.088 238.665 150.258 237.964C150.467 237.102 150.467 236.203 150.258 235.342C150.074 234.389 149.707 233.41 149.384 232.335C148.988 231.215 148.854 230.019 148.991 228.839C149.192 227.563 150.022 226.523 150.424 225.343C150.614 224.78 150.69 224.184 150.646 223.592C150.603 222.999 150.441 222.421 150.171 221.891C149.673 220.887 148.819 220.105 147.776 219.697C147.263 219.506 146.762 219.287 146.273 219.042C145.785 218.801 145.371 218.432 145.075 217.976C144.641 217.126 144.454 216.173 144.533 215.222C144.592 214.482 144.563 213.736 144.446 213.002C144.35 212.456 144.125 211.941 143.79 211.499C143.489 211.131 143.074 210.872 142.611 210.765C142.737 210.734 142.869 210.734 142.995 210.765C143.358 210.859 143.683 211.06 143.93 211.342C144.301 211.799 144.564 212.334 144.699 212.906C144.849 213.657 144.901 214.423 144.857 215.187C144.795 216.069 144.983 216.951 145.399 217.731C145.888 218.535 146.902 218.867 147.933 219.278C149.074 219.713 150.01 220.562 150.555 221.655C150.855 222.237 151.035 222.873 151.086 223.526C151.137 224.179 151.058 224.835 150.852 225.457C150.398 226.707 149.594 227.703 149.419 228.848C149.286 229.971 149.408 231.109 149.777 232.178C150.083 233.227 150.442 234.232 150.651 235.22C150.846 236.145 150.819 237.103 150.573 238.016C150.365 238.784 149.891 239.453 149.235 239.904C148.736 240.231 148.145 240.39 147.549 240.359C147.175 240.342 146.812 240.224 146.5 240.018C146.393 239.956 146.301 239.873 146.229 239.773Z" fill="#455A64"/>
<path d="M139.919 239.152C139.919 239.152 140.032 239.432 140.452 239.633C140.746 239.755 141.072 239.776 141.379 239.692C141.686 239.608 141.956 239.424 142.147 239.17C142.373 238.744 142.479 238.264 142.454 237.783C142.43 237.301 142.275 236.835 142.008 236.434C141.509 235.447 140.522 234.476 140.26 233.034C140.188 232.683 140.194 232.321 140.277 231.972C140.36 231.623 140.518 231.297 140.74 231.015C141.168 230.491 141.675 230.141 141.999 229.713C142.558 228.896 142.778 227.893 142.611 226.916C142.503 226.242 142.336 225.578 142.112 224.932C142.011 224.698 141.94 224.451 141.903 224.198C141.903 224.198 142.069 224.425 142.27 224.871C142.575 225.507 142.795 226.18 142.925 226.873C143.037 227.4 143.043 227.944 142.942 228.474C142.842 229.004 142.637 229.508 142.34 229.958C141.964 230.465 141.466 230.832 141.099 231.295C140.915 231.528 140.785 231.798 140.717 232.086C140.649 232.375 140.645 232.674 140.705 232.964C140.915 234.214 141.841 235.167 142.375 236.242C142.662 236.712 142.814 237.251 142.814 237.802C142.814 238.353 142.662 238.893 142.375 239.362C142.242 239.535 142.075 239.678 141.884 239.781C141.692 239.885 141.482 239.948 141.265 239.965C140.945 240.003 140.622 239.942 140.338 239.79C139.901 239.476 139.901 239.144 139.919 239.152Z" fill="#455A64"/>
<path d="M105.658 236.854C105.39 236.649 105.149 236.411 104.941 236.146C104.317 235.464 103.804 234.688 103.42 233.847C103.161 233.246 103.036 232.596 103.053 231.942C103.057 231.167 103.329 230.416 103.822 229.818C104.364 229.198 105.151 228.866 105.623 228.28C105.852 227.958 106.003 227.588 106.065 227.199C106.127 226.809 106.099 226.41 105.981 226.034C105.768 225.226 105.447 224.45 105.029 223.726C104.618 223.011 104.324 222.235 104.155 221.428C104.013 220.664 104.173 219.874 104.6 219.225C104.982 218.707 105.428 218.24 105.929 217.836C106.652 217.312 107.178 216.561 107.423 215.703C107.483 215.385 107.483 215.059 107.423 214.742C107.423 214.742 107.493 214.812 107.554 214.969C107.642 215.212 107.669 215.473 107.633 215.729C107.444 216.658 106.929 217.489 106.182 218.072C105.721 218.475 105.308 218.929 104.95 219.426C104.588 220.001 104.462 220.693 104.6 221.358C104.78 222.118 105.075 222.846 105.474 223.517C105.916 224.272 106.254 225.084 106.479 225.929C106.609 226.372 106.635 226.838 106.556 227.293C106.477 227.747 106.296 228.177 106.025 228.551C105.431 229.25 104.644 229.556 104.189 230.089C103.747 230.607 103.497 231.261 103.482 231.942C103.455 232.538 103.553 233.134 103.77 233.69C104.113 234.52 104.572 235.296 105.133 235.997C105.335 236.265 105.511 236.552 105.658 236.854Z" fill="#455A64"/>
<path d="M142.104 199.185C141.479 198.337 140.764 197.561 139.971 196.869C139.09 196.295 138.15 195.821 137.166 195.453C138.278 195.47 139.356 195.841 140.244 196.512C141.132 197.183 141.783 198.119 142.104 199.185Z" fill="#9255FA"/>
<path d="M143.336 190.82C143.388 190.82 143.677 191.135 143.913 191.808C144.215 192.703 144.243 193.669 143.992 194.58C143.741 195.491 143.223 196.306 142.506 196.921C141.946 197.384 141.527 197.524 141.501 197.48C141.474 197.436 141.824 197.183 142.278 196.694C142.883 196.069 143.322 195.302 143.554 194.464C143.786 193.626 143.804 192.742 143.607 191.895C143.486 191.546 143.395 191.186 143.336 190.82Z" fill="#455A64"/>
<path opacity="0.3" d="M98.9805 298.331C98.9805 298.331 120.699 318.957 133.608 315.217C146.517 311.476 150.328 301.801 150.328 301.801L150.643 298.305L149.349 297.431L99.636 293.463L98.9805 298.331Z" fill="black"/>
<path d="M86.1414 279.016L90.3279 268.318L105.334 277.748L91.9623 298.366C91.9623 298.366 86.526 291.269 86.1414 279.016Z" fill="#EB996E"/>
<path d="M103.071 249.352C110.063 245.699 119.1 244.65 119.1 244.65C121.722 249.894 129.999 250.567 135.007 246.984L139.237 244.126C139.821 244.117 140.404 244.143 140.985 244.204C145.809 244.657 150.359 246.652 153.961 249.893C157.563 253.135 160.025 257.45 160.982 262.2C161.816 265.927 162.172 269.745 162.04 273.562C161.489 283.115 151.604 283.98 151.604 283.98C151.604 283.98 151.097 293.41 150.424 301.04C150.279 303.698 149.393 306.262 147.865 308.442C146.337 310.622 144.229 312.33 141.78 313.373C138.318 315.104 134.595 316.253 130.759 316.772C124.771 317.71 118.645 317.164 112.917 315.183C107.19 313.202 102.035 309.847 97.9055 305.41C99.4087 296.321 100.842 284.548 100.737 284.015C100.72 283.958 100.72 283.897 100.737 283.84L90.9397 275.144L85.381 270.477C85.381 270.477 97.617 252.385 103.053 249.413" fill="#9255FA"/>
<path d="M115.219 255.208C114.48 254.788 113.649 254.557 112.798 254.535C111.89 254.533 111.008 254.841 110.299 255.409C109.896 255.779 109.522 256.179 109.18 256.606C108.79 257.129 108.231 257.499 107.598 257.655C106.943 257.737 106.282 257.562 105.754 257.166C105.247 256.842 104.819 256.493 104.373 256.239C103.99 256.014 103.561 255.877 103.118 255.837C102.675 255.798 102.229 255.858 101.812 256.012C101.228 256.211 100.711 256.568 100.318 257.043C100.047 257.384 99.9506 257.611 99.9069 257.594C99.9398 257.356 100.033 257.13 100.178 256.938C100.544 256.381 101.076 255.953 101.699 255.715C102.159 255.518 102.659 255.429 103.159 255.457C103.659 255.484 104.146 255.626 104.583 255.872C105.072 256.134 105.509 256.493 105.99 256.79C106.428 257.12 106.975 257.27 107.519 257.209C108.049 257.073 108.519 256.766 108.857 256.335C109.211 255.892 109.606 255.482 110.037 255.112C110.825 254.503 111.803 254.194 112.798 254.238C113.456 254.261 114.098 254.444 114.669 254.771C115.071 255.016 115.237 255.208 115.219 255.208Z" fill="#FAFAFA"/>
<path d="M125.174 268.318C124.61 267.68 123.895 267.193 123.094 266.902C122.244 266.611 121.322 266.611 120.472 266.902C119.977 267.128 119.498 267.388 119.039 267.68C118.501 268.048 117.853 268.221 117.203 268.169C116.556 268.038 115.985 267.658 115.613 267.112C115.237 266.649 114.94 266.177 114.599 265.792C114.308 265.457 113.946 265.19 113.539 265.012C113.133 264.834 112.692 264.748 112.248 264.761C111.631 264.767 111.027 264.939 110.5 265.259C110.133 265.495 109.967 265.678 109.932 265.652C109.897 265.626 110.045 265.408 110.404 265.11C111.072 264.608 111.903 264.371 112.736 264.445C113.569 264.52 114.344 264.9 114.913 265.512C115.289 265.923 115.595 266.386 115.954 266.832C116.268 267.275 116.735 267.586 117.265 267.706C117.816 267.735 118.362 267.585 118.82 267.278C119.299 266.969 119.805 266.706 120.332 266.491C121.278 266.168 122.308 266.196 123.234 266.57C123.854 266.797 124.407 267.175 124.842 267.671C125.104 268.03 125.192 268.266 125.174 268.318Z" fill="#FAFAFA"/>
<path d="M147.295 249.177C146.483 248.925 145.623 248.874 144.787 249.029C143.897 249.218 143.098 249.705 142.523 250.41C142.213 250.855 141.936 251.323 141.693 251.808C141.419 252.404 140.951 252.888 140.364 253.18C139.74 253.389 139.06 253.354 138.459 253.084C137.9 252.874 137.402 252.621 136.912 252.464C136.489 252.327 136.04 252.285 135.599 252.343C135.157 252.4 134.734 252.555 134.36 252.796C133.835 253.116 133.407 253.572 133.119 254.116C132.927 254.5 132.874 254.754 132.839 254.745C132.804 254.736 132.839 254.483 132.962 254.037C133.278 253.262 133.871 252.632 134.625 252.269C135.378 251.906 136.24 251.835 137.043 252.07C137.576 252.228 138.083 252.472 138.608 252.665C139.104 252.897 139.671 252.928 140.19 252.752C140.681 252.499 141.075 252.091 141.308 251.59C141.556 251.084 141.848 250.601 142.182 250.148C142.829 249.387 143.723 248.879 144.708 248.714C145.356 248.593 146.023 248.638 146.648 248.845C146.889 248.899 147.112 249.013 147.295 249.177Z" fill="#FAFAFA"/>
<path d="M137.087 263.511C136.652 263.029 136.119 262.648 135.522 262.392C134.879 262.142 134.169 262.12 133.512 262.331C133.122 262.481 132.745 262.662 132.385 262.873C131.946 263.144 131.428 263.258 130.916 263.196C130.411 263.073 129.973 262.76 129.693 262.322C129.422 261.947 129.212 261.571 128.967 261.265C128.76 260.998 128.495 260.781 128.193 260.629C127.89 260.478 127.558 260.397 127.219 260.391C126.573 260.395 125.943 260.592 125.41 260.959C125.41 260.959 125.498 260.767 125.777 260.548C126.311 260.175 126.965 260.014 127.611 260.096C128.258 260.178 128.85 260.498 129.273 260.994C129.553 261.326 129.78 261.702 130.034 262.043C130.25 262.393 130.59 262.649 130.986 262.759C131.79 262.899 132.525 262.174 133.364 261.938C134.114 261.719 134.917 261.778 135.627 262.104C136.86 262.654 137.139 263.528 137.087 263.511Z" fill="#FAFAFA"/>
<path d="M114.581 275.59C114.142 275.109 113.606 274.728 113.008 274.471C112.362 274.229 111.652 274.216 110.998 274.436C110.609 274.587 110.232 274.768 109.871 274.978C109.427 275.26 108.898 275.378 108.376 275.31C107.874 275.184 107.44 274.871 107.161 274.436C106.881 274.06 106.672 273.684 106.436 273.387C106.227 273.121 105.962 272.905 105.66 272.754C105.357 272.603 105.026 272.521 104.688 272.513C104.041 272.512 103.409 272.711 102.879 273.081C102.879 273.081 102.957 272.889 103.246 272.67C103.664 272.363 104.168 272.195 104.688 272.19C105.081 272.175 105.472 272.25 105.832 272.411C106.191 272.572 106.508 272.813 106.759 273.116C107.039 273.448 107.257 273.824 107.519 274.165C107.731 274.515 108.069 274.772 108.463 274.882C109.267 275.021 110.01 274.296 110.849 274.06C111.596 273.841 112.397 273.9 113.104 274.226C114.345 274.733 114.625 275.607 114.581 275.59Z" fill="#FAFAFA"/>
<path d="M135.619 275.869C135.056 275.542 134.424 275.351 133.774 275.31C133.085 275.285 132.407 275.494 131.852 275.904C131.537 276.172 131.245 276.464 130.978 276.778C130.649 277.175 130.197 277.449 129.693 277.556C129.172 277.594 128.656 277.432 128.251 277.102C127.866 276.839 127.552 276.551 127.219 276.341C126.936 276.159 126.616 276.042 126.282 275.998C125.948 275.954 125.609 275.985 125.288 276.088C124.677 276.303 124.145 276.695 123.758 277.215C123.758 277.215 123.758 277.005 123.977 276.7C124.277 276.275 124.701 275.955 125.192 275.782C125.558 275.64 125.953 275.586 126.344 275.622C126.735 275.658 127.113 275.785 127.447 275.992C127.814 276.21 128.146 276.499 128.504 276.735C128.819 276.998 129.223 277.129 129.632 277.102C130.436 276.979 130.899 276.053 131.616 275.555C132.255 275.108 133.033 274.904 133.809 274.978C134.159 274.981 134.502 275.063 134.816 275.217C135.129 275.371 135.403 275.594 135.619 275.869Z" fill="#FAFAFA"/>
<path d="M128.67 285.466C128.102 285.15 127.474 284.96 126.826 284.907C126.134 284.882 125.453 285.092 124.895 285.501C124.582 285.77 124.29 286.062 124.021 286.375C123.693 286.773 123.24 287.047 122.736 287.153C122.216 287.19 121.702 287.031 121.294 286.707C120.909 286.436 120.594 286.148 120.262 285.947C119.981 285.761 119.661 285.641 119.326 285.596C118.992 285.551 118.652 285.581 118.331 285.684C117.718 285.896 117.185 286.289 116.801 286.812C116.821 286.624 116.894 286.445 117.011 286.296C117.397 285.759 117.972 285.387 118.62 285.256C119.269 285.125 119.943 285.243 120.507 285.588C120.883 285.807 121.215 286.095 121.573 286.331C121.888 286.594 122.292 286.726 122.701 286.698C123.505 286.576 123.968 285.649 124.685 285.151C125.326 284.707 126.102 284.503 126.879 284.574C127.224 284.582 127.564 284.666 127.874 284.82C128.184 284.974 128.456 285.195 128.67 285.466Z" fill="#FAFAFA"/>
<path d="M113.996 309.291C113.549 308.816 113.007 308.441 112.405 308.19C111.755 307.961 111.045 307.961 110.395 308.19C110.008 308.349 109.634 308.539 109.276 308.758C108.842 309.033 108.327 309.15 107.817 309.09C107.308 308.97 106.866 308.656 106.584 308.216C106.305 307.849 106.086 307.473 105.841 307.176C105.631 306.912 105.366 306.696 105.064 306.546C104.762 306.395 104.431 306.311 104.093 306.302C103.445 306.311 102.816 306.522 102.293 306.905C102.293 306.905 102.372 306.704 102.651 306.477C103.07 306.17 103.574 305.999 104.093 305.987C104.484 305.964 104.874 306.031 105.235 306.183C105.595 306.334 105.917 306.566 106.174 306.861C106.453 307.193 106.68 307.569 106.943 307.901C107.162 308.249 107.506 308.499 107.904 308.601C108.708 308.732 109.434 307.997 110.273 307.727C111.02 307.501 111.823 307.551 112.536 307.866C113.742 308.434 114.04 309.3 113.996 309.291Z" fill="#FAFAFA"/>
<path d="M131.17 314.36C130.614 314.033 129.994 313.831 129.352 313.766C128.663 313.733 127.982 313.933 127.42 314.334C127.106 314.601 126.813 314.893 126.546 315.208C126.213 315.598 125.757 315.863 125.253 315.96C124.733 315.997 124.219 315.831 123.82 315.496C123.435 315.226 123.12 314.928 122.797 314.719C122.516 314.532 122.197 314.409 121.863 314.359C121.53 314.309 121.189 314.334 120.865 314.43C120.253 314.638 119.717 315.024 119.327 315.54C119.327 315.54 119.327 315.33 119.546 315.033C119.856 314.625 120.282 314.32 120.769 314.159C121.14 314.029 121.534 313.983 121.925 314.025C122.315 314.068 122.691 314.197 123.024 314.404C123.391 314.631 123.723 314.92 124.073 315.164C124.388 315.428 124.79 315.565 125.2 315.549C126.005 315.427 126.485 314.518 127.202 314.028C127.849 313.593 128.628 313.398 129.404 313.478C129.745 313.488 130.079 313.572 130.384 313.725C130.689 313.877 130.957 314.094 131.17 314.36Z" fill="#FAFAFA"/>
<path d="M74.5697 242.098C75.0941 242.718 94.3133 268.414 94.3133 268.414L91.6127 269.952L71.8865 244.606L74.5697 242.098Z" fill="#263238"/>
<path d="M149.568 260.452C149.568 260.452 131.546 291.54 130.34 292.108C127.936 293.236 100.283 269.332 97.6433 267.051C97.2849 266.561 96.5333 265.539 95.0213 263.502C95.0213 263.502 92.845 253.512 90.5114 254.281C88.1778 255.051 91.7875 259.359 90.2755 263.153C88.7634 266.946 81.8151 257.909 81.5355 257.087L79.7875 254.745C79.7875 254.745 77.9084 260.067 78.0395 262.296C78.4415 269.419 85.18 277.888 85.18 277.888C85.18 277.888 112.571 312.201 133.302 313.364C139.272 313.705 150.678 296.513 157.774 283.805C162.057 276.131 160.064 268.344 152.967 263.161L149.568 260.452Z" fill="#FFBE9D"/>
<path d="M81.4218 263.511C80.2389 261.935 79.3506 260.159 78.7998 258.267C78.8697 258.267 79.3854 259.447 80.1108 260.889C80.8362 262.331 81.483 263.476 81.4218 263.511Z" fill="#EB996E"/>
<path d="M148.72 251.764C148.012 252.193 131.24 283.307 131.24 283.307L152.819 300.201C156.117 292.007 158.976 283.643 161.384 275.144C162.188 272.094 161.777 263.939 160.641 260.793C159.033 256.327 156.603 257.437 152.959 254.823L148.72 251.764Z" fill="#9255FA"/>
<g opacity="0.7">
<path d="M155.808 251.764C155.808 251.764 155.598 251.642 155.196 251.441C154.61 251.143 153.956 251.007 153.3 251.048C152.265 251.145 151.284 251.553 150.485 252.219C149.417 253.073 148.48 254.08 147.706 255.208C146.756 256.618 145.881 258.077 145.084 259.578C144.21 261.16 143.214 262.855 142.2 264.638C140.163 268.196 137.917 272.111 135.575 276.219C134.133 278.71 132.743 281.131 131.432 283.403L131.38 283.123L145.975 294.66L150.214 298.06L151.333 298.987C151.47 299.087 151.596 299.201 151.709 299.327C151.56 299.249 151.419 299.155 151.289 299.048L150.118 298.174L145.801 294.87L131.109 283.508L130.951 283.386L131.1 283.176C132.411 280.903 133.801 278.482 135.225 275.983C137.585 271.884 139.84 267.986 141.885 264.429L144.804 259.386C145.601 257.884 146.476 256.425 147.426 255.016C148.237 253.858 149.222 252.832 150.345 251.974C151.191 251.301 152.221 250.899 153.3 250.82C153.984 250.796 154.66 250.969 155.249 251.319C155.401 251.403 155.548 251.5 155.686 251.607C155.773 251.712 155.817 251.756 155.808 251.764Z" fill="black"/>
</g>
<path d="M149.367 280.938C148.935 280.454 148.4 280.072 147.802 279.82C147.159 279.57 146.451 279.546 145.792 279.75C145.402 279.903 145.025 280.087 144.664 280.3C144.224 280.568 143.708 280.682 143.196 280.624C142.691 280.501 142.253 280.188 141.973 279.75C141.702 279.374 141.492 278.998 141.247 278.692C141.04 278.425 140.775 278.208 140.472 278.057C140.17 277.906 139.837 277.824 139.499 277.818C138.853 277.822 138.222 278.02 137.69 278.386C137.69 278.386 137.777 278.194 138.057 277.967C138.483 277.669 138.988 277.505 139.508 277.495C139.9 277.48 140.29 277.555 140.648 277.716C141.006 277.877 141.321 278.118 141.571 278.421C141.85 278.753 142.077 279.129 142.331 279.47C142.549 279.818 142.889 280.073 143.284 280.187C144.088 280.327 144.822 279.601 145.661 279.365C146.41 279.144 147.213 279.2 147.924 279.522C149.139 280.073 149.454 280.947 149.367 280.938Z" fill="#FAFAFA"/>
<path d="M159.225 276.918C158.947 276.327 158.534 275.809 158.019 275.406C157.466 274.997 156.793 274.785 156.105 274.803C155.69 274.851 155.278 274.927 154.873 275.03C154.376 275.17 153.847 275.139 153.37 274.943C152.916 274.682 152.581 274.256 152.434 273.754C152.277 273.317 152.172 272.88 152.024 272.548C151.894 272.236 151.697 271.956 151.446 271.729C151.195 271.502 150.897 271.334 150.573 271.237C149.949 271.066 149.288 271.088 148.676 271.298C148.676 271.298 148.807 271.132 149.139 271.001C149.626 270.816 150.159 270.792 150.66 270.931C151.043 271.022 151.401 271.2 151.704 271.452C152.007 271.704 152.248 272.022 152.408 272.382C152.583 272.775 152.697 273.195 152.854 273.597C152.966 273.99 153.226 274.325 153.579 274.532C154.313 274.89 155.214 274.392 156.088 274.383C156.867 274.382 157.621 274.655 158.22 275.153C158.51 275.353 158.75 275.615 158.924 275.921C159.098 276.226 159.201 276.567 159.225 276.918Z" fill="#FAFAFA"/>
<path d="M159.732 264.053C159.449 263.467 159.037 262.953 158.526 262.549C157.975 262.137 157.3 261.924 156.612 261.946C156.195 261.986 155.783 262.062 155.38 262.174C154.882 262.315 154.352 262.281 153.876 262.077C153.425 261.818 153.091 261.396 152.941 260.898C152.784 260.461 152.679 260.024 152.53 259.683C152.398 259.372 152.199 259.094 151.949 258.868C151.698 258.642 151.402 258.472 151.08 258.372C150.456 258.201 149.795 258.222 149.183 258.433C149.183 258.433 149.314 258.276 149.646 258.136C150.134 257.955 150.665 257.93 151.167 258.066C151.549 258.161 151.904 258.341 152.206 258.592C152.509 258.843 152.751 259.159 152.915 259.517C153.09 259.91 153.203 260.338 153.361 260.731C153.473 261.127 153.733 261.465 154.086 261.675C154.82 262.025 155.721 261.527 156.595 261.527C157.375 261.517 158.132 261.791 158.727 262.296C159.015 262.495 159.254 262.757 159.428 263.061C159.602 263.365 159.706 263.703 159.732 264.053Z" fill="#FAFAFA"/>
<path d="M154.96 293.664C154.673 293.08 154.262 292.567 153.754 292.161C153.2 291.747 152.522 291.534 151.831 291.558C151.418 291.597 151.008 291.673 150.608 291.785C150.111 291.925 149.582 291.894 149.104 291.697C148.655 291.433 148.321 291.008 148.169 290.509C148.003 290.072 147.907 289.635 147.75 289.294C147.619 288.984 147.422 288.706 147.173 288.479C146.924 288.253 146.629 288.084 146.308 287.983C145.684 287.806 145.02 287.831 144.411 288.053C144.411 288.053 144.542 287.887 144.874 287.747C145.492 287.528 146.169 287.549 146.773 287.804C147.376 288.06 147.862 288.532 148.134 289.128C148.318 289.521 148.431 289.949 148.589 290.343C148.7 290.736 148.956 291.073 149.305 291.287C150.048 291.636 150.949 291.138 151.823 291.138C152.603 291.129 153.36 291.402 153.955 291.907C154.243 292.107 154.482 292.368 154.656 292.672C154.83 292.976 154.934 293.315 154.96 293.664Z" fill="#FAFAFA"/>
</svg>
