<svg width="535" height="481" viewBox="0 0 535 481" fill="none" xmlns="http://www.w3.org/2000/svg">
<g clip-path="url(#clip0_632_9)">
<mask id="mask0_632_9" style="mask-type:alpha" maskUnits="userSpaceOnUse" x="0" y="0" width="535" height="481">
<path d="M535 0H0V481H535V0Z" fill="#D9D9D9"/>
</mask>
<g mask="url(#mask0_632_9)">
<path d="M307.249 70.9684C213.039 58.1541 64.1413 117.917 1.46875 149.4L31.6513 309.762C110.272 280.243 276.512 485.589 478.276 476.017C680.042 466.442 951.777 581.45 1056.79 610.234V46.8496C988.053 77.0441 833.26 139.826 763.985 149.4C677.389 161.368 425.014 86.9862 307.249 70.9684Z" fill="#854BE9" fill-opacity="0.18"/>
<path d="M285.623 12.1459C189.14 -0.426093 38.5493 57.0531 -25.6348 87.9414V554.947C54.8827 525.987 267.575 465.713 474.207 456.321C680.836 446.929 947.59 501.059 1055.14 529.297V106.978C984.742 136.602 824.703 158.139 753.756 167.532C665.072 179.273 406.225 27.861 285.623 12.1459Z" fill="#E1CFFF"/>
<path d="M306.206 25.271C211.274 19.6719 175.765 25.271 0 96.6081V591.775C78.7308 562.2 286.703 500.648 488.749 491.055C690.793 481.463 951.628 536.743 1056.79 565.583V1.10547C987.956 31.3584 832.293 89.7193 763.575 103.855C612.601 134.91 393.816 30.4381 306.206 25.271Z" fill="url(#paint0_linear_632_9)"/>
</g>
</g>
<defs>
<linearGradient id="paint0_linear_632_9" x1="561.063" y1="-64.9374" x2="561.063" y2="484.466" gradientUnits="userSpaceOnUse">
<stop stop-color="#3B1684"/>
<stop offset="0.570934" stop-color="#0A1524"/>
</linearGradient>
<clipPath id="clip0_632_9">
<rect width="535" height="481" fill="white"/>
</clipPath>
</defs>
</svg>
