<svg width="401" height="394" viewBox="0 0 401 394" fill="none" xmlns="http://www.w3.org/2000/svg">
<path d="M400.026 187.506C400.259 205.399 386.696 214.823 370.286 214.823C353.877 214.823 340.494 205.387 340.494 187.506H400.026Z" fill="#E0E0E0"/>
<path d="M391.337 201.165C402.967 193.614 402.967 181.387 391.337 173.848C379.707 166.309 360.844 166.297 349.203 173.848C337.562 181.399 337.573 193.614 349.203 201.165C360.833 208.716 379.696 208.704 391.337 201.165Z" fill="#FAFAFA"/>
<path d="M370.285 169.386C378.049 169.386 385.346 171.331 390.816 174.873C396.126 178.309 399.005 182.794 399.005 187.506C399.005 192.218 396.094 196.703 390.816 200.127C385.346 203.705 378.07 205.626 370.285 205.626C362.5 205.626 355.214 203.67 349.744 200.127C344.433 196.703 341.555 192.218 341.555 187.506C341.555 182.794 344.465 178.309 349.744 174.873C355.214 171.295 362.489 169.386 370.285 169.386ZM370.285 168.193C362.659 168.193 355.033 170.078 349.213 173.848C337.583 181.387 337.583 193.614 349.213 201.165C355.033 204.934 362.659 206.819 370.285 206.819C377.911 206.819 385.526 204.934 391.347 201.165C402.977 193.614 402.977 181.387 391.347 173.848C385.526 170.078 377.901 168.193 370.285 168.193Z" fill="#E6E6E6"/>
<path d="M389.818 202.048C378.634 208.382 361.916 208.382 350.722 202.048C346.749 196.788 348.12 190.251 354.875 185.873C363.372 180.35 377.179 180.35 385.676 185.873C392.42 190.251 393.79 196.776 389.818 202.048Z" fill="#F0F0F0"/>
<path d="M377.954 206.724C378.022 206.718 378.089 206.697 378.15 206.662C378.211 206.627 378.266 206.578 378.31 206.519C378.354 206.461 378.388 206.393 378.409 206.319C378.43 206.246 378.438 206.168 378.432 206.092L370.742 112.248C370.729 112.095 370.662 111.954 370.557 111.855C370.451 111.757 370.316 111.71 370.179 111.723C370.111 111.729 370.045 111.75 369.984 111.785C369.924 111.821 369.87 111.869 369.827 111.928C369.783 111.987 369.75 112.055 369.731 112.129C369.711 112.202 369.705 112.279 369.712 112.355L377.402 206.199C377.407 206.274 377.426 206.348 377.456 206.415C377.487 206.482 377.529 206.542 377.581 206.591C377.632 206.639 377.691 206.676 377.755 206.699C377.819 206.722 377.887 206.73 377.954 206.724Z" fill="#E0E0E0"/>
<path d="M341.513 183.068C341.612 183.067 341.709 183.033 341.792 182.972C341.875 182.911 341.94 182.824 341.981 182.722L370.743 112.569C370.772 112.499 370.789 112.423 370.793 112.346C370.796 112.269 370.786 112.191 370.763 112.118C370.739 112.046 370.703 111.979 370.656 111.922C370.61 111.865 370.554 111.818 370.491 111.786C370.428 111.754 370.36 111.736 370.292 111.733C370.223 111.73 370.154 111.743 370.089 111.77C370.025 111.797 369.966 111.839 369.916 111.892C369.865 111.945 369.825 112.009 369.797 112.08L341.046 182.245C341.016 182.313 340.998 182.387 340.994 182.463C340.99 182.538 341 182.614 341.023 182.686C341.045 182.757 341.081 182.822 341.127 182.878C341.173 182.934 341.228 182.978 341.29 183.009C341.36 183.045 341.436 183.066 341.513 183.068Z" fill="#E0E0E0"/>
<path d="M391.338 174.433C391.397 174.449 391.459 174.449 391.518 174.433C391.582 174.406 391.641 174.366 391.691 174.313C391.741 174.261 391.781 174.198 391.809 174.128C391.836 174.057 391.851 173.982 391.853 173.905C391.854 173.828 391.841 173.752 391.816 173.681L370.754 112.164C370.735 112.085 370.701 112.012 370.655 111.949C370.609 111.885 370.552 111.833 370.487 111.796C370.422 111.76 370.351 111.738 370.278 111.734C370.206 111.73 370.133 111.743 370.065 111.772C369.997 111.802 369.935 111.847 369.884 111.905C369.832 111.962 369.792 112.032 369.766 112.108C369.74 112.184 369.728 112.266 369.732 112.347C369.736 112.429 369.755 112.509 369.787 112.582L390.849 174.099C390.893 174.202 390.962 174.288 391.049 174.348C391.136 174.407 391.236 174.437 391.338 174.433Z" fill="#E0E0E0"/>
<path d="M280.443 109.777C280.666 127.671 267.102 137.094 250.65 137.094C234.198 137.094 220.911 127.671 220.911 109.777H280.443Z" fill="#E0E0E0"/>
<path d="M271.711 123.436C283.394 115.897 283.394 103.658 271.711 96.1191C260.028 88.5801 241.218 88.5801 229.588 96.1191C217.958 103.658 217.958 115.897 229.588 123.436C241.218 130.975 260.081 130.975 271.711 123.436Z" fill="#FAFAFA"/>
<path d="M250.65 91.6577C258.424 91.6577 265.721 93.6021 271.18 97.1569C276.491 100.58 279.38 105.066 279.38 109.778C279.38 114.489 276.47 118.975 271.18 122.398C265.721 125.977 258.435 127.897 250.65 127.897C242.864 127.897 235.589 125.953 230.119 122.398C224.808 118.975 221.93 114.489 221.93 109.778C221.93 105.066 224.84 100.58 230.119 97.1569C235.589 93.5783 242.864 91.6577 250.65 91.6577ZM250.65 90.4648C243.034 90.4648 235.408 92.3496 229.588 96.1191C217.958 103.658 217.958 115.897 229.588 123.436C235.408 127.206 243.034 129.09 250.65 129.09C258.265 129.09 265.901 127.206 271.711 123.436C283.394 115.897 283.394 103.658 271.711 96.1191C265.901 92.3496 258.275 90.4648 250.65 90.4648Z" fill="#E6E6E6"/>
<path d="M270.203 124.32C259.008 130.654 242.291 130.654 231.107 124.32C227.134 119.059 228.504 112.522 235.259 108.144C243.756 102.633 257.564 102.633 266.061 108.144C272.805 112.486 274.175 119.059 270.203 124.32Z" fill="#F0F0F0"/>
<path d="M258.339 129.031C258.407 129.025 258.473 129.003 258.534 128.968C258.594 128.933 258.648 128.884 258.691 128.825C258.735 128.767 258.768 128.698 258.787 128.625C258.807 128.552 258.813 128.475 258.806 128.398L251.127 34.5545C251.111 34.4027 251.044 34.2635 250.939 34.1658C250.834 34.0682 250.7 34.0194 250.564 34.0297C250.496 34.0356 250.43 34.0568 250.369 34.092C250.309 34.1273 250.255 34.1758 250.211 34.2348C250.168 34.2937 250.135 34.3619 250.115 34.4353C250.096 34.5086 250.089 34.5857 250.097 34.6619L257.776 128.506C257.792 128.658 257.859 128.797 257.964 128.894C258.069 128.992 258.203 129.041 258.339 129.031Z" fill="#E0E0E0"/>
<path d="M221.887 105.328C221.986 105.331 222.083 105.3 222.166 105.241C222.249 105.181 222.315 105.096 222.354 104.994L251.127 34.8292C251.183 34.6888 251.186 34.5296 251.138 34.3859C251.09 34.2422 250.993 34.1257 250.869 34.0614C250.745 33.9972 250.603 33.9904 250.475 34.0425C250.346 34.0947 250.241 34.2016 250.182 34.3401L221.42 104.505C221.362 104.646 221.356 104.807 221.404 104.952C221.452 105.098 221.549 105.216 221.675 105.281C221.741 105.315 221.814 105.331 221.887 105.328Z" fill="#E0E0E0"/>
<path d="M271.711 96.7036C271.774 96.7203 271.84 96.7203 271.903 96.7036C271.967 96.6772 272.025 96.6366 272.075 96.5842C272.125 96.5317 272.165 96.4686 272.193 96.3985C272.221 96.3284 272.236 96.2528 272.237 96.1761C272.238 96.0994 272.225 96.0232 272.2 95.9521L251.138 34.3875C251.088 34.2441 250.99 34.1285 250.865 34.066C250.739 34.0035 250.597 33.999 250.469 34.0535C250.405 34.0799 250.346 34.1205 250.296 34.1729C250.246 34.2253 250.206 34.2885 250.179 34.3586C250.151 34.4287 250.136 34.5043 250.135 34.581C250.134 34.6577 250.146 34.7339 250.172 34.805L271.233 96.3218C271.268 96.433 271.333 96.5293 271.419 96.5976C271.504 96.6659 271.606 96.7029 271.711 96.7036Z" fill="#E0E0E0"/>
<path d="M247.08 25.0957C247.08 27.9944 248.727 31.4299 250.617 32.6466C250.846 32.8381 251.114 32.9605 251.397 33.0023C251.679 33.0441 251.967 33.0037 252.232 32.8852C252.561 32.5539 252.813 32.1374 252.967 31.6717C253.121 31.2061 253.171 30.7055 253.113 30.2132C253.064 28.402 252.591 26.6373 251.743 25.0957H254.112C254.786 26.697 255.148 28.4418 255.174 30.2132C255.263 31.1165 255.138 32.0304 254.812 32.8621C254.486 33.6938 253.969 34.4137 253.315 34.9489C252.84 35.2567 252.302 35.4172 251.754 35.4141C251.003 35.3946 250.27 35.1517 249.629 34.7103C247.102 33.0761 245.105 28.8891 245.052 25.1673L247.08 25.0957Z" fill="#EBEBEB"/>
<path d="M329.978 194.544C318.73 187.255 300.505 187.255 289.257 194.544C283.638 198.194 280.845 202.965 280.855 207.749V212.687C280.855 217.459 283.638 222.23 289.257 225.892C300.505 233.181 318.73 233.181 329.978 225.892C335.597 222.23 338.422 217.459 338.422 212.687V207.749C338.422 202.965 335.597 198.194 329.978 194.544Z" fill="#E0E0E0"/>
<path opacity="0.1" d="M329.978 194.544C318.73 187.255 300.505 187.255 289.257 194.544C283.638 198.194 280.845 202.965 280.855 207.749V212.687C280.855 217.459 283.638 222.23 289.257 225.892C300.505 233.181 318.73 233.181 329.978 225.892C335.597 222.23 338.422 217.459 338.422 212.687V207.749C338.422 202.965 335.597 198.194 329.978 194.544Z" fill="black"/>
<path d="M289.256 194.543C278.019 201.831 278.019 213.629 289.256 220.941C300.493 228.253 318.73 228.23 329.977 220.941C341.225 213.653 341.215 201.855 329.977 194.543C318.74 187.23 300.504 187.254 289.256 194.543Z" fill="#EBEBEB"/>
<path d="M326.441 188.412C317.147 182.376 302.086 182.376 292.793 188.412C288.141 191.418 285.836 195.366 285.847 199.315V206.591C285.847 210.54 288.141 214.488 292.793 217.506C302.086 223.53 317.147 223.53 326.441 217.506C331.093 214.488 333.398 210.54 333.387 206.591V199.315C333.398 195.366 331.093 191.418 326.441 188.412Z" fill="#E0E0E0"/>
<path d="M292.75 188.411C283.457 194.376 283.457 204.205 292.75 210.229C302.044 216.253 317.105 216.253 326.398 210.229C335.692 204.205 335.692 194.435 326.398 188.411C317.105 182.387 302.086 182.375 292.75 188.411Z" fill="#EBEBEB"/>
<path d="M365.209 102.321H367.333C367.321 102.576 367.321 102.83 367.333 103.085C367.333 106.019 368.958 109.538 370.87 110.791C371.102 110.979 371.372 111.1 371.655 111.141C371.939 111.183 372.228 111.144 372.495 111.029C372.825 110.696 373.078 110.278 373.231 109.81C373.385 109.342 373.435 108.839 373.376 108.345C373.36 107.256 373.173 106.178 372.824 105.16H375.023C375.3 106.194 375.447 107.266 375.458 108.345C375.534 109.249 375.396 110.16 375.058 110.985C374.721 111.81 374.196 112.521 373.536 113.045C373.061 113.353 372.522 113.514 371.974 113.511C371.224 113.488 370.492 113.245 369.85 112.807C367.28 111.137 365.272 106.842 365.272 103.085C365.177 102.822 365.187 102.572 365.209 102.321Z" fill="#EBEBEB"/>
<path d="M328.492 194.592C328.492 191.467 326.644 188.33 322.958 185.944C315.587 181.172 303.649 181.172 296.278 185.944C292.592 188.33 290.755 191.467 290.755 194.592V197.097C290.755 200.235 292.592 203.36 296.278 205.746C303.649 210.517 315.587 210.517 322.958 205.746C326.644 203.36 328.492 200.235 328.492 197.097V194.592Z" fill="#E0E0E0"/>
<path d="M322.958 185.943C321.673 185.013 319.676 181.351 318.763 176.4C316.639 164.877 316.639 146.399 318.391 139.421H300.845C302.566 146.411 302.597 164.889 300.473 176.4C299.56 181.351 297.563 185.013 296.278 185.943C292.592 188.329 290.755 191.466 290.755 194.592C290.755 197.717 292.592 200.854 296.278 203.24C303.649 208.011 315.587 208.011 322.958 203.24C326.644 200.854 328.492 197.717 328.492 194.592C328.492 191.466 326.644 188.329 322.958 185.943Z" fill="#EBEBEB"/>
<g opacity="0.15">
<path d="M304.509 143.586C304.509 148.059 304.286 180.195 301.705 184.275C299.124 188.355 296.192 188.677 294.27 192.184C292.347 195.691 295.406 200.534 300.09 202.132C299.324 201.2 298.822 200.034 298.646 198.78C298.646 198.78 301.747 202.896 308.715 202.132C302.576 200.94 300.122 195.751 301.439 193.21C302.756 190.669 305.082 189.631 306.346 184.919C307.334 181.269 307.313 144.182 307.313 144.182C306.364 144.076 305.426 143.876 304.509 143.586Z" fill="white"/>
</g>
<g opacity="0.1">
<path d="M312.624 144.086C312.847 151.72 312.996 182.175 314.971 185.837C316.511 188.688 317.478 190.322 317.796 193.507C318.115 196.692 315.577 199.471 313.697 200.139C315.391 199.988 317.015 199.315 318.391 198.195C318.391 198.195 316.819 201.774 310.648 203.408C314.812 203.73 321.461 202.394 325.146 197.181C328.269 192.767 325.019 190.668 322.374 188.962C319.73 187.256 318.37 185.706 317.064 181.662C314.281 172.799 315.492 143.311 315.492 143.311C314.558 143.665 313.599 143.925 312.624 144.086Z" fill="black"/>
</g>
<g opacity="0.1">
<path d="M317.638 143.669C317.794 142.23 318.046 140.806 318.392 139.41H300.846C301.192 140.806 301.444 142.23 301.6 143.669C304.104 145.012 306.844 145.709 309.619 145.709C312.394 145.709 315.134 145.012 317.638 143.669Z" fill="black"/>
</g>
<path d="M301.249 142.094C298.933 140.603 297.786 138.634 297.786 136.678C297.786 134.722 298.933 132.753 301.249 131.262C303.837 129.786 306.699 129.017 309.602 129.017C312.505 129.017 315.367 129.786 317.956 131.262C320.26 132.753 321.408 134.722 321.408 136.678C321.408 138.634 320.26 140.603 317.956 142.094C315.367 143.57 312.505 144.339 309.602 144.339C306.699 144.339 303.837 143.57 301.249 142.094Z" fill="#E0E0E0"/>
<g opacity="0.1">
<path d="M320.632 133.957C319.94 132.857 319.031 131.951 317.976 131.309C315.388 129.833 312.526 129.063 309.623 129.063C306.72 129.063 303.858 129.833 301.269 131.309C300.21 131.947 299.297 132.854 298.604 133.957C298.843 134.867 299.251 135.71 299.8 136.432C300.349 137.153 301.027 137.737 301.79 138.144C304.225 139.533 306.918 140.256 309.649 140.256C312.381 140.256 315.074 139.533 317.509 138.144C318.26 137.729 318.926 137.142 319.463 136.421C320.001 135.7 320.399 134.861 320.632 133.957Z" fill="black"/>
</g>
<path d="M301.758 136.343C299.634 134.936 298.508 133.087 298.508 131.249C298.508 129.412 299.57 127.564 301.758 126.156C304.193 124.768 306.886 124.044 309.618 124.044C312.349 124.044 315.042 124.768 317.477 126.156C319.601 127.564 320.727 129.401 320.727 131.249C320.727 133.098 319.665 134.936 317.477 136.343C315.042 137.731 312.349 138.455 309.618 138.455C306.886 138.455 304.193 137.731 301.758 136.343Z" fill="#E0E0E0"/>
<g opacity="0.1">
<path d="M319.942 128.579C319.29 127.587 318.448 126.772 317.478 126.193C315.043 124.805 312.35 124.081 309.619 124.081C306.887 124.081 304.195 124.805 301.759 126.193C300.791 126.774 299.949 127.589 299.295 128.579C299.519 129.44 299.904 130.238 300.424 130.918C300.944 131.599 301.588 132.148 302.311 132.527C304.592 133.827 307.114 134.504 309.672 134.504C312.229 134.504 314.751 133.827 317.032 132.527C317.736 132.134 318.359 131.58 318.86 130.9C319.362 130.22 319.73 129.429 319.942 128.579Z" fill="black"/>
</g>
<path d="M302.311 130.569C300.272 129.245 299.252 127.528 299.252 125.798C299.252 124.068 300.314 122.339 302.311 121.026C304.592 119.727 307.114 119.05 309.671 119.05C312.229 119.05 314.751 119.727 317.032 121.026C319.071 122.351 320.091 124.08 320.091 125.798C320.091 127.516 319.028 129.245 317.032 130.569C314.751 131.869 312.229 132.546 309.671 132.546C307.114 132.546 304.592 131.869 302.311 130.569Z" fill="#E0E0E0"/>
<g opacity="0.1">
<path d="M319.187 123.138C318.589 122.267 317.837 121.544 316.978 121.015C314.697 119.715 312.175 119.038 309.618 119.038C307.06 119.038 304.538 119.715 302.257 121.015C301.4 121.547 300.648 122.269 300.048 123.138C300.519 124.625 301.486 125.849 302.746 126.55C304.876 127.761 307.23 128.393 309.618 128.393C312.005 128.393 314.359 127.761 316.489 126.55C317.749 125.849 318.716 124.625 319.187 123.138Z" fill="black"/>
</g>
<g opacity="0.1">
<path d="M318.242 135.771C319.835 134.387 318.752 131.143 317.52 130.188C318.869 128.447 318.136 126.001 316.458 124.809C315.437 125.448 314.338 125.918 313.197 126.204C314.854 127.397 315.661 130.081 314.259 131.823C315.502 132.765 316.564 136.129 314.971 137.525C316.086 138.586 317.286 141.545 315.449 143.31C316.581 142.907 317.654 142.32 318.635 141.569C320.536 139.815 319.368 136.845 318.242 135.771Z" fill="black"/>
</g>
<g opacity="0.15">
<path d="M300.982 135.771C299.389 134.387 300.472 131.143 301.715 130.188C300.356 128.447 301.089 126.001 302.777 124.809C303.798 125.448 304.897 125.918 306.038 126.204C304.381 127.397 303.574 130.081 304.976 131.823C303.733 132.765 302.671 136.129 304.264 137.525C303.202 138.586 301.949 141.545 303.786 143.31C302.655 142.907 301.581 142.32 300.6 141.569C298.699 139.815 299.867 136.845 300.982 135.771Z" fill="white"/>
</g>
<path d="M317.701 116.863C317.255 116.41 315.991 112.939 315.576 107.595C314.291 89.3795 314.291 65.9513 314.291 48.1416H304.881C304.881 65.9394 304.881 89.3079 303.596 107.535C303.213 112.927 301.95 116.41 301.472 116.863C300.988 117.277 300.592 117.804 300.309 118.408C300.027 119.011 299.865 119.677 299.836 120.359C299.836 121.969 300.792 123.579 302.682 124.808C304.812 126.02 307.167 126.651 309.554 126.651C311.942 126.651 314.296 126.02 316.426 124.808C318.317 123.615 319.273 121.969 319.273 120.359C319.251 119.683 319.099 119.021 318.828 118.417C318.557 117.814 318.172 117.284 317.701 116.863Z" fill="#EBEBEB"/>
<g opacity="0.1">
<path d="M316.489 117.651C315.13 115.193 314.121 113.559 313.707 107.535C313.314 101.952 313.643 49.8713 313.707 48.1416H313.059L312.209 48.4398C312.209 56.79 311.71 109.599 312.825 114.203C313.94 118.808 316.489 123.388 313.239 126.204C314.381 125.918 315.479 125.448 316.5 124.808C318.306 122.327 317.838 120.108 316.489 117.651Z" fill="black"/>
</g>
<g opacity="0.15">
<path d="M302.746 117.651C304.105 115.193 305.114 113.559 305.528 107.535C305.921 101.952 305.592 49.8713 305.528 48.1416H306.176L307.026 48.4398C307.026 56.79 307.525 109.599 306.41 114.203C305.295 118.808 302.746 123.388 305.996 126.204C304.855 125.918 303.756 125.448 302.735 124.808C300.93 122.327 301.397 120.108 302.746 117.651Z" fill="white"/>
</g>
<g opacity="0.1">
<path d="M304.902 51.0761C306.282 52.1697 307.929 52.7569 309.618 52.7569C311.307 52.7569 312.954 52.1697 314.334 51.0761C314.334 50.1337 314.334 49.1675 314.334 48.1416H304.924C304.913 49.1675 304.902 50.1337 304.902 51.0761Z" fill="black"/>
</g>
<path d="M301.407 41.2588C301.405 43.0831 301.885 44.867 302.786 46.385C303.687 47.9029 304.968 49.0867 306.468 49.7864C307.968 50.4861 309.619 50.6704 311.213 50.316C312.806 49.9616 314.27 49.0843 315.419 47.7952C316.568 46.5061 317.351 44.8631 317.669 43.0741C317.987 41.2851 317.825 39.4304 317.204 37.7448C316.582 36.0592 315.53 34.6184 314.18 33.6046C312.829 32.5909 311.242 32.0498 309.617 32.0498C307.442 32.0498 305.355 33.0197 303.816 34.7463C302.276 36.473 301.41 38.8154 301.407 41.2588Z" fill="#E0E0E0"/>
<g opacity="0.1">
<path d="M311.519 46.0424C312.391 45.6399 313.171 45.0225 313.801 44.2358C314.432 43.4491 314.897 42.5133 315.162 41.4975C315.487 40.1038 315.549 38.649 315.343 37.227C315.24 36.5294 315.073 35.8457 314.843 35.1872C314.738 34.8547 314.61 34.5318 314.461 34.221C314.366 33.9784 314.245 33.7501 314.1 33.541C315.282 34.4211 316.242 35.6303 316.884 37.0506C317.527 38.471 317.831 40.0541 317.766 41.6457C317.702 43.2372 317.271 44.7829 316.517 46.132C315.762 47.4812 314.71 48.5877 313.461 49.3438C312.212 50.0999 310.811 50.4798 309.392 50.4464C307.974 50.4129 306.588 49.9674 305.369 49.1531C304.149 48.3389 303.139 47.1837 302.435 45.8002C301.732 44.4167 301.359 42.8521 301.354 41.2589C302.31 44.1934 306.729 48.4043 311.519 46.0424Z" fill="black"/>
</g>
<g opacity="0.15">
<path d="M302.99 41.0439C303.787 43.5132 304.052 39.9345 307.727 37.3102C310.712 35.175 314.259 35.6163 312.326 34.1133C310.786 32.9204 308.28 32.9204 305.954 34.3399C303.628 35.7595 302.396 39.183 302.99 41.0439Z" fill="white"/>
</g>
<path d="M310.191 29.2938V39.0396C312.604 40.7183 314.937 42.538 317.18 44.4911C325.018 51.207 331.869 59.4856 338.422 68.1698C343.074 74.3966 347.482 80.9336 352.155 87.3871C352.398 87.904 352.683 88.3951 353.005 88.8543C353.352 89.3674 353.763 89.8215 354.226 90.2022C355.427 91.8246 356.648 93.4469 357.901 94.9738C361.358 99.6467 365.422 103.708 369.956 107.022L370.87 107.618C371.976 108.337 373.195 108.811 374.46 109.014C375.437 109.172 376.433 109.089 377.38 108.772C378.326 108.455 379.2 107.911 379.94 107.177C380.65 106.438 381.208 105.534 381.576 104.529C381.904 103.659 382.129 102.745 382.245 101.809C382.422 100.123 382.361 98.416 382.064 96.7512C381.796 95.1671 381.368 93.6224 380.79 92.1466C380.232 90.6611 379.519 89.2555 378.666 87.9596C377.75 86.5863 376.598 85.4342 375.277 84.5719C374.522 84.0931 373.687 83.7927 372.824 83.6891C371.83 83.5713 370.83 83.8363 369.988 84.4406C369.571 84.761 369.211 85.1655 368.926 85.6335C368.661 86.06 368.45 86.5257 368.299 87.0173C368.05 87.8753 367.935 88.7753 367.959 89.6774C367.998 91.324 368.326 92.9458 368.926 94.4489C369.48 95.9495 370.313 97.2998 371.369 98.4093C371.947 99.0049 372.631 99.4562 373.376 99.7334C373.806 99.8817 374.258 99.9264 374.704 99.8646C375.174 99.7889 375.617 99.5748 375.989 99.2443C376.141 99.0996 376.24 98.8968 376.267 98.6748C376.294 98.4529 376.247 98.2276 376.135 98.0424C376.023 97.8572 375.854 97.7251 375.66 97.6717C375.466 97.6183 375.262 97.6473 375.086 97.7532H375.012C374.848 97.8503 374.666 97.9011 374.481 97.9011C374.296 97.9011 374.113 97.8503 373.95 97.7532C373.491 97.5181 373.082 97.1766 372.75 96.7512C372.014 95.7869 371.464 94.6618 371.135 93.4469C370.776 92.2535 370.618 90.9955 370.668 89.737C370.686 89.1907 370.794 88.6528 370.987 88.1505C371.1 87.813 371.319 87.5333 371.603 87.3632C371.874 87.232 372.174 87.1986 372.463 87.2678C372.871 87.3855 373.259 87.579 373.61 87.8403C374.462 88.5146 375.184 89.3747 375.734 90.3693C376.354 91.433 376.853 92.579 377.221 93.7809C377.602 94.9812 377.862 96.2255 377.996 97.4907C378.142 98.6805 378.117 99.8886 377.922 101.069C377.821 101.924 377.47 102.718 376.924 103.324C376.042 104.087 374.63 103.885 372.675 102.274C370.719 100.736 368.904 98.9816 367.258 97.0375C365.612 95.1766 364.072 93.1725 362.532 91.0731C362.844 90.761 363.11 90.3945 363.318 89.9875C363.864 88.751 364.067 87.3591 363.902 85.9914C363.781 84.8549 363.509 83.7452 363.095 82.699C362.726 81.6678 362.16 80.7396 361.438 79.9793C361.412 79.9482 361.381 79.9234 361.346 79.9065C361.312 79.8896 361.274 79.8808 361.236 79.8808C361.198 79.8808 361.161 79.8896 361.126 79.9065C361.092 79.9234 361.06 79.9482 361.035 79.9793C360.999 80.0213 360.975 80.0742 360.965 80.1314C360.956 80.1886 360.961 80.2477 360.981 80.3013C361.259 81.2023 361.392 82.1515 361.374 83.1046C361.386 84.0104 361.286 84.9137 361.077 85.7886C360.984 86.4568 360.687 87.0681 360.238 87.5183C360.1 87.6018 360.068 87.5183 360.079 87.4109C360.089 87.3036 360.079 87.2797 359.877 87.1843L359.717 87.053C357.487 83.8084 355.31 80.4683 353.122 77.1044C350.222 72.7385 347.301 68.3368 344.264 63.9827C343.688 60.4774 342.573 57.1112 340.971 54.0341C336.808 45.8629 324.7 38.5267 313.356 31.2978C312.294 30.5821 311.232 29.9022 310.17 29.2461L310.191 29.2938ZM326.25 42.1053C329.628 44.3718 334.981 48.4515 338.518 53.5212C340.812 56.8135 341.46 59.0919 341.63 60.3325C336.96 53.7901 331.816 47.6935 326.25 42.1053Z" fill="#EBEBEB"/>
<path d="M237.989 8.70533C237.952 12.0092 238.603 15.2771 239.89 18.2484C241.109 21.267 242.883 23.9622 245.094 26.1572C245.697 26.7274 246.34 27.242 247.017 27.696C247.622 28.1016 248.259 28.5071 248.907 28.8889C250.221 29.6125 251.589 30.2033 252.996 30.6543C255.764 31.4969 258.628 31.8668 261.493 31.7518C267.059 31.5609 272.114 30.4038 277 29.9028C281.765 29.3302 286.578 29.515 291.296 30.4515C298.013 31.9964 304.419 34.9202 310.191 39.076V29.2825L309.968 29.1513C297.881 21.2902 283.946 11.1507 279.411 14.1568C276.883 15.8507 276.087 19.322 275.874 22.0775C271.626 22.6859 267.611 23.6998 263.766 24.2724L263.501 24.1412C262.878 23.9297 262.302 23.5719 261.812 23.0915C261.295 22.5695 260.848 21.9669 260.484 21.3021C260.048 20.6158 259.692 19.8703 259.422 19.0834C259.134 18.2768 258.945 17.4301 258.859 16.5664C258.811 16.1466 258.811 15.7217 258.859 15.302C258.861 15.1229 258.894 14.9461 258.958 14.782C259.022 14.618 259.115 14.4702 259.231 14.3477H259.305C259.336 14.3239 259.362 14.2935 259.382 14.2582C259.402 14.2229 259.415 14.1834 259.421 14.1422C259.427 14.101 259.425 14.0588 259.416 14.0183C259.408 13.9778 259.391 13.9397 259.369 13.9063C259.341 13.8643 259.303 13.8304 259.261 13.8076C259.219 13.7848 259.172 13.7737 259.125 13.7751C258.844 13.8244 258.576 13.9431 258.341 14.1225C258.106 14.302 257.91 14.5378 257.765 14.8129C257.479 15.284 257.254 15.798 257.096 16.3398C256.786 17.395 256.621 18.4972 256.608 19.6082C256.601 20.7369 256.715 21.8623 256.948 22.9602C257.089 23.5496 257.267 24.1275 257.479 24.6899C256.436 24.6341 255.399 24.4865 254.377 24.2486C253.287 23.9838 252.221 23.6085 251.191 23.1272C250.67 22.8887 250.129 22.6143 249.651 22.328C249.213 22.0706 248.794 21.7754 248.397 21.4453C246.673 19.91 245.251 17.9885 244.223 15.803C243.158 13.6219 242.562 11.1913 242.482 8.70533C242.422 7.64814 242.571 6.58925 242.917 5.60384C243.043 5.26922 243.236 4.97137 243.48 4.73304C243.611 4.59205 243.787 4.5149 243.968 4.51832C244.796 4.62826 245.567 5.04852 246.156 5.7112C246.975 6.51908 247.668 7.47456 248.206 8.53833C248.777 9.58613 249.183 10.736 249.406 11.938C249.638 12.9925 249.608 14.0979 249.322 15.135C249.233 15.3788 249.099 15.5985 248.929 15.7791C248.848 15.7996 248.765 15.7996 248.684 15.7791C248.505 15.7741 248.328 15.7295 248.164 15.6479C247.183 15.1309 246.308 14.3918 245.594 13.4768C245.485 13.3531 245.343 13.2726 245.19 13.2474C245.037 13.2223 244.88 13.254 244.745 13.3376C244.609 13.4212 244.501 13.5523 244.438 13.7109C244.374 13.8695 244.359 14.047 244.393 14.2164C244.561 15.0149 244.852 15.774 245.254 16.459C245.675 17.2202 246.241 17.8677 246.911 18.3557C247.304 18.6349 247.734 18.8442 248.185 18.976C248.733 19.1163 249.303 19.0957 249.842 18.9164C250.343 18.7339 250.806 18.4359 251.199 18.0416C251.592 17.6472 251.908 17.1651 252.126 16.6261C252.779 14.9632 252.979 13.12 252.699 11.3297C252.477 9.69632 252.014 8.11599 251.329 6.65357C250.658 5.16578 249.783 3.8053 248.737 2.62164C248.164 1.98562 247.521 1.43261 246.826 0.975469C246.02 0.444485 245.121 0.118702 244.192 0.021166C243.061 -0.0919049 241.931 0.250605 241.005 0.987396C240.221 1.60975 239.574 2.42594 239.115 3.37316C238.376 5.02834 237.991 6.8539 237.989 8.70533ZM281.886 16.8527C286.963 16.1489 295.831 22.3996 297.127 23.342H296.936C291.817 20.6341 282.757 19.99 278.742 20.6341C278.742 20.6341 278.243 17.3418 281.886 16.8288V16.8527Z" fill="#EBEBEB"/>
<path d="M301.429 8.63305C301.429 15.8738 305.348 26.8483 310.191 29.9975C315.034 33.1467 318.943 27.2301 318.943 20.0012C318.943 12.7723 315.056 4.32676 310.191 1.18949C305.327 -1.94779 301.429 1.36841 301.429 8.63305ZM316.5 18.4027C316.497 19.4481 316.383 20.4893 316.16 21.5042C315.735 16.8639 313.229 11.8896 310.191 9.92137C307.154 7.95311 304.626 9.65893 304.222 13.7982C304 12.6214 303.882 11.4226 303.872 10.2196C303.872 4.99477 306.697 2.58515 310.191 4.85163C313.685 7.1181 316.5 13.1779 316.5 18.4027Z" fill="#EBEBEB"/>
<path d="M310.17 14.4785L307.419 17.5084L310.202 24.5345L312.963 21.0751L310.17 14.4785Z" fill="#FAFAFA"/>
<path d="M309.055 20.0493L309.926 22.113L310.043 16.4707L308.98 17.6636C308.796 18.0305 308.706 18.4473 308.719 18.8682C308.732 19.2891 308.848 19.6978 309.055 20.0493Z" fill="#F0F0F0"/>
<path d="M142.994 359.412L146.637 357.026C146.637 357.026 144.513 356.275 143.578 356.776C142.644 357.277 142.994 359.412 142.994 359.412Z" fill="black"/>
<path d="M140.476 356.836C140.89 356.331 141.392 355.929 141.952 355.653C142.511 355.378 143.115 355.235 143.726 355.235C144.337 355.235 144.941 355.378 145.5 355.653C146.06 355.929 146.562 356.331 146.976 356.836C150.513 360.486 150.693 364.113 152.17 364.053C153.646 363.993 153.614 334.875 153.614 334.875L139.647 349.464L140.476 356.836Z" fill="#9255FA"/>
<path opacity="0.3" d="M140.476 356.836C140.89 356.331 141.392 355.929 141.952 355.653C142.511 355.378 143.115 355.235 143.726 355.235C144.337 355.235 144.941 355.378 145.5 355.653C146.06 355.929 146.562 356.331 146.976 356.836C150.513 360.486 150.693 364.113 152.17 364.053C153.646 363.993 153.614 334.875 153.614 334.875L139.647 349.464L140.476 356.836Z" fill="black"/>
<path d="M293.102 255.358L293.325 255.203L284.828 249.322L196.906 192.23L47.9978 288.854C45.6718 290.416 45.2788 292.611 47.0844 293.804L50.3663 295.916L140.455 354.367L141.103 353.842L293.102 255.358Z" fill="#9255FA"/>
<path opacity="0.2" d="M293.102 255.358L293.325 255.203L284.828 249.322L196.906 192.23L47.9978 288.854C45.6718 290.416 45.2788 292.611 47.0844 293.804L50.3663 295.916L140.455 354.367L141.103 353.842L293.102 255.358Z" fill="black"/>
<path d="M152.478 321.085L145.511 319.463V350.848C149.759 352.852 152.393 354.748 152.829 358.709L152.478 321.085Z" fill="#455A64"/>
<path d="M142.421 351.263L53.2034 293.385C52.3872 292.788 51.7079 291.983 51.2207 291.036C50.7335 290.089 50.4521 289.026 50.3994 287.933V257.002L140.509 315.942C140.509 315.942 141.571 320.32 144.758 321.692C147.944 323.064 145.522 324.471 145.522 324.471V350.846C142.75 350.476 142.421 351.263 142.421 351.263Z" fill="#F5F5F5"/>
<path d="M150.651 320.048C149.727 319.451 148.995 319.404 148.995 319.976V320.954C148.995 322.04 147.529 321.992 145.691 320.811C143.854 319.63 142.388 317.793 142.388 316.708V315.718C142.388 315.157 141.146 313.904 139.605 312.902L284.818 219.452L287.069 220.919C287.378 221.295 287.572 221.771 287.622 222.279V223.257C287.622 224.343 289.098 226.18 290.903 227.361C292.709 228.542 294.207 228.554 294.207 227.504V226.526C294.207 225.965 294.939 226.001 295.864 226.598L150.651 320.048Z" fill="#9255FA"/>
<path opacity="0.4" d="M150.651 320.048C149.727 319.451 148.995 319.404 148.995 319.976V320.954C148.995 322.04 147.529 321.992 145.691 320.811C143.854 319.63 142.388 317.793 142.388 316.708V315.718C142.388 315.157 141.146 313.904 139.605 312.902L284.818 219.452L287.069 220.919C287.378 221.295 287.572 221.771 287.622 222.279V223.257C287.622 224.343 289.098 226.18 290.903 227.361C292.709 228.542 294.207 228.554 294.207 227.504V226.526C294.207 225.965 294.939 226.001 295.864 226.598L150.651 320.048Z" fill="black"/>
<path d="M286.836 221.038L287.069 220.883L284.828 219.428L188.442 156.933L47.9984 248.021C45.6723 249.524 45.2687 251.695 47.085 252.864L50.3669 254.987L140.477 315.943L286.836 221.038Z" fill="#9255FA"/>
<path opacity="0.2" d="M286.836 221.038L287.069 220.883L284.828 219.428L188.442 156.933L47.9984 248.021C45.6723 249.524 45.2687 251.695 47.085 252.864L50.3669 254.987L140.477 315.943L286.836 221.038Z" fill="black"/>
<path d="M294.239 225.535L149.144 319.618L154.22 324.079L298.848 230.295C298.487 229.091 297.814 228.036 296.915 227.265L294.239 225.535Z" fill="#9255FA"/>
<path opacity="0.2" d="M294.239 225.535L149.144 319.618L154.22 324.079L298.848 230.295C298.487 229.091 297.814 228.036 296.915 227.265L294.239 225.535Z" fill="black"/>
<path d="M298.286 272.439C298.376 272.376 298.461 272.304 298.541 272.225C298.607 272.183 298.665 272.126 298.71 272.058C298.82 271.927 298.916 271.783 298.997 271.628C299.055 271.556 299.105 271.476 299.146 271.39C299.295 271.101 299.42 270.798 299.518 270.483C299.632 270.136 299.728 269.781 299.804 269.421C299.889 269.028 299.953 268.622 300.017 268.229C300.062 267.981 300.091 267.73 300.102 267.477C300.102 267.274 300.102 267.095 300.102 266.881C300.102 266.427 300.155 265.95 300.155 265.461V238.502C300.172 235.695 299.714 232.91 298.806 230.295L154.221 324.079L153.615 366.259L298.233 272.463L298.286 272.439Z" fill="#9255FA"/>
<path d="M214.856 319.438L216.481 317.935C217.362 317.136 217.426 316.682 217.426 314.988V293.91C217.426 292.491 217.426 292.037 216.449 292.395L214.856 292.968V290.224L224.925 283.699V286.479L222.938 288.173C222.548 288.449 222.239 288.85 222.05 289.323C221.861 289.796 221.801 290.321 221.876 290.833V314.38L224.532 312.662C227.123 310.98 228.132 308.69 229.258 302.439L231.573 300.936L230.724 311.839L214.792 322.158L214.856 319.438Z" fill="white"/>
<path d="M232.901 307.737L234.335 306.485C235.068 305.793 235.281 305.053 235.673 303.109L242.046 272.619L245.955 270.09L252.232 292.54C252.572 293.733 252.72 294.365 253.538 294.055L254.76 293.59V296.321L245.339 302.429V299.697L246.741 298.504C247.569 297.789 247.633 297.156 247.325 295.844L246.38 291.979L239.614 296.369L238.669 301.272C238.329 302.954 238.488 303.538 239.37 303.24L240.708 302.739V305.471L232.901 310.505V307.737ZM245.742 289.236L243.151 278.643L243.023 278.726L240.219 292.814L245.742 289.236Z" fill="white"/>
<path d="M255.089 269.481C254.812 268.025 254.6 267.703 253.718 268.097L252.497 268.61V265.83L261.982 259.675V262.323L260.431 263.612C259.603 264.28 259.486 264.805 259.719 266.296L262.651 284.845L262.778 284.762L267.26 256.264L271.87 253.269L276.565 275.934L276.681 275.851L279.868 253.532C280.112 251.778 279.985 251.313 279.135 251.588L277.637 252.148V249.548L285.508 244.454V247.102L284.074 248.295C283.341 248.904 282.948 249.667 282.64 251.695L278.221 281.111L272.911 284.559L268.588 263.361H268.492L264.35 290.046L259.316 293.314L255.089 269.481Z" fill="white"/>
<path d="M174.294 311.064L191.734 299.768C194.389 314.75 194.771 328.826 191.734 341.518L174.294 352.827C177.332 340.123 176.981 326.011 174.294 311.064Z" fill="#9255FA"/>
<path opacity="0.4" d="M174.294 311.064L191.734 299.768C194.389 314.75 194.771 328.826 191.734 341.518L174.294 352.827C177.332 340.123 176.981 326.011 174.294 311.064Z" fill="white"/>
<path d="M198.224 295.569L204.724 291.346C207.379 306.328 207.761 320.416 204.724 333.096L198.224 337.355C201.229 324.627 200.847 310.503 198.224 295.569Z" fill="#9255FA"/>
<path opacity="0.4" d="M198.224 295.569L204.724 291.346C207.379 306.328 207.761 320.416 204.724 333.096L198.224 337.355C201.229 324.627 200.847 310.503 198.224 295.569Z" fill="white"/>
<path d="M155.558 332.298H152.372C152.447 329.543 151.907 326.812 150.8 324.353C150.038 325.006 149.103 325.351 148.145 325.331C146.714 325.248 145.326 324.759 144.109 323.912C142.654 322.979 141.382 321.725 140.37 320.226C140.306 320.118 140.232 320.011 140.179 319.904C139.603 318.988 139.268 317.909 139.212 316.79L53.6804 261.357L50.7915 259.472L47.0847 257.086C46.7629 256.918 46.4875 256.655 46.2875 256.325C46.0875 255.996 45.9703 255.612 45.9482 255.214V250.955C45.9643 251.363 46.0785 251.757 46.2787 252.098C46.4788 252.438 46.7574 252.711 47.0847 252.888L56.9624 259.21L139.605 312.889C141.135 313.891 142.399 315.144 142.399 315.705V316.683C142.474 317.339 142.743 317.948 143.163 318.412C143.875 319.368 144.731 320.175 145.691 320.798C147.518 321.991 148.994 321.991 148.994 320.941V319.963C148.994 319.391 149.717 319.426 150.641 320.035L152.276 321.108C154.093 322.242 155.558 327.276 155.558 332.298Z" fill="#9255FA"/>
<path opacity="0.3" d="M155.558 332.298H152.372C152.447 329.543 151.907 326.812 150.8 324.353C150.038 325.006 149.103 325.351 148.145 325.331C146.714 325.248 145.326 324.759 144.109 323.912C142.654 322.979 141.382 321.725 140.37 320.226C140.306 320.118 140.232 320.011 140.179 319.904C139.603 318.988 139.268 317.909 139.212 316.79L53.6804 261.357L50.7915 259.472L47.0847 257.086C46.7629 256.918 46.4875 256.655 46.2875 256.325C46.0875 255.996 45.9703 255.612 45.9482 255.214V250.955C45.9643 251.363 46.0785 251.757 46.2787 252.098C46.4788 252.438 46.7574 252.711 47.0847 252.888L56.9624 259.21L139.605 312.889C141.135 313.891 142.399 315.144 142.399 315.705V316.683C142.474 317.339 142.743 317.948 143.163 318.412C143.875 319.368 144.731 320.175 145.691 320.798C147.518 321.991 148.994 321.991 148.994 320.941V319.963C148.994 319.391 149.717 319.426 150.641 320.035L152.276 321.108C154.093 322.242 155.558 327.276 155.558 332.298Z" fill="black"/>
<path d="M152.329 332.297V359.221C152.329 359.602 152.329 359.984 152.329 360.342L152.255 361.26C152.264 361.287 152.264 361.317 152.255 361.344C151.968 358.457 149.504 355.881 147.369 354.509C146.179 353.676 144.819 353.199 143.418 353.125C142.355 353.111 141.323 353.536 140.519 354.318L140.232 354.139L139.669 353.757L56.9624 300.149L52.2147 297.083L50.834 296.189C49.4426 295.282 48.03 294.376 46.8404 293.588C46.5752 293.403 46.355 293.147 46.1993 292.844C46.0436 292.54 45.9574 292.197 45.9482 291.847V296.105C45.9595 296.432 46.0406 296.752 46.1848 297.036C46.329 297.32 46.532 297.562 46.7767 297.74C47.244 298.05 47.7432 298.36 48.2424 298.706L49.1665 299.302C49.7188 299.648 50.2286 300.006 50.7596 300.34C51.1101 300.567 51.4394 300.793 51.7474 300.972L52.4378 301.426L53.6486 302.225L119.319 344.787L140.285 358.386C141.772 359.364 142.983 359.71 143.068 359.197C143.071 359.141 143.071 359.085 143.068 359.03V358.075C143.068 356.883 144.544 356.883 146.36 358.075C148.177 359.268 148.92 360.64 148.952 361.785V362.978C148.932 363.234 148.965 363.493 149.048 363.732C149.131 363.972 149.261 364.188 149.43 364.362C149.557 364.457 149.738 364.565 149.918 364.672C150.099 364.779 150.566 365.09 150.981 365.34L152.255 366.187C152.504 366.373 152.802 366.459 153.099 366.428C153.397 366.398 153.676 366.254 153.891 366.02C153.956 365.981 154.011 365.923 154.05 365.853C154.164 365.724 154.264 365.579 154.348 365.424C154.403 365.36 154.449 365.288 154.486 365.209C154.639 364.923 154.764 364.619 154.857 364.302C154.975 363.955 155.075 363.601 155.155 363.241C155.229 362.847 155.293 362.441 155.367 362.048C155.408 361.8 155.433 361.548 155.441 361.296C155.441 361.093 155.441 360.914 155.441 360.7C155.441 360.246 155.441 359.769 155.441 359.28V332.297H152.329Z" fill="#9255FA"/>
<path opacity="0.3" d="M152.329 332.297V359.221C152.329 359.602 152.329 359.984 152.329 360.342L152.255 361.26C152.264 361.287 152.264 361.317 152.255 361.344C151.968 358.457 149.504 355.881 147.369 354.509C146.179 353.676 144.819 353.199 143.418 353.125C142.355 353.111 141.323 353.536 140.519 354.318L140.232 354.139L139.669 353.757L56.9624 300.149L52.2147 297.083L50.834 296.189C49.4426 295.282 48.03 294.376 46.8404 293.588C46.5752 293.403 46.355 293.147 46.1993 292.844C46.0436 292.54 45.9574 292.197 45.9482 291.847V296.105C45.9595 296.432 46.0406 296.752 46.1848 297.036C46.329 297.32 46.532 297.562 46.7767 297.74C47.244 298.05 47.7432 298.36 48.2424 298.706L49.1665 299.302C49.7188 299.648 50.2286 300.006 50.7596 300.34C51.1101 300.567 51.4394 300.793 51.7474 300.972L52.4378 301.426L53.6486 302.225L119.319 344.787L140.285 358.386C141.772 359.364 142.983 359.71 143.068 359.197C143.071 359.141 143.071 359.085 143.068 359.03V358.075C143.068 356.883 144.544 356.883 146.36 358.075C148.177 359.268 148.92 360.64 148.952 361.785V362.978C148.932 363.234 148.965 363.493 149.048 363.732C149.131 363.972 149.261 364.188 149.43 364.362C149.557 364.457 149.738 364.565 149.918 364.672C150.099 364.779 150.566 365.09 150.981 365.34L152.255 366.187C152.504 366.373 152.802 366.459 153.099 366.428C153.397 366.398 153.676 366.254 153.891 366.02C153.956 365.981 154.011 365.923 154.05 365.853C154.164 365.724 154.264 365.579 154.348 365.424C154.403 365.36 154.449 365.288 154.486 365.209C154.639 364.923 154.764 364.619 154.857 364.302C154.975 363.955 155.075 363.601 155.155 363.241C155.229 362.847 155.293 362.441 155.367 362.048C155.408 361.8 155.433 361.548 155.441 361.296C155.441 361.093 155.441 360.914 155.441 360.7C155.441 360.246 155.441 359.769 155.441 359.28V332.297H152.329Z" fill="black"/>
<path d="M141.24 305.495L144.607 303.324C143.698 302.974 142.724 302.9 141.782 303.109C140.868 303.575 141.24 305.495 141.24 305.495Z" fill="black"/>
<path d="M138.936 303.122C139.317 302.656 139.78 302.284 140.296 302.03C140.812 301.776 141.369 301.644 141.932 301.644C142.495 301.644 143.052 301.776 143.567 302.03C144.083 302.284 144.546 302.656 144.927 303.122C148.198 306.497 148.368 309.837 149.717 309.778C151.066 309.718 151.055 282.854 151.055 282.854L138.161 296.322L138.936 303.122Z" fill="#9255FA"/>
<path opacity="0.2" d="M138.936 303.122C139.317 302.656 139.78 302.284 140.296 302.03C140.812 301.776 141.369 301.644 141.932 301.644C142.495 301.644 143.052 301.776 143.567 302.03C144.083 302.284 144.546 302.656 144.927 303.122C148.198 306.497 148.368 309.837 149.717 309.778C151.066 309.718 151.055 282.854 151.055 282.854L138.161 296.322L138.936 303.122Z" fill="white"/>
<path d="M279.762 209.48L279.974 209.349L272.125 203.921L191.001 151.231L53.5957 240.447C51.4715 241.843 51.0785 243.847 52.746 244.92L55.7836 246.877L138.915 300.807L139.51 300.33L279.762 209.48Z" fill="#9255FA"/>
<path opacity="0.4" d="M279.762 209.48L279.974 209.349L272.125 203.921L191.001 151.231L53.5957 240.447C51.4715 241.843 51.0785 243.847 52.746 244.92L55.7836 246.877L138.915 300.807L139.51 300.33L279.762 209.48Z" fill="white"/>
<path d="M150.014 281.684L143.577 280.193V297.597C147.454 299.446 149.95 301.176 150.332 304.85L150.014 281.684Z" fill="#455A64"/>
<path d="M140.719 297.979L58.3632 244.574C57.6114 244.022 56.986 243.278 56.5377 242.403C56.0893 241.529 55.8305 240.548 55.7822 239.54V222.554L138.935 276.937C138.935 276.937 139.923 280.981 142.875 282.245C145.828 283.51 143.576 284.81 143.576 284.81V297.598C141.027 297.264 140.719 297.979 140.719 297.979Z" fill="#F5F5F5"/>
<path d="M148.304 280.682C147.454 280.121 146.785 280.086 146.785 280.61V281.517C146.785 282.519 145.425 282.471 143.737 281.386C142.048 280.3 140.688 278.606 140.688 277.592V276.686C140.688 276.161 139.541 275.004 138.118 274.085L272.125 187.876L274.196 189.224C274.474 189.551 274.652 189.969 274.706 190.417V191.311C274.706 192.325 276.065 194.019 277.744 195.105C279.422 196.19 280.792 196.298 280.792 195.248V194.341C280.792 193.817 281.461 193.852 282.311 194.401L148.304 280.682Z" fill="#9255FA"/>
<path opacity="0.25" d="M148.304 280.682C147.454 280.121 146.785 280.086 146.785 280.61V281.517C146.785 282.519 145.425 282.471 143.737 281.386C142.048 280.3 140.688 278.606 140.688 277.592V276.686C140.688 276.161 139.541 275.004 138.118 274.085L272.125 187.876L274.196 189.224C274.474 189.551 274.652 189.969 274.706 190.417V191.311C274.706 192.325 276.065 194.019 277.744 195.105C279.422 196.19 280.792 196.298 280.792 195.248V194.341C280.792 193.817 281.461 193.852 282.311 194.401L148.304 280.682Z" fill="white"/>
<path d="M273.983 189.368L274.196 189.225L272.125 187.877L183.194 130.213L53.6162 214.263C51.492 215.659 51.099 217.651 52.7665 218.737L55.8042 220.693L138.957 276.937L273.983 189.368Z" fill="#9255FA"/>
<path opacity="0.4" d="M273.983 189.368L274.196 189.225L272.125 187.877L183.194 130.213L53.6162 214.263C51.492 215.659 51.099 217.651 52.7665 218.737L55.8042 220.693L138.957 276.937L273.983 189.368Z" fill="white"/>
<path d="M280.813 193.52L146.923 280.337L151.617 284.453L285.072 197.909C284.738 196.8 284.117 195.828 283.288 195.118L280.813 193.52Z" fill="#9255FA"/>
<path opacity="0.4" d="M280.813 193.52L146.923 280.337L151.617 284.453L285.072 197.909C284.738 196.8 284.117 195.828 283.288 195.118L280.813 193.52Z" fill="white"/>
<path d="M284.541 225.238C284.631 225.19 284.714 225.125 284.785 225.047C284.847 225.012 284.898 224.958 284.934 224.892C285.043 224.777 285.136 224.645 285.21 224.499C285.259 224.428 285.301 224.352 285.338 224.272C285.481 224.01 285.595 223.73 285.678 223.437C285.789 223.122 285.881 222.799 285.954 222.471C286.028 222.101 286.081 221.731 286.145 221.278C286.187 221.05 286.211 220.818 286.219 220.586C286.219 220.407 286.219 220.24 286.219 220.037C286.219 219.62 286.272 219.178 286.272 218.725V205.532C286.289 202.941 285.867 200.371 285.03 197.957L151.618 284.453L151.055 311.817L284.499 225.274L284.541 225.238Z" fill="#9255FA"/>
<g opacity="0.7">
<path d="M284.541 225.237C284.631 225.189 284.714 225.124 284.785 225.046C284.847 225.011 284.898 224.957 284.934 224.891C285.043 224.776 285.136 224.644 285.21 224.498C285.259 224.427 285.301 224.351 285.338 224.271C285.481 224.009 285.595 223.729 285.678 223.436C285.789 223.121 285.881 222.798 285.954 222.47C286.028 222.1 286.081 221.73 286.145 221.277C286.187 221.049 286.211 220.818 286.219 220.585C286.219 220.406 286.219 220.239 286.219 220.036C286.219 219.619 286.272 219.177 286.272 218.724V205.531C286.289 202.94 285.867 200.37 285.03 197.956L151.618 284.452L151.055 311.816L284.499 225.273L284.541 225.237Z" fill="white"/>
</g>
<path d="M162.675 277.271L178.766 266.846C181.209 280.671 181.559 282.115 178.766 293.853L162.675 304.29C165.479 292.54 165.118 291.097 162.675 277.271Z" fill="#FAFAFA"/>
<path d="M252.295 219.166L268.386 208.729C270.829 222.554 271.179 223.997 268.386 235.735L252.295 246.173C255.099 234.435 254.738 232.968 252.295 219.166Z" fill="#FAFAFA"/>
<path d="M152.849 292.027H149.865C149.931 289.489 149.435 286.972 148.42 284.703C147.714 285.299 146.851 285.618 145.967 285.609C144.649 285.534 143.369 285.082 142.25 284.297C140.902 283.439 139.727 282.277 138.798 280.885C138.728 280.794 138.667 280.694 138.617 280.587C138.079 279.75 137.769 278.755 137.725 277.724L58.8419 226.574L56.1653 224.832L52.7135 222.613C52.4127 222.461 52.1547 222.22 51.9674 221.915C51.7802 221.61 51.6709 221.253 51.6514 220.884V216.959C51.6668 217.336 51.7739 217.701 51.9612 218.014C52.1485 218.328 52.4087 218.578 52.7135 218.736L61.8477 224.617L138.129 274.086C139.541 275.005 140.71 276.162 140.71 276.686V277.593C140.782 278.194 141.028 278.751 141.411 279.18C142.064 280.064 142.851 280.811 143.737 281.386C145.425 282.472 146.785 282.52 146.785 281.518V280.683C146.785 280.158 147.454 280.194 148.314 280.754L149.822 281.744C151.49 282.758 152.849 287.399 152.849 292.027Z" fill="#9255FA"/>
<path opacity="0.6" d="M152.849 292.027H149.865C149.931 289.489 149.435 286.972 148.42 284.703C147.714 285.299 146.851 285.618 145.967 285.609C144.649 285.534 143.369 285.082 142.25 284.297C140.902 283.439 139.727 282.277 138.798 280.885C138.728 280.794 138.667 280.694 138.617 280.587C138.079 279.75 137.769 278.755 137.725 277.724L58.8419 226.574L56.1653 224.832L52.7135 222.613C52.4127 222.461 52.1547 222.22 51.9674 221.915C51.7802 221.61 51.6709 221.253 51.6514 220.884V216.959C51.6668 217.336 51.7739 217.701 51.9612 218.014C52.1485 218.328 52.4087 218.578 52.7135 218.736L61.8477 224.617L138.129 274.086C139.541 275.005 140.71 276.162 140.71 276.686V277.593C140.782 278.194 141.028 278.751 141.411 279.18C142.064 280.064 142.851 280.811 143.737 281.386C145.425 282.472 146.785 282.52 146.785 281.518V280.683C146.785 280.158 147.454 280.194 148.314 280.754L149.822 281.744C151.49 282.758 152.849 287.399 152.849 292.027Z" fill="white"/>
<path d="M149.865 292.027V305.327C149.865 305.673 149.865 306.031 149.865 306.365L149.79 307.2C149.795 307.228 149.795 307.256 149.79 307.284C149.514 304.624 147.252 302.238 145.276 300.973C144.179 300.204 142.925 299.765 141.633 299.697C140.651 299.688 139.699 300.083 138.957 300.806L138.691 300.639L138.171 300.293L61.8473 250.86L57.4714 248.021C57.0678 247.759 56.6323 247.485 56.2181 247.198L52.5219 244.813C52.2796 244.639 52.0785 244.401 51.936 244.121C51.7936 243.84 51.714 243.525 51.7041 243.202V247.127C51.7154 247.429 51.7907 247.724 51.9236 247.988C52.0566 248.251 52.2435 248.475 52.4688 248.642C52.8937 248.928 53.361 249.214 53.8177 249.536L54.678 250.085L56.1437 251.039C56.4624 251.266 56.7704 251.469 57.0465 251.636C57.3227 251.803 57.4926 251.934 57.6944 252.053L58.7565 252.793L119.35 292.063L138.744 304.54C140.125 305.447 141.24 305.733 141.315 305.292C141.322 305.236 141.322 305.18 141.315 305.125V304.254C141.315 303.156 142.674 303.156 144.342 304.254C146.009 305.351 146.699 306.639 146.731 307.677V308.751C146.717 308.987 146.75 309.224 146.827 309.445C146.905 309.666 147.024 309.865 147.177 310.027L147.634 310.302L148.59 310.922C148.941 311.161 149.344 311.435 149.769 311.697C149.998 311.87 150.273 311.949 150.548 311.921C150.822 311.892 151.08 311.759 151.277 311.542C151.339 311.513 151.39 311.463 151.426 311.399C151.532 311.28 151.621 311.143 151.691 310.994C151.743 310.931 151.79 310.863 151.83 310.791C151.968 310.526 152.082 310.246 152.169 309.956C152.275 309.636 152.364 309.309 152.435 308.978C152.509 308.608 152.573 308.238 152.637 307.785C152.673 307.56 152.697 307.333 152.711 307.105C152.711 306.914 152.711 306.747 152.711 306.544C152.711 306.127 152.711 305.697 152.711 305.244V292.027H149.865Z" fill="#9255FA"/>
<path opacity="0.6" d="M149.865 292.027V305.327C149.865 305.673 149.865 306.031 149.865 306.365L149.79 307.2C149.795 307.228 149.795 307.256 149.79 307.284C149.514 304.624 147.252 302.238 145.276 300.973C144.179 300.204 142.925 299.765 141.633 299.697C140.651 299.688 139.699 300.083 138.957 300.806L138.691 300.639L138.171 300.293L61.8473 250.86L57.4714 248.021C57.0678 247.759 56.6323 247.485 56.2181 247.198L52.5219 244.813C52.2796 244.639 52.0785 244.401 51.936 244.121C51.7936 243.84 51.714 243.525 51.7041 243.202V247.127C51.7154 247.429 51.7907 247.724 51.9236 247.988C52.0566 248.251 52.2435 248.475 52.4688 248.642C52.8937 248.928 53.361 249.214 53.8177 249.536L54.678 250.085L56.1437 251.039C56.4624 251.266 56.7704 251.469 57.0465 251.636C57.3227 251.803 57.4926 251.934 57.6944 252.053L58.7565 252.793L119.35 292.063L138.744 304.54C140.125 305.447 141.24 305.733 141.315 305.292C141.322 305.236 141.322 305.18 141.315 305.125V304.254C141.315 303.156 142.674 303.156 144.342 304.254C146.009 305.351 146.699 306.639 146.731 307.677V308.751C146.717 308.987 146.75 309.224 146.827 309.445C146.905 309.666 147.024 309.865 147.177 310.027L147.634 310.302L148.59 310.922C148.941 311.161 149.344 311.435 149.769 311.697C149.998 311.87 150.273 311.949 150.548 311.921C150.822 311.892 151.08 311.759 151.277 311.542C151.339 311.513 151.39 311.463 151.426 311.399C151.532 311.28 151.621 311.143 151.691 310.994C151.743 310.931 151.79 310.863 151.83 310.791C151.968 310.526 152.082 310.246 152.169 309.956C152.275 309.636 152.364 309.309 152.435 308.978C152.509 308.608 152.573 308.238 152.637 307.785C152.673 307.56 152.697 307.333 152.711 307.105C152.711 306.914 152.711 306.747 152.711 306.544C152.711 306.127 152.711 305.697 152.711 305.244V292.027H149.865Z" fill="white"/>
<path opacity="0.55" d="M217.214 173.61C241.642 189.428 241.642 215.074 217.214 230.868C192.785 246.662 153.264 246.686 128.867 230.868C104.47 215.051 104.439 189.404 128.867 173.61C153.296 157.816 192.817 157.816 217.214 173.61Z" fill="#9255FA"/>
<path d="M132.956 161.061C155.09 146.747 190.99 146.747 213.124 161.061C224.202 168.218 229.693 177.642 229.683 187.054C229.683 189.965 229.683 193.877 229.683 196.788C229.683 206.2 224.202 215.6 213.124 222.781C190.99 237.095 155.09 237.095 132.956 222.781C121.878 215.623 116.387 206.2 116.408 196.788V187.054C116.44 177.642 121.878 168.242 132.956 161.061Z" fill="#37474F"/>
<path d="M173.04 223.818C204.352 223.818 229.736 207.358 229.736 187.054C229.736 166.749 204.352 150.289 173.04 150.289C141.728 150.289 116.345 166.749 116.345 187.054C116.345 207.358 141.728 223.818 173.04 223.818Z" fill="#455A64"/>
<path d="M142.494 155.108C159.36 144.17 186.72 144.17 203.587 155.108C212.03 160.572 216.215 167.741 216.205 174.91C216.205 177.129 216.205 179.145 216.205 181.364C216.205 188.521 212.03 195.678 203.587 201.177C186.72 212.116 159.36 212.116 142.494 201.177C134.05 195.702 129.865 188.533 129.876 181.364C129.876 179.145 129.876 177.129 129.876 174.91C129.865 167.741 134.05 160.572 142.494 155.108Z" fill="#37474F"/>
<path d="M173.041 202.919C196.903 202.919 216.248 190.379 216.248 174.91C216.248 159.441 196.903 146.901 173.041 146.901C149.178 146.901 129.834 159.441 129.834 174.91C129.834 190.379 149.178 202.919 173.041 202.919Z" fill="#455A64"/>
<path d="M131.66 94.6886C141.219 88.4975 149.344 90.9548 152.562 99.7822C153.178 101.464 155.547 107.894 156.11 109.48C156.923 111.874 157.316 114.422 157.268 116.983C157.268 129.879 149.206 145.553 139.265 152.006C137.309 153.331 135.146 154.221 132.892 154.631L123.705 156.015C115.272 157.327 109.281 150.635 109.281 138.241C109.271 122.196 119.297 102.705 131.66 94.6886Z" fill="#37474F"/>
<path d="M139.265 105.329C149.206 98.876 157.268 104.137 157.268 117.008C157.268 129.879 149.206 145.577 139.265 152.031C129.324 158.484 121.209 153.224 121.209 140.352C121.209 127.481 129.324 111.747 139.265 105.329Z" fill="#263238"/>
<path d="M161.92 107C158.415 104.758 153.603 105.08 148.271 108.539C137.576 115.47 128.898 132.337 128.898 146.222C128.898 153.153 131.076 158.008 134.581 160.274C135.749 161.026 167.018 181.543 168.186 182.307C171.691 184.585 176.524 184.275 181.877 180.804C192.572 173.873 201.239 156.946 201.239 143.121C201.239 136.19 199.115 131.323 195.557 129.069L161.92 107Z" fill="#9255FA"/>
<path opacity="0.3" d="M161.92 107C158.415 104.758 153.603 105.08 148.271 108.539C137.576 115.47 128.898 132.337 128.898 146.222C128.898 153.153 131.076 158.008 134.581 160.274C135.749 161.026 167.018 181.543 168.186 182.307C171.691 184.585 176.524 184.275 181.877 180.804C192.572 173.873 201.239 156.946 201.239 143.121C201.239 136.19 199.115 131.323 195.557 129.069L161.92 107Z" fill="white"/>
<path opacity="0.45" d="M191.414 171.342L131.426 132.216C129.835 136.673 128.979 141.419 128.898 146.22C128.898 153.151 131.076 158.006 134.581 160.272C135.749 161.024 167.018 181.541 168.186 182.305C171.691 184.583 176.524 184.273 181.877 180.802C185.538 178.321 188.77 175.116 191.414 171.342Z" fill="#9255FA"/>
<path d="M181.866 130.545C192.572 123.615 201.239 129.233 201.239 143.106C201.239 156.98 192.572 173.859 181.866 180.79C171.16 187.72 162.493 182.114 162.493 168.228C162.493 154.343 171.171 137.536 181.866 130.545Z" fill="#263238"/>
<path d="M169.609 171.677C169.609 158.782 177.67 143.048 187.612 136.654C189.694 135.236 192.016 134.322 194.431 133.97L203.724 132.777C212.008 131.644 217.882 138.324 217.882 150.599C217.882 166.631 207.856 186.135 195.493 194.151C186.072 200.259 178.01 197.933 174.707 189.38C174.038 187.662 171.521 181.149 170.926 179.586C170.003 177.081 169.554 174.388 169.609 171.677Z" fill="#37474F"/>
<path d="M195.493 136.082C207.856 128.054 217.882 134.555 217.882 150.599C217.882 166.644 207.856 186.135 195.493 194.151C183.13 202.167 173.104 195.666 173.104 179.634C173.104 163.602 183.13 144.098 195.493 136.082Z" fill="#455A64"/>
<path d="M217.882 150.659C217.828 158.194 216.221 165.613 213.188 172.334C210.258 179.132 206.161 185.213 201.133 190.227C198.589 192.714 195.724 194.753 192.636 196.275C191.861 196.654 191.062 196.969 190.246 197.217L189.025 197.599C188.61 197.694 188.186 197.742 187.761 197.826C186.074 198.13 184.35 198.07 182.684 197.647C181.016 197.185 179.458 196.322 178.117 195.118C177.798 194.808 177.511 194.45 177.203 194.128L176.747 193.615L176.375 193.042L175.621 191.849L175.026 190.585C173.594 187.168 172.937 183.406 173.114 179.634L173.295 182.426L173.688 185.181C173.921 186.076 174.102 186.982 174.378 187.853L174.845 189.13C174.93 189.344 174.994 189.559 175.09 189.762L175.398 190.37L176.003 191.563L176.757 192.649L177.129 193.197L177.575 193.662C177.872 193.973 178.159 194.307 178.467 194.593C179.755 195.695 181.241 196.469 182.822 196.859C186.066 197.463 189.397 196.956 192.381 195.404C195.38 193.894 198.159 191.883 200.623 189.44C208.064 181.993 213.49 172.345 216.278 161.598C217.216 158.041 217.755 154.366 217.882 150.659Z" fill="#37474F"/>
<path d="M151.49 163.029C151.056 161.386 150.282 159.881 149.232 158.638C148.181 157.394 146.885 156.446 145.447 155.872C144.941 155.634 144.389 155.553 143.846 155.634C143.303 155.716 142.788 155.958 142.356 156.337L124.704 175.113C124.346 175.577 124.105 176.14 124.004 176.743C123.903 177.347 123.947 177.97 124.13 178.548C124.565 180.191 125.339 181.696 126.389 182.939C127.439 184.183 128.736 185.131 130.174 185.705C130.682 185.94 131.237 186.019 131.782 185.935C132.326 185.851 132.841 185.607 133.275 185.228L150.928 166.452C151.281 165.987 151.518 165.426 151.617 164.825C151.716 164.224 151.672 163.605 151.49 163.029Z" fill="#37474F"/>
<path d="M150.874 166.489C151.238 166.024 151.485 165.458 151.589 164.85C151.694 164.242 151.652 163.613 151.468 163.029C151.176 161.799 150.666 160.647 149.971 159.642L127.199 183.893C128.055 184.719 129.048 185.347 130.12 185.742C130.629 185.976 131.183 186.055 131.728 185.971C132.272 185.887 132.788 185.644 133.221 185.265L150.874 166.489Z" fill="#263238"/>
<path d="M75.198 222.017L121.665 176.019C122.226 175.545 122.888 175.243 123.584 175.142C124.281 175.042 124.988 175.147 125.638 175.447C127.509 176.196 129.197 177.43 130.565 179.048C131.932 180.667 132.94 182.625 133.508 184.763C133.746 185.523 133.8 186.339 133.663 187.13C133.527 187.92 133.206 188.656 132.733 189.26L89.6533 239.421C88.3065 240.913 86.6258 241.968 84.7888 242.475C82.5032 243.081 80.1032 242.819 77.9642 241.73C75.8252 240.641 74.0679 238.787 72.9669 236.457C71.866 234.127 71.4836 231.453 71.8796 228.854C72.2756 226.254 73.4276 223.875 75.1555 222.088L75.198 222.017Z" fill="#9255FA"/>
<path opacity="0.2" d="M75.0176 222.23C74.2866 223.149 73.8358 224.305 73.7308 225.532C73.6258 226.758 73.8721 227.99 74.4339 229.048C74.9956 230.107 75.8435 230.936 76.854 231.415C77.8645 231.895 78.9849 231.999 80.052 231.714C80.8325 231.505 81.5595 231.097 82.1763 230.521L130.247 178.654C131.808 180.304 132.943 182.398 133.529 184.714C133.767 185.474 133.821 186.29 133.685 187.081C133.548 187.871 133.227 188.607 132.754 189.211L89.6748 239.372C88.7056 240.618 87.5163 241.624 86.1823 242.326C84.8484 243.028 83.399 243.411 81.9262 243.45C80.4535 243.489 78.9897 243.183 77.6277 242.552C76.2658 241.922 75.0355 240.98 74.0151 239.787C72.9948 238.593 72.2066 237.175 71.7007 235.621C71.1948 234.067 70.9822 232.412 71.0765 230.761C71.1707 229.11 71.5698 227.499 72.2483 226.03C72.9268 224.561 73.8699 223.267 75.0176 222.23Z" fill="black"/>
<path d="M94.8683 161.037C94.5318 161.004 94.1951 161.097 93.9095 161.299C93.6238 161.501 93.4048 161.803 93.2857 162.158C93.0202 161.991 92.8396 161.669 92.5529 161.609C92.2661 161.549 91.9156 161.931 91.735 162.277C91.0737 163.663 90.8202 165.249 91.011 166.807C91.2019 168.365 91.8271 169.815 92.7972 170.949C92.9112 171.094 93.0528 171.208 93.2114 171.283C93.4032 171.337 93.6037 171.337 93.7955 171.283C94.8281 171.067 95.8362 170.723 96.8013 170.257C97.3035 170.075 97.7614 169.765 98.1392 169.351C98.5169 168.938 98.8042 168.431 98.9787 167.872C99.071 167.018 98.9302 166.153 98.575 165.391C98.2579 164.324 97.702 163.367 96.9606 162.611C96.419 162.146 95.548 161.12 94.8683 161.037Z" fill="#F7B5B5"/>
<path d="M101.401 136.701C107.944 124.664 107.646 122.386 104.47 116.541C102.739 113.356 94.7946 102.978 86.2128 92.5641C76.7493 81.1005 72.4053 79.9792 67.0947 79.4424L71.0458 104.708L86.85 126.275C86.85 126.275 79.9569 145.361 78.8205 150.705C77.1848 158.339 79.3515 167.596 85.0657 171.533C90.7798 175.469 92.1075 175.887 96.1117 174.264C100.116 172.642 101.135 172.022 101.316 170.423C101.783 166.403 102.272 165.831 99.8928 163.934C98.5333 162.849 97.3649 161.751 96.6427 161.298C96.5658 161.254 96.4818 161.229 96.3959 161.224C96.3099 161.218 96.2239 161.233 96.1432 161.266C96.0625 161.3 95.9888 161.352 95.9267 161.419C95.8646 161.486 95.8155 161.566 95.7824 161.656C94.9115 164.041 98.0447 166.821 98.0447 166.821C96.6755 167.346 95.3725 168.068 94.168 168.968C93.1059 164.984 93.6582 162.538 92.681 160.522C92.0544 159.246 90.9179 157.099 91.6189 155.846C93.074 153.174 97.3225 144.216 101.401 136.701Z" fill="#FFC9C8"/>
<path d="M86.8388 126.287C89.9508 128.673 94.1886 128.1 96.1748 127.253C94.7261 128.339 93.0378 128.951 91.2977 129.023C89.5575 129.094 87.8338 128.622 86.3184 127.659" fill="white"/>
<path d="M65.459 77.7373C73.1487 77.8208 76.0801 78.9302 83.7273 88.4732C87.8165 93.531 103.759 113.786 105.681 117.997C107.604 122.208 107.657 124.737 104.407 131.333C100.987 138.252 98.6713 142.296 98.6713 142.296C98.6713 142.296 94.614 138.562 82.7396 137.978L86.4357 126.55L69.5056 108.394L65.459 77.7373Z" fill="#263238"/>
<path d="M86.4571 126.514C88.3689 128.959 94.954 128.685 97.5456 127.707C94.3592 131.047 88.2839 130.796 85.8623 128.243L86.4571 126.514Z" fill="black"/>
<path d="M17.3656 322.086C17.3656 322.086 12.6285 322.957 9.93076 326.857C7.23299 330.758 1.18957 342.365 0 343.641C0.673137 344.915 1.59571 346 2.69777 346.814L5.88411 342.723C6.68069 341.983 7.02057 341.172 6.94622 343.582C6.87187 345.991 6.59572 348.472 6.64883 352.051C6.64883 354.89 6.17088 360.27 10.5043 365.722C14.5616 370.815 18.9162 373.249 21.9433 373.738C23.7488 374.012 26.9246 373.547 26.7228 369.503C26.6166 367.368 25.7456 360.33 25.4376 356.381C25.1296 352.433 17.3656 322.086 17.3656 322.086Z" fill="#263238"/>
<path d="M12.8941 344.31C13.0428 346.695 12.6073 353.853 19.5429 360.378C22.9523 363.563 25.4908 362.871 25.512 359.185C25.512 353.34 24.8641 342.604 30.8226 331.641C32.8618 327.896 38.576 320.428 45.6921 311.231V311.434C52.2666 302.845 59.8076 292.932 66.6689 283.175L66.9238 282.817L67.0937 282.578C74.2099 272.498 80.5826 262.514 84.3212 254.259L84.8629 253.066C84.8571 253.027 84.8571 252.987 84.8629 252.947C86.7428 248.605 87.7624 244.883 87.5925 242.08L70.8111 242.426L58.0658 232.883C55.6934 240.677 52.7077 248.218 49.144 255.416C45.9577 262.049 35.7295 275.051 29.5799 292.682C24.8004 306.376 20.9555 315.275 20.0209 316.969C19.0862 318.663 17.185 322.289 16.5796 323.148C13.1171 328.206 12.1506 331.796 12.8941 344.31Z" fill="#FFC9C8"/>
<path d="M58.4587 242.724L87.6136 242.115C87.6349 242.489 87.6349 242.863 87.6136 243.237C87.6136 243.38 87.6136 243.535 87.6136 243.678C87.6136 243.821 87.6136 244.191 87.5393 244.453C87.465 244.716 87.4756 244.847 87.4437 245.038C87.4118 245.229 87.3694 245.503 87.3269 245.742C87.2844 245.98 87.2207 246.219 87.1676 246.457C87.1145 246.696 87.072 246.875 87.0082 247.101C86.9953 247.167 86.9776 247.23 86.9551 247.292C86.8383 247.376 79.5841 252.959 65.9465 255.571C65.9465 255.571 65.5111 280.013 61.9105 289.866C60.5723 291.715 59.2127 293.552 57.8639 295.389C57.216 280.765 58.4587 242.724 58.4587 242.724Z" fill="#F7B5B5"/>
<path d="M38.0343 348.246C35.8701 350.752 34.4779 353.971 34.062 357.431C33.6584 362.716 34.2213 377.185 33.8496 379.13C35.0134 379.842 36.3161 380.219 37.6414 380.227L38.3636 374.418C38.6822 373.225 38.5654 372.271 39.7019 374.418C40.8383 376.565 41.8261 379.07 43.5573 382.267C44.9699 384.808 47.126 390.021 53.4031 392.096C59.2766 394.041 64.1092 393.385 66.8813 391.834C68.5382 390.903 70.9705 388.386 68.8462 384.867C67.7204 383.007 63.5994 377.209 61.4114 373.869C59.2235 370.529 38.0343 348.246 38.0343 348.246Z" fill="#263238"/>
<path d="M53.9761 348.067C53.6787 334.242 65.2664 271.019 62.1438 241.316L29.0908 240.875C30.8709 249.502 32.0147 258.28 32.5108 267.118C33.0525 275.194 30.7371 293.684 34.104 313.641C36.7168 329.148 37.7895 339.741 37.832 341.876C37.8745 344.011 38.0338 348.544 37.9488 349.725C37.4178 356.549 38.3418 360.461 45.0225 371.269C46.3077 373.356 49.409 380.108 58.3733 381.432C62.781 382.076 64.576 379.774 62.8235 376.458C60.0302 371.149 54.2629 361.893 53.9761 348.067Z" fill="#FFC9C8"/>
<path d="M32.5324 267.107C32.5962 270.257 32.4369 273.382 32.2775 276.507C32.1182 279.633 32.0226 282.782 31.9483 285.919C31.7871 292.213 31.9822 298.512 32.5324 304.779C32.8298 307.916 33.2865 311.017 33.7964 314.107L35.3152 323.328C35.8144 326.405 36.2711 329.495 36.7065 332.585C37.142 335.674 37.5775 338.764 37.843 341.889C37.5011 335.626 36.8701 329.387 35.9524 323.197C35.1452 316.97 33.8813 310.874 33.3821 304.659C33.0529 301.57 32.8829 298.444 32.7449 295.319C32.6068 292.194 32.5962 289.033 32.5324 285.931C32.4687 282.83 32.5324 279.668 32.628 276.531C32.7236 273.394 32.7661 270.245 32.5324 267.107Z" fill="#F7B5B5"/>
<path d="M62.6217 257.85C62.8073 252.333 62.6476 246.808 62.1438 241.316L29.0908 240.875C29.9969 244.989 30.706 249.154 31.215 253.353C31.215 253.353 43.9179 260.546 62.6217 257.85Z" fill="#F7B5B5"/>
<path d="M87.0193 180.921C86.2699 172.392 85.0747 163.92 83.4399 155.548C82.1229 149.143 80.8909 143.62 80.0199 138.681C70.4609 145.838 46.5315 146.518 35.5386 138.431C33.7012 141.663 28.2419 149.739 23.9085 161.215C20.138 171.235 18.5979 177.509 18.7572 189.963C18.9166 201.367 23.4518 234.875 27.5834 249.19C38.7462 256.144 77.9063 254.546 88.9948 242.092C88.9948 242.092 88.3363 192.731 87.0193 180.921Z" fill="#455A64"/>
<path d="M12.5875 58.0568C11.5997 56.4583 11.1536 53.166 12.2264 51.6391C13.2467 50.2379 14.6703 49.2803 16.2518 48.9313C17.1993 48.7501 18.0446 48.1556 18.6036 47.2775C19.1627 46.3995 19.3901 45.3088 19.2363 44.2433C19.3213 40.6646 20.2347 38.6725 21.9129 37.2768C26.4375 33.567 38.5562 33.1137 38.2269 42.2154C38.2269 43.5752 37.7808 45.0544 38.4287 46.1996C38.7287 46.6868 39.1203 47.094 39.5758 47.3925C41.7671 48.8106 43.7874 50.5384 45.5874 52.5338C47.2655 54.669 48.3064 57.6989 47.4779 60.3829C46.6495 63.0669 44.4296 64.7011 44.0367 67.3374C43.5056 70.916 46.7451 74.4947 45.8635 77.9779C45.1519 80.805 43.1232 81.4253 40.9141 81.7832C38.365 82.2126 37.5047 85.7435 34.5414 85.5169C33.262 85.5321 31.9889 85.7203 30.7496 86.0775C29.214 86.4592 27.6226 86.4592 26.087 86.0775C25.3211 85.8776 24.5986 85.5075 23.962 84.9892C23.3254 84.4709 22.7876 83.8148 22.3802 83.0596C21.6792 81.652 21.5517 79.8746 20.5746 78.6817C19.5974 77.4888 18.5672 77.1071 17.6856 76.1528C16.7092 75.2457 16.0537 73.9765 15.8376 72.5742C15.7608 72.037 15.7895 71.4876 15.9216 70.9642C16.0537 70.4408 16.286 69.9562 16.6023 69.5442C16.1652 69.7017 15.7814 70.0055 15.5024 70.4149C15.2233 70.8242 15.0623 71.3196 15.041 71.8346C15.0085 72.8633 15.1715 73.8881 15.5189 74.8406C14.7833 74.4519 14.1301 73.8915 13.6027 73.1966C13.0754 72.5018 12.6861 71.6885 12.4609 70.8113C12.2358 69.934 12.1798 69.0128 12.2969 68.1093C12.414 67.2058 12.7013 66.3408 13.1398 65.5719C13.7133 64.5819 14.5524 63.6633 14.5524 62.4943C14.4781 60.5976 13.5434 59.6195 12.5875 58.0568Z" fill="#263238"/>
<path d="M29.1355 34.4495C24.6215 37.2528 25.0038 47.094 30.6224 51.2811C36.241 55.4681 35.9224 29.6661 29.1355 34.4495Z" fill="#9255FA"/>
<path d="M75.5703 26.2895C74.6887 19.7287 68.0718 19.4901 66.3193 19.7287C65.0448 19.8218 63.7683 19.5852 62.5879 19.0372C61.4076 18.4892 60.355 17.6443 59.5111 16.5676C58.4871 15.3574 57.1951 14.4744 55.7675 14.0091C54.3399 13.5438 52.8278 13.5128 51.386 13.9194C46.6914 15.327 47.7854 17.498 43.8131 19.0726C40.2763 20.4444 37.6422 19.1561 34.424 22.6512C33.464 23.8055 32.753 25.1922 32.346 26.7041C31.939 28.2161 31.8469 29.8129 32.0768 31.3712C29.6551 33.0651 26.4688 43.0972 31.5032 54.0359C34.0948 59.6663 37.1749 62.2787 41.0622 66.9309H44.769C45.9586 63.3523 49.1131 64.0322 52.002 63.1972C53.8395 62.2549 54.8697 59.9287 56.7072 58.9864C58.5446 58.044 60.7751 58.712 62.7931 58.2945C64.3544 57.9843 65.9794 56.9227 67.5726 57.364C71.3006 59.0341 76.8873 55.36 76.4306 50.5408C76.2819 49.0855 75.5597 47.6779 75.804 46.2345C76.1226 44.3378 77.9282 43.2761 78.8522 41.6777C79.3913 40.7711 79.6537 39.6925 79.6001 38.604C79.5464 37.5155 79.1796 36.476 78.5548 35.6417C75.8358 32.3732 76.0801 30.0232 75.5703 26.2895Z" fill="#263238"/>
<path d="M62.7187 79.0856L60.7856 78.8351C59.1393 78.6204 59.2668 76.509 59.0969 74.6958L58.9269 71.8687C60.4063 72.0061 61.8952 71.811 63.3067 71.2949C64.7181 70.7787 66.0239 69.9519 67.1477 68.8627C70.5358 65.4987 72.3095 58.8425 71.9272 51.7091C71.6723 46.9375 70.5677 44.7546 70.6208 43.6929C70.9394 37.3348 70.4827 36.2016 69.1444 32.957C66.7334 27.7441 60.7538 25.8951 58.2259 31.5374C50.7911 25.1436 42.7085 33.7085 43.0908 43.4662C44.1529 51.542 41.9331 51.9715 40.5311 52.0311C38.4069 47.0091 33.7761 47.1284 31.843 50.4088C30.0905 53.3671 30.1755 57.912 33.6168 62.0155C37.058 66.119 40.6692 63.3873 40.7011 62.5762C40.7011 62.5762 41.3277 73.4672 41.4233 75.6979C41.5189 77.9286 41.3171 79.1453 38.9167 80.0638L35.4648 81.376C35.4648 81.376 35.656 81.6503 36.0384 82.1156C36.9093 83.2369 38.8424 85.6942 42.0924 89.9766C50.3132 93.3525 60.1483 98.0644 65.9475 101.905C67.42 97.2237 68.6297 92.4427 69.5693 87.5909C67.5739 84.479 65.2762 81.6264 62.7187 79.0856Z" fill="#FFC9C8"/>
<path d="M37.2911 62.0872C38.2355 62.0872 39.0011 61.2273 39.0011 60.1666C39.0011 59.1059 38.2355 58.2461 37.2911 58.2461C36.3466 58.2461 35.5811 59.1059 35.5811 60.1666C35.5811 61.2273 36.3466 62.0872 37.2911 62.0872Z" fill="#9255FA"/>
<path d="M54.2644 58.1162L59.7768 59.7147C59.6969 60.1255 59.5445 60.5141 59.3287 60.8578C59.1129 61.2014 58.838 61.493 58.5202 61.7153C58.2024 61.9377 57.8482 62.0863 57.4785 62.1525C57.1088 62.2186 56.731 62.2009 56.3674 62.1004C55.6292 61.8653 54.9995 61.3209 54.6082 60.5795C54.2169 59.8382 54.0938 58.9565 54.2644 58.1162Z" fill="#B16668"/>
<path d="M54.6786 59.4987C55.3996 59.4428 56.1162 59.6638 56.7106 60.1255C57.305 60.5872 57.7421 61.2622 57.9499 62.0396C57.441 62.2404 56.8908 62.2694 56.3674 62.1231C55.8371 61.9652 55.3569 61.6434 54.9814 61.1943C54.6058 60.7451 54.3501 60.1866 54.2432 59.5822C54.3862 59.5417 54.5318 59.5138 54.6786 59.4987Z" fill="#F28F8F"/>
<path d="M68.7836 40.3663L64.5352 39.1734C64.5923 38.8559 64.7065 38.5548 64.8707 38.2885C65.0348 38.0222 65.2456 37.7962 65.4901 37.6243C65.7345 37.4524 66.0076 37.3383 66.2926 37.2888C66.5777 37.2393 66.8687 37.2555 67.148 37.3364C67.7139 37.5107 68.1989 37.9219 68.5031 38.4855C68.8074 39.0491 68.9077 39.7222 68.7836 40.3663Z" fill="#263238"/>
<path d="M48.3693 42.1065L52.416 40.0666C52.3078 39.7637 52.1455 39.4888 51.939 39.2591C51.7325 39.0294 51.4863 38.8497 51.2155 38.7312C50.9447 38.6127 50.6551 38.5578 50.3647 38.57C50.0743 38.5822 49.7892 38.6613 49.527 38.8022C48.9971 39.0856 48.5828 39.5844 48.3678 40.1979C48.1529 40.8113 48.1534 41.4935 48.3693 42.1065Z" fill="#263238"/>
<path d="M63.8224 45.4241C63.8165 45.9582 63.9963 46.4738 64.3235 46.8614C64.6508 47.249 65.0997 47.478 65.5749 47.4997C65.8058 47.5141 66.0369 47.4765 66.2545 47.389C66.4722 47.3015 66.6721 47.1659 66.8424 46.9902C67.0127 46.8146 67.1499 46.6024 67.246 46.3662C67.342 46.1299 67.395 45.8745 67.4017 45.6149C67.4077 45.0797 67.2283 44.5627 66.9013 44.1732C66.5743 43.7837 66.1254 43.5521 65.6492 43.5274C65.4175 43.5129 65.1856 43.551 64.9672 43.6392C64.7488 43.7274 64.5484 43.8641 64.378 44.041C64.2076 44.218 64.0706 44.4316 63.9751 44.6692C63.8797 44.9068 63.8277 45.1635 63.8224 45.4241Z" fill="#263238"/>
<path d="M50.876 46.1399C50.8731 46.6937 51.0641 47.2267 51.4078 47.6239C51.7515 48.0211 52.2204 48.2507 52.7135 48.2632C52.9499 48.2776 53.1865 48.2388 53.4094 48.1489C53.6322 48.059 53.8368 47.9199 54.011 47.7397C54.1852 47.5596 54.3256 47.3422 54.4238 47.1002C54.522 46.8582 54.576 46.5966 54.5828 46.3307C54.5842 46.0535 54.5369 45.7786 54.4438 45.5218C54.3506 45.2651 54.2133 45.0314 54.0397 44.8342C53.8661 44.6371 53.6596 44.4802 53.4321 44.3727C53.2045 44.2651 52.9603 44.209 52.7135 44.2074C52.4789 44.1946 52.2445 44.2348 52.0241 44.3257C51.8037 44.4167 51.6018 44.5564 51.4304 44.7366C51.259 44.9169 51.1216 45.134 51.0264 45.375C50.9311 45.6161 50.88 45.8762 50.876 46.1399Z" fill="#263238"/>
<path d="M58.9262 71.8099C51.9587 71.4639 45.2037 69.7343 43.2812 65.082C43.4297 66.472 43.9002 67.7939 44.6456 68.9158C45.3911 70.0377 46.3856 70.9204 47.5297 71.4759C51.1424 73.3647 55.1035 74.2602 59.0855 74.0883L58.9262 71.8099Z" fill="#F28F8F"/>
<path d="M65.2146 51.9366L58.9588 54.9666L57.4824 41.5586L65.2146 51.9366Z" fill="#E8B0B0"/>
<path d="M60.7647 78.7393C60.7647 78.7393 63.8449 85.9681 61.7419 90.3341C51.3438 88.998 42.5601 83.5704 39.0127 79.9083L30.2715 81.471C30.2715 81.471 24.5467 93.7338 26.3204 104.136C28.0941 114.538 35.5396 138.419 35.5396 138.419C45.4385 154.559 79.0862 146.03 80.0209 138.67C80.0209 138.67 81.0192 129.52 81.8477 121.969C81.8477 121.969 86.5635 116.888 86.7971 110.04C87.0414 102.883 84.418 97.8969 78.0028 90.5249C74.3059 86.2103 70.2276 82.3293 65.831 78.942L60.7647 78.7393Z" fill="#9255FA"/>
<path opacity="0.7" d="M60.7647 78.7393C60.7647 78.7393 63.8449 85.9681 61.7419 90.3341C51.3438 88.998 42.5601 83.5704 39.0127 79.9083L30.2715 81.471C30.2715 81.471 24.5467 93.7338 26.3204 104.136C28.0941 114.538 35.5396 138.419 35.5396 138.419C45.4385 154.559 79.0862 146.03 80.0209 138.67C80.0209 138.67 81.0192 129.52 81.8477 121.969C81.8477 121.969 86.5635 116.888 86.7971 110.04C87.0414 102.883 84.418 97.8969 78.0028 90.5249C74.3059 86.2103 70.2276 82.3293 65.831 78.942L60.7647 78.7393Z" fill="white"/>
<path opacity="0.3" d="M41.9435 120.49C42.8052 123.221 44.3513 125.615 46.3959 127.382C48.4404 129.149 50.8961 130.215 53.4675 130.451C55.9383 130.77 58.4404 130.351 60.7211 129.237C63.0018 128.123 64.9804 126.352 66.4571 124.105C66.4571 124.105 64.6409 134.984 53.117 133.075C41.593 131.166 41.9435 120.49 41.9435 120.49Z" fill="#9255FA"/>
<path d="M41.3807 75.7461C41.3807 75.7461 49.9626 98.1842 52.8515 109.016C55.7405 119.847 54.2429 128.495 53.1595 148.094C52.3205 163.184 50.8547 185.944 50.8547 185.944C50.8547 185.944 25.364 185.527 17.5469 172.823C19.6711 165.319 26.1606 147.832 27.8494 143.001C29.5381 138.17 28.7097 133.994 25.9801 122.924C23.2504 111.855 18.8851 105.807 19.0126 97.6235C19.14 89.4404 24.2169 82.8318 26.0756 81.4242L41.3807 75.7461Z" fill="#37474F"/>
<path d="M59.4678 77.6064C59.5458 77.8778 59.6843 78.1222 59.8702 78.3164C60.0561 78.5106 60.2832 78.6481 60.5299 78.7158C60.5299 78.7158 77.8105 97.3844 79.0213 116.721C80.2321 136.058 81.3048 178.417 81.3048 178.417C81.3048 178.417 83.1848 177.439 86.8384 172.953C86.0631 164.174 83.3653 129.485 84.0982 125.512C84.831 121.54 93.2536 112.486 85.5214 99.5793C77.7892 86.6723 65.4581 77.7496 65.4581 77.7496L59.4678 77.6064Z" fill="#37474F"/>
<path d="M67.9444 82.3189C69.0065 83.4282 70.1324 84.5495 71.1308 85.7066C73.255 88.0208 75.3792 90.3469 77.3972 92.7566C78.4062 93.9494 79.4152 95.1423 80.3924 96.4426C80.8916 97.0748 81.3695 97.707 81.8369 98.3631C82.3805 99.0282 82.7963 99.8119 83.0583 100.665C83.2454 101.54 83.2922 102.445 83.1964 103.337C83.1162 104.188 82.9741 105.03 82.7715 105.854C82.3996 107.383 81.9274 108.878 81.3589 110.328C82.5715 111.936 83.5533 113.747 84.2691 115.696C84.3566 115.978 84.4172 116.27 84.4497 116.566C84.4768 116.864 84.4768 117.164 84.4497 117.461C84.4497 118.022 84.3222 118.559 84.2479 119.095C84.0885 120.169 83.8974 121.219 83.6956 122.28C82.8884 126.491 81.9218 130.63 80.881 134.794C81.6244 130.571 82.3785 126.36 83.0052 122.137C83.1751 121.076 83.3238 120.026 83.4513 118.964C83.4513 118.439 83.5681 117.914 83.5893 117.401C83.6421 116.926 83.5911 116.443 83.4407 115.994C82.687 114.083 81.6769 112.312 80.4455 110.745L80.2649 110.495L80.3818 110.185C80.9646 108.7 81.4371 107.164 81.7944 105.592C81.9784 104.809 82.1062 104.012 82.1767 103.206C82.2778 102.448 82.249 101.674 82.0918 100.928C81.8636 100.206 81.5016 99.5477 81.0297 98.9953C80.5836 98.3512 80.1162 97.7189 79.6383 97.0986C78.693 95.8461 77.6946 94.6174 76.7069 93.3888C74.7207 90.9434 72.7239 88.5099 70.6741 86.1241C68.6242 83.7384 66.6168 81.3526 64.4395 79.0742C65.7352 80.1001 66.8398 81.2095 67.9444 82.3189Z" fill="#263238"/>
<path d="M37.5791 107.978V100.081C37.6428 93.0548 37.7066 86.0407 37.9296 79.0146C38.1951 86.0407 38.3226 93.0668 38.4394 100.105V105.389V108.025V108.67C38.4397 108.839 38.4612 109.008 38.5031 109.171C38.604 109.518 38.7666 109.838 38.9811 110.113C40.0413 111.29 41.307 112.208 42.6985 112.809C44.108 113.494 45.5598 114.064 47.0425 114.515L47.5523 114.67L47.3718 115.219C46.6029 117.34 45.9468 119.511 45.4069 121.72C45.2794 122.268 45.1626 122.829 45.0776 123.366C44.9948 123.871 44.9948 124.388 45.0776 124.893V125.036L45.1626 125.239L46.4159 127.994C47.3293 130.07 48.264 132.134 49.1455 134.221L51.822 140.484L48.795 134.424C47.7329 132.408 46.8195 130.368 45.8317 128.328L45.0989 126.801L44.7271 126.038L44.451 125.465L44.3766 125.191C44.255 124.562 44.255 123.911 44.3766 123.282C44.4455 122.695 44.5484 122.113 44.6846 121.541C45.1661 119.462 45.7511 117.415 46.4371 115.409C45.0655 115.001 43.7205 114.487 42.4117 113.871C40.8689 113.219 39.4754 112.187 38.3332 110.853C38.0374 110.458 37.8169 109.999 37.6853 109.505C37.625 109.24 37.5965 108.967 37.6003 108.694L37.5791 107.978Z" fill="#263238"/>
<path d="M26.0756 81.4717C17.738 83.1059 14.3923 88.8317 10.7599 100.987C5.74673 117.556 1.34958 133.958 0.404297 142.309L20.0746 136.261L30.6002 112.475C30.6002 112.475 34.5406 93.317 26.0756 81.4717Z" fill="#263238"/>
<path d="M65.9471 174.946L23.3988 167.598L16.9199 106.319L59.4788 113.667L65.9471 174.946Z" fill="#9255FA"/>
<path opacity="0.2" d="M65.9471 174.946L23.3988 167.598L16.9199 106.319L59.4788 113.667L65.9471 174.946Z" fill="black"/>
<path d="M64.3757 172.261L23.6012 165.2L17.5684 108.061L58.3429 115.11L64.3757 172.261Z" fill="#FAFAFA"/>
<path d="M59.1389 154.953L55.0604 116.364L16.9199 106.308L23.3988 167.61L63.7591 178.238C63.9263 178.28 64.1 178.277 64.2656 178.227C64.4311 178.177 64.5835 178.083 64.7098 177.953C64.836 177.823 64.9324 177.661 64.9906 177.48C65.0489 177.299 65.0673 177.105 65.0443 176.914L62.9838 157.363C62.929 156.946 62.7673 156.555 62.5183 156.24C62.2693 155.924 61.9439 155.697 61.5818 155.585L59.1389 154.953Z" fill="#9255FA"/>
<path d="M0.669922 142.309C0.669922 148.584 1.49837 149.634 7.63738 153.164C13.7764 156.695 29.262 162.135 41.5188 163.459C49.5165 164.33 53.6269 163.9 56.7282 162.529C59.4739 161.328 61.7682 159.103 63.2264 156.227C64.6845 153.351 65.2178 150 64.7366 146.735C66.0748 142.405 64.0462 141.82 62.3893 141.343L62.6867 144.182C62.6867 144.182 59.0968 146.926 55.7936 146.973C52.4904 147.021 55.5599 142.679 56.1547 140.055C56.7495 137.43 56.622 135.927 54.7102 134.687C53.6481 134.687 53.287 136.333 49.952 140.067C47.4241 142.894 45.4486 148.059 41.5188 147.462C38.4493 146.985 20.1916 137.478 20.1916 137.478L19.3631 129.629L0.669922 142.309Z" fill="#FFC9C8"/>
<path d="M0.404286 142.309C0.170621 146.222 0.786645 148.273 2.39044 149.955C3.99423 151.637 10.6324 155.156 14.7109 156.755C18.7895 158.353 29.4743 161.598 31.5136 162.015C29.3894 158.294 29.9098 150.957 31.7154 147.701C33.521 144.444 35.8895 145.208 35.8895 145.208L20.1808 137.275L19.0444 126.539L0.404286 142.309Z" fill="#263238"/>
<path d="M208.228 42.4852C211.404 49.2719 212.164 57.1612 210.352 64.5535L209.364 67.822C206.848 74.8584 202.066 80.5737 195.969 83.8318C189.873 87.0898 182.908 87.652 176.459 85.4066C170.01 83.1612 164.55 78.2726 161.163 71.7126C157.777 65.1526 156.712 57.4016 158.181 50.0004L159.02 46.6722C160.733 41.1028 163.858 36.2178 168.013 32.6193C172.167 29.0209 177.168 26.8664 182.399 26.4213C187.63 25.9761 192.863 27.2599 197.453 30.1143C202.042 32.9688 205.788 37.2691 208.228 42.4852Z" fill="white"/>
<path d="M170.821 27.5625C164.333 31.3828 159.362 37.8045 156.896 45.5516C154.429 53.2987 154.648 61.8044 157.508 69.3788C160.369 76.9532 165.661 83.042 172.335 86.4354C179.008 89.8289 186.574 90.2788 193.529 87.6956L200.369 94.3877C200.626 94.6427 200.946 94.8037 201.287 94.8493C201.628 94.8948 201.973 94.8228 202.276 94.6428C202.579 94.4627 202.826 94.1832 202.985 93.8415C203.143 93.4997 203.205 93.1118 203.162 92.7296L202.1 82.6139C207.914 77.6293 211.848 70.3741 213.124 62.2857C214.4 54.1973 212.925 45.8655 208.991 38.9409C205.056 32.0162 198.95 27.0038 191.88 24.8965C184.811 22.7892 177.295 23.7407 170.821 27.5625ZM208.229 42.4855C211.405 49.2721 212.164 57.1615 210.353 64.5537L209.365 67.8222C206.849 74.8587 202.067 80.574 195.97 83.832C189.874 87.0901 182.909 87.6523 176.46 85.4068C170.011 83.1614 164.551 78.2728 161.164 71.7128C157.778 65.1528 156.713 57.4018 158.182 50.0006L159.021 46.6725C160.733 41.103 163.859 36.218 168.014 32.6196C172.168 29.0212 177.169 26.8666 182.4 26.4215C187.631 25.9764 192.864 27.2601 197.454 30.1146C202.043 32.969 205.789 37.2693 208.229 42.4855Z" fill="#455A64"/>
<path opacity="0.7" d="M208.228 42.4852C211.404 49.2719 212.164 57.1612 210.352 64.5535L209.364 67.822C206.848 74.8584 202.066 80.5737 195.969 83.8318C189.873 87.0898 182.908 87.652 176.459 85.4066C170.01 83.1612 164.55 78.2726 161.163 71.7126C157.777 65.1526 156.712 57.4016 158.181 50.0004L159.02 46.6722C160.733 41.1028 163.858 36.2178 168.013 32.6193C172.167 29.0209 177.168 26.8664 182.399 26.4213C187.63 25.9761 192.863 27.2599 197.453 30.1143C202.042 32.9688 205.788 37.2691 208.228 42.4852Z" fill="white"/>
<path d="M203.948 63.0151L197.087 47.2453C197.29 46.9844 197.403 46.6498 197.405 46.3029C197.402 45.9684 197.299 45.6448 197.111 45.3851C196.923 45.1253 196.663 44.9447 196.372 44.8727C196.081 44.8008 195.777 44.8416 195.509 44.9887C195.242 45.1358 195.026 45.3804 194.899 45.6826H185.095V40.7799C185.607 40.5874 186.041 40.1969 186.319 39.6782C186.598 39.1595 186.703 38.5464 186.616 37.9485C186.53 37.3506 186.256 36.8068 185.845 36.4145C185.434 36.0221 184.913 35.8066 184.373 35.8066C183.834 35.8066 183.312 36.0221 182.901 36.4145C182.49 36.8068 182.217 37.3506 182.13 37.9485C182.043 38.5464 182.148 39.1595 182.427 39.6782C182.706 40.1969 183.139 40.5874 183.651 40.7799V45.6826H173.848C173.72 45.3804 173.505 45.1358 173.237 44.9887C172.969 44.8416 172.665 44.8008 172.375 44.8727C172.084 44.9447 171.823 45.1253 171.635 45.3851C171.448 45.6448 171.344 45.9684 171.341 46.3029C171.343 46.6498 171.456 46.9844 171.66 47.2453L164.798 63.0151H164.331C164.416 63.2656 164.533 63.5042 164.639 63.7428C164.637 63.7666 164.637 63.7906 164.639 63.8144C165.369 65.4973 166.505 66.916 167.918 67.9084C169.332 68.9008 170.965 69.427 172.631 69.427C174.298 69.427 175.931 68.9008 177.345 67.9084C178.758 66.916 179.894 65.4973 180.624 63.8144C180.73 63.5639 180.847 63.3253 180.932 63.0748H180.465L173.603 47.3049C173.679 47.2141 173.74 47.1091 173.784 46.9948H183.587V71.6397H181.038V72.8326H180.38C179.774 72.8326 179.193 73.1028 178.765 73.5837C178.337 74.0647 178.096 74.717 178.096 75.3972H190.523C190.523 74.717 190.282 74.0647 189.854 73.5837C189.426 73.1028 188.845 72.8326 188.239 72.8326H187.602V71.6397H185.053V46.9351H194.856C194.904 47.0471 194.965 47.1514 195.037 47.2453L188.175 63.0151H187.793C187.857 63.1821 187.931 63.3372 188.006 63.5042C187.991 63.6145 188.006 63.7272 188.05 63.8274C188.093 63.9275 188.163 64.0104 188.25 64.0649C189.047 65.7681 190.264 67.1774 191.756 68.1245C193.247 69.0716 194.95 69.5163 196.66 69.4056C198.371 69.2949 200.016 68.6334 201.401 67.5002C202.786 66.367 203.851 64.8099 204.468 63.0151H203.948ZM179.349 63.0151H165.977L172.616 47.7821H172.732L179.349 63.0151ZM189.397 63.0151L196.035 47.7821H196.099L202.737 63.0151H189.397Z" fill="#9255FA"/>
</svg>
