<svg width="514" height="387" viewBox="0 0 514 387" fill="none" xmlns="http://www.w3.org/2000/svg">
<g style="mix-blend-mode:multiply" opacity="0.3">
<path d="M497.181 144.346C494.031 139.743 488.707 135.555 481.772 132.014C494.629 123.968 492.431 105.774 476.607 90.9268C461.869 77.0682 440.428 70.9631 426.423 75.9815C425.409 76.3478 420.928 78.4235 418.279 79.6446L417.363 80.0963C417.033 80.2673 416.764 80.4016 416.581 80.5115C412.957 82.4858 410.153 85.6839 408.669 89.5348C408.132 89.7913 407.582 90.0355 407.07 90.3285L406.764 90.5239C401.741 90.6335 396.779 91.6425 392.112 93.5032C383.797 96.9464 373.137 101.415 362.93 105.872L174.55 28.7768C174.367 28.7035 174.135 28.6059 173.94 28.5448C167.237 26.1028 159.105 28.1297 155.783 33.0504C152.462 37.9711 155.222 43.9175 161.888 46.3473L346.58 113.235L345.481 113.748C343.586 113.99 341.723 114.441 339.926 115.091C339 115.247 338.083 115.451 337.178 115.701C334.265 115.87 331.388 116.441 328.631 117.399C327.569 117.777 322.905 119.841 320.084 121.208C319.754 121.367 319.425 121.526 319.107 121.697L318.301 122.112C304.064 130.231 306.091 149.524 322.966 165.226C323.82 166.032 324.699 166.789 325.591 167.546L325.945 167.839C326.812 168.547 327.679 169.231 328.57 169.89L329.046 170.232C329.938 170.879 330.841 171.453 331.757 172.113L332.172 172.381C333.137 173.004 334.101 173.602 335.078 174.164H335.2V189.512C335.2 190.159 335.2 190.794 335.298 191.441C335.396 192.088 335.457 192.662 335.567 193.285C339.633 214.726 377.741 231.527 424.176 231.527C470.612 231.527 508.72 214.726 512.786 193.297C512.786 193.297 512.786 193.297 512.786 193.2C512.901 192.618 512.986 192.031 513.042 191.441C513.115 190.801 513.152 190.157 513.152 189.512V168.425C513.262 159.463 507.303 151.172 497.181 144.346Z" fill="#244442"/>
</g>
<path d="M476.533 173.322C476.533 150.952 443.676 132.82 403.15 132.82C362.624 132.82 329.767 150.952 329.767 173.322V193.713C329.767 216.082 362.624 234.214 403.162 234.214C443.7 234.214 476.546 216.082 476.546 193.713L476.533 173.322Z" fill="#4D2A14"/>
<path d="M476.533 173.322C476.533 195.678 443.676 213.811 403.15 213.811C362.624 213.811 329.767 195.678 329.767 173.322C329.767 150.965 362.624 132.82 403.162 132.82C443.7 132.82 476.533 150.952 476.533 173.322Z" fill="#6B391D"/>
<path d="M476.533 185.739C473.737 206.301 441.905 222.565 403.15 222.565C364.395 222.565 332.551 206.313 329.767 185.739V193.7C329.773 194.927 329.879 196.152 330.084 197.363C333.943 203.578 340.28 209.243 348.827 213.957C363.369 221.991 382.673 226.399 403.162 226.399C423.651 226.399 442.943 221.991 457.485 213.957C466.033 209.243 472.382 203.578 476.24 197.363C476.435 196.151 476.537 194.927 476.546 193.7L476.533 185.739Z" fill="#EAAA0A"/>
<path d="M403.149 222.577C386.69 222.577 371.488 219.635 359.192 214.689V218.768C373.257 223.968 388.154 226.554 403.149 226.399C414.65 226.448 426.106 224.966 437.216 221.991V218.035C426.121 221.1 414.659 222.628 403.149 222.577Z" fill="#F3B910"/>
<path d="M403.149 222.577C396.501 222.602 389.86 222.124 383.283 221.148V225.019C389.862 225.976 396.501 226.454 403.149 226.448C406.531 226.448 409.889 226.326 413.198 226.081V222.247C409.914 222.443 406.556 222.577 403.149 222.577Z" fill="#FFD241"/>
<path d="M465.995 159.621C465.995 141.611 437.912 127.02 403.149 127.02C368.387 127.02 340.291 141.672 340.291 159.621V167.289C340.291 185.299 368.436 199.891 403.149 199.891C437.863 199.891 465.995 185.238 465.995 167.289V159.621Z" fill="#4D2A14"/>
<path d="M465.995 159.621C465.995 177.619 437.912 192.21 403.149 192.21C368.387 192.21 340.291 177.558 340.291 159.621C340.291 141.684 368.436 127.02 403.149 127.02C437.863 127.02 465.995 141.611 465.995 159.621Z" fill="#6B391D"/>
<path d="M341.536 111.611L160.886 22.3053C159.466 21.6534 158.191 20.7231 157.136 19.5695C156.081 18.4159 155.269 17.0625 154.747 15.5893C154.224 14.1162 154.003 12.5532 154.096 10.993C154.188 9.43274 154.593 7.90694 155.286 6.50588C155.979 5.10482 156.945 3.85698 158.129 2.83621C159.313 1.81545 160.689 1.04251 162.177 0.563149C163.664 0.0837856 165.233 -0.0922594 166.79 0.0454337C168.347 0.183127 169.86 0.63176 171.241 1.36478L171.766 1.64561L347.678 99.9379C349.144 100.792 350.223 102.178 350.693 103.808C351.162 105.438 350.986 107.187 350.2 108.69C349.414 110.193 348.078 111.335 346.472 111.879C344.865 112.423 343.111 112.327 341.573 111.611H341.536Z" fill="#4D2A14"/>
<path d="M155.588 6.65185C156.963 3.87538 159.385 1.75871 162.32 0.767254C165.255 -0.224198 168.464 -0.00925164 171.241 1.36483L171.766 1.64567L347.679 99.9379C349.204 100.793 350.327 102.218 350.803 103.9C351.279 105.583 351.069 107.385 350.219 108.912L155.588 6.65185Z" fill="#6B391D"/>
<path d="M432.148 74.7606C419.449 58.4844 400.963 51.2681 388.899 57.1779C387.764 57.7273 381.72 61.5125 380.413 62.5259C368.643 71.7202 370.364 93.5887 384.259 111.367C396.531 127.13 414.174 134.346 426.226 129.572C429.606 127.815 432.869 125.841 435.994 123.662C447.765 114.419 446.043 92.5387 432.148 74.7606Z" fill="#BC5B2B"/>
<path d="M426.874 78.0938C440.769 95.8841 442.491 117.753 430.72 126.935C418.95 136.117 398.143 129.157 384.26 111.379C370.377 93.6007 368.643 71.72 380.414 62.538C392.185 53.3559 412.979 60.3035 426.874 78.0938Z" fill="#88441D"/>
<path d="M414.823 86.3604C427.033 101.989 427.741 121.831 416.41 130.671C405.079 139.511 386.007 134.017 373.809 118.4C361.611 102.783 360.891 82.9903 372.209 74.0769C383.528 65.1634 402.613 70.7313 414.823 86.3604Z" fill="#4D2A14"/>
<path d="M411.354 89.0339C423.565 104.663 424.786 124.126 414.004 132.527C403.222 140.927 384.699 135.042 372.489 119.413C360.279 103.784 359.058 84.3207 369.852 75.9201C380.646 67.5195 399.144 73.4048 411.354 89.0339Z" fill="#6B391D"/>
<path d="M403.553 90.5723C390.818 74.3327 372.295 70.4743 359.291 77.8126C345.982 85.3341 325.749 96.9827 313.893 105.041C301.549 113.442 302.904 134.847 315.542 151.074C328.179 167.301 346.861 171.331 359.816 163.834C370.366 157.728 394.395 145.054 405.214 136.605C416.972 127.423 416.227 106.812 403.553 90.5723Z" fill="#F3B910"/>
<path d="M386.325 76.9946L305.347 125.555C305.511 128.238 305.949 130.897 306.653 133.491L395.153 82.2084C392.444 80.1024 389.477 78.3504 386.325 76.9946Z" fill="#FFD241"/>
<path d="M408.315 106.3C397.497 114.737 373.479 127.399 362.917 133.516C349.999 141.013 331.342 136.996 318.655 120.769C315.475 116.701 312.935 112.172 311.122 107.337C301.854 116.898 303.918 136.141 315.542 151.026C328.228 167.265 346.898 171.282 359.816 163.785C370.366 157.68 394.395 145.006 405.214 136.556C413.932 129.743 415.775 116.654 410.977 103.723C410.171 104.662 409.28 105.524 408.315 106.3Z" fill="#EAAA0A"/>
<path d="M355.249 120.073C368.46 136.984 370.28 157.656 359.315 166.203C348.35 174.75 328.789 167.998 315.541 151.087C302.293 134.175 300.523 113.516 311.451 104.956C322.379 96.397 342.037 103.161 355.249 120.073Z" fill="#6B391D"/>
<path d="M351.745 121.831C365.176 139.084 367.252 160.012 356.287 168.572C345.322 177.131 325.517 170.086 312.037 152.833C298.557 135.58 296.665 114.92 307.629 106.373C318.594 97.8257 338.24 104.566 351.745 121.831Z" fill="#4D2A14"/>
<path d="M349.717 124.151C336.457 107.252 317.189 99.7302 304.601 105.835C303.38 106.409 297.103 110.329 295.748 111.391C283.465 120.927 285.272 143.638 299.753 162.112C312.562 178.413 330.962 185.971 343.551 180.953C347.068 179.13 350.469 177.091 353.734 174.847C366.006 165.323 364.211 142.612 349.717 124.151Z" fill="#88441D"/>
<path d="M344.211 127.618C358.704 146.08 360.499 168.803 348.228 178.339C335.957 187.876 314.259 180.647 299.753 162.173C285.248 143.699 283.465 121.025 295.748 111.452C308.032 101.879 329.766 109.144 344.211 127.618Z" fill="#A74D2A"/>
<path d="M299.753 162.173C285.272 143.699 283.465 120.988 295.748 111.452C308.032 101.916 329.766 109.144 344.21 127.619L299.753 162.173Z" fill="#BC5B2B"/>
<g style="mix-blend-mode:multiply" opacity="0.3">
<path d="M376.165 285.179C375.731 278.423 376.863 271.658 379.474 265.411L388.314 261.748L390.573 258.964L367.984 246.754L378.314 241.65L379.376 237.132L362.734 229.146C362.462 226.272 362.916 223.375 364.052 220.721L374.773 215.202C374.979 215.107 375.155 214.956 375.28 214.766C375.405 214.576 375.475 214.355 375.481 214.128C375.481 213.823 375.42 212.785 375.408 212.48C375.385 212.246 375.296 212.024 375.151 211.84C375.006 211.656 374.811 211.518 374.59 211.442L360.292 205.276C360.038 205.164 359.763 205.106 359.486 205.106C359.208 205.106 358.934 205.164 358.68 205.276C358.457 205.375 358.266 205.536 358.13 205.74L236.395 153.065C227.518 155.507 226.284 149.841 226.284 149.841C223.439 143.907 213.281 146.703 213.281 146.703L16.6961 241.906C16.6961 241.906 11.0062 261.027 18.8451 273.201C19.3714 274.466 20.2843 275.532 21.4532 276.247C22.6221 276.962 23.9872 277.289 25.3532 277.181C23.8757 284.508 23.6559 293.384 27.4655 301.602C28.247 304.178 30.4204 306.755 36.1592 305.985C36.1592 305.985 44.7064 305.411 44.7674 312.554L138.176 360.089L137.345 370.126L144.171 365.938L149.653 377.94L150.606 366.414L178.689 380.7L389.132 298.439L390.781 294.044L376.165 285.179Z" fill="#244442"/>
</g>
<path d="M206.54 203.419L14.6325 301.406L10.7253 295.679L10.1025 278.512L13.7656 259.952L190.399 178.852L206.54 203.419Z" fill="#2A7AB9"/>
<path d="M321.744 291.883L200.216 199.17L13.3996 291.968L10.7744 295.228C10.7744 295.228 9.26032 306.608 18.4668 304.996C19.4419 304.906 20.4249 305.03 21.3471 305.36C22.2694 305.689 23.1086 306.215 23.8062 306.903C24.5039 307.59 25.0431 308.421 25.3862 309.338C25.7294 310.255 25.8682 311.236 25.793 312.213L140.325 387L320.316 296.73L321.744 291.883Z" fill="#9BCEEA"/>
<path d="M11.8359 290.491C11.8359 290.491 11.8359 302.371 19.3086 300.796C19.3086 300.796 27.172 299.575 27.2208 307.377L141.728 382.165L321.719 291.882L198.994 197.62L11.8359 290.491Z" fill="#2A7AB9"/>
<g style="mix-blend-mode:multiply" opacity="0.7">
<path d="M18.2709 300.93C15.0841 289.941 21.702 263.579 21.702 263.579L61.9957 253.432C61.9957 253.432 279.338 260.258 279.423 260.685C279.509 261.112 314.027 291.333 313.428 291.858C312.83 292.383 141.264 380.492 141.264 380.492C141.264 380.492 37.4776 311.663 26.8547 305.094C25.2308 299.123 18.2709 300.93 18.2709 300.93Z" fill="#2A7AB9"/>
</g>
<path d="M36.037 266.107L29.9319 269.147C25.3706 280.274 24.6741 292.609 27.9538 304.178L141.277 378.465L310.584 291.773C310.584 291.773 304.161 265.667 312.806 253.005L110.666 221.674L36.037 266.107Z" fill="#EADACC"/>
<path d="M141.278 378.428L310.584 291.736C307.729 279.234 309.063 266.139 314.382 254.47L109.384 237.84L108.762 237.742L142.682 359.209L141.278 378.428Z" fill="#F4ECE4"/>
<path d="M321.536 253.505L211.119 176.752C203.28 178.73 202.865 172.369 202.865 172.369C201.095 165.641 192.145 167.826 192.145 167.826L14.3882 254.824L14.1562 258.377C15.6871 259.21 16.9593 260.448 17.8336 261.956C18.708 263.463 19.1508 265.182 19.1136 266.924C19.3456 271.894 26.5985 270.429 26.5985 270.429L145.233 348.818L319.607 256.558L321.536 253.505Z" fill="#9BCEEA"/>
<path d="M14.3887 254.824L192.145 167.826C192.145 167.826 201.095 165.641 202.866 172.369C202.866 172.369 203.281 178.73 211.12 176.752L321.537 253.505L145.734 345.693L28.5159 267.401C28.5159 267.401 21.263 268.854 21.031 263.884C21.0432 263.884 19.7123 257.645 14.3887 254.824Z" fill="#3FA0D7"/>
<g style="mix-blend-mode:multiply" opacity="0.4">
<path d="M202.865 172.369L21.043 263.885C21.275 268.854 28.5278 267.401 28.5278 267.401L211.119 176.728C203.28 178.731 202.865 172.369 202.865 172.369Z" fill="#2A7AB9"/>
</g>
<path d="M14.3885 254.824C14.3885 254.824 3.39931 279.416 11.0429 300.258L14.0344 298.781C9.75221 286.041 10.5885 272.136 16.3666 260.001L14.3885 254.824Z" fill="#9BCEEA"/>
<path d="M115.526 383.96L110.825 370.797L105.001 375.388L107.126 342.237L117.663 350.809L115.526 383.96Z" fill="#DF341A"/>
<path d="M117.662 350.809L115.525 383.96L110.824 370.797L112.387 346.523L117.662 350.809Z" fill="#C1251E"/>
<path d="M188.445 153.089L7.35545 269.867L2.88651 264.568L1.7998 234.702L169.91 130.28L188.445 153.089Z" fill="#244442"/>
<path d="M311.951 229.537L181.716 149.523L5.14447 260.575L2.87337 264.08C2.87337 264.08 2.49485 275.557 11.506 273.054C12.4698 272.857 13.4652 272.874 14.4216 273.105C15.3781 273.335 16.2723 273.772 17.041 274.386C17.8098 275 18.4343 275.775 18.8704 276.657C19.3065 277.539 19.5435 278.505 19.5647 279.489L141.032 342.384L311.047 234.482L311.951 229.537Z" fill="#88B5A5"/>
<path d="M3.47266 259.281C3.47266 259.281 4.69368 271.113 11.9465 268.793C11.9465 268.793 19.639 266.754 20.4937 274.544L141.973 337.439L311.976 229.537L180.35 148.083L3.47266 259.281Z" fill="#244442"/>
<g style="mix-blend-mode:multiply" opacity="0.7">
<path d="M10.933 269.025C8.40244 262.38 8.11513 255.09 10.1149 248.267L49.6882 217.376C49.6882 217.376 266.591 202.333 266.737 202.723C266.884 203.114 304.247 229.732 303.71 230.318C303.172 230.904 141.314 335.802 141.314 335.802C141.314 335.802 31.1287 277.755 19.9075 272.309C17.6731 266.534 10.933 269.025 10.933 269.025Z" fill="#244442"/>
</g>
<path d="M25.6225 247.694L19.847 251.357C17.9656 257.902 18.3179 264.888 20.8483 271.211L141.058 333.739L300.828 230.502C300.828 230.502 293.686 220.111 301.024 206.643L94.6712 197.07L25.6225 247.694Z" fill="#EADACC"/>
<path d="M141.094 333.776L300.828 230.502C300.828 230.502 293.685 220.111 301.023 206.643L95.2321 197.107H94.6094L140.508 314.508L141.094 333.776Z" fill="#F4ECE4"/>
<path d="M307.263 202.528L189.678 137.253C182.084 140 181.034 133.724 181.034 133.724C178.592 127.204 169.91 130.268 169.91 130.268L1.7998 234.702L1.93412 238.243C3.54509 238.92 4.93799 240.028 5.95924 241.446C6.98048 242.863 7.59041 244.535 7.72176 246.278C8.45437 251.162 15.5241 249.013 15.5241 249.013L141.436 315.168L305.639 205.813L307.263 202.528Z" fill="#88B5A5"/>
<path d="M1.7998 234.702L169.91 130.268C169.91 130.268 178.592 127.204 181.034 133.724C181.034 133.724 182.084 140 189.678 137.253L307.263 202.528L141.607 311.932L17.1847 245.814C17.1847 245.814 10.0661 248.012 9.33351 243.127C9.33351 243.127 7.4165 237.022 1.7998 234.702Z" fill="#335D5B"/>
<g style="mix-blend-mode:multiply" opacity="0.4">
<path d="M181.033 133.723L9.33301 243.127C10.0656 248.011 17.1353 245.862 17.1353 245.862L189.678 137.301C182.083 139.999 181.033 133.723 181.033 133.723Z" fill="#244442"/>
</g>
<path d="M308.618 202.479C308.611 202.244 308.543 202.015 308.421 201.814C308.299 201.613 308.127 201.447 307.922 201.331L295.651 194.518C295.44 194.406 295.205 194.351 294.967 194.357C294.728 194.364 294.496 194.432 294.292 194.555C294.088 194.678 293.919 194.851 293.802 195.059C293.685 195.267 293.624 195.501 293.624 195.739L293.697 197.546L294.161 210.306V212.101C294.173 212.342 294.248 212.577 294.378 212.78C294.509 212.984 294.691 213.15 294.906 213.261C295.114 213.368 295.344 213.422 295.578 213.42C295.83 213.408 296.075 213.328 296.286 213.188L308.02 205.446C308.216 205.311 308.375 205.128 308.482 204.914C308.589 204.701 308.64 204.464 308.63 204.225C308.679 203.944 308.63 202.833 308.618 202.479Z" fill="#EAAA0A"/>
<path d="M156.504 302.481C156.397 302.193 156.197 301.949 155.936 301.788C155.675 301.626 155.368 301.557 155.063 301.589L129.922 304.447C129.627 304.477 129.349 304.602 129.129 304.802C128.909 305.002 128.759 305.267 128.701 305.558C128.616 305.997 128.811 307.121 128.701 307.353C128.649 307.64 128.689 307.937 128.816 308.201C128.944 308.464 129.151 308.68 129.409 308.818L140.936 314.923C141.149 315.038 141.389 315.097 141.632 315.094C141.881 315.084 142.122 315.004 142.328 314.862L155.942 305.875C156.198 305.705 156.389 305.453 156.484 305.161C156.58 304.868 156.574 304.552 156.467 304.263C156.529 303.671 156.542 303.075 156.504 302.481Z" fill="#EAAA0A"/>
<path d="M307.922 201.331L295.651 194.518C295.44 194.406 295.205 194.351 294.967 194.357C294.728 194.364 294.496 194.432 294.292 194.555C294.088 194.678 293.919 194.851 293.802 195.059C293.685 195.267 293.624 195.501 293.624 195.739L294.161 210.306C294.166 210.486 294.207 210.662 294.281 210.826C294.355 210.99 294.461 211.137 294.593 211.259C294.725 211.38 294.881 211.474 295.05 211.535C295.219 211.596 295.398 211.622 295.578 211.612C295.825 211.601 296.065 211.525 296.274 211.393L308.008 203.639C308.21 203.51 308.374 203.328 308.481 203.113C308.589 202.898 308.636 202.658 308.618 202.418C308.601 202.194 308.528 201.977 308.406 201.788C308.285 201.598 308.119 201.441 307.922 201.331Z" fill="#FFD241"/>
<path d="M155.062 301.589L129.921 304.447C129.626 304.477 129.348 304.602 129.128 304.802C128.908 305.001 128.758 305.266 128.7 305.558C128.645 305.842 128.683 306.137 128.809 306.399C128.934 306.66 129.14 306.875 129.396 307.011L140.935 313.116C141.146 313.237 141.388 313.292 141.631 313.274C141.878 313.263 142.118 313.187 142.327 313.055L155.941 304.056C156.198 303.889 156.39 303.639 156.485 303.348C156.581 303.058 156.574 302.743 156.466 302.456C156.357 302.18 156.161 301.946 155.908 301.79C155.655 301.633 155.358 301.563 155.062 301.589Z" fill="#FFD241"/>
<path d="M245.064 207.717C244.831 207.589 244.614 207.433 244.417 207.253C243.196 206.154 243.44 204.445 245.101 202.943C245.363 202.709 245.64 202.493 245.931 202.296C246.248 202.083 246.578 201.891 246.92 201.722L245.406 200.928L189.117 171.331L187.603 170.525C187.344 170.767 187.067 170.987 186.773 171.184C186.46 171.397 186.134 171.589 185.796 171.758C183.625 172.913 181.112 173.251 178.714 172.711C178.429 172.623 178.151 172.513 177.883 172.381C177.647 172.252 177.425 172.096 177.224 171.917L175.38 173.138L148.249 191.6L146.406 192.821C146.697 192.907 146.979 193.022 147.248 193.163C147.486 193.279 147.704 193.431 147.895 193.614C149.116 194.713 148.872 196.423 147.211 197.912C146.955 198.157 146.677 198.378 146.381 198.572C146.069 198.784 145.742 198.976 145.404 199.146L146.906 199.939L203.195 229.537L204.709 230.343C204.968 230.101 205.246 229.88 205.54 229.683C205.857 229.476 206.187 229.28 206.516 229.11C208.687 227.954 211.2 227.617 213.598 228.157C213.886 228.243 214.164 228.358 214.429 228.499C214.667 228.615 214.889 228.763 215.088 228.939L216.932 227.718L244.075 209.329L245.907 208.108C245.616 208.001 245.334 207.87 245.064 207.717ZM205.015 228.279L148.725 198.682C151.363 196.496 151.778 193.883 149.739 192.332L176.882 173.944C179.727 174.957 184.013 174.383 187.31 172.552L243.587 202.149C240.961 204.335 240.534 206.936 242.573 208.499L215.43 226.814C212.548 225.91 208.311 226.497 205.015 228.328V228.279Z" fill="#EAAA0A"/>
<path d="M178.701 197.119L173.744 200.477L162.486 194.543L163.292 193.993L164.794 194.543C165.38 194.75 165.429 194.738 166.735 193.871L181.498 183.859C182.792 182.992 182.804 182.955 182.389 182.638L181.29 181.807L182.096 181.258L188.604 184.689L187.786 185.226L186.284 184.677C185.698 184.481 185.649 184.481 184.355 185.36L168.164 196.35L172.059 198.401C173.182 198.987 173.28 198.95 174.098 198.572L178.054 196.801L178.701 197.119Z" fill="#EAAA0A"/>
<path d="M178.53 202.992L173.939 200.55L174.745 200L176.259 200.562C176.87 200.77 176.894 200.757 178.53 200.049L200.252 190.794L202.292 191.868L189.666 205.91C188.702 206.96 188.714 207.009 189.105 207.314L190.203 208.132L189.398 208.682L182.841 205.275L183.647 204.726L185.161 205.275C185.747 205.483 185.796 205.471 186.772 204.421L189.446 201.527L183.952 198.633L179.458 200.574C177.822 201.27 177.822 201.307 178.237 201.624L179.349 202.455L178.53 202.992ZM190.191 200.684L197.322 192.919L185.246 198.096L190.191 200.684Z" fill="#EAAA0A"/>
<path d="M214.611 203.016L195.172 211.747L193.108 210.66L207.004 197.229C208.066 196.228 208.066 196.203 207.626 195.861L206.527 195.043L207.333 194.494L213.915 197.949L213.109 198.499L211.595 197.949C211.009 197.754 211.009 197.754 209.922 198.767L198.933 209.17L218.469 200.342L220.447 201.38L208.737 213.957L224.415 206.374C225.991 205.617 225.942 205.593 225.563 205.287L224.452 204.457L225.258 203.908L229.873 206.35L229.067 206.887L227.553 206.338C226.943 206.13 226.894 206.13 225.356 206.887L204.867 216.789L202.779 215.691L214.611 203.016Z" fill="#EAAA0A"/>
<path d="M164.392 182.454L162.78 181.746L155.271 186.838L156.638 187.717L164.392 182.454Z" fill="#FFD241"/>
<path d="M229.374 217.485L223.037 221.771L224.734 222.43L230.681 218.401L229.374 217.485Z" fill="#FFD241"/>
<path d="M178.042 196.728L174.611 198.267L175.906 198.975L178.702 197.082L178.042 196.728Z" fill="#FFD241"/>
<path d="M169.495 195.409L178.824 189.097L175.918 187.68L166.821 193.785L169.495 195.409Z" fill="#FFD241"/>
<path d="M178.151 200.233L179.067 200.733L179.458 200.562L183.951 198.621L189.446 201.515L186.772 204.409L186.503 204.69L189.421 206.191L189.666 205.935L196.662 198.157L194.757 197.144L193.866 196.68L190.203 200.685L185.258 198.096L191.473 195.434L190.557 194.958L178.542 200.074L178.151 200.233Z" fill="#FFD241"/>
<path d="M197.969 210.489L209.605 205.263L208.75 204.774L198.982 209.219L205.563 202.979L202.731 201.417L194.867 208.938L197.969 210.489Z" fill="#FFD241"/>
<path d="M204.636 213.712L208.018 215.3L218.262 210.342L217.383 209.805L208.714 214.005L214.306 207.986C213.39 207.449 212.462 206.899 211.498 206.35L204.636 213.712Z" fill="#FFD241"/>
<path d="M1.7999 234.702C1.7999 234.702 -3.08419 255.74 3.65585 269.098L5.23097 265.618C5.23097 265.618 0.346882 254.483 4.29078 239.647L1.7999 234.702Z" fill="#88B5A5"/>
<path d="M50.6291 314.191L43.9379 300.1L37.9671 305.851L36.624 268.793L49.2738 277.133L50.6291 314.191Z" fill="#DF341A"/>
<path d="M49.2731 277.132L50.6285 314.19L43.9373 300.1L42.9482 272.969L49.2731 277.132Z" fill="#C1251E"/>
</svg>
